<svg width="138" height="87" viewBox="0 0 138 87" fill="none" xmlns="http://www.w3.org/2000/svg">
<path d="M9.36295 1.13721C23.8912 14.2331 40.421 25.6134 56.4 36.7971C80.968 53.9921 106.611 70.9484 133.451 84.4709C138.267 86.8976 137.115 85.8498 133.408 82.9002C126.857 77.6868 115.857 69.8361 109.762 65.5372C86.9429 49.4397 62.8587 35.7058 39.5889 20.4105C15.0228 4.26309 92.9371 45.4304 117.956 60.8675C120.174 62.236 122.925 63.0739 124.493 65.1552C125.023 65.8581 123.251 66.7349 122.371 66.7259C108.185 66.5812 94.2966 62.5971 80.2157 60.8675C60.4171 58.4356 44.698 56.4985 25.0703 58.1081C20.5784 58.4765 16.1165 59.4476 11.8252 60.825C-12.0246 68.4805 14.7383 60.4257 7.83467 65.325" stroke="#F2F2F2" stroke-width="2" stroke-linecap="round"/>
</svg>
