<svg width="138" height="132" viewBox="0 0 138 132" fill="none" xmlns="http://www.w3.org/2000/svg">
<path d="M62.4587 61.5429C42.6324 66.1006 27.2204 73.2754 12.1528 87.184C9.64489 89.499 2.44254 94.7092 1.83687 98.6461C1.62625 100.015 3.96768 99.4765 4.25664 99.4527C7.91413 99.1521 12.0722 98.1887 15.5065 97.3301C31.5141 93.3282 46.9726 87.3851 62.3737 81.5379C69.522 78.8239 76.8099 76.0351 83.897 73.1323C86.2142 72.1833 92.6499 69.4261 90.18 69.0145C84.4561 68.0605 64.6895 70.0076 62.7134 70.2031C50.6141 71.4003 38.6657 73.9717 26.5441 74.9153C23.8161 75.1277 57.2293 63.463 53.9258 68.8447C52.2012 71.654 49.0308 73.261 46.5815 75.4672C39.0406 82.2597 35.5654 84.4627 30.0251 92.6179C25.432 99.379 24.8931 107.401 20.9404 114.269C17.6337 120.013 11.796 123.276 7.18585 127.768C6.63649 128.304 5.78492 128.827 5.78492 129.594C5.78492 130.078 6.7172 130.097 7.18585 129.976C10.8648 129.026 17.3134 125.243 19.8366 123.438C34.6929 112.811 47.1051 97.5961 54.3927 80.8162C59.2109 69.7222 61.248 57.9927 49.3834 51.2694C43.5748 47.9779 32.4431 46.7473 44.2891 40.7413C49.9194 37.8867 74.3066 27.8979 77.3169 26.6471C97.0814 18.4354 116.811 10.1393 136.58 1.93994" stroke="#F2F2F2" stroke-width="2" stroke-linecap="round"/>
</svg>
