<svg width="150" height="81" viewBox="0 0 150 81" fill="none" xmlns="http://www.w3.org/2000/svg">
<path d="M37.0916 1.3374C72.0753 25.2736 105.16 51.7827 140.93 74.61C142.684 75.7292 144.472 76.7954 146.194 77.9637C146.852 78.4104 148.686 78.9565 148.062 79.4495C147.328 80.0291 146.256 78.9465 145.387 78.6005C143.055 77.6717 140.757 76.6583 138.468 75.6288C105.247 60.6902 72.4499 44.8976 38.9595 30.5445C27.0554 25.4428 -8.82519 10.5352 3.1298 15.5164C20.7086 22.841 37.8958 31.2579 54.6668 40.2661C66.8751 46.8235 76.2385 52.1013 87.6946 59.8366C88.2421 60.2062 106.765 72.5348 108.539 76.9448C110.966 82.9809 95.7466 74.2043 89.7324 71.7232C83.8819 69.3097 78.1877 66.5048 72.242 64.3365C-69.5635 12.6216 118.295 80.0434 55.4309 62.4686" stroke="#F2F2F2" stroke-width="2" stroke-linecap="round"/>
</svg>
