<svg width="228" height="104" viewBox="0 0 228 104" fill="none" xmlns="http://www.w3.org/2000/svg">
<path d="M103.669 12.418C103.629 12.0592 102.278 11.0275 101.952 10.7011C101.719 10.4688 101.386 10.4728 101.178 10.2029C100.906 9.84978 100.611 9.27025 100.235 9.02646C98.7127 8.04161 97.4363 6.59043 95.9952 5.44409C94.7141 4.42501 93.154 3.27943 91.5437 2.92159C89.4239 2.45052 88.0534 3.12336 86.4987 4.59619C85.4028 5.63448 84.3151 6.82728 83.6371 8.22095C83.2579 9.00038 83.0175 9.75837 82.8316 10.5951C82.7009 11.1832 82.5696 11.7978 82.503 12.3969C82.458 12.8025 82.1838 12.984 82.0685 13.3719C81.5019 15.2777 80.7334 16.8266 79.6308 18.4805C79.206 19.1177 78.9745 19.756 78.3377 20.2399C77.9548 20.5309 77.8621 21.2196 77.5322 21.3846" stroke="white" stroke-width="4" stroke-linecap="round"/>
<path d="M102.142 13.7535C102.037 12.9126 100.267 12.4112 99.6835 12.1318C98.9696 11.7898 98.4429 11.1872 97.7122 10.8918C97.0507 10.6244 96.3294 10.4293 95.6454 10.2241C93.4197 9.55637 91.3709 10.053 89.6571 11.5383C87.7333 13.2057 85.5742 15.2595 84.061 17.3358C83.3293 18.3397 82.3105 19.0763 81.5809 20.0491C80.7989 21.0918 79.7473 21.4998 78.8252 22.3808C74.9689 26.0657 70.4909 28.4275 65.8842 31.0188C65.1045 31.4573 64.1883 31.5373 63.3299 31.7289C62.1046 32.0023 60.9407 32.5034 59.7051 32.7252C57.9499 33.0402 56.2281 33.4672 54.4482 33.6896C51.4111 34.0693 47.5195 33.9529 44.7079 32.6298C42.6188 31.6467 40.5314 30.5781 38.8045 29.0156C37.1894 27.5544 36.2171 25.474 34.8617 23.7798C33.0602 21.5279 31.7011 18.1413 28.4283 18.1413C27.6986 18.1413 26.8829 18.0381 26.1708 18.1837C25.4728 18.3265 24.3356 18.4589 23.8814 19.0104C23.6031 19.3485 22.0723 19.6815 21.5497 19.8159C20.916 19.9789 20.3167 20.1936 19.7267 20.473C18.7937 20.915 17.6611 21.7025 16.9075 22.3808C16.3002 22.9273 16.0308 23.8347 15.1481 24.0554" stroke="white" stroke-width="4" stroke-linecap="round"/>
<path d="M13.8128 24.0552C15.1604 24.107 16.4174 24.8177 17.7238 25.1044C19.3208 25.455 20.6306 26.1623 22.101 26.8214C23.4642 27.4325 24.9285 27.7827 26.2133 28.549C27.3204 29.2094 28.651 29.2927 29.7321 30.0541C31.0065 30.9515 32.5142 31.4294 33.8444 32.248C35.0155 32.9686 36.5196 33.0778 37.66 33.9014C39.1708 34.9926 40.4426 36.8348 42.175 37.6003C43.5347 38.2011 44.6322 39.2985 45.7892 40.0698C46.0584 40.2494 46.7475 40.7226 47.0504 40.6104C47.6079 40.4039 47.9997 39.8602 48.5343 39.5929C49.1923 39.2639 49.9715 39.1415 50.6752 38.9358C52.1868 38.4939 53.5767 37.8808 55.0313 37.3354C56.1966 36.8984 57.5406 37.1168 58.7302 36.5617C59.2615 36.3137 59.9138 36.4786 60.214 35.9681C60.3604 35.7193 60.8911 35.619 61.1255 35.5018" stroke="white" stroke-width="4" stroke-linecap="round"/>
<path d="M8.66187 44.2778C9.02961 42.6229 11.3115 41.8426 12.382 40.8544C13.9402 39.416 16.42 40.4204 18.0205 41.3207C19.0944 41.9248 19.9603 42.8297 21.1048 43.3239C22.3686 43.8696 23.6515 44.5844 24.8779 45.2317C25.9609 45.8032 27.1795 46.5484 28.0787 47.3726C28.8233 48.0551 29.8245 48.2994 30.6436 48.8564C31.6843 49.5641 31.2714 51.8694 30.1137 52.2904C29.0301 52.6844 28.1816 53.6613 27.0718 54.1134C26.3001 54.4278 25.7133 55.0092 25.0051 55.4276C23.8467 56.1121 22.5358 56.4738 21.3803 57.1552C20.0943 57.9137 19.2962 58.931 18.2007 59.8791C17.6567 60.3499 16.9112 60.9051 16.4837 61.4901C15.514 62.8171 13.0497 64.3996 13.0497 66.2171" stroke="white" stroke-width="4" stroke-linecap="round"/>
<path d="M13.4312 24.2461C12.4991 25.2818 12.8049 28.2524 11.1419 28.2524C10.7743 28.2524 9.26386 28.0522 9.0857 28.3372C8.62471 29.0748 7.98153 29.8146 7.61248 30.6265C7.29746 31.3196 7.32631 32.179 7.32631 32.937C7.32631 34.1026 7.44639 34.3305 8.2802 35.1204C8.93856 35.7441 9.61564 35.5545 9.61564 36.6042C9.61564 37.6076 9.61564 38.6109 9.61564 39.6142C9.61564 41.2424 9.04331 42.6201 9.04331 44.2671C9.04331 47.1959 9.04331 50.1246 9.04331 53.0534C9.04331 55.4346 9.04331 57.8158 9.04331 60.197C9.04331 61.4676 9.63357 63.1287 9.04331 64.3093" stroke="white" stroke-width="4" stroke-linecap="round"/>
<path d="M7.70776 64.1187C8.61297 65.0239 9.20143 65.247 10.421 65.4965C12.1368 65.8474 13.8237 66.7025 15.5932 66.7895C19.774 66.9951 23.9101 68.4846 28.0785 68.8457C36.7693 69.5984 45.6628 69.1621 54.2574 70.5945C58.1646 71.2457 62.1309 71.0363 66.0749 71.188C67.8718 71.2571 69.6798 71.3962 71.4697 71.559C74.3336 71.8193 77.1418 72.5682 80.0123 72.693C89.357 73.0993 98.4525 74.9116 107.569 76.8583C109.596 77.2912 111.645 78.0665 113.695 78.3209C116.139 78.6244 118.586 78.7731 121.029 79.0417C122.512 79.2046 123.983 79.4333 125.47 79.5716C126.487 79.6661 127.403 80.106 128.427 80.1439C132.025 80.2772 135.609 80.7877 139.196 81.0554C143.112 81.3477 147.039 81.4037 150.96 81.6277C153.209 81.7562 155.425 82.191 157.68 81.9669C163.393 81.3992 169.127 80.938 174.828 80.2499C181.613 79.4311 188.392 78.9026 195.136 77.8652C199.681 77.1659 204.194 76.2971 208.67 75.2579C211.965 74.4931 215.43 73.683 218.622 72.6188C219.752 72.2423 221.131 71.1774 222.332 71.1774" stroke="white" stroke-width="4" stroke-linecap="round"/>
<path d="M31.5454 68.0582C31.6458 67.7237 32.1978 67.5982 32.4505 67.406C33.0901 66.9196 33.5768 66.2238 34.1942 65.7023C34.9994 65.0221 35.8556 64.4429 36.6966 63.8122C37.6576 63.0914 38.6883 62.336 39.7846 61.8289C40.5406 61.4793 41.2657 61.0893 42.0075 60.7108C42.6976 60.3587 43.4503 60.2013 44.1239 59.819C45.9743 58.7688 48.1498 58.8151 50.1668 59.047C52.2979 59.2919 54.0384 60.2755 55.8704 61.2832C57.231 62.0315 58.5914 62.8131 59.817 63.7323C60.179 64.0038 60.5565 64.2365 60.9018 64.5243C61.428 64.9628 61.1433 65 60.6023 65.303C59.0554 66.1692 57.537 67.0828 56.0102 67.985C55.6396 68.204 55.425 68.6303 55.0252 68.8303C54.5694 69.0581 54.4521 69.4785 54.0668 69.7354" stroke="white" stroke-width="4" stroke-linecap="round"/>
<path d="M74.0727 43.5005C72.5506 43.5005 71.0717 44.4552 69.76 45.1111C68.5041 45.739 67.2041 46.2173 65.8734 46.6684C64.6399 47.0865 63.3985 47.2824 62.2396 47.9262C61.6761 48.2393 60.9384 48.4887 60.4826 48.9445C60.0359 49.3912 59.4973 49.8013 59.1582 50.3288C58.7218 51.0076 59.1075 50.8991 59.8037 51.2472C60.8437 51.7672 61.8003 52.3406 62.772 52.9709C63.4285 53.3968 64.1357 53.7009 64.8218 54.0691C65.5516 54.4607 66.4011 54.6227 67.0979 55.0541C68.2211 55.7494 69.4166 56.5062 70.5986 57.0972C71.205 57.4004 71.7435 57.6363 72.4222 57.6363C74.4351 57.6363 76.1858 56.0034 77.8196 55.0274C79.393 54.0875 80.8316 53.0106 82.4051 52.0592C83.0713 51.6563 83.8931 51.3753 83.0972 50.6749C81.8483 49.5758 80.6792 48.1776 79.2238 47.3606C78.2371 46.8066 77.1758 45.9913 76.3687 45.1843C75.8684 44.684 75.3874 44.0388 74.6716 43.8599" stroke="white" stroke-width="4" stroke-linecap="round"/>
<path d="M75.2706 26.6095C75.8285 26.9017 76.4025 27.182 76.941 27.5079C77.8454 28.0553 78.8742 28.2852 79.8494 28.6726C80.8116 29.0548 81.8542 29.2238 82.831 29.5777C83.9682 29.9897 85.4006 29.5046 86.5579 29.3647C88.5778 29.1207 90.5492 28.7133 92.561 28.433C95.2673 28.056 97.985 27.7664 100.667 27.2617C102.46 26.9242 104.285 26.4678 106.085 26.2234C106.842 26.1206 107.14 26.0354 107.349 25.3316C107.467 24.9319 107.406 24.4287 107.069 24.1736C106.546 23.7774 104.975 24.0938 104.381 24.0938C102.935 24.0938 101.498 24.2003 100.055 24.2136C97.2198 24.2396 94.3968 24.6344 91.576 24.8392C90.6904 24.9034 89.7997 25.0012 88.9139 25.0455C88.2112 25.0806 87.5367 25.2784 86.8374 25.2917C85.4068 25.319 83.4941 25.7057 82.1521 25.1054C81.013 24.5958 79.6645 24.4275 78.6248 23.7344" stroke="white" stroke-width="4" stroke-linecap="round"/>
<path d="M94.0785 57.3965C93.7761 57.6811 93.409 57.8232 93.0736 58.0554C92.5074 58.4473 92.0476 59.0527 91.5096 59.4929C90.7419 60.1211 90.4847 61.0544 90.4847 62.0086C90.4847 63.1025 92.2355 63.9835 93.0802 64.2248C95.4861 64.9122 98.0107 65.4263 100.488 65.7888C100.658 65.8138 104.74 66.8093 104.74 66.3811C104.74 65.8728 104.153 65.4273 103.875 65.0634C103.21 64.1923 102.508 63.3562 101.612 62.7207C100.581 61.9894 99.5838 61.036 98.684 60.1518C98.1213 59.5987 97.5541 59.3057 96.9137 58.8606C96.4121 58.5121 95.7917 57.7559 95.1567 57.7559" stroke="white" stroke-width="4" stroke-linecap="round"/>
<path d="M127.595 61.35C128.192 60.5994 128.393 59.5584 129.178 58.9541C129.451 59.2268 129.859 59.2858 130.23 59.4333C130.682 59.6132 130.858 59.8548 131.162 60.1986C131.859 60.9894 133.144 61.5127 133.997 62.0954C136.028 63.4832 138.079 64.8708 140.013 66.3814C140.983 67.1386 142.446 67.8745 143.068 68.9636C143.293 69.3576 143.298 69.9561 142.742 69.9752C142.145 69.9958 141.616 69.8761 141.025 69.8022C139.926 69.6648 138.823 69.7191 137.73 69.4961C134.624 68.862 131.205 69.3529 128.06 69.2498C126.636 69.2031 125.268 68.8971 123.828 68.8971C123.118 68.8971 122.834 68.9903 123.016 68.2382C123.319 66.98 124.404 66.0109 125.112 64.9838C125.946 63.7748 126.679 62.4996 127.595 61.35Z" stroke="white" stroke-width="4" stroke-linecap="round"/>
<path d="M143.913 47.6933C142.241 47.5694 140.003 46.4798 138.356 47.334C137.468 47.7945 137.019 48.4979 136.666 49.4171C136.543 49.7349 136.394 50.0567 136.306 50.3887C136.147 50.9954 136.938 51.3501 137.418 51.5667C138.115 51.8815 138.818 52.0579 139.508 52.392C140.558 52.9009 141.524 53.5475 142.436 54.2554C143.162 54.8191 143.969 55.2893 144.725 55.8128C145.196 56.1388 145.448 56.625 145.897 56.9242C146.176 57.1105 146.908 58.1787 146.908 57.5032C146.908 56.3809 146.856 55.3056 146.609 54.2022C146.394 53.2444 145.861 52.4098 145.644 51.4403C145.414 50.4193 145.216 49.4608 144.752 48.5319" stroke="white" stroke-width="4" stroke-linecap="round"/>
<path d="M151.7 38.1097C151.52 39.2808 151.278 39.9412 151.607 41.1312C151.977 42.4698 152.406 43.6585 152.545 45.0512C152.699 46.5926 152.68 48.2139 153.098 49.7165C153.54 51.3108 153.893 52.9258 154.156 54.5549C154.315 55.5433 154.697 56.3321 154.994 57.2836C155.148 57.7739 155.42 58.4184 156.013 58.4749C156.398 58.5115 157.075 58.9551 157.423 58.781C157.73 58.6276 157.753 58.1702 157.889 57.9092C158.442 56.854 159.056 55.8907 159.433 54.7479C159.97 53.1209 159.823 51.3735 159.939 49.6899C160.043 48.1781 160.325 46.6541 160.325 45.1377C160.325 44.74 160.565 44.4885 160.565 44.0862C160.565 43.5404 160.565 42.9947 160.565 42.449C160.565 41.735 160.325 41.1375 160.325 40.4457C160.325 40.1626 160.447 39.4127 160.265 39.1945C160.178 39.0898 160.262 38.8782 160.126 38.8285C159.871 38.7361 159.553 38.664 159.287 38.6155C156.853 38.1731 154.427 37.5107 151.94 37.5107" stroke="white" stroke-width="4" stroke-linecap="round"/>
<path d="M172.544 50.5684C170.757 50.5684 169.592 50.6458 168.618 52.2854C167.678 53.8647 166.72 55.3977 166.248 57.217C165.841 58.7897 165.127 60.2945 164.904 61.909C164.773 62.8536 164.706 63.8634 164.824 64.8107C164.898 65.4041 164.914 66.1858 165.17 66.7407C165.432 67.3082 165.588 67.9404 166.049 68.3912C166.805 69.1304 168.046 69.2456 169.01 69.5026C170.506 69.9015 172.137 69.7342 173.662 69.5625C175.257 69.3829 176.846 69.2531 178.447 69.1299C180.138 68.9999 181.823 68.7759 183.512 68.6574C185.229 68.5369 186.89 68.1838 188.597 68.0318C189.919 67.914 191.218 67.6031 192.53 67.3996C193.32 67.2769 193.85 66.9466 194.586 66.7141C195.227 66.5117 195.937 65.9686 195.605 65.2366C195.365 64.7086 194.714 64.0712 194.32 63.626C193.71 62.9354 193.074 62.2275 192.284 61.7492C191.496 61.2726 190.515 60.5934 189.874 59.919C189.252 59.264 188.462 58.7902 187.838 58.1421C187.62 57.916 187.581 57.2065 187.705 56.9242C187.808 56.6892 188.403 56.3768 188.623 56.1987C188.755 56.0924 190.513 55.0442 189.648 54.7079C188.841 54.394 187.924 54.2983 187.106 53.9892C185.678 53.4497 184.155 52.8858 182.667 52.5516C180.541 52.0745 178.286 52.1279 176.205 51.4602C174.651 50.9618 172.945 50.888 171.346 50.5684" stroke="white" stroke-width="4" stroke-linecap="round"/>
<path d="M171.586 46.1357C172.89 47.3097 175.275 47.3505 176.87 47.8395C177.91 48.1584 178.942 48.3321 179.991 48.6049C181.027 48.8741 181.941 49.379 182.993 49.6098C185.105 50.0733 187.175 50.7188 189.342 50.9009C191.619 51.0922 193.94 51.0806 196.197 51.4333C198.271 51.7574 200.372 52.0311 202.466 51.7395C203.6 51.5817 204.713 51.1504 205.847 50.9542C206.574 50.8284 207.181 50.6813 207.498 49.9692C207.711 49.4903 205.898 49.4982 205.667 49.4833C204.977 49.4388 204.305 49.3814 203.611 49.3702C202.948 49.3595 202.401 49.0796 201.761 48.9642C200.098 48.6649 198.277 48.6694 196.59 48.5316C194.968 48.3993 193.212 48.3805 191.645 47.9327C190.327 47.5562 188.913 47.7059 187.565 47.5134C185.95 47.2826 184.207 47.2139 182.574 47.2139C180.912 47.2139 179.294 46.9552 177.649 46.8612C176.485 46.7947 175.365 46.3753 174.168 46.3753C173.286 46.3753 172.376 46.1357 171.466 46.1357" stroke="white" stroke-width="4" stroke-linecap="round"/>
<path d="M135.528 30.4429C135.045 31.2064 134.198 31.8726 133.445 32.3463C132.756 32.779 132.201 33.3594 131.534 33.8171C130.794 34.3249 129.905 34.7057 129.099 35.0949C127.868 35.689 126.654 36.4634 125.478 37.1647C124.332 37.8482 123.175 38.4536 122.124 39.2944C120.624 40.4947 118.994 41.5852 117.499 42.7818C117.326 42.9196 118.1 43.5805 118.231 43.6802C119.063 44.3166 120.034 44.6286 121.032 44.8782C122.852 45.3331 124.651 46.0459 126.543 46.136C127.185 46.1666 127.296 45.5869 127.628 45.1111C128.445 43.9399 129.294 43.0851 130.317 42.1029C132.069 40.419 133.653 37.9986 134.716 35.8336C135.457 34.3228 136.039 33.0367 136.366 31.4012" stroke="white" stroke-width="4" stroke-linecap="round"/>
<path d="M60.2962 33.4375C61.02 34.3841 62.0346 34.9856 62.8119 35.86C63.8418 37.0187 64.9144 37.7292 66.2593 38.4689C68.067 39.4631 69.8517 40.4356 71.5636 41.5769C72.135 41.9578 72.891 42.1662 73.4137 42.6085C73.7909 42.9276 74.3153 43.0182 74.5984 43.4271C74.7353 43.6248 75.0183 43.7772 75.224 43.9196C75.6747 44.2316 76.059 44.5986 76.4951 44.9378C78.1766 46.2456 79.8782 47.6288 81.3801 49.1306C81.6681 49.4187 82.0339 49.5672 82.3118 49.876C82.5035 50.089 82.8046 50.1905 82.9374 50.4484C83.0817 50.7285 83.0264 51.0031 83.1171 51.2936C83.3753 52.1197 81.8305 52.9854 81.267 53.3168C79.6428 54.2722 77.9024 55.0145 76.2555 55.959C73.0683 57.7869 70.2179 60.1246 66.998 61.8955C65.8159 62.5457 64.7791 63.568 63.4907 64.0318C62.2338 64.4843 61.1226 65.5006 59.9368 66.1415C58.0423 67.1656 56.0181 68.1436 54.546 69.6156" stroke="white" stroke-width="4" stroke-linecap="round"/>
<path d="M83.8958 30.3229C83.9191 30.7181 84.1944 30.8632 84.5613 30.9219C85.4051 31.0569 86.2288 31.3353 87.0637 31.5208C88.4155 31.8212 89.5671 32.4462 90.8705 32.8652C91.8254 33.1721 92.8219 33.5686 93.7922 33.797C94.5911 33.9849 95.4646 34.3959 96.2946 34.3959C97.0261 34.3959 97.7854 35.1377 98.5108 35.3277C99.2715 35.5269 99.9184 35.8735 100.654 36.1263C101.253 36.3322 101.965 36.5004 102.497 36.8451C103.303 37.3666 103.937 37.4111 104.913 37.0314C105.878 36.6562 106.678 36.1069 107.549 35.5673C108.52 34.9651 109.591 34.5347 110.557 33.9167C111.493 33.3179 112.454 32.8094 113.372 32.1864C114.005 31.7572 114.771 31.3052 115.468 30.9884C116.249 30.6337 117.071 30.3542 117.771 29.8437C118.348 29.4233 119.137 29.2689 119.768 28.912C120.518 28.4877 121.083 27.6223 121.877 27.2748C122.407 27.0432 122.917 27.3972 123.375 27.6209C124.441 28.1413 125.411 28.3978 126.356 29.1715C126.764 29.5047 127.3 30.0132 127.794 30.2031C128.225 30.3687 128.626 30.5743 128.939 30.9219C129.369 31.3994 129.217 32.2895 128.766 32.6589C127.927 33.3448 127.527 34.3466 126.663 34.9949" stroke="white" stroke-width="4" stroke-linecap="round"/>
<path d="M136.127 35.1147C136.713 35.1681 137.446 35.3379 137.97 35.6072C138.904 36.0876 139.806 36.2478 140.825 36.5257C141.744 36.7764 142.307 36.9362 143.048 37.4574C143.494 37.7715 143.653 37.9222 143.434 38.4956C143.151 39.2391 143.022 40.0623 142.635 40.7651C142.114 41.7123 141.309 42.5827 140.692 43.4738C140.162 44.2398 139.592 45.0399 138.915 45.6833C138.55 46.0298 138.294 46.6132 137.99 47.0277C137.744 47.3633 137.412 48.1286 137.085 48.2922" stroke="white" stroke-width="4" stroke-linecap="round"/>
<path d="M72.3954 70.4541C74.5628 69.4908 76.6985 68.3462 78.6514 67.0066C80.1961 65.9471 81.8275 65.1422 83.4299 64.1848C84.8109 63.3597 86.1791 62.4595 87.6227 61.749C88.1579 61.4855 89.4284 60.9242 89.6459 60.2715" stroke="white" stroke-width="4" stroke-linecap="round"/>
<path d="M105.1 66.7407C105.487 66.776 105.739 66.9621 105.971 67.2532C106.632 68.0786 107.761 68.5777 108.274 69.4894C108.385 69.6863 108.813 70.0073 108.813 70.2148C108.813 70.658 108.498 71.1296 108.268 71.4793C107.326 72.905 106.447 74.6472 105.1 75.7253" stroke="white" stroke-width="4" stroke-linecap="round"/>
<path d="M122.71 69.6157C123.421 69.9989 123.92 71.1661 124.413 71.7987C124.944 72.4792 125.506 73.1332 126.011 73.8352C126.832 74.9783 127.731 76.068 128.526 77.2294C129 77.9205 129.329 78.6312 129.897 79.1993" stroke="white" stroke-width="4" stroke-linecap="round"/>
<path d="M143.554 69.7354C143.809 69.8856 144.014 70.1396 144.153 70.4009C144.516 71.0827 145.07 71.6231 145.657 72.1179C147.072 73.3118 148.51 74.2819 149.73 75.6985C150.26 76.314 150.763 77.1101 151.194 77.7882C151.673 78.5409 152.196 79.2674 152.658 80.0377" stroke="white" stroke-width="4" stroke-linecap="round"/>
<path d="M147.028 58.4746C147.607 58.6081 148.199 59.0169 148.745 59.2466C149.864 59.7172 150.86 60.263 151.846 60.9637C152.801 61.6418 154.008 62.2624 154.761 63.1666C156.561 65.3259 158.706 67.2898 160.219 69.6754C161.034 70.9607 162.268 71.97 163.167 73.1894C163.884 74.1628 164.464 75.2964 165.277 76.1777C166.211 77.1912 166.284 78.9135 167.034 80.0377" stroke="white" stroke-width="4" stroke-linecap="round"/>
<path d="M15.9721 41.4639C16.024 42.0092 16.3343 42.418 16.5445 42.9014C16.6966 43.2513 16.5433 43.5611 16.7841 43.913C17.2798 44.6376 17.7663 45.3814 18.5477 45.8231C20.3651 46.8503 22.7039 45.4302 24.5973 46.2823C25.7841 46.8163 26.2756 48.599 26.7071 49.7497C26.9241 50.3283 27.1425 50.9542 27.2262 51.54C27.3032 52.0788 27.6172 52.2752 27.712 52.8444" stroke="white" stroke-width="4" stroke-linecap="round"/>
<path d="M9.26358 52.4852C10.8888 52.4852 14.1353 52.7809 15.0736 51.1209C15.2286 50.8466 15.5064 50.6881 15.7059 50.4487C16.1194 49.9525 16.2866 49.3965 16.4513 48.7849C16.6409 48.0807 17.1733 47.2681 17.5294 46.6152" stroke="white" stroke-width="4" stroke-linecap="round"/>
<path d="M13.4565 53.4434C13.9365 54.1634 14.3487 54.901 14.9805 55.5065C15.371 55.8806 15.8171 56.3625 16.0321 56.8642C16.1833 57.217 17.0844 58.9746 16.7575 59.1669C16.2919 59.4408 15.9125 59.7101 15.4997 60.092C15.0283 60.528 14.7497 61.1639 14.2285 61.5362C13.1249 62.3245 12.3963 63.4576 11.3002 64.2249" stroke="white" stroke-width="4" stroke-linecap="round"/>
<path d="M196.116 66.1772C196.418 66.596 196.823 66.8639 197.174 67.2355C197.537 67.6191 197.698 68.1308 197.93 68.5961C198.578 69.8914 199.51 71.0886 200.341 72.2831C200.727 72.8384 201.024 73.4514 201.256 74.0888C201.447 74.6128 201.94 74.9928 202.163 75.5501" stroke="white" stroke-width="4" stroke-linecap="round"/>
<path d="M188.86 57.4093C192.331 57.4093 195.496 56.4901 198.602 54.9905C201.372 53.6534 204.248 52.8537 207.093 51.7402C207.978 51.394 208.876 51.0835 209.772 50.7575C210.256 50.5818 210.472 50.2932 211.066 50.304C213.506 50.3484 215.381 52.2725 217.432 53.3275C218.343 53.7961 219.4 54.4602 220.153 55.1416C220.658 55.5982 221.153 56.3223 221.732 56.6534C222.112 56.8706 222.874 58.8537 222.874 59.2402C222.874 63.0236 222.863 66.9684 221.665 70.5616" stroke="white" stroke-width="4" stroke-linecap="round"/>
<path d="M222.874 60.584C222.913 60.9717 223.197 61.1897 223.445 61.4574C223.686 61.7176 223.79 62.1923 223.932 62.5157C224.284 63.3108 224.41 63.7877 224.571 64.6321C224.901 66.365 225.595 68.166 225.595 69.9485C225.595 72.4057 224.971 74.4196 223.865 76.5582C222.684 78.8419 220.512 80.3031 219.095 82.3869C218.365 83.4605 217.406 83.9731 216.407 84.8057C215.658 85.4302 215.499 86.3417 214.929 87.0901C214.143 88.1232 213.334 89.0922 212.51 90.0801C212.291 90.343 211.442 91.1616 211.007 90.7268C210.624 90.3436 209.55 89.8791 209.411 89.3914C209.345 89.1614 208.17 89.5794 208.017 89.6853C207.844 89.8052 207.755 90.1342 207.605 90.2984C206.834 91.1466 206.417 91.447 205.355 91.9782C203.994 92.6585 202.86 93.6186 201.458 94.229C200.729 94.5461 199.593 95.3201 198.837 95.3544C198.163 95.3851 197.51 95.522 196.838 95.5056C196.071 95.4869 196.41 94.607 196.032 94.229C195.788 93.9852 194.769 94.5696 194.554 94.7413C194.268 94.9697 194.277 95.2627 193.924 95.43C193.016 95.8601 192.153 96.373 191.253 96.7906C189.804 97.4636 187.163 98.4895 185.769 97.1685C185.16 96.5919 184.481 96.0817 183.871 95.5056C183.501 95.1561 181.826 95.8573 181.418 96.1103C178.935 97.6514 175.972 98.3508 173.54 99.9485C172.243 100.801 170.486 100.919 169.03 101.385C168.295 101.62 167.387 101.837 167.124 100.982C167.047 100.731 167.102 100.45 167.09 100.192C167.069 99.7267 166.681 99.4009 166.637 98.9826C166.545 98.1094 166.29 98.5027 165.57 98.8987C163.919 99.8066 162.118 101.04 160.287 101.326C159.805 101.401 158.514 101.683 158.255 101.091C157.905 100.292 157.425 99.5515 157.146 98.7139C156.91 98.0054 157.086 97.6364 156.088 98.1932C155.315 98.6245 154.523 98.5007 153.669 98.5291C152.835 98.5569 152.088 98.9758 151.301 99.1674C150.085 99.4633 148.866 99.6116 147.647 99.9653C145.231 100.667 142.717 101.009 140.265 101.401C138.699 101.652 137.313 101.526 135.797 101.25C134.994 101.104 134.256 100.677 133.412 100.646C132.918 100.627 132.723 100.199 132.269 100.192C131.311 100.177 130.448 100.343 129.481 100.343C127.743 100.343 126.004 100.343 124.266 100.343C122.669 100.343 121.152 100.041 119.545 100.041C118.511 100.041 117.515 100.224 116.488 100.184C115.186 100.133 112.935 100.265 112.549 98.6803C112.448 98.2622 112.564 97.7775 111.962 97.9916C111.466 98.1677 111.063 98.1998 110.551 98.2268C110.006 98.2554 109.268 98.6542 108.77 98.1932C107.685 97.1882 106.276 97.5109 105.024 96.9418C104.582 96.7406 103.863 96.7366 103.403 96.631C102.664 96.4612 101.93 96.2615 101.169 96.2615C99.6295 96.2615 98.0897 96.2615 96.55 96.2615C95.5106 96.2615 94.5537 96.2664 93.5349 96.4295C92.0311 96.6701 90.6322 96.715 89.0836 96.715C87.8831 96.715 86.6792 97.1633 85.5225 97.4373C84.433 97.6954 83.268 97.6538 82.2135 98.0756C81.4216 98.3923 80.4677 98.3016 79.7107 98.7643C78.9729 99.2151 78.297 99.7216 77.527 100.125C76.7334 100.541 76.7326 100.558 75.7801 100.192" stroke="white" stroke-width="4" stroke-linecap="round"/>
<path d="M6.84402 64.061C6.15064 65.9332 5.07973 67.602 5.25667 69.6545C5.3785 71.0678 5.63461 72.3352 5.63461 73.7699C5.63461 74.6125 5.63461 75.4552 5.63461 76.2979C5.63461 78.4927 3.56954 80.42 3.35858 82.5297C3.20135 84.102 2.63595 85.6743 2.42632 87.2581C2.27184 88.4253 2.20294 89.646 2.45992 90.8024C3.02639 93.3515 4.60333 95.5317 7.22196 96.3287C7.98015 96.5594 8.71591 96.9434 9.49799 97.0762C10.385 97.2268 11.3056 97.1685 12.2024 97.1685C13.2998 97.1685 14.3972 97.1685 15.4946 97.1685C16.5576 97.1685 17.6233 97.1508 18.6861 97.1685C19.4685 97.1816 20.1658 97.9543 20.8278 98.3108C21.4035 98.6208 22.1488 98.594 22.7847 98.7475C23.395 98.8948 24.0238 99.1408 24.6324 99.2514C26.1822 99.5332 27.6911 100.052 29.2264 100.41C30.2468 100.649 31.334 100.398 32.3675 100.57C33.1914 100.707 33.9668 100.846 34.8115 100.797C35.4095 100.762 35.5657 99.6526 36.2729 99.7469C37.1329 99.8616 37.8698 100.6 38.7421 100.646C39.8675 100.705 41.0574 100.472 42.1604 100.268C42.7042 100.167 44.689 100.332 45.0915 99.7889C45.358 99.4291 45.8123 99.1795 46.0322 98.8315C46.2096 98.5506 46.5178 98.08 46.83 97.9412C47.0237 97.8551 47.7368 98.4496 47.9135 98.5459C48.6 98.9204 49.1595 99.3815 49.778 99.7721C52.551 101.524 55.4815 101.401 58.6637 101.401C59.9914 101.401 61.3131 101.064 62.6195 100.872C63.3716 100.762 64.978 100.979 65.5842 100.494C66.2941 99.9265 66.6658 99.4362 67.5999 99.4362C68.3911 99.4362 69.536 100.349 70.3043 100.646C71.6925 101.182 74.3224 101.819 75.629 100.948" stroke="white" stroke-width="4" stroke-linecap="round"/>
<path d="M2.61099 90.2143C4.72499 90.2143 6.48084 91.0705 8.49845 91.5749C10.4131 92.0535 12.1837 93.3141 14.1508 93.5066C15.5459 93.643 16.9091 93.5725 18.2745 93.9265C20.9316 94.6154 23.8604 94.5984 26.5892 94.5984C29.6973 94.5984 32.6298 95.6566 35.7185 95.6566C38.063 95.6566 40.4034 96.1281 42.7398 96.2697C45.2325 96.4208 47.7138 96.4125 50.2146 96.4125C52.5528 96.4125 54.9792 96.2137 57.3031 96.4461C58.4205 96.5578 59.5532 96.7439 60.6625 96.8996C61.9903 97.086 63.3309 96.9866 64.6687 97.0928C66.9418 97.2732 69.2689 97.3195 71.5472 97.3195C73.4798 97.3195 75.3935 96.9757 77.3171 96.8744C78.4148 96.8166 79.7419 96.6379 80.7353 96.1101C81.5059 95.7008 82.4389 95.7107 83.1877 95.2115C84.2001 94.5366 85.7864 94.2398 86.9671 94.0273C88.9368 93.6727 90.9205 93.2421 92.8966 92.8683C94.7579 92.5161 96.8003 92.4819 98.6916 92.4819C101.461 92.4819 104.208 92.3986 106.956 92.7843C108.126 92.9485 109.282 93.0218 110.45 93.2042C111.711 93.4013 112.861 93.763 114.095 94.0609C115.54 94.4096 117.045 94.5781 118.445 95.1191C120.692 95.9871 123.337 95.6566 125.702 95.6566C128.415 95.6566 131.118 95.657 133.823 95.7994C143.767 96.3227 153.686 96.5637 163.664 96.5637C169.569 96.5637 175.33 95.3506 181.183 94.716C183.893 94.4221 186.686 94.2065 189.288 93.3806C193.466 92.0542 197.764 91.5009 201.777 89.6768C204.58 88.4024 207.512 87.4186 210.259 86.0149C211.465 85.399 212.517 84.5569 213.652 83.8313C214.995 82.9735 216.349 81.9467 217.348 80.707C218.079 79.7996 218.942 78.9788 219.532 77.9606C219.998 77.1556 220.094 76.1824 220.607 75.399C221.489 74.049 221.967 72.4891 221.967 70.8638" stroke="white" stroke-width="4" stroke-linecap="round"/>
<path d="M65.5001 95.5056C66.6426 94.4774 68.128 93.7446 69.4307 92.9356C70.3179 92.3846 71.0712 91.7283 72.0007 91.2391C74.4732 89.9378 76.5499 88.5125 79.2739 87.7956C81.9631 87.088 84.7123 87.1575 87.471 87.0062C91.2443 86.7991 94.9931 86.7578 98.7 87.5773C101.719 88.2446 104.781 88.8718 107.813 89.4586C111.131 90.1008 114.299 91.1748 117.605 91.8858C119.027 92.1914 120.442 92.7218 121.88 92.9272C122.667 93.0396 123.414 93.1815 124.156 93.4731C124.949 93.7847 125.56 94.3826 126.424 94.5985" stroke="white" stroke-width="4" stroke-linecap="round"/>
<path d="M14.4029 92.3307C14.4651 90.6515 15.2842 89.0695 15.4947 87.4091C15.6531 86.1596 15.6123 84.9061 15.6123 83.6465C15.6123 82.5853 15.5168 81.657 14.5876 81.0597C13.9071 80.6222 13.1891 80.3992 12.5888 79.8503C11.8976 79.2183 8.85054 78.2917 8.01989 79.0608C7.2513 79.7725 6.26043 80.19 5.63468 81.0765C5.14034 81.7768 4.56866 82.2097 3.97174 82.8066" stroke="white" stroke-width="4" stroke-linecap="round"/>
<path d="M6.39047 70.7129C6.66671 71.6107 7.73356 72.282 8.54053 72.611C9.84193 73.1416 11.3213 73.7494 12.6727 74.1228C13.8032 74.4351 15.4482 74.6956 16.6032 74.4587C18.0511 74.1617 19.5615 72.7511 20.6934 71.8383C21.2117 71.4204 21.505 71.0781 21.886 70.5701C22.0779 70.3142 22.4284 70.2328 22.5663 69.957" stroke="white" stroke-width="4" stroke-linecap="round"/>
<path d="M22.1128 70.7129C22.1128 71.7141 21.9778 72.698 21.9616 73.686C21.9592 73.8341 21.8474 74.6555 21.9952 74.761C22.4404 75.079 24.0535 74.8902 24.5652 74.9122C27.5945 75.0425 30.6376 74.9249 33.6693 74.9458C36.7506 74.9671 39.821 75.3993 42.8995 75.3993C44.9752 75.3993 47.0318 75.7017 49.0977 75.7017C50.081 75.7017 51.261 75.6648 52.1128 75.097C52.5461 74.8081 52.9943 74.1557 53.2718 73.7196C53.602 73.2008 53.9986 72.7491 54.3132 72.2246" stroke="white" stroke-width="4" stroke-linecap="round"/>
<path d="M54.1622 73.585C54.1622 74.6496 54.2402 75.3979 55.128 76.1214C56.2211 77.012 58.504 76.9599 59.8397 77.146C61.9477 77.4397 64.0924 77.5341 66.2142 77.6667C68.5262 77.8112 70.8258 78.1551 73.1431 78.305C75.0259 78.4268 76.8349 78.9508 78.745 79.0357C79.9288 79.0883 81.0412 79.3748 82.1633 78.8761C83.6058 78.235 85.2449 76.6357 85.7579 75.0967" stroke="white" stroke-width="4" stroke-linecap="round"/>
<path d="M86.3625 78.7251C86.4037 79.1375 86.84 79.6852 87.068 80.0353C87.5879 80.8337 88.6881 80.9287 89.5372 81.1439C93.6269 82.1808 97.762 81.8535 101.917 82.3533C104.196 82.6276 106.491 82.7512 108.77 83.0252C110.974 83.2902 113.272 84.0092 115.506 83.8651C115.922 83.8382 116.628 82.0757 116.9 81.715C117.103 81.4462 117.213 80.9875 117.505 80.8416" stroke="white" stroke-width="4" stroke-linecap="round"/>
<path d="M119.621 80.6904C119.621 83.7172 122.953 84.6434 125.433 85.0073C126.526 85.1677 127.675 85.0745 128.776 85.0745C130.675 85.0745 132.564 85.1639 134.462 85.2173C136.371 85.2711 138.282 85.4623 140.181 85.6792C142.01 85.8883 143.949 85.9816 145.791 85.9816C146.704 85.9816 147.617 85.9816 148.529 85.9816C148.973 85.9816 149.584 86.0951 150.008 85.948C151.436 85.4511 152.124 84.7609 152.124 83.2604" stroke="white" stroke-width="4" stroke-linecap="round"/>
<path d="M152.578 83.2604C152.74 84.1125 153.631 84.882 154.249 85.4608C155.179 86.3327 155.959 86.2839 157.214 86.2839C161.583 86.2839 165.887 85.3793 170.265 85.2257C170.939 85.2021 171.608 85.0894 172.281 85.0409C173.31 84.9668 174.444 85.0691 175.397 84.6294C175.863 84.4143 176.322 84.2152 176.799 84.0499C177.41 83.8386 177.963 83.104 177.438 82.4289C177.157 82.0682 176.766 81.8968 176.766 81.4463" stroke="white" stroke-width="4" stroke-linecap="round"/>
<path d="M179.033 80.9925C179.281 81.0475 179.359 81.3527 179.52 81.5216C179.874 81.8912 180.417 82.0894 180.881 82.2859C181.778 82.6656 182.471 82.9697 183.451 82.9578C186.406 82.9217 189.34 82.2482 192.269 81.9331C194.042 81.7426 195.784 81.1629 197.552 80.8413C199.492 80.4886 201.377 80.0258 203.305 79.6319C205.244 79.2359 206.821 78.1565 208.059 76.6084" stroke="white" stroke-width="4" stroke-linecap="round"/>
<path d="M170.148 45.4173C169.471 45.342 168.39 44.0991 168.112 43.4739C167.725 42.6042 167.23 41.7841 166.521 41.1379C165.374 40.0918 164.227 39.1764 162.814 38.5224C161.912 38.1046 160.987 37.7398 160.019 37.5108C159.131 37.3008 158.357 36.8408 157.45 36.6722C154.314 36.0894 151.289 34.8155 148.259 33.8437C146.429 33.2568 144.614 32.5432 142.822 31.8538C141.18 31.2225 139.482 30.6828 137.857 30.0169C136.533 29.4742 135.222 28.9404 133.904 28.3997C133.288 28.1471 132.703 27.879 132.173 27.4746C131.486 26.9508 130.639 26.7634 129.897 26.3432C128.406 25.4988 126.911 24.7991 125.465 23.8808C124.09 23.0079 122.861 21.876 121.472 21.0656C119.941 20.173 118.608 19.0303 117.039 18.1905C115.817 17.5362 114.468 16.8769 113.152 16.4269C112.218 16.1073 111.408 15.5643 110.504 15.1757C108.945 14.5056 107.361 13.9376 105.812 13.2523C104.882 12.8411 104.122 12.7085 103.183 12.4736" stroke="white" stroke-width="4" stroke-linecap="round"/>
<path d="M73.059 29.2905C73.1509 29.8112 73.8798 29.973 74.2348 30.2312C74.4506 30.3881 74.6855 30.3488 74.9487 30.3488C75.3463 30.3488 75.6376 30.6441 76.0405 30.7351C77.2874 31.0166 78.5555 31.2291 79.7695 31.6338C81.3081 32.1466 82.7559 32.8344 84.3636 33.2211C85.8139 33.5699 87.8021 34.0131 89.0836 34.8C90.7919 35.8489 92.7577 36.0879 94.5932 36.8409C95.2815 37.1233 96.0391 37.2036 96.7096 37.5212C97.5386 37.9139 98.3219 38.3232 99.204 38.5878C100.542 38.9893 101.712 39.6887 103.025 40.1416C104.053 40.4959 105.282 40.5602 106.334 40.3264C107.222 40.1291 108.579 39.0858 109.114 38.3443C109.785 37.4154 110.907 37.0775 111.76 36.3118C112.172 35.9422 112.74 35.9089 113.196 35.6147C113.947 35.1303 114.582 34.5788 115.388 34.1617C116.987 33.3348 118.528 32.4874 120.184 31.7345C121.381 31.1905 122.773 29.7147 124.089 30.6175C124.448 30.8637 124.772 31.0985 125.063 31.407C125.502 31.8708 126.048 31.9514 125.458 32.5408C124.989 33.0097 124.445 33.3859 123.93 33.9014C123.525 34.3062 122.983 34.522 122.645 34.9848C121.825 36.1067 120.453 36.5592 119.319 37.3784C118.581 37.9116 118.01 38.5777 117.278 39.117C116.968 39.3456 116.832 39.647 116.564 39.9064C116.081 40.3733 115.558 40.5602 115.237 41.1662C114.915 41.7745 114.481 41.9535 114.481 42.7116C114.481 43.2884 114.603 44.0599 115.027 44.4837C115.931 45.3877 117.079 45.7911 118.202 46.3734C118.755 46.6604 119.36 46.6852 119.957 46.8269C121.103 47.099 122.15 47.5583 123.333 47.7004C124.454 47.8348 125.619 47.8368 126.726 48.0699C127.674 48.2694 128.289 48.2439 128.776 47.3392C129.384 46.209 131.283 45.5137 132.015 44.4837C132.986 43.1198 133.534 41.9438 134.579 40.6371C135.499 39.4874 135.547 37.1989 137.426 37.6388C138.31 37.8455 138.91 38.8668 139.761 39.1506C140.403 39.3644 141.038 39.4523 140.24 40.2508C139.278 41.2126 138.2 40.9846 137.426 42.1103C136.648 43.2417 135.686 45.5557 135.177 46.8269C134.91 47.4964 132.57 51.6053 133.622 52.2525C133.9 52.4235 134.226 52.4078 134.504 52.6052C135.205 53.1035 135.948 53.5746 136.696 53.9994C137.384 54.3907 137.922 54.9498 138.636 55.2928C139.564 55.7388 140.474 56.2697 141.374 56.7709C143.83 58.1388 146.239 60.1623 148.193 62.1713C149.056 63.0578 150.356 63.733 151.385 64.4473C152.71 65.3675 153.735 66.4521 154.879 67.5716C155.462 68.1426 156.004 68.7769 156.659 69.2681C157.212 69.6829 157.318 70.212 157.785 70.6791C158.691 71.5855 159.206 72.793 159.943 73.837C160.395 74.4767 160.967 75.092 161.337 75.7771C161.819 76.6682 162.43 77.7784 163.235 78.4227C163.632 78.7402 163.649 79.1177 164.184 79.2961C165.167 79.6237 162.129 79.6628 161.094 79.6237C159.591 79.567 158.106 79.4809 156.6 79.4809C156.155 79.4809 155.25 79.645 154.845 79.4137C154.07 78.9708 153.418 77.3408 152.947 76.6086C152.629 76.1138 152.437 75.5331 152.183 75.0044C151.745 74.0963 151.106 73.2693 150.621 72.384C149.184 69.7637 147.248 67.577 145.002 65.6567C141.898 63.0034 138.031 61.4047 134.445 59.5173C132.62 58.557 130.652 55.9798 128.423 56.7709C127.967 56.9326 127.389 56.965 126.97 57.1909C126.593 57.394 126.19 57.8901 125.836 58.1651C125.113 58.7275 124.531 60.0543 124.123 60.8863C123.632 61.8866 123.02 62.8627 122.645 63.9098C122.154 65.2775 120.913 66.4633 120.679 67.9244C120.552 68.7194 119.856 69.5856 120.091 70.4104C120.418 71.5515 121.647 72.1387 122.191 73.0643C122.575 73.7166 123.551 74.4988 124.156 74.9792C124.775 75.4702 125.212 76.1352 125.752 76.6758C126.203 77.1267 124.833 77.1761 124.459 77.2049C123.381 77.2878 122.56 77.0348 121.603 76.5246C119.739 75.5302 117.196 75.4301 115.111 75.2564C113.108 75.0895 110.883 75.3399 108.972 74.7609C107.492 74.3125 110.169 72.3335 110.786 71.9221C111.52 71.4327 111.49 71.1586 111.617 70.3348C111.671 69.9839 111.858 69.634 111.945 69.2849C112.136 68.5213 111.5 68.241 110.92 67.8404C110.257 67.3821 109.675 66.8109 109.072 66.2782C108.599 65.8592 108.419 65.2352 107.947 64.8168C106.738 63.7453 105.623 62.5365 104.411 61.4826C103.068 60.3147 101.952 58.9208 100.581 57.7788C99.5555 56.9238 98.6618 55.8126 97.4319 55.2592C96.9938 55.062 96.7053 54.6564 96.2981 54.4697C95.7858 54.2349 95.18 54.0902 94.6436 53.8986C93.6579 53.5466 92.8566 53.7876 91.8804 53.9322C90.3224 54.163 89.8636 55.8738 88.7645 56.7373C87.7901 57.503 87.1979 58.2134 86.0265 58.7698C84.5981 59.4483 83.2213 59.9716 81.9196 60.8863C80.6635 61.7689 79.1722 62.977 77.905 63.8342C77.2245 64.2946 76.504 64.6749 75.8138 65.1192C74.8617 65.732 73.6078 66.1287 72.765 66.8661C72.2841 67.287 71.8524 67.4381 71.2785 67.6892C70.8272 67.8866 70.3679 68.5694 69.8843 68.5962C67.9538 68.7035 66.2973 67.8404 64.3748 67.8404C62.81 67.8404 61.3232 68.1427 59.7639 68.1427C59.2694 68.1427 58.8865 68.4451 58.4621 68.4451C58.2606 68.4451 57.7149 68.5876 57.8574 68.4451C58.1243 68.1782 58.7595 67.8602 59.1172 67.7564C60.6396 67.3144 62.293 67.3002 63.7533 66.631C64.4009 66.3341 65.0925 66.1937 65.7522 65.9339C66.7948 65.5232 67.6866 65.1968 68.7421 64.8168C70.3821 64.2265 71.9137 62.7523 73.4789 61.9697C75.1331 61.1426 76.6975 60.3239 78.1318 59.1058C79.3821 58.0439 80.7103 57.0627 81.9952 56.0319C82.9412 55.2728 83.5443 54.3691 84.4392 53.5794C85.5185 52.6271 86.8727 50.5842 85.6066 49.2457C85.1799 48.7947 84.9631 48.1823 84.5316 47.7508C83.7948 47.014 83.0643 46.2719 82.3311 45.5167C80.9724 44.1172 79.6643 42.9797 78.0058 41.9305C74.2461 39.5519 70.5141 37.1058 66.6928 34.8336C65.9054 34.3654 64.8293 33.931 63.9381 33.7082C62.4228 33.3294 64.6097 32.741 64.9879 32.5408C65.6971 32.1653 66.6229 32.1661 67.3815 31.8437C67.8394 31.6491 68.2504 31.3495 68.7421 31.2558C69.3972 31.131 70.5671 30.1713 70.825 31.1382C71.0721 32.065 70.8591 32.927 71.2113 33.8426C71.493 34.575 72.2244 34.2277 72.7902 33.935C73.2829 33.6802 74.2636 32.9068 74.5624 33.8174C74.8537 34.7054 74.4815 35.6496 74.5456 36.547C74.5801 37.0308 76.8623 34.0406 77.4263 34.4137C77.8288 34.68 77.7249 37.6667 77.7287 37.664C78.2383 37.2885 80.0635 34.4812 80.0635 36.2446C80.0635 37.251 79.553 38.8614 79.8619 39.8224C79.9284 40.0294 80.1074 39.4635 80.2315 39.2849C80.6605 38.6676 80.9884 38.2332 81.4913 37.6556C81.917 37.1665 82.4461 35.9471 82.9442 36.3622C83.3891 36.7329 82.5734 39.0041 82.4571 39.4193C82.3652 39.7476 81.9628 40.6732 82.5159 39.9064C83.1498 39.0277 83.7094 38.0937 84.3468 37.2189C85.4121 35.7566 82.7413 40.4615 81.9196 42.0733C81.4462 43.0018 80.9254 43.7331 81.3534 43.4255C82.2061 42.8126 82.679 42.9426 83.3775 43.7866C84.2056 44.7873 85.2692 45.5291 86.2414 46.3734C87.8903 47.8053 90.3338 49.2522 89.3741 51.8913C88.912 53.1623 88.9406 52.5467 88.017 53.4703C86.6951 54.7921 85.2852 55.4473 83.5573 56.0822C80.9536 57.039 78.2688 57.2122 75.7718 58.4087C74.4477 59.0431 73.0423 59.996 72.0008 61.0375" stroke="white" stroke-width="4" stroke-linecap="round"/>
<path d="M85.3043 37.3029C86.7473 37.3789 88.2023 37.9308 89.5876 38.2771C91.0913 38.6531 92.7144 38.5799 94.0725 39.453C96.175 40.8046 98.6982 41.8296 101.027 42.7452C101.99 43.1239 103.014 43.2172 103.991 43.5179C105.025 43.836 105.803 43.916 106.822 43.3499C108.543 42.3938 110.083 41.3594 111.458 39.9317C112.778 38.5602 114.038 37.5697 115.607 36.4966C115.687 36.4418 115.467 36.6313 115.397 36.6982C114.902 37.1687 114.426 37.6601 113.944 38.1428C112.924 39.1627 111.961 40.206 111.013 41.2923C110.244 42.1728 110.247 42.4609 109.702 43.5032C109.492 43.9049 110.987 43.5179 109.979 44.4166C109.431 45.0617 110.673 45.2485 111.013 45.5877C111.706 46.281 111.617 46.718 112.44 47.249C113.071 47.6559 113.449 48.3941 114.061 48.8448C114.684 49.3037 114.455 50.5199 114.901 51.1439C115.124 51.4558 117.125 49.8769 117.06 50.2704M117.06 50.2704C116.984 50.725 113.654 52.2141 113.314 52.4205C112.02 53.206 110.378 53.5306 108.921 54.0331C108.269 54.2579 107.744 55.1101 107.065 55.15C105.949 55.2157 104.861 55.5952 103.748 55.5952C102.148 55.5952 101.227 55.8162 99.9347 54.5705C99.1294 53.7939 97.7807 52.0128 98.1878 50.7575C98.7535 49.0134 99.948 47.7078 101.027 46.4495C101.469 45.9335 103.167 45.0454 103.376 44.4166C103.583 43.7955 102.324 44.075 101.825 43.9791C100.523 43.7288 99.7164 44.1198 98.381 44.4166C97.798 44.5461 97.0844 45.6524 96.6425 46.0711C95.7568 46.9101 94.9291 48.0196 93.7533 48.0196C94.5183 48.295 94.9747 48.4531 95.0299 49.355C95.0838 50.2351 95.0105 51.1864 93.9885 51.0935C93.2116 51.0229 93.4665 51.189 94.1061 51.4294C95.279 51.8704 96.5221 52.3336 97.7427 52.6305C100.421 53.2819 102.195 55.6755 104.26 57.3169C106.25 58.8983 105.955 60.0518 107.915 61.7315M117.06 50.2704C117.165 50.8095 118.486 51.2783 119.196 51.4294C119.771 51.5517 119.306 52.4298 119.89 52.4205C120.573 52.4096 121.771 52.1632 122.342 52.5717C123.468 53.3753 123.128 54.6079 122.796 55.8135C122.375 57.3403 122.03 58.6906 121.435 60.1305C121.107 60.9271 120.201 61.3546 119.772 62.0957C119.288 62.9321 118.464 62.8557 117.689 63.3135C117.329 63.5265 116.472 63.8779 116.446 64.3634C116.413 65.0007 116.439 65.6595 116.48 66.2951C116.544 67.2874 116.555 68.423 116.85 69.3858C117.082 70.1465 119.264 71.7725 119.196 72.5941C119.105 73.7102 116.477 72.9516 115.455 72.9804C115.065 72.9914 113.944 73.4413 113.944 72.9804C113.944 71.8459 115.226 70.3765 114.708 69.2262C114.446 68.6447 113.676 68.1574 113.289 67.6389C111.955 65.8514 110.482 64.2558 108.921 62.6668C108.499 62.2369 106.095 60.6955 107.915 61.7315M117.06 50.2704C116.798 48.9343 115.877 47.9829 115.069 46.9278C114.477 46.1543 114.01 45.4065 113.154 44.8953C112.277 44.3712 112.14 44.3994 113.314 44.9289C116.002 46.1413 118.854 46.9638 121.435 48.4143C122.572 49.0531 124.024 50.5725 125.366 50.7575C125.967 50.8404 126.647 50.9682 127.247 50.8415C128.187 50.6432 129.258 49.7412 130.052 49.2206C131.033 48.5781 131.902 47.7496 132.773 46.9698C133.745 46.1007 131.255 49.1102 130.304 50.0017C128.932 51.2882 127.188 52.0997 125.836 53.3779C125.546 53.6529 125.147 54.4021 125.584 54.7049C127.023 55.7012 129.667 55.2928 131.312 55.2928C132.406 55.2928 133.366 55.3752 134.336 55.9311C135.353 56.5145 136.205 57.362 137.242 57.9468C138.512 58.6632 139.785 59.3096 140.996 60.1305C143.451 61.7953 145.269 64.5396 147.891 65.9087C149.61 66.8066 151.67 67.52 152.871 69.1422C154.673 71.5746 156.673 74.2449 157.415 77.2133M107.915 61.7315C108.98 62.6444 112.503 63.491 113.154 64.7329C113.306 65.0232 114.513 65.3291 114.263 65.6904C113.903 66.2097 112.763 64.9142 112.575 64.7329C111.249 63.4566 109.521 62.6457 107.915 61.7315Z" stroke="white" stroke-width="4" stroke-linecap="round"/>
<path d="M99.7568 53.7231C101.538 53.9787 103.058 53.6878 104.813 53.2286C106.479 52.7925 108.339 52.8726 110.051 52.679C110.875 52.5858 111.782 52.286 112.607 52.1162C112.954 52.0448 113.53 51.9747 113.803 51.7184C114.567 51.0015 113.125 49.6468 112.76 49.1053C112.378 48.5382 106.458 42.4507 105.739 43.0544C104.526 44.0723 103.214 45.1137 102.088 46.2257C101.145 47.1568 100.471 48.2607 99.5678 49.2106C98.7264 50.0958 98.7109 51.416 97.7084 51.9649" stroke="white" stroke-width="4" stroke-linecap="round"/>
<path d="M118.645 51.3261C116.746 51.5058 115.252 52.1837 113.559 53.0932C111.95 53.957 110.014 54.337 108.299 54.9624C107.473 55.2633 106.613 55.7979 105.805 56.178C105.466 56.3378 104.89 56.5532 104.672 56.8852C104.063 57.814 105.886 58.8511 106.396 59.3182C106.931 59.8074 114.545 64.6068 115.136 63.8059C116.132 62.4555 117.225 61.0562 118.108 59.6305C118.848 58.4367 119.268 57.1315 119.962 55.9283C120.609 54.807 120.296 53.4429 121.193 52.628" stroke="white" stroke-width="4" stroke-linecap="round"/>
<path d="M82.005 40.0904C82.7825 41.9395 83.9332 43.2261 85.3787 44.6397C86.7517 45.9823 87.1529 45.9502 88.8484 47.2841C89.5336 47.8232 90.2173 48.7132 90.8529 49.4043C91.1201 49.6949 91.5175 50.2051 91.9193 50.3192C93.0431 50.6383 93.5106 48.4826 93.8189 47.8232C94.1417 47.1326 96.625 40.0277 95.6353 39.6867C93.9665 39.1117 92.218 38.4547 90.5092 38.0167C89.0783 37.6499 87.636 37.6386 86.21 37.3205C84.881 37.0241 83.6101 37.7669 82.5102 37.1235" stroke="white" stroke-width="4" stroke-linecap="round"/>
<path d="M139.709 64.9146C139.994 65.0098 140.323 65.2803 140.573 65.4577C141.078 65.816 141.53 66.2357 142.086 66.524C142.627 66.804 143.234 66.9975 143.755 67.3055C144.339 67.6503 144.762 68.2856 145.074 68.8653C145.217 69.1333 145.461 69.4409 145.696 69.6369C146.009 69.8975 146.176 70.3265 146.444 70.6337C146.76 70.9937 147.075 71.3919 147.458 71.6834C147.804 71.9469 148.204 72.1129 148.59 72.306" stroke="white" stroke-width="4" stroke-linecap="round"/>
<path d="M131.065 52.0986C131 52.3595 130.958 52.5935 130.946 52.8603C130.926 53.3198 130.128 53.7828 129.814 54.0657" stroke="white" stroke-width="4" stroke-linecap="round"/>
<path d="M119.68 64.7954C119.489 65.1305 119.025 65.2148 118.746 65.4511C118.489 65.6688 118.408 66.2377 118.309 66.5241" stroke="white" stroke-width="4" stroke-linecap="round"/>
<path d="M127.191 77.6709C127.221 78.034 127.502 78.3747 127.787 78.565" stroke="white" stroke-width="4" stroke-linecap="round"/>
<path d="M96.4926 56.808C96.1365 56.5469 95.692 56.5085 95.2739 56.4239C94.7164 56.311 94.2273 56.2119 93.6578 56.2119C93.0412 56.2119 92.7007 56.2927 92.2935 56.7749C91.9958 57.1273 91.714 57.3789 91.3662 57.6723C91.0553 57.9347 90.6953 58.107 90.3827 58.3644C90.0678 58.6238 89.8632 59.0038 89.5449 59.2453C89.2185 59.4929 88.8184 59.7651 88.4355 59.9043C87.8843 60.1048 87.4473 60.375 86.9552 60.6825" stroke="white" stroke-width="4" stroke-linecap="round"/>
<path d="M127.251 30.8781C127.422 30.9163 127.481 31.1017 127.575 31.2325C127.742 31.4638 128.161 31.7925 128.204 32.0835C128.231 32.2612 127.89 32.4655 127.787 32.5505C127.445 32.8328 127.143 33.1742 126.86 33.5141C126.473 33.9784 126.152 34.4547 125.939 35.011C125.825 35.3101 125.483 35.8457 125.128 35.8687C124.897 35.8835 124.66 35.7638 124.423 35.766C124.059 35.7693 123.725 35.8869 123.376 35.9713C122.995 36.0636 122.603 36.1476 122.21 36.17C121.774 36.195 121.741 36.3088 121.338 36.17C120.753 35.9685 119.768 35.5236 119.144 35.5276C118.397 35.5323 117.68 35.6356 116.952 35.7925C116.009 35.9955 115.061 36.0318 114.104 36.127C113.244 36.2124 112.392 36.3263 111.554 36.5409C110.621 36.7797 109.722 37.1093 108.769 37.2662C108.036 37.3866 107.215 37.3291 106.504 37.5344C104.381 38.1465 103.551 40.0028 102.394 41.6805C101.765 42.5925 101.101 43.4886 100.364 44.3165C99.9659 44.7636 99.5647 45.2193 99.2744 45.7471C99.0257 46.1992 98.8997 46.7072 98.6418 47.1545C98.432 47.5187 98.0088 47.7467 97.6517 47.9427C96.8281 48.3946 95.9147 48.6403 95.0157 48.8931C94.2839 49.0989 93.5724 49.2309 92.8102 49.2309C91.4632 49.2309 90.1824 48.7851 88.8363 48.7606C88.5652 48.7557 88.2844 48.7839 88.015 48.7474C87.5246 48.6809 87.2187 48.4055 86.8029 48.1381C85.5954 47.3613 84.2634 47.3277 82.8953 47.0452C82.3758 46.938 81.8699 46.8177 81.3918 46.5816C80.7634 46.2714 80.2198 45.8154 79.5903 45.5087C79.0518 45.2463 78.5018 45.1626 78.014 44.7967C77.5359 44.4381 77.0455 44.0908 76.5834 43.7138C75.7236 43.0124 74.6457 42.6227 73.7686 41.9255C72.9012 41.2362 72.2624 40.3177 71.4803 39.5412C70.8859 38.9511 70.1996 38.4237 69.49 37.9781C68.7517 37.5146 67.9832 37.2512 67.1288 37.1039C66.5607 37.0059 66.1582 36.766 65.6519 36.5409C65.5195 36.4821 65.7139 36.1851 65.7479 36.1435C65.901 35.956 66.1423 35.7663 66.3175 35.6137C66.9265 35.0833 67.492 34.5228 68.0594 33.9479C69.3378 32.6528 70.7064 31.4475 71.9737 30.1429C72.356 29.7494 72.6129 29.2368 73.0069 28.8647C73.5374 28.3637 73.9151 27.54 74.7289 27.54C75.1473 27.54 75.6664 27.9543 75.9641 28.2222C76.2687 28.4964 76.4762 28.9231 76.7622 29.2091" stroke="white" stroke-width="4" stroke-linecap="round"/>
<path d="M88.941 20.4383C88.8341 20.0643 89.0837 19.5585 89.0837 19.1617C89.3012 18.7268 90.6149 19.5468 89.9068 20.4215C89.7399 20.6278 89.0557 20.84 88.941 20.4383Z" stroke="white" stroke-width="4" stroke-linecap="round"/>
<path d="M105.259 13.5682C104.843 13.5451 104.474 13.3751 104.05 13.4842C103.474 13.6323 102.982 14.0603 102.454 14.3241C101.595 14.7536 100.689 15.0258 99.9179 15.6174C98.9358 16.3712 99.0678 16.9729 100.304 17.314C101.914 17.7581 103.308 17.0911 104.201 15.6174C104.633 14.9055 105.387 15.1439 106.099 14.9288C106.564 14.7884 106.956 14.6903 107.426 14.618C107.555 14.5982 106.495 14.386 106.234 14.4248C105.224 14.5752 104.18 14.9648 103.252 15.3739C102.358 15.7681 101.384 16.0563 100.523 16.5077C98.8793 17.3685 104.057 15.3774 105.839 14.8616C106.499 14.6706 107.185 14.5984 107.821 14.3996C107.97 14.353 108.696 14.3769 108.728 14.2317C108.84 13.7265 108.585 13.6279 108.216 13.417C107.206 12.8397 105.335 13.2654 104.806 14.3241" stroke="white" stroke-width="4" stroke-linecap="round"/>
<path d="M110.702 20.5226C111.733 20.5226 112.955 19.8493 113.86 19.3971C114.429 19.1124 115.179 18.8382 115.657 18.4397C116.579 17.6711 118.042 18.8428 117.774 19.9179C117.324 21.715 114.197 21.158 112.936 21.4968C112.477 21.6201 112.055 21.8663 111.567 21.8663C110.85 21.8663 112.625 20.9402 112.684 20.9173C113.692 20.5287 115.109 20.5071 115.993 19.9179" stroke="white" stroke-width="4" stroke-linecap="round"/>
<path d="M123.552 26.418C124.054 25.3028 124.671 23.9816 125.366 22.9746C125.781 22.373 126.477 23.1541 126.911 23.2769C127.769 23.5193 128.625 23.803 128.322 24.8727C128.203 25.2934 127.036 27.5897 126.424 27.1067C126.087 26.8403 125.734 26.3384 125.534 25.9813C125.482 25.8881 125.866 25.7721 125.761 25.7545C125.281 25.6746 125.002 26.3012 124.761 26.5692" stroke="white" stroke-width="4" stroke-linecap="round"/>
<path d="M137.321 34.1073C137.395 33.4114 137.524 32.7052 137.638 32.0177C137.73 31.4647 138.128 30.9738 138.708 30.881C138.89 30.8519 139.04 30.8996 139.193 30.998C139.687 31.3162 140.06 31.7325 140.639 31.9091C141.209 32.0828 141.396 32.2699 141.107 32.9037C141.001 33.1362 139.531 35.6999 139.201 34.6589C138.983 33.9681 139.261 33.2115 139.602 32.6195C139.773 32.3239 139.779 31.9904 139.953 31.7001" stroke="white" stroke-width="4" stroke-linecap="round"/>
<path d="M145.971 38.5457C145.869 38.6099 145.83 37.6561 145.834 37.5469C145.849 37.0926 146.1 36.6721 146.281 36.2681C146.502 35.7735 146.713 35.274 146.979 34.8012C147.195 34.4168 147.376 34.0291 147.476 33.5976C147.553 33.2654 147.51 32.9968 147.819 32.7869C148.027 32.645 148.226 32.6495 148.425 32.8036C148.831 33.1194 149.304 33.3011 149.716 33.6102C149.873 33.7282 150.037 33.9637 150.226 34.0323C150.59 34.1648 150.411 34.4461 150.297 34.772C150.036 35.5135 149.715 36.2152 149.448 36.9576C149.322 37.3094 149.084 37.6486 148.905 37.9773C148.7 38.3536 148.392 39.0473 147.994 39.2352C147.706 39.3712 147.238 39.3118 146.924 39.2979C146.431 39.2759 147.023 38.0195 147.083 37.8603C147.338 37.1882 147.793 36.6127 148.002 35.9296C148.086 35.6585 148.215 35.4643 148.379 35.2358" stroke="white" stroke-width="4" stroke-linecap="round"/>
</svg>
