<svg width="236" height="106" viewBox="0 0 236 106" fill="none" xmlns="http://www.w3.org/2000/svg">
<path d="M34.2974 21.497C35.2726 21.497 36.4585 19.7472 37.199 19.1329C38.3912 18.1439 39.7932 17.102 41.2405 16.5376C43.5348 15.6428 45.5161 14.0466 47.7172 13.0702C48.5448 12.703 49.7033 12.0793 50.4322 11.5676C51.4751 10.8355 52.7443 10.3897 53.8934 9.86541C55.8874 8.95558 57.9371 7.94602 60.0385 7.35415C61.9141 6.82588 64.0644 6.08018 65.8209 5.18964C67.2675 4.45625 69.1087 4.25311 70.6707 3.81318C72.7653 3.22323 75.3992 2.77295 77.5723 2.77295C81.3813 2.77295 85.122 2.98022 88.7226 4.24398C90.1575 4.74759 91.7044 5.4649 92.9714 6.2824C94.2849 7.12993 95.6982 7.67008 96.4118 9.29801C97.0598 10.7764 98.243 12.1204 98.6087 13.7426C99.158 16.1793 98.8367 18.9998 98.8367 21.497C98.8367 23.1712 98.8367 24.8454 98.8367 26.5196C98.8367 28.2793 98.4547 29.8513 97.9973 31.5211C97.0547 34.9619 95.5683 37.6657 94.0284 40.7885C93.1819 42.505 92.3561 44.2992 91.4584 45.9897C91.0144 46.8258 90.5926 47.6929 90.1734 48.543C89.8307 49.2379 89.2568 49.8303 88.9506 50.5289C88.2833 52.0513 87.6008 53.8267 86.7123 55.2046C85.3986 57.2418 83.4301 58.9211 82.277 61.0257C80.9112 63.5184 78.4453 65.4278 76.9195 67.8345C76.1806 68.9999 75.2478 70.0688 74.3909 71.1548C73.1379 72.743 71.9424 74.3911 70.6707 75.9672C66.6133 80.9954 61.0645 84.6428 56.0799 88.639C53.4388 90.7565 50.4156 93.1952 47.3441 94.5967C45.036 95.6498 43.0565 97.4211 40.6291 98.1902C38.2589 98.9412 35.7168 99.5952 33.5098 100.786C31.3266 101.963 28.8106 101.915 26.4632 102.404C22.9451 103.135 19.3132 102.831 16.1108 101.027C14.511 100.126 12.7336 99.5069 10.9812 98.9993C9.23705 98.494 7.28553 96.618 6.03817 95.3532C4.33098 93.6222 3.78175 91.503 3.29204 89.2064C2.92615 87.4906 2.87984 84.8724 3.29204 83.1542C3.81569 80.9714 4.18619 78.9738 5.10552 76.9023C6.02981 74.8197 6.96224 72.6249 7.71693 70.4823C8.3894 68.5732 10.0254 67.008 10.7947 65.1446C11.7781 62.7624 13.8994 60.2456 15.6444 58.3778C20.4999 53.1811 24.6825 47.477 30.6601 43.4364C33.8582 41.2746 37.5026 39.5418 40.9296 37.8045C43.4046 36.5497 46.074 35.4977 48.6187 34.4421C51.9175 33.0738 55.6349 31.1428 59.2924 31.1428C61.367 31.1428 63.5465 30.6169 65.6344 31.1008C67.2827 31.4828 68.9318 31.9143 70.4842 32.6138C73.0443 33.7675 73.8417 37.6081 73.8417 40.2211C73.8417 40.7885 73.8417 41.3559 73.8417 41.9233C73.8417 42.8414 74.9939 41.4253 75.1889 41.1668C75.5404 40.7008 76.0283 40.4231 76.3599 39.9374C76.6576 39.5013 76.924 39.0277 77.3443 38.7081C78.037 38.1813 78.2359 36.9492 78.8366 36.2914C80.0871 34.922 80.4275 32.6502 81.4894 31.1428C82.3709 29.8915 82.7191 27.847 83.0749 26.404C83.2941 25.5151 83.7278 24.4911 83.7278 23.5775C83.7278 23.0396 83.8049 22.1603 83.9558 21.6441C84.3694 20.2286 84.5928 18.133 84.0594 16.7267C83.8192 16.0935 83.1485 15.7307 82.8884 15.1506C82.5686 14.4373 82.2016 13.7637 81.7796 13.0912C81.0681 11.9576 80.2185 11.2798 79.1578 10.4433C75.3557 7.44486 70.4411 8.91223 66.2354 9.72882C63.2738 10.3039 60.2082 10.4909 57.2302 11.0948C53.8263 11.785 50.3401 13.1511 47.1783 14.5937C42.6593 16.6556 37.8157 19.0644 34.2974 22.6318" stroke="#F2F2F2" stroke-width="5" stroke-linecap="round"/>
<path d="M59.852 38.1406C59.0861 38.1406 58.591 38.7505 57.8934 38.9076C56.7503 39.1652 55.5731 39.5664 54.4426 39.8848C53.5429 40.1382 52.2816 40.2869 51.4582 40.7044C50.6005 41.1392 49.5877 41.6546 48.6602 41.9233C47.4087 42.2858 46.2624 43.5892 45.1162 44.2349C44.2566 44.7191 43.0522 45.6131 42.3597 46.3153C40.5682 48.1318 38.5551 49.6223 36.629 51.2748C34.7799 52.8613 31.7469 54.4092 30.7948 56.8227C30.0598 58.6859 28.4474 60.3646 27.9554 62.3601C27.5541 63.9879 26.5561 66.0535 27.0642 67.7924C27.3314 68.7067 27.5452 69.688 28.2352 70.3877C29.0143 71.1776 30.0451 71.4683 30.8466 72.1004C31.7191 72.7884 32.6321 72.941 33.7378 72.941C35.3478 72.941 37.08 72.884 38.5876 72.2895C39.2496 72.0284 40.1169 72.0279 40.826 71.8482C41.6801 71.6317 42.4729 71.1928 43.2923 70.8605C45.5696 69.9369 47.5489 68.3974 49.6343 67.1199C52.9797 65.0705 56.1419 62.8961 58.9193 60.08C60.0902 58.8927 61.2792 57.5799 62.0904 56.1082C62.8571 54.7169 64.1252 53.5617 64.8883 52.1364C66.0667 49.9353 67.5015 47.9202 68.0489 45.4222C68.4062 43.7921 69.0777 42.0041 68.2044 40.4102C67.839 39.7433 66.77 38.5224 66.1111 38.1406C65.19 37.6069 64.5768 37.1949 63.3961 37.1949C62.5584 37.1949 61.6253 37.0719 60.8261 37.3421C60.2289 37.5439 58.8347 37.934 58.5463 38.5189" stroke="#F2F2F2" stroke-width="5" stroke-linecap="round"/>
<path d="M129.204 32.1621C125.589 32.1621 121.973 32.1621 118.358 32.1621C115.722 32.1621 113.104 32.4717 110.463 32.4717C109.701 32.4717 108.936 32.4548 108.174 32.4717C107.503 32.4864 106.859 32.7661 106.189 32.7812C104.822 32.812 103.302 33.3049 102.127 34.0108C101.055 34.6554 100.259 35.4971 99.2865 36.2721C98.3549 37.0143 97.669 38.1186 96.8358 38.9634C96.0589 39.7511 95.1794 40.6231 94.631 41.6117C93.6035 43.4637 92.4886 45.5762 91.9937 47.6392C91.7226 48.7691 91.6545 50.0317 91.6545 51.1903C91.6545 52.2652 91.3492 53.3617 91.3492 54.4405C91.3492 57.1313 93.0284 59.0305 94.2494 61.259C94.5647 61.8346 95.3101 62.4205 95.7758 62.8927C96.3687 63.4939 97.0641 64.0387 97.7601 64.5092C99.0457 65.3782 100.196 66.3878 101.423 67.3295C102.367 68.0535 103.513 69.0906 104.629 69.5307C105.598 69.9126 106.266 70.2818 107.071 70.9236C108.354 71.9455 109.971 72.7907 109.971 74.6037C109.971 76.1956 109.104 77.9432 107.826 78.8341C106.299 79.8988 104.317 81.0697 102.416 81.0697C99.9366 81.0697 97.4576 81.0697 94.9786 81.0697C92.6669 81.0697 90.1843 80.5497 87.9148 81.0611C86.8385 81.3036 84.9383 83.2959 84.9383 84.3543C84.9383 84.9946 84.6066 85.8551 84.4464 86.4867C84.2122 87.4102 83.8111 88.3928 83.4458 89.2725C83.2701 89.6955 83.2156 90.4387 83.115 90.8976C82.9143 91.8134 84.0028 91.8036 84.7178 91.9036C87.1446 92.243 89.6586 92.3679 92.1124 92.3679C93.4464 92.3679 94.7811 92.3816 96.115 92.3679C97.5087 92.3537 98.8442 91.918 100.236 91.9036C106.207 91.8418 112.468 90.9203 116.849 86.4781C117.657 85.6581 118.543 85.0922 119.249 84.1651C120.117 83.0235 120.865 82.0851 121.572 80.7945C122.882 78.4046 123.149 75.3698 123.412 72.7035C123.653 70.2651 123.849 67.7039 122.793 65.4378C121.548 62.7633 119.855 59.5975 117.146 58.198C114.457 56.8095 112.035 55.1105 109.505 53.4431C108.288 52.641 107.095 51.786 105.918 50.9238C105.226 50.4169 104.639 50.071 104.171 49.3073C103.165 47.6639 104.451 46.0634 105.63 45.0855C107.508 43.5272 110.664 44.0659 112.88 43.9161C116.845 43.6481 120.791 43.6151 124.778 43.6151C125.365 43.6151 125.972 43.7492 126.372 43.2282C126.519 43.0366 126.663 42.5071 126.762 42.2824C126.989 41.7634 127.371 41.3532 127.593 40.8379C128.177 39.4844 128.899 37.9851 128.899 36.4957C128.899 35.8032 129.357 35.2087 129.357 34.4837C129.357 33.9477 129.509 33.4366 129.509 32.936" stroke="#F2F2F2" stroke-width="5" stroke-linecap="round"/>
<path d="M138.973 32.6259C138.973 34.7555 138.426 36.9721 137.904 39.0231C137.568 40.3452 137.457 41.6827 137.107 42.9956C136.652 44.7046 136.073 46.3848 135.615 48.103C134.917 50.7208 133.773 53.1545 133.291 55.8415C133.002 57.4539 132.898 59.2204 132.409 60.7942C131.765 62.8687 131.269 64.9768 130.849 67.1054C130.629 68.2209 130.315 69.573 129.73 70.5448C128.703 72.2479 128.105 74.1796 127.601 76.1079C127.222 77.5614 127.06 79.2083 126.524 80.6049C125.447 83.4139 125.418 86.4405 124.548 89.2634C124.436 89.6291 123.837 90.8916 124.243 90.9831C126.597 91.5136 128.867 91.4887 131.273 91.6022C132.757 91.6722 134.199 91.9031 135.683 91.9031C136.557 91.9031 136.843 90.1643 137.141 89.3924C138.729 85.2785 140.142 81.2005 141.263 76.9248C142.377 72.671 143.217 68.3818 143.824 64.01C144.725 57.5128 145.97 51.0771 147.368 44.698C147.628 43.511 147.929 42.2299 148.284 41.0609C148.589 40.0569 149.33 39.1369 149.514 38.1117C149.633 37.4468 150.22 36.646 150.489 36.0223C150.793 35.3174 151.18 34.5412 151.345 33.7867C151.519 32.9956 151.136 32.7807 150.26 32.7807C149.801 32.7807 149.01 32.7542 148.589 32.5915C147.969 32.352 147.272 32.5225 146.622 32.4625C144.407 32.2583 142.122 32.0068 139.889 32.0068" stroke="#F2F2F2" stroke-width="5" stroke-linecap="round"/>
<path d="M194.229 32.6262C192.412 32.6262 190.537 32.2069 188.734 32.5918C187.755 32.8007 186.536 32.7809 185.529 32.7809C184.447 32.7809 183.381 32.9357 182.289 32.9357C177.044 32.9357 171.873 35.1466 167.398 37.768C165.995 38.5898 164.454 39.1502 163.09 40.0552C161.692 40.9834 160.284 41.8141 158.969 42.8754C156.913 44.5359 154.558 46.2965 153.474 48.8427C151.805 52.7621 149.393 56.2765 148.471 60.4849C148.272 61.3924 148.284 62.3079 148.284 63.2364C148.284 64.5308 148.046 65.8948 147.86 67.1744C147.609 68.9033 147.521 70.6566 147.521 72.4023C147.521 74.7322 147.453 76.9903 148.742 79.023C149.259 79.8378 149.33 80.5083 149.539 81.4134C149.816 82.6138 150.829 84.0139 151.676 84.9043C152.379 85.6429 152.921 86.5247 153.627 87.2603C154.469 88.1381 155.332 88.4632 156.408 88.9283C158.237 89.719 160.309 89.8618 162.174 90.5448C163.522 91.0383 165.03 91.5705 166.482 91.5938C169.353 91.64 172.229 91.9755 175.081 92.0581C176.832 92.1089 178.55 92.5225 180.305 92.5225C181.279 92.5225 181.427 89.7223 181.679 88.9283C182.09 87.6321 182.8 86.5393 183.239 85.2482C183.571 84.2713 183.836 83.3164 184.121 82.342C184.527 80.9516 183.691 80.6051 182.476 80.6051C180.644 80.6051 178.812 80.6051 176.981 80.6051C174.432 80.6051 171.814 79.9726 169.315 79.4873C167.314 79.0989 165.24 78.6051 163.887 76.8906C162.483 75.11 161.242 73.9112 160.919 71.5596C160.719 70.0966 160.648 68.7378 160.648 67.2604C160.648 65.9842 160.925 64.7328 160.953 63.46C161.009 60.9646 161.913 57.7004 163.362 55.687C164.756 53.7493 166.459 52.1161 168.127 50.4248C169.04 49.4997 169.938 48.5013 171.062 47.8281C172.285 47.095 173.716 46.704 174.996 46.0912C177.515 44.885 180.091 44.3473 182.815 43.9588C184.757 43.682 186.81 43.4601 188.768 43.4601C189.59 43.4601 190.973 43.553 191.448 42.6863C192.137 41.4277 192.589 40.1161 192.974 38.7482C193.217 37.8871 193.527 37.1457 193.924 36.3407C194.065 36.0536 194.175 35.0525 194.382 34.9477" stroke="#F2F2F2" stroke-width="5" stroke-linecap="round"/>
<path d="M233 32.6261C230.204 32.6261 227.35 32.1234 224.528 32.308C223.315 32.3874 222.073 32.3166 220.857 32.3166C219.444 32.3166 217.735 32.5894 216.354 32.2392C215.252 31.96 213.448 32.2896 212.393 32.6261C210.709 33.1638 208.732 33.2443 207.17 34.1394C206.091 34.7575 204.898 35.1497 203.879 35.8763C202.612 36.7805 201.7 38.1075 200.64 39.2125C199.048 40.8717 197.967 42.2223 196.977 44.3027C196.378 45.5604 195.781 46.8501 195.221 48.1118C194.796 49.0704 194.396 50.0803 194.238 51.1212C193.949 53.025 193.733 55.5168 194.84 57.2003C196.434 59.6258 198.416 62.1715 200.674 64.0446C202.833 65.8353 205.574 66.9311 207.975 68.3008C209.114 68.9501 210.025 69.7156 211.096 70.4676C211.835 70.9863 212.745 71.6139 213.089 72.4108C213.377 73.0789 213.831 73.4885 214.039 74.2251C214.225 74.8881 213.766 75.7929 213.615 76.4262C213.506 76.8803 213.602 77.5559 213.428 77.974C213.226 78.4592 213.038 79.0551 212.546 79.3325C211.684 79.8179 210.637 80.4993 209.646 80.6051C209.044 80.6693 208.323 81.0034 207.662 81.078C206.45 81.2145 205.214 81.3293 203.99 81.1468C201.766 80.8152 199.518 80.9146 197.273 80.9146C195.321 80.9146 192.856 80.7423 191.024 81.5681C190.542 81.785 190.175 81.8614 189.769 82.2731C189.3 82.7488 188.999 83.2486 188.615 83.7349C188.503 83.8773 188.571 84.2878 188.505 84.4743C188.324 84.9877 188.179 85.5062 187.979 86.0134C187.614 86.9396 187.568 87.8773 187.284 88.7993C187.105 89.3809 186.807 90.0813 186.741 90.6824C186.637 91.6382 186.053 92.0211 187.14 92.2215C189.068 92.5769 191.164 92.3676 193.127 92.3676C196.248 92.3676 199.331 91.9811 202.438 91.9033C204.541 91.8507 206.621 91.5938 208.73 91.5938C210.733 91.5938 212.706 91.453 214.683 91.0951C217.676 90.5532 221.13 88.9433 222.688 86.0994C224.044 83.6249 225.221 81.079 226.207 78.4125C226.661 77.1854 227.599 75.7107 227.658 74.3798C227.717 73.0151 228.002 71.5764 227.776 70.201C227.543 68.78 227.24 67.2885 226.86 65.9018C226.723 65.4001 226.48 64.9492 226.284 64.4745C225.993 63.7705 225.469 63.5238 225.063 62.9268C224.245 61.724 222.938 60.9868 221.849 60.0205C220.917 59.1938 220.07 58.2654 219.101 57.4668C216.663 55.4586 214.139 53.6326 211.554 51.8091C210.349 50.9589 207.068 48.6632 208.272 46.8994C209.359 45.3082 211.856 44.8384 213.496 44.2339C214.508 43.8608 215.825 44.0792 216.896 44.0792C218.286 44.0792 219.705 43.9975 221.085 44.1565C223.476 44.4319 226.359 44.7721 228.658 43.9244C230.544 43.2292 231.247 41.2231 231.931 39.4704C232.56 37.8614 232.695 36.0134 232.695 34.3286" stroke="#F2F2F2" stroke-width="5" stroke-linecap="round"/>
</svg>
