<svg width="184" height="105" viewBox="0 0 184 105" fill="none" xmlns="http://www.w3.org/2000/svg">
<path d="M119.107 3.42025C116.415 3.66485 113.293 3.84128 110.939 5.17086C107.323 7.2128 104.081 9.79761 100.421 11.7441C96.7691 13.6858 92.8665 15.4294 89.5169 17.764C87.7202 19.0163 85.7307 19.9335 83.9222 21.1071C83.1853 21.5852 82.605 22.3556 81.8334 22.8916C79.401 24.5813 81.61 26.9244 82.3929 28.8211C83.0018 30.2961 83.5344 31.6179 84.8795 32.7176C87.3215 34.7142 87.7421 38.3601 89.4423 40.8607C90.2561 42.0577 90.8114 43.4809 91.5808 44.7234C92.2621 45.8237 92.4916 47.087 93.197 48.1907C93.9055 49.2991 94.7907 50.37 95.2609 51.5903C96.005 53.5217 97.8794 55.3588 99.2394 56.9777C101.009 59.0837 102.57 61.3588 104.287 63.5058C105.123 64.5509 106.088 65.9928 106.525 67.2555C106.863 68.231 107.586 69.2748 108.191 70.1468C108.581 70.7092 109.086 71.2406 109.583 71.728C110.725 72.8466 111.482 74.2785 112.319 75.5906C113.952 78.1514 115.244 80.6852 117.143 83.1126C119.432 86.039 121.463 89.1462 123.794 92.0577C124.166 92.5225 124.263 93.0627 124.826 93.3791C125.439 93.7238 125.73 94.0955 126.032 94.6892C126.596 95.7983 127.344 96.7144 127.934 97.8177C128.545 98.9596 129.041 100.37 130.545 100.619C134.169 101.217 137.935 101.204 141.623 101.421C151.424 101.995 161.239 102.019 171.076 102.019C172.626 102.019 174.176 102.019 175.726 102.019C176.705 102.019 179.092 101.795 179.531 100.799C179.755 100.29 180.527 100.227 180.861 99.8733C181.337 99.3688 181.689 98.7949 181.868 98.1453C182.457 96.004 180.943 94.5819 179.928 92.8709C178.401 90.2948 176.76 87.8098 175.104 85.3037C171.264 79.4896 167.423 73.5663 163.144 68.0009C160.618 64.7147 157.997 61.2469 156.592 57.4181C155.792 55.2371 154.219 53.3895 153.098 51.3531C151.251 47.9974 147.958 45.3581 146.31 41.9563C144.68 38.5904 141.807 35.6928 140.056 32.39C138.691 29.8142 136.735 27.5282 135.27 24.9923C134.07 22.9159 132.594 21.0279 131.241 19.0289C130.675 18.1916 130.241 17.2086 129.575 16.4312C128.676 15.3807 127.928 14.2142 127.387 12.9752C126.781 11.5856 125.935 10.2464 125.323 8.81891C124.514 6.92912 123.301 5.06629 121.793 3.62355C121.354 3.20455 121.46 2.81036 120.674 2.81036C119.952 2.81036 119.046 2.64377 118.436 3.01366" stroke="white" stroke-width="4" stroke-linecap="round"/>
<path d="M115.079 16.0246C114.387 16.0875 113.765 16.708 113.165 16.9959C112.114 17.5003 110.964 17.7559 109.932 18.2609C107.586 19.4084 105.279 20.6184 102.995 21.875C100.21 23.4068 97.6744 25.1242 94.8137 26.4944C93.4584 27.1436 92.2394 27.2251 93.098 28.629C94.1549 30.3573 96.0273 31.4854 97.2008 33.1467C98.6368 35.1797 99.7897 37.4438 100.98 39.607C102.315 42.031 104.042 44.4136 105.618 46.7111C106.826 48.4718 108.399 50.1989 109.46 52.0194C110.105 53.1265 110.548 54.3613 111.101 55.5094C111.979 57.334 113.186 58.9301 114.284 60.637C116.694 64.3848 119.096 68.0812 121.582 71.7505C125.85 78.0509 129.648 84.734 134.885 90.4426C135.572 91.192 136.352 91.1743 137.583 91.2332C138.381 91.2713 139.36 91.3576 140.144 91.1993C141.871 90.8506 143.999 90.8775 145.739 91.1541C148.234 91.5508 150.756 91.461 153.285 91.5494C155.461 91.6254 157.665 91.8277 159.837 91.8543C162.057 91.8816 164.333 91.9663 166.551 91.8543C166.998 91.8318 163.688 86.0118 162.647 84.9309C161.09 83.3148 160.238 81.2284 159.029 79.4193C157.676 77.3941 156.525 75.2955 155.548 73.0946C154.989 71.8356 154.466 70.4581 153.621 69.3336C152.425 67.7417 150.96 66.0917 150.04 64.3641C147.122 58.8796 142.752 53.9994 139.137 48.9474C135.858 44.3649 132.743 39.7635 129.526 35.1797C128.502 33.7201 127.752 32.1081 126.866 30.5716C125.86 28.8303 124.709 27.1536 123.795 25.3876C122.803 23.4725 121.202 21.5946 119.903 19.8647C119.146 18.8565 118.451 17.7069 117.79 16.6458C117.344 15.9309 117.345 15.2114 116.422 15.2114C115.791 15.2114 114.632 15.5513 114.632 16.2279" stroke="white" stroke-width="4" stroke-linecap="round"/>
<path d="M79.2724 35.1344C76.9189 35.1344 75.1791 35.6926 73.056 36.7608C70.6581 37.9673 68.4997 39.5525 66.1185 40.7816C64.5222 41.6055 62.5109 42.4201 61.1453 43.56C58.8413 45.4833 55.5694 46.345 53.2629 48.3036C52.0487 49.3347 50.7473 50.3777 49.1849 50.8787C48.117 51.2211 47.1545 51.8466 46.2384 52.4373C45.517 52.9023 44.2342 53.2705 43.6896 53.8829C42.8035 54.8795 41.6863 54.9477 41.0042 56.187C40.0541 57.9131 41.8986 59.7763 42.3966 61.3597C42.8348 62.753 44.0489 63.8632 44.8583 65.0643C46.6182 67.6755 48.2099 70.565 50.4034 72.9025C54.2138 76.9631 56.6382 81.8343 59.9766 86.2071C60.9811 87.5228 61.5155 88.7345 62.7616 89.8665C63.7451 90.7599 64.5068 92.0572 64.9125 93.2548C65.1624 93.9925 65.1718 94.8864 65.6211 95.5588C66.3247 96.6115 66.6782 97.7823 67.4115 98.8341C69.4767 101.796 73.9738 101.409 77.2583 101.409C79.9066 101.409 82.5896 101.816 85.2526 101.816C91.5621 101.816 97.9323 102.374 104.225 101.816C107.3 101.543 110.575 101.483 113.562 100.754C114.979 100.408 119.327 100.154 119.791 98.2581C119.897 97.8232 119.999 97.5376 120.35 97.2981C120.911 96.9161 120.165 94.4845 120.089 94.1922C119.758 92.9107 119.39 91.6777 118.336 90.7474C117.603 90.0994 116.836 89.5432 116.198 88.8048C112.823 84.9027 111.447 80.0539 108.614 75.9068C106.956 73.4799 105.975 70.711 104.113 68.3622C103.194 67.2028 102.287 66.0594 101.527 64.8045C99.0926 60.7835 97.0752 56.4901 94.1545 52.7196C92.287 50.3089 90.8829 47.5987 88.8456 45.2993C88.2858 44.6674 87.7814 43.8808 87.1548 43.3115C86.7562 42.9494 86.2044 42.7622 85.8742 42.3289C83.8164 39.6287 83.0744 35.918 79.2724 34.9312" stroke="white" stroke-width="4" stroke-linecap="round"/>
<path d="M71.7133 49.3203C73.2479 48.4529 74.7001 47.0343 76.587 46.7227C78.3571 50.3407 80.4983 53.8901 82.4055 57.4635C84.2657 60.9487 87.1736 63.935 89.343 67.2556C92.1617 71.5699 95.2676 75.7532 98.1455 80.0407C100.047 82.8735 101.726 86.0264 104.337 88.3985C105.522 89.4749 106.27 90.1037 105.916 91.5496C105.735 92.2892 101.924 91.7283 101.378 91.6964C98.0637 91.5028 94.8081 91.0414 91.4815 91.0414H85.3272C82.219 91.0414 79.1227 91.319 76.0151 91.2447C75.1155 91.2232 74.7886 90.1136 74.461 89.5053C73.9152 88.4923 73.1797 87.648 72.6085 86.6818C68.8426 80.3117 64.5852 74.0896 60.3497 67.9333C58.8678 65.7794 57.1011 63.9358 55.2274 62.0716C54.6301 61.4773 53.4134 59.8339 54.1084 59.0221C55.2872 57.6453 56.8282 57.2672 58.4599 56.5261C59.9917 55.8303 61.6382 55.0945 63.0601 54.2333C65.8839 52.5232 68.8355 50.947 71.7133 49.3203Z" stroke="white" stroke-width="4" stroke-linecap="round"/>
<path d="M40.7804 66.6455C38.223 66.3874 35.4913 66.2394 33.072 67.2441C32.502 67.4809 32.1306 67.7109 31.6671 68.0912C30.3157 69.2 28.5431 69.9353 27.0048 70.8018C25.0446 71.9061 23.0442 72.99 21.1365 74.1675C20.0248 74.8537 19.0244 75.6893 18.0408 76.5167C16.4505 77.8543 14.5369 78.8842 12.8065 80.0631C10.9933 81.2985 9.15811 82.7153 7.09987 83.6095C6.14873 84.0228 5.51507 84.594 4.63817 85.0552C3.19868 85.8123 2.56703 86.2583 2.28837 87.698C2.07997 88.7748 1.64238 90.7681 2.56189 91.6962C3.30202 92.4433 4.22058 93.3443 4.75007 94.2261C5.37838 95.2726 5.85102 96.3994 6.4658 97.4563C7.06072 98.4791 7.99373 99.4641 8.51721 100.494C9.04657 101.536 9.89389 101.501 11.24 101.613C13.1207 101.768 14.9662 102.146 16.8472 102.324C24.8988 103.086 32.9474 102.748 41.0042 102.268C44.6448 102.051 48.2616 101.981 51.8829 101.511C53.4202 101.311 57.4196 102.006 58.4598 100.641C59.2683 99.5805 60.4039 97.9067 60.2502 96.5302C59.935 93.7081 57.7086 90.7573 55.9857 88.4096C55.2319 87.3824 54.3042 86.474 53.5365 85.4279C51.7622 83.0102 50.4324 80.3334 48.6255 77.9285C47.3751 76.2643 46.064 74.3714 45.2562 72.496C44.7919 71.418 44.111 70.4784 43.6399 69.4013C42.9543 67.8334 42.1874 67.0814 40.7804 66.0356" stroke="white" stroke-width="4" stroke-linecap="round"/>
<path d="M36.9758 78.6401C35.8347 78.7438 34.5189 79.3964 33.5692 79.9503C31.1195 81.3789 28.4709 82.5232 25.8609 83.7C23.566 84.7347 21.0477 85.4863 18.8985 86.772C17.6663 87.5092 16.563 88.5925 15.2681 89.2116C14.7533 89.4577 12.4902 89.8504 13.5275 90.7928C14.1238 91.3345 15.9333 91.1318 16.7103 91.1994C18.9153 91.3911 21.116 91.3927 23.3246 91.493C28.6753 91.736 33.9793 91.8544 39.3381 91.8544C40.0974 91.8544 45.1346 92.4016 45.4301 91.3575C46.0799 89.062 43.1029 86.8147 41.7749 85.2586C40.0369 83.2221 38.8993 80.6988 37.1996 78.6401" stroke="white" stroke-width="4" stroke-linecap="round"/>
</svg>
