<svg width="206" height="86" viewBox="0 0 206 86" fill="none" xmlns="http://www.w3.org/2000/svg">
<path d="M28.7982 6.64819C28.2051 7.56485 28.3591 8.20274 27.4843 8.98929C26.0497 10.2792 24.6463 11.9155 23.2863 13.3293C21.4601 15.2279 20.1442 16.7794 18.7198 19.074C17.8862 20.4168 17.1966 21.818 16.3964 23.1799C12.8251 29.258 10.1286 35.9455 7.05502 42.3229C6.05302 44.402 5.28368 47.2804 4.92396 49.6163C4.3375 53.4246 3.4178 57.1359 3.4178 61.0877C3.4178 63.1544 2.65304 65.6361 3.19348 67.6608C3.64883 69.3667 4.49484 70.1332 5.40465 71.4966C7.03864 73.9452 8.03375 76.3547 10.3077 78.3578C11.8069 79.6785 13.5497 79.9929 15.3069 80.6269C17.1943 81.3078 19.0718 82.239 21.0271 82.6438C26.4684 83.7704 32.4014 82.523 37.675 81.2031C46.9996 78.8693 56.222 76.9426 65.1544 73.0813C71.695 70.254 78.1768 67.2651 84.7185 64.4373C98.0255 58.685 110.071 49.5608 123.174 43.2053C127.239 41.2335 131.081 38.7809 135.127 36.7943C140.344 34.2326 145.73 31.8086 151.054 29.5369C155.51 27.6357 160.079 26.1309 164.641 24.6026C171.752 22.2203 178.741 18.0732 185.311 14.2838C189.291 11.9879 192.79 8.78708 196.815 6.64819C198.901 5.54017 201.027 4.41325 203 3.08252" stroke="#F2F2F2" stroke-width="5" stroke-linecap="round"/>
<path d="M29.3752 11.1862C29.1569 13.517 27.8147 15.9708 27.0359 18.1195C25.7862 21.5668 24.2494 25.451 23.8313 29.1587C23.6212 31.0214 23.6069 32.8283 23.6069 34.7053C23.6069 37.0505 24.5331 38.2995 25.8021 40.0358C27.3836 42.1997 30.716 43.8025 32.9003 44.9701C37.089 47.2091 41.4462 48.2237 45.9911 49.112C51.9349 50.2738 59.0313 50.5102 64.9783 49.1841C69.4454 48.1879 73.6662 47.4245 78.0371 45.8525C84.3259 43.5907 90.5029 41.1915 96.7039 38.6671C105.392 35.1302 113.987 31.3849 122.998 29.0146C127.099 27.9357 131.284 27.4132 135.383 26.2773C140.633 24.8226 145.803 22.9298 151.086 21.6311C155.288 20.598 159.353 18.8763 163.616 18.1735C167.262 17.5726 171.2 16.3715 174.64 14.86C178.365 13.2226 182.117 12.0861 185.984 10.9341C191.212 9.37655 196.244 7.25692 201.27 5.02734" stroke="#F2F2F2" stroke-width="5" stroke-linecap="round"/>
</svg>
