<svg width="223" height="104" viewBox="0 0 223 104" fill="none" xmlns="http://www.w3.org/2000/svg">
<path d="M104.973 13.973C104.93 13.5823 104.348 13.427 104.088 13.1669C103.601 12.6793 103.204 12.0377 102.732 11.5156C101.821 10.5074 100.881 9.52693 99.9304 8.5766C98.7407 7.3869 97.0685 6.5124 95.694 5.51966C94.0346 4.32121 92.1084 3.61971 90.3664 2.54134C88.9057 1.63711 87.9025 1.58789 86.2184 1.58789C84.6265 1.58789 83.6526 3.0231 82.2473 3.53411C81.4499 3.8241 80.5047 4.53693 79.731 4.97904C79.0372 5.37551 78.5622 5.98385 77.8143 6.27652C77.3168 6.47118 76.7902 6.66271 76.3104 6.89577C74.5902 7.7313 72.9293 8.65994 71.5431 9.81511C71.0321 10.2409 70.0835 10.4302 69.8033 11.1028C69.6221 11.5377 69.1543 11.8944 68.8892 12.2921C68.3404 13.1152 67.8177 14.5617 67.8177 15.5653C67.8177 16.0961 67.8177 16.6269 67.8177 17.1577C67.8177 18.1083 67.8895 17.5252 68.4468 17.0692C69.7981 15.9637 71.6756 15.5428 72.988 14.3661C73.6552 13.7679 74.7984 13.5106 75.6026 13.1276C76.5868 12.659 77.5748 12.1739 78.6104 11.7712C79.6784 11.3558 80.9405 11.2884 82.0606 11.1224C83.3806 10.9269 84.6712 10.3315 86.0415 10.2574C87.1713 10.1964 88.2118 9.90357 89.3638 9.90357C90.5881 9.90357 91.7394 9.96912 92.9516 10.0903C93.9823 10.1934 95.2625 10.5684 96.0478 11.2109C96.6872 11.734 98.0389 11.7251 98.8197 12.0267C100.128 12.5323 102.153 13.4422 103.557 13.4422" stroke="white" stroke-width="3" stroke-linecap="round"/>
<path d="M88.1646 10.6113C86.499 9.87099 84.6619 11.0818 83.0337 11.3583C81.178 11.6734 79.5276 12.5401 77.7651 13.1276C76.8391 13.4363 75.6718 13.6813 74.9342 14.3661C74.4282 14.836 73.7608 15.0376 73.2239 15.4768C72.743 15.8703 71.9236 16.3462 71.3465 16.5482C70.636 16.7969 70.0573 17.2241 69.3708 17.5115C68.8438 17.7321 68.6823 18.0731 68.2601 18.3077C67.4512 18.7571 66.6489 19.3881 65.9698 20.0672C64.6436 21.3934 62.864 22.2119 61.2714 23.1339C60.7339 23.4451 60.5233 23.8846 59.8756 24.1365C59.3968 24.3228 59.0367 24.7092 58.5781 24.9032C57.1853 25.4925 55.8402 26.4159 54.2335 26.5349C53.6306 26.5796 53.1961 26.8212 52.6903 27.0461C52.272 27.2319 51.5127 27.1084 51.0488 27.2033C49.7904 27.4607 48.5433 27.4278 47.2939 27.6063C45.0566 27.926 43.2825 27.5622 41.1604 26.7905C40.2936 26.4753 38.8294 26.2318 37.9167 26.1811C36.6464 26.1105 36.182 25.1702 35.1644 24.5887C34.502 24.2102 34.0563 22.6578 33.6802 22.0232C33.2699 21.3309 33.0544 20.5627 32.5695 19.9099C32.2515 19.4819 31.6865 19.009 31.4587 18.5534C30.8619 17.3598 29.9633 16.3362 29.4241 15.123C29.049 14.279 28.4571 12.9382 27.6941 12.3806C26.2025 11.2905 24.1792 10.6113 22.3862 10.6113C20.6756 10.6113 18.5924 11.7457 17.1373 12.5772C16.8632 12.7338 16.7083 13.2143 16.3313 13.4028C15.925 13.606 15.5447 13.6116 15.1812 13.8943C14.773 14.2118 14.3851 15.3302 14.3851 15.8307C14.3851 16.2693 13.8787 16.5407 13.8543 16.9807C13.8376 17.2805 13.9277 17.626 13.7658 17.885C13.6702 18.0379 13.334 18.914 13.3235 19.1039C13.3025 19.4822 13.0582 19.9193 12.9303 20.3031C12.6738 21.0727 11.9528 22.0592 11.908 22.8194C11.8589 23.6545 11.6783 24.3194 11.564 25.1195C11.3462 26.6441 11.5542 28.3524 11.5542 29.8966" stroke="white" stroke-width="3" stroke-linecap="round"/>
<path d="M82.3259 72.1828C80.7524 71.9861 79.509 70.4377 78.2467 69.6173C77.2805 68.9892 76.1774 68.4834 75.2881 67.7595C74.2423 66.9084 72.998 66.507 71.9264 65.715C70.1014 64.3661 67.5804 63.4186 65.5078 62.5205C64.3953 62.0384 63.1355 61.278 62.1363 60.5841C60.3742 59.3604 58.1205 58.6669 56.1699 57.7729C53.94 56.7508 52.0232 55.1422 49.8692 53.959C47.1953 52.4902 44.829 50.5857 42.0253 49.3196C40.9069 48.8145 39.9407 48.1641 38.8701 47.5896C36.9127 46.5393 34.573 45.8328 32.766 44.5818C31.0644 43.4037 29.064 42.5776 27.3009 41.4757C25.8967 40.5981 24.4803 39.7696 23.0644 38.92C22.1437 38.3677 21.3426 37.6497 20.4006 37.1114C19.7733 36.7529 18.8844 36.1782 18.4544 35.5977C17.5329 34.3537 16.0161 33.6197 15.0043 32.4523C14.0272 31.3249 13.0628 30.5005 11.8687 29.7197C10.5839 28.8797 10.2183 29.9153 9.39168 30.742C7.96258 32.1711 8.72328 34.4987 8.72328 36.3546C8.72328 37.0494 7.87998 37.645 7.83863 38.3892C7.77321 39.567 6.77706 40.3869 6.77706 41.574C6.77706 42.4477 6.60013 43.401 6.60013 44.3262C6.60013 45.2403 6.91727 46.7876 6.56081 47.5896C6.14599 48.5229 5.53855 48.7925 5.53855 49.8897C5.53855 50.5927 5.18469 51.0242 5.18469 51.659C5.18469 52.1078 5.18469 52.5567 5.18469 53.0056C5.18469 53.6405 5.53855 54.1047 5.53855 54.8044C5.53855 55.6867 5.71384 56.5486 5.85309 57.419C5.9787 58.2041 5.73214 59.053 6.03002 59.7977C6.332 60.5527 6.24627 61.8143 6.24627 62.6286C6.24627 63.4704 6.26487 64.7507 6.87535 65.3612C7.94225 66.4281 9.67882 66.7601 11.1118 66.8847C13.3075 67.0756 15.3678 67.9638 17.5698 68.251C19.132 68.4548 20.726 68.7218 22.2584 69.0963C23.8444 69.484 25.4956 69.43 27.0453 69.8041C32.6337 71.153 38.717 70.5904 44.4237 70.5904C48.3752 70.5904 52.3526 70.4135 56.3173 70.4135C57.9465 70.4135 59.5695 70.4883 61.1927 70.6002C62.6118 70.6981 63.9518 71.1577 65.3407 71.2785C70.744 71.7483 76.1919 72.0058 81.6182 72.0058" stroke="white" stroke-width="3" stroke-linecap="round"/>
<path d="M9.78497 35.5583C9.24276 35.5583 9.20011 37.6152 9.08709 38.1238C9.02007 38.4253 8.68929 38.953 8.80203 39.1362C9.12173 39.6557 9.60679 40.0348 10.0012 40.473C10.3829 40.8971 10.3834 41.1786 10.935 41.4756C11.514 41.7874 12.122 42.0664 12.7043 42.3799C13.3063 42.7041 13.7159 42.9875 14.3458 43.2056C14.7275 43.3377 15.2202 43.874 15.6236 43.874C16.8035 43.874 17.4163 42.5418 18.543 42.2915C19.1012 42.1674 18.3539 41.7525 18.1007 41.6132C17.3668 41.2096 16.8079 40.5559 16.0758 40.1585C15.2806 39.7268 14.7438 39.0851 13.9625 38.6644C13.5679 38.4519 13.2232 38.2888 12.8812 37.9469C11.8141 36.8797 10.9752 35.7433 9.78497 34.8506" stroke="white" stroke-width="3" stroke-linecap="round"/>
<path d="M7.30799 43.3433C7.30799 44.224 7.26169 45.1176 7.30799 45.9972C7.37595 47.2885 9.00587 46.4403 9.43114 45.9087C9.80855 45.437 11.6111 45.3913 10.4141 44.8472C9.98225 44.6509 8.16134 43.8114 8.01571 43.5202" stroke="white" stroke-width="3" stroke-linecap="round"/>
<path d="M20.2238 47.2355C21.0416 48.0534 21.9338 48.7687 22.7401 49.575C23.6834 50.5182 25.0015 50.6806 26.0526 51.4032C26.8215 51.9319 27.3642 52.7204 28.3723 52.7204C29.3157 52.7204 30.8517 52.8246 31.6455 52.1896C32.039 51.8748 32.255 52.1325 32.255 51.5212C32.255 50.9279 31.7021 50.7896 31.2917 50.4203C29.9318 49.1964 28.1511 48.1604 26.4949 47.4125C25.7091 47.0576 24.7924 46.5278 23.9196 46.5278C23.2151 46.5278 20.9381 46.6914 20.5776 47.4125" stroke="white" stroke-width="3" stroke-linecap="round"/>
<path d="M12.9695 50.5975C13.5533 50.7142 14.2254 51.4568 14.6995 51.7966C15.2811 52.2135 15.9279 52.6083 16.4 53.1531C16.7334 53.5378 16.929 53.9324 17.3928 54.1754C17.6314 54.3003 18.5595 54.6732 18.6215 54.9519C19.0525 56.8914 22.1175 54.0231 22.9169 53.9591C23.9241 53.8785 21.886 52.0208 21.7177 51.8458C20.9058 51.0013 19.685 50.2015 18.6903 49.6047C17.7176 49.0211 16.7101 49.0727 15.7021 49.5359C15.0331 49.8433 13.8504 49.8974 13.5003 50.5975" stroke="white" stroke-width="3" stroke-linecap="round"/>
<path d="M26.4163 58.3824C27.2282 58.4301 27.9966 59.4869 28.7065 59.8863C29.2313 60.1814 29.2256 60.8658 29.8566 61.0461C31.683 61.568 33.7804 61.3902 35.7149 61.3902C36.7477 61.3902 35.0101 60.3828 34.7516 60.1713C34.2857 59.7901 33.7851 59.6307 33.228 59.4341C32.66 59.2336 32.3584 58.8018 31.8912 58.4806C31.2114 58.0132 30.6296 57.8516 29.8172 57.8516C29.2978 57.8516 27.7206 57.8967 27.4778 58.3824" stroke="white" stroke-width="3" stroke-linecap="round"/>
<path d="M35.9705 56.259C35.9705 56.8263 36.2507 56.966 36.688 57.3304C37.4459 57.962 38.2686 58.8137 39.1552 59.257C40.2487 59.8038 41.2317 60.4214 42.163 61.213C43.2091 62.1022 45.4891 61.9208 46.7632 61.9208C47.4616 61.9208 48.1239 61.9351 48.8077 61.7831C49.3213 61.669 50.1253 61.9586 50.577 61.7045C50.7739 61.5937 49.5303 60.8127 49.3974 60.7511C48.4356 60.3045 47.1817 59.5055 46.3896 58.8048C45.5584 58.0695 44.5431 57.9151 43.6177 57.3599C42.6605 56.7856 41.7134 56.3797 40.6099 56.1214C39.7168 55.9124 39.1509 55.0205 38.2607 55.0205C37.37 55.0205 36.818 55.7468 36.1474 56.0821" stroke="white" stroke-width="3" stroke-linecap="round"/>
<path d="M55.9634 26.7117C55.5895 26.7117 55.4926 27.0281 55.1377 27.0754C54.1713 27.2042 53.2503 27.3948 52.2675 27.4194C51.0244 27.4505 49.6845 27.7591 48.4931 28.0878C46.0376 28.7652 43.4079 29.0118 40.8556 29.0118C38.4899 29.0118 36.4683 27.0284 34.3387 26.3185C33.192 25.9363 32.193 25.1708 31.095 24.8048C30.3642 24.5612 30.2087 23.524 29.8663 22.9077C29.4696 22.1936 28.9948 21.122 28.8834 20.3422C28.7615 19.4888 27.8122 18.4499 27.3893 17.6981C27.0137 17.0303 26.5506 16.3541 26.2393 15.6536C25.9883 15.089 25.7858 14.3253 25.3939 13.9334C24.3512 12.8907 23.7161 11.8496 22.0814 11.8496C21.4091 11.8496 20.9456 12.1674 20.4792 12.5672C19.8279 13.1254 19.0728 13.6099 18.4544 14.2283C17.1763 15.5064 17.1509 16.7807 17.2159 18.5336C17.2354 19.061 18.2636 20.2852 18.6313 20.6961C19.0023 21.1108 19.0338 21.7842 19.2604 22.2786C19.5534 22.918 19.9375 23.475 20.3121 24.0577C20.6227 24.5409 21.0626 24.6819 21.5015 25.021C21.9804 25.3911 22.5756 26.1688 23.143 26.348C23.73 26.5334 24.398 27.1332 24.9614 27.4587C25.4582 27.7457 26.034 28.1289 26.4555 28.5203C28.3965 30.3227 31.1568 31.2777 33.3164 32.7175C35.1639 33.9491 37.9711 33.4818 40.0791 33.435C43.1663 33.3664 46.0969 31.9207 49.1615 31.6755C55.8472 31.1407 62.4641 30.1654 69.1152 29.287C71.8628 28.9241 74.5936 28.1271 77.3522 28.1271C80.4565 28.1271 83.5359 27.9502 86.6508 27.9502C89.0241 27.9502 92.4396 28.0588 94.4456 26.7215C96.0284 25.6663 92.8645 24.2931 92.1946 23.8808C90.8596 23.0593 87.7186 22.621 86.356 23.4483C85.6286 23.8899 84.4376 24.006 83.6037 24.274C82.6707 24.5739 81.5304 24.9424 80.5468 24.9424C78.8516 24.9424 75.9854 25.0488 75.288 22.9568C74.8736 21.7135 73.8747 19.6533 74.8064 18.3075C76.2626 16.2042 78.4558 15.8273 80.5566 14.6018C82.663 13.3731 85.3011 13.265 87.6731 13.265C88.214 13.265 89.2017 13.0609 89.6193 13.4027C89.9299 13.6567 90.4003 13.5242 90.73 13.7074C90.9985 13.8565 91.291 14.1125 91.5557 14.2283C92.3039 14.5557 92.7887 15.2095 93.5806 15.575C94.1379 15.8322 94.3168 16.2107 94.711 16.6267C95.1274 17.0663 95.669 17.1921 96.1657 17.5114C97.5787 18.4197 98.3758 19.8439 100.019 20.4307C100.713 20.6786 101.588 20.6961 102.329 20.6961C102.735 20.6961 103.798 20.2686 104.088 20.3815C105.232 20.8263 105.681 23.1465 105.681 24.333C105.681 24.8178 105.32 28.7429 105.858 29.0118" stroke="white" stroke-width="3" stroke-linecap="round"/>
<path d="M125.143 48.8281C125.681 48.8879 126.336 49.9584 126.696 50.3025C127.356 50.9326 128.802 51.6385 129.625 52.0129C130.663 52.4847 131.43 53.2474 132.318 53.9198C133.455 54.7797 134.684 55.5407 135.828 56.4263C137.713 57.886 139.726 59.0865 141.42 60.7807C142.246 61.606 143.182 62.3256 144.035 63.1201C144.917 63.9413 145.845 64.8802 146.905 65.4693C147.69 65.9054 148.824 66.9712 149.392 67.6809C150.35 68.8783 151.654 69.697 152.724 70.7674C154.449 72.4924 156.663 73.8541 158.72 75.1513C159.996 75.9554 161.416 76.9938 162.259 78.2574C162.488 78.6013 162.882 78.625 163.173 78.916C163.587 79.3304 163.825 79.9219 164.264 80.3117C165.404 81.3252 166.625 82.6622 167.96 83.3294" stroke="white" stroke-width="3" stroke-linecap="round"/>
<path d="M67.4639 62.9823C67.9158 62.5806 68.9611 62.8054 69.5084 62.8054C70.8321 62.8054 72.1558 62.8054 73.4795 62.8054C76.559 62.8054 79.5481 63.1766 82.5913 63.6114C85.7978 64.0694 89.0512 64.8374 92.234 65.4593C95.261 66.0508 98.0973 67.0148 100.982 68.1034C103.613 69.096 106.611 69.4867 108.993 71.0522C109.922 71.6625 110.981 72.0285 111.912 72.6348C112.425 72.9682 112.801 73.4104 113.357 73.6767C114.236 74.097 115.03 74.8344 115.903 75.328C117.527 76.2457 119.273 77.3453 120.71 78.5422C121.472 79.1775 123.043 80.0375 123.374 81.0291" stroke="white" stroke-width="3" stroke-linecap="round"/>
<path d="M104.088 32.7273C103.853 32.9893 103.642 33.3144 103.469 33.6217C103.125 34.2334 102.762 34.3749 102.231 34.7816C100.705 35.9482 99.5453 37.5668 98.0925 38.8215C97.0817 39.6944 96.1536 40.5817 95.2518 41.5737C94.7972 42.0737 94.6696 42.7596 94.2492 43.2447C93.8225 43.7371 93.3336 44.121 92.9517 44.67C92.0769 45.9275 91.1127 46.8628 90.0717 47.9039C89.4847 48.4909 92.1734 48.8949 92.5093 49.0048C93.5763 49.3536 94.4201 49.9351 95.4189 50.4202C96.5006 50.9457 97.1297 49.9824 98.0531 49.2898C99.2725 48.3753 99.9622 47.6258 100.461 46.1837C100.754 45.3369 101.726 44.4321 102.319 43.805C103.145 42.9316 103.975 42.1783 104.865 41.387C105.756 40.5949 106.521 39.2029 107.558 38.6446C108.426 38.1772 108.742 37.5294 109.396 36.8753C109.807 36.4645 111.14 35.8873 110.458 35.3026C110.077 34.9759 109.549 34.7264 109.082 34.5359C108.557 34.322 108.159 33.8112 107.706 33.4743C107.175 33.0799 105.71 32.2704 105.15 32.5503" stroke="white" stroke-width="2.5" stroke-linecap="round"/>
<path d="M106.388 43.1662C106.388 44.508 106.034 45.7092 106.034 47.0587C106.034 48.6824 106.706 50.2018 106.742 51.7964C106.747 52.011 106.623 53.4205 106.919 53.0349C107.796 51.8945 109.169 51.1595 110.006 49.9878C110.597 49.1604 111.766 47.9504 111.873 46.8817C112.173 43.8805 111.873 40.9148 111.873 37.8976C111.873 37.3468 112.181 36.8972 111.716 37.4455C110.856 38.4605 110.042 39.464 109.15 40.4336C108.545 41.0919 107.725 41.7611 107.194 42.4683C106.798 42.9972 106.061 43.6179 105.858 44.2278" stroke="white" stroke-width="2.5" stroke-linecap="round"/>
<path d="M120.72 38.9199C120.035 39.605 119.269 40.3031 118.675 41.0627C118.156 41.7278 117.677 42.418 117.22 43.1269C116.904 43.6185 116.359 43.7937 116.031 44.2475C114.628 46.1903 112.885 47.8245 111.51 49.8011C110.442 51.3362 109.403 52.9266 108.256 54.4012C108.185 54.4927 107.833 54.7779 107.882 54.8043C108.446 55.1024 109.152 55.3808 109.75 55.6299C110.743 56.0437 112.186 56.6129 113.289 56.6129C113.71 56.6129 113.93 56.8131 114.35 56.7898C114.819 56.7637 115.309 56.2486 115.618 55.9641C116.586 55.0725 117.301 54.2789 117.987 53.1529C120.025 49.807 122.447 46.6831 125.536 44.2671C126.232 43.723 127.397 42.8199 127.758 41.967C128.126 41.0952 127.695 41.0372 126.912 40.6892C125.717 40.1579 124.202 39.7645 122.921 39.49C122.192 39.3337 121.649 39.0969 120.897 39.0969" stroke="white" stroke-width="2.5" stroke-linecap="round"/>
<path d="M12.9695 20.3423C13.1676 21.1839 13.2185 22.0485 13.3627 22.8979C13.6221 24.4254 14.4397 25.9403 15.1025 27.3212C16.324 29.8658 18.7303 32.0673 20.5873 34.1428C22.0702 35.8 24.0182 36.2464 25.9444 37.0719C26.875 37.4708 24.6823 38.0352 24.293 38.0352" stroke="white" stroke-width="3" stroke-linecap="round"/>
<path d="M139.12 35.5586C139.12 36.6503 139.825 37.5899 140.536 38.3796C141.565 39.5235 142.344 40.8585 143.426 41.987C145.251 43.8915 146.673 46.1944 148.36 48.2189C150.209 50.4381 152.186 52.4712 154.199 54.5294C155.129 55.4804 156.048 56.4841 156.921 57.4978C157.982 58.7295 159.182 60.2084 160.45 61.2232C161.39 61.9747 161.922 63.0402 162.691 63.9459C163.597 65.0124 164.738 65.8565 165.758 66.8063C166.778 67.7558 167.686 68.7868 168.589 69.8436C169.689 71.1299 171 72.2026 172.275 73.3134C175.451 76.0799 177.503 80.0926 180.876 82.6218" stroke="white" stroke-width="3" stroke-linecap="round"/>
<path d="M195.384 70.0595C194.72 69.4695 192.856 70.0966 192.121 70.3249C191.406 70.5467 190.662 70.5827 189.968 70.8655C189.358 71.114 188.77 71.5219 188.12 71.6519C187.012 71.8734 183.303 72.5559 182.96 73.8537C182.35 76.1545 184.655 76.693 186.085 77.9329C186.593 78.3727 187.031 79.2068 187.284 79.8299C187.618 80.6478 188.266 81.2194 188.484 82.0907" stroke="white" stroke-width="3" stroke-linecap="round"/>
<path d="M158.406 48.4741C158.117 48.294 156.106 45.9597 156.106 46.8817C156.106 47.9395 156.434 48.4491 157.167 49.1818C158.23 50.2451 159.368 51.4855 160.254 52.7204C160.88 53.594 161.65 54.4333 162.318 55.2859C162.912 56.0458 163.733 57.0458 164.461 57.6744C166.077 59.0701 167.403 60.8737 168.943 62.3729C170.552 63.9401 172.811 64.7471 174.369 66.3047C175.064 66.9999 175.911 67.2286 176.846 67.2286C177.688 67.2286 178.53 67.2286 179.372 67.2286C180.599 67.2286 181.538 66.9241 182.714 66.6192C184.478 66.1618 186.087 65.5017 187.864 65.017C188.769 64.7704 190.239 64.8901 190.44 63.7883C190.603 62.8877 190.472 62.2715 189.447 61.8323C186.76 60.6807 184.124 59.4816 181.465 58.2544C179.393 57.298 177.421 56.4035 175.204 55.8167C173.215 55.2902 170.967 54.9116 169.13 53.9589C165.275 51.9601 161.59 49.6417 157.875 47.4125" stroke="white" stroke-width="3" stroke-linecap="round"/>
<path d="M5.71552 64.9287C3.51422 66.9099 2.58807 69.3217 3.06158 72.2811C3.29473 73.7384 4.12006 74.8066 4.51633 76.1539C4.6367 76.5632 4.87565 77.2259 5.22405 77.4907C5.67602 77.8342 5.23511 77.9024 4.90951 78.1984C4.10247 78.9321 3.76929 79.5205 3.76929 80.6754C3.76929 81.0259 3.94622 81.3183 3.94622 81.5994C3.94622 82.1043 3.43737 81.9984 3.23851 82.3464C2.83989 83.044 3.11045 84.018 2.74704 84.7448C2.51591 85.2071 2.38014 86.0311 2.54062 86.5927C2.77129 87.4001 2 87.1557 2 88.018C2 88.889 2.32396 89.6385 2.35386 90.4459C2.37904 91.1256 2.15811 92.1796 2.44232 92.8049C3.09094 94.2319 4.33207 94.2496 5.6762 94.6529C8.84254 95.6028 11.9865 96.8928 15.0731 98.0932C16.271 98.559 17.7236 98.4244 18.9459 98.7616C20.1364 99.09 21.5037 98.9236 22.6221 99.2432C23.2947 99.4354 23.7441 98.996 24.1555 98.5846C24.3736 98.3665 25.4876 97.64 25.5316 98.0145C25.6135 98.7108 26.6396 99.5275 27.0453 100.049C27.9689 101.237 29.918 100.744 31.2327 100.983C31.8004 101.086 32.3897 100.99 32.9627 101.022C33.5568 101.055 34.0182 101.376 34.6435 101.376C36.1343 101.376 37.6251 101.376 39.1159 101.376C40.1109 101.376 41.3834 101.599 42.3399 101.298C42.9943 101.092 43.6179 100.786 44.2763 100.58C44.9436 100.371 46.0607 100.785 46.5862 100.315C47.1218 99.8354 48.2375 98.5453 48.9748 98.5453C49.701 98.5453 49.836 99.3448 50.3214 99.6953C51.0231 100.202 51.8189 100.622 52.5625 101.062C54.1028 101.972 56.353 101.553 58.0965 101.553C59.1351 101.553 60.1737 101.553 61.2124 101.553C62.4237 101.553 64.0384 101.844 65.1638 101.298C66.2724 100.76 67.3333 100.62 68.4665 100.177C69.3123 99.8466 70.0699 99.4057 70.8944 99.1547C72.6901 98.6082 74.538 98.1901 76.448 97.9752C78.4932 97.7451 80.4067 97.1319 82.4832 96.9431C86.5043 96.5776 90.4578 96.0683 94.5144 96.0683C96.5668 96.0683 99.0254 96.5754 99.9796 98.7222C100.133 99.0676 99.8889 99.4769 100.196 99.7838C100.552 100.14 101.376 100.492 101.896 100.492C103.112 100.492 104.327 100.492 105.543 100.492C106.392 100.492 107.24 100.492 108.089 100.492C109.511 100.492 110.933 100.492 112.355 100.492C114.206 100.492 116.022 100.78 117.849 100.845C118.785 100.879 119.25 100.899 119.923 100.226C120.613 99.5367 120.774 99.0761 121.781 99.0761C122.476 99.0761 123.155 99.7371 123.197 100.492C123.262 101.671 124.906 101.73 125.772 101.73C131.4 101.73 137.049 101.553 142.659 101.553C143.602 101.553 144.01 101.342 144.644 100.708C144.749 100.603 144.95 100.287 144.959 100.138C144.982 99.7541 145.327 99.7086 145.578 99.4299C145.865 99.1114 146.497 99.253 146.886 99.253C147.523 99.253 147.46 99.6147 147.751 100.138C148.231 101.003 148.903 101.553 150.021 101.553C155.402 101.553 160.726 100.601 166.014 99.8231C167.316 99.6317 167.593 99.1852 167.979 98.0243C168.31 97.0314 170.325 98.7502 170.791 98.8598C172.434 99.2464 174.563 98.8908 176.207 98.7222C177.486 98.591 178.683 98.4846 179.912 98.103C180.913 97.7925 181.803 97.2535 182.822 96.9923C185.398 96.3316 188.023 95.7686 190.626 95.2623C193.841 94.6372 196.932 93.6798 200.122 92.9622C202.397 92.4502 204.712 91.5252 206.865 90.5835C208.131 90.0294 209.196 89.0475 210.285 88.2441C210.78 87.8792 211.286 87.5686 211.642 87.0547C211.839 86.7699 211.961 86.5102 212.271 86.3372C213.14 85.8512 213.943 84.9005 214.64 84.2042C216.028 82.8161 216.961 81.0879 218.129 79.5156C219.19 78.0875 220.159 75.9314 220.321 74.1487C220.446 72.7792 220.297 71.5479 220.645 70.1973C220.951 69.0131 221.175 67.3844 220.242 66.4523C219.747 65.9568 219.564 65.5383 218.915 65.1056" stroke="white" stroke-width="3" stroke-linecap="round"/>
<path d="M80.2028 71.8289C81.2594 71.8289 82.3293 71.9022 83.3777 72.0255C85.1033 72.2285 86.6616 73.481 88.4201 73.7358C89.6748 73.9177 91.0192 74.0331 92.234 74.4042C93.6432 74.8349 94.9092 75.5574 96.3623 75.8983C102.671 77.3782 108.83 79.5529 115.294 80.3609C116.542 80.5169 117.769 80.868 119.019 81.0293C120.067 81.1645 121.306 81.3034 122.312 81.6387C124.316 82.3067 126.431 82.4232 128.544 82.6609C131.87 83.0351 135.162 83.2555 138.511 83.3293C144.74 83.4668 150.968 84.1528 157.206 84.214C161.08 84.252 165.016 84.3796 168.884 84.1747C174.377 83.8837 179.863 83.257 185.338 82.7592C187.366 82.5749 189.4 82.3942 191.423 82.1695C193.658 81.9211 195.833 81.3688 198.077 81.1669C201.698 80.841 205.161 80.4321 208.693 79.6138C210.129 79.2811 211.61 78.8758 213.077 78.7292C213.869 78.65 214.99 78.2499 215.593 77.7069C216.507 76.8844 217.125 75.9987 217.815 74.935C218.146 74.4242 218.159 73.407 218.218 72.7922C218.305 71.874 218.562 71.036 218.562 70.099C218.562 68.5576 218.739 67.0147 218.739 65.4595" stroke="white" stroke-width="3" stroke-linecap="round"/>
<path d="M99.4881 97.307C103.856 97.307 108.166 97.2511 112.492 97.828C118.765 98.6643 125.029 97.307 131.286 97.307C137.846 97.307 144.405 97.307 150.965 97.307C154.087 97.307 157.232 96.9346 160.352 96.7369C162.405 96.6068 164.455 96.5694 166.505 96.3831C167.816 96.2639 169.448 96.3206 170.692 95.8916C172.676 95.2076 174.852 95.19 176.895 94.7415C179.935 94.0741 182.957 93.3507 186.007 92.7069C189.016 92.0715 191.956 91.2573 194.824 90.161C196.856 89.3838 198.992 88.873 201.006 88.0674C203.256 87.1676 205.64 86.5717 207.916 85.7181C209.842 84.996 211.712 83.9321 213.529 82.9757C215.936 81.7088 216.383 79.0176 217.5 76.7832" stroke="white" stroke-width="3" stroke-linecap="round"/>
<path d="M118.243 81.5601C118.626 82.4797 120.046 82.8523 120.808 83.4178C121.851 84.1919 123.212 84.6513 124.396 85.1773C128.873 87.1671 133.918 86.9668 138.727 87.3594C145.762 87.9337 152.746 88.4603 159.811 88.4603C162.939 88.4603 166.259 88.0995 169.356 87.6641C170.281 87.534 171.199 87.4548 172.128 87.3594C173.094 87.2601 173.979 86.8463 174.939 86.7303C176.548 86.5357 178.21 86.4283 179.794 86.0718C182.629 85.4339 185.371 84.5255 188.199 83.8601C189.5 83.5539 190.578 82.6216 192.022 82.6216" stroke="white" stroke-width="3" stroke-linecap="round"/>
<path d="M165.66 84.5679C165.66 85.0082 165.429 86.6642 165.837 86.868" stroke="white" stroke-width="3" stroke-linecap="round"/>
<path d="M172.914 84.9219C172.914 85.2766 172.757 85.9936 173.091 86.1604" stroke="white" stroke-width="3" stroke-linecap="round"/>
<path d="M181.407 84.2139V84.5677" stroke="white" stroke-width="3" stroke-linecap="round"/>
<path d="M149.913 84.5679C150.575 85.271 150.596 86.3164 150.798 87.2218" stroke="white" stroke-width="3" stroke-linecap="round"/>
<path d="M143.013 84.2139C143.013 85.2073 143.646 86.0116 144.074 86.8678" stroke="white" stroke-width="3" stroke-linecap="round"/>
<path d="M134.697 84.2139C134.773 85.0493 135.361 85.9391 135.936 86.5139" stroke="white" stroke-width="3" stroke-linecap="round"/>
<path d="M125.851 83.3296C126.073 83.7744 126.769 85.6297 127.266 85.6297" stroke="white" stroke-width="3" stroke-linecap="round"/>
<path d="M214.492 58.0283C214.492 59.682 212.727 60.487 211.445 61.2131C211.025 61.4512 210.507 61.3646 210.069 61.5669C209.521 61.8198 209 62.1457 208.457 62.4122C207.595 62.835 206.564 63.1228 205.646 63.4148C203.894 63.9724 202.291 64.7469 200.476 65.2824C199.053 65.7023 197.555 66.319 196.455 67.3269C194.023 69.5561 200.179 72.1468 201.321 72.6545C203.845 73.7761 206.502 74.8143 208.654 76.5174C209.42 77.1238 209.953 78.0269 210.246 78.906" stroke="white" stroke-width="3" stroke-linecap="round"/>
<path d="M214.492 57.8516C214.866 58.2724 214.867 58.7594 215.111 59.2473C215.331 59.6866 215.856 59.8489 216.075 60.2499C216.363 60.7778 216.737 61.2013 217.009 61.744C217.3 62.3279 217.619 62.9108 217.952 63.4347C218.179 63.7911 218.246 64.7709 218.562 64.9287" stroke="white" stroke-width="3" stroke-linecap="round"/>
<path d="M213.608 58.2052C213.568 57.8913 210.732 57.4387 210.246 57.1829C209.944 57.0241 209.852 56.6756 209.528 56.5342C209.169 56.3768 208.827 56.3158 208.477 56.1213C207.829 55.7616 207.153 55.3518 206.53 54.9516C205.004 53.9704 202.928 54.1898 201.321 53.4182C199.844 52.7095 197.941 52.4391 196.308 52.3665C194.931 52.3053 193.344 52.0147 192.061 51.5605C190.457 50.9921 188.302 51.3978 186.616 51.2656C185.44 51.1734 184.258 51.1562 183.097 50.9904C181.549 50.7693 179.74 51.1019 178.241 50.6857C176.399 50.1738 174.578 49.815 172.796 49.2211C171.6 48.8224 170.485 48.5403 169.316 48.0612C167.886 47.4752 166.201 47.2669 164.873 46.5082C163.061 45.4723 161.187 44.302 159.3 43.2645C156.363 41.6489 153.555 39.7041 150.542 38.1728C148.222 36.994 145.795 36.1238 143.465 35.0274C141.904 34.2931 140.176 33.6132 138.58 33.0812C138.192 32.9521 137.41 32.8104 137.164 32.4423C136.776 31.8601 135.88 31.5979 135.287 31.2726C134.256 30.7067 133.227 30.1919 132.151 29.7195C128.813 28.2539 125.403 26.8596 122.273 25.0211C118.45 22.7761 114.439 21.1089 110.861 18.4255C109.899 17.7041 108.921 17.0362 108.069 16.1844C107.355 15.4703 106.199 15.1902 105.681 14.3267" stroke="white" stroke-width="3" stroke-linecap="round"/>
<path d="M4.65399 79.2598C5.76072 79.2598 6.93255 79.4765 7.95667 79.9085C10.0534 80.7931 12.0946 81.2586 14.3753 81.3927C15.6959 81.4704 17.2431 81.8152 18.4938 82.2676C19.0731 82.4771 20.3763 82.7936 20.8332 83.2505C21.786 84.2033 22.9297 85.0266 23.9393 85.9831C24.8784 86.8727 26.3494 87.5754 27.6548 87.5754" stroke="white" stroke-width="3" stroke-linecap="round"/>
<path d="M3.23846 84.0371C3.74772 84.0371 4.12871 84.1863 4.59492 84.391C6.08505 85.0452 7.53815 85.561 9.13611 85.9047C10.8142 86.2657 12.6953 86.439 14.2966 87.0449C15.5592 87.5227 16.9356 87.8841 18.248 88.195C18.8 88.3257 19.2984 88.414 19.86 88.4702C20.3212 88.5163 20.5814 88.908 21.01 89.0305C21.7386 89.2386 23.7666 90.0345 24.3717 89.2565C24.9341 88.5335 26.1989 88.6373 27.1239 88.6373" stroke="white" stroke-width="3" stroke-linecap="round"/>
<path d="M28.5394 86.8677C31.2339 86.3288 33.4715 85.8062 36.2161 85.8062C37.3721 85.8062 38.6362 85.9621 39.7744 86.16C40.6253 86.308 42.7068 86.3711 43.313 87.0447C43.7705 87.553 44.8914 87.8289 45.5246 88.1456C46.304 88.5352 46.9259 89.0359 47.6084 89.561C48.8171 90.4908 50.6199 90.2294 52.071 90.2294" stroke="white" stroke-width="3" stroke-linecap="round"/>
<path d="M26.4163 89.168C26.4163 91.5973 29.015 90.4601 30.6232 90.4065C33.7562 90.302 36.8538 91.4092 39.9612 91.8612C40.6944 91.9679 41.4349 91.9283 42.163 92.0382C42.794 92.1334 43.3432 92.4776 43.9618 92.5395C44.9373 92.637 45.9208 92.8835 46.9008 92.8835C47.6082 92.8835 48.0762 92.8653 48.6209 92.3625C49.1974 91.8304 50.961 91.9988 51.7172 91.9988" stroke="white" stroke-width="3" stroke-linecap="round"/>
<path d="M51.1863 92.8834C52.2726 92.9351 53.3119 93.2277 54.4104 93.2372C56.219 93.2528 58.0319 93.1776 59.8362 93.3355C61.8928 93.5155 63.8718 93.7234 65.9305 93.4535C67.317 93.2716 68.6822 93.1951 70.0293 92.7851C70.6055 92.6097 71.8871 92.5739 71.8871 91.8218" stroke="white" stroke-width="3" stroke-linecap="round"/>
<path d="M53.6633 89.8756C53.8815 88.8939 56.4761 88.9909 57.2019 88.9909C59.046 88.9909 60.8375 89.3069 62.6572 89.6102C64.3418 89.8909 66.0484 89.7108 67.7292 90.1606C68.2553 90.3014 71.5332 91.1971 71.5332 91.8218" stroke="white" stroke-width="3" stroke-linecap="round"/>
<path d="M2.53088 90.7603C2.76043 91.4489 4.92359 91.306 5.578 91.4287C6.54675 91.6103 7.51008 91.674 8.44819 91.9988C10.2233 92.6132 11.8281 93.4282 13.6971 93.7681C14.2875 93.8754 14.7233 94.1261 15.26 94.3676C15.7005 94.5659 16.2187 94.4821 16.6459 94.7313C17.2258 95.0696 18.1843 95.1221 18.8477 95.3211C20.2163 95.7317 22.2413 96.6186 23.6543 95.8814C24.7782 95.295 25.8551 95.0698 26.9471 95.9895C27.9137 96.8034 30.2737 96.8849 31.4785 96.9626C33.9852 97.1243 36.3297 97.8374 38.8407 97.8374C41.4146 97.8374 43.8355 97.5709 46.3799 97.3165C47.0321 97.2512 47.6536 97.4024 48.2671 97.1297C48.6562 96.9568 48.9252 96.422 49.3582 96.422C51.085 96.422 52.7619 97.5126 54.4892 97.8964C58.7673 98.8471 62.8563 97.3066 67.1101 97.3066C71.5774 97.3066 75.7972 96.8963 80.2029 96.2844C82.3781 95.9823 84.5378 95.5373 86.7395 95.5373C88.4051 95.5373 90.2661 95.3107 91.8803 95.7143" stroke="white" stroke-width="3" stroke-linecap="round"/>
<path d="M60.0329 82.2676C60.657 82.5797 61.2764 82.8235 61.9595 82.9753C62.5746 83.112 62.9216 83.6878 63.4339 83.9976C64.7003 84.7633 66.1268 85.4648 67.4639 86.1207C69.8368 87.2848 72.3479 88.0811 74.6984 89.2563C75.892 89.8531 77.372 91.0325 77.372 92.441C77.372 93.2774 77.2941 94.0577 76.7626 94.7411C76.4758 95.1098 75.9364 96.0781 75.6027 96.245" stroke="white" stroke-width="3" stroke-linecap="round"/>
<path d="M60.3867 82.2675C61.0677 82.1918 61.6994 81.6046 62.3723 81.5598C63.5827 81.4791 64.8255 81.5598 66.0386 81.5598C68.4385 81.5598 70.8783 81.436 73.165 82.2675C75.3898 83.0765 77.8218 83.3153 79.9964 84.312C82.7128 85.557 85.5949 87.1292 88.607 87.5754C89.785 87.7499 91.0022 88.2766 92.0571 88.8041C93.3682 89.4596 94.8462 89.4909 96.1658 90.0524C97.143 90.4682 97.9737 91.0744 98.9967 91.4285C99.755 91.691 99.9881 92.3405 100.628 92.7063C102.572 93.8168 100.395 94.2987 99.2719 94.2987C98.34 94.2987 96.7969 94.7643 96.4803 95.7141" stroke="white" stroke-width="3" stroke-linecap="round"/>
<path d="M71.8872 91.645C73.0157 91.6868 74.5638 92.1645 75.6027 91.645" stroke="white" stroke-width="3" stroke-linecap="round"/>
<path d="M165.837 47.4126C167.996 47.7449 169.964 49.4828 171.931 50.3221C173.677 51.0674 175.283 52.0332 177.003 52.8384C179.12 53.8299 181.266 54.3657 183.392 55.2958C184.175 55.6385 185.13 56.0295 185.967 56.2198C187.264 56.5144 188.393 57.3108 189.683 57.6548C191.568 58.1577 193.437 58.8605 195.345 59.1784C197.16 59.481 199.463 59.4099 201.223 59.0899C202.805 58.8022 204.214 57.8508 205.803 57.4976C206.524 57.3374 207.148 56.7464 207.769 56.436" stroke="white" stroke-width="3" stroke-linecap="round"/>
<path d="M89.5801 18.5734C89.5801 18.2419 89.4547 17.6568 89.7079 17.4037C89.9941 17.1174 90.3622 16.9206 90.6417 16.6271C90.8352 16.4239 90.8079 16.1279 90.9956 15.9194C92.1849 14.5979 93.7899 13.5652 95.1043 12.3415C95.8251 11.6703 96.9484 11.1973 97.768 10.6508C98.2436 10.3338 98.8772 10.094 99.4489 10.0807C100.776 10.0499 102.059 9.90381 103.381 9.90381" stroke="white" stroke-width="6" stroke-linecap="round"/>
<path d="M99.842 24.5888C100.006 23.1098 102.389 22.1154 103.42 21.5416C105.018 20.6526 106.796 20.5832 108.394 19.8117C110.659 18.7183 113.306 18.7501 115.766 18.7501" stroke="white" stroke-width="6" stroke-linecap="round"/>
<path d="M100.727 24.9425C100.889 24.5361 101.612 24.2759 101.965 24.0578C103.507 23.1073 105.31 22.6464 106.88 21.7282C107.431 21.4057 107.993 20.9958 108.61 20.8043C109.209 20.6184 109.787 20.7129 110.281 20.3423" stroke="white" stroke-width="6" stroke-linecap="round"/>
<path d="M89.757 18.5729C89.7844 17.6416 90.3051 17.1907 90.6417 16.3712C91.121 15.2041 91.9352 14.027 92.7452 13.0685C93.3834 12.3132 94.0793 11.408 94.888 10.8274C96.5017 9.66879 100.113 8.09252 101.965 9.01875" stroke="white" stroke-width="6" stroke-linecap="round"/>
<path d="M116.119 22.4658C114.945 23.0876 113.715 24.2342 112.895 25.2967C112.369 25.9794 112.079 26.6773 112.05 27.5575C112.028 28.224 112.591 28.1241 113.112 28.3045C113.966 28.6002 114.633 29.1129 115.549 29.3268C115.805 29.3864 116.804 27.9962 117.102 27.7737C117.68 27.3433 118.778 26.0872 118.99 25.395C119.244 24.5613 119.039 24.1986 118.184 23.8223C117.35 23.4555 115.129 24.173 114.91 25.0116C114.776 25.5256 114.788 26.0102 114.448 26.4467C113.978 27.0513 114.139 27.5968 114.881 27.5968C115.845 27.5968 115.82 27.0653 116.169 26.319C116.582 25.434 117.201 24.3941 118.125 24.0582C118.68 23.8561 119.629 23.6852 120.189 24.0582" stroke="white" stroke-width="6" stroke-linecap="round"/>
<path d="M129.389 29.189C128.84 29.4088 128.809 29.6087 128.603 30.1129C128.331 30.7768 127.828 31.2219 127.374 31.7544C126.716 32.5266 126.384 33.5528 127.561 33.9562C128.37 34.2337 129.221 34.0711 130.048 34.2413C130.387 34.3111 130.634 34.7419 130.923 34.5558C131.934 33.9039 133.974 32.1626 133.203 30.7027C132.796 29.9323 131.834 29.7198 131.06 29.7198C129.793 29.7198 130.302 30.634 129.301 31.2138C128.178 31.8639 130.201 33.967 130.628 32.5113C130.885 31.632 130.974 31.3121 130.097 31.3121" stroke="white" stroke-width="6" stroke-linecap="round"/>
<path d="M119.658 25.6505C120.727 24.8003 121.344 24.2653 122.705 24.235C123.236 24.2232 123.711 24.0581 124.258 24.0581C124.679 24.0581 125.631 24.9216 125.32 24.7658" stroke="white" stroke-width="6" stroke-linecap="round"/>
<path d="M127.62 30.958C126.798 30.3416 127.161 28.1425 127.079 27.2425C126.995 26.3139 126.74 25.6567 126.204 24.9424" stroke="white" stroke-width="6" stroke-linecap="round"/>
<path d="M128.505 28.4813C128.415 27.3149 126.618 24.8132 125.497 24.5889" stroke="white" stroke-width="6" stroke-linecap="round"/>
<path d="M146.197 37.3276C144.633 37.5232 147.327 40.1302 147.426 39.2345C147.577 37.8726 147.273 36.6199 149.028 36.6199C149.352 36.6199 149.701 36.5805 150.021 36.6298C150.227 36.6614 151.404 37.0594 151.476 37.2392C151.574 37.4841 150.946 37.2105 150.689 37.1507C150.201 37.037 149.623 36.8685 149.127 37.0524C148.339 37.344 148.195 38.2749 147.613 38.5661" stroke="white" stroke-width="6" stroke-linecap="round"/>
<path d="M134.697 33.2581C136.201 32.5895 138.447 33.2581 140.005 33.2581" stroke="white" stroke-width="6" stroke-linecap="round"/>
<path d="M159.644 45.1125C160.747 44.99 160.437 42.9932 161.237 42.5569C161.973 42.1552 162.331 42.7506 162.082 43.5595C161.767 44.5833 160.688 44.9463 159.821 45.4664" stroke="white" stroke-width="6" stroke-linecap="round"/>
<path d="M151.505 36.6201C152.976 36.6201 153.267 38.5588 154.159 39.451" stroke="white" stroke-width="6" stroke-linecap="round"/>
<path d="M155.575 40.5122C156.846 40.5122 158.005 41.1267 158.583 42.2815" stroke="white" stroke-width="6" stroke-linecap="round"/>
<path d="M110.104 17.6883C110.814 17.6883 111.667 17.1237 112.325 17.4229C113.05 17.7523 113.82 17.944 114.527 18.2584C115.305 18.6039 116.131 18.6151 116.473 19.5559C116.864 20.6299 117.393 21.6508 117.889 22.6423" stroke="white" stroke-width="6" stroke-linecap="round"/>
<path d="M118.066 20.873V21.9346" stroke="white" stroke-width="6" stroke-linecap="round"/>
<path d="M114.881 20.1655H115.589" stroke="white" stroke-width="6" stroke-linecap="round"/>
<path d="M105.15 10.6113C105.245 11.6595 105.453 13.1678 106.438 13.7469C107.288 14.2473 106.819 12.1348 106.654 11.7712C106.527 11.4919 106.39 11.2152 106.212 10.9652C105.918 10.5538 106.715 11.9953 106.742 12.4199C106.815 13.5543 107.627 14.4336 107.627 15.5654" stroke="white" stroke-width="6" stroke-linecap="round"/>
<path d="M105.504 11.4962C104.921 10.8551 103.339 9.06892 102.24 9.38288C101.672 9.54516 104.127 11.0176 104.226 11.2406C104.648 12.1912 104.551 11.9517 104.088 11.1423" stroke="white" stroke-width="6" stroke-linecap="round"/>
<path d="M16.347 14.6558C16.2917 15.3464 15.3645 15.9539 15.1475 16.6653C14.9226 17.4025 14.9901 18.4771 14.9527 19.2435C14.892 20.488 14.945 21.7517 14.945 22.9978C14.945 24.8561 15.6616 26.0417 16.7987 27.4454C18.1543 29.1186 19.9204 30.4031 21.2852 32.0409C21.7573 32.6074 22.2638 33.2977 22.8119 33.7856C23.6835 34.5616 24.7601 35.0866 25.6004 35.8887C26.3098 36.5659 27.4704 36.6926 28.2642 37.2595C29.1104 37.864 30.1151 38.1715 30.9904 38.755C31.3504 38.995 31.8611 39.1149 32.2678 39.2613C33.5621 39.7273 34.7117 40.3951 35.952 40.9905C38.0768 42.0104 40.0177 43.2186 41.9573 44.5501C43.6986 45.7454 45.3475 46.8921 46.9423 48.2655C48.7542 49.8257 50.4821 51.4989 52.3012 53.0401C53.3612 53.9382 54.8561 54.5865 56.0399 55.299C57.4446 56.1443 58.8084 57.0256 60.2304 57.8382C62.0467 58.876 64.0875 59.4778 65.9164 60.502C67.1014 61.1656 68.2733 61.1614 69.5929 60.8915C71.229 60.5568 73.0373 60.8388 74.6869 60.9304C78.8308 61.1607 82.8814 62.5197 86.9624 63.1659C88.2328 63.367 89.4939 63.6477 90.7635 63.8358C91.9374 64.0097 93.0488 64.5819 94.214 64.8561C96.7263 65.4472 99.3756 65.9209 101.839 66.7021C104.515 67.5504 107.382 67.9577 109.925 69.1946C111.711 70.0638 113.632 70.8787 115.268 72.0065C116.734 73.0173 118.347 73.7852 119.817 74.8027C120.241 75.0963 120.489 75.4692 120.938 75.7063C121.759 76.1393 122.678 76.9949 123.291 77.6691C123.942 78.3856 124.793 79.653 125.697 80.0447C126.688 80.474 127.665 80.7714 128.743 80.9093C130.56 81.1419 132.403 81.0641 134.226 81.3144C136.734 81.6585 139.309 81.4823 141.828 81.7038C144.613 81.9486 147.452 81.9037 150.209 82.3114C152.928 82.7133 155.835 82.7943 158.575 82.7943C160.34 82.7943 162.082 82.8581 163.84 82.9345C164.643 82.9694 164.82 82.8983 164.245 82.1634C163.156 80.7721 161.221 80.0679 159.93 78.8764C158.639 77.6848 157.6 76.3039 156.223 75.1766C152.791 72.3687 149.267 69.6965 145.739 67.0293C144.09 65.7831 142.444 64.5459 140.816 63.2749C139.945 62.5955 138.926 62.1099 138.074 61.4212C136.48 60.1321 135.071 58.7765 133.642 57.3475C132.78 56.485 132.047 55.5345 131.126 54.7148C130.388 54.0575 129.595 53.5334 128.821 52.9311C128.206 52.4533 127.456 52.1154 126.772 51.7472C126.497 51.599 126.409 51.09 126.126 51.4745C125.882 51.805 125.609 52.056 125.362 52.3703C124.937 52.9117 124.322 53.2932 123.914 53.8035C123.634 54.1529 126.236 55.3394 126.5 55.4781C128.11 56.3255 129.551 57.2144 130.939 58.4146C133.558 60.6776 135.903 63.1969 138.253 65.7519C139.028 66.5941 139.722 67.4279 140.224 68.4313C140.272 68.5279 140.689 69.1876 140.707 68.8519C140.759 67.8924 140.588 66.8913 140.715 65.9388C140.776 65.4762 143.852 68.6816 144.009 68.8675C145.205 70.2808 146.211 71.8145 147.366 73.2527C148.427 74.5725 149.516 75.8413 150.918 76.8123C152.823 78.1309 155.004 78.9537 157.048 80.0214C157.439 80.2254 157.847 80.449 158.17 80.7535C158.443 81.0107 158.623 81.22 158.201 80.6289C156.082 77.6629 153.371 75.3199 150.685 72.91C149.702 72.0286 148.879 70.984 147.748 70.2773C146.93 69.7658 148.845 71.8884 149.181 72.7932C149.916 74.7724 150.749 76.4708 152.016 78.1676C152.217 78.4362 154.509 80.9931 153.2 80.4887C151.578 79.8633 150.495 78.5544 149.321 77.2952C147.765 75.6253 146.393 73.7795 145.162 71.8585C144.699 71.1349 143.94 69.1115 144.165 71.1185C144.413 73.3251 144.836 75.6503 146.081 77.5367C146.486 78.1497 146.917 78.6628 147.281 79.3048C147.433 79.5743 148.67 80.8746 148.091 80.0214C146.947 78.3377 145.41 76.8984 144.118 75.3324C143.237 74.2638 142.64 73.4862 141.86 72.3881C141.661 72.1087 141.268 71.204 141.268 71.5469C141.268 73.5276 142.642 75.5271 143.807 77.007C144.935 78.4408 147.185 80.8006 149.29 80.4498C149.662 80.3879 148.943 79.7634 148.667 79.5073C147.606 78.5229 146.379 77.7608 145.154 76.9992C144.143 76.37 142.935 75.7879 142.14 74.8728C141.045 73.6124 140.418 71.8942 139.523 70.4876C139.306 70.1475 139.049 69.2412 138.775 69.5373C138.666 69.6558 138.719 69.8512 138.573 69.9735C137.624 70.7642 138.195 72.1155 138.518 73.1359C139.165 75.1797 140.204 76.7412 141.735 78.2065C142.159 78.6124 142.59 79.015 143.02 79.4138C143.182 79.564 143.379 79.7539 143.589 79.85C144.013 80.0445 142.984 79.135 142.638 78.8219C140.702 77.0694 138.35 75.2885 137.233 72.8399C136.984 72.2936 136.662 71.8284 136.392 71.2977C135.62 69.7823 134.716 70.206 133.323 69.9657C128.639 69.1582 123.873 68.8422 119.178 68.0808C114.702 67.355 110.282 66.2921 105.937 64.973C104.991 64.6858 104.01 64.5431 103.055 64.2875C102.255 64.0736 101.518 63.7387 100.702 63.5553C99.1351 63.203 97.7478 62.5196 96.2314 62.0754C94.9374 61.6964 93.6772 61.3658 92.407 60.9071C89.0516 59.6954 85.7264 58.4579 82.3202 57.4098C80.6032 56.8815 78.8963 56.2347 77.2417 55.5404C75.7787 54.9265 74.265 54.5788 72.8175 53.9437C71.6949 53.4511 70.4861 53.1036 69.3436 52.6507C68.1941 52.195 67.1087 51.6572 65.9787 51.1864C64.9417 50.7542 64.6175 50.2773 63.829 49.4572C63.3437 48.9525 65.1348 48.3208 65.4179 48.3044C66.8871 48.2192 68.358 47.8314 69.7642 47.4009C70.7067 47.1124 71.5496 47.0649 72.5293 46.9725C74.5303 46.7837 76.3954 46.6819 78.3789 46.2637C80.827 45.7475 83.2699 45.3361 85.7162 44.8071C86.866 44.5585 87.648 43.6355 88.7305 43.2119C89.4429 42.9332 90.6543 43.0123 91.1451 42.4081C91.4359 42.0503 91.5135 41.6004 91.8072 41.2631C92.2427 40.7631 92.3884 39.9049 92.8977 39.5028C93.1815 39.2788 92.6564 39.1718 92.4537 39.1211C91.1872 38.8045 90.0118 40.3392 88.7305 40.4219C87.6224 40.4934 86.514 40.6746 85.4046 40.7023C81.754 40.7936 78.149 41.7383 74.5 41.9953C70.6347 42.2675 66.8642 43.2093 63.0033 43.5141C61.6254 43.6229 60.4805 44.2467 59.1555 44.4722C57.5588 44.744 56.0357 45.1857 54.4821 45.6561C53.3008 46.0139 51.3181 45.1195 50.2059 44.4333C49.0786 43.7377 47.9297 42.946 47.0046 41.9953C46.3994 41.3732 44.7755 39.5893 45.2599 38.4591C45.5938 37.6799 47.473 37.3569 48.1808 37.1505C49.5823 36.7417 51.0609 36.6571 52.4959 36.4028C53.7512 36.1803 54.9466 35.7143 56.2269 35.6862C61.1804 35.5773 66.1359 35.546 71.0961 35.546C74.0778 35.546 77.188 35.2488 80.1081 34.6736C83.1392 34.0766 86.2407 34.1204 89.3147 33.7934C91.6177 33.5484 94.2308 33.8042 96.4495 33.1703C97.3698 32.9074 98.2197 32.7458 99.0354 32.1811C99.7963 31.6543 100.163 30.6302 100.757 29.9379C101.241 29.3728 101.63 29.0071 102.229 28.567C102.662 28.2486 103.035 27.1509 103.21 26.682C103.388 26.2075 103.697 24.668 103.117 24.3297C102.369 23.8935 101.606 23.2259 100.78 23.0368C99.5864 22.7632 98.8556 22.2988 97.9372 21.5335C97.2644 20.9728 96.4169 20.6421 95.803 19.999C95.4279 19.606 95.2223 19.0752 94.7904 18.7372C93.6817 17.8695 92.1454 17.1573 90.8258 16.6497C90.4845 16.5185 90.1471 16.0915 89.8132 15.8864C89.1996 15.5095 88.513 15.2279 87.8504 14.9439C86.5555 14.389 85.1452 14.7189 83.7845 14.796C83.2546 14.826 82.838 15.1518 82.3202 15.2477C81.3152 15.4338 80.2971 15.7912 79.3759 16.2291C78.842 16.483 78.2907 16.7613 77.7869 17.0704C77.3175 17.3584 77.1574 17.918 76.7744 18.301C76.0975 18.9779 75.869 19.6915 75.9331 20.6533C76.0066 21.7551 77.8727 22.585 78.8151 22.9277C79.8901 23.3186 81.3121 23.3333 82.4448 23.138C84.2908 22.8197 85.8143 21.7515 87.6011 21.2453C89.0337 20.8394 90.1561 21.0188 91.5658 21.4478C92.8326 21.8334 94.2192 22.5218 95.2188 23.4262C95.5703 23.7442 95.9639 23.9254 96.3716 24.1584C96.8905 24.4549 96.907 24.5847 97.1038 25.1865C97.3825 26.0392 97.2073 26.7068 96.7455 27.4765C96.1525 28.4648 94.4067 29.0877 93.365 29.377C91.4936 29.8969 89.6582 29.9379 87.7335 29.9379C85.6928 29.9379 83.6521 29.9379 81.6114 29.9379C79.27 29.9379 76.8086 29.7547 74.5 30.2494C68.8119 31.4683 62.8915 31.6269 57.1771 32.7419C54.8776 33.1906 52.4429 33.6656 50.1047 33.7233C47.5975 33.7852 45.1121 34.4859 42.6272 34.7748C40.6097 35.0094 38.5377 34.894 36.5362 35.1565C35.0028 35.3576 33.4768 35.3309 32.0107 34.7671C30.1955 34.0689 28.3955 33.0604 26.7921 31.9474C25.3905 30.9746 24.3496 29.7707 23.2948 28.4735C22.4053 27.3796 21.4805 26.3186 20.5998 25.2177C19.8437 24.2725 18.747 23.54 18.1151 22.4993C17.5493 21.5674 16.9235 19.9212 15.9264 19.4226" stroke="white" stroke-width="3" stroke-linecap="round"/>
<path d="M16.347 24.0493C16.632 25.2607 17.8365 26.4025 18.6214 27.3207C19.0367 27.8065 19.5401 28.2238 19.9923 28.676C21.3697 30.0534 22.7833 31.3113 24.2529 32.5938C25.5569 33.7319 26.9506 34.5626 28.3421 35.5693C29.312 36.2709 30.2005 37.0478 31.3643 37.4308C32.7564 37.889 32.14 36.5248 31.7693 35.8575C31.4222 35.2327 31.2335 34.8223 31.0371 34.1439C30.8526 33.5064 30.2162 33.13 29.8765 32.6016C28.9408 31.146 24.0656 28.8521 25.5848 29.6807C26.6974 30.2876 27.521 31.2375 28.4823 32.033C29.6331 32.9855 30.8694 33.5184 32.1899 34.1439C32.8243 34.4444 36.7516 36.5801 35.1342 37.1193C34.6765 37.2718 34.9269 37.6451 35.2432 37.7891C36.1388 38.1971 37.2847 39.0094 38.2809 39.051C39.2309 39.0905 39.912 38.4998 40.7423 38.163C41.4803 37.8636 42.3173 37.8838 43.079 37.6256C43.1631 37.597 44.1137 37.3251 44.0448 37.0725C43.9787 36.8301 42.8707 37.0338 42.8141 37.0414C41.1179 37.2689 39.5407 37.6371 37.8136 37.6489C37.5921 37.6504 36.9386 37.6552 37.1515 37.5944C38.4154 37.2333 39.7454 37.0055 41.0382 36.7921C44.2218 36.2668 47.3211 35.7919 50.463 35.063C52.0081 34.7045 53.5535 34.2715 55.1208 34.0192C56.9053 33.7321 58.7363 33.9026 60.5342 33.7466C63.2269 33.5131 65.8836 32.8043 68.5881 32.7496C70.3003 32.715 71.997 32.485 73.7055 32.4614C80.1573 32.3724 86.8538 32.4569 93.2404 31.3164C96.3243 30.7657 99.4139 29.4228 99.4872 25.9031C99.4923 25.6592 99.4872 25.4148 99.4872 25.1709C99.4872 25.1006 99.5007 24.4382 99.5028 24.4387C99.7741 24.5065 100.118 25.6134 100.165 25.8641C100.28 26.4784 100.072 26.8853 100.562 27.3674C100.63 27.4337 101.671 28.2898 101.481 27.7413C101.014 26.3926 99.3396 25.3037 98.3656 24.3297C97.7576 23.7217 97.1824 23.0842 96.5741 22.4759C95.8967 21.7985 95.0906 21.3707 94.401 20.7467C92.588 19.1064 90.5428 18.4033 88.0996 18.1919C87.2629 18.1195 86.4148 18.168 85.576 18.1608C84.2425 18.1493 82.9672 17.906 81.6269 18.0361C80.5698 18.1388 79.5072 18.3073 78.4646 18.5113C77.9827 18.6055 77.1263 18.6089 76.7354 18.9397C76.2345 19.3635 77.6687 20.1016 77.8181 20.1781C78.9293 20.7469 80.0437 20.8381 81.2608 20.8246C82.9526 20.8058 84.8352 20.026 86.0745 18.8773C86.8047 18.2005 86.1602 17.8434 85.5137 17.3585C85.2422 17.1549 85.3142 17.0266 85.1865 16.8989" stroke="white" stroke-width="3" stroke-linecap="round"/>
<path d="M39.3403 39.6118C39.9947 39.6888 40.6756 40.4607 41.2409 40.788C42.1413 41.3093 43.1507 41.8036 43.967 42.4159" stroke="white" stroke-width="10" stroke-linecap="round"/>
<path d="M25.4601 38.6302C25.9941 38.6302 26.2701 38.7158 26.722 38.9417C27.8095 39.4855 28.9715 39.9942 30.118 40.4528C30.9797 40.7975 31.7495 41.255 32.5637 41.7146C33.3783 42.1745 34.2969 42.4622 35.0407 43.0076C36.1304 43.8068 37.3306 44.5358 38.5691 45.0795C39.2993 45.4001 39.8751 45.9338 40.5943 46.2634C42.1686 46.985 43.8741 47.7524 45.291 48.7248C47.2546 50.0723 49.1887 51.1668 51.3665 52.152C51.6412 52.2762 53.999 53.6066 53.6253 52.8218C53.2808 52.0982 52.7363 51.4944 52.2233 50.8901C50.6311 49.0144 49.1975 46.9754 47.3707 45.3132C46.1668 44.2177 44.9043 43.1906 43.7021 42.0885C43.0574 41.4976 42.3366 41.0729 41.8483 40.3282C41.7635 40.1989 40.7846 38.7328 40.9915 38.6146C41.2527 38.4653 42.4046 39.514 42.596 39.6583C43.7242 40.5094 44.8987 41.2947 46.0232 42.1508C47.1246 42.9894 48.1652 44.0747 49.4114 44.6978C50.2816 45.1329 49.5546 44.0217 49.4037 43.8255C49.2709 43.6529 47.5857 42.0558 47.9627 43.1868C48.3497 44.3477 49.8117 45.1349 50.7589 45.7338C51.7545 46.3632 52.811 47.0142 53.9135 47.4474C55.1207 47.9216 56.4441 48.2027 57.7379 47.9303C58.5675 47.7557 59.2751 47.3123 60.0279 46.9489C61.6195 46.1805 63.3063 45.6539 65.0285 45.2664C67.117 44.7965 69.2451 44.6164 71.3376 44.1292C73.7872 43.559 76.2768 43.3735 78.7528 42.9609C80.6251 42.6488 82.5066 42.3007 84.3453 41.8237C85.2155 41.5979 86.0391 41.362 86.939 41.294C87.8465 41.2255 88.7987 41.1439 89.6964 41.0058C93.6154 40.4029 81.7731 41.4001 77.8259 41.777C75.8844 41.9623 73.949 42.2138 72.0075 42.3923C70.2671 42.5523 68.525 42.5696 66.7966 42.8518C65.0602 43.1353 63.3434 43.5454 61.6402 43.9813C59.7977 44.4528 57.65 44.717 55.9153 45.5313C54.8333 46.0391 52.9492 46.8859 52.3635 47.9303C51.5445 49.3906 52.0435 50.1262 53.3605 50.8278C54.7252 51.5548 56.0048 52.326 57.6133 52.3389C58.6397 52.3471 59.4825 51.4742 60.1993 50.859C61.1196 50.069 62.1372 49.2426 62.8631 48.2574C63.2514 47.7306 60.5582 48.7239 60.3395 48.8027C59.3646 49.1538 58.3517 49.3521 57.3641 49.6595C56.5237 49.921 55.6477 50.3665 54.7625 50.4539C54.402 50.4896 55.4454 48.6583 56.1334 49.0753C57.6475 49.993 59.1468 52.2746 61.095 52.1675C61.7832 52.1297 62.4057 51.6585 62.7697 51.1004C62.8828 50.9269 62.4398 51.3514 62.2789 51.4821C60.994 52.5261 59.5565 52.9717 58.0261 53.4995C57.854 53.5588 57.06 53.8088 57.2628 54.1693C57.489 54.5715 58.7215 54.0381 58.9998 53.9746C60.6338 53.6017 61.9516 53.3557 63.3928 52.4635C64.0573 52.0521 63.5865 52.789 63.4239 53.0088C63.0089 53.5696 62.482 54.0781 61.944 54.5198C61.7095 54.7123 60.2175 55.5667 61.4299 55.1897C62.4648 54.8679 63.4577 54.4179 64.4832 54.0681C65.2062 53.8214 65.5 53.7341 65.192 54.512C64.8078 55.4828 64.3861 56.2353 63.7433 57.0513C63.6549 57.1634 63.3337 57.4345 63.4006 57.3083C63.884 56.3952 64.6404 55.5576 65.34 54.808C65.7856 54.3306 66.1428 53.9704 66.1111 54.7924C66.0858 55.4526 65.9943 56.1096 65.9943 56.7709C65.9943 57.0605 66.3372 59.294 66.5084 58.6091C66.8281 57.3302 67.0264 56.0238 67.3496 54.7457C67.5482 53.9604 67.6844 54.1654 67.9727 54.7691C68.3914 55.6456 68.7824 56.5416 69.1099 57.4563C69.1949 57.6936 69.4116 58.936 69.6863 59.0608C70.3675 59.3705 69.3973 57.5684 69.0398 56.9111C68.7747 56.4237 67.9727 55.0788 67.9727 55.6337C67.9727 56.8314 69.8619 57.8218 70.8703 57.2616C71.4059 56.964 71.2913 56.1529 71.0883 55.7038C71.0366 55.5893 70.7477 55.392 70.7612 55.5168C70.8122 55.9894 71.181 56.7161 71.4311 57.0591C72.0869 57.9586 73.0828 58.3774 74.1416 58.5857C74.7637 58.7081 74.8101 58.3528 74.3909 57.947C73.7939 57.369 72.8834 56.9534 72.0698 56.8098C70.9092 56.605 71.4414 57.3309 72.1788 57.6822C74.2017 58.6458 76.4595 58.953 78.6281 59.4113C79.7805 59.6549 80.8943 60.0157 82.0553 60.2214C83.7557 60.5227 85.4554 60.5134 87.1416 60.9068C87.5621 61.005 88.843 61.1639 88.4112 61.1639C86.4947 61.1639 84.4643 60.3885 82.6473 59.8865C79.8048 59.1012 77.0051 58.4621 74.2507 57.4173C73.8957 57.2827 72.0806 56.4577 73.2693 57.1369" stroke="white" stroke-width="3" stroke-linecap="round"/>
<path d="M112.666 69.4746C113.275 69.5507 113.872 69.7528 114.465 69.903C116.317 70.3718 118.211 70.4999 120.097 70.7676C123.357 71.2303 126.494 72.3343 129.732 72.8862C130.915 73.0878 132.128 73.2394 133.323 73.338C133.796 73.377 135.67 73.4243 134.055 73.5093C130.475 73.6977 126.908 73.4186 123.345 73.1199C121.718 72.9835 120.034 72.7398 118.399 72.7616C116.782 72.7831 121.611 73.1865 123.228 73.2289C127.283 73.3354 131.377 73.2133 135.426 73.4782C135.806 73.5031 137.857 73.6347 136.267 73.6807C134.258 73.7388 132.35 74.2599 130.363 74.4596C129.235 74.5729 128.127 74.5765 127.014 74.8179C126.213 74.9916 125.423 75.1929 124.615 75.332C124.048 75.4294 122.905 75.3875 122.387 75.6981C122.152 75.8389 122.931 75.7709 123.205 75.7759C124.443 75.7989 125.682 75.7837 126.92 75.7837C129.005 75.7837 131.09 75.7837 133.175 75.7837C134.496 75.7837 135.841 75.7095 137.155 75.8772C137.264 75.8912 139.016 76.1408 139.001 76.2121C138.942 76.4858 135.626 76.6675 135.582 76.6717C132.986 76.9188 130.39 76.9201 127.793 77.0533C127.492 77.0688 127.377 77.0694 127.863 77.2169C129.862 77.8245 131.946 78.2295 133.993 78.6345C135.775 78.9874 137.736 79.4846 139.57 79.5692C139.647 79.5728 139.881 79.5692 139.803 79.5692C139.505 79.5692 139.206 79.5692 138.907 79.5692C135.647 79.5692 132.405 79.1954 129.179 78.7514C127.276 78.4895 125.338 78.0275 123.431 77.8556C122.509 77.7726 122.204 77.7466 123.524 77.7466C126.458 77.7466 129.231 78.0494 132.115 78.5644C135.442 79.1585 138.766 79.3683 141.969 78.1672" stroke="white" stroke-width="10" stroke-linecap="round"/>
<path d="M140.567 35.686C141.134 35.8903 141.281 36.2918 141.657 36.7453C142.262 37.4747 143.109 38.2743 143.9 38.8017C144.437 39.1595 144.677 40.0217 145.037 40.5464C145.724 41.5459 146.784 42.4463 147.296 43.5452C148.146 45.3661 149.567 47.0246 150.801 48.6158C151.625 49.6784 152.079 50.8098 153.091 51.7626C154.108 52.7197 155.21 53.5544 156.199 54.5433C157.989 56.3329 159.959 57.9781 161.465 60.0112C162.406 61.2817 163.606 62.3354 164.697 63.4695C165.709 64.5209 166.388 65.8531 167.376 66.9201C169.193 68.8813 171.027 70.9493 172.72 73.0267C174.571 75.2992 177.043 76.8337 179.216 78.7439C179.912 79.3561 181.469 81.7089 182.612 81.8127C183.175 81.8639 185.617 82.1316 185.899 81.5167C186.537 80.1238 184.842 79.1741 184.061 78.3077C183.284 77.4466 182.421 76.468 181.849 75.4569C181.441 74.7384 181.62 73.645 181.724 72.8709C181.832 72.0676 182.163 71.6358 182.916 71.3598C184.299 70.8526 185.632 70.2129 187.098 69.9578C187.953 69.8092 188.814 69.6417 189.669 69.5061C190.671 69.347 191.622 68.9374 192.621 68.7895C192.983 68.7357 193.277 68.6201 193.626 68.4935C194.254 68.2649 194.281 67.5069 194.685 67.0914C196.298 65.4318 198.924 64.51 201.064 63.7967C201.82 63.5446 202.423 63.1117 203.214 62.9477C204.343 62.7134 205.478 62.4926 206.602 62.2467C208.256 61.8849 210.018 61.3543 211.229 60.1436C211.406 59.9664 211.975 59.6985 211.93 59.3803C211.823 58.6311 210.922 58.599 210.38 58.5313C209.653 58.4405 209.146 57.9783 208.456 57.9783C207.668 57.9783 207.173 59.095 206.462 59.4504C205.141 60.1108 203.652 60.0604 202.287 60.611C200.487 61.3367 198.658 61.6934 196.772 61.2808C195.023 60.8981 193.201 60.6981 191.437 60.3773C190.419 60.1922 189.409 59.7335 188.438 59.3803C186.81 58.7882 185.496 57.4611 183.842 56.919C181.89 56.2789 179.848 55.782 177.915 55.0963C176.516 54.6 175.178 54.0354 173.873 53.3204C173.297 53.0052 172.741 52.5737 172.143 52.339C171.415 52.0528 170.783 51.3687 170.071 50.9993C169.367 50.6336 168.759 50.2235 168.015 49.9088C166.243 49.1589 164.607 47.9943 162.906 47.0892C160.367 45.7391 157.799 44.4961 155.257 43.1401C153.013 41.9436 150.579 40.9195 148.558 39.3625C147.843 38.8113 146.989 38.3787 146.206 37.9293C145.476 37.5105 143.096 36.6432 143.877 36.9556C144.146 37.0633 144.375 37.3878 144.586 37.571C145.115 38.0318 145.71 38.3431 146.276 38.7471C147.382 39.5371 148.366 40.5616 149.259 41.5823C149.724 42.1141 150.088 42.7381 150.653 43.1713C151.057 43.4809 151.463 43.8018 151.876 44.0982C152.196 44.3278 152.907 44.5387 153.154 44.8304C153.481 45.2178 153.636 46.198 153.714 46.6997C153.879 47.7473 152.103 45.654 151.798 45.3834C151.503 45.1212 151.665 45.2837 151.814 45.4535C152.406 46.1281 152.749 47.061 153.2 47.8292C153.922 49.0551 154.615 50.1737 155.49 51.2797C156.756 52.878 158.196 54.3485 159.463 55.9531C160.67 57.4819 162.183 58.5802 163.544 59.9411C164.216 60.6128 164.826 61.5053 165.445 62.2389C166.135 63.0578 166.973 63.7139 167.735 64.4588C168.626 65.3303 169.756 65.9603 170.772 66.6864C171.683 67.3367 172.679 68.0896 173.701 68.548C176.075 69.6123 178.716 69.7392 181.288 69.6073C182.602 69.5399 183.885 68.7316 185.135 68.3611C186.392 67.9887 187.624 67.5895 188.874 67.2005C190.508 66.6923 191.936 65.7452 193.516 65.113C194.05 64.8995 194.533 64.5801 195.059 64.3731C195.609 64.1563 196.192 64.1343 196.702 63.8045C197.905 63.0264 194.009 62.6993 193.898 62.6906C192.894 62.6127 191.768 62.1598 191.741 63.415C191.724 64.1541 191.79 64.223 191.18 64.6301C190.464 65.107 189.688 65.3755 188.983 65.8452C187.457 66.8628 185.921 67.514 184.107 67.9015C183.043 68.1289 181.929 68.4764 180.836 68.4935C179.189 68.5192 177.67 69.0283 176.069 69.3892C174.876 69.6582 173.242 69.6967 172.19 70.3862C172.059 70.4723 171.415 70.7321 171.707 70.9392C173.005 71.8595 174.932 72.0696 176.458 72.2789C177.138 72.3721 177.789 72.6144 178.468 72.684C178.731 72.711 179.281 72.6404 178.686 72.7307C177.753 72.8724 176.883 73.2622 176.007 73.5953C174.892 74.019 174.925 74.336 176.209 74.6312C176.843 74.7768 179.398 75.5251 179.722 74.5533C179.975 73.7961 179.616 72.9194 179.356 72.2166C178.988 71.2228 179.115 72.3309 179.146 72.7619C179.284 74.6992 180.162 76.7317 181.225 78.3388C181.372 78.561 181.858 79.0388 181.895 78.775C181.965 78.2892 181.183 77.9187 180.859 77.7469C180.622 77.621 179.338 76.8701 179.559 77.1237C180.153 77.8067 180.894 78.4526 181.693 78.8841C181.852 78.9699 182.05 79.145 182.207 79.0554C182.622 78.8182 181.727 78.2176 181.397 77.8715C179.804 76.2005 177.891 74.9428 176.178 73.4162C175.138 72.4893 174.363 71.3197 173.327 70.394C172.74 69.8694 172.364 69.6233 172.12 68.844C171.932 68.2454 171.734 67.6858 171.497 67.107C170.903 65.6548 170.053 64.9134 168.669 64.007C168.084 63.6236 167.433 63.2258 166.925 62.7452C166.075 61.9416 165.605 60.848 164.814 60.0268C163.187 58.337 161.737 56.4889 160.086 54.7848C158.587 53.2374 156.902 51.502 155.934 49.5661C155.685 49.0664 155.384 48.3668 155.288 47.8136C155.143 46.9801 154.587 46.3335 154.587 45.4379C154.587 44.8069 157.139 45.6667 157.453 45.7495C159.769 46.359 162.248 47.2738 164.339 48.4445C165.394 49.0352 166.617 49.3124 167.696 49.8855C168.557 50.3432 167.631 50.1786 167.205 49.9556C166.457 49.5639 165.754 49.0615 164.977 48.6937C164.776 48.5985 163.117 47.9022 163.521 48.6782C164.155 49.8982 165.787 50.0201 166.738 50.8591C167.262 51.322 167.944 51.5407 168.553 51.8639C168.817 52.0045 169.018 52.2477 169.308 52.339C169.854 52.5104 170.297 52.842 170.874 53.0089C171.58 53.2132 172.192 53.3486 172.821 53.6943C173.111 53.8535 173.8 53.9232 173.935 54.1928" stroke="white" stroke-width="3" stroke-linecap="round"/>
<path d="M24.6457 12.1436C25.0889 12.1669 25.5345 12.4514 25.9007 12.6762C26.3158 12.9311 26.6435 13.0344 26.9441 13.4569C27.1985 13.8144 27.4421 14.1359 27.6373 14.5368C27.9062 15.0892 28.1047 15.676 28.3815 16.2296C28.5941 16.6548 28.8556 17.0543 29.0419 17.492C29.6715 18.9716 30.3955 20.3847 31.1506 21.8006C31.3446 22.1643 31.6584 22.4355 31.924 22.7455C32.1457 23.0041 32.2965 23.2904 32.4932 23.5627C32.6269 23.7479 32.8636 23.9045 33.0514 24.0297" stroke="white" stroke-width="5" stroke-linecap="round"/>
<path d="M33.9049 25.0151C34.1051 25.4321 34.8149 25.5842 35.2037 25.7886C35.8987 26.1539 36.5791 26.5204 37.2613 26.894C38.0491 27.3254 38.6651 28.0234 39.5525 28.2329C40.6727 28.4974 41.8924 28.1818 43.0293 28.3314C43.1617 28.3489 43.6094 28.4424 43.6021 28.4372C42.7645 27.8479 41.5628 27.7094 40.5995 27.4084C40.0818 27.2466 39.4942 26.9852 38.9396 26.9852C38.7511 26.9852 39.3114 27.0487 39.4941 27.0947C40.386 27.3189 41.2777 27.5236 42.1792 27.7076C42.9758 27.8701 43.7814 28.0117 44.5725 28.2001C44.6676 28.2227 44.853 28.2043 44.93 28.2621C45.1009 28.3902 44.5175 28.1514 44.3098 28.1016C42.9482 27.7748 41.5634 27.5926 40.1946 27.3063C39.4755 27.1558 38.8121 26.7977 38.1077 26.6569" stroke="white" stroke-width="4" stroke-linecap="round"/>
<path d="M16.8966 13.917C17.2067 13.5428 17.7434 13.2491 18.1881 13.0487C19.2412 12.574 20.3885 12.1351 21.3548 11.4909C21.9 11.1274 22.7932 10.9879 23.3979 11.2902" stroke="white" stroke-width="4" stroke-linecap="round"/>
<path d="M122.71 53.937C122.229 52.8089 122.314 52.201 122.71 51.711C123.048 51.2924 123.483 50.9059 123.795 50.4719C123.954 50.2514 123.958 50.0483 124.198 49.8997C124.712 49.5817 124.945 48.9199 125.366 48.5226C125.574 48.3261 125.747 48.3153 125.863 48.0254" stroke="white" stroke-width="2" stroke-linecap="round"/>
<path d="M89.1421 61.75C89.7189 61.8077 90.3001 62.1831 90.8704 62.3222C91.9039 62.5742 92.9156 62.8314 93.9562 63.0443C94.4668 63.1487 94.9493 63.371 95.432 63.5612C95.914 63.7511 96.4201 63.8619 96.8842 64.0939" stroke="white" stroke-width="2" stroke-linecap="round"/>
<path d="M142.626 69.4922C142.296 69.4988 142.095 69.4705 142.042 69.8315C141.934 70.5794 142.048 69.5892 142.058 69.3501" stroke="white" stroke-width="2" stroke-linecap="round"/>
<path d="M138.507 63.5967C138.698 64.1287 139.05 64.4326 139.501 64.7331" stroke="white" stroke-width="2" stroke-linecap="round"/>
<path d="M125.864 53.1558C126.332 53.936 127.557 54.1997 128.342 54.5605C128.839 54.7893 129.154 54.983 129.557 55.3576" stroke="white" stroke-width="2" stroke-linecap="round"/>
<path d="M86.0923 43.1539C85.6087 43.1539 85.1076 43.1057 84.6352 43.2227C83.7716 43.4364 82.9201 43.6344 82.0398 43.773C81.0657 43.9264 80.1688 44.2146 79.2256 44.4797C78.8699 44.5796 78.5031 44.6012 78.1437 44.6798C77.5441 44.8109 76.9424 44.9513 76.3332 45.0331C75.4661 45.1496 74.6213 45.36 73.7567 45.4897C73.283 45.5607 72.8041 45.5843 72.3277 45.6304C71.3608 45.7239 70.4036 45.8827 69.4384 45.99C68.2207 46.1253 67.0369 46.3553 65.8331 46.5559C65.2593 46.6516 64.7171 46.7723 64.1602 46.9499C63.7633 47.0765 63.3797 47.2626 62.9595 47.2626" stroke="white" stroke-width="2" stroke-linecap="round"/>
</svg>
