<svg width="206" height="106" viewBox="0 0 206 106" fill="none" xmlns="http://www.w3.org/2000/svg">
<path d="M95.7052 3.73348C94.675 3.61781 93.5894 3.67636 92.5401 3.67636C92.135 3.67636 91.7264 3.69221 91.3217 3.67319C90.9579 3.65609 90.4813 3.69065 90.1379 3.56214C89.8644 3.45976 89.4992 3.47067 89.2085 3.45109C88.8427 3.42644 88.4731 3.3908 88.1064 3.3908C87.4553 3.3908 86.7418 3.31037 86.0967 3.40349C85.3431 3.51228 84.51 3.37758 83.7794 3.56214C83.1494 3.72128 82.3651 3.64459 81.7133 3.61925C81.5846 3.61425 81.4975 3.53132 81.3742 3.51137C81.2494 3.49121 81.1224 3.5148 80.9973 3.49233C80.7109 3.44088 80.4226 3.43403 80.1338 3.3908C78.9787 3.21787 77.8278 3.21946 76.6578 3.21946C75.728 3.21946 74.8156 3.16235 73.8883 3.16235C72.7438 3.16235 71.5999 3.04812 70.4532 3.04812C69.978 3.04812 69.5028 3.04812 69.0276 3.04812C68.4676 3.04812 67.9455 2.94289 67.3759 2.9339C66.8348 2.92535 66.3036 2.81967 65.762 2.81967C65.3988 2.81967 65.0356 2.81967 64.6724 2.81967C63.8488 2.81967 63.038 2.70545 62.22 2.70545C61.5053 2.70545 60.7902 2.64834 60.0691 2.64834C59.8336 2.64834 59.5981 2.64834 59.3626 2.64834C59.2062 2.64834 58.6164 2.49151 58.5148 2.61978C58.3871 2.78105 58.3364 2.98835 58.2919 3.19091C58.2298 3.47318 58.0306 3.80431 58.0061 4.07615C57.9872 4.28702 57.8663 4.49231 57.8397 4.70757C57.7946 5.0723 57.5682 5.31929 57.397 5.6182C57.3351 5.72622 57.3155 5.85196 57.2588 5.96088C57.2003 6.07322 57.0524 6.16641 57.0453 6.30355C57.0292 6.61145 56.7466 6.81791 56.6245 7.09996C56.4868 7.41807 56.2727 7.63532 56.1535 7.97251C56.0925 8.14519 56.022 8.31428 55.9588 8.48653C55.9194 8.59404 55.8799 8.8312 55.8018 8.90218C55.6636 9.02794 55.7355 9.20622 55.6574 9.35274C55.5812 9.49571 55.4936 9.60342 55.4344 9.75887C55.3544 9.96925 55.307 10.1528 55.2052 10.3586C55.08 10.6116 54.841 10.8527 54.841 11.1581C54.841 11.4996 54.743 11.702 54.5866 11.9863C54.3266 12.4592 55.3722 12.3213 55.6071 12.3861C56.1555 12.5372 56.8279 12.586 57.397 12.586C58.8054 12.586 60.2551 12.6712 61.6548 12.5162C63.2138 12.3435 64.8103 12.5288 66.3711 12.5288C68.1213 12.5288 69.8517 12.7573 71.5961 12.7573C73.5367 12.7573 75.4772 12.7573 77.4177 12.7573C79.8903 12.7573 82.3794 12.6713 84.8502 12.7605C88.2317 12.8825 91.6013 12.7567 94.9673 13.0968C95.4233 13.1429 95.8651 13.1571 96.3269 13.1571C96.6124 13.1571 96.8356 13.256 96.8356 12.9286C96.8356 12.3858 96.553 11.8802 96.553 11.3295C96.553 11.0474 96.4581 10.7791 96.396 10.5045C96.3266 10.1975 96.3269 9.84921 96.3269 9.5336C96.3269 8.89351 96.2704 8.24318 96.2704 7.61715C96.2704 7.27467 96.1922 6.8774 96.1542 6.532C96.11 6.12952 96.0557 5.70861 96.0443 5.30725C96.03 4.79908 95.7052 4.37029 95.7052 3.8477" stroke="white" stroke-width="5" stroke-linecap="round"/>
<path d="M46.5888 22.9234C46.2061 23.7451 46.0023 24.6488 45.4867 25.4015C44.9689 26.1572 44.5724 27.005 44.1553 27.8129C43.3908 29.2935 43.0519 30.9994 42.1582 32.4041C42.0452 32.5818 42.0136 32.8082 41.8851 32.9752C41.6748 33.2484 41.5092 33.399 41.3764 33.7177C41.2859 33.9349 41.2007 34.3725 41.0216 34.5173C40.9384 34.5845 40.8237 34.7536 40.8237 34.86C40.8237 35.168 40.9515 35.0839 41.2319 35.0884C41.807 35.0976 42.3927 35.1752 42.9684 35.2058C43.5796 35.2383 44.2027 35.28 44.8116 35.3454C45.4017 35.4089 46.0082 35.4809 46.6014 35.4882C47.2757 35.4965 48.0012 35.4048 48.6675 35.5136C49.3911 35.6318 50.1267 35.6076 50.8592 35.6595C51.6645 35.7166 52.4824 35.7738 53.2896 35.7738C56.4913 35.7738 59.6891 35.7167 62.8918 35.7167C64.4499 35.7167 66.0047 35.8309 67.561 35.8309C68.2311 35.8309 68.8978 35.9378 69.5675 35.9451C70.361 35.9538 71.1791 35.9782 71.9664 36.0847C73.759 36.3272 75.5567 36.402 77.3641 36.402C78.9647 36.402 80.5653 36.5162 82.1652 36.5162C86.6831 36.5162 91.1655 36.9678 95.6799 37.0303C97.1555 37.0507 98.6211 37.2016 100.101 37.2016C100.265 37.2016 100.43 37.2016 100.594 37.2016C100.793 37.2016 100.735 37.0568 100.735 36.8875C100.735 36.5924 100.735 36.2973 100.735 36.0022C100.735 34.2995 100.227 32.7068 100.227 31.0207C100.227 30.6127 100.114 30.2067 100.114 29.7896C100.114 29.4078 100.085 28.9446 99.9723 28.5807C99.9156 28.3975 99.8435 28.0881 99.831 27.9049C99.8162 27.689 99.7284 27.4755 99.7179 27.264C99.6984 26.8691 99.6049 26.4953 99.6049 26.0932C99.6049 25.3925 99.587 24.5981 99.4385 23.9229C99.3139 23.3566 99.1527 22.7612 99.1527 22.1524C99.1527 22.0103 99.1605 21.8658 99.1527 21.724C99.1447 21.5772 98.8659 21.7215 98.8011 21.724C98.6607 21.7295 98.5408 21.7811 98.418 21.7811C98.2586 21.7811 98.1296 21.8891 97.9658 21.8954C97.826 21.9007 97.6752 21.8721 97.5419 21.9239C97.1833 22.0633 96.6031 21.9525 96.2137 21.9525C95.6246 21.9525 95.0169 21.9967 94.4301 21.9493C92.9732 21.8315 91.4896 21.8954 90.0247 21.8954C89.3369 21.8954 88.6479 21.9965 87.9617 22.0096C87.0816 22.0264 86.2072 22.0024 85.3304 22.0635C83.826 22.1684 82.3284 22.0801 80.8276 22.2507C80.2887 22.312 79.7467 22.3523 79.2042 22.3523C78.915 22.3523 78.6528 22.4592 78.3658 22.4665C78.1286 22.4726 77.8903 22.4665 77.653 22.4665C77.2919 22.4665 76.9308 22.4665 76.5697 22.4665C76.1441 22.4665 75.7331 22.3029 75.3011 22.2952C74.4079 22.279 73.513 22.2952 72.6196 22.2952C71.8977 22.2952 71.1092 22.277 70.409 22.4411C69.3944 22.6788 68.2817 22.5807 67.247 22.5807C66.7621 22.5807 66.2857 22.6378 65.8057 22.6378C65.0279 22.6378 64.2087 22.7278 63.435 22.806C62.6171 22.8886 61.7539 22.8092 60.9324 22.8092C59.2796 22.8092 57.6265 22.6378 55.9712 22.6378C54.0368 22.6378 52.0977 22.7772 50.1684 22.8092C48.9029 22.8301 47.6861 22.9234 46.4192 22.9234" stroke="white" stroke-width="5" stroke-linecap="round"/>
<path d="M66.1419 68.0762C65.3384 68.0762 64.5354 68.0637 63.7333 68.1114C63.1574 68.1456 62.576 68.1667 61.999 68.1667C61.5274 68.1667 61.0624 68.2572 60.5907 68.2572C58.9772 68.2572 57.364 68.3025 55.7486 68.3025C54.9255 68.3025 54.116 68.393 53.2927 68.393C52.593 68.393 51.8952 68.4382 51.1927 68.4382C50.2902 68.4382 49.4034 68.5288 48.4979 68.5288C47.7379 68.5288 46.9791 68.574 46.2212 68.574C44.8566 68.574 43.4997 68.755 42.138 68.755C40.8644 68.755 39.5837 68.8003 38.3062 68.8003C37.582 68.8003 36.8555 68.8456 36.129 68.8456C35.3539 68.8456 34.5755 69.0205 33.805 69.107C33.1705 69.1783 32.5011 69.2529 31.8617 69.2529C31.5327 69.2529 31.1761 69.2724 30.849 69.3082C30.6646 69.3283 30.4867 69.3376 30.3016 69.3434C30.1416 69.3484 30.0013 69.428 29.8437 69.4339C27.6177 69.5172 25.3938 69.4339 23.1679 69.4339C22.9756 69.4339 22.8199 69.4067 22.6329 69.3635C22.51 69.3351 22.1309 69.2645 22.0059 69.3006C21.8018 69.3596 21.6521 69.8285 21.5331 69.977C21.3872 70.1591 21.3345 70.4001 21.1773 70.5855C21.0945 70.6831 21.1218 70.8306 21.0404 70.9274C20.9057 71.0875 20.7844 71.2844 20.6722 71.4604C20.1496 72.2797 19.7045 73.1236 19.1096 73.8918C19.0302 73.9943 18.9256 74.0728 18.8458 74.1759C18.7386 74.3143 18.7233 74.4714 18.6567 74.6284C18.5528 74.8734 18.3898 75.1075 18.2636 75.3425C18.0466 75.7463 17.6655 76.0479 17.4126 76.4312C17.2524 76.6741 17.0372 76.8729 16.8851 77.1176C16.7865 77.2763 16.5981 77.3668 16.5616 77.5601C16.5306 77.7245 16.4317 78.0017 16.3178 78.1233C16.2266 78.2208 16.1239 78.2764 16.069 78.4049C16.0268 78.5037 15.9973 78.6129 15.9346 78.7016C15.8199 78.8639 15.6636 78.9869 15.5564 79.1642C15.4724 79.3031 15.3373 79.424 15.2852 79.5716C15.1933 79.8314 14.9859 80.0275 14.8597 80.2756C14.8155 80.3624 14.7926 80.463 14.7477 80.5446C14.664 80.6969 14.8067 80.6146 14.8796 80.6125C15.3245 80.5996 15.7674 80.6109 16.2058 80.6552C16.7707 80.7123 17.3395 80.5899 17.8953 80.7281C18.2142 80.8075 18.6087 80.7483 18.9354 80.7483C19.4065 80.7483 19.8776 80.7483 20.3487 80.7483C22.5376 80.7483 24.7099 80.6577 26.8977 80.6577C28.1302 80.6577 29.3629 80.5672 30.5952 80.5672C31.758 80.5672 32.9208 80.5672 34.0837 80.5672C35.0385 80.5672 35.9924 80.6125 36.9451 80.6125C37.9775 80.6125 38.9994 80.7543 40.0305 80.796C42.2754 80.8868 44.5098 80.8388 46.7562 80.8388C48.7111 80.8388 50.66 80.7483 52.6159 80.7483C54.228 80.7483 55.8404 80.9522 57.453 80.9745C58.136 80.984 58.8088 81.0198 59.4909 81.0198C59.6042 81.0198 59.609 80.9822 59.6576 80.884C59.6909 80.8167 59.6799 80.7434 59.7123 80.6779C59.7447 80.6125 59.8182 80.6002 59.8268 80.522C59.849 80.3196 59.9807 80.084 60.0756 79.906C60.2352 79.6064 60.4029 79.2904 60.5907 79.0058C60.6672 78.8899 60.7343 78.7743 60.8121 78.6564C60.9262 78.4835 61.0757 78.3004 61.1704 78.1233C61.3924 77.7083 61.6522 77.3646 61.8199 76.924C61.8746 76.7802 61.9817 76.6749 62.0314 76.5293C62.1005 76.3268 62.1475 76.1294 62.2553 75.9409C62.6371 75.2732 62.7363 74.5111 63.0739 73.8289C63.2536 73.4657 63.4202 73.1039 63.6238 72.7477C63.8123 72.4182 63.9407 72.049 64.1513 71.7395C64.4035 71.3689 64.6507 70.9498 64.8406 70.5503C64.9929 70.2296 65.2033 69.9391 65.3258 69.6049C65.4002 69.4017 65.4994 69.2884 65.6219 69.1171C65.7255 68.972 65.7423 68.7861 65.8533 68.6419C65.9567 68.5076 66.1372 68.3167 66.1867 68.1667" stroke="white" stroke-width="5" stroke-linecap="round"/>
<path d="M53.2881 91.7007C52.8217 91.7007 52.366 91.8323 51.9021 91.8792C51.4619 91.9237 50.9984 91.927 50.556 91.927C50.1319 91.927 49.7079 91.9722 49.2796 91.9722C49.0967 91.9722 48.9532 92.0627 48.762 92.0627C48.529 92.0627 48.2698 92.0976 48.0479 92.0175C47.5886 91.8517 46.9985 91.9095 46.5151 91.8264C46.0676 91.7494 45.5901 91.7912 45.1367 91.7912C44.0781 91.7912 43.0291 91.8817 41.9667 91.8817C39.9487 91.8817 37.9308 91.8817 35.9128 91.8817C35.2991 91.8817 34.6848 91.927 34.074 91.927C33.718 91.927 33.3726 91.9451 33.019 91.9697C32.879 91.9795 32.7322 91.9539 32.5936 91.9773C32.4683 91.9983 32.3653 92.0627 32.2352 92.0627C30.9857 92.0627 29.7332 92.108 28.4805 92.108C27.4935 92.108 26.5065 92.108 25.5195 92.108C24.3769 92.108 23.1817 92.012 22.046 92.1432C20.1865 92.3579 18.2947 92.3343 16.4226 92.3343C15.4182 92.3343 14.4169 92.3585 13.4168 92.3795C12.7723 92.3931 12.1465 92.5153 11.5009 92.5153C11.2504 92.5153 11 92.5153 10.7495 92.5153C10.4957 92.5153 10.2419 92.5153 9.98807 92.5153C9.77404 92.5153 9.36365 92.4371 9.18189 92.5706C9.05684 92.6625 8.87481 92.9463 8.85842 93.1037C8.83108 93.3661 8.49265 93.6924 8.33092 93.8982C8.23024 94.0263 8.06996 94.1139 7.98755 94.2577C7.87335 94.457 7.77952 94.678 7.64915 94.8662C7.55884 94.9965 7.5197 95.2 7.40033 95.2986C7.2429 95.4288 7.18713 95.5418 7.08681 95.7261C6.97243 95.9362 6.78109 96.1215 6.64142 96.3169C6.53059 96.472 6.41358 96.6603 6.28063 96.7947C5.9569 97.1218 5.80479 97.6127 5.54411 97.9889C5.10617 98.6211 4.78665 99.3472 4.29005 99.9375C4.1284 100.13 3.97962 100.41 3.89691 100.652C3.85282 100.78 3.7371 100.827 3.67297 100.933C3.60698 101.042 3.61109 101.181 3.56349 101.295C3.47829 101.5 3.39638 101.722 3.21265 101.861C3.14442 101.913 2.94678 102.291 3.01359 102.291C3.53662 102.291 4.12067 102.295 4.62845 102.427C4.95128 102.51 5.34157 102.495 5.67599 102.515C5.98652 102.533 6.30306 102.517 6.61405 102.517C7.43907 102.517 8.26165 102.472 9.08485 102.472C10.1632 102.472 11.2351 102.562 12.3121 102.562C12.915 102.562 13.5209 102.58 14.1235 102.56C14.7608 102.539 15.4205 102.55 16.0469 102.429C16.3606 102.369 16.6727 102.389 16.9899 102.379C17.3361 102.368 17.6759 102.303 18.02 102.271C18.7212 102.205 19.4216 102.2 20.1251 102.2C23.0895 102.2 26.0498 102.11 29.013 102.11C30.6884 102.11 32.3638 102.11 34.0392 102.11C34.6705 102.11 35.2985 102.065 35.9303 102.065C36.6332 102.065 37.335 102.073 38.0353 101.999C38.8477 101.914 39.6592 101.974 40.4713 101.904C41.1441 101.846 41.8168 101.815 42.4917 101.791C43.7299 101.746 44.9664 101.703 46.2066 101.703C46.8364 101.703 47.4622 101.657 48.0927 101.657C48.3631 101.657 48.3968 101.399 48.4983 101.177C48.6182 100.914 48.6748 100.642 48.7744 100.38C48.8159 100.271 48.9383 100.051 49.0233 99.9828C49.1837 99.8531 49.2288 99.6283 49.3666 99.485C49.6679 99.1719 50.1084 98.7676 50.2325 98.3284C50.3452 97.9299 50.8349 97.6376 50.9491 97.2221C51.0989 96.6773 51.4731 96.2373 51.7105 95.7286C51.8086 95.5185 51.8412 95.2728 51.8996 95.0497C51.978 94.7507 52.1758 94.4977 52.2779 94.21C52.3755 93.9348 52.5635 93.6954 52.661 93.4205C52.7305 93.2246 52.7845 93.0151 52.875 92.8321C53.0407 92.4974 52.966 91.9809 53.2433 91.7007" stroke="white" stroke-width="5" stroke-linecap="round"/>
<path d="M133.403 42.6167C133.375 42.8478 132.068 42.7908 131.853 42.7986C131.229 42.8211 130.561 42.9805 129.933 42.9805C129.244 42.9805 128.591 43.1624 127.893 43.1624C126.984 43.1624 126.076 43.1624 125.167 43.1624C123.434 43.1624 121.653 43.0715 119.897 43.0715C119.529 43.0715 119.163 43.1624 118.782 43.1624C118.116 43.1624 117.326 43.1202 116.681 43.2938C115.682 43.563 114.66 43.2828 113.646 43.4403C112.692 43.5887 111.694 43.5262 110.721 43.5262C109.376 43.5262 108.028 43.7081 106.675 43.7081C105.42 43.7081 104.154 43.7991 102.89 43.7991C101.976 43.7991 101.063 43.7991 100.149 43.7991C99.6333 43.7991 98.8833 43.6662 98.3892 43.8446C97.966 43.9973 97.3471 44.0633 96.899 44.072C96.4981 44.0798 95.8636 44.0656 95.4889 44.2033C94.49 44.5704 93.2479 44.4358 92.1885 44.4358C90.0866 44.4358 87.9847 44.4358 85.8828 44.4358C83.7229 44.4358 81.5709 44.3448 79.417 44.3448C78.2052 44.3448 77.0005 44.5267 75.7966 44.5267C74.1788 44.5267 72.5012 44.5992 70.8961 44.7794C69.3552 44.9524 67.7721 45.0724 66.2205 45.0724C65.6097 45.0724 64.9957 45.0519 64.3853 45.0724C64.035 45.0842 63.739 45.2544 63.3752 45.2544C63.1118 45.2544 62.8485 45.2544 62.5851 45.2544C61.1906 45.2544 59.8 45.4363 58.4146 45.4363C57.9026 45.4363 57.2243 45.4513 56.7344 45.598C56.3284 45.7195 55.8084 45.6127 55.3843 45.6889C54.6735 45.8166 53.8298 45.7091 53.104 45.7091C52.4773 45.7091 51.8506 45.7091 51.2238 45.7091C51.0043 45.7091 50.6191 45.7811 50.4137 45.6889C50.1387 45.5654 49.794 45.6182 49.4936 45.6182C48.6609 45.6182 47.8275 45.7091 47.0033 45.7091C46.2666 45.7091 45.5298 45.7091 44.7931 45.7091C41.614 45.7091 38.429 45.982 35.292 45.982" stroke="white" stroke-width="5" stroke-linecap="round"/>
<path d="M35.1675 46.1968C35.1675 46.3825 34.9993 46.496 34.8822 46.6292C34.7521 46.7771 34.6795 47.0539 34.5969 47.2418C34.4338 47.6126 34.1734 47.9254 33.9946 48.2869C33.832 48.6155 33.6308 48.9775 33.3843 49.2559C33.2467 49.4114 33.1789 49.6554 33.0673 49.8325C32.9587 50.005 32.7827 50.1212 32.6869 50.305C32.3644 50.9242 31.9442 51.4777 31.6329 52.1068C31.5897 52.1941 31.3651 52.3986 31.2802 52.4672C31.1976 52.534 31.0495 52.9208 30.9751 53.0438C30.7698 53.3833 30.4535 53.656 30.246 53.9968C30.0528 54.3139 29.7383 54.6582 29.6714 55.0298C29.6412 55.1976 29.5438 55.4788 29.4772 55.6384C29.4213 55.7726 29.4554 55.9012 29.3821 56.0308C29.2146 56.3271 29.0595 56.6357 28.9463 56.9918C28.8673 57.2401 28.7782 57.4401 28.7125 57.6925C28.6866 57.792 28.6768 57.8791 28.6768 57.9808C28.6768 58.0466 28.5516 58.1145 28.5976 58.161C28.6937 58.2581 29.4019 58.161 29.5169 58.161C30.3731 58.161 31.1758 58.376 32.0212 58.4453C33.6051 58.5751 35.189 58.5986 36.7763 58.6615C38.4149 58.7265 40.063 58.5764 41.6978 58.7216C43.3591 58.8692 45.054 58.9403 46.7223 58.9538C48.8592 58.9711 50.9979 59.0259 53.1377 59.0259C55.6159 59.0259 58.055 59.3318 60.5279 59.4583C62.6539 59.5671 64.7786 59.6746 66.9076 59.6746C68.7077 59.6746 70.5776 59.6754 72.368 59.4744C73.8203 59.3113 75.3606 59.4583 76.8219 59.4583C78.2009 59.4583 79.5799 59.4583 80.9588 59.4583C85.0255 59.4583 89.1008 59.3863 93.1714 59.3863C95.4264 59.3863 97.6829 59.3486 99.9316 59.5304C101.396 59.6488 102.828 59.8454 104.286 59.9989C105.728 60.1506 107.24 60.1641 108.689 60.1791C109.512 60.1876 110.428 60.26 111.233 60.4353C112.168 60.6391 113.112 60.6836 114.07 60.6836C115.359 60.6836 116.648 60.6836 117.937 60.6836C118.886 60.6836 119.928 60.557 120.862 60.7196C121.927 60.9053 123.051 60.7182 124.127 60.9158C124.667 61.0151 125.221 60.9098 125.752 61.044" stroke="white" stroke-width="5" stroke-linecap="round"/>
<path d="M125.395 60.9717C124.954 60.9717 124.569 61.0042 124.159 61.1318C123.971 61.1902 123.837 61.2936 123.648 61.3361C123.366 61.3992 123.074 61.4371 122.792 61.5122C122.1 61.6963 121.352 61.6919 120.656 61.8526C119.878 62.0323 119.068 62.112 118.267 62.1929C116.246 62.3971 114.273 62.8803 112.239 62.9177C110.934 62.9417 109.694 63.3941 108.416 63.5663C107.183 63.7324 105.962 63.8179 104.726 63.9427C101.947 64.2235 99.1654 64.6646 96.3654 64.7876C93.2877 64.9228 90.3114 65.6834 87.2595 66.0168C85.5174 66.2071 83.7528 66.4842 82.0289 66.8096C79.9326 67.2054 77.865 67.157 75.7482 67.2461C74.0932 67.3158 72.4451 67.4016 70.799 67.5864C70.194 67.6544 69.6429 67.6912 69.0515 67.8107C68.748 67.872 68.3837 67.8096 68.0886 67.8948C67.7701 67.9867 67.4132 68.0049 67.0821 68.091C66.8662 68.1471 67.2314 68.4491 67.2604 68.6395C67.3416 69.1727 67.4757 69.6924 67.7954 70.1411C68.2399 70.765 68.2959 71.5505 68.7266 72.1791C69.0669 72.6759 69.2407 73.3964 69.4755 73.9449C69.6643 74.3862 69.7066 74.7983 70.0104 75.2022C70.3282 75.6248 70.348 76.1803 70.6326 76.6117C71.2256 77.5106 71.4655 78.6153 71.9362 79.5667C72.0922 79.8819 72.3107 80.2154 72.3285 80.5757C72.3365 80.736 72.4101 80.8755 72.4553 81.0242C72.5017 81.1765 72.4387 81.3448 72.487 81.4967C72.5673 81.7489 72.7565 81.8905 72.7565 82.1613C72.7565 82.3487 73.379 82.4994 73.545 82.5217C75.9418 82.8446 78.3817 82.7379 80.8005 82.7379C81.8618 82.7379 82.8717 82.8861 83.923 82.9902C84.9621 83.0931 86.0234 83.115 87.0653 83.1664C89.0478 83.2641 91.0512 83.3665 93.0369 83.3866C94.0554 83.3969 95.1042 83.5752 96.1118 83.7149C97.2754 83.8763 98.4397 83.9774 99.6108 84.0713C100.836 84.1695 102.06 84.1447 103.284 84.2355C104.465 84.3231 105.644 84.4291 106.827 84.5238C108.931 84.6922 111.054 84.9001 113.167 84.9001C113.733 84.9001 114.294 84.9184 114.855 84.8441C115.216 84.7963 115.566 84.8714 115.909 84.756" stroke="white" stroke-width="5" stroke-linecap="round"/>
<path d="M147.078 18.9531C146.822 19.0987 146.658 19.482 146.452 19.6899C146.199 19.9461 145.823 19.8901 145.477 19.8901C145.038 19.8901 144.608 20.0342 144.154 20.0342C143.625 20.0342 143.117 20.1063 142.585 20.1063C142.289 20.1063 142.073 20.2505 141.784 20.2505C141.548 20.2505 141.258 20.3081 141.031 20.3786C140.569 20.5223 139.926 20.5387 139.446 20.5387C138.587 20.5387 137.741 20.6108 136.882 20.6108C135.922 20.6108 134.947 20.827 133.986 20.827C133 20.827 132.043 21.0433 131.046 21.0433C130.343 21.0433 129.63 21.2108 128.926 21.2635C127.802 21.3476 126.694 21.6057 125.577 21.6959C124.808 21.7581 123.949 21.8796 123.184 21.7079C122.6 21.5769 121.868 21.6919 121.274 21.6919C120.697 21.6919 120.003 21.7652 119.431 21.8721C118.706 22.0078 117.957 21.9872 117.232 22.1204C117.016 22.16 116.917 22.1444 116.725 22.2325C116.616 22.2827 116.507 22.2596 116.392 22.2685C116.234 22.2808 116.152 22.4127 115.98 22.4127" stroke="white" stroke-width="5" stroke-linecap="round"/>
<path d="M116.051 22.4844C116.051 23.219 115.683 23.6219 115.302 24.1781C115.197 24.3316 115.149 24.4838 115.069 24.6466C115.012 24.7601 114.885 24.7656 114.823 24.8628C114.615 25.1868 114.246 25.5359 114.129 25.9079C113.931 26.5429 113.393 27.0309 113.111 27.6016C112.926 27.9754 112.795 28.3224 112.592 28.6867C112.446 28.9481 112.324 29.3115 112.255 29.6037C112.207 29.8089 112.027 29.9589 111.95 30.1602C111.881 30.3408 111.807 30.4642 111.716 30.6287C111.522 30.9819 111.262 31.3146 111.094 31.6738C110.707 32.5001 109.87 33.1167 109.561 33.9761C109.441 34.3076 109.163 34.5451 109.045 34.865C108.905 35.2474 108.556 35.6287 108.312 35.9301C108.191 36.0803 108.13 36.2544 107.991 36.3946C107.889 36.498 107.717 36.5817 107.651 36.7149C107.503 37.0128 107.475 37.362 107.314 37.6559C107.138 37.9759 107.408 37.9802 107.639 37.9802C108.224 37.9802 108.823 37.9915 109.402 38.0683C110.05 38.1541 110.662 38.3712 111.308 38.4847C111.856 38.5809 112.402 38.6731 112.953 38.757C114.393 38.9768 115.864 39.2494 117.292 39.5698C118.016 39.7325 118.721 39.8541 119.475 39.8541C120.109 39.8541 120.731 40.0235 121.361 40.0744C121.976 40.1241 122.602 40.4162 123.224 40.5028C123.83 40.5873 124.435 40.6995 125.038 40.8071C125.581 40.9038 126.079 41.1159 126.611 41.2235C127.292 41.3612 128.08 41.4365 128.731 41.656C129.694 41.98 130.895 41.7765 131.814 42.2166C132.073 42.3405 132.375 42.3601 132.639 42.4568C132.87 42.5418 133.064 42.7371 133.312 42.7371" stroke="white" stroke-width="5" stroke-linecap="round"/>
<path d="M135.608 59.7942C135.608 59.9177 135.478 59.953 135.409 60.0431C135.343 60.129 135.329 60.2575 135.25 60.3373C135.019 60.5703 134.958 60.8291 134.824 61.1268C134.702 61.399 134.519 61.641 134.379 61.9037C134.221 62.2 134.093 62.5313 133.951 62.8466C133.795 63.1912 133.593 63.5098 133.433 63.8573C133.363 64.0091 133.252 64.1646 133.167 64.3174C133.088 64.4584 133.045 64.6253 132.941 64.7499C132.819 64.8956 132.773 65.0289 132.732 65.2151C132.693 65.3881 132.564 65.5226 132.518 65.6978C132.474 65.8621 132.357 65.9661 132.294 66.1202C132.214 66.3121 132.138 66.5518 132.015 66.7186C131.635 67.2358 131.341 67.8412 131.04 68.4132C130.678 69.0975 130.285 69.7454 129.93 70.4297C129.754 70.7687 129.588 71.1699 129.372 71.4857C129.112 71.8685 128.904 72.2698 128.646 72.6498C128.545 72.7981 128.527 72.9794 128.422 73.1351C128.344 73.2509 128.272 73.3698 128.198 73.4871C128.097 73.6473 128.084 73.9142 127.924 74.0151C127.826 74.0769 127.688 74.3804 127.646 74.4928C127.568 74.6967 127.437 74.8564 127.3 75.0259C127.25 75.0874 127.249 75.1604 127.213 75.227C127.15 75.3408 127.019 75.3857 126.964 75.5086C126.879 75.6974 126.794 75.8885 126.72 76.0819C126.659 76.2404 126.548 76.3079 126.506 76.4841C126.464 76.6642 126.299 76.8902 126.192 77.0373C126.011 77.288 125.942 77.6764 125.735 77.8972C125.542 78.1022 125.457 78.3211 125.304 78.5534C125.178 78.7453 125.077 78.9255 125.018 79.1619C124.981 79.3107 125.654 79.4027 125.745 79.4359C125.918 79.4996 126.11 79.5036 126.29 79.5491C126.499 79.602 126.698 79.6953 126.909 79.7427C127.11 79.7877 127.302 79.8582 127.501 79.9086C127.769 79.9763 128.063 80.0686 128.33 80.1123C129.504 80.3047 130.682 80.4402 131.856 80.6227C132.453 80.7155 133.04 80.7937 133.647 80.7937C133.989 80.7937 134.327 80.8389 134.667 80.8389C135.037 80.8389 135.417 80.8127 135.785 80.8615C137.012 81.0247 138.286 80.8155 139.485 80.5649C140.564 80.3391 141.629 80.0847 142.65 79.6522C143.198 79.4197 143.741 79.181 144.287 78.9482C144.523 78.8476 144.725 78.6778 144.969 78.5987C145.197 78.5244 145.481 78.4508 145.685 78.3246C146.2 78.0068 146.766 77.7765 147.23 77.3767C147.564 77.0894 147.967 76.8584 148.273 76.5495C148.986 75.8295 149.961 75.2325 150.458 74.3193C150.837 73.6214 151.334 73.0179 151.562 72.24C151.62 72.0432 151.728 71.8522 151.796 71.6542C151.859 71.4729 151.89 71.2798 151.956 71.0985C152.098 70.7029 152.29 70.2543 152.359 69.8389C152.489 69.0496 152.717 68.3061 152.717 67.498C152.717 66.7669 152.474 66.0768 152.247 65.3885C152.176 65.1755 151.931 64.7174 151.751 64.5689C151.647 64.4826 151.537 64.4004 151.428 64.32C151.359 64.2691 151.35 64.2023 151.319 64.1289C151.277 64.0306 151.176 63.9847 151.105 63.9126C150.874 63.6793 150.666 63.4241 150.433 63.1885C150.211 62.9647 150.032 62.7301 149.783 62.5348C149.601 62.3915 149.469 62.2504 149.246 62.125C148.982 61.977 148.754 61.8105 148.472 61.695C148.168 61.5708 147.866 61.4272 147.556 61.3229C147.365 61.2584 147.205 61.1007 147.034 60.9986C146.838 60.8817 146.613 60.8074 146.402 60.7245C146.031 60.579 145.659 60.5026 145.262 60.4706C144.804 60.4335 144.383 60.2771 143.924 60.2116C143.538 60.1567 143.163 59.9842 142.764 59.9753C142.171 59.9619 141.547 59.9423 140.96 59.8621C140.386 59.7837 139.827 59.6505 139.256 59.6107C138.665 59.5695 138.083 59.5227 137.489 59.5227C136.729 59.5227 135.885 59.4484 135.25 59.93" stroke="white" stroke-width="5" stroke-linecap="round"/>
<path d="M156.794 22.6831C156.554 22.9551 156.279 23.2466 156.211 23.6335C156.199 23.7066 156.128 23.7073 156.122 23.8145C156.116 23.9133 156.056 24.0137 156.035 24.1087C155.991 24.3066 155.908 24.538 155.818 24.7197C155.6 25.1605 155.326 25.6173 155.171 26.0875C155.009 26.5797 154.759 27.005 154.574 27.4854C154.464 27.7714 154.306 28.0446 154.151 28.3051C153.958 28.6308 153.73 29.0004 153.591 29.3586C153.46 29.6985 153.183 30.0479 152.997 30.3668C152.786 30.727 152.488 31.1225 152.36 31.5184C152.28 31.7637 152.081 31.9349 151.967 32.167C151.876 32.3507 151.812 32.5728 151.685 32.7328C151.554 32.8984 151.473 33.0537 151.397 33.2507C151.317 33.4559 151.187 33.6253 151.106 33.8265C150.826 34.5175 150.392 35.1391 150.145 35.8505C149.99 36.2994 149.782 36.7142 149.593 37.1554C149.501 37.3697 149.388 37.5779 149.314 37.7991C149.281 37.8962 149.237 38.1873 149.157 38.2516C149.07 38.3225 149.079 38.4803 149.001 38.571C148.872 38.7198 148.848 38.8938 148.767 39.0663C148.665 39.2839 148.564 39.488 148.453 39.6999C148.295 40.0031 148.401 39.984 148.66 40.0846C148.911 40.1821 149.149 40.2687 149.414 40.3234C150.134 40.4723 150.851 40.5245 151.556 40.7383C151.734 40.7923 151.932 40.8189 152.116 40.8338C152.349 40.8527 152.57 40.9551 152.808 40.9671C153.251 40.9895 153.693 41.1934 154.126 41.1934C154.616 41.1934 155.103 41.2839 155.594 41.2839C156.001 41.2839 156.407 41.2912 156.814 41.2839C157.588 41.2699 158.28 40.8694 159.033 40.8313C159.307 40.8175 159.63 40.7194 159.884 40.6277C160.194 40.5156 160.564 40.5187 160.869 40.3989C161.564 40.126 162.334 40.0649 162.974 39.6823C163.152 39.5762 163.367 39.5361 163.554 39.451C163.747 39.3631 163.924 39.2244 164.104 39.1115C164.398 38.927 164.723 38.7486 165.035 38.5911C165.409 38.4017 165.717 38.0614 166.1 37.8896C166.261 37.8169 166.442 37.7579 166.592 37.6633C166.769 37.5524 166.876 37.3774 167.048 37.256C167.334 37.0534 167.587 36.6767 167.787 36.386C167.996 36.0804 168.279 35.8523 168.483 35.5463C168.655 35.2901 168.838 35.0559 168.986 34.7869C169.045 34.6791 169.161 34.6256 169.217 34.5154C169.277 34.3996 169.304 34.2848 169.379 34.176C169.633 33.809 169.728 33.4208 169.926 33.0269C170.131 32.6211 170.277 32.1893 170.322 31.7321C170.355 31.4027 170.454 31.0696 170.454 30.7389C170.454 30.1101 170.659 29.4909 170.546 28.8633C170.506 28.6421 170.425 28.4776 170.33 28.295C170.232 28.1083 170.235 27.8678 170.076 27.7067C169.786 27.4136 169.752 26.8952 169.469 26.5752C169.319 26.4057 169.135 26.2742 169.001 26.1C168.844 25.8964 168.736 25.6989 168.551 25.5117C168.353 25.3118 168.114 25.1202 167.946 24.8907C167.737 24.6056 167.327 24.5184 167.048 24.335C166.453 23.9444 165.81 23.8329 165.159 23.5883C164.749 23.4339 164.307 23.3394 163.87 23.2715C163.46 23.2077 163.016 23.2108 162.616 23.1256C161.935 22.9808 161.262 22.7736 160.558 22.7736C159.202 22.7736 157.834 22.6831 156.48 22.6831" stroke="white" stroke-width="5" stroke-linecap="round"/>
<path d="M115.837 84.9004C113.875 84.9004 111.912 84.9004 109.949 84.9004C109.14 84.9004 108.183 84.9399 107.405 85.1727C106.67 85.3928 105.875 85.3917 105.123 85.533C104.286 85.6903 103.392 85.4868 102.555 85.6371C101.991 85.7384 101.361 85.7653 100.788 85.7653C100.173 85.7653 99.5648 85.9677 98.949 85.9815C97.1868 86.0211 95.4497 86.4139 93.6827 86.4139C92.3996 86.4139 91.079 86.517 89.8034 86.6342C89.2383 86.6861 88.5632 86.6001 88.0163 86.7383C87.7734 86.7996 87.5301 86.7316 87.303 86.8464C87.0729 86.9627 86.7421 86.9705 86.4867 87.0266C85.4302 87.2587 84.3367 87.1822 83.2771 87.3469C82.637 87.4464 81.9548 87.3871 81.3235 87.5031C81.0237 87.5581 80.8225 87.6392 80.4953 87.6392C80.0731 87.6392 79.6664 87.7755 79.2471 87.7833C78.0324 87.8061 76.8237 87.9996 75.6095 87.9996C75.3049 87.9996 73.2592 88.1442 73.2557 88.2318C73.2415 88.592 73.2561 88.9459 73.3429 89.2969C73.4295 89.6468 73.7454 89.997 73.755 90.338C73.7681 90.8012 73.8141 91.3274 73.9135 91.7794C74.041 92.3591 74.1747 92.7603 74.4287 93.297C74.8498 94.1868 75.0593 95.1298 75.3559 96.0718C75.4602 96.403 75.4727 97.0522 75.7482 97.261C76.0129 97.4617 76.0234 98.2484 76.1444 98.5664C76.4394 99.3413 76.8336 100.185 76.9647 101.013C77.0267 101.405 77.2647 101.611 77.3253 101.978C77.3993 102.427 78.5563 102.198 78.8905 102.198C80.1136 102.198 81.3367 102.198 82.5598 102.198C83.161 102.198 83.7538 102.126 84.3469 102.126C84.9217 102.126 85.6585 102.159 86.2014 101.982C86.9213 101.747 87.9113 101.91 88.6661 101.91C89.1852 101.91 89.7043 101.91 90.2234 101.91C90.8461 101.91 91.4528 102.054 92.0819 102.054C94.2965 102.054 96.5013 102.324 98.7192 102.142C99.6058 102.069 100.484 101.91 101.374 101.91C101.891 101.91 102.398 101.918 102.912 101.854C104.057 101.711 105.292 101.838 106.446 101.838C109.225 101.838 112.004 101.838 114.783 101.838C117.446 101.838 120.11 101.861 122.772 101.838C126.069 101.809 129.37 101.504 132.666 101.409C133.119 101.396 133.573 101.421 134.026 101.389C134.459 101.358 134.877 101.227 135.309 101.197C136.048 101.146 136.785 101.182 137.525 101.117C138.873 100.998 140.264 100.973 141.618 100.973C143.432 100.973 145.266 100.897 147.078 100.977C148.366 101.033 149.608 101.229 150.859 101.409C151.23 101.463 151.586 101.477 151.968 101.477C152.304 101.477 152.6 101.333 152.927 101.333" stroke="white" stroke-width="5" stroke-linecap="round"/>
<path d="M176.182 52.1787C176.313 52.4033 176.663 52.5928 176.86 52.7913C177.088 53.0218 177.399 53.1619 177.648 53.3679C178.089 53.7323 178.684 53.984 179.079 54.413C179.222 54.5691 179.43 54.6679 179.59 54.8294C179.725 54.9661 179.959 54.9894 180.069 55.1377C180.269 55.4066 180.61 55.5838 180.783 55.8545C181.152 56.4352 181.779 56.7637 182.177 57.2999C182.537 57.7846 183.155 58.1836 183.39 58.7374C183.509 59.0178 183.786 59.2633 183.921 59.5623C183.995 59.7269 184.121 59.8193 184.226 59.9627C184.35 60.1309 184.379 60.3344 184.488 60.5072C184.653 60.7705 184.701 61.1537 184.816 61.4442C184.978 61.8526 185.157 62.3081 185.351 62.7015C185.711 63.4288 186.086 64.3701 186.172 65.188C186.215 65.6061 186.453 65.9397 186.453 66.3772C186.453 66.8426 186.524 67.3107 186.524 67.7827C186.524 68.5394 186.524 69.2962 186.524 70.053C186.524 70.7156 186.464 71.501 186.247 72.1031C186.194 72.2491 186.279 72.4275 186.223 72.5756C186.177 72.6987 186.096 72.8383 186.096 72.972C186.096 73.2539 185.954 73.498 185.954 73.7688C185.954 74.0222 185.811 74.247 185.811 74.4895C185.811 74.7657 185.752 75.1835 185.597 75.4185C185.268 75.9177 185.246 76.6262 184.88 77.1202C184.699 77.3644 184.545 77.7958 184.456 78.0892C184.328 78.5087 184.059 78.8322 183.854 79.2104C183.422 80.0032 183.147 80.957 182.53 81.6248C182.41 81.7544 182.305 81.9384 182.209 82.0893C182.11 82.2451 181.939 82.2906 181.872 82.4657C181.755 82.7726 181.346 83.0772 181.159 83.3706C180.893 83.7883 180.563 84.1628 180.232 84.5238C179.937 84.845 179.59 85.2953 179.233 85.5488C178.922 85.7699 178.819 86.1475 178.52 86.3416C178.179 86.5629 177.899 86.8561 177.609 87.1345C176.958 87.757 176.288 88.3055 175.572 88.8482C175.18 89.1448 174.763 89.4651 174.454 89.8412C174.261 90.0773 173.981 90.2215 173.797 90.4819C173.657 90.6794 173.487 90.6675 173.329 90.8102C172.672 91.4045 171.838 91.8282 171.118 92.3398C170.706 92.6322 170.287 93.0262 169.794 93.1726C169.637 93.2192 169.666 93.4082 169.513 93.4769C169.394 93.5304 169.248 93.6222 169.137 93.6932C168.57 94.0539 168.16 94.6669 167.552 94.9745C166.961 95.273 166.455 95.7019 165.895 96.0716C165.642 96.2389 165.398 96.4547 165.126 96.5921C164.965 96.6736 164.804 96.7133 164.663 96.8244C164.531 96.9282 164.438 97.087 164.271 97.1367C163.654 97.3199 163.076 97.792 162.487 98.0736C161.761 98.4215 161.059 98.6895 160.292 98.9385C159.349 99.2448 158.305 99.5181 157.423 99.9636C156.573 100.393 155.451 100.272 154.57 100.628C153.918 100.892 153.09 100.764 152.43 101.061C152.014 101.248 151.541 101.477 151.075 101.477" stroke="white" stroke-width="5" stroke-linecap="round"/>
<path d="M190.946 4.82666C191.072 4.84256 191.319 5.03873 191.445 5.09894C191.677 5.20992 191.912 5.22598 192.159 5.29514C192.469 5.38217 192.67 5.50837 193.01 5.5514C193.328 5.59145 193.65 5.72327 193.958 5.81968C194.648 6.03607 195.497 6.05579 196.113 6.45232C196.621 6.77913 197.187 6.98813 197.579 7.5094C197.73 7.71016 198.034 7.81893 198.221 7.9979C198.428 8.1948 198.605 8.36788 198.76 8.61453C198.921 8.86914 199.246 9.06538 199.362 9.33127C199.464 9.56219 199.595 9.78447 199.703 10.016C199.776 10.1713 199.929 10.2565 200.004 10.4084C200.083 10.5668 200.109 10.767 200.163 10.9369C200.253 11.2206 200.292 11.5147 200.397 11.7898C200.649 12.453 200.775 13.1905 201.058 13.8359C201.178 14.1087 201.137 14.3153 201.328 14.5566C201.441 14.7 201.464 15.1265 201.538 15.3214C201.77 15.9317 201.945 16.5698 202.128 17.1673C202.346 17.8772 202.367 18.6225 202.497 19.3455C202.582 19.8174 202.643 20.4193 202.643 20.8991C202.643 21.5103 202.857 22.0674 202.857 22.7009C202.857 23.2802 203 23.8553 203 24.4307C203 24.8992 203 25.3677 203 25.8361C203 26.529 202.572 27.1664 202.572 27.8582C202.572 28.3595 202.42 28.9987 202.251 29.4759C202.185 29.6624 202.141 30.0339 202.002 30.1606C201.834 30.3127 201.653 30.8349 201.645 31.0455C201.637 31.261 201.503 31.5173 201.415 31.7262C201.335 31.9183 201.169 32.09 201.074 32.2867C200.978 32.4874 200.935 32.6877 200.86 32.8954C200.742 33.2236 200.562 33.4359 200.397 33.7322C200.199 34.0881 200.084 34.4264 199.822 34.7372C199.617 34.9815 199.423 35.5003 199.291 35.8023C199.135 36.1601 198.791 36.4738 198.582 36.7913C198.164 37.4247 197.586 37.9571 197.048 38.4851C196.318 39.203 195.708 40.1014 194.901 40.7234C194.181 41.2776 193.488 41.8529 192.769 42.3931C191.312 43.4865 189.791 44.5279 188.489 45.8046C188.268 46.0216 187.895 46.193 187.625 46.3411C187.479 46.4214 187.383 46.5632 187.237 46.6454C187.086 46.7304 186.903 46.7717 186.769 46.8817C186.468 47.131 185.986 47.3836 185.628 47.5383C185.436 47.6215 185.245 47.7778 185.097 47.9267C184.951 48.0744 184.755 48.1028 184.582 48.215C184.225 48.4471 183.854 48.6253 183.496 48.8637C183.19 49.0679 182.726 49.1315 182.458 49.3722C181.591 50.1509 180.372 50.4242 179.352 50.9538C179.047 51.112 178.731 51.1979 178.408 51.2982C178.157 51.3764 177.797 51.3617 177.58 51.5304C177.304 51.7452 176.628 51.7101 176.467 52.0349" stroke="white" stroke-width="5" stroke-linecap="round"/>
<path d="M119.047 15.6377C119.303 15.8675 119.977 15.9001 120.291 15.922C120.681 15.9492 121.081 15.926 121.472 15.926C122.322 15.926 123.332 15.944 124.127 16.2543C124.571 16.4278 125.158 16.463 125.629 16.5026C126.412 16.5686 127.276 16.6046 128.05 16.7348C129.38 16.9589 130.72 17.0356 132.06 17.2073C133.698 17.4171 135.341 17.5354 136.966 17.7438C138.376 17.9248 139.864 18.0078 141.229 18.4165C141.771 18.5786 142.412 18.5741 142.973 18.6648C143.502 18.7503 144.06 18.881 144.597 18.881C145.316 18.881 146.028 19.0252 146.721 19.0252" stroke="white" stroke-width="5" stroke-linecap="round"/>
<path d="M123.755 4.39404C123.755 4.49349 123.723 4.8131 123.668 4.88254C123.602 4.96485 123.478 5.17265 123.454 5.27494C123.333 5.78853 123.104 6.27819 122.986 6.78849C122.916 7.09244 122.722 7.2328 122.614 7.50923C122.477 7.85793 122.43 8.23438 122.257 8.57432C121.995 9.09041 121.876 9.63471 121.647 10.1639C121.495 10.5152 121.241 10.8597 121.187 11.241C121.147 11.5239 120.989 11.9225 120.862 12.178C120.728 12.4499 120.517 12.7043 120.367 12.9748C120.238 13.2063 120.217 13.5177 120.074 13.7276C119.848 14.0571 119.781 14.4134 119.654 14.7727C119.604 14.9122 119.597 15.1238 119.507 15.2411C119.394 15.3877 119.19 15.6739 119.19 15.8538" stroke="white" stroke-width="5" stroke-linecap="round"/>
<path d="M123.469 4.39415C124.459 4.39415 125.442 4.38275 126.425 4.46222C127.398 4.54082 128.35 4.69736 129.318 4.75852C130.504 4.83342 131.689 4.82659 132.88 4.82659C134.302 4.82659 135.699 4.61037 137.116 4.61037C140.365 4.61037 143.613 4.53829 146.864 4.53829C148.455 4.53829 150.042 4.46622 151.635 4.46622C153.122 4.46622 154.615 4.25 156.105 4.25C158.971 4.25 161.831 4.32207 164.696 4.32207C166.728 4.32207 168.744 4.55908 170.774 4.61037C171.919 4.63928 173.088 4.90834 174.238 4.72248C175.104 4.58246 175.967 4.60801 176.837 4.52228C178.295 4.37857 179.795 4.46622 181.259 4.46622C182.672 4.46622 184.071 4.32207 185.483 4.32207C186.712 4.32207 188.079 4.1562 189.287 4.37813C189.574 4.43072 189.911 4.43592 190.183 4.53829C190.406 4.62231 190.557 4.75452 190.801 4.75452" stroke="white" stroke-width="5" stroke-linecap="round"/>
</svg>
