<svg width="206" height="105" viewBox="0 0 206 105" fill="none" xmlns="http://www.w3.org/2000/svg">
<path d="M104.232 18.2883C103.958 17.9847 103.753 17.6318 103.521 17.2942C103.083 16.6551 102.564 16.1143 102.029 15.563C101.235 14.7442 100.464 13.9266 99.5525 13.2421C98.4103 12.3842 97.3169 11.4674 96.1847 10.5969C94.7616 9.50273 93.6245 8.07895 92.3918 6.77228C91.7755 6.11902 91.1335 5.49809 90.4177 4.96106C89.8402 4.52783 89.2382 4.18555 88.7051 3.68899C87.8747 2.91546 87.1287 2.15799 85.9953 1.95359C85.1165 1.79509 84.2103 2.53444 83.4449 2.90132C82.47 3.36865 81.5715 3.91736 80.6411 4.47666C79.9392 4.89863 79.3801 5.51839 78.6875 5.9467C78.3022 6.18489 77.9979 6.53903 77.633 6.81019C77.1611 7.16076 76.7105 7.56204 76.276 7.9601C75.5513 8.62402 74.7578 9.38098 74.3632 10.3105C74.0605 11.0236 73.792 11.7542 73.4967 12.4755C73.2633 13.0458 73.0473 13.8361 73.039 14.4552C73.0306 15.0757 73.1861 15.6636 73.1861 16.2833C73.1861 16.6605 73.1125 17.0238 73.1125 17.3953C73.1125 17.6877 73.1015 17.9787 73.1575 18.2672C73.202 18.4965 73.4725 19.0464 73.1861 19.0464" stroke="#F2F2F2" stroke-width="3" stroke-linecap="round"/>
<path d="M98.9356 18.0606C96.8791 15.9412 94.1031 15.3237 91.4316 14.4213C90.4587 14.0927 89.553 13.7543 88.5378 13.5873C87.7076 13.4507 86.9003 13.4356 86.061 13.4356C83.8412 13.4356 81.2761 13.2003 79.2926 14.4718C77.7474 15.4624 76.577 16.9788 75.2381 18.2206C74.6321 18.7827 73.9641 19.2748 73.3376 19.8128C72.6602 20.3946 72.1301 21.1815 71.576 21.881C70.455 23.2962 69.5634 24.9284 68.388 26.2911C67.2776 27.5784 66.0143 28.5718 64.7422 29.6776C63.2305 30.9917 61.4857 31.6456 59.7477 32.5545C58.4901 33.2122 57.4529 34.1658 56.1101 34.669C55.4753 34.9069 54.8171 35.1485 54.1687 35.3429C53.3659 35.5836 52.5459 35.5648 51.7205 35.6336C51.0026 35.6934 50.2395 35.6829 49.5216 35.6336C48.4691 35.5613 47.3972 35.5429 46.3499 35.423C45.5124 35.3271 44.6956 35.1523 43.8731 34.9681C43.4668 34.877 43.1259 34.7061 42.7573 34.5132C42.192 34.2172 41.5879 34.0169 41.008 33.755C40.1741 33.3783 39.3959 32.9701 38.6823 32.3818C38.0356 31.8486 37.626 31.1246 37.1783 30.4232C36.8067 29.8412 36.6931 29.1499 36.4344 28.5151C36.0406 27.5488 35.8913 26.4808 35.6987 25.4571C35.2426 23.0325 34.8859 20.5722 33.9044 18.2964C33.1562 16.5614 31.281 15.3409 29.4126 15.866C28.8241 16.0314 28.2912 16.1988 27.7246 16.422C27.3136 16.584 26.8235 16.7976 26.3881 16.8475C25.8151 16.9131 25.2396 17.0922 24.6674 17.1929C23.9876 17.3125 23.3098 17.4179 22.6279 17.5298C21.3176 17.7449 20.064 18.6443 19.072 19.518C18.7163 19.8312 18.4197 20.2759 18.3036 20.7479C18.2392 21.0097 18.2519 21.284 18.1851 21.544C18.1174 21.8075 17.9713 22.0414 17.899 22.3064C17.6545 23.2024 17.7349 24.0561 17.6374 24.96C17.5786 25.5053 17.2743 25.9684 17.1837 26.4932C17.0221 27.4305 17.2247 27.6468 17.8949 28.2371C18.2815 28.5776 18.556 28.9804 18.8922 29.3575C19.1392 29.6345 19.1939 29.9718 19.3867 30.2757C19.5411 30.5191 19.8511 31.0294 20.102 31.1771C20.3546 31.3259 20.9099 31.4019 21.1647 31.2403C21.6186 30.9524 21.9862 30.3298 22.2028 29.8461C22.4953 29.193 22.9632 28.6791 23.3472 28.0854C23.513 27.8292 23.6259 27.5206 23.8254 27.2893C23.9805 27.1096 24.2444 27.0336 24.4426 26.9145C24.9362 26.6177 25.4911 26.5203 26.0448 26.4006C27.2973 26.1297 28.8382 26.1502 30.1115 26.2574C30.4505 26.2859 30.7675 26.4205 31.1047 26.4596C31.3399 26.4868 31.576 26.4609 31.8077 26.5185C32.1395 26.6011 32.4667 26.6525 32.7968 26.7376C33.3457 26.879 33.9416 27.0466 34.4889 27.2346" stroke="#F2F2F2" stroke-width="3" stroke-linecap="round"/>
<path d="M34.0475 17.9849C34.7022 18.0462 35.1807 18.8708 35.5557 19.3412C35.832 19.6879 36.1424 19.9236 36.3281 20.3521C36.5724 20.9155 36.7871 21.4278 36.9739 22.0201C37.3554 23.2299 37.8822 24.3947 38.384 25.5583C38.8911 26.7342 39.2477 27.9027 40.0148 28.9448C40.3609 29.415 40.8676 29.7901 41.2736 30.2085C41.8402 30.7924 42.4312 31.324 43.0393 31.8596C44.0343 32.7362 45.076 33.5907 46.3703 33.9446C47.0912 34.1417 47.8171 34.4317 48.5406 34.5891C49.3613 34.7676 50.2161 34.8074 51.042 34.9682C52.1167 35.1774 53.2666 35.3473 54.3526 35.3473" stroke="#F2F2F2" stroke-width="3" stroke-linecap="round"/>
<path d="M15.715 27.1128C15.715 28.3161 15.16 29.2894 14.6061 30.3041C14.197 31.0537 14.1067 31.909 13.7601 32.6828C13.1007 34.1551 12.8972 36.0253 12.0844 37.3556C11.7097 37.969 11.8709 38.9244 11.8709 39.6158C11.8709 40.7007 12.1573 41.3647 12.6101 42.35C12.8381 42.846 12.9784 43.3755 13.2015 43.8737C13.4771 44.489 13.9118 45.0123 14.1544 45.626C14.4239 46.3078 14.7738 46.8897 15.1236 47.5307C15.5525 48.3165 15.9316 49.4192 16.4871 50.0871C17.2893 51.0516 17.7423 52.3114 18.5324 53.3293C19.2485 54.2517 19.8694 55.2573 20.5942 56.182C21.3045 57.0884 22.5036 57.8063 23.4198 58.493C23.9738 58.9082 24.7818 59.1137 25.3993 59.4242C26.4238 59.9392 27.3886 60.3846 28.5125 60.6347C31.5146 61.3027 34.4711 62.1584 37.5643 62.1584C40.1517 62.1584 42.7847 62.2442 45.343 61.8536C48.1138 61.4306 50.8829 61.0497 53.6473 60.5585C55.392 60.2485 57.5631 60.3499 59.3396 60.4908C59.9429 60.5386 60.5959 60.8377 61.1714 61.0241C61.8655 61.2489 62.8068 61.5349 63.4384 61.8875C64.8756 62.6898 66.5392 63.3481 67.8411 64.3678C68.2575 64.6939 68.8393 65.0557 69.3197 65.2736C70.0906 65.6231 70.702 66.1836 71.4553 66.5772C73.2456 67.5127 74.9816 68.5466 76.778 69.4723C77.5603 69.8754 78.3457 70.2888 79.1354 70.6743C80.034 71.113 81.0509 71.3138 81.92 71.8256C83.2989 72.6376 84.6221 73.5328 86.0927 74.1958C88.0307 75.0696 89.7365 76.657 91.4893 77.8612C92.3813 78.474 93.1854 78.582 94.2985 78.7585C95.9387 79.0185 97.529 79.4842 99.1365 79.7997C102.623 80.484 106.116 81.7405 109.305 83.2196C110.248 83.6568 119.325 85.0504 119.359 84.4047C119.405 83.5585 118.128 82.6922 117.503 82.28C116.291 81.4805 115.012 80.8064 113.807 79.9859C112.695 79.2291 111.473 78.4789 110.488 77.5564C109.159 76.311 107.491 75.6975 106.02 74.6868C105.207 74.1286 104.223 73.7583 103.359 73.2816C101.982 72.5224 100.549 71.7551 99.1037 71.1483C97.2025 70.3501 95.6068 68.935 93.7481 68.067C92.8619 67.6532 92.3207 67.0211 91.5632 66.4248C90.7618 65.7939 89.9065 65.2368 89.1236 64.5794C88.4224 63.9905 87.8916 63.2052 87.1605 62.6494C86.4692 62.1238 85.6972 61.7343 84.9838 61.2442C81.3968 58.7797 77.278 57.2728 73.3774 55.4455C71.6583 54.6403 69.951 53.9072 68.2683 53.0161C66.8413 52.2603 65.2139 51.4642 63.9148 50.5019C61.6971 48.8592 58.3795 48.5677 55.7008 48.7581C54.9798 48.8094 54.3336 49.0869 53.6309 49.1983C52.5279 49.3732 51.4526 49.4416 50.3453 49.5454C47.6858 49.7945 45.0451 50.4023 42.4024 50.7135C40.1941 50.9736 37.7765 50.7646 35.5601 50.7305C33.9696 50.706 32.1962 50.4004 30.7302 49.7231C27.5748 48.2654 24.8819 44.7966 23.4033 41.6643C22.117 38.9394 21.1188 36.1984 20.5942 33.2246C20.1327 30.6089 18.0258 29.0211 16.1586 27.4175" stroke="#F2F2F2" stroke-width="5" stroke-linecap="round"/>
<path d="M128.823 49.2065C127.698 48.8975 126.61 48.6873 125.447 48.7578C124.645 48.8064 123.846 49.333 123.138 49.6974C122.311 50.1239 121.651 50.824 121.003 51.492C120.461 52.0503 119.863 52.855 119.73 53.6253C119.471 55.1194 119.308 56.564 118.949 58.044C118.557 59.6602 118.206 60.837 119.212 62.3189C120.475 64.1784 121.724 65.9682 122.974 67.8297C123.87 69.1639 125.05 70.2583 126.555 70.7756C127.198 70.9964 127.816 71.2583 128.445 71.5121C128.789 71.6509 129.268 71.5653 129.562 71.8253C130.057 72.2631 130.667 72.2438 131.295 72.3755C132.352 72.597 133.401 72.7565 134.474 72.858C138.603 73.2488 142.82 73.2949 146.967 73.1204C148.744 73.0457 150.559 72.9129 152.298 72.5194C153.762 72.1881 155.324 72.2011 156.701 71.529C157.123 71.3228 157.591 71.2448 158.023 71.0634C158.642 70.8038 159.115 70.2734 159.691 69.9291C160.499 69.4455 161.146 68.9202 161.909 68.4054C162.811 67.7958 163.864 66.6162 163.864 65.4341C163.864 64.0145 163.227 63.2024 161.925 62.6152C160.636 62.0341 159.143 61.9121 157.892 61.2439C157.18 60.8635 156.462 60.5894 155.699 60.3296C154.84 60.0373 154.18 59.4919 153.366 59.1191C151.681 58.3475 150.137 57.3346 148.438 56.5542C147.14 55.9584 145.723 55.1936 144.363 54.8104C142.607 54.3151 140.921 53.5956 139.189 53.0242C137.564 52.4886 135.899 52.0916 134.277 51.5598C132.873 51.0995 131.488 50.5154 130.071 50.1207C129.072 49.8423 128.091 49.3588 127.048 49.3588" stroke="#F2F2F2" stroke-width="3" stroke-linecap="round"/>
<path d="M157.506 51.035C156.818 50.7202 152.529 50.5711 153.883 52.2455C155.647 54.4269 158.601 55.2001 160.791 56.8251C161.58 57.4103 162.633 57.5962 163.502 58.0441C164.656 58.6386 165.85 59.0696 167.017 59.6271C168.159 60.1724 169.533 60.0665 170.747 60.3297C171.908 60.5818 173.183 60.6765 174.369 60.7783C176.043 60.9221 178.086 61.0356 179.741 60.6344C181.503 60.2071 183.252 60.294 184.99 59.7287C185.669 59.5076 189.61 58.349 188.587 57.4007C188.319 57.1517 187.895 57.3458 187.552 57.2484C186.86 57.0514 186.138 57.2331 185.441 57.0537C183.861 56.6465 182.195 56.3386 180.579 55.9955C178.81 55.6203 176.929 55.2119 175.149 54.9628C172.86 54.6425 170.257 54.2886 168.069 53.5068C166.154 52.8227 164.165 52.2948 162.237 51.6445C160.748 51.1422 159.074 50.8826 157.506 50.8826" stroke="#F2F2F2" stroke-width="3" stroke-linecap="round"/>
<path d="M152.331 51.7969C150.765 51.7969 149.261 52.1559 147.739 52.4826C146.029 52.8497 144.242 52.7112 142.507 52.7112C141.062 52.7112 139.756 52.4514 138.416 51.9493C136.709 51.3095 134.93 50.891 133.192 50.3494C132.191 50.0374 131.192 49.8004 130.186 49.5113C129.14 49.2111 128.148 48.7497 127.081 48.5633C126.352 48.436 125.659 48.0273 124.937 47.8522C124.557 47.7599 124.279 47.3781 123.877 47.3781C122.876 47.3781 121.625 46.8581 120.657 47.412C119.936 47.8253 118.972 48.1977 118.505 48.9357C118.147 49.5035 117.683 50.1768 117.224 50.6626C114.897 53.127 114.061 57.7808 115.072 61.0916C116.33 65.2111 118.151 69.2918 120.37 72.9513C122.246 76.0441 124.688 79.0181 127.278 81.5095C127.548 81.7695 127.91 81.8815 128.198 82.119C128.561 82.4181 128.784 82.7948 129.2 83.0332C129.685 83.3111 130.018 83.5428 130.564 83.6766C130.982 83.7793 131.289 84.2116 131.697 84.4046C132.304 84.6919 132.905 84.7093 133.553 84.7093" stroke="#F2F2F2" stroke-width="5" stroke-linecap="round"/>
<path d="M119.212 63.5298C119.708 64.6175 119.988 65.7473 120.723 66.7296C121.513 67.7847 122.463 68.8794 123.499 69.6585C126.166 71.664 128.788 73.25 131.919 74.4329C133.029 74.8524 133.944 75.4347 135.147 75.601C136.12 75.7356 137.056 76.0068 138.038 76.1005C140.541 76.3393 143.229 75.9042 145.694 76.4814C147.018 76.7915 148.465 76.679 149.817 76.8623C150.661 76.9768 151.48 77.0909 152.33 77.0909" stroke="#F2F2F2" stroke-width="3" stroke-linecap="round"/>
<path d="M190.328 56.9775C190.328 58.4253 188.702 59.1361 187.519 59.2716C187.053 59.325 186.489 59.3308 186.041 59.4494C185.663 59.5491 185.487 59.8368 185.08 59.8811C183.771 60.023 182.265 60.4239 180.981 60.7868C179.813 61.1168 178.77 61.5209 177.646 62.0058C176.494 62.5027 175.127 62.8691 174.073 63.5211C171.731 64.9694 168.747 65.3899 166.532 67.1018C165.37 68.0003 164.01 68.779 162.762 69.5398C161.376 70.3852 160.366 71.8752 158.885 72.5534C156.491 73.65 155.367 75.6375 153.587 77.4716C153.055 78.0198 152.151 78.9999 151.887 79.7487C151.751 80.1347 151.283 80.4411 151.033 80.7476C150.85 80.971 150.649 81.4728 150.408 81.628C149.866 81.9771 148.634 83.7465 148.634 84.4045" stroke="#F2F2F2" stroke-width="5" stroke-linecap="round"/>
<path d="M52.5302 48.2921C54.2353 47.4135 56.0777 47.1674 57.8529 46.4975C58.9217 46.0941 59.8663 45.557 60.8757 45.0161C61.5199 44.6709 62.0057 44.1078 62.6663 43.7548C64.3024 42.8805 66.0019 42.1053 67.6276 41.2153C69.7308 40.0638 72.0193 39.3119 74.051 38.0324C75.6025 37.0552 77.3288 36.3744 78.8972 35.4251C79.522 35.047 80.2376 34.6905 80.8357 34.2654C81.4986 33.7943 82.1014 33.1604 82.9057 32.9364C83.4226 32.7924 83.9566 32.6735 84.4663 32.5047C84.8938 32.363 85.2939 31.9883 85.7641 31.9883C86.2431 31.9883 85.5678 33.1112 85.3534 33.2411C81.4504 35.6072 77.3139 37.6848 73.5088 40.2164C72.7379 40.7293 72.0992 41.1443 71.3814 41.7232C70.7828 42.2059 70.2046 42.7188 69.599 43.1961C68.3839 44.1536 67.0857 45.0758 65.9519 46.125C65.5344 46.5114 65.0155 46.7612 64.5802 47.1408C64.2029 47.4699 63.8897 48.0046 63.4713 48.2582C63.0596 48.5078 63.2094 49.1366 63.0277 49.5111" stroke="#F2F2F2" stroke-width="3" stroke-linecap="round"/>
<path d="M78.8482 53.9303C78.9089 53.4304 79.7831 51.987 80.0967 51.6448C81.0862 50.5651 81.732 49.1826 82.7088 48.0386C83.9214 46.6185 85.2916 45.2628 86.3887 43.7553C87.3775 42.3966 88.6902 41.348 89.6579 39.9629C90.6366 38.562 92.1534 37.7136 93.042 36.289C93.2717 35.9209 93.997 34.7314 94.4466 34.7314C95.4228 34.7314 96.5841 34.8083 97.4776 35.2563C98.3366 35.687 99.2519 35.9266 100.131 36.3229C100.536 36.5058 101.089 36.5206 101.387 36.8562C101.697 37.2045 102.628 37.5982 103.096 37.6265C103.601 37.6571 103.392 38.8768 103.392 39.2264C103.392 40.354 103.244 41.536 103.244 42.6887C103.244 43.7372 103.392 44.7282 103.392 45.7869C103.392 46.3548 103.202 47.0287 103.917 46.6165C104.496 46.2833 105.16 45.2978 105.609 44.788C106.175 44.1467 106.235 43.0295 106.8 42.3501C107.251 41.808 107.901 40.6274 108.714 40.674C109.272 40.7059 110.079 41.1618 110.554 41.4358C111.207 41.8126 111.998 41.9369 112.706 42.1977C113.938 42.6511 115.274 42.8273 116.534 43.1881C116.777 43.2577 117.828 43.2836 117.7 43.7214C117.545 44.2553 117.049 44.753 116.731 45.1774C115.956 46.2129 115.175 47.147 114.555 48.2841C114.154 49.018 113.541 49.6412 113.15 50.4258C112.831 51.065 112.371 51.4401 112.049 52.0849C111.214 53.7575 109.679 54.9962 108.78 56.5969C108.483 57.125 107.569 57.9661 107.121 58.3661C106.41 59.0011 105.761 59.694 105.051 60.33C104.507 60.8172 103.895 61.5025 103.457 62.0822C103.269 62.332 102.959 62.9403 102.735 63.0727C101.953 63.5327 100.715 63.4217 99.8432 63.1912C99.0148 62.9723 98.3402 62.3682 97.5351 62.0738C96.744 61.7845 96.1056 61.5682 95.4816 61.0241C94.9065 60.5226 94.0434 60.6281 93.4363 60.1776C93.041 59.8843 93.1899 58.7389 93.1899 58.3153C93.1899 56.5213 93.3377 54.7428 93.3377 52.9484C93.3377 52.473 93.2838 51.9652 93.3377 51.4924C93.3503 51.3826 93.6405 51.2322 93.3377 51.4077C92.9395 51.6386 92.652 52.074 92.3028 52.3728C91.6183 52.9584 90.9847 53.5607 90.315 54.1589C89.6742 54.7312 89.193 55.4026 88.5572 55.9704C88.0024 56.4659 87.4981 57.7595 86.7665 57.7396C84.9702 57.6909 83.0625 56.8211 81.4521 56.0551C80.8867 55.7862 80.5009 55.1185 79.916 54.8446C79.5455 54.671 78.5653 54.4138 78.4047 54.0827" stroke="#F2F2F2" stroke-width="3" stroke-linecap="round"/>
<path d="M81.8051 53.3206C82.3423 53.259 82.9161 52.2173 83.2179 51.8307C83.5948 51.3478 83.83 50.7803 84.1707 50.2731C85.1831 48.7661 86.6069 47.558 87.7191 46.1252C88.8163 44.7119 90.2306 43.6672 91.4154 42.3498C92.4712 41.1759 93.3643 39.905 94.3725 38.6928C94.6319 38.3809 94.4099 38.0537 94.8489 37.8971C95.2273 37.7621 95.5836 37.7492 95.9824 37.8125C96.7591 37.9356 97.1178 38.0612 97.7238 38.5405C98.1583 38.8841 98.9692 39.2622 99.5145 39.3023C101.279 39.4322 100.773 41.9493 100.615 43.1794C100.433 44.5938 100.434 45.9505 100.434 47.3781C100.434 48.3725 100.386 49.7387 100.796 50.6625C101.102 51.3525 100.916 52.6654 101.437 53.2021C101.681 53.4543 103.368 51.0729 103.72 50.6964C104.2 50.1823 104.495 49.634 104.722 48.9695C104.912 48.4163 105.397 48.1398 105.724 47.6828C106.511 46.5819 107.173 45.614 108.123 44.6354C108.458 44.2901 108.78 43.7211 109.306 43.7211C110.327 43.7211 111.268 43.9156 112.23 44.2968C112.669 44.4707 113.099 44.7523 113.56 44.9401C113.903 45.0797 114.482 45.002 114.07 45.3126C113.656 45.6238 113.475 46.0913 113.15 46.4638C112.775 46.893 112.399 47.1557 112.115 47.6828C111.811 48.2467 111.138 48.6409 110.751 49.1727C110.311 49.7774 109.838 50.4485 109.338 51.0011C108.322 52.1258 107.703 53.5627 106.841 54.7935C105.731 56.3804 104.254 57.622 103.129 59.1954C102.579 59.9643 102.584 60.4809 101.584 60.6683C100.111 60.9444 98.5793 60.5239 97.3624 59.6356C96.5398 59.0351 95.5553 59.4626 95.5553 58.2811C95.5553 54.9263 95.7032 51.5631 95.7032 48.2246C95.7032 47.6482 96.0685 45.502 95.161 45.7358C94.2707 45.9652 93.3252 46.8926 92.7461 47.5812C92.3379 48.0666 91.6896 48.4139 91.3333 48.9356C90.7406 49.8036 90.3175 50.739 89.6084 51.526C88.7605 52.4669 87.8911 53.483 87.1277 54.5057C86.9343 54.7649 86.7324 54.9869 86.5363 55.2676C86.2027 55.7451 84.523 55.4403 84.0885 55.2337C83.7982 55.0956 83.5218 54.499 83.2179 54.2687C82.8837 54.0155 82.5727 53.6956 82.2486 53.4729" stroke="#F2F2F2" stroke-width="3" stroke-linecap="round"/>
<path d="M11.3877 41.792C11.2903 42.8958 10.7753 43.9347 10.464 44.9848C10.1558 46.0242 9.89982 47.0195 9.73237 48.0933C9.61558 48.8422 9.54065 49.5974 9.32773 50.3216C9.17616 50.837 9.28657 51.3246 9.73237 51.6442C10.0535 51.8744 10.3777 52.0768 10.7582 52.1791C11.3562 52.3399 11.8843 52.6639 12.4749 52.8446C13.6191 53.1949 14.7506 53.5683 15.8918 53.9229C16.7734 54.197 17.7707 54.7569 18.671 54.7569" stroke="#F2F2F2" stroke-width="3" stroke-linecap="round"/>
<path d="M8.95468 51.6035C7.08482 51.6035 7.56206 54.4801 7.56206 55.723C7.56206 57.0658 7.71677 58.5054 7.51564 59.8319C7.29969 61.2563 7.10267 62.6895 6.86575 64.1056C6.79538 64.5263 6.81933 64.9609 6.81933 65.3867C6.81933 65.8086 6.68137 66.524 6.83997 66.9122C6.96402 67.2159 6.85441 67.5424 7.05659 67.8265C7.39083 68.2962 7.69959 68.7532 8.21195 69.0172C9.14059 69.4957 10.2343 69.8324 11.2551 69.9952C12.4326 70.183 13.5544 70.7141 14.7573 70.8351C15.9269 70.9527 17.0164 71.441 18.1769 71.6005C21.0282 71.9923 23.8819 72.2595 26.7441 72.5095C29.6406 72.7624 32.5467 72.5573 35.4505 72.5573C38.8047 72.5573 42.1542 72.3659 45.5083 72.3659C48.7682 72.3659 52.0248 72.368 55.2824 72.4563C58.6709 72.5482 62.0836 72.2748 65.464 72.536C67.2588 72.6748 69.0607 72.7788 70.8385 73.0889C72.5692 73.3907 74.321 73.5586 76.0479 73.8756C78.9776 74.4132 81.8895 75.178 84.7853 75.8848C86.0975 76.2051 87.3894 76.546 88.7155 76.8097C89.2433 76.9147 90.0214 77.1293 90.4692 77.4369" stroke="#F2F2F2" stroke-width="5" stroke-linecap="round"/>
<path d="M118.785 84.8042C119.98 85.103 120.979 85.2236 122.231 85.1647C123.076 85.125 123.923 85.0132 124.768 84.9951C126.926 84.9489 129.065 84.8042 131.226 84.8042" stroke="#F2F2F2" stroke-width="3" stroke-linecap="round"/>
<path d="M133.362 85.0911C135.916 85.0911 138.493 85.4911 141.047 85.2612C143.692 85.023 146.34 84.7334 148.98 84.4957C150.439 84.3643 151.913 84.2396 153.369 84.0864C154.743 83.942 156.049 83.7102 157.408 83.4645C158.067 83.3452 158.735 83.2672 159.398 83.1775C160.401 83.0421 161.354 82.7245 162.349 82.5609C164.049 82.2812 165.852 82.3706 167.527 81.9868C169.574 81.518 171.699 81.5302 173.748 81.0194C175.528 80.5754 177.321 80.2466 179.112 79.85C180.402 79.5643 181.744 79.3688 183.057 79.2493C184.638 79.1056 186.166 78.621 187.746 78.4679C190.12 78.2379 192.452 77.772 194.761 77.1497C195.677 76.9027 196.6 76.8064 197.53 76.6181C198.116 76.4995 198.69 76.2886 199.279 76.2886" stroke="#F2F2F2" stroke-width="5" stroke-linecap="round"/>
<path d="M190.366 56.77C190.846 56.77 191.215 56.9657 191.681 57.0571C192.202 57.1593 192.72 57.2831 193.223 57.461C193.7 57.63 194.104 57.9651 194.585 58.1095C195.763 58.4636 196.726 59.1416 197.679 59.9274C198.472 60.5808 199.057 61.4836 199.65 62.2982C200.128 62.955 200.648 63.6383 200.929 64.4244C201.258 65.3482 201.414 66.4552 201.414 67.433C201.414 68.8773 201.005 70.1676 200.784 71.5791C200.602 72.7418 200.091 73.8149 199.856 74.9704C199.748 75.5035 199.677 76.3223 199.186 76.5756" stroke="#F2F2F2" stroke-width="3" stroke-linecap="round"/>
<path d="M68.8368 26.4395C71.1077 29.0724 74.9027 30.0749 78.0796 31.0533C80.5077 31.8011 82.921 32.2759 85.4554 32.2759" stroke="#F2F2F2" stroke-width="3" stroke-linecap="round"/>
<path d="M93.3469 20.5077C93.0727 20.312 92.6577 20.28 92.3411 20.2207C91.3483 20.0346 90.3404 20.0293 89.3341 20.0293C88.1523 20.0293 86.9863 20.2009 85.8062 20.2207C85.1233 20.2321 84.3667 20.2399 83.6914 20.3376C83.2265 20.4049 82.6877 20.3412 82.2576 20.5502C81.4766 20.9296 80.5579 21.1919 80.1119 22.0386C79.8635 22.5101 79.7196 23.3884 80.1274 23.8086C81.3027 25.0199 83.5767 24.9562 85.0841 24.9993C87.0743 25.0563 89.0342 24.9886 91.0156 25.2438C91.9704 25.3668 92.9681 25.483 93.9298 25.483C94.457 25.483 94.9534 25.3253 95.4823 25.2863C95.9798 25.2497 96.6892 25.1317 96.6892 24.5262" stroke="#F2F2F2" stroke-width="3" stroke-linecap="round"/>
<path d="M154.344 50.5509C153.647 50.1707 152.914 49.9465 152.167 49.6898C151.73 49.5397 151.523 49.3009 151.141 49.0785C150.785 48.8714 150.362 48.7382 150.032 48.4885C149.549 48.1239 149.016 47.9251 148.443 47.7284C147.994 47.5741 147.728 47.2928 147.288 47.2021" stroke="#F2F2F2" stroke-width="3" stroke-linecap="round"/>
<path d="M138.003 42.8008C138.172 43.1926 139.188 43.4835 139.53 43.7523C139.812 43.9741 140.155 44.107 140.464 44.2838C140.863 44.5123 141.431 44.81 141.903 44.81" stroke="#F2F2F2" stroke-width="3" stroke-linecap="round"/>
<path d="M128.534 39.0693C129.114 39.1192 129.585 39.6697 130.122 39.8773C130.626 40.0718 131.164 40.174 131.67 40.3344C131.967 40.4289 132.587 40.7256 132.711 40.9829" stroke="#F2F2F2" stroke-width="3" stroke-linecap="round"/>
<path d="M119.899 34.668C120.491 35.3114 121.004 35.444 121.772 35.8161C122.016 35.9349 122.052 36.1032 122.406 36.1032" stroke="#F2F2F2" stroke-width="3" stroke-linecap="round"/>
<path d="M109.594 28.7358C109.841 28.7821 110.027 29.0052 110.213 29.1611C110.583 29.4706 110.998 29.6318 111.41 29.8627C111.869 30.1203 112.379 30.6376 112.771 31.0109C113.082 31.306 113.463 31.5748 113.772 31.8933" stroke="#F2F2F2" stroke-width="3" stroke-linecap="round"/>
<path d="M102.074 22.3257C102.644 22.4692 103.557 22.873 103.931 23.3994C104.111 23.6539 104.226 23.8682 104.488 24.0479" stroke="#F2F2F2" stroke-width="3" stroke-linecap="round"/>
<path d="M136.971 43.005C137.088 42.9583 137.633 42.726 137.633 42.5964C137.633 42.5931 137.558 42.6331 137.526 42.6427C137.388 42.6847 137.257 42.7417 137.118 42.7775" stroke="#F2F2F2" stroke-width="3" stroke-linecap="round"/>
<path d="M142.985 44.3911C142.71 44.4053 142.488 44.9408 142.405 45.1792C142.217 45.7234 142.45 46.2554 142.615 46.7742C142.809 47.384 143.217 48.0872 143.858 48.2853C144.12 48.3665 144.431 48.2686 144.687 48.2015C145.017 48.1151 145.34 48.0243 145.651 47.8808C146.007 47.7168 146.378 47.4116 146.605 47.0864C146.709 46.9375 146.865 46.6729 146.865 46.4849C146.865 46.2424 146.296 46.0349 146.115 45.919C145.692 45.6478 145.293 45.3438 144.87 45.0702C144.543 44.8581 144.161 44.5531 143.754 44.542C143.479 44.5346 143.167 44.7391 143.103 45.0408C142.988 45.5883 143.219 45.9658 143.424 46.4409C143.514 46.6484 143.602 46.8995 143.746 47.0739C143.882 47.2397 144.21 47.1918 144.396 47.2206C144.713 47.2693 145.688 47.3074 145.531 46.7134C145.462 46.45 145.116 46.2504 144.917 46.1056C144.657 45.916 144.387 45.7513 144.136 45.5481C143.976 45.418 143.88 45.4352 143.827 45.6487C143.712 46.1172 143.861 46.4521 144.299 46.617C144.528 46.7031 144.769 46.7265 145.003 46.793C145.165 46.8393 145.314 46.9275 145.482 46.9481C145.706 46.9755 145.929 46.9701 146.06 46.7679" stroke="#F2F2F2" stroke-width="3" stroke-linecap="round"/>
<path d="M139.987 43.1565C139.427 42.8679 138.913 42.5153 138.364 42.2046C137.832 41.9029 137.363 41.6936 136.913 41.2779C136.761 41.1372 136.412 41.029 136.223 40.9199C135.849 40.7049 135.335 40.6707 134.919 40.7682C134.183 40.9406 133.498 41.5069 132.859 41.9097C132.452 42.1661 132.543 43.1122 132.556 43.5272C132.585 44.4049 134.141 44.6913 134.723 44.437C135.322 44.1748 135.923 43.8161 136.472 43.4598C136.902 43.1807 136.971 42.9081 136.971 42.4152C136.971 41.939 136.426 41.8691 136.055 41.716C135.538 41.5028 134.94 41.2945 134.404 41.5475C134.146 41.669 133.97 41.9266 133.697 42.0614C133.431 42.1923 133.145 42.4909 133.145 42.8111C133.145 43.1278 133.157 43.7103 133.558 43.7588C134.427 43.8642 135.208 43.7465 135.81 43.0975C135.845 43.0596 136.254 42.6025 136.043 42.5542C135.738 42.4844 135.599 42.2467 135.246 42.2467C134.923 42.2467 133.881 42.5593 133.881 43.0049C133.881 43.2225 134.748 43.0371 134.837 42.8532" stroke="#F2F2F2" stroke-width="3" stroke-linecap="round"/>
<path d="M132.042 39.5174C131.89 39.2223 131.641 39.0561 131.339 38.9446C130.871 38.7717 130.46 38.5232 129.978 38.3759C129.503 38.2311 129.218 37.9918 128.805 37.7736C128.401 37.5605 127.991 37.4109 127.599 37.1713C126.372 36.422 124.149 36.2794 123.177 37.504C122.906 37.8451 122.561 38.5384 122.886 38.953C123.257 39.4248 123.563 39.6656 124.137 39.8628C124.828 40.1003 125.677 40.3321 126.344 39.8923C126.57 39.7436 127.084 39.4423 127.202 39.1973C127.307 38.982 127.672 38.693 127.889 38.6076C128.193 38.4884 128.319 38.4425 128.662 38.4602C129.166 38.4862 129.558 38.8428 130.031 38.9867C130.38 39.0929 130.708 39.2601 131.053 39.3616C131.069 39.3665 131.26 39.4293 131.183 39.4837C131.106 39.5388 130.725 39.327 130.705 39.3194C130.287 39.1571 129.865 39.0675 129.426 38.9867C128.162 38.7541 127.093 38.2349 125.993 37.6051C125.325 37.2229 124.513 37.2735 123.818 37.5293C123.506 37.6441 123.176 37.7629 123.258 38.1864C123.335 38.5817 124.121 38.8521 124.448 38.9867C124.808 39.1351 125.234 39.3162 125.608 39.1299C126.111 38.8796 126.621 38.6084 127.023 38.2032C127.396 37.8265 127.255 37.6908 126.814 37.5461C126.185 37.3398 125.616 37.3399 125.069 37.7736C124.892 37.9138 124.756 37.9838 124.542 38.039C124.499 38.0498 124.251 38.0618 124.251 38.119C124.251 38.3707 125.08 38.3801 125.273 38.3801" stroke="#F2F2F2" stroke-width="3" stroke-linecap="round"/>
<path d="M122.961 35.5635C122.612 35.4865 122.227 35.263 121.906 35.1003C121.588 34.9395 121.179 34.7164 120.911 34.4694C120.69 34.2655 120.452 34.0491 120.213 33.87C119.871 33.6131 119.382 33.5206 118.995 33.3544C118.671 33.215 118.348 33.0572 118.005 32.9751C117.752 32.9146 117.503 32.8282 117.246 32.7885C117.034 32.7559 116.819 32.789 116.608 32.755C116.181 32.6864 115.766 32.5454 115.33 32.5454C114.913 32.5454 114.707 32.7373 114.367 32.9604C113.822 33.3173 113.449 33.8375 113.378 34.4988C113.351 34.7502 113.37 35.0111 113.37 35.2638C113.37 35.6715 113.855 35.8883 114.183 35.9785C114.761 36.1369 115.41 36.2475 116.008 36.2363C116.334 36.2302 116.614 36.1558 116.913 36.0246C117.189 35.9032 117.41 35.699 117.681 35.5719C118.125 35.3644 118.495 35.0075 118.928 34.7713C119.062 34.6981 119.312 34.4933 119.132 34.373C118.498 33.9504 117.618 33.919 116.901 33.6961C116.302 33.5101 115.666 33.3377 115.04 33.3377C114.724 33.3377 114.436 33.4555 114.257 33.7443C114.125 33.9563 113.953 34.2002 113.905 34.4464C113.737 35.3117 114.888 35.5406 115.505 35.5614C115.967 35.577 116.552 35.5688 116.966 35.3455C117.234 35.2004 117.603 35.0987 117.806 34.853C117.968 34.656 117.344 34.4922 117.242 34.4694C116.762 34.3615 116.272 34.3814 115.802 34.2263C115.589 34.1557 115.179 34.0104 114.952 34.109C114.845 34.1556 114.596 34.3936 114.617 34.5302C114.664 34.8458 115.406 34.7889 115.607 34.8006C115.783 34.8108 115.929 34.8232 116.099 34.8677C116.216 34.8982 116.241 34.9006 116.116 34.9222" stroke="#F2F2F2" stroke-width="3" stroke-linecap="round"/>
<path d="M114.981 30.5079C114.869 30.0928 114.564 29.7365 114.328 29.3887C114.222 29.2332 114.068 29.115 113.931 28.9905C113.666 28.749 113.449 28.4832 113.219 28.2066C112.877 27.7954 112.472 27.3931 112.06 27.0539C111.695 26.7529 111.281 26.4959 110.946 26.161C110.387 25.6029 109.701 24.9825 108.959 24.7044C108.574 24.5603 108.17 24.5397 107.769 24.501C107.398 24.4653 107.149 24.321 106.789 24.5178C106.484 24.6846 106.208 24.9326 105.953 25.1696C105.564 25.531 105.098 25.7874 104.696 26.1296C104.45 26.3388 104.143 26.4657 103.982 26.7604C103.82 27.0575 103.7 27.3536 103.632 27.6868C103.493 28.3727 104.178 28.8639 104.684 29.1917C105.65 29.8178 107.048 29.1274 108.019 28.871C108.452 28.7569 108.861 28.579 109.302 28.5C109.545 28.4567 109.799 28.4246 110.035 28.5168C110.247 28.5998 110.429 28.7679 110.624 28.8857C110.975 29.097 111.305 29.3604 111.67 29.5438C111.983 29.7015 112.295 29.8272 112.583 30.0363C112.765 30.1687 113.019 30.2636 113.158 30.4492C113.288 30.6228 113.477 30.6798 113.679 30.7343C113.813 30.7703 113.943 30.8228 114.084 30.8076C114.256 30.789 114.239 30.5269 114.267 30.3989C114.372 29.9206 113.72 29.5075 113.407 29.2629C112.698 28.7108 112.187 27.9756 111.493 27.406C110.827 26.8597 110.061 26.4723 109.408 25.9053C108.89 25.4548 108.077 25.104 107.391 25.1131C106.459 25.1254 105.969 25.7506 105.3 26.3161C104.912 26.6442 104.419 26.9149 104.336 27.473C104.304 27.6914 104.268 27.9292 104.293 28.15C104.33 28.469 104.635 28.5586 104.889 28.6384C105.256 28.7533 105.613 28.7725 105.992 28.7725C106.177 28.7725 106.365 28.7812 106.545 28.7264C106.763 28.6602 106.952 28.5248 107.167 28.4497C107.486 28.3383 107.861 28.2923 108.194 28.2653C108.429 28.2463 108.671 28.2656 108.904 28.2276C109.061 28.2018 109.207 28.1452 109.368 28.1312C109.752 28.0974 110.184 28.0271 110.551 28.1856C110.997 28.3784 111.359 28.6984 111.706 29.0324C111.871 29.1909 112.049 29.4345 112.251 29.5438C112.332 29.5875 112.654 29.9171 112.522 29.5962C112.388 29.2716 112.106 29.0127 111.893 28.7432C111.684 28.478 111.486 28.2163 111.228 27.9991C110.875 27.7008 110.512 27.4294 110.11 27.2048C109.368 26.7907 108.691 26.3539 107.899 26.0478C107.606 25.9345 107.312 25.7978 106.988 25.8466C106.496 25.9208 106.082 26.324 105.646 26.5487C105.145 26.8066 105.005 27.3291 104.893 27.8419C104.84 28.0894 105.63 28.0402 105.754 28.0326C106.19 28.0059 106.636 28.0429 107.069 27.997C107.344 27.9678 107.648 27.9349 107.915 27.8587C108.152 27.7911 108.387 27.7348 108.631 27.7015C108.733 27.6876 108.877 27.7002 108.969 27.6407C109.214 27.4814 108.553 27.093 108.473 27.0497C108.158 26.8788 107.769 26.8403 107.417 26.8107C106.905 26.7677 106.09 26.5269 105.764 27.1125C105.482 27.6186 107.008 27.4898 107.257 27.4898" stroke="#F2F2F2" stroke-width="3" stroke-linecap="round"/>
<path d="M93.8944 20.9255C93.7008 20.9455 93.4845 21.2105 93.3534 21.3363C93.1472 21.5342 93.076 21.7063 92.9426 21.942C92.8507 22.1043 92.7831 22.2659 92.6701 22.4157C92.6006 22.5078 92.5399 22.6193 92.5399 22.7385C92.5399 22.9142 92.5532 23.0847 92.5948 23.2562C92.658 23.5167 93.0209 23.6067 93.2273 23.7131C93.9807 24.1013 94.8414 24.3586 95.6861 24.3586C96.1307 24.3586 96.5663 24.2707 96.9897 24.1323C97.3629 24.0102 97.7583 23.9194 98.1205 23.7676C98.5866 23.5721 99.0478 23.4379 99.479 23.1598C99.7847 22.9625 100.103 22.8189 100.419 22.6442C100.833 22.4149 101.235 22.0857 101.692 21.9525C102.015 21.8582 102.351 21.7558 102.68 21.6884C103.55 21.5105 104.567 21.5306 105.397 21.8687C105.965 22.1002 106.303 22.5087 106.723 22.9418C107.204 23.4369 107.807 23.5284 108.385 23.8263C108.503 23.8872 108.658 23.9264 108.785 23.9646C109.005 24.0302 109.184 24.1367 109.391 24.237C109.772 24.4208 110.056 24.7902 110.445 24.9538C110.469 24.964 110.71 25.0872 110.726 25.067C110.779 24.9994 110.735 24.7405 110.734 24.652C110.724 24.1577 110.537 23.6921 110.449 23.2142C110.286 22.3352 109.675 21.5297 109.064 20.9465C108.591 20.4952 108.067 20.0501 107.514 19.7057C106.753 19.2317 105.938 19.0493 105.082 18.8632C103.531 18.5257 101.9 17.8894 100.297 18.1799C99.815 18.2671 99.344 18.4053 98.8648 18.5027C98.4163 18.5938 97.9647 18.622 97.5226 18.7542C96.5654 19.0403 95.739 19.5275 94.8584 19.9866C94.2886 20.2836 93.9604 20.7466 93.5731 21.2546C93.3272 21.5771 93.4491 22.0758 93.327 22.4534C93.1924 22.8695 93.2809 23.0908 93.7256 23.2436C94.0319 23.3488 94.335 23.3366 94.653 23.3798C95.0637 23.4356 95.4728 23.4678 95.8874 23.4511C96.3299 23.4332 96.7351 23.2206 97.1606 23.1136C97.8947 22.9291 98.6828 22.7102 99.3285 22.2962C99.9522 21.8964 100.559 21.5046 101.281 21.3321C102.09 21.1387 102.864 21.1142 103.689 21.1142C104.421 21.1142 105.15 21.1158 105.828 21.439C106.372 21.6983 106.869 22.073 107.362 22.4157C107.86 22.7624 108.314 23.1739 108.895 23.3735C109.085 23.4388 109.552 23.666 109.469 23.3002C109.456 23.2452 109.344 23.0157 109.461 23.1388C109.604 23.2906 109.735 23.4971 109.831 23.6837C109.858 23.7379 109.957 23.8999 109.867 23.734C109.721 23.4646 109.605 23.1815 109.461 22.9124C109.235 22.4913 108.923 22.1124 108.631 21.7387C108.432 21.484 108.221 21.2477 108.004 21.0094C107.743 20.7222 107.368 20.5514 107.032 20.3764C106.134 19.9083 105.177 19.6068 104.183 19.4416C103.299 19.2948 102.433 19.1233 101.557 18.9281C100.487 18.6896 99.449 18.9654 98.4194 19.2802C98.0334 19.3983 97.6313 19.5464 97.2358 19.6219C96.8343 19.6985 96.5649 19.7556 96.2352 19.997C96.0354 20.1433 95.8157 20.2734 95.6109 20.4141C95.2309 20.6752 94.8192 20.834 94.4232 21.0597C94.1435 21.219 94.0143 21.3067 93.9025 21.6256C93.8151 21.8748 93.7802 22.1209 93.7398 22.3801C93.6424 23.0048 94.6437 23.1141 95.0658 23.0675C95.4146 23.029 95.6984 22.8212 96.0054 22.6693C96.395 22.4766 96.7457 22.3023 97.1606 22.1663C97.6386 22.0095 98.1146 21.8611 98.5781 21.6633C98.7628 21.5844 98.935 21.4944 99.1129 21.4013C99.3661 21.2689 99.6452 21.2483 99.9224 21.2064C100.936 21.053 101.93 20.8069 102.953 20.7222C103.38 20.6868 103.81 20.6992 104.238 20.6992C104.857 20.6992 105.417 20.9026 106.001 21.0932C106.631 21.2988 107.233 21.5959 107.821 21.9064C107.913 21.9547 108.676 22.5417 108.639 22.5687C108.611 22.5891 108.574 22.5452 108.545 22.5268C108.296 22.3687 108.306 22.3659 107.988 22.1873C107.246 21.77 106.482 21.3966 105.702 21.0597C105.226 20.8539 104.756 20.6284 104.275 20.4351C104.048 20.3439 103.38 20.0595 103.579 20.2045C104.058 20.554 104.802 20.6085 105.356 20.7034C105.486 20.7255 105.902 20.8303 105.56 20.6321C105.088 20.3588 104.582 20.1446 104.071 19.9614C103.26 19.6703 102.465 19.4919 101.606 19.4919C101.443 19.4919 101.285 19.4654 101.122 19.4563C100.65 19.43 100.201 19.581 99.7434 19.6743C99.2911 19.7666 98.833 19.8842 98.3788 19.9593C97.7826 20.0579 97.255 20.2816 96.6826 20.4686C96.0544 20.6739 95.1951 20.8554 94.7546 21.3971C94.6906 21.4759 94.1261 22.1235 94.4333 22.2061C94.9136 22.3352 95.4373 21.9743 95.8549 21.7639C96.4964 21.4407 97.1843 21.2684 97.8642 21.0597C98.5245 20.857 99.1774 20.653 99.8532 20.5105C100.389 20.3975 100.935 20.3842 101.48 20.368C101.971 20.3534 102.488 20.3219 102.973 20.3219" stroke="#F2F2F2" stroke-width="3" stroke-linecap="round"/>
<path d="M7.02215 69.0171C6.48901 69.3223 5.76964 70.3806 5.59018 71.0026C5.26189 72.1406 5.03041 73.0525 5.03041 74.2694C5.03041 75.7352 5.4713 77.2234 5.99374 78.5021C6.11235 78.7924 6.3902 79.2235 6.29315 79.5486C6.1271 80.1047 5.62625 80.5443 5.32982 81.0243C5.12446 81.3569 5.14757 82.0915 5.14757 82.4799C5.14757 82.7939 4.92468 83.0406 4.91325 83.3587C4.9037 83.6244 4.90827 83.8267 4.82213 84.0831C4.46707 85.1402 3.27299 85.9885 3.27299 87.1889C3.27299 88.2854 3.00776 89.3272 3.03867 90.4423C3.05808 91.1425 3.31999 91.8302 3.62448 92.4412C4.11965 93.435 4.29963 94.5466 5.15408 95.3391C5.97821 96.1035 7.40999 96.3226 8.44111 96.5867C9.55101 96.871 10.7024 97.0442 11.8258 97.271C13.3594 97.5805 14.8825 97.8507 16.4016 98.2302C17.6857 98.551 19.0373 98.9808 20.359 99.0687C20.8164 99.0991 21.3315 99.0052 21.7845 99.1089C22.2762 99.2215 22.7955 99.3805 23.2946 99.4376C23.9358 99.511 24.1588 99.0197 24.5443 98.5991C24.9298 98.1785 25.0553 97.9441 25.5857 98.3845C26.2249 98.9152 26.4246 99.8083 27.1153 100.283C27.7633 100.728 28.8532 100.468 29.5692 100.417C30.9068 100.322 32.276 100.41 33.6178 100.41C36.5805 100.41 39.4811 100.778 42.4439 100.658C43.1269 100.631 44.2845 100.756 44.8132 100.162C45.3564 99.5513 46.0911 98.8764 46.831 98.5991C47.9976 98.1619 48.496 98.904 49.2653 99.5382C49.6513 99.8565 49.8223 100.203 50.3132 100.357C50.9858 100.568 51.5926 100.531 52.305 100.531C54.3401 100.531 56.3753 100.531 58.4104 100.531C59.3435 100.531 60.2622 100.546 61.1897 100.437C62.2627 100.311 63.3379 99.9578 64.4051 99.7529C66.5304 99.3449 68.6557 98.494 70.7514 97.9283C71.6944 97.6738 72.5857 97.2646 73.5437 97.0563C74.4099 96.868 75.2651 96.4884 76.1213 96.3318C77.7317 96.0374 79.3787 95.9335 80.977 95.5806C81.911 95.3743 82.8758 95.1112 83.8409 95.2317C84.8498 95.3578 85.8645 95.6167 86.8806 95.7617C87.9598 95.9157 88.8986 96.0811 89.8552 96.6404C90.4011 96.9596 91.3115 97.175 91.7753 97.5795C92.5791 98.2805 93.8134 99.0701 94.841 99.3504C95.7322 99.5935 96.576 100.074 97.4707 100.316C98.7462 100.662 100.157 100.704 101.467 100.779C103.172 100.877 104.846 101.014 106.557 101.014C107.888 101.014 109.031 100.845 110.332 100.625C111.144 100.488 111.869 99.982 112.624 99.6858C113.528 99.3309 113.873 100.293 114.68 100.531C115.133 100.664 115.073 101.78 115.461 101.852C116.392 102.027 117.485 101.859 118.443 101.859C122.278 101.859 126.114 101.859 129.95 101.859C130.956 101.859 132.513 102.187 132.944 100.987C133.051 100.691 133.132 99.8671 133.446 99.8133C133.867 99.7409 134.617 99.4837 135.027 99.7529C135.402 99.9984 135.409 100.432 135.691 100.746C136.006 101.094 136.297 101.427 136.72 101.645C137.35 101.969 138.45 101.72 139.089 101.591C139.631 101.481 140.17 101.123 140.716 100.954C141.312 100.77 141.972 100.703 142.591 100.645C144.473 100.469 146.31 99.9089 148.215 99.7998C149.412 99.7313 150.609 99.4166 151.807 99.2968C152.008 99.2767 152.852 99.3206 152.979 99.0284C153.43 97.9958 152.228 95.9428 154.001 95.9428C154.563 95.9428 154.123 96.7476 154.431 97.0965C155.103 97.8591 156.508 97.6444 157.379 97.6332C159.32 97.6082 161.212 96.7135 163.081 96.305C164.131 96.0755 165.155 95.7643 166.199 95.5068C167.423 95.2046 168.537 94.5961 169.766 94.306C170.964 94.0231 172.146 93.6862 173.352 93.434C174.155 93.2661 174.831 92.7972 175.624 92.6291C177.413 92.2493 179.129 91.765 180.889 91.2875C181.835 91.0311 182.709 90.5963 183.649 90.3282C184.712 90.0252 185.78 89.6693 186.748 89.1208C187.4 88.751 188.251 88.5943 188.856 88.1884C189.253 87.9227 189.684 87.6095 190.145 87.4908" stroke="#F2F2F2" stroke-width="5" stroke-linecap="round"/>
<path d="M189.559 87.4905C190.56 87.3874 191.638 86.7621 192.592 86.4307C193.197 86.2206 193.727 85.9222 194.272 85.5855C195.122 85.0595 195.934 84.4821 196.823 84.0158C197.486 83.6679 198.042 83.2085 198.672 82.8084C199 82.5996 199.364 82.5235 199.518 82.1242C199.899 81.1334 200.469 80.248 200.872 79.2666C201.266 78.3067 201.723 77.3995 202.043 76.409C202.262 75.732 202.249 74.9724 202.557 74.3362C202.776 73.8854 202.862 73.2454 202.915 72.7465C203.162 70.4556 202.95 67.8557 201.158 66.2397" stroke="#F2F2F2" stroke-width="5" stroke-linecap="round"/>
<path d="M3 90.6519C5.58294 91.7661 8.19171 92.4399 10.869 93.276C11.6149 93.509 12.3799 93.5841 13.1279 93.7839C13.943 94.0017 14.6465 94.3521 15.4853 94.5289C17.1732 94.8847 18.8139 95.2884 20.5287 95.4939C21.4529 95.6047 22.1529 95.8325 23.1079 95.8325C24.0155 95.8325 25.0744 96.0152 25.9499 96.2558C27.2635 96.6168 28.9771 96.869 30.3198 96.8991C32.1421 96.9399 33.959 97.0515 35.7903 97.0515C40.398 97.0515 45.0415 96.8852 49.6063 96.3235C51.4904 96.0916 53.5035 96.2896 55.4054 96.2896C57.4315 96.2896 59.4576 96.2896 61.4838 96.2896C66.1297 96.2896 70.8384 96.1373 75.4476 96.1373" stroke="#F2F2F2" stroke-width="5" stroke-linecap="round"/>
<path d="M92.3024 97.356C94.0847 97.8013 96.2473 97.2937 98.1015 97.3644C99.9494 97.435 101.801 97.4932 103.638 97.6946C104.899 97.8329 106.127 98.133 107.392 98.2702C108.567 98.3977 109.628 98.9153 110.784 99.0236C112.344 99.1698 114.595 99.6212 116.107 98.9982C116.464 98.8507 116.794 98.8957 117.174 98.8797C118.096 98.8409 119.022 98.6263 119.951 98.5665C122.328 98.4133 124.723 98.3944 127.105 98.2617C129.053 98.1532 131.111 97.9164 133.044 98.2787C133.559 98.3752 133.872 98.8797 134.44 98.8797C134.723 98.8797 135.139 98.9642 135.41 98.8628C135.882 98.6859 136.291 98.1803 136.806 98.1178C137.048 98.0885 137.312 97.8957 137.578 97.8469C137.989 97.7717 138.41 97.8693 138.818 97.8046C139.884 97.6356 141.502 97.7604 142.416 97.1951C143.42 96.5744 145.217 96.6138 146.383 96.5941C147.877 96.5689 149.378 96.1625 150.885 96.137C152.263 96.1137 153.578 95.6213 154.918 95.519C156.177 95.4229 157.576 95.1015 158.803 94.7656C160.123 94.4043 161.346 94.1834 162.631 93.6906C164.858 92.8366 167.05 92.1482 169.35 91.5404C171.163 91.0613 172.974 90.107 174.82 89.7712C175.169 89.7078 175.149 90.0978 175.519 90.0252C176.238 89.8839 176.734 89.617 177.235 89.1279C177.775 88.6005 179.058 87.982 179.741 87.7735C180.586 87.5152 181.426 87.2298 182.279 86.9947C182.925 86.8166 183.393 86.3643 184.028 86.1651C185.762 85.6212 187.549 85.1427 189.22 84.4805C189.791 84.2539 189.825 84.9931 190.476 84.6752C191.157 84.3427 192.071 83.8444 192.661 83.3377C193.391 82.7111 193.955 82.0318 194.772 81.5262C195.185 81.271 195.754 80.9552 196.21 80.7813C196.678 80.6026 196.947 80.175 197.401 79.9178C198.683 79.1907 198.928 77.5563 199.643 76.3286" stroke="#F2F2F2" stroke-width="5" stroke-linecap="round"/>
<path d="M5.51923 81.9336C5.66649 82.1865 6.23138 82.2866 6.47344 82.3642C7.47051 82.6835 8.51142 82.7588 9.54235 82.8904C10.8539 83.0578 12.2195 83.0316 13.5139 83.2944C14.5861 83.512 15.6382 83.8246 16.7014 84.0811C17.8135 84.3493 18.9929 84.6801 20.0437 85.1442C20.3492 85.2791 20.5713 85.5307 20.8793 85.6651C21.4081 85.8959 21.9326 86.0719 22.437 86.3667C23.0349 86.7163 23.6763 86.9976 24.2525 87.3873C25.0527 87.9285 25.3168 88.3606 25.5832 89.2531C25.6434 89.4545 25.8514 89.6481 25.8514 89.875C25.8514 90.1935 24.8559 90.2467 24.6858 90.2524C21.5857 90.3554 18.6676 88.968 15.773 88.0039C14.6158 87.6185 13.3932 87.2012 12.209 86.9196C11.2816 86.699 10.4166 86.3681 9.5114 86.1116C7.84604 85.6396 5.86684 85.1867 4.12662 85.1867" stroke="#F2F2F2" stroke-width="3" stroke-linecap="round"/>
<path d="M28.7296 87.0046C27.9981 87.1931 26.5466 88.3627 26.3363 89.2053C26.3033 89.3375 26.1874 89.6455 26.2228 89.7793C26.4772 90.7405 29.0334 90.6743 29.7508 90.7149C34.0727 90.9596 38.3637 91.6844 42.6454 92.3202C43.9023 92.5068 45.1257 92.7708 46.3694 93.0271C46.8586 93.128 47.1261 93.2283 47.4319 92.7986C47.585 92.5834 47.6691 92.3766 47.6691 92.1129C47.6691 91.4882 46.5912 91.201 46.1527 90.9381C45.3556 90.4601 44.3605 90.1277 43.4965 89.79C40.1315 88.4746 36.9028 87.1535 33.3819 86.3402C32.3231 86.0956 31.3416 86.0479 30.2666 86.0479C29.4821 86.0479 28.9085 86.2734 28.1725 86.5262" stroke="#F2F2F2" stroke-width="3" stroke-linecap="round"/>
<path d="M50.2686 89.7792C49.3437 89.8427 48.9276 90.4652 48.4118 91.1506C48.2639 91.3471 47.3615 92.3685 47.8805 92.6602C48.8457 93.2028 50.2959 93.0607 51.3621 93.1067C52.5216 93.1568 53.6847 93.1299 54.8436 93.0801C58.2026 92.9359 61.577 93.1413 64.9169 92.6496C65.2079 92.6067 67.3773 92.6194 67.3514 92.2456C67.3147 91.7165 66.7294 91.5839 66.3301 91.4961C65.1356 91.2335 63.8857 91.0869 62.6732 90.9327C58.195 90.3629 53.7331 89.8588 49.2473 89.3965" stroke="#F2F2F2" stroke-width="3" stroke-linecap="round"/>
<path d="M109.408 84.5169C112.031 85.9646 114.717 86.6414 117.635 87.265C120.671 87.9139 123.789 88.1179 126.811 88.8012C129.907 89.5011 133.183 89.648 136.343 89.7686C138.016 89.8325 139.626 89.6423 141.289 89.5028C143.322 89.3323 145.375 89.2012 147.411 89.0882C150.935 88.8928 154.339 88.0221 157.82 87.5414C159.537 87.3043 161.147 86.9141 162.833 86.4996C164.172 86.1707 165.494 85.7461 166.836 85.4524C169.204 84.9341 171.51 84.0816 173.85 83.4591C175.036 83.1437 176.243 82.8322 177.399 82.4119C177.894 82.2318 178.208 81.8359 178.668 81.6465" stroke="#F2F2F2" stroke-width="3" stroke-linecap="round"/>
<path d="M175.047 81.168C174.597 81.6312 174.318 82.1649 173.84 82.6032" stroke="#F2F2F2" stroke-width="3" stroke-linecap="round"/>
<path d="M167.156 82.6992C166.485 83.16 165.995 83.54 165.577 84.262C165.376 84.6091 165.212 85.0314 164.835 85.1869" stroke="#F2F2F2" stroke-width="3" stroke-linecap="round"/>
<path d="M159.078 84.1343C158.106 84.8282 158.349 86.0194 157.871 87.0047" stroke="#F2F2F2" stroke-width="3" stroke-linecap="round"/>
<path d="M151.465 84.9956C151.465 85.7093 151.32 86.3735 151.192 87.074C151.103 87.5661 151.262 88.0604 150.723 88.153" stroke="#F2F2F2" stroke-width="3" stroke-linecap="round"/>
<path d="M136.982 86.1436C137.284 86.5939 137.632 86.9008 137.632 87.4831" stroke="#F2F2F2" stroke-width="3" stroke-linecap="round"/>
<path d="M130.298 85.7607C130.672 86.6604 131.499 87.2617 131.69 88.2484" stroke="#F2F2F2" stroke-width="3" stroke-linecap="round"/>
<path d="M122.871 86.2393C122.993 86.2551 123.228 86.6432 123.335 86.7389C123.585 86.962 123.803 87.2015 123.985 87.4831" stroke="#F2F2F2" stroke-width="3" stroke-linecap="round"/>
<path d="M114.329 84.8042C114.566 84.8857 114.937 85.529 115.072 85.761" stroke="#F2F2F2" stroke-width="3" stroke-linecap="round"/>
<path d="M55.9321 83.4643C56.0376 82.9749 57.3178 82.763 57.7167 82.7202C59.0231 82.5799 60.3732 82.4952 61.6882 82.5075C64.2299 82.5313 66.7591 82.9016 69.1568 83.7939C72.076 84.8803 75.1681 85.6002 78.183 86.356C80.9982 87.0617 83.6429 88.4066 86.4098 89.2901C88.5271 89.9663 90.3312 91.2775 92.1401 92.5486C92.4664 92.7778 93.5327 93.1499 93.5327 93.6489C93.5327 93.7514 93.5831 94.0357 93.476 94.0847C93.0546 94.2777 92.6853 94.5564 92.2433 94.7013C91.7427 94.8655 91.2194 94.8225 90.7062 94.898C90.3912 94.9444 90.085 94.9973 89.7727 95.0468C89.4328 95.1007 89.4129 95.49 89.1692 95.6156" stroke="#F2F2F2" stroke-width="5" stroke-linecap="round"/>
<path d="M55.9321 83.5601C56.4783 84.0974 57.1563 84.4122 57.8353 84.7401C59.1045 85.353 60.4207 85.8817 61.616 86.6431C63.1236 87.6033 64.874 88.2769 66.485 89.0457C67.4762 89.5187 68.4452 89.956 69.4662 90.3533C70.2339 90.652 70.6371 91.1243 71.2302 91.6503C71.8452 92.1957 71.7765 93.5028 71.55 94.2549C71.4827 94.4784 71.3619 94.9185 71.1374 95.0203C70.9915 95.0865 70.8557 95.1862 70.7866 95.3286" stroke="#F2F2F2" stroke-width="5" stroke-linecap="round"/>
<path d="M34.7522 19.5923C34.7522 19.8545 34.9904 19.9353 35.1732 20.0729C35.3457 20.2028 35.472 20.5236 35.5975 20.7104C35.8451 21.079 36.093 21.6983 36.093 22.1424C36.093 22.3737 36.2513 22.61 36.2679 22.85C36.2857 23.1068 36.3419 23.4738 36.4428 23.7078C36.6003 24.0729 36.8076 24.4279 36.9999 24.7959C37.145 25.0737 37.3881 25.2866 37.5181 25.5736C37.6637 25.8952 37.8029 26.2337 37.9132 26.5749C37.9958 26.8302 38.0816 27.0847 38.1658 27.3393C38.2599 27.6236 38.4616 27.8461 38.5674 28.1237C38.7323 28.5562 39.1264 28.857 39.2994 29.2986C39.377 29.4965 39.5884 29.6716 39.714 29.8426C39.9586 30.1758 40.2726 30.4047 40.5787 30.6737C40.9304 30.9828 41.1473 31.3912 41.4564 31.7285C42.4031 32.7615 43.8017 33.2575 44.8701 34.1183C45.5159 34.6387 47.8717 35.4667 47.1534 35.0596C46.7259 34.8173 46.2083 34.6874 45.7446 34.5522C44.8558 34.2932 43.9391 34.0776 43.0305 33.9047C42.4959 33.803 42.2475 33.6007 41.803 33.2639C41.2753 32.864 40.6006 32.7103 40.0249 32.4027C39.5059 32.1254 38.9747 31.6342 38.5642 31.2111C37.8046 30.4283 37.2455 29.4256 36.8509 28.404C36.7075 28.0327 36.4682 27.7166 36.3262 27.3426C36.0793 26.6924 35.9066 26.036 35.8339 25.34C35.7953 24.9703 35.7877 24.5903 35.8015 24.2185C35.8137 23.8935 36.1661 24.7225 36.2031 24.8092C36.608 25.7576 36.9986 26.7038 37.5375 27.5896C37.9783 28.3141 38.4336 29.014 38.8298 29.7625C39.1334 30.3362 39.4379 30.9673 39.837 31.4748C40.0123 31.6976 40.2287 31.9028 40.3747 32.149C40.5181 32.3909 40.5234 32.1554 40.3779 32.0055C39.8588 31.4705 39.2918 30.9994 38.8006 30.4334C38.487 30.0721 38.1436 29.5554 37.7318 29.2986C37.4732 29.1372 38.1304 29.7673 38.3245 30.0062C38.8436 30.6446 39.3771 31.5318 40.1221 31.9087C40.4527 32.076 40.9438 32.1076 41.1649 32.4494" stroke="#F2F2F2" stroke-width="3" stroke-linecap="round"/>
</svg>
