<svg width="236" height="104" viewBox="0 0 236 104" fill="none" xmlns="http://www.w3.org/2000/svg">
<path d="M101.908 15.6003C100.549 14.9611 99.2221 13.8797 98.1547 12.8123C96.7538 11.4114 95.3883 10.0418 94.0906 8.54447C91.9041 6.02156 90.2701 3.22984 86.7881 2.38935C85.5428 2.08876 83.6729 1.85214 82.3809 2.11055C80.8172 2.42328 80.8799 3.64272 79.9896 4.69484C77.769 7.31919 76.6102 10.6819 75.1856 13.7345C74.4391 15.3341 73.6368 16.8857 72.9123 18.4956C72.5688 19.2588 71.7971 20.6281 71.7971 21.3909C71.7971 22.0118 71.1484 23.4787 72.1402 23.5141C73.9403 23.5784 75.2899 21.9381 76.6654 20.962C80.746 18.0661 85.4379 17.4223 90.1981 16.4582C92.2427 16.0441 94.4005 16.1794 96.4819 16.1794C97.8973 16.1794 99.4474 16.5654 100.75 16.5654" stroke="white" stroke-width="3" stroke-linecap="round"/>
<path d="M71.411 24.0929C71.0148 24.181 70.5918 24.8443 70.3172 25.1009C69.4181 25.941 68.2151 25.9841 67.2825 26.7094C65.9461 27.7489 64.1474 28.7858 62.4892 29.1543C60.8879 29.5101 59.5269 30.4982 58.0177 31.0308C57.0109 31.3862 55.9967 31.7846 55.0259 32.2426C52.2403 33.5565 48.772 33.7438 45.7396 33.7438C41.7633 33.7438 38.7525 32.7889 35.1022 31.3204C33.6225 30.7251 32.1466 30.2019 30.6842 29.5832C29.4946 29.0799 28.5218 28.1747 27.2957 27.8032C25.8426 27.3628 24.3167 26.2826 22.8884 25.6478C22.3302 25.3997 21.7285 25.1368 21.1405 24.9722C20.2753 24.73 19.55 24.1878 18.7171 23.9428C17.0378 23.4489 15.2844 22.8302 13.5056 22.9348C12.8955 22.9707 13.5455 24.2061 13.8059 24.3717C14.4883 24.806 15.2072 25.2071 15.8647 25.6371C17.0759 26.429 18.4062 26.8707 19.7787 27.2884C21.0819 27.6851 22.2411 28.4942 23.4996 29.0256C24.3917 29.4023 25.2168 29.9095 26.0303 30.4518C27.0089 31.1042 28.2163 31.4269 29.0972 32.2426C30.2923 33.3492 32.1821 33.4777 33.5795 34.2264C35.069 35.0243 37.2537 35.3563 38.8982 35.674C40.8594 36.0529 42.9192 36.1722 44.8925 36.4353C47.2103 36.7444 49.3849 37.0251 51.7231 37.0251C52.783 37.0251 53.749 36.8663 54.7685 36.5533C56.3695 36.0618 58.0572 35.673 59.6261 35.0949C61.5739 34.3774 63.4283 33.4869 65.3845 32.7358C67.8163 31.8022 70.2106 30.5157 72.6977 29.7762C74.4407 29.258 75.9392 28.507 77.5875 27.7817C78.2787 27.4776 79.0133 27.2815 79.7 26.9667C80.4543 26.621 81.0449 26.0347 81.791 25.68C82.585 25.3025 83.2253 24.8224 83.9571 24.3288C84.9841 23.6362 86.1934 23.2866 87.2491 22.6346C89.1633 21.4523 91.5211 20.4711 93.6723 19.8465C95.6982 19.2584 97.6156 18.768 99.5916 18.1094" stroke="white" stroke-width="3" stroke-linecap="round"/>
<path d="M28.754 32.972C28.0699 32.972 28.1329 33.3118 27.6173 33.5939C26.565 34.1697 25.5891 34.7759 24.5076 35.2882C22.8374 36.0793 21.1163 36.9923 19.3819 37.6044C18.4234 37.9427 17.5338 38.456 16.551 38.7625C15.4628 39.102 14.0293 39.1386 13.0767 39.8134C12.1465 40.4723 11.0522 40.81 10.0313 41.3146C9.72382 41.4666 7.53289 42.7018 7.52205 42.3441C7.48245 41.0374 7.43388 39.551 7.75796 38.2907C8.09622 36.9752 8.85371 35.7357 9.21631 34.4303C9.73516 32.5625 10.2968 30.6864 10.9964 28.8757C11.4305 27.7521 12.0061 25.422 13.1196 24.8652" stroke="white" stroke-width="3" stroke-linecap="round"/>
<path d="M7.136 43.0088C7.136 44.1609 7.48093 45.2893 7.52204 46.4402C7.58021 48.0689 7.5913 49.5984 7.33974 51.2335C7.17905 52.278 6.75556 53.2562 6.56767 54.2896C6.48259 54.7576 6.24528 54.8082 6.16019 55.2761C5.95331 56.414 5.91866 57.5076 5.63475 58.6432C5.3095 59.9442 5.23618 61.5971 5.20583 62.9325C5.16514 64.7225 5.20583 66.502 5.20583 68.2941C5.20583 70.3424 5.78488 72.4525 5.78488 74.4707" stroke="white" stroke-width="3" stroke-linecap="round"/>
<path d="M5.59192 58.0642C8.84606 58.0642 12.1206 58.1682 15.3715 58.0213C17.4166 57.9288 19.744 57.9864 21.6982 57.335C22.5209 57.0608 23.3902 57.1256 24.2074 56.8203C25.3455 56.3951 26.441 56.1479 27.5959 55.823C31.4036 54.7521 35.3452 52.6597 39.37 52.6597" stroke="white" stroke-width="3" stroke-linecap="round"/>
<path d="M50.5651 48.2201C52.2033 48.2201 53.9883 46.9897 55.4334 46.3328C56.4984 45.8487 57.5782 45.3976 58.6718 44.9817C59.819 44.5454 60.7764 43.8118 61.8781 43.2767C63.993 42.2494 65.7587 40.4248 67.9367 39.4914C70.5217 38.3835 72.9428 36.5427 75.3679 35.1056C77.4938 33.8458 79.5828 32.3985 81.5337 30.8378C82.2322 30.279 82.9019 29.7168 83.614 29.165C84.5628 28.4296 86.1394 27.6291 86.8524 26.6664C87.8542 25.3141 89.5839 24.4496 90.7878 23.2457C91.3737 22.6599 92.2358 21.655 93.029 21.3906" stroke="white" stroke-width="3" stroke-linecap="round"/>
<path d="M64.8484 80.0685C64.8484 78.079 66.0571 76.9987 67.2826 75.6076C68.6816 74.0195 70.3062 72.5584 71.604 70.9001C71.9824 70.4167 72.5123 70.0278 72.8586 69.5276C73.1764 69.0686 73.3 68.4031 73.813 68.1014C74.8695 67.4799 75.4112 66.1889 76.6225 65.7852" stroke="white" stroke-width="3" stroke-linecap="round"/>
<path d="M84.3431 57.6782C86.9121 54.9741 89.3406 52.4511 92.2569 50.1076C95.6612 47.372 98.7687 44.3902 101.801 41.2717C104.477 38.519 107.337 35.9186 110.015 33.1649C110.567 32.5965 111.707 31.5031 111.945 30.7308C112.229 29.8073 113.121 29.1282 113.489 28.1465" stroke="white" stroke-width="3" stroke-linecap="round"/>
<path d="M107.698 35.481C108.817 35.5928 109.352 36.6227 110.443 36.7892C111.955 37.0198 113.435 37.4188 114.947 37.647C116.533 37.8864 118 38.5527 119.558 38.9124C121.616 39.3873 123.957 39.7704 126.046 39.9096C127.82 40.0279 129.596 40.563 131.418 40.7032C132.634 40.7967 133.94 40.7698 135.15 40.9283C137.54 41.2419 139.857 41.4259 141.98 42.7406C143.364 43.5969 144.733 44.3769 146.109 45.2176C147.275 45.9301 148.255 46.7107 149.465 47.3516C150.114 47.6952 150.575 48.2671 151.234 48.6062C151.743 48.8679 152.435 49.1084 152.875 49.4747C154.494 50.8238 156.581 51.0455 158.505 51.8446C161.233 52.9779 164.262 53.0549 167.116 53.6354C168.843 53.9867 170.641 54.1481 172.381 54.3967C173.234 54.5186 174.722 54.4918 175.447 54.9758" stroke="white" stroke-width="3" stroke-linecap="round"/>
<path d="M133.37 82.9634C133.442 82.1226 134.252 80.4306 135.096 80.0253C136.911 79.1539 138.442 77.9299 140.243 77.0549C141.954 76.2239 143.746 75.0872 145.058 73.6878C146.19 72.48 147.555 71.0251 148.329 69.538C149.313 67.6442 151.053 66.1872 151.899 64.1978C152.61 62.5274 153.531 61.0315 153.873 59.2222C154.129 57.8639 154.56 56.1394 155.095 54.8686C155.417 54.1034 155.181 52.9083 155.181 52.0806" stroke="white" stroke-width="3" stroke-linecap="round"/>
<path d="M175.834 54.9761C175.834 58.5205 173.956 62.0561 174.718 65.6778C175.101 67.4943 174.86 69.1752 176.563 70.1816C177.885 70.963 180.145 71.5963 181.71 71.1038C184.137 70.3398 186.417 69.3649 188.766 68.4444C190.703 67.6853 192.266 66.4235 194.256 65.7851C198.979 64.2703 203.752 65.2509 208.604 64.7235C210.718 64.4936 212.893 64.3225 215.016 64.2302C216.955 64.1459 218.807 63.6451 220.71 63.4796C222.162 63.3534 223.425 61.9644 224.892 62.5145C225.76 62.8399 226.424 63.7941 226.887 64.6162C227.387 65.5054 228.079 66.3094 228.613 67.2327C229.227 68.2933 230.409 69.2305 230.64 70.5033C230.811 71.4459 231.037 72.3538 231.037 73.3128" stroke="white" stroke-width="3" stroke-linecap="round"/>
<path d="M5.20581 74.2776C6.87309 75.0622 9.13569 75.0457 10.932 75.2427C13.1045 75.481 15.2741 75.7985 17.4517 75.9719C20.4129 76.2078 23.3899 76.2877 26.352 76.551C29.1216 76.7971 31.9325 77.1566 34.7161 77.1729C39.4813 77.2008 44.4455 77.1751 49.171 77.7948C53.1474 78.3163 57.228 78.6924 61.2239 78.953C66.4028 79.2907 71.5834 79.5613 76.7296 80.2612C83.1376 81.1327 89.4349 81.5612 95.9242 81.6123C107.628 81.7045 119.349 81.9983 131.053 81.9983C139.096 81.9983 147.138 81.9983 155.181 81.9983C160.885 81.9983 166.59 81.9983 172.295 81.9983C174.189 81.9983 176.084 81.9983 177.978 81.9983C180.649 81.9983 183.288 81.6123 185.946 81.6123C195.041 81.6123 203.901 79.4834 212.871 78.2559C216.754 77.7247 220.708 76.9774 224.474 75.9183C225.742 75.5616 227.046 75.424 228.238 74.846C228.98 74.486 229.65 74.0532 230.458 73.8916" stroke="white" stroke-width="3" stroke-linecap="round"/>
<path d="M5.01284 74.664C4.65047 74.7546 4.61118 75.7115 4.42306 75.9937C4.00931 76.6143 3.8739 77.1594 3.85473 77.9453C3.81069 79.7512 4.24619 81.9792 3.75822 83.7359C3.30438 85.3697 3.07253 87.0463 2.84675 88.7114C2.64122 90.2272 2.11757 91.5636 2.11757 93.1079C2.11757 93.8719 1.83274 95.3493 2.14974 96.089C2.58182 97.0972 4.57804 97.4096 5.44177 97.869C7.42528 98.9241 10.467 98.7992 12.7336 98.9735C15.2324 99.1658 17.7322 99.2008 20.2184 99.5204C23.9056 99.9945 27.666 100.721 31.3919 100.721C33.1565 100.721 34.8489 100.984 36.5927 101.097C38.0232 101.189 39.4509 101.069 40.882 101.204C44.6713 101.561 48.5998 101.3 52.4094 101.3C56.5736 101.3 60.7378 101.3 64.902 101.3C67.9691 101.3 70.9951 101.397 74.0489 101.504C77.0863 101.611 80.0217 102.266 83.0778 102.266C89.5543 102.266 96.0194 102.073 102.487 102.073C104.299 102.073 106.022 101.687 107.806 101.687C109.7 101.687 111.594 101.687 113.489 101.687C117.043 101.687 120.632 101.82 124.18 101.59C131.989 101.083 139.797 100.652 147.599 100.132C149.528 100.003 151.426 99.5534 153.358 99.4132C155.864 99.2313 158.376 99.0741 160.885 98.8985C164.632 98.6362 168.362 98.2403 172.123 98.2122C175.594 98.1863 179.006 98.5982 182.482 98.5982C186.058 98.5982 189.403 97.8702 192.926 97.483C199.215 96.7919 205.428 94.8045 211.606 93.494C214.592 92.8607 217.543 92.1975 220.506 91.4566C222.958 90.8436 225.289 90.4803 227.53 89.2476C229.208 88.3248 230.487 86.7858 232.13 85.8269C232.44 85.646 233.294 85.3233 233.353 84.894C233.499 83.8187 233.739 82.7897 233.739 81.6984C233.739 79.9494 233.503 78.129 233.16 76.4119C232.993 75.5788 231.906 74.8105 231.423 74.085" stroke="white" stroke-width="3" stroke-linecap="round"/>
<path d="M223.316 61.7318C222.541 61.6456 221.432 60.1953 220.796 59.8016C219.661 59.099 218.621 58.2824 217.332 57.9143C214.843 57.203 212.479 56.4425 209.912 55.9841C206.148 55.3121 202.362 54.6379 198.567 54.054C196.81 53.7837 195.109 53.2122 193.387 52.7565C191.765 52.327 190.119 52.226 188.573 51.5447C187.358 51.0092 185.877 50.9389 184.605 50.5475C183.16 50.1029 181.83 49.5487 180.423 48.9926C178.91 48.3944 177.453 47.4863 175.984 46.7836C174.794 46.2148 175.232 46.9259 175.255 47.8988C175.28 49.0079 175.641 50.2204 175.641 51.3088C175.641 52.3291 175.819 53.936 175.255 54.7831" stroke="white" stroke-width="3" stroke-linecap="round"/>
<path d="M173.71 46.676C172.483 46.5737 171.569 46.0064 170.515 45.4428C168.251 44.2321 165.782 43.3445 163.48 42.1937C159.857 40.382 156.128 38.6792 152.318 37.2503C149.261 36.1041 146.192 34.97 143.128 33.8617C140.081 32.7596 137.327 31.1719 134.442 29.6904C133.365 29.1374 132.454 28.3499 131.354 27.8567C130.789 27.6034 130.339 27.2182 129.831 26.8702C128.994 26.2965 128.026 25.9629 127.193 25.4011C125.246 24.0878 123.502 22.6677 121.392 21.5622C118.212 19.8966 114.782 18.9116 111.387 17.7233C108.687 16.7783 105.925 15.886 103.066 15.6001" stroke="white" stroke-width="3" stroke-linecap="round"/>
<path d="M100.75 21.7768C101.415 21.4024 101.378 20.3178 102.004 20.0396C102.443 19.8446 103.071 19.2224 103.216 18.7743C103.453 18.0427 104.073 17.2948 104.61 16.7583" stroke="white" stroke-width="6" stroke-linecap="round"/>
<path d="M106.926 26.4093C106.926 24.6102 107.406 22.6697 107.023 20.9083C106.784 19.8106 105.772 17.9043 107.473 17.7342C109.816 17.5 109.049 23.0844 109.049 24.4791" stroke="white" stroke-width="6" stroke-linecap="round"/>
<path d="M113.489 18.6885C112.982 18.8151 113.442 20.8674 113.489 21.1119C113.768 22.5625 113.71 24.0322 113.961 25.4977C114.163 26.6842 114.509 27.7654 114.69 28.9184C114.797 29.6 114.831 30.2824 115.322 30.7735C116.815 32.2662 116.774 28.2265 116.92 27.3314C117.385 24.4828 116.993 21.8215 115.419 19.4605" stroke="white" stroke-width="6" stroke-linecap="round"/>
<path d="M120.051 25.4441C120.083 25.2554 120.551 24.0555 120.716 24.3396C120.926 24.6992 120.702 25.1298 121.017 25.4441C121.486 25.9138 121.789 27.1684 121.789 25.873C121.789 25.2152 122.074 23.9368 121.21 23.7498C119.906 23.4679 119.858 24.3266 119.858 25.251" stroke="white" stroke-width="6" stroke-linecap="round"/>
<path d="M123.912 23.9C124.111 24.8934 125.107 26.2434 125.606 27.0955C126.389 28.4319 126.384 29.3122 126.829 30.7414C127.184 31.8833 128.022 32.5647 128.544 33.5509C128.738 33.916 129.024 34.368 129.424 34.5374C129.82 34.7056 129.702 33.5579 129.702 33.3579C129.702 31.122 128.887 29.2869 128.308 27.1813C128.049 26.2366 127.697 24.8297 126.914 24.1895C126.407 23.7747 126.018 23.5024 125.456 23.1279" stroke="white" stroke-width="6" stroke-linecap="round"/>
<path d="M133.563 27.7603C134.905 28.0858 136.43 29.0553 137.037 30.2695" stroke="white" stroke-width="6" stroke-linecap="round"/>
<path d="M143.6 39.9204C143.54 39.6805 143.158 39.5873 143.021 39.3413C142.71 38.7863 142.634 38.2674 142.634 37.6363C142.634 37.298 142.569 35.7893 142.935 35.6847C145.029 35.0863 143.6 37.8774 143.6 38.9553" stroke="white" stroke-width="6" stroke-linecap="round"/>
<path d="M147.074 36.6392C148.058 36.6392 148.854 37.297 149.776 37.6042" stroke="white" stroke-width="6" stroke-linecap="round"/>
<path d="M152.672 38.5693C152.786 39.9475 153.246 41.2024 154.023 42.3439C154.422 42.9319 154.869 42.9571 155.438 43.2983C156.046 43.6628 156.236 44.2308 157.004 44.4457C158.497 44.8639 157.789 42.9178 157.411 42.0544C157.166 41.4937 156.7 41.3389 156.275 40.9284C155.869 40.5371 155.552 39.9672 155.181 39.5344" stroke="white" stroke-width="6" stroke-linecap="round"/>
<path d="M167.534 45.3252C167.556 46.0646 169.757 49.7764 170.686 48.1776C171.127 47.419 170.306 46.0973 169.464 46.0973" stroke="white" stroke-width="6" stroke-linecap="round"/>
<path d="M19.1032 37.9902C19.6861 38.5389 20.5014 38.6942 21.2264 38.9982C22.9589 39.7248 24.765 40.7139 26.6309 41.0356C29.8035 41.5826 32.7507 42.6418 35.7885 43.6735C39.431 44.9106 43.0617 46.1274 46.7047 47.3623C47.881 47.7611 49.0256 48.3037 50.2219 48.7563C51.6443 49.2945 53.0792 49.5639 54.4683 50.1504C58.5006 51.8529 62.8625 52.4534 66.9501 53.9249C68.8284 54.6011 70.7903 54.9729 72.6334 55.7479C74.722 56.626 77.1273 57.3298 79.3676 57.7209C82.4507 58.2593 85.5657 58.52 88.6324 59.0721C92.6268 59.791 96.7572 60.3818 100.825 60.5626C104.925 60.7448 108.955 61.3947 112.266 58.5252C114.916 56.2291 116.191 52.5816 116.191 49.1424C116.191 48.1518 116.22 47.2112 116.041 46.2471C116.017 46.1193 115.839 44.2541 115.848 44.2526C117.274 43.9933 118.291 46.1324 119.43 46.6331C120.095 46.926 120.841 47.9077 121.403 48.4132C121.854 48.8193 122.493 48.9033 122.99 49.2711C123.667 49.7727 124.121 50.6527 124.877 51.0726C125.242 51.2754 125.299 51.5155 125.499 51.8875C125.777 52.4034 126.447 52.8122 126.614 53.3566C126.855 54.1403 127.367 54.8249 127.697 55.587C127.986 56.2546 128.351 56.7383 128.351 57.485C128.351 57.8825 128.278 58.3561 128.448 58.7289C128.721 59.3303 128.652 60.135 128.834 60.7878C129.168 61.9903 129.316 63.3538 129.316 64.5945C129.316 66.5476 128.586 67.0971 127.193 68.3905C125.832 69.6545 124.077 71.2652 122.228 71.6826C119.467 72.3062 116.719 73.1195 113.886 73.1195C109.692 73.1195 105.869 72.1498 101.822 71.1786C101.116 71.009 100.571 70.6288 99.8168 70.5137C98.6381 70.3339 97.4712 70.1612 96.2995 69.9454C94.6216 69.6363 93.0134 69.0839 91.3347 68.7766C86.971 67.9776 83.1175 66.1629 78.9387 64.8197C75.8455 63.8255 72.5196 63.6591 69.4379 62.5035C68.0056 61.9664 66.4411 61.952 64.9985 61.4955C62.7806 60.7936 60.5449 60.1182 58.3501 59.3509C54.9358 58.1573 51.386 57.664 48.0558 56.1339C46.6138 55.4713 45.2396 54.7205 43.8309 53.9464C42.3384 53.1262 40.9851 52.405 39.4344 51.6838C36.1495 50.1559 32.4767 49.3829 29.0865 48.1237C26.8859 47.3063 24.5676 46.5574 22.4488 45.6252C21.0827 45.0241 19.5489 44.8784 18.1595 44.3491C16.9297 43.8806 15.7366 43.3257 14.4707 42.9229C13.7859 42.705 13.2638 42.5739 12.7336 42.0436C12.3369 41.6469 11.6335 41.5806 11.3824 41.0785" stroke="white" stroke-width="3" stroke-linecap="round"/>
</svg>
