<svg width="230" height="106" viewBox="0 0 230 106" fill="none" xmlns="http://www.w3.org/2000/svg">
<path d="M18.8155 12.5549C16.497 12.5363 15.6373 16.7887 14.7942 18.3109C14.1516 19.4712 13.9522 20.8506 13.3191 21.9937C12.6237 23.2493 12.5281 24.6842 11.842 25.9229C10.6129 28.1421 9.62358 30.5836 8.58704 32.9166C8.35493 33.439 8.09247 34.3849 7.74188 34.8256C7.35547 35.3113 7.49793 36.1684 7.11151 36.6542C6.43956 37.4989 7.0389 40.043 6.06314 40.532" stroke="white" stroke-width="4" stroke-linecap="round"/>
<path d="M5.33459 41.2652C5.30365 45.1094 2.62637 48.5023 2.59459 52.4504C2.57937 54.3415 3.29025 55.8126 3.27464 57.7516C3.26577 58.8541 3.44187 59.9202 3.48976 60.9554C3.5349 61.9309 3.90617 62.7267 3.94974 63.6685C4.02666 65.3309 5.15991 67.2392 5.95668 68.7341C6.28883 69.3573 7.08045 70.0944 7.25224 70.7287C7.50945 71.6786 8.55105 71.3841 9.29288 71.6073C12.9141 72.6968 17.0164 72.9958 20.7904 73.164C23.0471 73.2646 25.4358 73.6816 27.5944 74.1903C28.6885 74.4482 29.8745 74.2342 30.9647 74.4911C32.0974 74.7581 32.9973 74.9864 34.2129 74.9962C39.5598 75.0393 44.841 76.3133 50.1553 76.3561C53.2181 76.3807 56.2752 76.6517 59.3741 76.6766C61.0618 76.6902 63.1577 76.8584 64.7893 77.336C66.3271 77.7862 67.9277 77.4572 69.4702 77.7568C74.6984 78.7723 80.2288 78.3702 85.3687 79.5816C86.3974 79.824 87.5494 79.6055 88.5647 79.922C90.015 80.3742 91.9127 80.5901 93.4306 80.6454C95.1096 80.7066 96.8486 80.4914 98.4877 80.8777C99.4298 81.0997 100.381 80.853 101.323 81.1468C101.867 81.3164 102.793 81.4392 103.355 81.4642C105.189 81.546 106.978 81.986 108.838 82.001C109.786 82.0086 111.053 82.1283 111.966 82.3956C112.876 82.6618 113.857 82.3525 114.748 82.6643C115.983 83.0963 118.132 83.3074 119.44 83.3179C121.075 83.331 122.756 83.5707 124.361 83.8364C126.016 84.1103 127.863 84.0757 129.539 84.1381C130.9 84.1888 132.281 84.4065 133.685 84.4178C135.86 84.4353 137.992 84.9451 140.132 84.9623C142.52 84.9815 144.927 85.2472 147.357 85.2668C150.092 85.2888 152.809 85.0643 155.495 85.086C157.492 85.102 159.414 84.3786 161.457 84.395C163.73 84.4133 166.233 84.6751 168.445 84.1912C172.586 83.2852 176.948 82.7852 181.105 82.5826C182.861 82.4971 185.264 82.7518 187.009 82.3701C188.113 82.1287 189.217 81.909 190.372 81.9183C190.877 81.9223 192.86 81.7026 193.161 81.3249C193.467 80.9397 195.395 81.113 195.921 80.964C196.408 80.8259 197.892 80.8019 198.227 80.3805C198.332 80.2484 199.144 80.0854 199.328 80.0335C199.998 79.8434 200.15 79.8465 200.526 79.1674C201.048 78.2237 200.326 77.6335 199.941 76.9322C199.576 76.2654 199.476 74.8682 199.482 74.1096C199.49 73.1149 199.308 72.3725 199.263 71.3984C199.222 70.5107 198.408 69.6799 198.025 68.9253C197.637 68.1603 197.169 67.1638 196.599 66.5054C195.976 65.7865 195.728 65.5856 194.857 65.0819C193.964 64.5649 192.912 64.955 191.983 64.6756C190.953 64.3656 189.717 64.1995 188.603 63.9368C187.551 63.6888 186.074 63.4102 185.007 63.4016C182.869 63.3844 180.094 61.9787 178.146 61.0748C175.869 60.0178 173.45 59.6634 171.124 58.9109C168.9 58.1914 166.602 57.3805 164.328 56.8447C161.96 56.2866 159.77 55.1396 157.36 54.5718C152.785 53.4935 148.548 51.0759 144.029 49.7161C141.753 49.0313 139.359 48.1553 137.197 47.1296C136.237 46.6738 135.032 46.0631 134.063 45.7496C133.21 45.4736 131.373 44.8354 130.824 44.1225C130.258 43.3873 128.3 42.9889 127.518 42.4949C126.27 41.7062 124.895 41.2095 123.626 40.5478C121.326 39.3486 119.139 38.3659 116.718 37.4269C111.827 35.5295 107.055 33.0509 102.016 31.6434C99.7372 31.007 97.5847 30.261 95.2844 29.9061C94.0148 29.7102 92.5574 29.4552 91.3299 29.0258C90.4284 28.7105 89.1666 28.1463 88.1919 28.1385C87.6441 28.1341 86.4465 27.6855 85.9089 27.4359C84.6055 26.8309 84.6775 27.5887 84.0274 28.406C83.1937 29.454 81.6856 31.17 80.5736 31.8266C79.3179 32.5681 77.8609 33.9025 76.9339 35.0678C75.9724 36.2765 73.5096 38.2482 71.967 38.5857C67.3831 39.5885 62.8123 41.7278 57.9694 41.6888C48.3812 41.6116 39.0504 38.5683 31.5436 32.4994C29.5319 30.873 27.6952 29.232 25.9234 27.391C24.4633 25.874 23.9099 23.8293 22.5385 22.2459C22.0352 21.6648 21.6614 20.4408 21.3543 19.7185C21.0911 19.0993 21.0035 17.7625 20.6511 17.3045C20.1766 16.6879 19.9959 15.5606 20.0022 14.7814C20.0091 13.9198 19.3899 13.5035 19.0545 12.8032" stroke="white" stroke-width="4" stroke-linecap="round"/>
<path d="M5.81343 71.5654C5.79902 73.3562 5.36646 75.4335 6.6814 76.7997C7.22358 77.3631 8.27338 77.341 9.01778 77.5164C10.0842 77.7678 11.0907 78.2518 12.1417 78.4995C16.3431 79.4897 20.8802 80.3077 25.2696 80.343C27.8293 80.3636 30.4046 81.2322 32.9569 81.3901C35.3525 81.5384 37.6503 81.6742 40.0746 81.6937C44.2908 81.7277 48.3789 82.4995 52.5816 82.5333C57.7521 82.5749 62.7782 82.6906 67.859 83.3815C70.647 83.7607 73.4985 84.5217 76.2935 84.6947C77.2879 84.7562 78.1048 84.9556 79.0618 84.9633C79.8604 84.9697 81.4876 84.9512 82.1904 85.3579C82.8603 85.7456 84.1955 85.4972 84.9597 85.5034C85.9449 85.5113 86.834 85.7648 87.8484 85.7729C89.7092 85.7879 91.5031 86.0487 93.2665 86.0629C95.2861 86.0791 97.2132 86.5872 99.1644 86.6029C101.142 86.6189 103.117 87.62 105.058 87.6356C107.053 87.6517 109.163 88.4076 111.195 88.424C113.416 88.4418 115.529 89.4441 117.745 89.4619C119.805 89.4785 121.748 90.2331 123.828 90.2498C125.561 90.2638 127.403 90.5249 129.246 90.5398C133.426 90.5734 137.794 91.1207 142.007 91.3814C145.986 91.6277 149.665 90.7041 153.576 90.7356C157.596 90.7679 161.794 89.5702 165.872 89.603C167.844 89.6188 169.846 88.896 171.793 88.9117C172.918 88.9208 174.021 88.7176 175.089 88.3909C176.042 88.0996 177.297 88.3117 178.171 87.923C179.106 87.5074 180.652 87.2588 181.67 87.267C182.744 87.2756 183.782 86.7914 184.805 86.7996C185.78 86.8075 186.628 86.568 187.578 86.5756C188.34 86.5817 189.996 86.4815 190.713 86.1629C191.394 85.86 192.852 86.0027 193.606 85.8989C194.553 85.7682 195.686 86.1558 196.604 85.8956C198.232 85.4341 199.998 85.5031 201.565 84.7177" stroke="white" stroke-width="4" stroke-linecap="round"/>
<path d="M6.24182 78.2195C6.22919 79.7892 5.73417 81.43 5.72039 83.1415C5.71107 84.3002 5.19176 87.2454 5.86767 88.1237C6.18403 88.5348 5.90509 90.1259 5.90083 90.6555C5.89635 91.2111 6.77137 91.989 7.03688 92.512C7.64924 93.7183 9.2946 94.5244 10.4426 95.0573C12.1251 95.8383 14.077 96.3648 15.9182 96.5245C17.7173 96.6806 19.4531 97.4293 21.2634 97.5528C22.8461 97.6608 24.6744 98.5655 26.3142 98.5787C28.3478 98.5951 30.3714 98.8577 32.4415 98.8743C36.2339 98.9049 39.6684 98.9861 43.2758 99.6868C46.6557 100.343 50.1615 100.249 53.6435 100.277C57.0127 100.304 60.5567 100.086 64.0038 100.114C66.2109 100.131 68.5104 100.643 70.7582 100.661C73.1046 100.68 75.4511 100.698 77.7975 100.717C85.7596 100.781 93.7389 101.831 101.691 101.895C105.152 101.923 108.659 102.197 112.048 102.225C115.669 102.254 119.196 102.775 122.763 102.803C130.122 102.863 137.329 103.167 144.683 103.226C146.607 103.242 148.489 102.764 150.481 102.78C152.181 102.794 154.009 102.316 155.772 102.33C157.583 102.345 159.434 101.867 161.196 101.881C163.01 101.896 164.7 101.765 166.497 101.677C168.503 101.58 170.465 100.97 172.525 100.987C174.69 101.004 176.865 100.154 179.037 100.054C179.895 100.015 180.921 99.5073 181.8 99.3512C182.697 99.1919 183.942 99.1084 184.827 99.1156C185.365 99.1199 186.883 99.0319 187.359 98.7665C188.089 98.3594 189.152 98.6916 189.892 98.3627C191.6 97.6028 193.737 98.0434 195.441 97.2852C196.168 96.9622 197.756 96.6272 198.566 96.5304C199.203 96.4541 200.587 96.2696 201.047 95.8525C201.72 95.2433 203.21 95.4065 204.012 94.9595C204.637 94.611 206.074 94.1546 206.789 94.1197C207.711 94.0749 208.662 93.5872 209.566 93.3895C210.089 93.275 210.583 92.9752 211.135 92.9232C211.769 92.8635 212.845 92.8309 213.414 92.572C216.537 91.1507 220.045 90.8177 223.078 89.0783C226.21 87.2817 227.347 84.072 227.375 80.615C227.38 79.9711 226.793 78.554 226.379 78.0755C225.915 77.5405 226.185 76.556 225.847 75.9228C225.515 75.2991 225.54 74.0471 225.507 73.3338C225.468 72.4911 224.942 71.3884 224.793 70.5091C224.536 68.9904 223.222 67.9637 222.925 66.5394C222.617 65.066 221.963 63.067 221.075 61.9129C220.265 60.86 219.684 59.9628 218.582 59.0466C217.389 58.0547 215.818 57.7402 214.556 57.0437C213.483 56.4519 211.468 55.807 210.23 55.7225C209.596 55.6793 208.83 54.9723 208.189 54.9672C207.561 54.9621 206.331 54.6619 205.852 54.2642C205.43 53.9132 203.953 54.0983 203.392 53.9296C202.652 53.7067 201.566 53.706 200.854 53.3755C199.388 52.6951 197.185 52.9081 195.558 52.895C193.73 52.8803 191.735 51.9536 189.838 51.8637C188.881 51.8184 187.912 51.6019 187.003 51.5946C186.463 51.5902 184.459 51.1653 184.49 51.2049C184.831 51.6484 185.678 51.929 186.113 52.3811C186.606 52.8939 186.957 53.4158 187.359 53.9374C187.792 54.5012 188.267 55.1155 188.737 55.6043C189.227 56.1132 190.126 56.7839 190.462 57.3971C190.749 57.9193 191.379 58.54 191.708 58.9671C192.041 59.4003 192.792 60.5196 193.192 60.758C193.778 61.1066 194.242 62.237 194.756 62.7411C195.441 63.4134 196.27 64.1698 196.664 65.0964C197.329 66.6605 198.368 67.9738 199.037 69.5492C199.773 71.2787 199.932 73.3528 200.8 74.9823C201.174 75.6841 201.101 77.0066 201.139 77.8176C201.178 78.6552 201.366 79.5059 201.359 80.4056C201.347 81.9526 202.056 83.6152 202.043 85.2143" stroke="white" stroke-width="4" stroke-linecap="round"/>
<path d="M202.274 86.4475C202.264 87.741 202.334 88.2476 203.71 87.6359C204.874 87.1179 206.013 87.0091 207.21 86.7472C208.238 86.5224 209.412 86.3184 210.466 86.2671C211.542 86.2147 212.591 85.2989 213.606 85.3071C214.694 85.3159 215.792 84.3395 216.866 84.3481C217.926 84.3566 218.869 83.501 219.885 83.3871C220.556 83.3119 222.023 82.4132 222.666 82.0548C223.579 81.546 224.36 81.0426 225.208 80.4742" stroke="white" stroke-width="4" stroke-linecap="round"/>
<path d="M82.284 28.8297C82.2572 28.5949 81.2927 27.8567 81.0355 27.6429C80.4557 27.1608 80.1812 26.9845 79.7755 26.2233C79.1595 25.0675 78.3109 23.9848 77.983 22.7741C77.6528 21.5547 77.083 19.7582 77.7368 18.448C78.2891 17.3413 79.6068 15.7419 79.7492 14.5232C80.006 12.3244 83.0131 9.74967 84.3787 8.03311C85.3281 6.83958 87.947 2.7661 89.6004 2.7794C91.2271 2.7925 91.6757 2.93499 92.7886 4.09137C93.7591 5.09976 94.7665 5.81487 95.9548 6.47051C98.5927 7.92596 101.479 9.19993 103.991 10.6541C106.315 11.9989 108.442 13.2289 110.827 14.4722C111.426 14.7847 112.568 15.1109 112.985 15.6528C113.076 15.7707 114.483 16.505 114.665 16.5284C115.741 16.6666 118 18.2271 118.794 18.97C119.6 19.7236 121.186 20.7303 122.203 21.0364C123.381 21.3908 124.393 22.509 125.575 22.7877C126.953 23.1123 128.504 24.1703 129.775 24.8331C130.955 25.4486 132.41 26.0211 133.425 26.9698C134.418 27.8985 136.098 29.1965 137.324 29.7654C138.676 30.3928 140.426 31.4503 141.505 32.3853C143.077 33.7462 145.14 34.4025 146.915 35.3983C148.494 36.2843 150.294 37.3745 151.966 38.0115C154.831 39.1028 157.404 40.7616 160.231 42.0738C161.475 42.6512 162.793 42.9792 163.953 43.6501C165.135 44.3341 166.522 45.3754 167.804 45.761C168.779 46.0545 170.57 46.8464 171.323 47.4725C171.618 47.7173 172.93 48.15 173.324 48.2686C173.942 48.4545 174.517 48.5674 175.113 48.8441C175.791 49.1587 176.669 49.3615 177.396 49.533C178.105 49.7001 178.979 50.2586 179.679 50.3039C181.147 50.3992 182.481 51.3118 184.007 51.324" stroke="white" stroke-width="4" stroke-linecap="round"/>
<path d="M85.6783 26.1479C85.884 24.571 88.2474 23.2587 89.3234 22.2362C90.719 20.9101 92.9948 20.2489 94.6453 19.5149C99.1259 17.5222 103.267 19.3951 107.511 20.6721C109.393 21.2385 111.113 22.4503 113.047 22.9061C114.916 23.3466 116.886 24.0828 118.571 25.0579C120.558 26.2077 122.975 26.7311 125.054 27.6964C127.143 28.6659 129.364 30.0123 131.41 31.1412C133.381 32.2283 135.391 33.4368 137.351 34.6922C139.277 35.9257 141.965 36.2035 143.698 37.6443C145.781 39.3767 149.326 39.3626 151.325 41.2088C152.123 41.9465 153.803 42.2582 154.805 42.8378C155.798 43.4124 156.985 43.7756 158.045 44.3281C160.717 45.7213 163.701 46.5797 166.574 47.2567C168.874 47.7988 170.625 48.9998 173.064 49.0195C175.236 49.0369 176.991 50.2826 179.076 50.2994C179.573 50.3034 181.426 50.8149 181.787 51.1149C182.382 51.6098 183.936 51.9056 184.721 52.3154" stroke="white" stroke-width="4" stroke-linecap="round"/>
<path d="M19.5383 12.5608C19.7371 11.0366 25.7603 13.4239 26.4583 14.1491C27.304 15.0278 27.8454 15.915 28.4165 16.9564C29.0743 18.1561 29.8712 20.1606 30.9132 21.027C31.4722 21.4917 31.6065 22.415 32.2238 22.8165C32.7161 23.1366 33.3856 23.63 33.8466 24.0611C34.8005 24.9532 36.0916 25.5536 37.2557 26.1959C39.8529 27.6289 42.678 28.5843 45.5423 29.2594C46.9329 29.5872 48.5747 30.2023 49.9908 30.2941C50.4708 30.3253 51.6191 30.6866 52.0334 30.9264C52.5275 31.2123 53.7197 30.9712 54.077 31.4354C54.2293 31.6334 55.7164 31.8181 56.0012 31.8204C56.7111 31.8261 57.4079 32.078 58.1672 32.0842C59.6928 32.0964 61.2185 32.1087 62.7441 32.121C64.2825 32.1334 65.6643 32.3908 67.1987 32.4032C68.6387 32.4147 70.1987 32.181 71.5367 32.1918C72.9754 32.2033 74.7025 31.8745 76.0007 31.2972C76.9337 30.8822 79.6397 30.4939 80.1101 29.5513" stroke="white" stroke-width="4" stroke-linecap="round"/>
<path d="M81.8142 78.6208C82.0902 78.5878 82.9712 77.0047 83.3959 76.663C84.0133 76.1663 84.9052 75.4023 85.272 74.7076C86.1494 73.046 88.0568 71.6818 89.2164 70.1826C90.4956 68.5289 91.6453 66.7016 93.0043 65.1636C94.2042 63.8056 94.6318 61.4071 96.0551 60.2619C96.8466 59.625 97.3473 58.1528 98.1264 57.3228C98.917 56.4807 99.3729 55.3358 100.197 54.5069C100.93 53.7691 101.458 52.8855 102.21 52.1284C102.932 51.4024 103.745 50.6211 104.264 49.7365C104.686 49.0158 105.494 47.9828 106.049 47.4246C106.548 46.9225 107.642 45.4289 107.851 44.7023C108.09 43.8741 109.216 42.5363 109.814 41.8992C110.819 40.8286 111.459 39.5111 112.492 38.4723" stroke="white" stroke-width="5" stroke-linecap="round"/>
<path d="M88.1701 78.0779C88.1842 76.3247 90.2628 74.6151 91.3924 73.4786C92.7692 72.0934 94.6663 70.4729 95.6595 68.7782C97.5463 65.5589 99.9277 62.7706 101.757 59.4674C102.283 58.5171 103.021 57.317 103.762 56.5278C104.477 55.7653 104.742 54.6073 105.47 53.8321C106.787 52.4286 107.421 50.4089 108.694 48.9865C109.913 47.624 111.224 45.8686 112.105 44.2793C112.996 42.6688 115.126 41.3474 115.702 39.6283" stroke="white" stroke-width="5" stroke-linecap="round"/>
<path d="M106.365 81.2641C106.453 80.5138 107.417 79.3945 107.831 78.758C108.335 77.9832 108.886 77.1529 109.349 76.3619C110.251 74.8225 112.208 73.7358 112.944 72.0803C114.543 68.4815 117.94 65.8518 119.527 62.2808C119.939 61.3524 121.034 60.5881 121.595 59.7111C122.115 58.8997 123.046 57.9873 123.423 57.1395C124.135 55.5373 125.314 54.137 126.163 52.6048C126.961 51.1641 128.236 49.9771 129.033 48.5774C129.432 47.877 130.815 45.8307 131.466 45.5044" stroke="white" stroke-width="5" stroke-linecap="round"/>
<path d="M112.492 80.8702C112.616 79.6999 114.057 78.6174 114.5 77.4927C114.93 76.3996 116.187 75.7199 116.583 74.6906C117.275 72.8965 119.28 71.5736 120.236 69.8484C120.989 68.4879 122.262 67.5486 123.022 66.1761C123.878 64.6316 125.554 63.363 126.19 61.7133C127.398 58.5788 130.1 56.066 131.693 53.1913C132.315 52.068 133.089 51.1205 133.645 50.005C134.002 49.2896 134.955 47.6586 135.648 47.3116" stroke="white" stroke-width="5" stroke-linecap="round"/>
<path d="M130.824 84.0231C130.895 83.4127 131.316 82.7347 131.32 82.1797C131.327 81.281 132.371 81.021 132.727 80.3437C133.18 79.4806 133.756 78.9954 134.363 78.2495C134.702 77.8326 135.645 76.6942 135.705 76.1803C135.841 75.0133 137.504 73.4087 138.197 72.5057C139.409 70.9255 140.602 69.417 141.662 67.7441C144.453 63.3379 148.473 59.8033 150.811 55.1189" stroke="white" stroke-width="5" stroke-linecap="round"/>
<path d="M137.708 83.8891C137.72 82.3577 138.494 80.742 139.309 79.4684C139.998 78.393 140.531 76.9435 141.385 76.0367C142.489 74.8645 143.197 73.1582 144.202 71.8721C145.313 70.4501 146.023 69.2236 146.753 67.5821C147.149 66.6902 148.052 65.2124 148.705 64.5189C149.687 63.4757 150.037 61.9567 151.022 60.966C151.866 60.1172 152.439 59.1978 152.905 58.1486C153.332 57.1868 154.129 56.5574 154.557 55.6987" stroke="white" stroke-width="5" stroke-linecap="round"/>
<path d="M4.81125 46.4337C5.58669 46.3519 5.963 44.8136 6.75226 44.7251C7.61709 44.6281 8.62735 43.6083 9.4144 43.2139C11.2659 42.2861 13.0426 41.081 15.2132 41.0985C16.2961 41.1072 17.2084 41.8535 18.3388 41.8626C19.0498 41.8683 20.123 42.5818 20.7394 42.9219C21.7688 43.4899 22.8291 44.0842 23.858 44.5617C24.4071 44.8166 24.9825 45.0244 25.5383 45.3142C26.1157 45.6153 26.5298 46.2841 27.2161 46.3677C27.9885 46.4617 29.5867 47.347 30.1489 47.8144C30.6781 48.2544 32.542 48.833 33.2186 48.8791C34.1691 48.944 35.0701 49.633 36.1034 49.6413C37.1923 49.6501 38.3117 49.9714 39.4739 49.9147C40.2509 49.8769 42.2178 49.1852 42.8032 48.6552C43.1487 48.3424 43.6467 48.2952 44.0136 47.926C44.3192 47.6185 44.6818 47.0369 45.0397 46.8122C46.0636 46.1695 48.1976 43.5636 48.2074 42.3493" stroke="white" stroke-width="4" stroke-linecap="round"/>
<path d="M98.2185 24.5247C98.243 21.4783 102.354 19.5826 104.415 17.9241C105.342 17.1781 112.474 13.4591 113.231 15.0393" stroke="white" stroke-width="6" stroke-linecap="round"/>
<path d="M112.167 27.5926C112.174 26.6895 112.181 25.7864 112.188 24.8833C112.194 24.1639 112.634 23.4984 112.688 22.6706C112.791 21.107 113.438 19.3961 113.451 17.7504" stroke="white" stroke-width="6" stroke-linecap="round"/>
<path d="M117.972 24.6835C118.182 24.6583 118.952 23.6976 119.186 23.4617C119.545 23.1004 120.037 22.6063 120.506 22.4734C121.463 22.2021 122.219 21.2693 123.299 21.278" stroke="white" stroke-width="6" stroke-linecap="round"/>
<path d="M125.844 34.3529C125.741 33.3297 124.896 32.345 124.905 31.2665C124.912 30.3862 124.919 29.5059 124.926 28.6256C124.935 27.6075 126.282 24.4404 124.966 23.7544" stroke="white" stroke-width="6" stroke-linecap="round"/>
<path d="M131.177 30.2088C132.151 30.2167 132.587 29.2349 133.594 29.243" stroke="white" stroke-width="6" stroke-linecap="round"/>
<path d="M138.569 39.6282C138.575 38.9152 138.56 37.6611 138.229 37.0392C137.98 36.5725 137.639 35.4627 137.644 34.9408C137.653 33.8091 137.191 32.4925 136.708 31.4849" stroke="white" stroke-width="6" stroke-linecap="round"/>
<path d="M142.691 36.4591C142.697 35.693 142.991 35.3819 143.666 35.0439C144.126 34.8131 145.169 34.8842 145.356 34.5101" stroke="white" stroke-width="6" stroke-linecap="round"/>
<path d="M151.293 45.1494C151.126 43.0773 149.99 41.268 149.895 39.2266C149.836 37.9347 148.911 36.5672 148.239 35.5186" stroke="white" stroke-width="6" stroke-linecap="round"/>
<path d="M155.657 41.7363C155.723 41.2294 156.494 41.2504 156.866 41.2534" stroke="white" stroke-width="6" stroke-linecap="round"/>
<path d="M163.298 50.1724C163.216 48.4045 161.965 46.9156 161.892 45.2348C161.847 44.2011 161.374 42.7385 160.471 42.2676" stroke="white" stroke-width="6" stroke-linecap="round"/>
<path d="M169.583 47.5136C169.67 46.8509 170.896 47.1492 171.272 47.2809" stroke="white" stroke-width="6" stroke-linecap="round"/>
<path d="M177.722 53.9829C177.657 53.187 177.453 52.3934 177.259 51.6255C177.083 50.928 176.458 50.3012 176.324 49.6612C176.163 48.8894 175.804 47.782 175.125 47.3115" stroke="white" stroke-width="6" stroke-linecap="round"/>
</svg>
