<svg width="194" height="89" viewBox="0 0 194 89" fill="none" xmlns="http://www.w3.org/2000/svg">
<path d="M27.8544 17.9155C28.66 17.9155 29.6397 16.4281 30.2513 15.906C31.2362 15.0653 32.3944 14.1797 33.5899 13.6999C35.4853 12.9394 37.122 11.5826 38.9403 10.7526C39.6239 10.4406 40.581 9.9104 41.1831 9.47546C42.0447 8.85319 43.0931 8.47427 44.0424 8.02859C45.6896 7.25524 47.3828 6.39711 49.1188 5.89403C50.6682 5.44499 52.4445 4.81114 53.8955 4.05419C55.0906 3.43081 56.6115 3.25814 57.9019 2.88419C59.6322 2.38274 61.808 2 63.6032 2C66.7497 2 69.8399 2.17618 72.8143 3.25038C73.9996 3.67845 75.2775 4.28816 76.3242 4.98304C77.4092 5.70343 78.5768 6.16256 79.1662 7.54631C79.7016 8.80292 80.679 9.94531 80.9811 11.3242C81.4348 13.3954 81.1694 15.7928 81.1694 17.9155C81.1694 19.3385 81.1694 20.7616 81.1694 22.1846C81.1694 23.6804 80.8539 25.0166 80.476 26.4359C79.6973 29.3606 78.4694 31.6589 77.1973 34.3133C76.4981 35.7723 75.8159 37.2973 75.0743 38.7342C74.7075 39.4449 74.3591 40.182 74.0128 40.9045C73.7297 41.4952 73.2556 41.9987 73.0027 42.5925C72.4514 43.8866 71.8876 45.3957 71.1536 46.5669C70.0684 48.2985 68.4423 49.7259 67.4897 51.5149C66.3614 53.6336 64.3244 55.2566 63.0639 57.3023C62.4535 58.2929 61.6829 59.2015 60.9751 60.1246C59.94 61.4745 58.9524 62.8755 57.9019 64.2151C54.5501 68.4891 49.9663 71.5894 45.8486 74.9862C43.6669 76.786 41.1694 78.859 38.6321 80.0502C36.7254 80.9454 35.0901 82.4509 33.0849 83.1047C31.1269 83.7431 29.0269 84.299 27.2038 85.3107C25.4002 86.3116 23.3218 86.2711 21.3826 86.6861C18.4764 87.3081 15.4762 87.0495 12.8306 85.5161C11.509 84.7501 10.0408 84.2239 8.59317 83.7924C7.15234 83.3629 5.54022 81.7683 4.50979 80.6932C3.0995 79.2219 2.6458 77.4205 2.24125 75.4685C1.939 74.01 1.90074 71.7845 2.24125 70.3241C2.67383 68.4687 2.9799 66.7707 3.73934 65.01C4.50288 63.2397 5.27315 61.3742 5.8966 59.553C6.45211 57.9302 7.80356 56.5998 8.43908 55.0159C9.25151 52.991 11.0038 50.8517 12.4454 49.2642C16.4564 44.847 19.9117 39.9985 24.8496 36.5639C27.4916 34.7264 30.5022 33.2536 33.3331 31.7768C35.3777 30.7102 37.5829 29.816 39.685 28.9188C42.4101 27.7557 45.481 26.1144 48.5024 26.1144C50.2162 26.1144 52.0166 25.6673 53.7414 26.0787C55.1031 26.4034 56.4654 26.7701 57.7478 27.3648C59.8627 28.3454 60.5214 31.6099 60.5214 33.831C60.5214 34.3133 60.5214 34.7956 60.5214 35.2778C60.5214 36.0582 61.4732 34.8545 61.6343 34.6348C61.9246 34.2386 62.3277 34.0026 62.6016 33.5898C62.8476 33.2191 63.0677 32.8166 63.4149 32.5449C63.9871 32.0971 64.1514 31.0498 64.6476 30.4907C65.6806 29.3267 65.9619 27.3957 66.8391 26.1144C67.5673 25.0507 67.8549 23.3129 68.1488 22.0864C68.3299 21.3309 68.6881 20.4604 68.6881 19.6839C68.6881 19.2267 68.7519 18.4792 68.8765 18.0405C69.2182 16.8373 69.4028 15.056 68.9621 13.8607C68.7637 13.3225 68.2096 13.0141 67.9947 12.521C67.7306 11.9147 67.4274 11.3421 67.0788 10.7705C66.4911 9.80696 65.7892 9.23083 64.913 8.51981C61.7721 5.97112 57.7122 7.21839 54.238 7.91249C51.7914 8.40127 49.259 8.56022 46.7989 9.07355C43.987 9.66028 41.1071 10.8214 38.4951 12.0477C34.7621 13.8003 30.7608 15.8478 27.8544 18.8801" stroke="#F2F2F2" stroke-width="3" stroke-linecap="round"/>
<path d="M48.9657 32.0624C48.333 32.0624 47.9241 32.5808 47.3478 32.7144C46.4034 32.9334 45.431 33.2744 44.4971 33.545C43.7539 33.7604 42.712 33.8868 42.0317 34.2417C41.3232 34.6112 40.4866 35.0493 39.7203 35.2777C38.6865 35.5859 37.7395 36.6937 36.7926 37.2426C36.0826 37.6541 35.0876 38.4141 34.5155 39.011C33.0356 40.5549 31.3727 41.8219 29.7816 43.2265C28.254 44.575 25.7485 45.8908 24.962 47.9422C24.3548 49.5259 23.0228 50.9528 22.6164 52.649C22.2848 54.0326 21.4604 55.7884 21.8802 57.2664C22.1009 58.0436 22.2775 58.8777 22.8475 59.4724C23.4911 60.1439 24.3427 60.391 25.0048 60.9282C25.7255 61.5131 26.4798 61.6427 27.3932 61.6427C28.7231 61.6427 30.1541 61.5943 31.3995 61.089C31.9464 60.8671 32.6628 60.8667 33.2486 60.7139C33.9542 60.5298 34.6091 60.1568 35.286 59.8744C37.1672 59.0893 38.8023 57.7807 40.525 56.6948C43.2886 54.9529 45.9009 53.1047 48.1953 50.7109C49.1625 49.7017 50.1448 48.5858 50.8148 47.3349C51.4482 46.1523 52.4958 45.1704 53.1261 43.9589C54.0996 42.0879 55.2849 40.3751 55.7371 38.2518C56.0322 36.8662 56.587 35.3464 55.8655 33.9916C55.5637 33.4248 54.6806 32.3869 54.1363 32.0624C53.3754 31.6088 52.8688 31.2586 51.8934 31.2586C51.2014 31.2586 50.4307 31.154 49.7704 31.3837C49.2771 31.5552 48.1254 31.8868 47.8871 32.384" stroke="#F2F2F2" stroke-width="3" stroke-linecap="round"/>
<path d="M106.255 26.9807C103.269 26.9807 100.282 26.9807 97.2955 26.9807C95.1181 26.9807 92.9549 27.2438 90.7736 27.2438C90.1437 27.2438 89.512 27.2295 88.8822 27.2438C88.3282 27.2564 87.796 27.4941 87.243 27.5069C86.1137 27.5331 84.858 27.9521 83.8875 28.5521C83.0013 29.1 82.3443 29.8155 81.5407 30.4742C80.7711 31.1051 80.2045 32.0437 79.5162 32.7618C78.8744 33.4314 78.1479 34.1725 77.6948 35.0129C76.8461 36.5871 75.925 38.3827 75.5162 40.1362C75.2923 41.0967 75.236 42.1699 75.236 43.1547C75.236 44.0684 74.9838 45.0004 74.9838 45.9174C74.9838 48.2045 76.3709 49.8189 77.3796 51.7131C77.6401 52.2023 78.2558 52.7004 78.6405 53.1017C79.1304 53.6128 79.7048 54.0758 80.2798 54.4757C81.3418 55.2144 82.2922 56.0725 83.306 56.873C84.0856 57.4884 85.0322 58.37 85.954 58.744C86.7542 59.0687 87.306 59.3824 87.9715 59.928C89.0312 60.7966 90.3673 61.515 90.3673 63.0561C90.3673 64.4092 89.6507 65.8947 88.595 66.6519C87.3332 67.5569 85.6967 68.5522 84.1257 68.5522C82.0778 68.5522 80.0299 68.5522 77.982 68.5522C76.0724 68.5522 74.0215 68.1102 72.1467 68.5448C71.2576 68.751 69.6878 70.4444 69.6878 71.344C69.6878 71.8884 69.4138 72.6198 69.2815 73.1566C69.088 73.9416 68.7567 74.7768 68.4549 75.5246C68.3098 75.8841 68.2648 76.5158 68.1817 76.9059C68.0159 77.6844 68.9151 77.676 69.5057 77.761C71.5105 78.0495 73.5872 78.1557 75.6143 78.1557C76.7162 78.1557 77.8188 78.1673 78.9207 78.1557C80.0721 78.1436 81.1753 77.7733 82.3253 77.761C87.2579 77.7085 92.4294 76.9252 96.0486 73.1493C96.7166 72.4523 97.4484 71.9713 98.0311 71.1833C98.7486 70.213 99.3664 69.4153 99.9505 68.3183C101.032 66.2868 101.253 63.7073 101.471 61.4409C101.669 59.3683 101.831 57.1913 100.959 55.2651C99.9303 52.9917 98.532 50.3008 96.2938 49.1112C94.0733 47.931 92.072 46.4868 89.9821 45.0696C88.9766 44.3877 87.9915 43.661 87.0188 42.9281C86.447 42.4973 85.962 42.2033 85.5757 41.5541C84.7447 40.1572 85.8068 38.7968 86.7807 37.9656C88.3323 36.641 90.9393 37.0989 92.7701 36.9716C96.0453 36.7438 99.305 36.7158 102.599 36.7158C103.084 36.7158 103.585 36.8298 103.916 36.3869C104.037 36.224 104.156 35.774 104.238 35.583C104.426 35.1418 104.741 34.7931 104.924 34.3551C105.407 33.2047 106.003 31.9303 106.003 30.6643C106.003 30.0757 106.381 29.5703 106.381 28.954C106.381 28.4985 106.507 28.0641 106.507 27.6385" stroke="#F2F2F2" stroke-width="3" stroke-linecap="round"/>
<path d="M114.325 27.3751C114.325 29.1853 113.873 31.0694 113.442 32.8127C113.164 33.9365 113.073 35.0734 112.784 36.1893C112.407 37.642 111.929 39.0702 111.551 40.5306C110.974 42.7558 110.029 44.8244 109.631 47.1084C109.392 48.4789 109.306 49.9804 108.903 51.3181C108.371 53.0814 107.961 54.8734 107.614 56.6827C107.432 57.6308 107.173 58.7802 106.689 59.6061C105.841 61.0538 105.347 62.6957 104.931 64.3348C104.617 65.5702 104.484 66.9701 104.041 68.1572C103.151 70.5449 103.128 73.1175 102.409 75.517C102.316 75.8278 101.821 76.9009 102.157 76.9787C104.102 77.4296 105.976 77.4085 107.964 77.5049C109.19 77.5644 110.381 77.7607 111.607 77.7607C112.329 77.7607 112.566 76.2827 112.812 75.6266C114.123 72.1298 115.291 68.6635 116.216 65.0291C117.137 61.4134 117.831 57.7676 118.332 54.0516C119.076 48.529 120.105 43.0586 121.26 37.6364C121.475 36.6274 121.724 35.5385 122.017 34.5449C122.268 33.6914 122.881 32.9095 123.032 32.038C123.131 31.4728 123.616 30.7922 123.838 30.262C124.089 29.6629 124.409 29.0031 124.546 28.3618C124.689 27.6894 124.373 27.5067 123.649 27.5067C123.27 27.5067 122.617 27.4841 122.269 27.3459C121.757 27.1423 121.18 27.2872 120.644 27.2362C118.814 27.0627 116.926 26.8489 115.081 26.8489" stroke="#F2F2F2" stroke-width="3" stroke-linecap="round"/>
<path d="M159.971 27.3752C158.47 27.3752 156.921 27.0188 155.432 27.346C154.623 27.5235 153.616 27.5067 152.784 27.5067C151.891 27.5067 151.01 27.6383 150.108 27.6383C145.775 27.6383 141.503 29.5175 137.807 31.7457C136.648 32.4443 135.374 32.9206 134.248 33.6898C133.093 34.4788 131.929 35.1849 130.843 36.0871C129.145 37.4984 127.2 38.9949 126.304 41.1593C124.925 44.4908 122.933 47.478 122.171 51.0551C122.007 51.8265 122.017 52.6047 122.017 53.3939C122.017 54.4942 121.82 55.6535 121.666 56.7412C121.459 58.2108 121.386 59.7011 121.386 61.1849C121.386 63.1653 121.33 65.0847 122.395 66.8125C122.822 67.5051 122.881 68.075 123.053 68.8443C123.282 69.8647 124.119 71.0548 124.819 71.8116C125.399 72.4394 125.847 73.189 126.43 73.8142C127.126 74.5604 127.839 74.8366 128.728 75.2321C130.239 75.9041 131.95 76.0255 133.491 76.6061C134.605 77.0255 135.85 77.4779 137.05 77.4977C139.421 77.537 141.797 77.8222 144.153 77.8924C145.6 77.9355 147.019 78.2871 148.469 78.2871C149.273 78.2871 149.396 75.9069 149.603 75.2321C149.943 74.1303 150.53 73.2013 150.892 72.104C151.167 71.2736 151.386 70.4619 151.621 69.6336C151.957 68.4518 151.266 68.1573 150.262 68.1573C148.749 68.1573 147.236 68.1573 145.723 68.1573C143.617 68.1573 141.454 67.6196 139.39 67.2072C137.737 66.8771 136.024 66.4573 134.906 65C133.746 63.4865 132.721 62.4675 132.455 60.4686C132.289 59.2251 132.23 58.0701 132.23 56.8143C132.23 55.7295 132.459 54.6658 132.483 53.5839C132.529 51.4629 133.275 48.6883 134.472 46.9769C135.624 45.3299 137.031 43.9416 138.409 42.504C139.163 41.7177 139.905 40.869 140.833 40.2968C141.844 39.6737 143.026 39.3414 144.083 38.8205C146.164 37.7952 148.292 37.3381 150.542 37.008C152.146 36.7726 153.842 36.5841 155.46 36.5841C156.139 36.5841 157.281 36.663 157.673 35.9263C158.243 34.8565 158.616 33.7416 158.934 32.5789C159.135 31.847 159.391 31.2168 159.719 30.5325C159.836 30.2885 159.927 29.4376 160.097 29.3485" stroke="#F2F2F2" stroke-width="3" stroke-linecap="round"/>
<path d="M192 27.3756C189.691 27.3756 187.333 26.9483 185.002 27.1052C183.999 27.1726 182.974 27.1125 181.968 27.1125C180.801 27.1125 179.39 27.3444 178.249 27.0467C177.339 26.8093 175.848 27.0896 174.977 27.3756C173.586 27.8326 171.952 27.901 170.662 28.6619C169.771 29.1873 168.785 29.5206 167.944 30.1382C166.897 30.9068 166.144 32.0348 165.268 32.974C163.953 34.3844 163.06 35.5323 162.242 37.3007C161.747 38.3698 161.254 39.466 160.792 40.5384C160.44 41.3533 160.109 42.2116 159.979 43.0964C159.74 44.7147 159.562 46.8327 160.476 48.2636C161.794 50.3253 163.431 52.4892 165.296 54.0813C167.079 55.6034 169.344 56.5348 171.327 57.6991C172.268 58.251 173.021 58.9017 173.905 59.5408C174.516 59.9817 175.268 60.5152 175.552 61.1926C175.79 61.7605 176.165 62.1086 176.336 62.7347C176.491 63.2983 176.111 64.0674 175.986 64.6057C175.896 64.9916 175.975 65.5659 175.832 65.9213C175.665 66.3337 175.51 66.8402 175.103 67.076C174.391 67.4886 173.526 68.0678 172.708 68.1577C172.21 68.2123 171.615 68.4963 171.068 68.5597C170.067 68.6757 169.046 68.7733 168.035 68.6181C166.198 68.3363 164.341 68.4208 162.487 68.4208C160.874 68.4208 158.838 68.2744 157.324 68.9763C156.926 69.1606 156.623 69.2256 156.287 69.5756C155.9 69.9799 155.651 70.4047 155.334 70.818C155.242 70.9391 155.298 71.288 155.243 71.4466C155.094 71.8829 154.974 72.3237 154.809 72.7548C154.507 73.542 154.469 74.3391 154.235 75.1228C154.087 75.6172 153.841 76.2125 153.786 76.7234C153.7 77.5359 153.218 77.8613 154.116 78.0316C155.708 78.3338 157.44 78.1559 159.061 78.1559C161.64 78.1559 164.186 77.8273 166.753 77.7612C168.49 77.7165 170.208 77.4981 171.951 77.4981C173.605 77.4981 175.236 77.3785 176.869 77.0742C179.341 76.6136 182.194 75.2452 183.482 72.8279C184.602 70.7245 185.574 68.5605 186.389 66.294C186.764 65.251 187.539 63.9975 187.587 62.8663C187.636 61.7062 187.872 60.4833 187.685 59.3143C187.492 58.1064 187.242 56.8386 186.928 55.66C186.815 55.2335 186.614 54.8502 186.452 54.4467C186.212 53.8484 185.779 53.6386 185.443 53.1312C184.767 52.1088 183.688 51.4822 182.788 50.6609C182.018 49.9581 181.319 49.169 180.518 48.4902C178.505 46.7832 176.419 45.2311 174.284 43.6811C173.288 42.9585 170.578 41.0071 171.573 39.5079C172.47 38.1554 174.534 37.756 175.888 37.2422C176.724 36.925 177.812 37.1107 178.697 37.1107C179.845 37.1107 181.017 37.0412 182.158 37.1764C184.132 37.4105 186.514 37.6997 188.413 36.9791C189.971 36.3882 190.552 34.6831 191.117 33.1932C191.636 31.8256 191.748 30.2548 191.748 28.8227" stroke="#F2F2F2" stroke-width="3" stroke-linecap="round"/>
</svg>
