<svg width="66" height="73" viewBox="0 0 66 73" fill="none" xmlns="http://www.w3.org/2000/svg">
<path d="M4.96959 11.466C14.8389 22.3223 25.3098 31.5093 36.204 41.4562C40.6037 45.4734 45.683 48.6253 50.6752 51.8022C55.3747 54.7928 58.7767 60.5585 62.7237 64.5055C66.9857 68.7674 55.2523 56.7629 52.9016 55.1417C44.716 49.4965 36.1243 40.9685 29.8523 33.2711C25.3826 27.7855 21.8845 18.8819 14.9227 15.7877C14.4376 15.5721 19.7603 24.2788 20.2921 24.955C25.5565 31.6482 30.8418 37.7283 36.7933 43.8135C44.4931 51.6863 51.3313 64.6371 61.4141 69.6785C64.0201 70.9815 64.0339 68.8984 63.8369 66.7318C63.2477 60.2507 58.5302 54.7751 54.2112 50.2961C46.9808 42.7979 39.0292 35.8693 31.4239 28.7529C26.5196 24.1639 19.2058 19.3774 16.1013 13.1685C11.0722 3.11016 33.7434 27.1388 42.9485 33.5985C45.556 35.4283 67.0585 49.8492 55.5208 39.7537C48.7597 33.8377 38.0096 28.174 28.6737 29.2113C22.6093 29.8851 25.3697 41.4541 25.9235 45.1231C26.9271 51.7721 27.705 55.9951 24.09 61.8862C21.355 66.3433 13.0445 76.1483 19.8337 64.8329C30.1824 47.5851 42.3402 31.88 54.2112 15.7222C57.0785 11.8195 58.7177 7.70344 60.3664 3.21537C62.2175 -1.82378 59.3244 11.5304 58.9258 12.6446C53.552 27.6669 43.4735 41.624 32.0787 52.7189C31.4836 53.2984 27.626 56.5269 27.626 53.7011C27.626 49.6557 33.528 43.8237 35.7456 40.8669C40.3724 34.6979 46.062 30.4029 52.0503 25.6753C54.8696 23.4496 60.4069 21.0731 61.8725 17.5557C62.4698 16.1221 55.4696 22.495 55.1279 22.8596C47.6083 30.8862 39.6962 37.8556 30.9 44.4683C23.6967 49.8836 16.2407 54.7772 8.76748 59.7909C6.51521 61.3019 1.24385 66.8602 1.95747 64.2436C2.74147 61.3689 8.58146 57.3576 10.5355 55.4036C19.4935 46.4456 29.2464 38.442 38.4303 29.7351C45.9192 22.6353 52.7063 14.5572 60.5629 7.86451C64.7434 4.30329 58.8563 18.9049 58.4675 19.913C51.7888 37.228 42.7121 51.6388 28.8046 63.9816C28.1732 64.542 19.7606 71.9472 18.7206 70.7916C17.1301 69.0244 25.8512 59.3047 26.7092 58.3503C36.8638 47.0548 51.0699 39.3077 60.5629 27.7052C63.8482 23.6898 51.6255 32.9783 47.2048 35.6939C37.2944 41.7817 26.9826 46.9965 16.4942 51.9986C11.8918 54.1936 7.67261 56.9988 3.13612 59.267C-0.000875235 60.8355 8.7475 53.8491 9.0294 53.6357C24.5446 41.8905 39.5289 29.9462 53.2945 16.1806" stroke="#F2F2F2" stroke-width="3" stroke-linecap="round"/>
</svg>
