<svg width="160" height="89" viewBox="0 0 160 89" fill="none" xmlns="http://www.w3.org/2000/svg">
<path d="M103.492 2.55021C101.159 2.75811 98.4537 2.90808 96.4131 4.03823C93.2793 5.77388 90.4698 7.97097 87.2974 9.62551C84.1328 11.2759 80.7506 12.758 77.8476 14.7424C76.2905 15.8068 74.5663 16.5865 72.9988 17.584C72.3602 17.9905 71.8573 18.6453 71.1886 19.1009C69.0805 20.5371 70.9949 22.5288 71.6735 24.1409C72.2012 25.3947 72.6628 26.5182 73.8285 27.453C75.945 29.1501 76.3094 32.2491 77.783 34.3747C78.4883 35.3921 78.9695 36.6018 79.6363 37.6579C80.2268 38.5932 80.4257 39.667 81.0371 40.6052C81.6511 41.5473 82.4182 42.4575 82.8257 43.4948C83.4707 45.1366 85.0951 46.6981 86.2738 48.0741C87.8071 49.8642 89.1599 51.798 90.6485 53.623C91.3731 54.5114 92.2094 55.737 92.588 56.8102C92.8805 57.6394 93.5074 58.5267 94.0318 59.2679C94.3701 59.7459 94.8077 60.1976 95.2387 60.6119C96.2278 61.5627 96.884 62.7798 97.6092 63.8951C99.0245 66.0718 100.144 68.2255 101.79 70.2888C103.774 72.7763 105.535 75.4174 107.555 77.8921C107.877 78.2873 107.961 78.7464 108.449 79.0154C108.98 79.3083 109.233 79.6243 109.494 80.129C109.983 81.0717 110.631 81.8504 111.143 82.7882C111.672 83.7588 112.102 84.9578 113.406 85.169C116.546 85.6778 119.81 85.667 123.006 85.8507C131.5 86.3389 140.007 86.3595 148.532 86.3595C149.876 86.3595 151.219 86.3595 152.562 86.3595C153.411 86.3595 155.479 86.1692 155.859 85.3226C156.054 84.8892 156.723 84.8364 157.012 84.5354C157.425 84.1066 157.73 83.6188 157.885 83.0666C158.396 81.2465 157.083 80.0377 156.204 78.5834C154.881 76.3937 153.458 74.2814 152.024 72.1513C148.695 67.2093 145.366 62.1745 141.658 57.4438C139.468 54.6506 137.197 51.703 135.979 48.4485C135.286 46.5946 133.923 45.0242 132.952 43.2932C131.351 40.4409 128.496 38.1974 127.068 35.3059C125.655 32.4449 123.166 29.9819 121.648 27.1746C120.465 24.9851 118.77 23.042 117.5 20.8865C116.46 19.1216 115.181 17.5167 114.009 15.8176C113.518 15.1058 113.142 14.2703 112.565 13.6096C111.785 12.7166 111.137 11.7251 110.669 10.6719C110.143 9.49078 109.41 8.35243 108.88 7.13908C108.179 5.53275 107.127 3.94934 105.82 2.72301C105.44 2.36686 105.531 2.0318 104.85 2.0318C104.225 2.0318 103.44 1.8902 102.911 2.2046" stroke="white" stroke-width="3" stroke-linecap="round"/>
<path d="M98.3428 14.0893C98.7503 13.8975 99.1697 13.5322 99.6208 13.3573C99.7077 12.8348 100.645 12.5725 101.166 12.5725C101.966 12.5725 101.965 13.1841 102.351 13.7917C102.925 14.6937 103.527 15.6708 104.183 16.5278C105.308 17.9982 106.696 19.5944 107.556 21.2222C108.348 22.7233 109.346 24.1485 110.217 25.6287C110.986 26.9347 111.635 28.3049 112.523 29.5456C115.311 33.4418 118.01 37.353 120.852 41.2481C123.985 45.5423 127.773 49.6905 130.302 54.3523C131.098 55.8209 132.368 57.2234 133.405 58.5764C134.137 59.5323 134.591 60.7031 135.075 61.7733C135.922 63.644 136.919 65.4279 138.092 67.1493C139.14 68.687 139.879 70.4605 141.228 71.8342C142.13 72.753 144.998 77.6999 144.611 77.7191C142.689 77.8143 140.717 77.7423 138.793 77.7191C136.91 77.6964 135 77.5245 133.114 77.4599C130.922 77.3848 128.736 77.4611 126.574 77.1239C125.066 76.8888 123.222 76.8659 121.725 77.1623C121.045 77.2968 120.197 77.2236 119.505 77.1911C118.439 77.1411 117.763 77.1561 117.167 76.5191C112.628 71.6668 109.337 65.9862 105.638 60.6308C103.483 57.5119 101.402 54.3699 99.3126 51.1843C98.3611 49.7334 97.3157 48.3768 96.5541 46.8258C96.0749 45.8499 95.691 44.8004 95.1318 43.8594C94.2123 42.3119 92.8491 40.8439 91.8023 39.3473C90.4363 37.3944 88.9395 35.3692 87.7832 33.3088C86.7513 31.4701 85.7521 29.5455 84.5076 27.8175C83.4905 26.4054 81.8678 25.4465 80.9518 23.9775C80.2077 22.7842 81.2641 22.7149 82.4387 22.1631C84.918 20.9984 87.1159 19.5386 89.5288 18.2366C91.5083 17.1684 93.5081 16.14 95.5413 15.1645C96.4361 14.7353 97.432 14.518 98.3428 14.0893Z" fill="#040D08"/>
<path d="M100.002 13.2637C99.4022 13.3172 98.8628 13.8446 98.3428 14.0893C97.432 14.518 96.4361 14.7353 95.5413 15.1645C93.5081 16.14 91.5083 17.1684 89.5288 18.2366C87.1159 19.5386 84.918 20.9984 82.4387 22.1631C81.2641 22.7149 80.2077 22.7842 80.9518 23.9775C81.8678 25.4465 83.4905 26.4054 84.5076 27.8175C85.7521 29.5455 86.7513 31.4701 87.7832 33.3088C88.9395 35.3692 90.4363 37.3944 91.8023 39.3473C92.8491 40.8439 94.2123 42.3119 95.1318 43.8594C95.691 44.8004 96.0749 45.8499 96.5541 46.8258C97.3157 48.3768 98.3611 49.7334 99.3126 51.1843C101.402 54.3699 103.483 57.5119 105.638 60.6308C109.337 65.9862 112.628 71.6668 117.167 76.5191C117.763 77.1561 118.439 77.1411 119.505 77.1911C120.197 77.2236 121.045 77.2968 121.725 77.1623C123.222 76.8659 125.066 76.8888 126.574 77.1239C128.736 77.4611 130.922 77.3848 133.114 77.4599C135 77.5245 136.91 77.6964 138.793 77.7191C140.717 77.7423 142.689 77.8143 144.611 77.7191C144.998 77.6999 142.13 72.753 141.228 71.8342C139.879 70.4605 139.14 68.687 138.092 67.1493C136.919 65.4279 135.922 63.644 135.075 61.7733C134.591 60.7031 134.137 59.5323 133.405 58.5764C132.368 57.2234 131.098 55.8209 130.302 54.3523C127.773 49.6905 123.985 45.5423 120.852 41.2481C118.01 37.353 115.311 33.4418 112.523 29.5456C111.635 28.3049 110.986 26.9347 110.217 25.6287C109.346 24.1485 108.348 22.7233 107.556 21.2222C106.696 19.5944 105.308 17.9982 104.183 16.5278C103.527 15.6708 102.925 14.6937 102.351 13.7917C101.965 13.1841 101.966 12.5725 101.166 12.5725C100.619 12.5725 99.6143 12.8614 99.6143 13.4365" stroke="white" stroke-width="3" stroke-linecap="round"/>
<path d="M68.9692 29.5073C66.9295 29.5073 65.4217 29.9817 63.5816 30.8897C61.5035 31.9152 59.6329 33.2626 57.5691 34.3073C56.1857 35.0077 54.4425 35.7001 53.2591 36.669C51.2622 38.3038 48.4266 39.0362 46.4277 40.701C45.3753 41.5775 44.2475 42.4641 42.8934 42.8899C41.9679 43.1809 41.1337 43.7127 40.3397 44.2147C39.7146 44.61 38.6028 44.9229 38.1308 45.4435C37.3629 46.2906 36.3946 46.3485 35.8034 47.4019C34.98 48.8692 36.5786 50.4529 37.0102 51.7988C37.39 52.9831 38.4422 53.9268 39.1437 54.9477C40.6689 57.1672 42.0483 59.6233 43.9494 61.6102C47.2517 65.0617 49.3529 69.2022 52.2462 72.9191C53.1167 74.0374 53.5799 75.0674 54.6599 76.0296C55.5122 76.789 56.1724 77.8917 56.5239 78.9096C56.7405 79.5367 56.7487 80.2965 57.1381 80.8681C57.7479 81.7628 58.0542 82.7581 58.6897 83.6521C60.4796 86.1701 64.3771 85.8409 67.2236 85.8409C69.5188 85.8409 71.8441 86.1865 74.152 86.1865C79.6203 86.1865 85.1412 86.6606 90.5949 86.1865C93.2598 85.9549 96.098 85.9038 98.687 85.2841C99.915 84.9902 103.683 84.7743 104.085 83.1625C104.177 82.7929 104.266 82.5501 104.57 82.3465C105.056 82.0218 104.409 79.9549 104.344 79.7064C104.057 78.6171 103.737 77.5691 102.825 76.7784C102.189 76.2275 101.525 75.7548 100.971 75.1272C98.0462 71.8103 96.8542 67.6889 94.3985 64.1638C92.9614 62.101 92.1113 59.7474 90.4979 57.7509C89.7015 56.7654 88.9151 55.7935 88.2567 54.7269C86.1468 51.309 84.3984 47.6596 81.867 44.4547C80.2486 42.4056 79.0317 40.1019 77.266 38.1474C76.7808 37.6103 76.3437 36.9417 75.8006 36.4578C75.4552 36.15 74.9769 35.9908 74.6908 35.6226C72.9073 33.3274 72.2643 30.1733 68.9692 29.3345" stroke="white" stroke-width="3" stroke-linecap="round"/>
<path d="M62.4182 41.5652C63.7482 40.8279 65.0067 39.6221 66.642 39.3572C68.1761 42.4325 70.0318 45.4495 71.6848 48.4869C73.2969 51.4493 75.8171 53.9877 77.6973 56.8102C80.1401 60.4774 82.8319 64.0332 85.326 67.6776C86.974 70.0855 88.429 72.7654 90.6921 74.7817C91.719 75.6967 92.3671 76.2311 92.0605 77.4601C91.9037 78.0888 88.6009 77.6121 88.1276 77.5849C85.2552 77.4203 82.4337 77.0281 79.5506 77.0281H74.2169C71.5231 77.0281 68.8396 77.2641 66.1463 77.2009C65.3667 77.1827 65.0834 76.2395 64.7995 75.7225C64.3265 74.8614 63.689 74.1438 63.194 73.3225C59.9303 67.9079 56.2405 62.6191 52.5697 57.3862C51.2854 55.5555 49.7542 53.9883 48.1304 52.4038C47.6127 51.8987 46.5582 50.5018 47.1606 49.8117C48.1822 48.6415 49.5178 48.3201 50.9319 47.6901C52.2594 47.0987 53.6864 46.4732 54.9187 45.7413C57.366 44.2876 59.924 42.9479 62.4182 41.5652Z" fill="#040D08" stroke="white" stroke-width="3" stroke-linecap="round"/>
<path d="M35.6097 56.2918C33.3933 56.0724 31.0258 55.9467 28.9291 56.8007C28.4351 57.0019 28.1132 57.1974 27.7115 57.5207C26.5403 58.4632 25.0041 59.0881 23.6708 59.8247C21.972 60.7633 20.2383 61.6846 18.585 62.6855C17.6215 63.2688 16.7545 63.9791 15.902 64.6824C14.5238 65.8194 12.8653 66.6947 11.3657 67.6968C9.79418 68.7469 8.20369 69.9512 6.41989 70.7113C5.59557 71.0625 5.0464 71.5481 4.28642 71.9401C3.03886 72.5836 2.49142 72.9628 2.24992 74.1865C2.06931 75.1017 1.69007 76.7961 2.48697 77.585C3.12842 78.22 3.92451 78.9858 4.38339 79.7354C4.92793 80.6249 5.33755 81.5827 5.87036 82.481C6.38596 83.3504 7.19457 84.1877 7.64825 85.0635C8.10703 85.9491 8.84137 85.9194 10.008 86.0139C11.6379 86.1459 13.2374 86.4674 14.8676 86.6187C21.8457 87.2663 28.8211 86.9786 35.8036 86.5707C38.9589 86.3864 42.0934 86.327 45.2318 85.9275C46.5642 85.7579 50.0304 86.3485 50.9319 85.1883C51.6325 84.2866 52.6167 82.8639 52.4835 81.6938C52.2104 79.2951 50.2808 76.7869 48.7876 74.7913C48.1343 73.9182 47.3303 73.1461 46.6649 72.2569C45.1272 70.2018 43.9748 67.9266 42.4088 65.8824C41.3251 64.4678 40.1888 62.8588 39.4887 61.2647C39.0863 60.3484 38.4962 59.5498 38.0879 58.6343C37.4937 57.3016 36.8291 56.6623 35.6097 55.7734" stroke="white" stroke-width="3" stroke-linecap="round"/>
<path d="M32.3122 66.4878C31.3232 66.5759 30.1829 67.1306 29.3598 67.6014C27.2367 68.8158 24.9412 69.7884 22.6793 70.7887C20.6904 71.6681 18.5078 72.307 16.6452 73.3999C15.5773 74.0265 14.6211 74.9473 13.4989 75.4735C13.0526 75.6828 11.0913 76.0165 11.9903 76.8175C12.5071 77.278 14.0753 77.1057 14.7488 77.1632C16.6597 77.3262 18.567 77.3275 20.4811 77.4128C25.1184 77.6193 29.7152 77.72 34.3595 77.72C35.0176 77.72 39.3831 78.1851 39.6393 77.2976C40.2024 75.3464 37.6224 73.4362 36.4714 72.1135C34.9652 70.3825 33.9792 68.2377 32.5062 66.4878" stroke="white" stroke-width="3" stroke-linecap="round"/>
</svg>
