<svg width="204" height="89" viewBox="0 0 204 89" fill="none" xmlns="http://www.w3.org/2000/svg">
<path d="M27.798 5.78853C27.2048 6.76248 27.3589 7.44023 26.4841 8.27594C25.0495 9.64647 23.646 11.385 22.2861 12.8872C20.4599 14.9044 19.1439 16.5529 17.7195 18.991C16.886 20.4176 16.1964 21.9065 15.3962 23.3535C11.8249 29.8115 9.12834 36.9169 6.05477 43.6929C5.05277 45.9019 4.28343 48.9603 3.92372 51.4422C3.33726 55.4885 2.41755 59.4317 2.41755 63.6305C2.41755 65.8263 1.65279 68.4632 2.19323 70.6144C2.64859 72.427 3.49459 73.2413 4.40441 74.6899C6.03839 77.2916 7.0335 79.8517 9.30744 81.98C10.8067 83.3832 12.5494 83.7173 14.3066 84.3909C16.1941 85.1143 18.0715 86.1037 20.0268 86.5339C25.4681 87.7308 31.4012 86.4055 36.6747 85.0031C45.9994 82.5235 55.2218 80.4763 64.1542 76.3737C70.6948 73.3697 77.1766 70.194 83.7182 67.1894C97.0253 61.0776 109.071 51.3832 122.173 44.6305C126.239 42.5354 130.081 39.9295 134.127 37.8188C139.344 35.097 144.729 32.5214 150.053 30.1078C154.509 28.0878 159.079 26.4889 163.641 24.8651C170.752 22.3339 177.741 17.9276 184.311 13.9013C188.291 11.462 191.789 8.06109 195.815 5.78853C197.901 4.61126 200.027 3.4139 202 2" stroke="#F2F2F2" stroke-width="3" stroke-linecap="round"/>
<path d="M28.3737 10.6102C28.1555 13.0867 26.8133 15.6938 26.0344 17.9768C24.7848 21.6396 23.248 25.7665 22.8298 29.7059C22.6197 31.6851 22.6055 33.6049 22.6055 35.5992C22.6055 38.0909 23.5316 39.418 24.8006 41.2628C26.3822 43.562 29.7145 45.265 31.8988 46.5055C36.0875 48.8845 40.4447 49.9625 44.9896 50.9063C50.9335 52.1408 58.0298 52.3919 63.9768 50.9829C68.4439 49.9245 72.6648 49.1133 77.0356 47.4431C83.3244 45.04 89.5014 42.4908 95.7024 39.8087C104.391 36.0507 112.985 32.0713 121.996 29.5528C126.098 28.4065 130.283 27.8514 134.382 26.6445C139.632 25.0989 144.802 23.0878 150.084 21.7079C154.287 20.6102 158.351 18.7809 162.614 18.0342C166.26 17.3957 170.199 16.1196 173.638 14.5136C177.364 12.7739 181.116 11.5663 184.983 10.3423C190.211 8.68743 195.243 6.43533 200.268 4.06641" stroke="#F2F2F2" stroke-width="3" stroke-linecap="round"/>
</svg>
