<svg width="174" height="89" viewBox="0 0 174 89" fill="none" xmlns="http://www.w3.org/2000/svg">
<path d="M80.7999 2.98952C79.9242 2.8912 79.0015 2.94098 78.1095 2.94098C77.7652 2.94098 77.4179 2.95445 77.0739 2.93828C76.7647 2.92375 76.3596 2.95312 76.0677 2.84389C75.8352 2.75686 75.5248 2.76614 75.2777 2.74949C74.9667 2.72854 74.6526 2.69825 74.3409 2.69825C73.7875 2.69825 73.181 2.62988 72.6327 2.70904C71.9921 2.80151 71.2839 2.68701 70.6629 2.84389C70.1275 2.97916 69.4608 2.91397 68.9067 2.89243C68.7974 2.88818 68.7233 2.81769 68.6185 2.80073C68.5124 2.78359 68.4045 2.80365 68.2982 2.78455C68.0547 2.74081 67.8097 2.73499 67.5642 2.69825C66.5823 2.55126 65.6041 2.55261 64.6096 2.55261C63.8192 2.55261 63.0437 2.50406 62.2555 2.50406C61.2826 2.50406 60.3103 2.40697 59.3356 2.40697C58.9317 2.40697 58.5278 2.40697 58.1239 2.40697C57.6478 2.40697 57.204 2.31752 56.72 2.30988C56.26 2.30262 55.8084 2.21279 55.3481 2.21279C55.0394 2.21279 54.7306 2.21279 54.4219 2.21279C53.7219 2.21279 53.0327 2.1157 52.3374 2.1157C51.7298 2.1157 51.1221 2.06715 50.5091 2.06715C50.309 2.06715 50.1088 2.06715 49.9086 2.06715C49.7757 2.06715 49.2743 1.93385 49.188 2.04288C49.0794 2.17995 49.0363 2.35616 48.9985 2.52834C48.9457 2.76827 48.7764 3.04973 48.7556 3.2808C48.7395 3.46004 48.6368 3.63454 48.6141 3.8175C48.5758 4.12753 48.3834 4.33747 48.2378 4.59154C48.1852 4.68336 48.1686 4.79024 48.1204 4.88282C48.0706 4.97831 47.9449 5.05752 47.9389 5.17409C47.9252 5.43581 47.685 5.6113 47.5812 5.85104C47.4641 6.12144 47.2822 6.3061 47.1809 6.59272C47.129 6.73949 47.069 6.88321 47.0154 7.02963C46.9819 7.12101 46.9483 7.3226 46.8819 7.38294C46.7644 7.48983 46.8255 7.64136 46.7591 7.76591C46.6944 7.88743 46.6199 7.97899 46.5696 8.11113C46.5016 8.28994 46.4613 8.44598 46.3748 8.62086C46.2684 8.83598 46.0652 9.04086 46.0652 9.3005C46.0652 9.59074 45.9819 9.76276 45.849 10.0044C45.628 10.4064 46.5167 10.2892 46.7164 10.3442C47.1825 10.4727 47.7541 10.5142 48.2378 10.5142C49.435 10.5142 50.6672 10.5866 51.857 10.4548C53.1821 10.3081 54.5391 10.4656 55.8659 10.4656C57.3535 10.4656 58.8244 10.6598 60.3071 10.6598C61.9566 10.6598 63.606 10.6598 65.2555 10.6598C67.3572 10.6598 69.4729 10.5867 71.5731 10.6625C74.4474 10.7662 77.3116 10.6593 80.1727 10.9484C80.5603 10.9875 80.9358 10.9996 81.3284 10.9996C81.571 10.9996 81.7607 11.0837 81.7607 10.8054C81.7607 10.344 81.5205 9.91426 81.5205 9.44614C81.5205 9.2064 81.4399 8.97829 81.3871 8.74492C81.3281 8.48399 81.3284 8.18791 81.3284 7.91964C81.3284 7.37556 81.2803 6.82278 81.2803 6.29065C81.2803 5.99954 81.2138 5.66187 81.1816 5.36828C81.1439 5.02617 81.0978 4.66839 81.0882 4.32724C81.0759 3.89529 80.7999 3.53082 80.7999 3.08662" stroke="white" stroke-width="3" stroke-linecap="round"/>
<path d="M39.0507 19.3008C38.7254 19.9992 38.5522 20.7673 38.1139 21.4071C37.6738 22.0495 37.3368 22.7701 36.9822 23.4568C36.3324 24.7154 36.0444 26.1653 35.2847 27.3594C35.1886 27.5105 35.1618 27.7029 35.0525 27.8449C34.8738 28.0771 34.733 28.205 34.6201 28.476C34.5432 28.6606 34.4708 29.0325 34.3185 29.1556C34.2479 29.2127 34.1504 29.3565 34.1504 29.4469C34.1504 29.7087 34.259 29.6372 34.4974 29.6411C34.9862 29.6489 35.484 29.7148 35.9733 29.7408C36.4929 29.7685 37.0225 29.8039 37.5401 29.8595C38.0417 29.9134 38.5572 29.9747 39.0614 29.9809C39.6345 29.9879 40.2513 29.91 40.8176 30.0025C41.4327 30.1029 42.0579 30.0824 42.6806 30.1265C43.3651 30.1751 44.0603 30.2236 44.7464 30.2236C47.4678 30.2236 50.186 30.1751 52.9083 30.1751C54.2327 30.1751 55.5543 30.2722 56.8771 30.2722C57.4467 30.2722 58.0134 30.363 58.5826 30.3692C59.2571 30.3767 59.9526 30.3974 60.6218 30.4879C62.1455 30.694 63.6735 30.7576 65.2098 30.7576C66.5703 30.7576 67.9308 30.8547 69.2908 30.8547C73.131 30.8547 76.9411 31.2385 80.7783 31.2916C82.0326 31.309 83.2783 31.4373 84.5362 31.4373C84.6759 31.4373 84.8156 31.4373 84.9553 31.4373C85.1243 31.4373 85.0754 31.3142 85.0754 31.1703C85.0754 30.9194 85.0754 30.6686 85.0754 30.4178C85.0754 28.9704 84.643 27.6167 84.643 26.1835C84.643 25.8367 84.5469 25.4916 84.5469 25.1371C84.5469 24.8125 84.5225 24.4188 84.4268 24.1095C84.3786 23.9538 84.3173 23.6907 84.3067 23.535C84.2942 23.3515 84.2195 23.17 84.2106 22.9903C84.194 22.6546 84.1145 22.3369 84.1145 21.9951C84.1145 21.3995 84.0993 20.7243 83.9731 20.1503C83.8672 19.669 83.7302 19.1629 83.7302 18.6454C83.7302 18.5246 83.7368 18.4018 83.7302 18.2813C83.7233 18.1565 83.4864 18.2791 83.4313 18.2813C83.3119 18.2859 83.21 18.3298 83.1056 18.3298C82.9702 18.3298 82.8606 18.4216 82.7213 18.4269C82.6025 18.4315 82.4743 18.4072 82.361 18.4512C82.0562 18.5697 81.563 18.4755 81.232 18.4755C80.7313 18.4755 80.2147 18.5131 79.716 18.4728C78.4776 18.3727 77.2165 18.4269 75.9713 18.4269C75.3867 18.4269 74.8011 18.5129 74.2178 18.524C73.4697 18.5383 72.7265 18.5179 71.9811 18.5699C70.7024 18.659 69.4295 18.584 68.1538 18.729C67.6957 18.7811 67.235 18.8153 66.7739 18.8153C66.5281 18.8153 66.3052 18.9061 66.0613 18.9124C65.8596 18.9175 65.6571 18.9124 65.4554 18.9124C65.1484 18.9124 64.8415 18.9124 64.5346 18.9124C64.1728 18.9124 63.8235 18.7734 63.4563 18.7668C62.697 18.7531 61.9363 18.7668 61.1769 18.7668C60.5633 18.7668 59.8931 18.7514 59.2979 18.8908C58.4355 19.0929 57.4898 19.0095 56.6102 19.0095C56.1981 19.0095 55.7931 19.058 55.3852 19.058C54.724 19.058 54.0277 19.1345 53.37 19.201C52.6748 19.2712 51.9411 19.2037 51.2428 19.2037C49.8379 19.2037 48.4328 19.058 47.0258 19.058C45.3815 19.058 43.7333 19.1765 42.0934 19.2037C41.0177 19.2215 39.9834 19.3008 38.9066 19.3008" stroke="white" stroke-width="3" stroke-linecap="round"/>
<path d="M55.6713 57.6812C54.9883 57.6812 54.3058 57.6706 53.6239 57.7111C53.1345 57.7402 52.6402 57.7581 52.1498 57.7581C51.7489 57.7581 51.3537 57.8351 50.9527 57.8351C49.5813 57.8351 48.21 57.8735 46.8369 57.8735C46.1373 57.8735 45.4492 57.9505 44.7494 57.9505C44.1546 57.9505 43.5616 57.9889 42.9644 57.9889C42.1973 57.9889 41.4435 58.0659 40.6738 58.0659C40.0278 58.0659 39.3828 58.1043 38.7386 58.1043C37.5787 58.1043 36.4254 58.2582 35.2679 58.2582C34.1853 58.2582 33.0967 58.2967 32.0108 58.2967C31.3953 58.2967 30.7777 58.3352 30.1602 58.3352C29.5014 58.3352 28.8397 58.4839 28.1848 58.5574C27.6455 58.618 27.0765 58.6814 26.533 58.6814C26.2533 58.6814 25.9503 58.698 25.6722 58.7284C25.5155 58.7455 25.3643 58.7534 25.2069 58.7583C25.0709 58.7625 24.9517 58.8302 24.8177 58.8353C22.9256 58.9061 21.0353 58.8353 19.1432 58.8353C18.9798 58.8353 18.8474 58.8121 18.6885 58.7754C18.584 58.7513 18.2618 58.6913 18.1555 58.722C17.9821 58.7721 17.8548 59.1706 17.7537 59.2969C17.6296 59.4517 17.5848 59.6566 17.4512 59.8141C17.3808 59.897 17.4041 60.0225 17.3349 60.1047C17.2204 60.2408 17.1173 60.4082 17.0219 60.5578C16.5777 61.2542 16.1994 61.9715 15.6937 62.6244C15.6262 62.7116 15.5373 62.7783 15.4695 62.8659C15.3783 62.9836 15.3653 63.1172 15.3087 63.2506C15.2204 63.4588 15.0819 63.6578 14.9746 63.8576C14.7902 64.2008 14.4662 64.4572 14.2512 64.783C14.115 64.9894 13.9321 65.1584 13.8029 65.3664C13.719 65.5013 13.5589 65.5782 13.5279 65.7426C13.5016 65.8823 13.4175 66.1179 13.3206 66.2213C13.2431 66.3041 13.1558 66.3514 13.1091 66.4606C13.0733 66.5446 13.0482 66.6374 12.9949 66.7128C12.8974 66.8508 12.7646 66.9553 12.6734 67.1061C12.602 67.2241 12.4873 67.3268 12.4429 67.4523C12.3648 67.6732 12.1886 67.8398 12.0813 68.0507C12.0437 68.1245 12.0242 68.21 11.9861 68.2794C11.9149 68.4088 12.0362 68.3389 12.0982 68.3371C12.4763 68.3262 12.8528 68.3357 13.2255 68.3734C13.7056 68.4219 14.1891 68.3179 14.6615 68.4354C14.9326 68.5028 15.2679 68.4525 15.5456 68.4525C15.946 68.4525 16.3465 68.4525 16.7469 68.4525C18.6075 68.4525 20.4539 68.3755 22.3136 68.3755C23.3612 68.3755 24.409 68.2986 25.4565 68.2986C26.4449 68.2986 27.4333 68.2986 28.4217 68.2986C29.2332 68.2986 30.0441 68.3371 30.8539 68.3371C31.7315 68.3371 32.6001 68.4577 33.4765 68.4931C35.3847 68.5702 37.284 68.5294 39.1934 68.5294C40.855 68.5294 42.5116 68.4525 44.1742 68.4525C45.5444 68.4525 46.915 68.6258 48.2857 68.6448C48.8663 68.6529 49.4381 68.6833 50.0179 68.6833C50.1142 68.6833 50.1183 68.6514 50.1596 68.5679C50.1879 68.5107 50.1785 68.4484 50.2061 68.3926C50.2336 68.3371 50.2961 68.3266 50.3034 68.2601C50.3223 68.0881 50.4343 67.8879 50.5149 67.7365C50.6506 67.4819 50.7931 67.2133 50.9527 66.9714C51.0177 66.8729 51.0748 66.7746 51.1409 66.6744C51.2379 66.5274 51.365 66.3718 51.4455 66.2213C51.6342 65.8685 51.855 65.5764 51.9975 65.2019C52.044 65.0797 52.135 64.9901 52.1773 64.8663C52.236 64.6942 52.276 64.5265 52.3676 64.3662C52.6921 63.7987 52.7765 63.1509 53.0635 62.571C53.2162 62.2623 53.3578 61.9548 53.5309 61.652C53.6911 61.3719 53.8003 61.0581 53.9793 60.795C54.1936 60.48 54.4038 60.1238 54.5651 59.7842C54.6946 59.5116 54.8734 59.2646 54.9775 58.9806C55.0408 58.8079 55.1252 58.7115 55.2292 58.566C55.3174 58.4427 55.3316 58.2846 55.4259 58.162C55.5138 58.0479 55.6673 57.8856 55.7093 57.7581" stroke="white" stroke-width="3" stroke-linecap="round"/>
<path d="M43.5669 77.9132C43.9485 77.8747 44.3235 77.7686 44.7066 77.7618C44.4713 78.0001 44.5346 78.4388 44.3939 78.7232C44.317 78.8787 44.2711 79.0568 44.212 79.2233C44.1291 79.457 43.9693 79.6605 43.8863 79.8944C43.7995 80.139 43.6314 80.354 43.5648 80.6082C43.5152 80.7978 43.4874 81.0067 43.4041 81.1852C43.2023 81.6176 42.8842 81.9916 42.7569 82.4547C42.6598 82.8079 42.2436 83.0563 42.1478 83.395C42.0422 83.7683 41.6678 84.112 41.4118 84.3781C41.2946 84.4999 41.2562 84.6911 41.1199 84.8013C41.0477 84.8596 40.9436 85.0464 40.9084 85.139C40.8237 85.3616 40.7756 85.5932 40.6736 85.8164C40.5874 86.0052 40.5588 86.2246 40.3289 86.2246C39.793 86.2246 39.2611 86.2631 38.7257 86.2631C37.6716 86.2631 36.6205 86.2999 35.568 86.3379C34.9944 86.3586 34.4226 86.3847 33.8507 86.4341C33.1604 86.4936 32.4707 86.4425 31.7801 86.5153C31.1848 86.578 30.5883 86.5709 29.9908 86.5709C29.4538 86.5709 28.92 86.6093 28.3834 86.6093H24.1111C21.5924 86.6093 19.0761 86.6863 16.5564 86.6863C15.9584 86.6863 15.3631 86.6899 14.7671 86.7461C14.4745 86.7737 14.1857 86.8289 13.8915 86.838C13.6219 86.8464 13.3566 86.8294 13.0899 86.8807C12.5574 86.9832 11.9967 86.9739 11.455 86.9919C10.9428 87.0088 10.4278 86.994 9.91529 86.994C8.99988 86.994 8.08875 86.9171 7.17214 86.9171C6.47242 86.9171 5.77322 86.9555 5.07195 86.9555C4.80761 86.9555 4.53855 86.9691 4.2746 86.9534C3.99034 86.9365 3.65859 86.9497 3.38419 86.8786C2.95257 86.7668 2.45613 86.7632 2.01156 86.7632C1.95476 86.7632 2.12276 86.4417 2.18075 86.3977C2.33693 86.2794 2.40655 86.0907 2.47897 85.9169C2.51943 85.8198 2.51594 85.7019 2.57203 85.6091C2.62653 85.519 2.7249 85.4792 2.76238 85.3698C2.83268 85.1645 2.95914 84.9262 3.09655 84.7628C3.51866 84.261 3.79025 83.6439 4.1625 83.1065C4.38408 82.7867 4.51337 82.3694 4.78854 82.0914C4.90155 81.9772 5.00101 81.8171 5.09522 81.6853C5.21393 81.5192 5.37658 81.3617 5.4738 81.1831C5.55907 81.0264 5.60647 80.9304 5.74029 80.8198C5.84175 80.7359 5.87503 80.563 5.95179 80.4522C6.0626 80.2922 6.14236 80.1044 6.23943 79.935C6.30948 79.8127 6.44572 79.7382 6.5313 79.6294C6.66877 79.4544 6.95644 79.1771 6.97967 78.954C6.99361 78.8203 7.14833 78.5791 7.25462 78.5009C7.40912 78.3874 7.75795 78.4539 7.93988 78.4539H8.58707H9.2258C9.77453 78.4539 10.3065 78.35 10.8543 78.3385C11.7044 78.3206 12.5555 78.3 13.4093 78.3C15.0005 78.3 16.6086 78.3201 18.1891 78.1376C19.1545 78.0261 20.1704 78.1077 21.1417 78.1077H23.6585C24.7233 78.1077 25.7879 78.0692 26.85 78.0692C26.9606 78.0692 27.0481 78.0145 27.1546 77.9966C27.2724 77.9767 27.3973 77.9984 27.5163 77.9902C27.8168 77.9692 28.1104 77.9538 28.413 77.9538C28.9321 77.9538 29.4543 77.9154 29.976 77.9154H35.1218C36.0248 77.9154 36.9165 77.8384 37.8163 77.8384C38.2017 77.8384 38.6076 77.8029 38.988 77.8683C39.3989 77.939 39.9004 77.8899 40.2908 78.0308C40.4795 78.0988 40.6997 78.0692 40.8978 78.0692C41.0603 78.0692 41.1823 77.9923 41.3377 77.9923C41.7019 77.9923 42.0623 77.9538 42.4227 77.9538C42.7987 77.9538 43.1927 77.951 43.5669 77.9132Z" fill="#040D08"/>
<path d="M44.745 77.7615C44.3486 77.7615 43.9613 77.8734 43.5669 77.9132C43.1927 77.951 42.7987 77.9538 42.4227 77.9538C42.0623 77.9538 41.7019 77.9923 41.3377 77.9923C41.1823 77.9923 41.0603 78.0692 40.8978 78.0692C40.6997 78.0692 40.4795 78.0988 40.2908 78.0308C39.9004 77.8899 39.3989 77.939 38.988 77.8683C38.6076 77.8029 38.2017 77.8384 37.8163 77.8384C36.9165 77.8384 36.0248 77.9154 35.1218 77.9154C33.4065 77.9154 31.6913 77.9154 29.976 77.9154C29.4543 77.9154 28.9321 77.9538 28.413 77.9538C28.1104 77.9538 27.8168 77.9692 27.5163 77.9902C27.3973 77.9984 27.2724 77.9767 27.1546 77.9966C27.0481 78.0145 26.9606 78.0692 26.85 78.0692C25.7879 78.0692 24.7233 78.1077 23.6585 78.1077C22.8196 78.1077 21.9806 78.1077 21.1417 78.1077C20.1704 78.1077 19.1545 78.0261 18.1891 78.1376C16.6086 78.3201 15.0005 78.3 13.4093 78.3C12.5555 78.3 11.7044 78.3206 10.8543 78.3385C10.3065 78.35 9.77453 78.4539 9.2258 78.4539C9.01289 78.4539 8.79998 78.4539 8.58707 78.4539C8.37134 78.4539 8.15561 78.4539 7.93988 78.4539C7.75795 78.4539 7.40912 78.3874 7.25462 78.5009C7.14833 78.5791 6.99361 78.8203 6.97967 78.954C6.95644 79.1771 6.66877 79.4544 6.5313 79.6294C6.44572 79.7382 6.30948 79.8127 6.23943 79.935C6.14236 80.1044 6.06261 80.2922 5.95179 80.4522C5.87503 80.563 5.84175 80.7359 5.74029 80.8198C5.60647 80.9304 5.55907 81.0264 5.4738 81.1831C5.37658 81.3617 5.21393 81.5192 5.09522 81.6853C5.00101 81.8171 4.90155 81.9772 4.78854 82.0914C4.51337 82.3694 4.38408 82.7867 4.1625 83.1065C3.79025 83.6439 3.51866 84.261 3.09655 84.7628C2.95914 84.9262 2.83268 85.1645 2.76238 85.3698C2.7249 85.4792 2.62653 85.519 2.57203 85.6091C2.51594 85.7019 2.51943 85.8198 2.47897 85.9169C2.40655 86.0907 2.33693 86.2794 2.18075 86.3977C2.12276 86.4417 1.95476 86.7632 2.01156 86.7632C2.45613 86.7632 2.95257 86.7668 3.38419 86.8786C3.65859 86.9497 3.99034 86.9365 4.2746 86.9534C4.53855 86.9691 4.80761 86.9555 5.07195 86.9555C5.77322 86.9555 6.47242 86.9171 7.17214 86.9171C8.08875 86.9171 8.99988 86.994 9.91529 86.994C10.4278 86.994 10.9428 87.0088 11.455 86.9919C11.9967 86.9739 12.5574 86.9832 13.0899 86.8807C13.3566 86.8294 13.6219 86.8464 13.8915 86.838C14.1857 86.8289 14.4745 86.7737 14.7671 86.7461C15.3631 86.6899 15.9584 86.6863 16.5564 86.6863C19.0761 86.6863 21.5924 86.6093 24.1111 86.6093C25.5352 86.6093 26.9593 86.6093 28.3834 86.6093C28.92 86.6093 29.4538 86.5709 29.9908 86.5709C30.5883 86.5709 31.1848 86.578 31.7801 86.5153C32.4707 86.4425 33.1604 86.4936 33.8507 86.4341C34.4226 86.3847 34.9944 86.3586 35.568 86.3379C36.6205 86.2999 37.6716 86.2631 38.7257 86.2631C39.2611 86.2631 39.793 86.2246 40.3289 86.2246C40.5588 86.2246 40.5874 86.0052 40.6736 85.8164C40.7756 85.5932 40.8237 85.3616 40.9084 85.139C40.9436 85.0464 41.0477 84.8596 41.1199 84.8013C41.2562 84.6911 41.2946 84.4999 41.4118 84.3781C41.6678 84.112 42.0422 83.7683 42.1478 83.395C42.2436 83.0563 42.6598 82.8079 42.7569 82.4547C42.8842 81.9916 43.2023 81.6176 43.4041 81.1852C43.4874 81.0067 43.5152 80.7978 43.5648 80.6082C43.6314 80.354 43.7995 80.139 43.8863 79.8944C43.9693 79.6605 44.1291 79.457 44.212 79.2233C44.2711 79.0568 44.317 78.8787 44.3939 78.7232C44.5347 78.4387 44.4712 77.9997 44.7069 77.7615" stroke="white" stroke-width="3" stroke-linecap="round"/>
<path d="M112.844 36.0405C112.819 36.237 111.709 36.1885 111.526 36.1951C110.995 36.2143 110.428 36.3498 109.894 36.3498C109.308 36.3498 108.753 36.5044 108.159 36.5044C107.387 36.5044 106.615 36.5044 105.843 36.5044C104.37 36.5044 102.856 36.4271 101.363 36.4271C101.05 36.4271 100.739 36.5044 100.415 36.5044C99.8494 36.5044 99.1774 36.4685 98.6298 36.6161C97.7806 36.8449 96.9114 36.6067 96.0498 36.7406C95.2388 36.8667 94.3907 36.8136 93.5633 36.8136C92.4202 36.8136 91.2746 36.9683 90.1246 36.9683C89.0577 36.9683 87.9818 37.0456 86.907 37.0456C86.1305 37.0456 85.3541 37.0456 84.5777 37.0456C84.139 37.0456 83.5015 36.9326 83.0815 37.0842C82.7218 37.214 82.1958 37.2701 81.8149 37.2775C81.4741 37.2841 80.9348 37.2721 80.6162 37.3892C79.7672 37.7011 78.7114 37.5867 77.8109 37.5867C76.0243 37.5867 74.2377 37.5867 72.451 37.5867C70.6152 37.5867 68.7859 37.5094 66.9551 37.5094C65.9251 37.5094 64.901 37.6641 63.8778 37.6641C62.5027 37.6641 61.0767 37.7256 59.7123 37.8788C58.4026 38.0259 57.0569 38.1279 55.7381 38.1279C55.2188 38.1279 54.697 38.1104 54.1781 38.1279C53.8804 38.138 53.6287 38.2825 53.3195 38.2825C53.0957 38.2825 52.8718 38.2825 52.648 38.2825C51.4626 38.2825 50.2806 38.4372 49.103 38.4372C48.6678 38.4372 48.0912 38.4499 47.6749 38.5746C47.3297 38.6779 46.8877 38.5872 46.5272 38.6519C45.9231 38.7604 45.2059 38.6691 44.589 38.6691C44.0563 38.6691 43.5235 38.6691 42.9908 38.6691C42.8043 38.6691 42.4768 38.7303 42.3022 38.6519C42.0685 38.5469 41.7755 38.5918 41.5201 38.5918C40.8124 38.5918 40.1039 38.6691 39.4034 38.6691C38.7772 38.6691 38.1509 38.6691 37.5247 38.6691C34.8224 38.6691 32.1152 38.901 29.4487 38.901" stroke="white" stroke-width="3" stroke-linecap="round"/>
<path d="M29.3421 39.0833C29.3421 39.2411 29.1992 39.3376 29.0996 39.4508C28.989 39.5766 28.9273 39.8118 28.8571 39.9716C28.7185 40.2867 28.4972 40.5526 28.3451 40.8599C28.2069 41.1391 28.036 41.4469 27.8264 41.6835C27.7094 41.8157 27.6518 42.0231 27.557 42.1736C27.4646 42.3203 27.315 42.419 27.2336 42.5752C26.9595 43.1016 26.6023 43.572 26.3377 44.1068C26.301 44.181 26.1101 44.3548 26.0379 44.4131C25.9677 44.4699 25.8418 44.7987 25.7786 44.9032C25.604 45.1918 25.3352 45.4236 25.1588 45.7133C24.9946 45.9828 24.7273 46.2754 24.6704 46.5914C24.6448 46.734 24.5619 46.973 24.5054 47.1087C24.4579 47.2227 24.4869 47.332 24.4246 47.4422C24.2822 47.694 24.1503 47.9564 24.0541 48.2591C23.9869 48.4701 23.9112 48.6401 23.8553 48.8547C23.8333 48.9392 23.825 49.0132 23.825 49.0997C23.825 49.1556 23.7186 49.2134 23.7577 49.2529C23.8393 49.3354 24.4413 49.2529 24.5391 49.2529C25.2669 49.2529 25.9492 49.4357 26.6678 49.4945C28.014 49.6048 29.3604 49.6249 30.7096 49.6783C32.1025 49.7335 33.5033 49.6059 34.8929 49.7294C36.305 49.8548 37.7456 49.9153 39.1637 49.9268C40.9801 49.9415 42.798 49.988 44.6168 49.988C46.7233 49.988 48.7966 50.2481 50.8985 50.3556C52.7057 50.4481 54.5116 50.5394 56.3213 50.5394C57.8514 50.5394 59.4408 50.5401 60.9626 50.3692C62.1971 50.2306 63.5063 50.3556 64.7485 50.3556C65.9206 50.3556 67.0927 50.3556 68.2649 50.3556C71.7215 50.3556 75.1855 50.2944 78.6456 50.2944C80.5624 50.2944 82.4803 50.2624 84.3918 50.4169C85.6368 50.5175 86.8536 50.6846 88.0934 50.8151C89.3185 50.944 90.6035 50.9555 91.8355 50.9682C92.5351 50.9755 93.3139 51.037 93.9978 51.1861C94.7925 51.3593 95.5951 51.3971 96.4094 51.3971C97.5052 51.3971 98.601 51.3971 99.6968 51.3971C100.503 51.3971 101.389 51.2894 102.183 51.4277C103.088 51.5855 104.044 51.4265 104.958 51.5945C105.417 51.6788 105.888 51.5894 106.339 51.7034" stroke="white" stroke-width="3" stroke-linecap="round"/>
<path d="M106.036 51.6423C105.661 51.6423 105.334 51.67 104.985 51.7785C104.826 51.8281 104.711 51.916 104.551 51.9521C104.312 52.0057 104.063 52.0379 103.823 52.1018C103.235 52.2582 102.599 52.2545 102.008 52.3911C101.346 52.5439 100.658 52.6116 99.9767 52.6804C98.2595 52.8539 96.5826 53.2647 94.8537 53.2964C93.7441 53.3168 92.6901 53.7014 91.6034 53.8478C90.5558 53.9889 89.5178 54.0616 88.4676 54.1677C86.1054 54.4064 83.7407 54.7813 81.3608 54.8859C78.7447 55.0008 76.2148 55.6473 73.6207 55.9307C72.1399 56.0925 70.64 56.328 69.1747 56.6046C67.3928 56.941 65.6354 56.8998 63.8361 56.9756C62.4293 57.0348 61.0284 57.1078 59.6292 57.2649C59.115 57.3226 58.6465 57.3539 58.1438 57.4555C57.8858 57.5076 57.5762 57.4545 57.3254 57.527C57.0547 57.6051 56.7513 57.6206 56.4699 57.6937C56.2863 57.7414 56.5968 57.9981 56.6214 58.16C56.6904 58.6132 56.8044 59.055 57.0761 59.4363C57.454 59.9667 57.5016 60.6344 57.8677 61.1687C58.1569 61.5909 58.3047 62.2034 58.5042 62.6696C58.6648 63.0447 58.7007 63.395 58.959 63.7383C59.2291 64.0975 59.2458 64.5697 59.4878 64.9364C59.9919 65.7005 60.1957 66.6394 60.5959 67.4481C60.7285 67.7161 60.9142 67.9996 60.9293 68.3058C60.9361 68.442 60.9986 68.5607 61.0371 68.687C61.0765 68.8165 61.023 68.9596 61.0641 69.0886C61.1323 69.303 61.2931 69.4234 61.2931 69.6536C61.2931 69.8128 61.8223 69.9409 61.9634 69.9599C64.0006 70.2344 66.0745 70.1437 68.1305 70.1437C69.0327 70.1437 69.8911 70.2696 70.7847 70.3581C71.6679 70.4456 72.57 70.4642 73.4556 70.5079C75.1408 70.5909 76.8436 70.678 78.5315 70.6951C79.3972 70.7038 80.2887 70.8554 81.1452 70.9742C82.1342 71.1113 83.1239 71.1972 84.1193 71.2771C85.1606 71.3606 86.2015 71.3395 87.2416 71.4166C88.2456 71.4911 89.2473 71.5812 90.2528 71.6617C92.0412 71.8048 93.8464 71.9816 95.6419 71.9816C96.1233 71.9816 96.6002 71.9971 97.0767 71.9339C97.3834 71.8933 97.6814 71.9572 97.9727 71.8591" stroke="white" stroke-width="3" stroke-linecap="round"/>
<path d="M124.467 15.926C124.249 16.0498 124.109 16.3756 123.935 16.5523C123.719 16.77 123.399 16.7224 123.106 16.7224C122.732 16.7224 122.367 16.845 121.981 16.845C121.532 16.845 121.1 16.9062 120.647 16.9062C120.396 16.9062 120.213 17.0288 119.967 17.0288C119.766 17.0288 119.52 17.0777 119.327 17.1377C118.934 17.2599 118.387 17.2738 117.98 17.2738C117.249 17.2738 116.531 17.3351 115.8 17.3351C114.984 17.3351 114.156 17.5189 113.338 17.5189C112.5 17.5189 111.686 17.7026 110.839 17.7026C110.242 17.7026 109.636 17.845 109.037 17.8898C108.082 17.9613 107.14 18.1807 106.191 18.2574C105.537 18.3103 104.806 18.4136 104.157 18.2676C103.661 18.1562 103.038 18.254 102.533 18.254C102.043 18.254 101.452 18.3163 100.967 18.4072C100.351 18.5225 99.7135 18.505 99.0976 18.6182C98.914 18.6519 98.8295 18.6386 98.6664 18.7135C98.5735 18.7562 98.4812 18.7365 98.3835 18.7441C98.2495 18.7545 98.1796 18.8666 98.0332 18.8666" stroke="white" stroke-width="3" stroke-linecap="round"/>
<path d="M98.0945 18.928C98.0945 19.5524 97.7818 19.8949 97.4579 20.3677C97.3685 20.4982 97.3277 20.6275 97.2592 20.7659C97.2115 20.8623 97.1033 20.867 97.0504 20.9497C96.874 21.2251 96.5598 21.5217 96.4609 21.838C96.2923 22.3777 95.8354 22.7925 95.5953 23.2776C95.4381 23.5954 95.3264 23.8903 95.1541 24.2C95.0304 24.4222 94.9263 24.731 94.8678 24.9794C94.8267 25.1538 94.6736 25.2814 94.6084 25.4525C94.55 25.6059 94.4866 25.7108 94.4097 25.8507C94.2447 26.1509 94.024 26.4337 93.8809 26.739C93.5517 27.4413 92.8403 27.9655 92.5774 28.696C92.476 28.9777 92.2392 29.1797 92.1396 29.4516C92.0204 29.7766 91.7239 30.1007 91.5164 30.3569C91.4131 30.4846 91.3616 30.6325 91.2436 30.7517C91.1567 30.8396 91.01 30.9108 90.954 31.024C90.8287 31.2772 90.805 31.574 90.6677 31.8238C90.5181 32.0958 90.748 32.0995 90.9438 32.0995C91.4415 32.0995 91.9503 32.1091 92.4427 32.1744C92.9931 32.2473 93.5136 32.4318 94.0628 32.5283C94.5281 32.6101 94.9928 32.6884 95.4606 32.7598C96.6852 32.9465 97.9357 33.1783 99.1488 33.4507C99.7646 33.589 100.364 33.6923 101.005 33.6923C101.543 33.6923 102.073 33.8362 102.608 33.8795C103.131 33.9218 103.663 34.1701 104.191 34.2437C104.707 34.3156 105.22 34.4109 105.734 34.5024C106.195 34.5846 106.618 34.7648 107.071 34.8563C107.65 34.9733 108.319 35.0373 108.873 35.2239C109.69 35.4993 110.712 35.3264 111.493 35.7004C111.713 35.8057 111.97 35.8224 112.194 35.9046C112.39 35.9768 112.556 36.1428 112.766 36.1428" stroke="white" stroke-width="3" stroke-linecap="round"/>
<path d="M114.717 50.6411C114.717 50.746 114.607 50.776 114.548 50.8526C114.492 50.9256 114.48 51.0349 114.412 51.1027C114.216 51.3007 114.165 51.5207 114.051 51.7738C113.947 52.0051 113.791 52.2108 113.672 52.4341C113.538 52.686 113.43 52.9675 113.308 53.2356C113.176 53.5285 113.004 53.7993 112.868 54.0947C112.809 54.2237 112.715 54.3559 112.642 54.4858C112.575 54.6056 112.538 54.7475 112.45 54.8534C112.346 54.9773 112.308 55.0905 112.272 55.2488C112.239 55.3959 112.129 55.5102 112.09 55.6591C112.053 55.7988 111.954 55.8872 111.9 56.0182C111.832 56.1813 111.767 56.3851 111.663 56.5268C111.34 56.9664 111.091 57.481 110.834 57.9672C110.527 58.5489 110.192 59.0995 109.891 59.6813C109.741 59.9694 109.6 60.3104 109.417 60.5789C109.195 60.9042 109.019 61.2453 108.799 61.5684C108.714 61.6944 108.698 61.8484 108.609 61.9808C108.543 62.0793 108.481 62.1803 108.419 62.28C108.333 62.4162 108.322 62.6431 108.186 62.7288C108.103 62.7813 107.985 63.0394 107.949 63.1349C107.883 63.3082 107.772 63.444 107.655 63.588C107.613 63.6403 107.612 63.7023 107.581 63.759C107.528 63.8557 107.417 63.8938 107.37 63.9983C107.297 64.1588 107.226 64.3212 107.162 64.4856C107.11 64.6203 107.016 64.6777 106.98 64.8275C106.944 64.9806 106.804 65.1727 106.714 65.2977C106.56 65.5108 106.501 65.841 106.325 66.0286C106.161 66.2029 106.089 66.3889 105.959 66.5864C105.851 66.7495 105.765 66.9027 105.716 67.1036C105.684 67.2301 106.256 67.3083 106.333 67.3366C106.48 67.3907 106.643 67.3941 106.796 67.4327C106.974 67.4777 107.143 67.557 107.323 67.5973C107.494 67.6356 107.657 67.6955 107.826 67.7384C108.054 67.7958 108.304 67.8743 108.531 67.9115C109.529 68.075 110.53 68.1902 111.528 68.3453C112.035 68.4242 112.534 68.4906 113.05 68.4906C113.341 68.4906 113.628 68.5291 113.918 68.5291C114.232 68.5291 114.555 68.5068 114.867 68.5483C115.91 68.687 116.993 68.5092 118.012 68.2961C118.93 68.1043 119.835 67.888 120.702 67.5204C121.169 67.3227 121.63 67.1199 122.094 66.922C122.295 66.8365 122.466 66.6922 122.674 66.6249C122.868 66.5618 123.109 66.4992 123.283 66.3919C123.72 66.1218 124.201 65.926 124.596 65.5862C124.88 65.342 125.222 65.1457 125.482 64.8831C126.088 64.2711 126.917 63.7636 127.339 62.9874C127.662 62.3942 128.084 61.8812 128.278 61.22C128.328 61.0528 128.419 60.8904 128.477 60.722C128.531 60.568 128.557 60.4038 128.613 60.2497C128.734 59.9135 128.897 59.5322 128.955 59.179C129.066 58.5081 129.26 57.8762 129.26 57.1893C129.26 56.5679 129.053 55.9813 128.86 55.3962C128.8 55.2152 128.592 54.8258 128.439 54.6995C128.35 54.6261 128.257 54.5563 128.164 54.4879C128.106 54.4447 128.098 54.3879 128.071 54.3255C128.036 54.242 127.95 54.203 127.889 54.1417C127.693 53.9434 127.516 53.7265 127.318 53.5262C127.13 53.336 126.977 53.1366 126.766 52.9706C126.611 52.8488 126.499 52.7288 126.309 52.6222C126.085 52.4964 125.891 52.3549 125.652 52.2568C125.393 52.1512 125.136 52.0291 124.873 51.9405C124.71 51.8856 124.574 51.7516 124.429 51.6648C124.263 51.5654 124.071 51.5023 123.892 51.4318C123.577 51.3081 123.26 51.2432 122.923 51.216C122.533 51.1844 122.176 51.0515 121.785 50.9958C121.458 50.9492 121.138 50.8025 120.8 50.7949C120.296 50.7836 119.765 50.7669 119.266 50.6988C118.778 50.6321 118.303 50.5189 117.818 50.485C117.315 50.45 116.821 50.4102 116.316 50.4102C115.67 50.4102 114.953 50.3471 114.412 50.7565" stroke="white" stroke-width="3" stroke-linecap="round"/>
<path d="M132.23 19.9043C132.287 19.576 132.521 19.3285 132.724 19.0977C133.788 19.1078 134.86 19.1734 135.925 19.1734C136.523 19.1734 137.095 19.3495 137.674 19.4726C138.014 19.5449 138.392 19.5424 138.74 19.5965C139.111 19.6543 139.487 19.7346 139.835 19.8658C140.388 20.0737 140.935 20.1685 141.441 20.5006C141.678 20.6564 142.027 20.7306 142.204 20.9729C142.347 21.1679 142.55 21.3308 142.718 21.5007C142.876 21.6598 142.968 21.8277 143.101 22.0008C143.215 22.1489 143.371 22.2606 143.499 22.4048C143.739 22.6768 143.768 23.1174 144.015 23.3665C144.15 23.5035 144.147 23.7078 144.23 23.8666C144.312 24.0217 144.381 24.1616 144.414 24.3496C144.51 24.8831 144.336 25.4094 144.336 25.9439C144.336 26.225 144.252 26.5081 144.224 26.7881C144.186 27.1767 144.062 27.5438 143.888 27.8887C143.719 28.2235 143.639 28.5535 143.422 28.8654C143.358 28.9579 143.336 29.0555 143.285 29.1539C143.237 29.2476 143.139 29.293 143.088 29.3847C142.962 29.6133 142.807 29.8124 142.661 30.0302C142.487 30.2903 142.247 30.4842 142.069 30.744L142.054 30.7657C141.887 31.0095 141.677 31.3163 141.441 31.4834C141.295 31.5866 141.204 31.7354 141.054 31.8296C140.926 31.91 140.772 31.9602 140.635 32.022C140.31 32.168 140.048 32.4573 139.73 32.6183C139.465 32.7522 139.189 32.9038 138.939 33.0606C138.786 33.1566 138.635 33.2745 138.471 33.3492C138.312 33.4215 138.129 33.4556 137.978 33.5458C137.434 33.871 136.779 33.9229 136.189 34.1549C135.93 34.2568 135.616 34.2541 135.352 34.3494C135.136 34.4274 134.861 34.5107 134.628 34.5225C133.988 34.5548 133.4 34.8953 132.742 34.9072C132.397 34.9134 132.051 34.9072 131.705 34.9072C131.288 34.9072 130.874 34.8302 130.458 34.8302C130.089 34.8302 129.714 34.6569 129.337 34.6379C129.134 34.6277 128.947 34.5406 128.749 34.5246C128.592 34.5119 128.424 34.4893 128.273 34.4434C127.673 34.2617 127.064 34.2173 126.452 34.0908C126.227 34.0443 126.024 33.9706 125.811 33.8877C125.591 33.8023 125.501 33.8185 125.635 33.5607C125.729 33.3806 125.815 33.2072 125.902 33.0222C125.971 32.8756 125.991 32.7277 126.101 32.6012C126.167 32.5241 126.159 32.39 126.234 32.3297C126.302 32.2751 126.339 32.0276 126.367 31.945C126.43 31.757 126.526 31.5801 126.604 31.3979C126.765 31.0229 126.941 30.6703 127.074 30.2887C127.283 29.684 127.652 29.1557 127.89 28.5683C127.959 28.3973 128.07 28.2533 128.137 28.0789C128.202 27.9114 128.271 27.7794 128.383 27.6387C128.49 27.5027 128.544 27.3139 128.622 27.1578C128.719 26.9605 128.888 26.815 128.956 26.6064C129.065 26.27 129.318 25.9338 129.497 25.6276C129.656 25.3566 129.891 25.0595 130.003 24.7706C130.121 24.4661 130.314 24.152 130.479 23.8751C130.61 23.6537 130.745 23.4215 130.838 23.1784C130.995 22.7701 131.208 22.4086 131.346 21.9902C131.478 21.5905 131.71 21.2022 131.896 20.8275C131.972 20.6731 132.043 20.4764 132.08 20.3082C132.098 20.2274 132.149 20.1421 132.154 20.0582C132.159 19.967 132.219 19.9664 132.23 19.9043Z" fill="#040D08"/>
<path d="M132.725 19.0964C132.521 19.3276 132.287 19.5754 132.23 19.9043C132.219 19.9664 132.159 19.967 132.154 20.0582C132.149 20.1421 132.098 20.2274 132.08 20.3082C132.043 20.4764 131.972 20.6731 131.896 20.8275C131.71 21.2022 131.478 21.5905 131.346 21.9902C131.208 22.4086 130.995 22.7701 130.838 23.1784C130.745 23.4215 130.61 23.6537 130.479 23.8751C130.314 24.152 130.121 24.4661 130.003 24.7706C129.891 25.0595 129.656 25.3566 129.497 25.6276C129.318 25.9338 129.065 26.27 128.956 26.6064C128.888 26.815 128.719 26.9605 128.622 27.1578C128.544 27.3139 128.49 27.5027 128.383 27.6387C128.271 27.7794 128.202 27.9114 128.137 28.0789C128.07 28.2533 127.959 28.3973 127.89 28.5683C127.652 29.1557 127.283 29.684 127.074 30.2887C126.941 30.6703 126.765 31.0229 126.604 31.3979C126.526 31.5801 126.43 31.757 126.367 31.945C126.339 32.0276 126.302 32.2751 126.234 32.3297C126.159 32.39 126.167 32.5241 126.101 32.6012C125.991 32.7277 125.971 32.8756 125.902 33.0222C125.815 33.2072 125.729 33.3806 125.635 33.5607C125.501 33.8185 125.591 33.8023 125.811 33.8877C126.024 33.9706 126.227 34.0443 126.452 34.0908C127.064 34.2173 127.673 34.2617 128.273 34.4434C128.424 34.4893 128.592 34.5119 128.749 34.5246C128.947 34.5406 129.134 34.6277 129.337 34.6379C129.714 34.6569 130.089 34.8302 130.458 34.8302C130.874 34.8302 131.288 34.9072 131.705 34.9072C132.051 34.9072 132.397 34.9134 132.742 34.9072C133.4 34.8953 133.988 34.5548 134.628 34.5225C134.861 34.5107 135.136 34.4274 135.352 34.3494C135.616 34.2541 135.93 34.2568 136.189 34.1549C136.779 33.9229 137.434 33.871 137.978 33.5458C138.129 33.4556 138.312 33.4215 138.471 33.3492C138.635 33.2745 138.786 33.1566 138.939 33.0606C139.189 32.9038 139.465 32.7522 139.73 32.6183C140.048 32.4573 140.31 32.168 140.635 32.022C140.772 31.9602 140.926 31.91 141.054 31.8296C141.204 31.7354 141.295 31.5866 141.441 31.4834C141.684 31.3113 141.9 30.991 142.069 30.744C142.247 30.4842 142.487 30.2903 142.661 30.0302C142.807 29.8124 142.962 29.6133 143.088 29.3847C143.139 29.293 143.237 29.2476 143.285 29.1539C143.336 29.0555 143.358 28.9579 143.422 28.8654C143.639 28.5535 143.719 28.2235 143.888 27.8887C144.062 27.5438 144.186 27.1767 144.224 26.7881C144.252 26.5081 144.336 26.225 144.336 25.9439C144.336 25.4094 144.51 24.8831 144.414 24.3496C144.381 24.1616 144.312 24.0217 144.23 23.8666C144.147 23.7078 144.15 23.5035 144.015 23.3665C143.768 23.1174 143.739 22.6768 143.499 22.4048C143.371 22.2606 143.215 22.1489 143.101 22.0008C142.968 21.8277 142.876 21.6598 142.718 21.5007C142.55 21.3308 142.347 21.1679 142.204 20.9729C142.027 20.7306 141.678 20.6564 141.441 20.5006C140.935 20.1685 140.388 20.0737 139.835 19.8658C139.487 19.7346 139.111 19.6543 138.74 19.5965C138.392 19.5424 138.014 19.5449 137.674 19.4726C137.095 19.3495 136.523 19.1734 135.925 19.1734C134.772 19.1734 133.609 19.0964 132.458 19.0964" stroke="white" stroke-width="3" stroke-linecap="round"/>
<path d="M97.9125 71.9814C96.2441 71.9814 94.5757 71.9814 92.9073 71.9814C92.2196 71.9814 91.4059 72.015 90.745 72.2129C90.12 72.4 89.4441 72.399 88.8049 72.5192C88.0939 72.6529 87.3334 72.4799 86.6223 72.6077C86.1432 72.6937 85.6073 72.7166 85.1201 72.7166C84.5977 72.7166 84.0807 72.8886 83.5572 72.9004C82.0594 72.934 80.5828 73.268 79.0809 73.268C77.9903 73.268 76.8677 73.3556 75.7835 73.4552C75.3032 73.4993 74.7293 73.4262 74.2644 73.5436C74.0579 73.5958 73.8512 73.538 73.6581 73.6355C73.4625 73.7344 73.1814 73.741 72.9643 73.7887C72.0662 73.986 71.1368 73.921 70.2361 74.061C69.692 74.1456 69.1122 74.0951 68.5755 74.1937C68.3207 74.2405 68.1497 74.3094 67.8716 74.3094C67.5127 74.3094 67.167 74.4253 66.8106 74.432C65.7781 74.4513 64.7507 74.6157 63.7186 74.6157C63.4597 74.6157 61.7209 74.7387 61.7179 74.8131C61.7058 75.1193 61.7182 75.4202 61.792 75.7185C61.8656 76.0159 62.1341 76.3135 62.1423 76.6034C62.1534 76.9971 62.1925 77.4444 62.277 77.8286C62.3854 78.3213 62.499 78.6624 62.7149 79.1186C63.0729 79.875 63.2509 80.6765 63.5031 81.4772C63.5917 81.7587 63.6023 82.3106 63.8365 82.488C64.0615 82.6586 64.0705 83.3273 64.1733 83.5976C64.4241 84.2563 64.7591 84.9733 64.8705 85.6771C64.9233 86.0101 65.1256 86.1851 65.177 86.4973C65.24 86.8788 66.2234 86.6845 66.5075 86.6845C67.5471 86.6845 68.5868 86.6845 69.6264 86.6845C70.1374 86.6845 70.6413 86.6233 71.1455 86.6233C71.634 86.6233 72.2603 86.6512 72.7218 86.5007C73.3337 86.3013 74.1752 86.4395 74.8168 86.4395C75.258 86.4395 75.6993 86.4395 76.1405 86.4395C76.6698 86.4395 77.1855 86.562 77.7202 86.562C79.6026 86.562 81.4767 86.7913 83.3619 86.6369C84.1155 86.5751 84.862 86.4395 85.6186 86.4395C86.0584 86.4395 86.489 86.4461 86.9254 86.3918C87.8992 86.2707 88.9492 86.3782 89.9299 86.3782C92.2921 86.3782 94.6543 86.3782 97.0165 86.3782C99.2797 86.3782 101.544 86.3978 103.807 86.3782C106.61 86.354 109.415 86.0949 112.217 86.014C112.602 86.0029 112.988 86.0244 113.372 85.997C113.741 85.9708 114.096 85.8593 114.464 85.8337C115.091 85.7899 115.718 85.8208 116.347 85.7656C117.493 85.6648 118.675 85.6431 119.826 85.6431C121.368 85.6431 122.927 85.5788 124.467 85.6465C125.561 85.6945 126.617 85.8606 127.68 86.014C127.997 86.0597 128.298 86.0719 128.624 86.0719C128.909 86.0719 129.161 85.9494 129.439 85.9494" stroke="white" stroke-width="3" stroke-linecap="round"/>
<path d="M149.205 44.1682C149.316 44.3591 149.614 44.5202 149.781 44.6889C149.975 44.8848 150.239 45.0039 150.451 45.179C150.826 45.4888 151.332 45.7027 151.667 46.0674C151.789 46.2001 151.966 46.284 152.102 46.4213C152.217 46.5375 152.416 46.5573 152.509 46.6834C152.679 46.9119 152.969 47.0626 153.116 47.2926C153.43 47.7863 153.963 48.0655 154.301 48.5213C154.607 48.9332 155.132 49.2724 155.332 49.7431C155.433 49.9814 155.669 50.1901 155.783 50.4442C155.846 50.5842 155.953 50.6627 156.043 50.7846C156.148 50.9276 156.172 51.1005 156.265 51.2475C156.406 51.4712 156.447 51.797 156.544 52.0439C156.682 52.391 156.834 52.7782 156.999 53.1126C157.305 53.7308 157.624 54.5309 157.696 55.2262C157.733 55.5815 157.935 55.8651 157.935 56.237C157.935 56.6325 157.996 57.0305 157.996 57.4316C157.996 58.0749 157.996 58.7181 157.996 59.3614C157.996 59.9246 157.944 60.5922 157.76 61.104C157.716 61.2281 157.788 61.3798 157.74 61.5056C157.701 61.6103 157.632 61.7289 157.632 61.8425C157.632 62.0821 157.511 62.2897 157.511 62.5198C157.511 62.7353 157.39 62.9263 157.39 63.1325C157.39 63.3672 157.34 63.7224 157.208 63.9221C156.928 64.3464 156.91 64.9487 156.598 65.3686C156.444 65.5761 156.314 65.9428 156.238 66.1922C156.129 66.5488 155.901 66.8237 155.726 67.1452C155.359 67.8191 155.125 68.6298 154.601 69.1975C154.499 69.3076 154.41 69.464 154.328 69.5923C154.244 69.7247 154.098 69.7634 154.042 69.9122C153.943 70.1731 153.594 70.432 153.436 70.6814C153.21 71.0364 152.929 71.3548 152.647 71.6616C152.396 71.9346 152.102 72.3174 151.799 72.5329C151.534 72.7208 151.446 73.0418 151.192 73.2068C150.903 73.3948 150.665 73.6441 150.418 73.8807C149.865 74.4098 149.295 74.8761 148.686 75.3374C148.354 75.5895 147.999 75.8618 147.737 76.1814C147.572 76.3821 147.334 76.5047 147.177 76.726C147.059 76.8939 146.914 76.8838 146.78 77.0051C146.221 77.5103 145.513 77.8704 144.901 78.3052C144.551 78.5537 144.194 78.8887 143.776 79.0132C143.642 79.0528 143.667 79.2134 143.536 79.2718C143.435 79.3173 143.311 79.3953 143.216 79.4556C142.735 79.7622 142.387 80.2833 141.869 80.5447C141.367 80.7985 140.937 81.163 140.461 81.4773C140.246 81.6195 140.039 81.8029 139.808 81.9197C139.671 81.989 139.534 82.0228 139.414 82.1171C139.301 82.2054 139.223 82.3403 139.08 82.3826C138.556 82.5383 138.065 82.9396 137.565 83.179C136.947 83.4747 136.35 83.7025 135.699 83.9142C134.897 84.1745 134.01 84.4068 133.26 84.7855C132.538 85.1504 131.584 85.0478 130.835 85.3504C130.281 85.5745 129.577 85.4661 129.016 85.718C128.662 85.8771 128.26 86.072 127.864 86.072" stroke="white" stroke-width="3" stroke-linecap="round"/>
<path d="M161.755 3.9187C161.862 3.93221 162.073 4.09896 162.18 4.15014C162.377 4.24447 162.576 4.25812 162.786 4.31691C163.049 4.39088 163.22 4.49815 163.51 4.53473C163.779 4.56878 164.054 4.68082 164.315 4.76277C164.901 4.9467 165.623 4.96347 166.147 5.30052C166.579 5.5783 167.06 5.75595 167.393 6.19904C167.522 6.36969 167.78 6.46214 167.939 6.61427C168.114 6.78163 168.265 6.92875 168.397 7.1384C168.533 7.35482 168.81 7.52163 168.909 7.74763C168.995 7.94391 169.107 8.13286 169.199 8.32963C169.261 8.46166 169.391 8.53411 169.455 8.66317C169.521 8.79786 169.544 8.96796 169.59 9.11243C169.666 9.35354 169.699 9.60354 169.788 9.83737C170.003 10.4012 170.109 11.028 170.351 11.5766C170.453 11.8085 170.417 11.9841 170.58 12.1892C170.676 12.3111 170.695 12.6736 170.758 12.8393C170.956 13.358 171.104 13.9004 171.26 14.4083C171.445 15.0117 171.463 15.6452 171.573 16.2598C171.646 16.6609 171.698 17.1725 171.698 17.5803C171.698 18.0998 171.88 18.5734 171.88 19.1119C171.88 19.6043 172.001 20.0931 172.001 20.5822C172.001 20.9804 172.001 21.3786 172.001 21.7768C172.001 22.3658 171.637 22.9075 171.637 23.4956C171.637 23.9216 171.508 24.465 171.365 24.8706C171.309 25.0292 171.271 25.3449 171.152 25.4526C171.01 25.5819 170.856 26.0258 170.849 26.2048C170.842 26.388 170.728 26.6058 170.654 26.7834C170.585 26.9467 170.445 27.0926 170.364 27.2598C170.282 27.4304 170.246 27.6007 170.182 27.7772C170.082 28.0562 169.928 28.2367 169.788 28.4885C169.62 28.791 169.522 29.0786 169.3 29.3428C169.125 29.5504 168.961 29.9913 168.849 30.2481C168.716 30.5522 168.424 30.8188 168.246 31.0888C167.89 31.6271 167.399 32.0797 166.942 32.5284C166.321 33.1387 165.803 33.9023 165.117 34.431C164.505 34.9021 163.916 35.3911 163.304 35.8503C162.066 36.7797 160.773 37.6649 159.667 38.75C159.479 38.9345 159.162 39.0802 158.933 39.2061C158.808 39.2744 158.727 39.3949 158.602 39.4648C158.474 39.537 158.318 39.5721 158.205 39.6656C157.949 39.8775 157.539 40.0922 157.235 40.2237C157.072 40.2945 156.909 40.4273 156.784 40.5539C156.659 40.6794 156.493 40.7035 156.346 40.7989C156.042 40.9962 155.727 41.1476 155.423 41.3503C155.163 41.5239 154.768 41.5779 154.54 41.7825C153.804 42.4444 152.767 42.6767 151.9 43.1269C151.641 43.2614 151.372 43.3344 151.098 43.4196C150.884 43.4861 150.579 43.4736 150.394 43.617C150.159 43.7996 149.584 43.7697 149.448 44.0459" stroke="white" stroke-width="3" stroke-linecap="round"/>
<path d="M100.641 13.1082C100.858 13.3035 101.432 13.3312 101.698 13.3498C102.03 13.3729 102.369 13.3532 102.702 13.3532C103.424 13.3532 104.283 13.3685 104.959 13.6323C105.336 13.7797 105.835 13.8096 106.235 13.8433C106.901 13.8994 107.636 13.93 108.293 14.0407C109.424 14.2311 110.562 14.2964 111.702 14.4423C113.094 14.6206 114.491 14.7212 115.872 14.8984C117.07 15.0522 118.335 15.1227 119.496 15.4702C119.956 15.6079 120.501 15.6041 120.978 15.6812C121.427 15.7539 121.902 15.865 122.359 15.865C122.969 15.865 123.575 15.9875 124.164 15.9875" stroke="white" stroke-width="3" stroke-linecap="round"/>
<path d="M104.642 3.55103C104.642 3.63556 104.615 3.90722 104.568 3.96625C104.513 4.03622 104.407 4.21284 104.386 4.29979C104.284 4.73635 104.089 5.15255 103.989 5.58631C103.929 5.84467 103.764 5.96397 103.672 6.19894C103.556 6.49534 103.516 6.81532 103.369 7.10427C103.146 7.54295 103.045 8.00561 102.85 8.45546C102.721 8.75401 102.506 9.04687 102.46 9.371C102.426 9.61142 102.291 9.95025 102.184 10.1674C102.069 10.3985 101.891 10.6148 101.763 10.8447C101.653 11.0414 101.636 11.3062 101.513 11.4846C101.321 11.7647 101.264 12.0675 101.156 12.3729C101.114 12.4915 101.108 12.6713 101.032 12.7711C100.936 12.8956 100.762 13.1389 100.762 13.2918" stroke="white" stroke-width="3" stroke-linecap="round"/>
<path d="M104.399 3.55075C105.24 3.55075 106.076 3.54106 106.912 3.60861C107.738 3.67542 108.547 3.80848 109.37 3.86047C110.379 3.92414 111.386 3.91833 112.398 3.91833C113.607 3.91833 114.794 3.73454 115.999 3.73454C118.761 3.73454 121.521 3.67327 124.285 3.67327C125.637 3.67327 126.986 3.61201 128.34 3.61201C129.604 3.61201 130.873 3.42822 132.139 3.42822C134.576 3.42822 137.007 3.48949 139.442 3.48949C141.169 3.48949 142.883 3.69094 144.608 3.73454C145.581 3.75911 146.575 3.98781 147.552 3.82983C148.288 3.71081 149.023 3.73253 149.762 3.65966C151.001 3.5375 152.276 3.61201 153.521 3.61201C154.722 3.61201 155.91 3.48949 157.111 3.48949C158.156 3.48949 159.318 3.34849 160.345 3.53713C160.588 3.58184 160.874 3.58626 161.106 3.67327C161.296 3.74469 161.423 3.85706 161.631 3.85706" stroke="white" stroke-width="3" stroke-linecap="round"/>
</svg>
