<svg width="204" height="67" viewBox="0 0 204 67" fill="none" xmlns="http://www.w3.org/2000/svg">
<path d="M71.0002 2.83619C70.1898 2.83619 69.1451 2.71728 68.4108 3.04861C68.029 3.22089 67.4979 2.92944 67.1161 3.10172C66.7051 3.28715 66.2749 3.31414 65.8214 3.31414C64.1089 3.31414 62.4575 3.82542 60.7603 3.91157C58.8895 4.00652 57.1175 4.74797 55.2284 4.74797C54.7691 4.74797 54.3069 4.98694 53.8421 4.98694C53.3263 4.98694 52.8679 5.05183 52.3774 5.19936C51.5394 5.45143 50.4113 5.32724 49.6376 5.7636C49.2737 5.96882 48.527 5.96103 48.1075 6.05567C47.6978 6.14809 47.0571 6.15686 46.6951 6.36102C46.3773 6.54024 45.7589 6.599 45.3939 6.66638C44.8841 6.76047 44.3962 6.89871 43.8768 6.89871C43.4149 6.89871 43.0152 7.15135 42.5756 7.25053C42.328 7.30638 41.4796 7.49785 41.3397 7.67537C41.1674 7.89407 40.3753 8.02571 40.1039 8.08693C39.6209 8.19588 39.0908 8.21875 38.6326 8.42547C37.9159 8.74886 36.8192 8.96193 36.0432 9.04946C34.9846 9.16886 33.9068 9.69893 32.8653 9.97879C31.8252 10.2583 30.8439 10.6555 29.8051 10.9347C28.8539 11.1903 27.9938 11.7084 27.0392 11.9238C25.9689 12.1652 25.0164 12.8846 23.979 13.1186C23.0672 13.3243 22.2976 13.9759 21.3896 14.1807C19.7771 14.5445 18.2418 15.6341 16.6815 16.3381C14.8606 17.1597 13.3092 18.1517 11.5027 18.9668C10.7423 19.3099 9.91686 20.1113 9.26643 20.6396C8.9095 20.9295 8.60918 21.2465 8.21367 21.476C8.06764 21.5607 7.46777 22.1101 7.35054 22.3124C7.03866 22.8506 6.35473 23.1393 6.05583 23.7462C5.87266 24.1181 5.62585 24.4577 5.41502 24.8216C5.2035 25.1866 4.86583 25.6114 4.61728 25.9899C4.29543 26.48 4.10125 26.9561 3.88492 27.4503C3.50805 28.3111 2.90469 29.112 2.85177 30.079C2.84043 30.2863 2.63342 31.0431 2.52483 31.1809C2.27368 31.4996 2.42019 32.1804 2.19788 32.5351C1.69835 33.3319 2.27626 33.9188 2.49213 34.6858C2.7154 35.4791 2.55777 36.6361 3.08717 37.3079C3.62893 37.9953 4.38779 38.5972 4.79383 39.3391C4.89903 39.5313 5.03333 39.6354 5.17962 39.7839C5.36079 39.9678 5.35576 40.3076 5.49349 40.5273C5.65898 40.7913 6.10407 41.1692 6.38278 41.3106" stroke="#F2F2F2" stroke-width="3" stroke-linecap="round"/>
<path d="M5.91016 41.3106C5.98264 41.9728 6.76817 42.3181 7.1787 42.6515C7.69536 43.0711 8.32432 43.2835 8.79381 43.7601C9.35799 44.3328 9.93205 44.8115 10.5593 45.3068C10.915 45.5876 11.2886 45.6953 11.6186 46.0303C11.877 46.2926 12.2928 46.5484 12.6191 46.714C13.7061 47.2658 14.3992 48.5793 15.5027 49.0772C16.1612 49.3743 16.8087 49.8031 17.4448 50.126C18.0157 50.4158 18.767 50.8425 19.3868 50.9823C19.9306 51.105 20.6519 51.4834 21.1523 51.7656C21.7907 52.1256 22.5563 52.3026 23.2382 52.5688C23.9695 52.8544 24.61 53.3854 25.3307 53.7106C26.0601 54.0397 26.9212 54.2359 27.6258 54.6333C28.27 54.9966 29.0824 55.1612 29.751 55.4697C30.6298 55.8752 31.5711 56.191 32.4842 56.5119C33.3225 56.8064 34.1064 57.2666 34.9756 57.5607C35.7506 57.8229 36.6928 57.8413 37.4538 58.1847C38.1536 58.5004 38.9761 58.6511 39.7163 58.9016C40.8577 59.2878 42.1464 59.5619 43.3388 59.8309C44.5208 60.0976 45.716 60.4017 46.8698 60.7271C48.2108 61.1052 49.6244 61.2223 50.9893 61.5303C52.2276 61.8096 53.6069 62.1492 54.8734 62.2206C55.4784 62.2548 56.1674 62.4561 56.7566 62.6056C57.416 62.773 58.1204 62.7931 58.7641 62.9973C59.9511 63.3739 61.3949 63.3575 62.5239 63.8669C62.8018 63.9923 63.2782 63.8934 63.5832 63.8934C64.0941 63.8934 64.8479 63.9472 65.3422 64.0727C65.9197 64.2192 66.5277 64.0729 67.1143 64.139C67.9155 64.2294 68.7205 64.3174 69.5271 64.378C70.6198 64.4602 71.7083 64.6103 72.8096 64.6103C73.7174 64.6103 74.5591 64.8493 75.471 64.8493C77.4475 64.8493 79.4347 64.9688 81.4214 64.9688C83.507 64.9688 85.6284 65.1196 87.6856 64.7564C88.4874 64.6148 89.3961 64.4909 90.2096 64.4909C91.0278 64.4909 91.8149 64.2654 92.629 64.2519C93.5911 64.2359 94.5523 64.1644 95.5062 64.0395C96.5349 63.9047 97.6378 64.0481 98.6514 63.8337C99.5911 63.635 100.578 63.6545 101.535 63.6545C102.506 63.6545 103.489 63.4487 104.451 63.3226C106.353 63.0735 108.329 63.1642 110.193 62.6388C117.454 60.5912 125.066 59.8118 132.248 57.3815C132.993 57.1293 133.729 56.7528 134.445 56.4256C135.056 56.1467 135.769 56.0496 136.322 55.6489C136.879 55.245 137.626 55.0732 138.146 54.6266C138.77 54.0905 139.418 53.698 140.115 53.2592C142.247 51.9156 144.665 51.0728 146.771 49.6746C148.524 48.5109 150.198 47.4175 151.682 45.9108C151.908 45.6815 152.337 45.2539 152.447 44.9483C152.641 44.4063 153.169 44.0805 153.415 43.5808C153.739 42.9219 154.322 42.3764 154.683 41.7355C155.087 41.0183 155.51 40.2636 155.919 39.525C156.208 39.0034 156.77 38.229 156.802 37.6066C156.819 37.2789 157.02 36.9705 157.037 36.6507C157.056 36.31 157.075 35.8188 157.214 35.5089C157.403 35.0868 157.303 34.5196 157.449 34.0751C157.621 33.5524 157.626 33.0366 157.626 32.4952C157.626 31.0597 157.294 29.2507 156.279 28.2203C155.943 27.8794 155.576 27.123 155.331 26.6736C155.019 26.1038 154.71 25.4709 154.33 24.9145C153.307 23.4139 151.675 22.8128 150.145 21.8809C148.579 20.927 147.23 19.6153 145.444 19.2124C144.673 19.0384 143.694 18.8787 142.979 18.5486C142.002 18.098 140.63 18.1516 139.565 17.9179C137.883 17.5488 136.456 17.4135 134.7 17.4135C133.03 17.4135 131.421 17.4787 129.796 17.7785C128.39 18.0381 127.39 18.4413 126.141 19.146C125.735 19.3751 125.08 19.8498 124.787 20.2214C124.661 20.3818 124.412 20.6659 124.251 20.7591C124.098 20.848 123.511 21.4462 123.493 21.5955C123.463 21.8374 123.155 22.1886 123.048 22.4319C122.939 22.6797 123.022 23.118 123.022 23.3877C123.022 24.0658 122.904 24.6758 122.904 25.3593C122.904 26.0712 123.188 26.2592 123.493 26.7997C123.687 27.1442 124 27.3894 124.199 27.7423C124.313 27.9454 124.603 28.316 124.787 28.4327C125.093 28.6266 125.663 29.2215 125.847 29.5479C126.04 29.8911 126.267 30.1218 126.605 30.3179C126.856 30.4636 127.008 30.9249 127.168 31.1278C127.352 31.3614 127.416 31.6816 127.586 31.8978C127.751 32.107 127.609 32.596 127.756 32.8006C128.073 33.2431 128.195 34.0253 128.312 34.5597C128.594 35.849 128.416 37.2961 128.318 38.589C128.267 39.268 127.688 39.8212 127.612 40.4742C127.553 40.9831 127.1 41.7451 126.847 42.2068C126.512 42.8188 126.291 43.4896 126.056 44.1517C125.894 44.609 125.493 44.6765 125.258 45.0412C125.114 45.2643 124.95 45.8385 124.722 45.9706C124.565 46.0618 124.298 46.4588 124.199 46.6344C123.999 46.9891 123.71 47.184 123.434 47.4641C122.699 48.2101 121.993 48.5842 121.112 49.1037C119.326 50.1581 117.475 51.1416 115.666 52.1307C114.686 52.6661 113.581 53.0235 112.547 53.4318C111.437 53.87 110.144 54.0914 109.107 54.693C108.641 54.9632 107.893 54.9483 107.368 55.078C106.581 55.2722 105.754 55.251 104.961 55.4763C103.875 55.7853 102.792 56.0378 101.744 56.3924C100.563 56.7921 99.3222 57.0345 98.0956 57.2952C96.4259 57.6499 94.6473 58.0386 92.9494 58.0386C89.7858 58.0386 86.6517 58.7555 83.468 58.7555C82.0391 58.7555 80.3179 58.9198 78.9497 58.4568C77.8992 58.1014 76.3198 58.3971 75.2094 58.3971C74.236 58.3971 73.2095 58.2826 72.2408 58.1515C71.7117 58.0799 71.1859 57.9803 70.6518 57.9125C70.249 57.8614 69.7491 57.8656 69.3506 57.7731C68.4764 57.5703 67.5286 57.7261 66.6696 57.4678C66.1115 57.2999 65.366 57.2156 64.7864 57.2022C64.2031 57.1888 63.6171 56.9633 63.0471 56.9633C62.1663 56.9633 61.2928 56.4853 60.4053 56.4853C59.1911 56.4853 57.8139 55.8252 56.6389 55.5029C54.7164 54.9754 52.8135 54.5535 51.0482 53.5579C49.2536 52.5458 47.296 51.8416 45.5293 50.75C44.1626 49.9054 42.914 48.4682 42.1357 47.0459C41.9467 46.7007 41.6054 46.4472 41.4295 46.09C41.2607 45.7473 40.9054 45.2129 40.6317 44.9549C40.1047 44.4581 39.7894 43.7348 39.3109 43.2489C38.9107 42.8428 38.6328 41.9652 38.3693 41.4301C37.983 40.646 37.5814 39.8659 37.4473 38.9806C37.1337 36.9113 36.3945 34.7518 36.3945 32.6545C36.3945 30.8741 36.5417 29.3021 37.3361 27.6892C38.1283 26.0808 38.5485 24.3144 39.5136 22.7903C40.0296 21.9754 40.6326 21.0703 41.3968 20.467C42.131 19.8872 43.1385 19.231 43.6919 18.4623C43.977 18.0662 44.5036 17.5844 44.8951 17.294C45.3419 16.9625 45.7258 16.3232 46.2225 16.0991C47.0204 15.7391 47.8582 14.8346 48.6092 14.3068C49.219 13.8782 49.8754 13.4689 50.4662 13.019C50.8598 12.7194 51.37 12.4601 51.7217 12.1295C52.2306 11.6512 52.9349 11.3945 53.4872 10.9612C53.9574 10.5924 54.526 10.2477 55.0631 10.0053C55.8329 9.658 56.5527 9.29885 57.2928 8.90341C58.3998 8.31196 59.6226 7.89345 60.7584 7.3169C62.103 6.63444 63.4863 6.03336 64.9237 5.58436C65.315 5.46214 65.6541 5.19684 66.055 5.10641C66.3183 5.04701 66.9834 4.88559 67.2058 4.7214C68.5643 3.71842 70.4904 3.73753 71.8223 2.83618" stroke="#F2F2F2" stroke-width="3" stroke-linecap="round"/>
<path d="M132.321 64.3716C133.2 64.3716 133.956 64.1326 134.852 64.1326C135.012 64.1326 135.829 64.0797 135.944 63.9866C136.238 63.7482 136.786 63.9637 137.147 63.8007C137.412 63.6813 138.201 63.6547 138.501 63.6547C138.849 63.6547 139.322 63.6088 139.678 63.5286C140.619 63.3161 141.624 63.3565 142.568 63.117C143.366 62.9145 144.47 62.9378 145.295 62.9378C145.922 62.9378 146.517 62.8183 147.152 62.8183C148.16 62.8183 149.198 62.3403 150.212 62.3403C150.694 62.3403 151.229 62.0464 151.742 61.9885C152.456 61.908 153.151 61.7076 153.867 61.6168C154.615 61.5219 155.411 61.1455 156.156 61.1455C156.78 61.1455 157.726 60.9177 158.327 60.7273C159.556 60.3374 160.927 60.2395 162.1 59.7382C162.877 59.4058 163.729 59.1649 164.512 58.9881C165.042 58.8686 165.601 58.6495 166.101 58.4239C166.604 58.1972 167.294 58.2089 167.775 57.9194C168.364 57.5651 169.137 57.5118 169.776 57.2954C170.451 57.067 171.158 56.8301 171.843 56.6316C174.623 55.8252 177.352 54.7929 180.114 53.9166C181.297 53.5415 182.64 53.1724 183.756 52.6354C184.78 52.1434 185.94 51.8711 186.908 51.2282C187.854 50.6005 188.862 50.1157 189.811 49.5023C190.244 49.2227 190.749 49.0218 191.145 48.6924C191.595 48.3187 192.282 48.1663 192.702 47.7631C193.131 47.3498 193.787 46.9822 194.291 46.628C194.773 46.2892 195.206 45.7774 195.696 45.4928C196.464 45.0476 197.178 43.8212 197.704 43.1098C198.838 41.5749 200.345 40.4228 201.202 38.6821C201.936 37.1932 202 35.29 202 33.604C202 33.2631 201.99 32.6053 201.765 32.3494C201.551 32.1065 201.176 31.4603 201.176 31.1545C201.176 30.3734 201.251 29.2294 200.758 28.5856C200.499 28.2475 200.38 27.7713 200.091 27.477C199.778 27.1595 199.144 26.6403 198.966 26.2291C198.798 25.8407 198.269 25.6279 197.972 25.3263C197.675 25.0247 197.361 24.755 197.057 24.4633C196.409 23.8424 196.02 23.1241 195.239 22.671C194.535 22.2628 193.757 21.6787 193.114 21.1708C191.582 19.9617 189.965 18.8195 188.229 17.9845C187.345 17.5594 186.56 17.0036 185.698 16.5175C184.934 16.0866 183.822 15.8061 183.286 15.0505C183.043 14.7087 182.433 14.4062 182.056 14.1876C181.845 14.0649 181.166 13.7981 181.049 13.6499C180.781 13.3088 180.146 13.5986 179.813 13.4109C179.554 13.2646 179.188 13.2903 178.905 13.2051C178.653 13.1294 178.396 12.9318 178.166 12.8798C177.309 12.6866 176.488 11.9887 175.609 11.9173C174.999 11.8677 174.189 11.424 173.634 11.1739C172.159 10.5082 170.828 9.77733 169.22 9.41476C168.872 9.3361 168.413 9.06821 168.102 9.04966C167.798 9.03149 167.179 8.84921 166.951 8.66465C166.469 8.27305 165.137 7.85481 164.512 7.85481C164.111 7.85481 163.639 7.80594 163.277 7.64239C163.012 7.52321 162.271 7.37686 161.982 7.37686C160.977 7.37686 159.962 6.61962 158.948 6.54046C157.076 6.39431 155.372 5.22612 153.449 5.22612C152.431 5.22612 151.454 4.5092 150.447 4.5092C149.517 4.5092 148.577 3.91177 147.622 3.91177C145.894 3.91177 144.164 3.31434 142.444 3.31434C141.307 3.31434 140.042 3.24578 138.913 3.08201C137.971 2.94539 136.982 2.8364 136.029 2.8364C131.909 2.8364 127.889 2.11949 123.788 2.11949C121.712 2.11949 119.553 2 117.439 2C116.459 2 115.499 2.23897 114.549 2.23897C113.529 2.23897 112.509 2.23897 111.489 2.23897C109.293 2.23897 107.166 2.8364 104.956 2.8364C104.4 2.8364 103.893 2.95589 103.341 2.95589C102.716 2.95589 101.864 2.95925 101.249 3.10192C99.9833 3.39552 98.6373 3.39075 97.3907 3.76574C96.8139 3.93922 96.1853 3.9071 95.6056 4.091C95.0221 4.27611 94.3851 4.38972 93.7747 4.38972C92.6459 4.38972 91.5432 4.81066 90.4202 4.86766C89.9288 4.8926 89.1532 4.9605 88.707 5.16637C88.1686 5.41482 87.4475 5.32242 86.8892 5.52483C86.3419 5.72328 85.698 5.84083 85.1237 6.00278C84.5548 6.16321 83.8225 6.23628 83.2928 6.48072C82.6059 6.79771 81.8088 6.79752 81.1219 7.11134C80.4204 7.43181 79.5991 7.60576 78.8594 7.82825C77.879 8.12316 76.72 8.6965 75.7077 8.81069C74.7279 8.92121 73.6354 9.42118 72.6998 9.76658C71.8439 10.0825 71.0205 10.339 70.2346 10.7822C68.3239 11.8598 66.1871 12.5201 64.1665 13.4175C62.5015 14.157 60.8481 14.8959 59.2297 15.7409C58.1253 16.3175 57.1087 17.4166 55.9602 17.8651C53.8623 18.6842 52.4549 20.8261 50.9318 22.3723C50.2571 23.0573 49.6241 23.8558 49.1336 24.7023C48.6283 25.5743 47.853 26.5079 47.4858 27.477C47.2767 28.0288 47.0502 28.6583 46.8123 29.1897C46.6415 29.571 46.7534 30.2065 46.7534 30.6235C46.7534 31.8139 46.6357 33.0466 46.6357 34.2612C46.6357 35.4539 47.0864 36.5292 47.3354 37.6665C47.4401 38.1446 47.6873 38.7147 47.9828 39.1003C48.3258 39.5481 48.3781 40.2308 48.702 40.6537C49.2735 41.3995 49.7543 41.9934 50.4545 42.6252C51.1128 43.2192 52.0401 43.6858 52.7823 44.1785C54.7069 45.4559 56.9458 46.2228 58.9354 47.3449C59.7929 47.8285 60.8432 47.7078 61.7014 48.095C61.9658 48.2143 62.6489 48.3605 62.9372 48.3605C63.3826 48.3605 63.9099 48.6264 64.3496 48.7256C65.3676 48.9552 66.4052 49.5554 67.4687 49.5554C67.9841 49.5554 68.5112 49.7743 69.0249 49.7943C69.6811 49.82 70.3428 49.7943 70.9997 49.7943C73.2668 49.7943 75.3145 49.0976 77.4209 48.4866C78.0365 48.3081 78.894 47.519 79.3825 47.0727C79.9885 46.5191 80.366 45.725 80.8865 45.1344C81.5054 44.4322 81.7104 43.3521 81.7104 42.446C81.7104 42.0059 81.7878 41.4792 81.6189 41.0719C81.5104 40.8104 81.2719 40.2586 81.2396 39.9965C81.191 39.6017 80.5964 39.141 80.3634 38.8614C79.8353 38.2279 79.1717 37.7778 78.5913 37.1886C77.6845 36.268 76.3105 35.0886 75.9431 33.7832C75.8356 33.4014 75.5512 33.1019 75.4723 32.7012C75.3704 32.1838 75.2551 31.6698 75.1453 31.1545C74.9726 30.3437 75.1192 29.3565 75.1192 28.5259C75.1192 27.4963 75.2219 26.3532 75.6161 25.3927C76.0627 24.3048 76.769 23.3911 77.2378 22.3391C77.5643 21.6065 78.3076 20.9561 78.8202 20.3411C79.282 19.787 79.9052 19.0307 80.5399 18.6683C82.1753 17.7344 83.7596 16.6801 85.3591 15.6878C86.8656 14.7532 88.5395 13.6916 90.211 13.0856C90.886 12.8409 91.6526 12.3933 92.3623 12.2824C93.1499 12.1594 93.9437 11.6408 94.7228 11.5655C95.9812 11.4438 97.3329 10.9904 98.5415 10.603C99.7274 10.2228 101.076 10.1334 102.308 9.91262C104.058 9.59909 105.838 8.93018 107.604 8.93018C108.965 8.93018 110.335 8.57172 111.711 8.57172C113.385 8.57172 115.121 8.63996 116.779 8.39249C118.97 8.06531 121.283 8.21326 123.5 8.21326C124.754 8.21326 126.007 8.21326 127.26 8.21326C128.409 8.21326 129.785 7.99962 130.909 8.23982C131.786 8.42714 132.81 8.6488 133.708 8.69121C134.542 8.73062 135.37 9.11927 136.206 9.16915C137.029 9.21831 137.861 9.49648 138.677 9.64709C139.93 9.8784 141.218 10.0737 142.444 10.4238C143.846 10.8242 145.287 11.0157 146.655 11.5589C147.787 12.0088 148.922 12.3923 150.068 12.7803C153.019 13.779 155.897 14.9263 158.569 16.5773C159.802 17.3392 161.009 17.8596 162.041 18.9072C162.824 19.7028 163.474 20.5229 164.048 21.4762C164.982 23.0273 166.485 24.7083 166.834 26.5477C166.995 27.4013 167.41 28.1273 167.54 29.0038C167.684 29.9722 167.867 30.9631 167.867 31.9378C167.867 33.5719 168.003 35.319 167.573 36.8899C167.32 37.8143 166.937 38.9036 166.396 39.6978C166.022 40.2452 165.924 40.8938 165.513 41.4303C164.937 42.1822 164.402 43.208 163.983 44.059C163.651 44.7333 163.141 45.3106 162.78 45.9708C161.854 47.6616 160.443 49.0861 159.092 50.4581C158.309 51.2528 157.232 51.6877 156.424 52.4496C155.854 52.9867 155.135 53.3376 154.567 53.8568C154.197 54.1943 153.678 54.387 153.272 54.6866C152.815 55.0239 152.284 55.4163 151.768 55.6491C150.874 56.0526 150.095 56.7071 149.211 57.1361C148.034 57.7077 146.898 58.3509 145.674 58.8222C143.336 59.7223 141.064 60.7586 138.736 61.6832C137.452 62.1934 136.347 63.0893 135.055 63.5618C134.216 63.8683 133.185 64.4642 132.439 64.969" stroke="#F2F2F2" stroke-width="3" stroke-linecap="round"/>
</svg>
