<svg width="257" height="21" viewBox="0 0 257 21" fill="none" xmlns="http://www.w3.org/2000/svg">
<path d="M238.41 3.41228C211.425 3.41228 184.483 1.78463 157.511 1.16281C111.131 0.0935809 65.2207 4.61875 18.9138 5.20162C13.0164 5.27585 7.11835 5.25274 1.22061 5.25274C-4.84405 5.25274 13.3499 5.25274 19.4146 5.25274C67.7841 5.25274 115.843 7.72101 164.076 10.9786C193.014 12.9331 222.418 12.9023 251.262 15.4264C274.842 17.4899 203.953 18.0253 180.267 18.1872C138.816 18.4703 97.3713 20.7097 55.9138 19.772C51.0374 19.6617 36.5798 19.5895 41.3364 18.5961C43.8959 18.0616 46.519 18.136 49.1258 18.136" stroke="#F2F2F2" stroke-width="2" stroke-linecap="round"/>
</svg>
