<svg width="168" height="74" viewBox="0 0 168 74" fill="none" xmlns="http://www.w3.org/2000/svg">
<path d="M57.5572 6.00562C56.4704 6.96451 54.6709 6.9329 53.3968 7.49498C52.7664 7.77307 51.9521 8.09811 51.2825 8.17196C50.4434 8.2645 49.7208 8.94519 48.8953 9.12726C47.405 9.45599 46.0688 10.5961 44.5379 10.8724C44.1448 10.9433 43.4959 11.2627 43.1663 11.4892C42.6937 11.8139 42.0583 11.927 41.5673 12.2339C40.5785 12.8518 39.5415 13.257 38.5284 13.7985C36.5451 14.8585 34.1942 15.6237 32.0795 16.4011C30.9812 16.8048 29.8644 17.4253 28.8436 17.9882C28.2321 18.3254 27.5022 18.4471 26.8657 18.763C25.5185 19.4316 24.2295 20.1798 22.9099 20.8692C22.2251 21.2269 21.4709 21.4069 20.7956 21.7793C20.2691 22.0697 19.28 22.491 18.6813 22.524C18.3516 22.5422 17.7598 22.7722 17.4536 22.9001C17.1168 23.0409 16.6779 22.9565 16.3624 23.0957C15.5294 23.4632 14.5462 23.4331 13.71 23.8103C12.8219 24.211 11.7394 24.2854 10.8 24.5851C10.0307 24.8305 9.32949 24.9612 8.51902 24.9612C7.06076 24.9612 6.04705 25.2657 4.70722 25.6457C4.42455 25.7258 4.21704 25.819 4.08581 26.112C3.92767 26.4652 3.6615 26.6009 3.50987 26.8567C3.35093 27.1249 3.08042 27.3256 2.88846 27.5638C2.71689 27.7767 2.73312 28.31 2.51713 28.4815C2.31836 28.6393 2.03971 29.6559 2.03971 29.9032C2.03971 30.5066 1.89958 31.3165 2.1458 31.8664C2.65708 33.0083 3.12609 34.4943 4.0555 35.4168C4.54367 35.9014 5.03202 36.7932 5.38167 37.4102C5.85038 38.2373 6.30254 39.0953 6.81394 39.8849C7.37835 40.7564 7.69035 41.7591 8.25378 42.638C8.86135 43.5857 9.31336 44.5616 9.95129 45.5114C10.3945 46.1713 10.7438 46.8818 11.1789 47.5424C11.6408 48.2434 11.9568 49.1734 12.6112 49.6786C13.4243 50.3064 13.9397 51.3532 14.286 52.2812C14.5345 52.9474 14.7841 54.0012 15.2105 54.5454C15.714 55.1879 16.0008 55.7883 16.6049 56.2679C17.0752 56.6414 17.7219 56.7794 18.3403 56.7794C19.8586 56.7794 21.4376 57.1856 22.9781 57.1856C24.8361 57.1856 26.702 57.2537 28.5329 57.321C29.05 57.34 29.4691 57.4136 29.9727 57.5617C30.3083 57.6604 30.7141 57.4875 31.0261 57.6595C31.2138 57.763 31.7689 57.8626 31.9809 57.8626C32.3948 57.8626 32.7534 58.1121 33.1404 58.1334C33.6269 58.1602 34.4659 58.3042 34.6333 58.8856C34.7436 59.2689 34.8384 60.1047 35.0804 60.4051C35.3403 60.7276 35.4136 61.8239 35.3153 62.263C35.1751 62.8895 34.9137 63.4135 34.9137 64.0909C34.9137 64.7888 34.9586 65.0915 35.429 65.6103C35.7999 66.0194 35.7677 66.7187 36.2095 67.0696C36.4607 67.269 36.6497 67.4996 36.8916 67.6864C37.1644 67.897 37.3956 68.1176 37.6418 68.3483C38.1393 68.8147 38.9625 69.2668 39.6273 69.5067C40.5637 69.8447 41.8213 70.4047 42.8253 70.4545C44.1821 70.5218 45.7857 70.7496 47.0539 71.1992C48.0184 71.5411 49.0354 71.5377 50.0548 71.5377C50.7071 71.5377 51.3186 71.4023 51.9645 71.4023C52.3416 71.4023 53.2112 71.3767 53.5332 71.1992C55.0513 70.362 57.0167 70.3927 58.3453 69.2059C58.8045 68.7956 59.3398 68.5421 59.6715 67.9497C59.9634 67.4281 60.2442 66.9556 60.5278 66.3926C61.0996 65.2574 60.9911 63.661 61.9222 62.7369C62.9167 61.7497 64.4993 61.9197 65.7415 62.3307" stroke="#F2F2F2" stroke-width="3" stroke-linecap="round"/>
<path d="M38.0502 60.1642C37.7341 60.2034 37.641 60.9354 37.641 61.1797C37.641 61.5913 37.3682 61.8254 37.3682 62.2629C37.3682 63.5141 39.013 62.466 39.6113 62.466C39.9731 62.466 40.379 62.1952 40.7783 62.1952C41.233 62.1952 41.6877 62.1952 42.1424 62.1952C43.2029 62.1952 44.2496 62.2738 45.2797 62.3306C46.233 62.3831 47.1179 62.7368 48.0761 62.7368C48.8604 62.7368 50.0964 63.0233 50.8118 63.346C51.2716 63.5535 51.8162 63.84 52.3047 63.9478C52.6264 64.0188 53.3971 64.1768 53.6005 64.4292C53.8176 64.6985 54.4681 64.8686 54.7676 65.0385C55.2235 65.2971 55.6582 65.5909 56.1165 65.8509C56.4008 66.0122 57.7756 67.4851 57.8291 66.5279C57.8678 65.8379 58.4955 64.816 57.9352 64.1208C57.3162 63.3527 56.7368 62.6158 55.8512 62.1275C54.8882 61.5964 53.8018 61.2982 52.8503 60.7735C51.8445 60.2189 50.3686 59.6226 49.2355 59.6226C48.6365 59.6226 47.7944 59.4095 47.2197 59.2465C46.6522 59.0856 46.0011 59.2478 45.4161 59.1111C44.1144 58.8071 42.6107 59.2164 41.324 59.2164C40.7601 59.2164 38.8692 59.4861 38.5958 60.0288" stroke="#F2F2F2" stroke-width="3" stroke-linecap="round"/>
<path d="M52.237 66.528C52.237 65.5396 49.381 64.907 48.6905 64.6024C47.4802 64.0685 46.2041 63.9555 44.8711 63.9555C44.2716 63.9555 43.5777 63.849 43.0296 64.0909C42.5092 64.3204 42.0985 64.67 41.5973 64.9333C40.4367 65.5432 40.9004 67.1317 41.8701 67.6413C44.186 68.8582 46.4024 69.6421 49.0997 69.6421C50.1225 69.6421 51.7766 69.3469 52.5401 68.589C52.9207 68.2113 53.1776 67.8975 53.3207 67.4006C53.5614 66.5643 53.04 66.3424 52.3734 66.1218" stroke="#F2F2F2" stroke-width="3" stroke-linecap="round"/>
<path d="M128.352 60.2993C128.064 60.6214 127.943 61.1786 127.943 61.5856C127.943 62.1587 128.451 62.2339 128.83 62.5258C129.536 63.0711 130.808 63.3258 131.429 62.5333C132.125 61.6443 132.478 60.6723 133.331 59.8254C133.706 59.4534 134.14 59.0732 134.559 58.7497C134.865 58.5132 135.522 58.277 135.718 57.9374C135.879 57.6575 136.457 57.3507 136.749 57.1852C137.252 56.8997 137.71 56.4717 138.242 56.2374C139.254 55.7909 140.121 55.2896 141.243 55.2896C142.282 55.2896 143.425 55.1542 144.509 55.1542C145.06 55.1542 146.833 55.2019 147.176 55.6281C147.353 55.8472 148.321 55.7055 148.54 55.5905C149.095 55.2992 148.426 54.9823 148.404 54.6126C148.373 54.0884 148.54 53.6112 148.54 53.1233C148.54 52.519 148.027 52.6109 147.585 52.4162C146.648 52.0026 145.349 52.1755 144.312 52.1755C143.043 52.1755 141.735 52.2249 140.523 52.6118C139.147 53.0507 137.736 53.4082 136.506 54.2064C135.433 54.9032 134.266 55.6417 133.126 56.2073C132.621 56.4581 132.15 56.8814 131.626 57.1551C130.983 57.491 130.597 58.0289 130.019 58.4037C129.53 58.7213 129.025 58.9228 128.655 59.3816C128.405 59.6916 128.423 60.3996 128.079 60.5701" stroke="#F2F2F2" stroke-width="3" stroke-linecap="round"/>
<path d="M138.583 57.5914C137.171 57.7315 136.529 58.9358 135.688 59.8631C135.064 60.551 134.491 61.3474 134.491 62.3303C134.491 63.6097 135.959 63.5489 136.946 63.5489C138.202 63.5489 139.166 63.0363 140.28 62.5334C141.248 62.097 142.064 61.5119 143.009 60.9763C143.799 60.5282 144.994 59.6223 144.994 58.6069C144.994 57.8685 144.95 57.685 144.38 57.2454C143.954 56.9161 143.009 56.6436 142.471 56.6436C141.112 56.6436 139.755 56.4278 138.719 57.456" stroke="#F2F2F2" stroke-width="3" stroke-linecap="round"/>
<path d="M65.8779 62.331C67.3771 62.517 68.9283 62.6017 70.5158 62.6017C71.823 62.6017 73.037 63.0079 74.3351 63.0079C75.9427 63.0079 77.6397 63.2787 79.2458 63.2787C81.5544 63.2787 83.8243 63.4141 86.1343 63.4141C89.1314 63.4141 92.1245 63.5495 95.1295 63.5495C96.7795 63.5495 98.404 62.8725 100.048 62.8725C100.819 62.8725 101.664 62.6909 102.442 62.5942C103.329 62.4842 104.672 62.7164 105.504 62.3986C106.477 62.0272 107.701 62.35 108.71 61.9925C109.599 61.677 110.914 61.2992 111.847 61.2478C112.833 61.1934 113.822 61.0136 114.818 60.977C115.625 60.9473 116.976 60.8332 117.712 60.5407C118.357 60.2849 119.463 60.066 120.168 60.0292C120.79 59.9967 121.333 59.7584 121.941 59.7584C122.259 59.7584 122.578 59.7584 122.896 59.7584C123.304 59.7584 123.256 60.1447 123.411 60.4354C123.673 60.9269 124.249 61.5677 124.639 61.9548C125.015 62.3283 125.385 62.9591 125.654 63.4141C125.946 63.9069 126.465 64.3415 126.92 64.6929C127.998 65.5256 129.417 65.7159 130.732 65.7159C131.602 65.7159 132.492 65.8513 133.392 65.8513C133.799 65.8513 134.162 65.7159 134.551 65.7159C135.028 65.7159 135.795 65.651 136.264 65.5504C136.752 65.4456 137.263 65.3097 137.764 65.3097C138.107 65.3097 138.389 65.0571 138.719 65.0389C139.298 65.007 140.256 64.7949 140.765 64.5274C141.319 64.2363 141.943 63.9349 142.538 63.6548C143.22 63.3346 143.969 62.8513 144.66 62.6017C145.824 62.1816 147.462 61.3181 148.207 60.3677C148.623 59.837 149.16 59.4026 149.571 58.8783C149.967 58.3727 150.669 57.8804 150.852 57.246C150.95 56.9052 151.083 55.7628 151.337 55.5611C151.737 55.2431 151.635 54.0387 151.882 53.5979C152.212 53.0083 151.838 52.1329 152.155 51.5669C152.412 51.1085 152.223 50.1272 152.223 49.6036C152.223 49.0093 151.983 48.3857 151.95 47.8435C151.913 47.2151 152.808 46.8261 153.208 46.3842C154.154 45.3418 155.427 44.7426 156.452 43.7816C157.573 42.7308 159.03 41.8994 160.135 40.8029C160.564 40.3764 161.121 39.7982 161.635 39.479C162.175 39.1442 162.332 38.4621 162.795 38.0949C163.27 37.7173 163.823 36.9915 164.288 36.5303C164.812 36.01 164.779 35.2398 165.114 34.6423C165.685 33.6218 166 32.0519 166 30.8512C166 29.6306 165.569 27.9827 164.977 26.9247C164.699 26.4279 164.437 25.8647 164.091 25.4353C163.717 24.9713 162.823 24.7009 162.317 24.4499C161.495 24.0418 160.489 23.7254 159.589 23.5021C158.254 23.1709 156.976 22.6694 155.664 22.2836C153.674 21.6984 151.727 20.7449 149.639 20.4858C148.429 20.3357 147.313 19.6979 146.214 19.2071C145.112 18.7149 144.031 18.2627 142.948 17.7252C141.97 17.2398 140.788 17.0215 139.742 16.7022C138.721 16.3903 137.862 15.9383 136.946 15.4836" stroke="#F2F2F2" stroke-width="3" stroke-linecap="round"/>
<path d="M57.1479 6.54728C57.6023 6.49091 58.1553 5.97213 58.5726 5.76499C59.1666 5.47022 59.8379 5.42079 60.4217 5.16322C61.0668 4.87865 61.7705 4.66565 62.4375 4.41102C63.2592 4.09732 64.2835 4.15159 65.0595 3.80926C65.6383 3.55391 66.3634 3.71644 66.9692 3.46324C67.2057 3.36439 67.8615 3.29776 68.1211 3.29776C68.5131 3.29776 68.912 3.0419 69.3184 3.02696C70.2821 2.99154 71.4739 2.88462 72.3952 2.59068C73.258 2.3154 74.2125 2.3996 75.0854 2.20706C75.7972 2.05006 76.5198 2.07918 77.2679 2.07918C78.1561 2.07918 79.0735 1.94379 79.9278 1.94379C81.5476 1.94379 83.097 1.67299 84.7324 1.67299C87.862 1.67299 90.9435 1.5376 94.0459 1.5376C95.7807 1.5376 97.4359 1.89643 99.1612 2.08671C100.94 2.28294 102.689 2.45121 104.42 2.76369C105.346 2.93072 106.218 3.39305 107.149 3.56103C108.079 3.72891 109.014 3.92322 109.937 4.17784C111.915 4.72312 113.908 5.17886 115.833 5.84021C116.318 6.00699 116.816 6.06016 117.296 6.20879C117.707 6.33644 118.254 6.66109 118.667 6.68268C119.53 6.72775 120.535 7.577 121.365 7.87116C123.605 8.66505 125.784 9.74348 127.951 10.6844C129.856 11.5118 131.908 12.142 133.74 13.1215C135.039 13.816 136.158 14.6917 137.355 15.4835" stroke="#F2F2F2" stroke-width="3" stroke-linecap="round"/>
<path d="M54.9655 9.93264C54.2127 9.93264 53.54 10.068 52.783 10.068C52.4296 10.068 51.1245 10.0948 50.9036 10.3689C50.5157 10.8501 51.1821 11.7375 51.4492 12.0689C51.8536 12.5707 51.8777 13.4282 52.1312 13.9945C53.4632 16.9693 53.8517 20.3736 55.3444 23.3369C55.7019 24.0467 55.7607 24.9099 56.087 25.6387C56.3887 26.3125 56.6573 26.928 56.9055 27.6395C57.1286 28.2794 57.3953 29.3644 57.7997 29.8661C57.8997 29.9901 57.7331 30.2285 57.9664 30.2422C58.1468 30.2527 58.3312 30.2422 58.512 30.2422C58.823 30.2422 59.2578 30.327 59.4972 30.1369C59.9503 29.777 61.0801 29.836 61.6494 29.836C62.3726 29.836 63.1101 29.8781 63.8319 29.836C63.9938 29.8265 64.1523 28.0711 64.2714 27.805C64.5363 27.2133 64.6503 26.2847 64.6503 25.6387C64.6503 21.7475 66.0341 18.1274 66.9995 14.4007C67.1752 13.7226 67.3978 12.7065 67.9544 12.2645C68.367 11.9368 69.3016 11.6928 69.8338 11.6928C71.693 11.6928 73.6591 11.5574 75.5628 11.5574C80.3631 11.5574 85.0338 10.3846 89.7794 10.2034C92.682 10.0926 95.5522 9.89993 98.4488 9.79724C99.3838 9.76409 100.416 9.5776 101.344 9.52645C101.821 9.50012 103.084 9.58624 103.42 9.28574C103.895 8.86121 104.619 8.73688 105.133 8.27779C105.565 7.89198 105.925 7.49143 106.36 7.05922C106.602 6.81898 107.689 5.91973 106.8 5.87073C106.078 5.8309 105.341 5.87073 104.617 5.87073C102.996 5.87073 101.445 6.00613 99.8432 6.00613C98.1151 6.00613 96.386 6.54772 94.6597 6.54772C93.8225 6.54772 93.0194 6.81851 92.1741 6.81851C91.3073 6.81851 90.3817 6.95391 89.4763 6.95391C87.2489 6.95391 85.0475 7.3601 82.8227 7.3601C81.1308 7.3601 79.4023 7.67491 77.7453 7.76629C75.7632 7.87559 73.7513 8.57867 71.7434 8.57867C70.1577 8.57867 68.5548 8.84946 66.9692 8.84946C66.1508 8.84946 65.3323 8.84946 64.5139 8.84946C63.5059 8.84946 63.0134 9.18855 63.0134 10.2034C63.0134 10.9255 63.0134 11.6477 63.0134 12.3698C63.0134 12.9707 62.6241 13.829 62.4375 14.4308C61.9437 16.0239 61.513 17.8653 61.513 19.5458C61.513 20.1756 61.3321 21.4052 61.0734 21.983C60.8464 22.4901 60.8562 23.3439 60.3914 23.713C59.8407 24.1503 59.4063 22.6261 59.3001 22.3891C59.1435 22.0393 59.1913 21.7088 58.9516 21.4113C58.8878 21.3322 58.6614 20.7382 58.6484 20.629C58.6035 20.2496 58.261 19.8825 58.1331 19.5157C57.9604 19.0203 57.734 18.4731 57.6936 17.9511C57.6584 17.4966 57.3349 17.0436 57.2844 16.5671C57.2368 16.1184 57.0505 15.5396 56.9055 15.1078C56.3303 13.3951 56.0324 11.5092 55.2383 9.93264" stroke="#F2F2F2" stroke-width="3" stroke-linecap="round"/>
<path d="M66.696 29.4295C66.696 28.8908 66.6659 28.3426 66.696 27.8048C66.7224 27.3334 67.1052 26.9202 67.1052 26.4508C67.1052 25.3935 67.5866 24.2853 67.6508 23.2013C67.6775 22.7517 68.0319 22.2152 68.0601 21.7119C68.0952 21.0838 68.4213 20.429 68.4693 19.7863C68.5612 18.5544 69.2877 17.3185 69.2877 16.093C69.2877 15.8346 69.5084 14.9421 69.7651 14.9421C70.3681 14.9421 70.9348 14.6713 71.5384 14.6713C72.5884 14.6713 73.7201 14.5359 74.8122 14.5359C75.4759 14.5359 75.5939 14.5922 75.9034 15.1452C76.0791 15.459 76.3319 16.2301 76.5855 16.4314C77.2728 16.9772 78.1541 18.9102 78.1541 19.8164C78.1541 20.3036 78.5634 20.7881 78.5634 21.3057C78.5634 21.8686 78.9174 22.4954 79.0787 23.0358C79.4157 24.1647 79.9986 25.5561 80.0638 26.7216C80.0932 27.2464 80.3308 27.674 79.9577 27.9703C79.6624 28.2048 79.1053 28.4818 78.6998 28.4818C78.1717 28.4818 77.7227 28.7237 77.1993 28.7526C76.4028 28.7965 76.4985 28.4483 76.1762 27.8725C75.6499 26.932 75.394 26.0446 74.1301 26.0446C72.9838 26.0446 72.2346 26.255 71.2656 26.7893C70.6805 27.112 70.7113 28.9194 69.894 29.1512C69.4476 29.2778 67.0534 29.8683 66.8324 29.4295" stroke="#F2F2F2" stroke-width="3" stroke-linecap="round"/>
<path d="M72.4258 20.0874C72.3759 20.5331 72.0166 20.8272 72.0166 21.306C72.0166 21.6405 72.1177 22.1621 71.9105 22.4192C71.8673 22.4728 71.7699 23.4381 71.7741 23.4422C71.9306 23.5976 72.7474 23.4723 72.9714 23.4723C73.3907 23.4723 73.6714 23.3598 74.0627 23.3369C74.4172 23.3162 74.0139 22.4421 73.9566 22.2838C73.7077 21.5977 73.3772 20.6917 72.9714 20.0874" stroke="#F2F2F2" stroke-width="3" stroke-linecap="round"/>
<path d="M80.6099 14.4002C80.6099 15.4609 81.515 17.2512 80.9509 18.259C80.6721 18.7572 80.8827 19.8236 80.8827 20.3878C80.8827 21.2391 81.1555 22.1405 81.1555 22.9979C81.1555 23.6171 81.5299 24.204 81.5647 24.8258C81.6069 25.5787 81.9379 26.4587 82.1028 27.1952C82.213 27.6877 82.053 27.7629 82.5953 28.0076C82.9996 28.19 83.3433 28.2107 83.7775 28.2107C84.347 28.2107 85.1113 27.9544 85.1113 27.3306C85.1113 25.8068 84.9749 24.2959 84.9749 22.7948C84.9749 22.5024 84.9397 20.9233 85.5205 21.644C85.8976 22.1118 86.3992 22.6317 86.7178 23.201C87.1832 24.0324 87.9306 24.6957 88.4532 25.5028C88.8872 26.1728 89.5816 26.7828 90.2947 27.0974C90.7819 27.3124 91.7376 27.1275 92.2726 27.1275C92.8141 27.1275 93.6128 27.2791 94.008 26.8868C94.3975 26.5003 94.0015 25.41 93.9777 24.9612C93.9338 24.1342 93.9777 23.2921 93.9777 22.4639C93.9777 20.587 93.7049 18.7563 93.7049 16.9051C93.7049 16.0569 93.7787 15.176 93.5382 14.3701C93.427 13.9979 93.4203 13.5278 93.2654 13.1817C93.0299 12.6559 92.9973 12.8215 92.5454 12.5724C91.9771 12.259 91.1506 12.7433 90.5675 12.7755C90.3603 12.7869 89.8683 12.8975 89.7188 13.0162C89.3785 13.2864 89.3399 13.0667 89.3399 13.6555C89.3399 14.9968 89.0671 16.3334 89.0671 17.6497C89.0671 18.4719 89.2404 19.1171 88.3244 18.5975C87.7699 18.283 87.5772 17.4416 87.1574 16.9728C86.3444 16.065 86.0285 14.5057 85.081 13.7533C84.7719 13.5079 83.4168 13.7232 82.997 13.7232C82.3192 13.7232 81.7816 14.1294 81.1555 14.1294" stroke="#F2F2F2" stroke-width="3" stroke-linecap="round"/>
<path d="M105.7 13.9269C105.331 14.3951 104.89 15.2432 104.071 15.3485C103.127 15.2432 99.8748 13.9027 99.5992 16.1457C99.9299 17.4587 100.302 17.2765 100.922 17.4587C102.134 17.6228 103.512 17.5134 104.504 17.7869C105.496 18.0605 105.981 18.5064 106.526 19.0795C107.122 19.7058 107.481 20.4279 107.481 21.3361C107.481 22.2431 107.121 23.13 107.072 24.0139C107.033 24.7181 106.394 25.5546 105.769 25.9095C105.038 26.3237 104.427 26.8164 103.594 27.0002C102.883 27.157 102.158 27.1281 101.411 27.1281C99.9861 27.1281 98.5559 26.9216 97.2507 26.3458C96.4755 26.0038 95.2677 25.5732 95.9065 24.68C96.2598 23.9955 96.7051 23.3113 97.1143 23.0962C97.5599 23.0962 98.6565 23.6016 98.9929 23.75C99.4972 23.9725 100.095 24.0139 100.757 24.0139C101.465 23.8577 102.132 23.6643 102.783 23.4799C103.566 23.2577 103.389 22.6339 103.389 21.9153C103.389 20.1281 100.767 21.109 99.7742 20.5613C99.199 20.2441 98.4529 20.3442 97.8645 20.0197C97.2586 19.6856 96.709 19.2149 96.0988 18.8689C95.5779 18.5734 95.0812 17.8647 94.9242 17.3193C94.8177 16.9493 94.5516 15.6173 94.8257 15.2432C94.9646 15.0536 95.0382 14.5184 95.0682 14.2654C95.0965 14.0261 95.4118 13.7288 95.5835 13.5583C96.0945 13.0511 96.918 12.9318 97.4174 12.5353C97.8482 12.1932 98.6726 12.0133 99.1604 11.7981C99.8223 11.5061 100.549 11.5574 101.275 11.5574C102.063 11.5574 102.815 11.6816 103.586 11.8207C104.322 11.9536 104.957 12.3019 105.647 12.4977C106.213 13.0274 105.993 13.3557 105.7 13.9269Z" stroke="#F2F2F2" stroke-width="3" stroke-linecap="round"/>
<path d="M19.6132 52.3726C19.6132 53.4228 18.3007 54.0685 19.7318 54.6998C20.7267 55.1388 22.1472 54.9613 23.2288 54.9613C25.4021 54.9613 27.5466 55.3143 29.7488 55.3143C30.3934 55.3143 31.0567 55.3589 31.6982 55.4385C32.5025 55.5383 33.331 55.5511 34.1349 55.6738C35.4159 55.8695 36.8185 56.138 38.1061 56.138C39.4339 56.138 40.7495 56.491 42.084 56.491C43.3005 56.491 44.569 56.9616 45.7852 56.9616C46.4925 56.9616 47.1388 57.1628 47.8268 57.197C48.4524 57.228 49.0351 57.2241 49.6313 57.4062C49.9219 57.4949 50.2551 57.3966 50.5533 57.4389C50.9255 57.4916 51.2581 57.6676 51.6466 57.6676C52.5007 57.6676 53.3293 58.1383 54.1689 58.1383C54.9001 58.1383 55.6215 58.609 56.362 58.609C57.0557 58.609 58.039 58.7843 58.7065 58.9881C59.3374 59.1808 60.1529 59.0924 60.7481 59.3411C61.2542 59.5526 62.2174 59.668 62.7634 59.668C63.4325 59.668 64.3809 59.8548 65.0157 60.0798C65.9517 60.4116 67.1151 60.4464 68.0979 60.6682C69.4536 60.974 71.0351 61.08 72.4248 61.08C73.5888 61.08 74.7344 61.3153 75.8955 61.3153C77.002 61.3153 78.1029 61.5507 79.2147 61.5507C79.6357 61.5507 80.0103 61.6683 80.4265 61.6683C80.9246 61.6683 81.4856 61.5943 81.9676 61.7272C82.7492 61.9427 83.7606 61.786 84.5756 61.786C85.3747 61.786 86.1737 61.786 86.9728 61.786C88.4696 61.786 89.9411 61.5507 91.4512 61.5507C93.4049 61.5507 95.3587 61.5507 97.3125 61.5507C98.0612 61.5507 98.8916 61.4267 99.6307 61.3219C100.655 61.1766 101.693 61.2134 102.713 60.9885C103.571 60.7992 104.639 60.8525 105.439 60.5178C106.073 60.2532 107.135 60.1387 107.81 60.1387C109.406 60.1387 111.115 59.5404 112.671 59.1973C113.415 59.0331 114.23 58.8443 114.982 58.8443C115.579 58.8443 116.213 58.5267 116.82 58.4913C117.615 58.4449 118.575 58.0436 119.335 57.8115C120.243 57.5342 121.235 57.5092 122.154 57.2558C124.356 56.6489 126.605 56.2896 128.766 55.5235C129.615 55.2225 130.454 54.885 131.308 54.5822C132.346 54.2145 133.398 53.8447 134.364 53.3401C135.066 52.9735 135.809 52.669 136.472 52.255C136.905 51.9839 137.34 51.6996 137.809 51.4901C138.357 51.245 138.797 50.9075 139.337 50.673C140.648 50.1033 142.006 49.5188 143.229 48.725C144.02 48.2117 144.839 47.6783 145.718 47.3129C146.463 47.0036 147.077 46.4635 147.819 46.1363C149.31 45.4785 150.492 44.506 151.909 43.7829C153.311 43.0672 154.638 42.0216 155.946 41.1289C157.255 40.2355 158.759 39.2794 159.851 38.1349C160.177 37.794 160.769 37.2232 161.01 36.8406C161.345 36.3089 162.057 35.8686 162.459 35.3697C162.848 34.8873 163.277 34.3913 163.585 33.8401C163.8 33.4575 163.848 33.0421 164.06 32.6634C164.269 32.2887 163.371 31.7633 163.111 31.9639C162.803 32.2021 162.212 32.5207 162.011 32.8399C161.842 33.1088 161.083 33.6421 160.8 33.8074C160.412 34.0338 160.179 34.4505 159.792 34.6637C159.326 34.921 158.895 35.2692 158.481 35.6051C158.047 35.9576 157.212 36.2504 156.914 36.7229C156.664 37.1205 155.778 37.5034 155.373 37.7819C154.742 38.2155 154.124 38.6784 153.45 39.0501C152.309 39.6792 151.287 40.5494 150.183 41.2466C149.181 41.8795 148.097 42.4364 147.055 43.0181C146.688 43.2232 146.332 43.6044 145.955 43.7568C145.468 43.9538 145.129 44.3941 144.651 44.5805C144.016 44.8284 143.336 45.3076 142.755 45.6656C141.957 46.1572 140.989 46.3813 140.232 46.9011C139.549 47.3705 138.6 47.5527 137.861 47.9601C137.187 48.3322 136.289 48.7505 135.55 48.9603C134.822 49.1666 134.161 49.6196 133.416 49.784C132.963 49.8839 132.524 50.1848 132.086 50.3461C131.689 50.4921 131.206 50.6323 130.834 50.843C130.021 51.3041 128.943 51.4055 128.081 51.8104C127.359 52.1501 126.424 52.431 125.651 52.6014C124.127 52.9376 122.652 53.9823 121.087 54.1376C120.517 54.1942 119.98 54.6955 119.428 54.726C118.764 54.7626 117.968 55.0555 117.294 55.2228C116.455 55.4309 115.519 55.7522 114.66 55.785C114.299 55.7988 113.92 55.9588 113.56 56.0138C113.039 56.0932 112.468 56.0567 111.959 56.1968C111.18 56.4117 110.326 56.4727 109.536 56.6152C108.82 56.7443 108.071 56.9402 107.336 56.9616C106.885 56.9748 106.229 57.136 105.795 57.2558C105.395 57.3662 104.979 57.3974 104.583 57.5238C103.665 57.8168 102.6 57.922 101.646 58.0272C99.6138 58.2513 97.6606 58.3736 95.6002 58.3736C93.8906 58.3736 91.9363 58.1161 90.2657 58.4652C89.653 58.5932 88.928 58.4913 88.3031 58.4913C87.5068 58.4913 86.7209 58.5158 85.9322 58.3998C84.7705 58.229 83.5011 58.3736 82.3232 58.3736C80.6153 58.3736 78.9074 58.3736 77.1995 58.3736C75.1981 58.3736 73.0084 58.398 71.0879 57.8115C70.4261 57.6094 69.5038 57.7039 68.8092 57.6676C68.1268 57.632 67.4684 57.4041 66.8005 57.3212C63.1499 56.8682 59.436 56.5468 55.7693 56.0268C54.3135 55.8204 52.8584 55.6207 51.3897 55.4385C50.4682 55.3242 49.5131 55.3354 48.5973 55.1378C47.4408 54.8883 46.235 54.9648 45.1003 54.6998C44.2261 54.4957 43.1305 54.2553 42.2289 54.2553C41.3916 54.2553 40.5861 54.02 39.7658 54.02C38.7263 54.02 37.7127 53.7846 36.677 53.7846C35.5429 53.7846 34.2721 53.7297 33.1536 53.5232C31.9322 53.2976 30.5067 53.0786 29.2746 53.0786C28.2221 53.0786 27.1751 52.7831 26.1332 52.7256C23.8678 52.6007 21.53 52.255 19.2576 52.255" stroke="#F2F2F2" stroke-width="3" stroke-linecap="round"/>
<path d="M15.6211 34.6218C15.373 34.403 14.4151 34.8899 14.2208 35.0828C14.0562 35.2462 13.753 35.3551 13.6957 35.6111C13.624 35.9313 13.6808 36.0551 13.7528 36.377C13.8933 37.0043 14.3479 37.6509 14.6709 38.196C14.9681 38.6975 15.245 39.4891 15.7783 39.7916C16.0007 39.9178 16.0874 40.1746 16.3927 40.1746C16.6844 40.1746 16.8902 40.0208 17.1322 39.8874C17.2522 39.8212 17.6697 39.6891 17.6787 39.5363C17.696 39.2456 17.6787 38.9483 17.6787 38.657C17.6787 37.993 17.1992 37.3214 16.9714 36.6997C16.8336 36.3235 16.5932 35.9304 16.407 35.5792C16.2783 35.3365 16.0699 35.0041 15.814 34.8771" stroke="#F2F2F2" stroke-width="3" stroke-linecap="round"/>
<path d="M19.0292 32.5788C18.8101 32.5788 18.3843 32.4989 18.2076 32.6568C18.0757 32.7746 17.8756 33.0496 17.711 33.0859C17.2038 33.1977 17.079 33.8086 17.1681 34.2063C17.2324 34.4937 17.5211 34.7402 17.6289 35.0183C17.7452 35.3185 17.9036 35.6007 18.0361 35.9012C18.3149 36.5337 18.783 37.1123 19.0613 37.7202C19.2727 38.1818 19.8584 38.2802 20.3152 38.0535C20.574 37.9251 20.7637 37.7675 20.9904 37.5926C21.2065 37.4257 21.1661 37.1868 21.1511 36.9189C21.1314 36.5676 20.8131 36.1205 20.6689 35.8055C20.5151 35.4698 20.226 35.0566 20.1866 34.685C20.1547 34.3841 19.7066 33.7451 19.4507 33.6C19.1645 33.4377 19.3308 33.0157 19.0935 32.8979" stroke="#F2F2F2" stroke-width="3" stroke-linecap="round"/>
<path d="M24.4298 35.3866C23.5861 35.3866 23.1211 36.5238 22.7937 37.1737C22.4063 37.9427 21.9466 38.7847 21.9221 39.6628C21.9148 39.921 21.7935 40.1672 21.7935 40.4287C21.7935 40.7265 21.7935 41.0244 21.7935 41.3222C21.7935 41.8637 21.8578 42.382 21.8578 42.9179C21.8578 43.3323 22.0351 43.7432 22.0507 44.1447C22.0647 44.5077 22.2048 44.8056 22.2436 45.1517C22.2757 45.4386 22.4553 45.8235 22.5972 46.0772C22.7315 46.3172 22.7681 46.6423 22.8866 46.9069C23.1816 47.5659 23.407 48.2568 23.9297 48.7755C24.3386 49.1814 24.7079 49.5469 25.1692 49.9031C25.4154 50.0931 25.701 50.2157 25.973 50.3357C26.2023 50.4368 26.4517 50.4787 26.6803 50.5768C26.9888 50.7092 27.3267 50.5846 27.6448 50.6548C28.7471 50.8979 30.0965 50.7548 30.9884 50.0662C31.9971 49.2875 32.94 48.5423 33.4318 47.3076C33.9192 46.0839 34.1335 44.7762 34.0069 43.4568C33.9452 42.8135 33.8447 42.1453 33.7033 41.5137C33.5678 40.9083 33.3763 40.3287 33.2246 39.7266C32.7073 37.6725 31.5139 35.5283 29.4309 34.7625C28.5488 34.4382 27.5732 34.1221 26.6124 34.2413C26.0302 34.3135 25.5232 34.5397 24.9942 34.7341C24.6048 34.8773 23.9154 35.282 23.9154 35.7695" stroke="#F2F2F2" stroke-width="3" stroke-linecap="round"/>
<path d="M26.5518 39.0251C25.9014 39.0968 25.7428 40.5225 25.7159 41.0036C25.6718 41.7914 25.508 42.6775 25.8445 43.4289C26.1462 44.1027 26.3696 44.7912 26.5375 45.4997C26.6284 45.8831 26.806 46.8116 27.3234 46.8116C28.0012 46.8116 28.6069 46.2268 28.8666 45.6628C29.0427 45.2806 29.0595 44.6077 29.0595 44.1913C29.0595 43.6133 29.0595 43.0354 29.0595 42.4574C29.0595 41.3471 28.6864 40.1802 28.1593 39.2165C28.0101 38.9437 27.779 38.6665 27.4806 38.5818C27.2723 38.5228 26.8803 38.6214 26.809 38.8336" stroke="#F2F2F2" stroke-width="3" stroke-linecap="round"/>
<path d="M43.7191 37.2381C43.7191 36.5751 43.4329 35.9245 43.3976 35.2595C43.382 34.9647 43.2551 34.6323 43.2011 34.3376C43.1699 34.1673 42.9056 33.9918 42.7546 33.983C42.3084 33.957 41.8781 33.9192 41.4186 33.9192C41.0145 33.9192 40.6166 33.9519 40.2147 33.9866C39.7475 34.0269 39.2785 34.218 38.818 34.2383C38.076 34.271 37.4013 34.6213 36.6461 34.6213C36.2748 34.6213 35.4432 34.4754 35.1529 34.7347C34.7623 35.0837 34.6171 35.3569 34.5885 35.8977C34.5617 36.4018 34.891 36.826 34.91 37.3161C34.9208 37.5964 35.0386 37.8787 35.0386 38.16C35.0386 38.4025 34.9538 38.804 35.0528 39.0251C35.1595 39.2634 35.1029 39.5929 35.1029 39.8513C35.1029 40.1838 35.1672 40.5001 35.1672 40.8264C35.1672 41.4043 35.274 41.9892 35.2958 42.5497C35.3125 42.9814 35.1765 43.6044 35.3458 44.0034C35.4481 44.2447 35.4583 44.695 35.4922 44.9644C35.5337 45.2937 35.5734 45.6817 35.6673 45.9962C35.7579 46.2997 35.6368 46.6597 35.6851 46.9713C35.724 47.2218 35.7459 47.4479 35.7459 47.7053C35.7459 48.1427 35.8745 48.592 35.8745 49.0456C35.8745 49.3847 36.101 50.1274 36.421 50.198C37.0411 50.3347 37.6544 50.6689 38.2857 50.7653C38.7585 50.8375 39.1613 50.7688 39.636 50.7688C40.1202 50.7688 39.9897 50.1948 39.9897 49.8434C39.9897 49.2784 39.9897 48.7134 39.9897 48.1485C39.9897 47.4783 39.9897 46.8082 39.9897 46.138C39.9897 45.602 40.2119 45.3521 40.7256 45.2161C41.3328 45.0554 41.9235 45.1949 42.5331 45.0849C43.0764 44.9869 43.8388 44.6916 43.9084 44.0354C43.9454 43.6868 43.912 43.3836 43.912 43.0461C43.912 42.7017 43.7834 42.4003 43.7834 42.0533C43.7834 41.6438 43.7057 41.1745 43.2369 41.0711C42.6591 40.9436 42.146 40.8122 41.5329 40.8122C40.8905 40.8122 40.2216 40.8581 39.7646 40.4045C39.4629 40.1049 39.5945 39.3726 39.6646 38.9897C39.6838 38.8847 39.6006 38.4033 39.7325 38.3869C39.801 38.3784 40.2072 38.149 40.2469 38.0997C40.3431 37.9803 40.8554 38.004 41.0042 38.004C41.276 38.004 41.5242 37.8763 41.7937 37.8763C41.9488 37.8763 42.0699 37.8649 42.2116 37.7983C42.4015 37.709 42.6058 37.7909 42.8046 37.7345C42.9683 37.688 43.6089 37.662 43.5262 37.621" stroke="#F2F2F2" stroke-width="3" stroke-linecap="round"/>
<path d="M54.3944 36.4721C54.3944 36.0404 54.5873 35.6626 54.5873 35.231C54.5873 34.8419 54.6018 34.4498 54.5873 34.0609C54.5797 33.8555 54.5137 33.5196 54.4552 33.3163C54.3928 33.0995 54.1306 33.0786 53.9765 32.9936C53.7789 32.8847 53.3355 32.9555 53.1084 32.9617C52.6018 32.9757 52.0939 33.0778 51.5795 33.0894C50.6356 33.1107 49.6732 33.3016 48.736 33.4049C48.0003 33.4861 47.2959 33.5361 46.5498 33.5361C46.1269 33.5361 45.4952 33.6261 45.3281 34.0822C45.1083 34.6823 45.3753 35.303 45.3924 35.8976C45.403 36.2666 45.521 36.6079 45.521 36.9827C45.521 37.3595 45.6042 37.7581 45.646 38.1315C45.7418 38.9868 45.6513 39.8655 45.9211 40.6987C46.1768 41.4883 46.2283 42.4973 46.2283 43.3332C46.2283 43.9918 46.2743 44.6277 46.2926 45.2798C46.3014 45.5942 46.3152 45.9867 46.3605 46.301C46.4137 46.6712 46.5498 47.0779 46.5498 47.4534C46.5498 47.9393 46.7159 48.4384 46.7427 48.9178C46.7746 49.4872 46.9356 50.0499 46.9356 50.6092C46.9356 50.7651 46.9852 51.071 47.0499 51.2155C47.1296 51.3935 46.9557 51.7735 47.0928 51.9176C47.5267 52.3736 48.3111 52.109 48.8325 52.109C49.2766 52.109 49.6663 52.0767 50.1185 52.1764C50.339 52.225 50.496 52.2869 50.7293 52.3005C50.7897 52.304 50.9042 52.4434 50.9222 52.3005C50.9374 52.1803 50.9865 52.0802 50.9865 51.9318C50.9865 51.2904 51.1214 50.6015 51.0472 49.939C50.9344 48.9307 50.9865 47.8939 50.9865 46.8754C50.9865 46.0867 50.8579 45.3296 50.8579 44.5494C50.8579 44.147 51.6024 44.0033 51.951 44.0033C52.7311 44.0033 54.2015 44.1591 54.2015 43.1098C54.2015 42.5831 54.1372 42.0624 54.1372 41.5461C54.1372 41.2323 54.0327 41.0569 53.93 40.7625C53.8564 40.5512 53.558 40.5282 53.3656 40.4434C53.197 40.369 52.9369 40.402 52.7548 40.3618C52.5159 40.3091 52.3018 40.3015 52.0475 40.3015C51.6051 40.3015 50.7346 40.457 50.5221 39.9824C50.3074 39.5029 50.2792 39.0405 50.2792 38.518C50.2792 38.2615 50.2792 38.005 50.2792 37.7486C50.2792 37.4253 50.2331 37.301 50.5864 37.1883C51.2006 36.9924 51.8839 37.139 52.494 36.9188C53.0453 36.7198 53.6584 36.8054 54.2015 36.5359" stroke="#F2F2F2" stroke-width="3" stroke-linecap="round"/>
<path d="M67.3831 36.217C67.444 35.6724 68.1738 35.7209 68.5548 35.7064C69.1318 35.6844 69.6756 35.2596 70.2445 35.2596C70.667 35.2596 71.0535 34.879 71.1089 34.4937C71.1838 33.9735 71.0482 33.4133 71.0482 32.8839C71.0482 32.5642 71.0224 31.8587 70.7267 31.7351C70.1232 31.4829 69.2952 31.6838 68.6691 31.7528C66.8814 31.95 65.0981 31.8131 63.3 31.8131C62.2972 31.8131 61.3852 31.8 60.4387 32.0684C60.1181 32.1593 59.7777 32.2045 59.4599 32.3237C58.9901 32.4998 58.9597 32.5617 58.9597 33.0258C58.9597 33.3749 58.939 33.7059 59.024 34.0434C59.0882 34.2983 59.2169 34.575 59.2169 34.8412C59.2169 35.1507 59.2351 36.0255 59.6027 36.0255C60.1219 36.0255 60.6411 36.0255 61.1602 36.0255C61.3978 36.0255 62.5528 36.1432 62.6892 36.3801C62.967 36.8627 63.3366 37.4165 63.5108 37.9544C63.7366 38.6518 63.6537 39.4466 63.6537 40.1741C63.6537 40.5967 63.6114 41.0382 63.7037 41.4506C63.7815 41.7983 63.7524 42.2414 63.8787 42.5675C64.031 42.9605 63.9994 43.4623 64.0895 43.8759C64.1882 44.3293 64.0826 44.8288 64.2181 45.2659C64.3247 45.6098 64.1754 46.0148 64.2645 46.3686C64.3627 46.7584 64.3174 47.1828 64.411 47.5777C64.4724 47.8369 64.4896 48.1397 64.4896 48.4074C64.4896 48.5809 64.5453 48.7839 64.586 48.9535C64.6385 49.1724 64.5829 49.4023 64.6503 49.6166C64.7971 50.0828 64.8754 50.6334 64.8754 51.1235C64.8754 51.4243 64.9397 51.6988 64.9397 51.9958C64.9397 52.2608 65.1189 52.5038 65.1326 52.7475C65.1574 53.1914 65.0728 53.9172 65.2933 54.3112C65.4857 54.6549 66.2706 54.6663 66.6258 54.7757C66.8965 54.8591 67.3052 54.8178 67.5438 54.9494C67.7427 55.0591 67.952 55.1331 68.1547 55.2225C68.5237 55.3853 69.0549 55.4216 69.0549 54.9494C69.0549 54.743 68.9749 54.523 68.912 54.3289C68.7509 53.8314 68.7039 53.3178 68.5905 52.8113C68.3804 51.8728 68.4762 50.8332 68.4762 49.8719C68.4762 48.7954 68.2833 47.7249 68.2833 46.6487C68.2833 46.0695 68.2459 45.5195 68.169 44.9467C68.0867 44.3339 67.9733 43.6641 67.9618 43.0462C67.949 42.3614 67.8975 41.6839 67.8975 41.0003C67.8975 40.3816 67.8641 39.6923 67.7367 39.0855C67.619 38.5245 67.576 37.8743 67.576 37.302C67.576 37.126 67.6833 36.366 67.5117 36.2808" stroke="#F2F2F2" stroke-width="3" stroke-linecap="round"/>
<path d="M76.6421 31.0471C76.5969 30.6888 74.9194 30.8556 74.6488 30.8556C74.2345 30.8556 73.8194 31.0471 73.3985 31.0471C72.8697 31.0471 72.9127 31.3588 72.9127 31.813C72.9127 33.1396 72.8577 34.4337 73.1341 35.7665C73.2231 36.1953 73.1787 36.64 73.2663 37.0749C73.3672 37.5759 73.3953 38.0985 73.4413 38.6067C73.5515 39.8233 73.7486 41.0257 73.7486 42.2483C73.7486 43.0257 73.9415 43.8033 73.9415 44.5779C73.9415 45.4268 74.1987 46.2863 74.1987 47.1308C74.1987 48.5323 74.263 49.9373 74.263 51.3432C74.263 51.883 74.234 52.4385 74.3308 52.9672C74.4112 53.4062 74.679 53.8534 74.7131 54.2933C74.7246 54.4424 74.7117 55.2227 74.8095 55.3004C74.9184 55.3868 74.9021 55.6195 75.0667 55.6195C75.3346 55.6195 75.6026 55.6195 75.8705 55.6195C76.6635 55.6195 77.4565 55.6195 78.2496 55.6195C78.4993 55.6195 79.0855 55.8522 79.0855 55.4918C79.0855 54.4207 79.045 53.3493 79.0212 52.2864C79.0029 51.4708 78.7794 50.6991 78.764 49.8753C78.7494 49.0924 78.6354 48.3018 78.6354 47.5173C78.6354 47.3353 78.6354 47.1533 78.6354 46.9713C78.6354 46.7911 78.9159 46.7617 79.0355 46.6841C79.3858 46.4567 79.7479 46.4861 80.1464 46.4252C80.4244 46.3828 82.0436 45.9523 82.1076 46.4926C82.1376 46.746 82.4155 47.1076 82.5077 47.3719C82.7007 47.9255 82.7506 48.4263 82.7506 49.0101C82.7506 50.33 82.9634 51.7193 83.2507 53.0027C83.3702 53.5363 83.5713 54.0941 83.6544 54.6302C83.7251 55.0864 83.7538 55.545 83.7794 56.0024C83.787 56.1388 84.7274 56.1412 84.8582 56.1797C85.3829 56.334 86.0605 56.4492 86.6051 56.4492C86.8234 56.4492 87.5726 56.5703 87.7303 56.4137C87.9158 56.2296 87.7658 55.2737 87.716 55.0451C87.6506 54.7447 87.6461 54.3957 87.6374 54.0877C87.6279 53.7461 87.5181 53.4147 87.5088 53.0665C87.4899 52.3537 87.3345 51.6051 87.2552 50.8965C87.0834 49.3621 86.9865 47.814 86.8623 46.2727C86.5792 42.7605 86.245 39.2452 85.962 35.7346C85.8392 34.2103 85.5706 32.7192 85.5155 31.1889C85.506 30.9248 85.4816 30.2276 85.1619 30.1571C84.7952 30.0762 84.4198 30.0897 84.0366 30.0897C83.3999 30.0897 82.727 30.2812 82.0755 30.2812C81.7481 30.2812 81.3609 30.3064 81.2681 30.6287C81.1602 31.0035 81.1431 31.529 81.1431 31.9406C81.1431 33.2483 81.0455 34.6438 81.3038 35.9261C81.388 36.344 81.3539 36.7849 81.4324 37.2061C81.5176 37.6625 81.5949 38.1206 81.6718 38.5784C81.7912 39.2897 81.8504 39.9596 81.8504 40.681C81.8504 40.9302 81.6513 41.5759 81.3681 41.6384C80.9952 41.7206 80.6173 41.7696 80.2286 41.7696C79.4986 41.7696 78.677 42.1145 78.2782 41.3228C77.9572 40.6857 77.924 39.9646 77.7673 39.2804C77.5674 38.4072 77.3847 37.5046 77.2708 36.614C77.1364 35.5634 77.2208 34.4683 77.2208 33.4086C77.2208 32.9162 77.1705 32.3888 77.0529 31.9087C76.8882 31.2366 76.298 31.0314 75.6776 30.9194" stroke="#F2F2F2" stroke-width="3" stroke-linecap="round"/>
<path d="M93.2199 34.0538C93.2199 33.3187 94.0813 33.3057 94.62 33.1386C95.2383 32.9468 95.9283 32.9664 96.5634 32.8088C96.9784 32.7059 97.5888 32.8643 97.7586 32.3774C97.9917 31.7091 97.7734 30.9076 97.6872 30.2235C97.645 29.8885 97.5323 29.4546 97.2122 29.3391C96.8865 29.2215 96.5885 29.2098 96.2374 29.2282C95.7125 29.2556 95.2106 29.4907 94.6728 29.5055C93.9799 29.5246 93.2787 29.561 92.5773 29.561C92.2342 29.561 91.8592 29.5898 91.5155 29.6195C91.2016 29.6466 90.9048 29.8046 90.5966 29.8352C90.2473 29.8699 89.9171 29.8954 89.5752 29.9924C89.4577 30.0257 88.7589 30.0114 88.7495 30.1711C88.73 30.4987 88.9171 30.7722 88.9171 31.114C88.9171 32.0015 88.9171 32.889 88.9171 33.7764C88.9171 34.8312 89.2069 35.8424 89.3114 36.8795C89.4029 37.7884 89.4979 38.7344 89.5318 39.6436C89.5586 40.3623 89.4336 41.1447 89.5908 41.8469C89.7539 42.5754 89.5421 43.4502 89.8236 44.1487C89.9374 44.4311 89.8671 44.844 89.8671 45.1471C89.8671 45.7039 89.952 46.1921 90.1185 46.7248C90.3165 47.3582 90.4259 47.927 90.4259 48.5861C90.4259 48.8172 90.4259 49.0483 90.4259 49.2794C90.4259 49.4781 90.5172 49.6236 90.5376 49.8063C90.5608 50.0136 90.5986 50.2069 90.5935 50.4288C90.5874 50.6967 90.5014 50.9138 90.5811 51.1807C90.6968 51.5682 90.6445 52.0681 90.7022 52.4687C90.8224 53.3042 90.9847 54.1375 90.9847 54.9894C90.9847 55.3057 91.0964 55.6018 91.0964 55.9323C91.0964 56.0321 91.1163 56.2405 91.2361 56.2405C91.5538 56.2405 91.8715 56.2405 92.1892 56.2405C93.0495 56.2405 93.9167 56.0929 94.7721 56.0741C95.7665 56.0521 96.7532 55.9631 97.7493 55.9631C98.062 55.9631 98.3876 55.9362 98.6962 55.9909C98.9525 56.0363 99.2135 56.1295 99.4754 56.1295C99.7323 56.1295 100.031 56.1607 100.217 55.9755C100.416 55.778 100.373 55.4989 100.373 55.2421C100.373 54.7222 100.317 54.2019 100.317 53.689C100.317 53.398 100.208 53.0295 100.065 52.7738C99.9053 52.488 99.5737 52.5797 99.255 52.5797C98.8553 52.5797 98.3564 52.5585 97.9821 52.6906C97.5586 52.8401 97.0778 52.8134 96.641 52.7584C96.2503 52.7092 95.8479 52.7913 95.4582 52.743C94.7713 52.6578 94.7982 51.5006 94.7845 51.0266C94.7787 50.824 94.6835 50.6181 94.6728 50.4165C94.6645 50.2597 94.7026 50.0814 94.6604 49.9296C94.479 49.2769 94.6169 48.4647 94.6169 47.7818C94.6169 47.2398 94.561 46.6969 94.561 46.1486C94.561 45.8813 94.4204 45.4799 94.8404 45.4799C95.4226 45.4799 96.0525 45.1779 96.641 45.104C97.0432 45.0534 97.4712 45.0835 97.83 44.9253C98.1799 44.7709 98.0815 44.3485 98.0815 44.0409C98.0815 43.5961 98.0815 43.1513 98.0815 42.7066C98.0815 42.506 98.065 42.169 97.9138 42.0102C97.7712 41.8602 97.6618 41.7649 97.591 41.5541C97.4889 41.2501 97.5425 40.8266 97.1315 40.7683C96.8686 40.7311 96.5518 40.7098 96.2933 40.7098C96.1536 40.7098 96.0139 40.7098 95.8742 40.7098C95.6707 40.7098 95.5378 40.5503 95.3558 40.5434C95.0754 40.5327 94.6357 40.456 94.4368 40.2784C94.1105 39.9868 94.1693 39.6734 94.1109 39.2676C94.0539 38.8717 93.9817 38.4686 93.8936 38.0751C93.7793 37.5648 93.5552 37.1373 93.5552 36.5929C93.5552 36.0797 93.6405 35.4883 93.4682 34.9998C93.3495 34.663 93.2758 34.3043 93.2758 33.9428" stroke="#F2F2F2" stroke-width="3" stroke-linecap="round"/>
<path d="M106.686 28.9506C106.411 28.7079 106.135 28.3405 105.736 28.3405C105.069 28.3405 104.369 28.4124 103.724 28.5901C103.488 28.6554 103.242 28.6599 102.998 28.6733C102.874 28.6802 102.515 28.6995 102.411 28.7565C102.15 28.9004 101.517 28.7251 101.489 29.228C101.465 29.6542 101.946 29.9255 101.992 30.3373C102.018 30.572 102.122 30.8807 102.188 31.1139C102.271 31.4109 102.171 31.8009 102.299 32.0814C102.407 32.3165 102.378 32.5989 102.452 32.8457C102.543 33.1508 102.624 33.5146 102.66 33.8317C102.743 34.5771 103.052 35.2711 103.234 35.9949C103.369 36.5312 103.478 37.0563 103.6 37.6035C103.818 38.576 104.167 39.532 104.339 40.5155C104.484 41.3437 104.83 42.1288 104.954 42.956C105.112 44.0188 105.683 44.991 105.835 46.0467C105.954 46.8682 106.127 47.6256 106.338 48.4195C106.516 49.0843 106.878 49.6854 107.049 50.3639C107.114 50.6222 107.174 50.8795 107.245 51.1374C107.319 51.4087 107.498 51.6436 107.568 51.9139C107.654 52.2473 107.713 52.5807 107.828 52.9092C107.958 53.2774 107.931 53.8157 108.207 54.1202C108.316 54.2397 108.331 54.4025 108.505 54.4654C108.867 54.5959 109.323 54.5763 109.704 54.5763C110.242 54.5763 110.8 54.581 111.324 54.4654C111.813 54.3575 112.242 54.0979 112.696 53.9692C113.194 53.8281 113.265 53.1092 113.348 52.6473C113.487 51.8725 113.559 51.0364 113.559 50.2499C113.559 49.375 113.671 48.5115 113.671 47.643C113.671 46.933 113.813 46.185 113.891 45.4797C113.911 45.3026 113.836 44.7856 113.963 44.6601C113.968 44.6547 114.292 45.2983 114.342 45.3811C114.596 45.8064 114.781 46.3387 114.913 46.811C115.008 47.1509 115.249 47.5378 115.431 47.8402C115.695 48.2756 115.866 48.8548 115.993 49.3409C116.273 50.4111 116.792 51.3683 117.235 52.3576C117.279 52.4562 117.316 52.7059 117.446 52.7428C117.746 52.8278 118.089 52.65 118.365 52.5795C119.2 52.3664 120.042 52.1467 120.88 52.0279C121.577 51.929 121.382 51.457 121.507 50.9155C121.577 50.6095 121.55 50.2875 121.55 49.9726C121.55 49.554 121.606 49.1257 121.606 48.6999C121.606 48.0049 121.502 47.2065 121.69 46.5336C121.783 46.2007 121.783 45.8018 121.842 45.4551C121.931 44.9336 121.871 44.3819 121.985 43.8712C122.068 43.4991 122.053 42.9783 122.053 42.5986C122.053 42.1007 122.156 41.5959 122.165 41.0979C122.184 40.0915 122.173 39.0447 122.274 38.0441C122.384 36.9488 122.277 35.7924 122.277 34.6915C122.277 34.1395 122.333 33.5914 122.333 33.0429C122.333 32.4375 122.257 31.7705 122.345 31.1693C122.456 30.4084 122.388 29.597 122.388 28.8274C122.388 28.2976 122.593 27.567 122.441 27.0401C122.352 26.7314 121.467 26.9445 121.299 27.037C120.796 27.3143 119.971 27.0648 119.427 27.0648C119.199 27.0648 119.005 27.0745 118.784 27.1233C118.472 27.1922 118.567 27.3758 118.52 27.6318C118.361 28.5032 118.197 29.4262 118.197 30.3127C118.197 31.3088 118.03 32.3064 118.03 33.3017C118.03 33.764 118.029 34.2633 117.961 34.7192C117.894 35.1723 117.932 35.6447 117.85 36.0935C117.71 36.8537 117.639 37.6493 117.639 38.4231C117.639 38.4908 117.636 39.0799 117.586 38.9039C117.524 38.6896 117.435 38.5013 117.359 38.2937C117.043 37.431 116.537 36.6336 116.353 35.7207C116.272 35.3192 116.108 34.8383 115.962 34.4542C115.796 34.0171 115.728 33.5599 115.571 33.123C115.414 32.6837 115.326 32.1563 115.288 31.6932C115.244 31.1371 115.033 30.5916 115.012 30.0353C114.994 29.5451 114.812 29.0271 114.733 28.5377C114.708 28.3812 114.608 27.8313 114.481 27.7304C114.242 27.5401 113.791 27.4694 113.472 27.5116C112.725 27.6105 112.025 27.7655 111.268 27.7858C110.596 27.8039 110.255 28.0986 110.206 28.7719C110.18 29.1378 110.039 29.4975 110.039 29.8689C110.039 30.4298 109.927 30.9658 109.927 31.5268C109.927 32.4302 109.815 33.3482 109.815 34.2508C109.815 35.4622 109.782 36.6751 109.759 37.8808C109.745 38.6249 109.699 39.4843 109.468 40.1981C109.405 40.3917 109.368 40.6446 109.368 40.8483C109.368 41.0569 109.3 40.4336 109.284 40.3737C109.179 39.955 109.165 39.4884 109.076 39.0579C108.99 38.6373 108.901 38.2139 108.785 37.8007C108.497 36.7814 108.248 35.7577 107.915 34.75C107.551 33.6463 107.541 32.4748 107.27 31.3604C107.133 30.7979 107.122 30.201 107.009 29.6286C106.96 29.3782 106.93 28.8397 106.574 28.8397" stroke="#F2F2F2" stroke-width="3" stroke-linecap="round"/>
<path d="M126.301 26.4547C125.128 26.4547 125.239 28.2155 125.239 29.0061C125.239 31.0077 124.959 32.9955 124.959 34.9965C124.959 35.7488 124.889 36.4742 124.848 37.2152C124.819 37.7236 124.668 38.2276 124.627 38.7375C124.594 39.1561 124.568 39.5661 124.568 39.9886C124.568 41.5079 124.512 43.022 124.512 44.5337C124.512 45.3332 124.486 46.1324 124.398 46.9219C124.319 47.6212 124.345 48.3342 124.345 49.042C124.345 49.4723 124.345 49.9027 124.345 50.3331C124.345 50.8634 125.487 50.4852 125.823 50.4286C126.367 50.3369 126.919 50.3881 127.415 50.1112C127.629 49.9917 127.868 49.9038 128.061 49.7507C128.385 49.4933 128.48 48.9427 128.48 48.5428C128.48 48.2247 128.496 47.8727 128.539 47.5567C128.584 47.2232 128.703 46.8677 128.703 46.5336C128.703 46.111 128.985 45.4939 129.374 45.301C129.756 45.1112 130.17 45.1041 130.548 44.9374C130.712 44.8648 131.009 44.9251 131.19 44.9251C131.497 44.9251 131.567 45.0656 131.808 45.2024C132.234 45.4441 132.459 45.9998 132.628 46.435C132.769 46.7998 133.033 47.3102 133.481 47.3102C134.194 47.3102 134.881 47.1717 135.521 46.8541C135.678 46.7759 135.845 46.6914 135.999 46.6476C136.085 46.6234 136.227 46.5917 136.291 46.5213C136.337 46.4703 136.331 46.3565 136.387 46.3118C136.452 46.2598 136.471 45.9033 136.471 45.8126C136.471 45.5643 136.482 45.3402 136.403 45.1038C136.314 44.8403 136.275 44.5561 136.191 44.2872C136.049 43.8275 135.918 43.3619 135.772 42.8975C135.38 41.6436 135.255 40.3177 134.934 39.0456C134.603 37.7308 134.329 36.3829 134.08 35.052C133.85 33.8165 133.556 32.5932 133.397 31.3357C133.32 30.7216 133.085 30.1961 132.894 29.6163C132.737 29.1381 132.639 28.6255 132.447 28.1618C132.228 27.629 132.17 26.6942 131.662 26.316C131.259 26.0163 131.003 26.0109 130.504 26.0109C130.13 26.0109 129.732 25.9735 129.365 26.0387C128.859 26.1283 128.3 26.1773 127.785 26.1773C127.296 26.1773 126.728 26.0857 126.356 26.4547" stroke="#F2F2F2" stroke-width="3" stroke-linecap="round"/>
<path d="M129.15 34.3313C129.056 34.343 128.988 35.0608 128.983 35.1633C128.965 35.4761 128.749 36.0417 128.591 36.3158C128.274 36.8671 128.2 37.6952 128.2 38.3249C128.2 38.7483 128.072 39.4396 128.244 39.8225C128.331 40.0166 128.356 40.3855 128.368 40.599C128.381 40.8421 128.48 41.0406 128.48 41.2924C128.48 41.5539 128.547 41.7084 128.843 41.7084C129.196 41.7084 129.569 41.662 129.901 41.542C130.146 41.4537 130.48 41.431 130.743 41.431C131.089 41.431 131.05 41.2388 131.05 40.9596C131.05 40.6003 130.906 40.1781 130.827 39.8225C130.694 39.232 130.611 38.6351 130.463 38.0507C130.328 37.5126 130.183 36.9623 130.072 36.4144C129.975 35.9335 129.844 35.3056 129.43 34.9969" stroke="#F2F2F2" stroke-width="3" stroke-linecap="round"/>
<path d="M140.215 25.29C139.503 25.29 138.861 25.5674 138.144 25.5674C137.784 25.5674 137.456 25.6485 137.17 25.8694C137.054 25.9587 136.872 25.9473 136.806 26.0943C136.737 26.2498 136.751 26.396 136.751 26.5658C136.751 27.3564 136.724 28.1525 136.865 28.9262C137.06 29.9893 136.974 31.1207 136.974 32.2111C136.974 32.9962 136.96 33.8226 137.098 34.5961C137.199 35.1565 137.309 35.8111 137.309 36.3803C137.309 37.4253 137.421 38.5014 137.421 39.545C137.421 39.9955 137.533 40.4382 137.533 40.8762C137.533 41.3538 137.701 41.8264 137.701 42.2906C137.701 43.1864 138.036 44.0103 138.036 44.913C138.036 44.9733 138.006 45.3363 138.092 45.3012C138.253 45.2354 138.434 45.2017 138.595 45.1348C139.138 44.9076 139.684 44.6993 140.212 44.4045C140.709 44.1271 141.31 43.9663 141.833 43.7327C142.117 43.6056 142.395 43.4699 142.677 43.3476C142.986 43.2132 143.261 42.9781 143.58 42.8607C143.782 42.7864 144.495 42.4403 144.561 42.2505C144.695 41.8683 144.63 41.3302 144.63 40.9255C144.63 40.5479 144.539 40.1534 144.459 39.7946C144.39 39.4882 144.458 39.1013 144.071 39.1013C143.666 39.1013 143.341 39.1511 142.966 39.28C142.836 39.3247 142.161 39.9467 142.112 39.6806C142.004 39.0936 141.682 38.6083 141.556 38.0474C141.361 37.1735 141.175 36.2951 141.01 35.4096C140.848 34.5426 140.621 33.7077 140.606 32.8212C140.592 31.9407 140.55 31.0566 140.55 30.1711C140.55 29.1816 140.409 28.1907 140.33 27.2067C140.291 26.727 140.215 26.2676 140.215 25.7892" stroke="#F2F2F2" stroke-width="3" stroke-linecap="round"/>
<path d="M148.54 24.5695C148.15 24.5467 147.772 24.4031 147.367 24.4031C146.861 24.4031 146.408 24.5736 145.914 24.628C145.743 24.6469 145.564 24.7279 145.411 24.8037C145.319 24.8492 145.223 25.0025 145.132 25.0132C144.769 25.0556 144.833 25.3427 144.753 25.611C144.654 25.9437 144.796 26.3225 144.796 26.6526C144.796 26.9436 144.908 27.2188 144.908 27.5092C144.908 27.8433 144.97 28.2044 145.02 28.5354C145.202 29.7573 145.388 30.9905 145.411 32.2239C145.451 34.3352 145.97 36.411 145.97 38.5225C145.97 39.0976 146.137 39.667 146.137 40.2388C146.137 40.314 146.164 40.963 146.206 40.963C146.237 40.963 146.483 40.6422 146.529 40.5994C146.656 40.4802 146.873 40.3963 147.032 40.322C147.761 39.9816 148.479 39.6119 149.214 39.2928C149.459 39.1863 149.699 39.057 149.937 38.9354C150.064 38.8709 150.148 38.7539 150.273 38.6919C150.411 38.6233 150.576 38.6163 150.72 38.5471C151.012 38.4062 151.291 38.2239 151.57 38.0602C151.83 37.9081 152.129 37.8222 152.384 37.6596C152.601 37.5212 152.807 37.3729 153.011 37.2159C153.178 37.0871 153.436 37.0215 153.57 36.8554C153.656 36.7482 153.737 36.7669 153.737 36.578C153.737 36.3696 153.766 36.1418 153.709 35.9402C153.598 35.543 153.519 35.1237 153.414 34.7199C153.327 34.3831 153.143 34.0058 153.123 33.666C153.113 33.5024 152.056 34.0224 151.952 34.0789C151.558 34.2943 151.065 34.478 150.636 34.609C150.522 34.6439 150.299 34.7811 150.204 34.6768C150.058 34.5152 150.019 34.0928 149.981 33.8879C149.919 33.557 149.856 33.2173 149.782 32.8895C149.725 32.6347 149.758 32.3637 149.701 32.113C149.558 31.4733 149.586 30.8119 149.407 30.1716C149.218 29.4972 149.184 28.7872 149.099 28.0947C149.017 27.42 148.956 26.7294 148.807 26.0671C148.732 25.7316 148.54 25.293 148.54 24.9577" stroke="#F2F2F2" stroke-width="3" stroke-linecap="round"/>
<path d="M152.173 23.2937C152.173 23.4366 151.992 23.6991 151.906 23.8053C151.843 23.8837 151.788 24.3508 151.782 24.4586C151.766 24.7368 151.581 25.0876 151.49 25.3583C151.378 25.6907 151.322 26.0449 151.195 26.3722C151.102 26.6109 151.096 26.8712 150.971 27.0932C150.885 27.2483 150.931 27.4692 150.819 27.6078C150.566 27.9218 150.863 27.9808 151.099 28.1194C151.294 28.2344 151.65 28.5076 151.866 28.5076C152.117 28.5076 152.148 28.5789 152.372 28.4522C152.548 28.3519 152.519 28.1377 152.592 27.9776C152.747 27.6381 152.847 27.2897 153.039 26.9515C153.283 26.5207 153.575 26.1249 153.793 25.6788C153.955 25.3482 154.05 24.9619 154.172 24.6126C154.233 24.4383 154.443 24.0436 154.405 23.8761C154.356 23.6553 153.789 23.5533 153.604 23.5125C153.357 23.4581 153.112 23.2383 152.843 23.2383" stroke="#F2F2F2" stroke-width="3" stroke-linecap="round"/>
<path d="M156.531 24.4022C155.974 24.4022 155.969 25.1164 155.805 25.4838C155.56 26.0317 155.237 26.5826 155.075 27.1447C154.936 27.629 154.744 28.1438 154.532 28.6177C154.489 28.7134 154.374 29.0808 154.42 29.1723C154.551 29.4314 155.2 29.4598 155.457 29.5483C155.675 29.6229 155.864 29.8379 156.112 29.8379C156.275 29.8379 156.541 29.1936 156.612 29.0645C157.048 28.2785 157.25 27.3925 157.624 26.5962C157.767 26.293 157.941 26.0102 158.053 25.6903C158.096 25.5651 158.302 25.1752 158.251 25.0678C158.161 24.8777 157.734 24.6458 157.537 24.6241C157.257 24.5932 157.027 24.3588 156.755 24.2913" stroke="#F2F2F2" stroke-width="3" stroke-linecap="round"/>
</svg>
