<svg width="168" height="110" viewBox="0 0 168 110" fill="none" xmlns="http://www.w3.org/2000/svg">
<path d="M14.8589 73.753C14.8589 75.0179 15.3411 75.9981 15.3411 77.2951C15.3411 78.0326 15.4644 78.7447 15.5019 79.4368C15.5372 80.0891 15.7893 80.6193 15.8234 81.2491C15.8836 82.3605 16.6501 83.6308 17.1898 84.6264C17.4148 85.0415 17.9469 85.5302 18.065 85.9536C18.2417 86.5875 18.9352 86.3849 19.4314 86.5302C21.8536 87.2395 24.5925 87.4173 27.1117 87.5095C28.6181 87.5647 30.2142 87.8307 31.6574 88.1594C32.3888 88.326 33.1791 88.1765 33.9079 88.3424C34.6651 88.5149 35.2668 88.6628 36.078 88.6628C39.6461 88.6628 43.1769 89.4865 46.7233 89.4865C48.7671 89.4865 50.8085 89.6513 52.8765 89.6513C54.0027 89.6513 55.4021 89.7525 56.4934 90.0632C57.522 90.356 58.5882 90.1273 59.6191 90.3194C63.1132 90.9705 66.8013 90.6718 70.2376 91.4544C70.9253 91.611 71.6928 91.4586 72.372 91.6649C73.3421 91.9595 74.6096 92.0937 75.6227 92.1225C76.7435 92.1544 77.9027 92.0011 78.9985 92.2507C79.6283 92.3941 80.2614 92.224 80.8918 92.4154C81.2557 92.5259 81.8742 92.6031 82.2492 92.6168C83.4737 92.6616 84.6701 92.9463 85.9108 92.9463C86.5434 92.9463 87.3897 93.0195 88.0006 93.1934C88.6088 93.3666 89.2616 93.1544 89.8581 93.3581C90.6845 93.6404 92.12 93.77 92.9928 93.77C94.0834 93.77 95.2066 93.9212 96.2792 94.0904C97.3846 94.2647 98.6171 94.2315 99.7354 94.2643C100.644 94.2909 101.567 94.429 102.504 94.429C103.955 94.429 105.381 94.7585 106.808 94.7585C108.402 94.7585 110.01 94.9233 111.631 94.9233C113.457 94.9233 115.268 94.7585 117.061 94.7585C118.393 94.7585 119.672 94.2643 121.035 94.2643C122.552 94.2643 124.223 94.4259 125.697 94.0904C128.455 93.4621 131.363 93.1042 134.136 92.9463C135.307 92.8796 136.912 93.0371 138.074 92.7724C138.81 92.6049 139.545 92.452 140.316 92.452C140.653 92.452 141.975 92.2944 142.174 92.0402C142.376 91.7808 143.663 91.8864 144.013 91.7839C144.338 91.6889 145.328 91.6649 145.549 91.3812C145.619 91.2922 146.16 91.1789 146.282 91.1432C146.728 91.0124 146.829 91.0137 147.077 90.5574C147.42 89.9234 146.935 89.5325 146.675 89.0655C146.427 88.6215 146.353 87.6875 146.353 87.18C146.353 86.5147 146.228 86.0191 146.192 85.3678C146.16 84.7743 145.613 84.223 145.353 83.7203C145.09 83.2107 144.772 82.5468 144.388 82.1094C143.969 81.6319 143.802 81.4989 143.219 81.1667C142.62 80.8257 141.92 81.0923 141.298 80.9104C140.609 80.7086 139.784 80.6041 139.039 80.4345C138.336 80.2743 137.349 80.0958 136.637 80.0958C135.21 80.0958 133.351 79.1706 132.046 78.5765C130.521 77.8818 128.905 77.6577 127.349 77.1669C125.861 76.6977 124.323 76.1676 122.803 75.8215C121.22 75.461 119.752 74.7056 118.141 74.3387C115.083 73.6421 112.243 72.0479 109.22 71.1627C107.697 70.7169 106.095 70.1439 104.647 69.4695C104.004 69.1698 103.197 68.7678 102.549 68.5634C101.978 68.3833 100.748 67.9663 100.378 67.4925C99.9969 67.0038 98.6879 66.7478 98.1636 66.4216C97.3266 65.9008 96.4062 65.576 95.5559 65.1402C94.0148 64.3505 91.2487 63.5266 89.6285 62.9116" stroke="#F2F2F2" stroke-width="5" stroke-linecap="round"/>
<path d="M17.035 85.0283C17.035 86.2261 16.7575 87.6179 17.6423 88.5247C18.0071 88.8986 18.7075 88.8781 19.2051 88.9915C19.9181 89.1538 20.5923 89.4721 21.2949 89.6321C24.1037 90.2719 27.1356 90.7945 30.0648 90.7945C31.7729 90.7945 33.496 91.3616 35.1999 91.4535C36.7992 91.5398 38.3332 91.6183 39.9509 91.6183C42.7645 91.6183 45.4965 92.1125 48.3011 92.1125C51.7514 92.1125 55.1058 92.1628 58.4998 92.5976C60.3622 92.8362 62.269 93.3299 64.135 93.4305C64.7988 93.4663 65.345 93.5953 65.9837 93.5953C66.5165 93.5953 67.6023 93.5742 68.0734 93.8424C68.5225 94.0981 69.4121 93.9248 69.9221 93.9248C70.5795 93.9248 71.1741 94.0895 71.8511 94.0895C73.0928 94.0895 74.2913 94.2543 75.468 94.2543C76.8157 94.2543 78.1043 94.5838 79.4064 94.5838C80.7262 94.5838 82.0492 95.2428 83.3448 95.2428C84.6758 95.2428 86.088 95.737 87.4439 95.737C88.9259 95.737 90.3416 96.396 91.8199 96.396C93.1949 96.396 94.4951 96.8903 95.8833 96.8903C97.0395 96.8903 98.2705 97.055 99.5002 97.055C102.289 97.055 105.207 97.3975 108.02 97.5493C110.676 97.6926 113.126 97.055 115.736 97.055C118.419 97.055 121.213 96.2313 123.934 96.2313C125.251 96.2313 126.583 95.737 127.882 95.737C128.633 95.737 129.367 95.5952 130.079 95.3709C130.713 95.171 131.552 95.3061 132.133 95.0414C132.754 94.7584 133.784 94.5838 134.464 94.5838C135.181 94.5838 135.87 94.2543 136.553 94.2543C137.204 94.2543 137.768 94.0895 138.402 94.0895C138.911 94.0895 140.015 94.0136 140.492 93.7966C140.945 93.5903 141.919 93.678 142.421 93.6044C143.052 93.512 143.81 93.7651 144.421 93.5861C145.505 93.2687 146.684 93.3053 147.726 92.7715" stroke="#F2F2F2" stroke-width="5" stroke-linecap="round"/>
<path d="M17.4312 90.9693C17.4312 92.0193 17.1097 93.1194 17.1097 94.2643C17.1097 95.0393 16.779 97.012 17.2347 97.5959C17.448 97.8691 17.2704 98.9349 17.2704 99.2891C17.2704 99.6607 17.8585 100.176 18.0385 100.525C18.4536 101.328 19.5558 101.859 20.3247 102.209C21.4516 102.722 22.7569 103.064 23.9863 103.161C25.1876 103.255 26.3499 103.747 27.5585 103.82C28.6152 103.883 29.8401 104.479 30.9343 104.479C32.2914 104.479 33.643 104.643 35.0245 104.643C37.5552 104.643 39.8474 104.679 42.2583 105.129C44.5172 105.55 46.856 105.467 49.1795 105.467C51.4279 105.467 53.7915 105.302 56.0918 105.302C57.5647 105.302 59.1018 105.632 60.6018 105.632C62.1676 105.632 63.7334 105.632 65.2993 105.632C70.6125 105.632 75.9425 106.291 81.2493 106.291C83.5583 106.291 85.9003 106.456 88.1616 106.456C90.5781 106.456 92.9344 106.785 95.315 106.785C100.225 106.785 105.036 106.95 109.943 106.95C111.228 106.95 112.481 106.62 113.81 106.62C114.944 106.62 116.162 106.291 117.338 106.291C118.546 106.291 119.779 105.961 120.955 105.961C122.166 105.961 123.293 105.865 124.491 105.797C125.829 105.721 127.135 105.302 128.51 105.302C129.955 105.302 131.401 104.722 132.85 104.643C133.423 104.613 134.104 104.268 134.69 104.158C135.288 104.047 136.118 103.984 136.708 103.984C137.068 103.984 138.08 103.917 138.396 103.737C138.881 103.461 139.592 103.678 140.084 103.454C141.22 102.936 142.648 103.219 143.781 102.703C144.264 102.483 145.323 102.251 145.862 102.181C146.287 102.127 147.209 101.996 147.514 101.715C147.96 101.304 148.955 101.405 149.488 101.101C149.903 100.865 150.859 100.552 151.337 100.525C151.951 100.49 152.583 100.159 153.185 100.021C153.534 99.942 153.862 99.7388 154.23 99.701C154.653 99.6577 155.37 99.6301 155.748 99.4539C157.825 98.4864 160.164 98.2448 162.179 97.065C164.259 95.8465 165.001 93.6935 165.001 91.3812C165.001 90.9504 164.601 90.0058 164.322 89.6879C164.01 89.3326 164.184 88.6726 163.956 88.2509C163.731 87.8355 163.74 86.998 163.715 86.5211C163.684 85.9577 163.328 85.2229 163.223 84.6356C163.043 83.6212 162.161 82.9416 161.955 81.9905C161.742 81.0067 161.295 79.6731 160.696 78.906C160.15 78.2061 159.757 77.6091 159.017 77.0022C158.216 76.3452 157.166 76.1433 156.32 75.6842C155.601 75.2942 154.253 74.8737 153.427 74.8239C153.003 74.7983 152.488 74.3296 152.06 74.3296C151.641 74.3296 150.819 74.1355 150.497 73.872C150.214 73.6395 149.229 73.7712 148.854 73.6615C148.359 73.5164 147.634 73.5217 147.157 73.3045C146.175 72.8573 144.707 73.0116 143.621 73.0116C142.401 73.0116 141.065 72.4025 139.798 72.3526C139.16 72.3274 138.512 72.1879 137.905 72.1879C137.545 72.1879 136.206 71.9144 136.226 71.9408C136.456 72.2355 137.023 72.4187 137.316 72.7187C137.648 73.0591 137.884 73.4062 138.155 73.753C138.448 74.1277 138.767 74.5361 139.084 74.8605C139.414 75.1983 140.017 75.642 140.245 76.0503C140.439 76.398 140.863 76.8098 141.084 77.0937C141.309 77.3817 141.816 78.1263 142.085 78.2836C142.477 78.5136 142.793 79.2672 143.138 79.6016C143.599 80.0476 144.157 80.549 144.424 81.1667C144.877 82.2093 145.577 83.0821 146.032 84.1322C146.532 85.2851 146.649 86.6715 147.238 87.7567C147.491 88.2241 147.449 89.1091 147.479 89.6513C147.509 90.2113 147.639 90.7793 147.639 91.3812C147.639 92.4159 148.122 93.5242 148.122 94.5938" stroke="#F2F2F2" stroke-width="5" stroke-linecap="round"/>
<path d="M148.283 95.418C148.283 96.2833 148.333 96.6218 149.247 96.2052C150.022 95.8525 150.781 95.7736 151.578 95.592C152.263 95.4361 153.046 95.2933 153.749 95.2533C154.466 95.2124 155.161 94.5943 155.838 94.5943C156.564 94.5943 157.292 93.9353 158.009 93.9353C158.716 93.9353 159.341 93.3579 160.018 93.2763C160.465 93.2224 161.44 92.6134 161.867 92.3702C162.473 92.0249 162.992 91.684 163.555 91.2993" stroke="#F2F2F2" stroke-width="5" stroke-linecap="round"/>
<path d="M111.069 61.5708C112.127 62.1549 113.335 62.8744 114.454 63.2915C116.371 64.006 118.097 65.1016 119.991 65.9641C120.824 66.3436 121.705 66.5559 122.483 66.9984C123.275 67.4495 124.206 68.1386 125.064 68.3896C125.716 68.5806 126.916 69.1007 127.421 69.5154C127.619 69.6775 128.497 69.9599 128.761 70.0371C129.174 70.1581 129.559 70.2305 129.958 70.4124C130.412 70.6191 130.999 70.7501 131.485 70.8608C131.959 70.9688 132.545 71.3377 133.012 71.3642C133.993 71.4201 134.887 72.0232 135.906 72.0232" stroke="#F2F2F2" stroke-width="5" stroke-linecap="round"/>
<path d="M77.0157 88.4604C77.8597 87.5954 79.0241 86.5821 79.6295 85.5273C80.7796 83.5236 82.2375 81.7844 83.3517 79.7291C83.6723 79.1377 84.122 78.3906 84.5759 77.898C85.0145 77.4221 85.1722 76.7035 85.6181 76.2196C86.4254 75.3436 86.8074 74.0893 87.5867 73.2018C88.3333 72.3517 89.135 71.2577 89.6711 70.2688C90.2143 69.2667 91.524 68.4375 91.8713 67.3696" stroke="#F2F2F2" stroke-width="6" stroke-linecap="round"/>
<path d="M88.9264 90.338C89.211 89.8919 89.5216 89.4138 89.7828 88.9587C90.2912 88.0729 91.4043 87.4415 91.8169 86.49C92.714 84.4216 94.6432 82.8999 95.5333 80.8475C95.7647 80.3139 96.3867 79.8711 96.7033 79.3663C96.9963 78.8992 97.5243 78.3724 97.7356 77.8851C98.135 76.9642 98.8025 76.1568 99.2803 75.2754C99.7296 74.4467 100.452 73.761 100.901 72.9557C101.126 72.5527 101.907 71.3744 102.278 71.1846" stroke="#F2F2F2" stroke-width="6" stroke-linecap="round"/>
<path d="M102.372 91.9508C102.372 91.3948 103.015 91.2288 103.231 90.8081C103.507 90.2719 103.86 89.9689 104.231 89.5045C104.438 89.245 105.014 88.5361 105.048 88.2179C105.127 87.4953 106.145 86.4945 106.568 85.9325C107.308 84.949 108.037 84.01 108.682 82.9699C110.383 80.2304 112.846 78.024 114.266 75.1147" stroke="#F2F2F2" stroke-width="6" stroke-linecap="round"/>
<path d="M30.7833 69.2286C31.2992 69.2873 32.8433 70.194 33.2209 70.5036C33.5764 70.795 34.8233 71.172 35.275 71.1992C35.9096 71.2375 36.5146 71.6935 37.2041 71.6935C37.9308 71.6935 38.6795 71.9023 39.4547 71.8582C39.973 71.8287 41.2818 71.3555 41.6695 70.9978C41.8984 70.7868 42.2305 70.7525 42.4733 70.5036C42.6756 70.2963 42.9144 69.9053 43.1521 69.7531C43.8318 69.3177 45.2419 67.5632 45.2419 66.751" stroke="#F2F2F2" stroke-width="7" stroke-linecap="round"/>
<path d="M131.725 73.8354C131.678 73.3034 131.537 72.7737 131.404 72.2612C131.283 71.7956 130.863 71.3797 130.77 70.9523C130.658 70.437 130.412 69.6982 129.957 69.3872" stroke="#F2F2F2" stroke-linecap="round"/>
<path d="M126.741 78.5084C126.741 77.1902 129.423 75.7805 130.325 75.0245C131.657 73.9076 133.426 74.0212 134.935 73.5059" stroke="#F2F2F2" stroke-width="3" stroke-linecap="round"/>
<path d="M131.971 73.1484C130.95 72.2177 129.493 72.2551 128.223 72.2551C127.036 72.2551 126.397 72.6111 125.347 72.9697" stroke="#F2F2F2" stroke-width="3" stroke-linecap="round"/>
<path d="M118.897 75.1137C119.041 73.7803 120.712 72.36 121.608 71.4412C122.386 70.6447 123.5 69.5752 124.649 69.5752" stroke="#F2F2F2" stroke-width="3" stroke-linecap="round"/>
<path d="M118.373 69.9326C118.658 69.9001 118.838 69.6255 119.08 69.4859C119.712 69.1216 120.4 68.9196 121.037 68.533C121.586 68.1994 122.305 68.1724 122.906 67.9673" stroke="#F2F2F2" stroke-width="3" stroke-linecap="round"/>
<path d="M111.575 71.1828C112.312 71.0151 112.762 69.5224 113.493 69.1481C114.177 68.7976 114.594 68.4468 115.149 67.8776C116.249 66.75 117.394 66.7163 118.897 66.7163" stroke="#F2F2F2" stroke-width="3" stroke-linecap="round"/>
<path d="M108.948 66.9837C110.286 66.5449 111.473 65.7009 112.773 65.1177C113.774 64.6692 114.666 64.6611 115.747 64.6611" stroke="#F2F2F2" stroke-width="3" stroke-linecap="round"/>
<path d="M103.904 67.9672C104.103 66.1315 105.979 65.3999 106.946 64.126C108.031 62.6959 109.777 63.2999 111.052 62.4287" stroke="#F2F2F2" stroke-width="3" stroke-linecap="round"/>
<path d="M103.033 63.1437C104.029 63.1437 104.981 61.7944 105.783 61.2975C106.753 60.6968 107.825 60.5989 108.786 60.1064" stroke="#F2F2F2" stroke-width="3" stroke-linecap="round"/>
<path d="M12.2358 58.8268C12.1765 58.0094 11.6921 57.0743 11.4614 56.2903C11.2974 55.733 11.415 55.0757 11.1793 54.5306C10.8815 53.842 10.8715 52.9517 10.7576 52.216C10.5965 51.1755 10.351 50.1684 10.0022 49.1805C9.57374 47.9671 9.4432 46.6145 9.12467 45.3739C8.82002 44.1874 8.66896 42.9454 8.3665 41.7674C8.04282 40.5068 7.53799 39.2451 7.4455 37.9698C7.38249 37.1012 7.59859 35.3627 6.41872 35.4526C5.67717 35.5091 4.05048 34.9795 3.98382 34.0604C3.94562 33.5338 3.61201 33.0422 3.57289 32.5028C3.52802 31.8842 3.48315 31.2656 3.43828 30.647C3.38045 29.8497 4.35345 29.0871 4.93543 28.6952C5.7016 28.1793 7.06299 28.0347 7.93854 28.3363C9.01466 28.7071 10.5139 29.5628 10.7048 30.8738C10.7811 31.3976 10.9093 31.9102 10.9194 32.4633C10.9279 32.9277 10.787 33.3768 10.823 33.873C10.8961 34.8798 11.4629 35.3982 11.9118 36.2555C12.3858 37.161 13.0499 37.9856 13.6627 38.7911C14.0635 39.318 14.4455 39.8386 14.7955 40.4125C15.1144 40.9354 15.5427 41.3831 15.8003 41.9419C16.0814 42.5516 16.6379 43.1014 16.9986 43.7053C17.3144 44.2342 17.7565 44.6288 18.0745 45.1501C18.2839 45.4934 18.809 46.0189 18.8833 46.4117C18.9173 46.5918 19.3977 47.2168 19.542 47.2775" stroke="#F2F2F2" stroke-width="5" stroke-linecap="round"/>
<path d="M11.4853 60.8178C12.0097 60.7234 12.6831 59.5642 13.0307 59.1507C13.8416 58.1861 14.8264 57.847 15.984 57.4215C19.0416 56.2977 22.0929 55.0379 25.3025 54.4497C27.2917 54.0852 29.2923 53.6912 31.2759 53.2822C32.6736 52.994 34.0821 52.4055 35.4951 52.2709C37.2813 52.1007 39.1164 51.5849 40.8817 51.2272C42.2739 50.945 43.708 50.7808 45.0826 50.4208C46.5543 50.0355 48.1135 49.9481 49.6092 49.6915C51.0269 49.4482 52.4461 49.289 53.8671 49.0617C55.5031 48.8 57.1891 48.6843 58.8404 48.5585C60.4949 48.4324 62.1444 48.205 63.7934 48.0793C65.954 47.9147 68.1131 47.6484 70.2827 47.4832C72.6267 47.3046 74.9866 47.087 77.3391 46.9456C79.9975 46.7858 82.6867 46.8278 85.3447 46.8672C86.9423 46.8909 88.5358 46.7097 90.1332 46.706C91.7589 46.7022 93.3774 46.6358 95.0058 46.6401C96.9467 46.6452 98.8882 46.5103 100.829 46.6036C102.48 46.6828 104.186 46.8931 105.832 46.8105C107.695 46.7171 109.625 47.0491 111.493 47.1144C113.621 47.1887 115.755 47.3961 117.88 47.5438C119.139 47.6313 120.339 48.1551 121.59 48.3355C122.717 48.4981 123.673 48.5837 124.656 49.2216C125.788 49.9569 127.193 50.3655 128.362 51.0202C128.942 51.3451 128.79 52.8192 128.833 53.4045C128.923 54.6508 127.817 54.7126 126.878 54.3677C126.582 54.2591 126.342 53.8685 126.115 53.6681C125.704 53.305 124.933 53.1874 124.432 52.9764C123.607 52.6297 122.489 52.4379 121.609 52.3263C120.6 52.1982 119.6 51.9537 118.589 51.8439C117.421 51.7168 116.273 51.4631 115.12 51.2487C113.867 51.0157 112.408 51.0876 111.131 51.0946C109.642 51.1027 108.17 50.849 106.68 50.8173C105.103 50.7837 103.579 50.7482 102.005 50.8681C99.1676 51.0843 96.2898 50.9652 93.4487 50.8075C90.9738 50.67 88.4892 51.0627 86.0077 51.0633C83.291 51.0641 80.5668 51.2799 77.8506 51.4869C75.7172 51.6494 73.5857 51.6082 71.4599 51.7702C67.471 52.0741 63.4421 52.2232 59.4871 52.835C56.6246 53.2778 53.7948 53.8285 50.9073 54.0484C47.3856 54.3167 43.7884 54.3992 40.3283 55.1597C37.7366 55.7294 35.2972 57.0698 32.6303 57.273C30.076 57.4676 27.6321 57.6718 25.1346 58.2964C23.8959 58.6062 22.6929 59.0097 21.4731 59.3896C20.7492 59.6151 19.8781 59.7227 19.1981 60.0492C18.5618 60.3548 17.8206 60.6413 17.1422 60.8392C16.5909 61 15.9984 61.1244 15.5021 61.4278C14.8584 61.8214 14.2279 62.1875 13.5032 62.3944C13.0415 62.5261 12.6661 62.967 12.1901 63.0033C11.8836 63.0267 11.4704 62.2501 11.3773 61.9908C11.2072 61.5169 11.4996 61.2838 11.5915 60.9115" stroke="#F2F2F2" stroke-width="5" stroke-linecap="round"/>
<path d="M19.5473 47.3782C19.3068 44.0625 19.1646 40.7327 18.9229 37.4001C18.8523 36.427 17.9169 35.8544 17.8431 34.836C17.8052 34.3143 17.549 33.8899 17.7586 33.3666C17.8993 33.0151 18.3134 32.6997 18.6217 32.4865C19.3879 31.957 20.5927 31.4374 21.4238 32.1713C21.8384 32.5373 22.2658 32.7339 22.6313 33.148C22.9084 33.4621 22.8553 34.2169 23.0137 34.6174C23.1794 35.0362 23.1574 35.4536 23.076 35.8566C23.0464 36.0033 22.9018 36.1175 22.9138 36.2818C22.9312 36.5223 23.3681 36.866 23.5598 36.9733C23.6685 37.0342 23.7737 37.3302 23.7941 37.4644C23.8245 37.6655 24.0737 37.9385 24.1891 38.1185C24.3363 38.3481 24.5716 38.8437 24.7948 38.9375" stroke="#F2F2F2" stroke-width="5" stroke-linecap="round"/>
<path d="M18.7992 46.6212C18.8623 46.9894 19.4393 47.4452 19.6336 47.779C19.896 48.2299 20.2211 48.6891 20.371 49.1987C20.7209 50.3877 21.6381 51.2463 22.0963 52.3696C22.2861 52.8351 22.5697 53.1849 22.8304 53.5916C23.1377 54.071 23.0788 53.5929 23.0508 53.2072C22.9973 52.4697 23.2063 51.4622 23.3174 50.7215C23.4787 49.6471 23.7652 48.5906 23.9231 47.5088C24.3283 44.732 24.7605 41.9745 25.2635 39.2131C25.5891 37.4257 25.5969 35.5502 25.7655 33.7351C25.9547 31.6977 26.2335 29.684 26.5112 27.6617C26.6309 26.7905 26.802 25.9259 26.9124 25.0526C26.9573 24.6971 27.1418 23.8556 27.0516 23.5492C26.9148 23.0843 26.2604 22.71 25.976 22.3362C25.6195 21.8676 25.4651 21.3403 25.1721 20.8368C24.8276 20.245 24.6883 19.6434 24.6375 18.9436C24.605 18.4963 24.4127 17.7051 24.6172 17.294C24.8787 16.7683 25.236 16.5546 25.5241 16.1053C25.7053 15.8228 26.3082 15.1649 26.6416 15.0815C27.4954 14.868 28.4573 14.6378 29.3631 14.5688C31.66 14.3938 33.0795 16.2109 33.2401 18.424C33.3223 19.5577 33.1238 20.5866 32.756 21.6388C32.3077 22.9211 33.9007 23.73 34.3679 24.6939C34.804 25.5935 35.5096 26.4191 36.0186 27.2936C36.6023 28.2965 37.1909 29.3336 37.7255 30.3641C38.0504 30.9903 38.4879 31.5634 38.8862 32.1417C39.2674 32.6953 39.5186 33.3187 39.9158 33.8615C40.6261 34.832 41.2261 35.8984 41.9322 36.8631C43.4207 38.8972 44.4996 41.1619 45.8681 43.281C46.4481 44.179 46.9406 45.1452 47.6507 45.9499C48.1 46.4591 48.4523 47.1129 48.6805 47.7488C48.7326 47.8938 49.0474 47.241 49.0799 47.1699C49.2509 46.7958 49.4968 46.4478 49.7026 46.0933C50.1308 45.3553 50.4215 44.3976 50.6618 43.5717C51.0216 42.3349 51.4708 41.1356 51.8863 39.916C52.196 39.0071 52.5637 38.0888 53.0808 37.2917C55.0693 34.2272 56.2259 30.5947 57.9314 27.3376C59.045 25.2109 60.1503 23.078 61.3794 21.0188C62.2022 19.6403 63.5648 17.9219 63.569 16.2152C63.5702 15.749 63.6854 15.2678 63.5431 14.7922C63.421 14.3842 63.0701 14.1042 62.9136 13.7205C62.8151 13.479 62.7631 13.2449 62.6411 13.0062C62.3339 12.4049 62.1357 11.3139 62.0714 10.6294C61.9985 9.85288 61.806 9.23316 62.1132 8.46611C62.3609 7.8476 62.8319 7.60039 63.3326 7.17443C63.9177 6.67666 64.5532 6.28979 65.3277 6.23078C66.5569 6.13713 67.5592 5.60015 68.7935 6.09114C70.057 6.59371 71.1807 7.86347 71.5786 9.19259C71.788 9.89238 71.9975 10.9018 71.8535 11.6144C71.7334 12.2094 71.3361 12.6143 71.1162 13.1634C70.9037 13.694 70.76 14.0342 70.802 14.6124C70.8449 15.2044 71.2908 15.9637 71.6749 16.378C72.7297 17.5156 73.3455 18.9512 74.1477 20.2722C74.7334 21.2366 75.2981 22.4374 76.0887 23.2231C77.0255 24.154 77.7424 25.4279 78.4216 26.5569C79.0619 27.6211 79.6361 28.6822 80.3334 29.7136C81.1631 30.9409 81.5975 32.4092 82.3647 33.681C83.1032 34.9054 83.7522 36.2148 84.57 37.3865C85.3664 38.5274 86.1626 39.7142 86.8619 40.9156C87.4824 41.9817 88.1724 43.0077 88.7804 44.0888C89.1578 44.7597 89.5275 45.5906 90.1131 46.1077C90.3109 46.2824 90.539 44.8981 90.6133 44.7125C91.1083 43.4764 91.7899 42.3425 92.3917 41.1616C93.6784 38.6365 94.7915 36.0227 96.0043 33.4618C97.2718 30.7855 98.2313 27.9766 99.4832 25.286C100.431 23.2484 101.3 21.2025 102.113 19.103C102.594 17.8618 103.244 16.5607 102.8 15.1829C102.553 14.4158 101.939 13.9555 101.876 13.0932C101.819 12.3008 101.586 11.1084 101.977 10.3825C102.134 10.0928 102.434 9.91914 102.644 9.67587C102.861 9.42306 103.083 8.99644 103.353 8.80755C103.892 8.43057 104.591 7.89478 105.28 7.99348C106.611 8.18399 109.293 8.64896 109.795 10.2959C110.255 11.8052 110.512 13.5941 109.637 14.9673C109.218 15.6246 108.52 16.111 108.147 16.7886C107.882 17.2708 108.438 18.4504 108.579 18.9384C109.205 21.1034 109.99 23.2043 110.569 25.3801C110.933 26.7494 111.178 28.1878 111.803 29.4648C112.214 30.3047 112.28 31.3027 112.553 32.1954C112.777 32.9274 113.031 33.6805 113.308 34.3941C114.4 37.2061 114.739 40.1621 115.478 43.0784C115.693 43.9303 115.936 44.7888 116.165 45.6328C116.321 46.2086 116.343 46.2316 116.515 45.7362C116.744 45.0721 117.223 44.5871 117.621 44.029C119.337 41.6217 120.039 38.8829 121.379 36.273C122.067 34.9313 122.761 33.5851 123.425 32.2323C123.942 31.1801 124.191 29.9842 124.778 28.974C125.517 27.6992 126.256 26.2844 126.355 24.7881C126.402 24.0855 126.018 23.5144 125.916 22.8424C125.782 21.9574 125.691 21.4517 126.016 20.6408C126.272 20.0016 126.491 19.5153 127.045 19.1601C127.484 18.8792 128.112 18.7508 128.624 18.7118C130.197 18.592 131.819 18.7502 132.617 20.3641C132.959 21.0563 133.434 22.2042 133.238 22.9971C133.088 23.605 132.329 24.233 131.938 24.6908C131.477 25.2292 130.658 25.762 130.479 26.487C130.307 27.1848 130.251 28.0022 130.144 28.7178C130.012 29.5957 130.083 30.6671 130.128 31.5463C130.186 32.6483 130.088 33.7926 129.996 34.8927C129.836 36.8108 129.564 38.7606 129.222 40.6515C129.047 41.6222 128.829 42.586 128.537 43.531C128.279 44.3668 128.492 45.3655 128.21 46.1684C127.668 47.7063 127.758 49.5219 127.875 51.1361" stroke="#F2F2F2" stroke-width="5" stroke-linecap="round"/>
<path d="M43.8069 39.5251C43.7124 38.2215 44.2158 36.946 44.1206 35.6334C44.0838 35.1259 43.4268 34.9069 43.1033 34.5404C42.7716 34.1645 42.9686 33.5947 43.0928 33.1784C43.3863 32.1945 43.6699 31.6467 44.6227 31.2976C45.1817 31.0928 45.86 31.1242 46.4497 31.0792C47.0511 31.0334 47.3272 31.5606 47.584 32.1124C47.9403 32.8779 48.1524 33.7114 48.2139 34.5582C48.2693 35.3219 48.5018 35.6822 48.82 36.3724C49.2694 37.3472 49.596 38.385 50.1495 39.3359C50.504 39.945 50.933 40.5148 51.2701 41.0939" stroke="#F2F2F2" stroke-width="5" stroke-linecap="round"/>
<path d="M85.3096 37.9918C84.692 37.18 86.0497 35.5832 86.4703 34.9008C86.8628 34.2639 87.0337 33.5973 87.377 32.9487C87.6437 32.445 87.6971 32.2631 87.4408 31.7733C87.2218 31.3551 86.807 31.2518 86.7674 30.705C86.7004 29.7809 87.1066 28.6434 87.7906 28.0768C88.632 27.3799 90.0055 27.1637 91.0085 27.5602C91.7861 27.8676 92.4988 28.9377 92.5622 29.8112C92.5975 30.2978 92.5139 30.62 92.1959 30.9983C92.0244 31.2022 91.5766 31.2846 91.6042 31.6654C91.6697 32.5684 92.1682 33.2358 92.4954 34.0629C92.8263 34.8993 93.3055 35.9508 93.372 36.8687" stroke="#F2F2F2" stroke-width="5" stroke-linecap="round"/>
<path d="M112.86 31.7199C112.938 30.5471 114.769 29.6987 113.831 28.598C113.282 27.9536 113.564 26.5291 113.925 25.8597C114.249 25.2582 115.325 24.8144 115.986 24.764C116.7 24.7096 117.053 25.0045 117.664 25.2978C118.262 25.5851 118.747 25.8314 118.844 26.582C118.969 27.5527 119.8 28.6362 118.79 29.3342C118.507 29.5298 118.133 29.6627 118.112 30.104C118.078 30.7856 118.104 31.4385 118.154 32.1308C118.261 33.6035 118.078 35.1885 118.431 36.6335C118.73 37.8601 119.06 39.1486 119.151 40.4011" stroke="#F2F2F2" stroke-width="5" stroke-linecap="round"/>
<path d="M17.7941 62.881C16.5711 61.9233 14.9952 62.2312 14.458 63.7459C14.0384 64.9288 14.8107 66.7863 16.105 66.9792C17.2154 67.1448 18.3531 66.5288 18.6192 65.3571C18.6983 65.0091 18.6673 64.3423 18.5644 63.9928C18.4603 63.639 17.9291 63.3789 17.71 63.091" stroke="#F2F2F2" stroke-width="3" stroke-linecap="round"/>
<path d="M30.1905 59.9008C29.9113 58.873 27.5503 58.4302 26.7149 58.537C26.1082 58.6146 25.4096 59.3687 25.0413 59.8068C24.6285 60.2979 24.5997 60.8683 24.6446 61.4881C24.7191 62.5147 25.5847 62.9992 26.4362 63.2912C27.3348 63.5993 28.2202 63.7479 29.1631 63.5358C29.6619 63.4236 30.2766 62.6976 30.3502 62.1787C30.4689 61.3431 30.8905 60.8657 29.9383 60.5307" stroke="#F2F2F2" stroke-width="3" stroke-linecap="round"/>
<path d="M40.6731 56.5582C40.1865 56.6877 39.6861 57.4738 39.5598 57.9436C39.4022 58.5297 39.6315 59.102 39.976 59.5744C40.8368 60.7547 43.804 61.5849 44.9272 60.5147C45.8513 59.6343 45.113 58.0862 44.3389 57.3477C43.7635 56.7987 43.1589 56.7078 42.4547 56.4734C42.0844 56.3501 41.1601 56.1548 40.856 56.3407" stroke="#F2F2F2" stroke-width="3" stroke-linecap="round"/>
<path d="M59.0987 54.5435C57.5985 54.6578 58.1666 56.2656 58.6854 57.1366C59.5783 58.6356 62.0623 58.3346 62.9964 57.0852C63.2989 56.6807 63.8179 55.8382 63.4047 55.3351C63.0512 54.9047 62.3543 54.6371 61.8717 54.4341C60.6272 53.9107 59.5835 53.6054 58.3927 54.3938" stroke="#F2F2F2" stroke-width="3" stroke-linecap="round"/>
<path d="M77.8284 52.6087C77.4414 52.7283 77.3698 54.2644 77.3737 54.5546C77.3833 55.2756 78.0291 55.7059 78.6438 55.9393C79.3278 56.1991 80.2134 56.3105 80.9478 56.3632C81.8219 56.426 82.0845 56.4171 82.5154 55.6105C82.8077 55.0632 82.816 54.2781 82.771 53.6571C82.7154 52.8918 81.8503 52.589 81.2102 52.3737C80.1402 52.0137 78.2437 51.8329 77.3346 52.6463" stroke="#F2F2F2" stroke-width="3" stroke-linecap="round"/>
<path d="M95.6874 52.367C95.3149 52.81 94.8262 53.3458 94.8161 53.9714C94.8028 54.8005 95.4787 55.4039 96.0431 55.9023C97.1313 56.8632 99.0123 56.8733 99.7352 55.457C100.345 54.263 99.8155 53.1293 98.8627 52.3286C98.4419 51.975 97.5228 52.1502 97.0283 52.1404C96.6137 52.1322 95.7301 51.9458 95.4898 52.382" stroke="#F2F2F2" stroke-width="3" stroke-linecap="round"/>
<path d="M112.097 52.6433C110.849 52.7384 110.081 54.4615 110.543 55.5939C111.183 57.1644 113.066 57.1089 114.322 56.4955C115.29 56.0229 115.907 54.8793 115.416 53.7386C114.846 52.4173 113.476 52.4363 112.288 52.5269" stroke="#F2F2F2" stroke-width="3" stroke-linecap="round"/>
<path d="M124.667 54.8417C124.194 54.8778 123.439 54.9194 123.05 55.2137C122.684 55.4904 122.516 55.9911 122.341 56.393C121.77 57.7038 123.889 58.3426 124.802 58.3713C125.346 58.3884 125.941 58.2815 126.446 58.0651C127.068 57.7984 126.632 56.8217 126.471 56.3555C126.127 55.3614 125.298 55.2008 124.4 55.2692" stroke="#F2F2F2" stroke-width="3" stroke-linecap="round"/>
<path d="M128.217 57.2161C128.186 57.2185 128.698 57.3567 128.831 57.4746C129.053 57.6707 129.091 58.3223 129.111 58.5955C129.137 58.9551 129.207 59.1674 128.87 59.3829C128.568 59.5764 128.409 59.5816 128.316 59.9567" stroke="#F2F2F2" stroke-width="5" stroke-linecap="round"/>
<path d="M12.576 66.2311C12.2166 66.2585 11.8142 66.71 11.8427 67.1034C11.9017 67.9165 12.2433 68.1574 12.936 68.4488" stroke="#F2F2F2" stroke-width="5" stroke-linecap="round"/>
<path d="M12.8482 63.1569C12.2154 63.2051 12.3632 64.6854 12.4008 65.204C12.4258 65.5482 12.4166 65.891 12.5511 66.2104C12.6244 66.3845 12.7998 66.5972 12.8126 66.7729C12.8917 67.8643 13.0673 68.9155 13.1459 69.9989C13.1991 70.733 13.2613 71.7119 12.9695 72.359C12.836 72.655 12.7094 73.3158 12.7155 73.6507C12.7234 74.0795 12.6328 74.6335 13.2498 74.1698C13.7875 73.7656 14.1943 73.1918 14.7602 72.7824C15.903 71.9558 17.6428 71.5062 18.9905 71.2387C20.8103 70.8775 22.527 69.9631 24.3327 69.5086C26.9096 68.8598 29.5332 68.4301 32.1428 67.9523C34.441 67.5315 36.7344 67.1908 39.0247 66.6816C41.9357 66.0343 44.9242 65.788 47.8648 65.3295C49.3422 65.0992 50.8393 64.9921 52.3217 64.7808C53.8146 64.5679 55.3391 64.3097 56.8411 64.182C59.9228 63.92 62.9768 63.511 66.0612 63.276C72.3622 62.796 78.6632 62.3159 84.9642 61.8359C90.3372 61.4265 95.7046 61.7331 101.087 61.5462C106.931 61.3434 112.849 61.3765 118.665 61.994C121.064 62.2487 123.562 62.6862 125.881 63.3498C126.535 63.5371 127.224 63.7608 127.86 64.0077C128.126 64.1111 128.563 64.3046 128.851 64.294C129.33 64.2765 129.735 64.4152 129.34 63.7988C129.116 63.4496 129.138 63.0748 129.107 62.646C129.062 62.0205 128.89 61.9365 128.384 61.5815C128.023 61.3276 128.078 60.7823 128.049 60.3856C127.978 59.4014 127.877 58.1049 128.09 57.148C128.193 56.6863 128.089 55.8933 127.84 55.5216C127.654 55.244 127.354 54.6435 127.031 54.5597" stroke="#F2F2F2" stroke-width="5" stroke-linecap="round"/>
<path d="M6.85692 35.3172C6.8368 34.2144 9.50503 33.3888 10.3172 33.7304" stroke="#F2F2F2" stroke-width="5" stroke-linecap="round"/>
<path d="M27.2431 23.3844C27.1662 22.3245 28.9631 21.8975 29.7066 21.7636C30.5095 21.6191 31.6375 21.2308 32.3912 21.6667" stroke="#F2F2F2" stroke-width="5" stroke-linecap="round"/>
<path d="M63.8556 14.6889C65.2714 14.5811 66.6871 14.4732 68.1028 14.3654C68.6137 14.3264 69.0989 14.2024 69.5932 14.0709C69.8995 13.9894 70.1778 14.0482 70.4512 13.8811" stroke="#F2F2F2" stroke-width="5" stroke-linecap="round"/>
<path d="M103.056 15.6726C103.42 15.6448 103.788 15.3265 104.197 15.2803C104.555 15.2398 104.923 15.2112 105.283 15.1975C106.339 15.1573 107.278 15.7291 107.885 16.5261" stroke="#F2F2F2" stroke-width="5" stroke-linecap="round"/>
<path d="M126.93 24.439C128.208 24.3416 129.816 24.8935 130.246 26.2273" stroke="#F2F2F2" stroke-width="5" stroke-linecap="round"/>
<path d="M114.265 29.1709C114.966 29.1971 115.647 29.371 116.361 29.3166C116.822 29.2814 117.283 29.2463 117.744 29.2112" stroke="#F2F2F2" stroke-width="5" stroke-linecap="round"/>
<path d="M88.0138 31.4751C88.513 31.6044 90.9095 32.1554 91.1974 31.4367" stroke="#F2F2F2" stroke-width="5" stroke-linecap="round"/>
<path d="M44.092 35.2298C45.3262 35.262 46.3897 35.5055 47.4369 34.6688" stroke="#F2F2F2" stroke-width="5" stroke-linecap="round"/>
<path d="M18.7566 36.4462C19.3064 36.4555 19.8228 36.8334 20.3866 36.7065C20.6577 36.6456 21.4494 36.599 21.6063 36.3309C21.8945 35.8387 22.1932 35.8421 22.5646 35.5454" stroke="#F2F2F2" stroke-width="5" stroke-linecap="round"/>
</svg>
