<svg width="42" height="42" viewBox="0 0 42 42" fill="none" xmlns="http://www.w3.org/2000/svg">
<path d="M10.1486 1.41622C9.8263 1.45581 9.40189 1.77545 9.08773 1.91266C8.53355 2.1547 7.78815 2.24245 7.27467 2.56355C6.36896 3.12993 5.50047 3.60098 4.71504 4.3728C3.88383 5.18962 3.14691 6.34053 2.62132 7.37351C2.07301 8.45113 1.35835 9.26868 1.35835 10.5287C1.35835 11.9095 1.15627 13.2789 1.15627 14.6767C1.15627 16.1205 1.25731 17.5791 1.25731 19.0343C1.25731 20.36 1.25731 21.6857 1.25731 23.0114C1.25731 23.8748 1.15627 24.7592 1.15627 25.637C1.15627 26.4004 1.27883 27.2881 1.10575 28.0365C0.764489 29.512 1.35835 30.9995 1.35835 32.4713C1.35835 32.9475 1.64915 33.5318 1.81302 33.9827C1.98465 34.455 2.14942 35.0469 2.52589 35.4169C3.05306 35.9349 3.60009 36.5539 3.96287 37.1599C4.66977 38.3409 6.27057 38.605 7.36448 39.2891C8.36513 39.9149 9.79112 40.4552 10.9794 40.5357C11.9132 40.599 12.8536 40.6455 13.786 40.7288C14.6985 40.8103 15.7297 40.6416 16.615 40.8832C17.4565 41.1129 18.5574 40.9329 19.4216 40.9329C20.4782 40.9329 21.5183 40.8336 22.5763 40.8336C23.654 40.8336 24.7317 40.8336 25.8095 40.8336C27.3062 40.8336 28.9759 41.0497 30.4572 40.8115C32.1154 40.5449 33.4894 39.9645 34.9534 39.1898C36.1578 38.5525 37.1609 37.9197 38.1361 36.9614C38.9977 36.1146 39.9104 35.0206 40.0502 33.7841C40.2281 32.2103 40.4466 30.593 40.7406 29.0404C41.016 27.5859 40.9651 25.9734 40.9651 24.4952C40.9651 22.9919 41.1174 21.4068 40.7855 19.939C40.6131 19.1767 40.662 18.2823 40.662 17.5009C40.662 16.6849 40.561 15.8679 40.561 15.0628C40.561 13.5484 40.4599 12.0622 40.4599 10.5507C40.4599 8.93362 39.7103 6.83061 38.6862 5.53668C37.3662 3.86901 35.7014 2.26039 33.4378 1.91818C32.8049 1.8225 32.1892 1.68106 31.5686 1.53757C31.1885 1.44967 30.7319 1.51551 30.3449 1.51551C29.6694 1.51551 29.0095 1.41622 28.3354 1.41622C27.1949 1.41622 26.082 1.35874 24.9563 1.168C23.8292 0.977041 22.7074 1.01907 21.5659 1.01907C18.7748 1.01907 15.9965 0.976164 13.2022 1.01907C12.3324 1.03242 11.3094 1.04233 10.4742 1.29487C10.1833 1.38283 9.47988 1.43981 9.34032 1.71409" stroke="#F2F2F2" stroke-width="2" stroke-linecap="round"/>
<path d="M9.71436 2.43139C7.45321 2.43139 5.5984 4.22774 4.1146 5.70605C3.31885 6.49886 3.19378 7.8236 2.65379 8.7651C2.05185 9.8146 2.66122 11.2584 2.34945 12.3767C1.92985 13.8816 2.45195 15.5901 2.10599 17.1067C1.91065 17.963 2.04512 18.96 2.04512 19.8356C2.04512 20.7048 2.04512 21.574 2.04512 22.4432C2.04512 25.8061 2.28859 29.2106 2.28859 32.5637C2.28859 33.0681 2.48601 33.4018 2.70789 33.8439C2.89013 34.207 2.9107 34.6186 3.07986 34.9893C3.29814 35.4678 3.36221 36.0241 3.57356 36.5054C3.72775 36.8565 4.212 37.3751 4.4798 37.6576C5.25356 38.4738 5.8826 39.1514 6.91448 39.6924C7.9507 40.2358 9.24638 40.2479 10.3907 40.3999C11.7852 40.5852 13.1684 40.757 14.5837 40.757C16.3803 40.757 18.1692 40.757 19.9671 40.757C21.921 40.757 23.8301 40.9996 25.7832 40.9996C28.3345 40.9996 31.0252 41.026 33.5269 40.6425C34.4494 40.5011 35.5692 40.0569 36.435 39.6588C37.1857 39.3135 38.0312 38.7288 38.6194 38.1427C39.4312 37.334 40.0156 35.9293 40.1546 34.8209C40.3148 33.5441 40.8783 32.2972 40.8783 30.9937C40.8783 29.5525 41 28.1165 41 26.6881C41 21.996 40.6348 17.378 40.6348 12.7136C40.6348 11.6148 40.3098 10.5752 40.2696 9.4928C40.2369 8.6122 39.8959 7.49007 39.3498 6.79761C38.5685 5.8069 38.0725 4.69595 36.9895 3.95418C35.6183 3.01496 33.9701 2.22582 32.2622 2.18883C30.3836 2.14814 28.5095 2.06754 26.6354 2.06754C24.7815 2.06754 22.8116 1.88088 20.9748 2.12818C17.0763 2.65305 13.1365 2.31011 9.22742 2.31011" stroke="#F2F2F2" stroke-width="2" stroke-linecap="round"/>
<path d="M22.2312 11.7308C21.9563 11.7308 21.6391 11.4921 21.3292 11.4517C20.5414 11.3488 19.762 11.3654 18.9655 11.3654C17.6161 11.3654 16.2493 11.9954 15.0986 12.6392C14.611 12.9119 14.4064 13.3517 14.0204 13.7404C13.3991 14.366 12.8709 15.0551 12.3928 15.7906C11.7548 16.7722 11.5902 17.7601 11.2939 18.8558C10.9905 19.9778 10.8885 21.2714 11.1488 22.4183C11.4251 23.6355 11.8296 25.0509 12.6727 26.0264C12.8847 26.2717 13.1405 26.4895 13.3725 26.7166C13.677 27.0147 13.8762 27.4293 14.2071 27.696C14.7231 28.1121 15.2942 28.4719 15.7984 28.9038C16.3846 29.406 17.2106 29.5273 17.9392 29.7057C18.6832 29.8878 19.3924 30 20.1577 30C20.9296 30 21.706 29.9087 22.4644 29.9087C23.305 29.9087 23.8995 29.5367 24.657 29.2895C25.2426 29.0984 25.7221 28.5033 26.1914 28.1274C26.6833 27.7333 27.1512 27.2842 27.6013 26.8435C28.0824 26.3725 28.6251 25.8788 29.0216 25.3413C29.4247 24.7949 29.7078 24.3021 30.0168 23.6971C30.3247 23.0942 30.2256 22.3714 30.3693 21.7382C30.5325 21.0192 30.5543 19.9457 30.3693 19.2212C29.807 17.0192 28.4441 15.2141 27.0415 13.4663C26.09 12.2808 24.838 11.8096 23.4026 11.4161C22.6261 11.2033 21.7289 11 20.9249 11C20.5747 11 19.7023 11.1103 19.5254 11.4567" stroke="#F2F2F2" stroke-width="2" stroke-linecap="round"/>
<path d="M20.4514 12.1339C20.0721 12.1339 19.7142 12 19.3082 12C18.5382 12 17.6862 12.5013 16.9992 12.8031C16.5977 12.9796 16.2257 13.1223 15.8485 13.3088C15.417 13.5221 15.1633 13.8574 14.7654 14.112C14.0051 14.5984 13.0918 16.0831 12.87 16.9602C12.7588 17.4 12.4826 17.8816 12.2984 18.2913C12.0916 18.7514 12.0578 19.3895 12.0578 19.8976C12.0578 20.8963 11.9229 21.9911 12.0653 22.9764C12.2149 24.0122 13.1057 24.7685 13.6823 25.6238C14.4109 26.7044 15.3035 27.9359 16.6006 28.3976C18.1699 28.9562 19.65 29 21.2938 29C22.7583 29 23.9158 28.6534 24.9867 27.5945C25.726 26.8636 26.8769 26.3213 27.4913 25.4899C28.2143 24.5117 28.9805 23.5302 28.9805 22.2476C28.9805 21.3784 29.0244 20.4973 28.9805 19.6299C28.8634 17.3144 27.1914 14.619 25.1146 13.5319C24.1032 13.0025 23.0949 12.7816 22.0083 12.5429C21.6657 12.4676 20.3037 12.3772 20.1807 12.1339" stroke="#F2F2F2" stroke-width="2" stroke-linecap="round"/>
<path d="M30.0532 8.36654C29.7572 8.36654 29.0138 9.11556 28.9474 9.40906C28.8294 9.93087 28.6416 10.9427 28.8969 11.4445C29.3442 12.3235 30.1516 12.4217 30.9626 12.7573C31.6949 13.0603 32.257 12.9696 32.8823 12.6139C33.4884 12.269 33.5982 11.7292 33.8421 11.2018C34.083 10.681 34.2154 9.30358 33.685 8.91262C33.1766 8.53795 32.6514 8.00447 31.973 7.96938C31.0752 7.92295 30.3493 7.9209 29.447 8.06867" stroke="#F2F2F2" stroke-width="2" stroke-linecap="round"/>
<path d="M30.9935 9.59067C30.6157 9.42568 30.1746 9.9534 30.2868 10.306C30.3843 10.6128 30.604 10.8971 30.8831 11.0735C31.5089 11.4688 32.6185 11.342 32.7147 10.4916C32.7499 10.1805 32.7314 9.96008 32.5215 9.69495C32.2951 9.40883 32.0728 9.15331 31.7575 8.95249C31.5604 8.82695 31.2816 8.90278 31.0614 8.9233C30.7963 8.948 30.5557 9.03478 30.3144 9.14019C30.0679 9.24782 29.9644 9.50861 29.8857 9.74083C29.6968 10.2977 29.5261 11.0808 30.2083 11.355C30.4488 11.4517 30.7024 11.5068 30.9171 11.6554C31.0733 11.7635 31.2283 11.8163 31.4052 11.8806C31.5394 11.9293 31.6873 11.9461 31.8254 11.9849C31.8763 11.9992 31.8709 11.9375 31.9103 11.9181" stroke="#F2F2F2" stroke-width="2" stroke-linecap="round"/>
</svg>
