<svg width="52" height="44" viewBox="0 0 52 44" fill="none" xmlns="http://www.w3.org/2000/svg">
<path d="M49.2614 2C47.7613 2 46.5335 2.70667 45.2404 3.41404C43.488 4.37267 41.2789 4.45668 39.4756 5.2725C37.6266 6.109 35.701 6.47923 33.8954 7.45416C31.5138 8.74018 28.6065 9.73129 25.997 10.454C22.5331 11.4132 18.9523 12.1756 15.6573 13.6355C13.7441 14.4833 11.4621 15.7727 9.38986 16.1808C8.04745 16.4452 6.75417 17.5916 5.40988 17.9989C4.45549 18.288 3.41398 18.8103 2.54799 19.3119C0.842461 20.2998 3.60386 21.2185 4.25076 21.635C5.2452 22.2752 6.78064 22.9899 7.9025 23.3722C9.1445 23.7956 10.523 23.8159 11.6876 24.453C12.0353 24.6432 12.8877 24.7229 12.8877 25.1802C12.8877 25.8989 13.244 26.4768 13.6263 27.079C13.9092 27.5248 14.4227 28.1183 14.5392 28.6345C14.7175 29.4246 14.6526 30.2387 15.0213 30.998C15.8425 32.6887 16.4494 34.5764 17.4114 36.1794C18.2456 37.5695 18.4331 39.1721 19.2065 40.5427C19.6479 41.3252 19.8036 39.0553 19.945 38.7247C20.4955 37.4373 20.2733 35.7789 20.2733 34.4018C20.2733 33.0797 20.5452 31.7964 20.6425 30.503C20.748 29.1009 21.0298 29.2614 22.1196 29.9172C23.2524 30.5988 23.9762 31.848 25.0533 32.614C25.6503 33.0385 26.2886 33.3575 26.9202 33.725C28.1474 34.439 29.1161 35.4401 30.3258 36.1794C31.3986 36.8351 32.6079 37.3139 33.6493 37.9975C35.0563 38.9211 36.781 39.5867 38.0806 40.6336C38.809 41.2205 39.777 42.0546 40.7681 41.9972C41.1759 41.9736 41.6817 39.8472 41.8349 39.4115C42.2743 38.1616 42.5687 36.8149 43.1684 35.634C44.9606 32.1046 44.7023 27.7157 46.02 24.0086C46.6607 22.2061 46.9315 20.2705 47.5074 18.4433C48.2303 16.1497 48.3188 13.7461 48.9947 11.464C49.4797 9.82664 49.4505 8.051 49.641 6.36333C49.7811 5.12121 50 3.99615 50 2.72722" stroke="#F2F2F2" stroke-width="3" stroke-linecap="round"/>
<path d="M20.2275 40.8058C20.2275 39.3463 22.9481 38.4106 23.9157 37.5421C24.9576 36.607 26.2943 36.0041 27.5187 35.4326" stroke="#F2F2F2" stroke-width="3" stroke-linecap="round"/>
<path d="M14.1514 26.0075C15.1117 26.0075 15.9933 25.0043 16.82 24.5683C17.8015 24.0506 18.6109 23.2848 19.6529 22.8314C22.7406 21.4877 26.2576 20.0017 29.0136 18.0473C30.7763 16.7973 32.5852 15.6867 34.3816 14.4841C35.9398 13.441 37.8253 12.5461 39.2365 11.3179C40.1549 10.5186 39.4037 11.2075 38.9183 11.7943C38.1166 12.7634 37.2766 13.7814 36.2805 14.5734C34.9078 15.6648 33.4674 16.7022 32.1646 17.8687C30.9222 18.9811 29.3498 19.6344 28.1104 20.7371C26.2191 22.4197 24.1202 24.0091 22.3728 25.8288C21.4538 26.7859 20.2766 27.7392 19.6939 28.866" stroke="#F2F2F2" stroke-width="3" stroke-linecap="round"/>
<path d="M34.5551 15.5381C34.0803 15.5381 33.6042 15.8847 33.2558 16.2044C32.7481 16.6703 32.1254 16.9976 31.5904 17.4365C30.1625 18.6082 28.5983 19.4747 27.0377 20.4667C26.1693 21.0187 25.1914 21.5362 24.2329 21.9209C23.246 22.317 22.4155 22.964 21.4996 23.5381C21.1327 23.7681 22.4017 22.3993 22.0261 22.615C21.4762 22.9308 19.1074 24.6044 18.4994 24.7712C17.4628 25.0558 16.5673 25.5717 15.6224 26.0563C15.314 26.2144 14.2128 26.6875 14.7407 27.1086C15.3567 27.6 15.9942 27.2133 16.6433 26.8865C19.2419 25.5781 22.1176 24.864 24.47 23.0685C24.9744 22.6835 25.479 22.3021 25.9807 21.9209C26.378 21.6191 27.0931 21.5521 27.4244 21.2123C27.6775 20.9528 26.7402 21.4366 26.419 21.5983C25.5893 22.0161 24.8939 22.5926 24.1762 23.1795C23.4506 23.7729 22.6201 24.1916 21.9127 24.8135C21.3761 25.2852 20.9334 25.761 20.7268 26.4635C20.621 26.8234 20.5399 27.3289 20.2679 27.5846C19.7869 28.0368 19.7059 28.7859 19.7059 29.4143C19.7059 29.8237 19.8885 30.2107 20.005 30.5988C20.1495 31.0805 20.17 31.6913 20.17 32.1958C20.17 33.2803 19.6724 34.3075 19.6183 35.3899C19.5675 36.4044 19.7059 37.4071 19.7059 38.4042C19.7059 38.673 19.7628 39.1416 19.5925 38.584C19.3686 37.8509 19.0303 37.2185 18.6644 36.5533C18.1231 35.5691 17.632 34.6616 17.3342 33.5708C17.144 32.8741 16.844 32.1823 16.7 31.4767C16.551 30.7465 16.5505 29.9869 16.5505 29.245C16.5505 28.0905 16.6774 26.4941 17.6281 25.7707C18.3136 25.249 19.3279 24.9864 20.1236 24.6866C20.5291 24.5339 20.9558 24.4675 21.3558 24.2953C21.6081 24.1867 21.8671 24.0203 22.1499 24.0203C22.5169 24.0203 22.233 24.9891 22.1705 25.1996C21.9613 25.9047 23.0474 25.2163 23.2429 25.0039C23.7148 24.4915 21.8866 25.4722 21.4177 25.9875C21.1843 26.244 21.0823 26.539 20.8918 26.8125C20.5191 27.3477 20.0483 27.9998 19.4791 27.2567C19.2613 26.9724 18.5242 27.3989 18.2313 27.4365C17.7914 27.4929 17.4048 27.8022 17.0145 28.0023C16.5415 28.2449 16.1011 28.4791 15.7204 28.8696C15.4889 29.107 15.1031 29.9989 15.2718 30.345C15.5086 30.8307 15.5296 29.2804 15.5296 28.7374C15.5296 28.3607 15.4307 28.3716 15.2099 28.1451C15.063 27.9944 15.3625 27.9801 15.4368 27.9653C16.1801 27.8175 16.9222 27.6724 17.6435 27.4312C18.3639 27.1903 19.0621 26.8595 19.7678 26.5798C19.7915 26.5704 20.6947 26.2516 20.2628 26.125C20.0113 26.0513 19.5201 26.5664 19.3708 26.6961C18.832 27.1644 18.345 27.6746 17.757 28.0816C16.8429 28.7143 16.1792 29.257 16.1792 30.3979C16.1792 31.521 16.5276 31.9327 17.2465 32.7247C17.7902 33.3235 18.0018 33.9759 18.319 34.7077C18.6417 35.4524 19.1463 36.0928 19.4997 36.8177C19.7235 37.2767 19.7987 37.7051 19.7987 38.2138C19.7987 38.4566 19.9352 39.2559 19.8503 39.4301C19.8107 39.5113 19.6456 39.3055 19.6441 39.3032C19.3239 38.8215 19.1577 38.2731 19.0975 37.6955C18.998 36.7415 19.0895 35.7754 19.0408 34.8188C18.9996 34.0085 18.8465 33.2042 18.7314 32.4021C18.5251 30.9632 19.1807 26.6449 18.7778 28.0393C18.4616 29.134 18.7363 30.522 18.8707 31.6247C18.9589 32.3487 19.2074 34.479 19.3347 33.7611C19.5158 32.7397 19.5388 31.477 19.3759 30.4507C19.289 29.9029 18.8892 29.6785 18.5097 29.3032C17.9929 28.7921 18.0771 29.1704 17.9941 29.8267C17.8919 30.6359 17.8614 31.5591 18.0148 32.3651C18.1887 33.2792 17.7761 30.5184 17.6642 29.5941C17.6599 29.5592 17.4835 28.4433 17.3445 28.547C17.0789 28.7451 17.0839 29.953 17.0558 30.2498C16.98 31.0492 16.8299 32.0979 17.4992 32.6718C17.7599 32.8953 18.2772 33.2718 18.6232 33.2323C19.4079 33.1429 21.2587 32.3895 21.3713 31.3497C21.3971 31.112 21.5395 30.9922 21.7013 30.8262C21.7131 30.8141 22.1328 31.4237 22.1602 31.4555C22.6239 31.994 23.2349 32.3189 23.7688 32.767C24.1519 33.0884 24.4096 33.3332 24.8567 33.5761C25.234 33.7809 25.54 33.9507 25.8725 34.2371C26.2423 34.5557 26.7393 34.6941 27.1511 34.9563C27.3165 35.0615 27.4983 35.0629 27.6874 35.0515C27.8355 35.0425 27.5115 34.7946 27.3832 34.7183C27.0049 34.4933 26.5848 34.4438 26.2025 34.2477C25.4015 33.8369 24.9693 32.9838 24.3257 32.3862C23.8468 31.9416 23.2916 31.4995 22.7737 31.1012C22.587 30.9576 22.1742 32.7617 21.9849 32.8727C21.8006 32.9807 21.9731 33.7136 21.8405 33.9515C21.811 34.0044 21.459 33.367 21.459 34.2371C21.459 35.2277 21.459 36.2078 21.459 37.1985C21.459 37.6339 21.2744 37.823 21.098 38.2138C21.0217 38.383 20.9286 39.2167 21.1754 38.7849C21.5897 38.0599 22.6757 37.2567 23.4079 36.8812C23.6323 36.7661 23.8991 36.788 24.0885 36.6062C24.4365 36.2721 24.7098 35.8751 25.0888 35.5697C25.3953 35.3227 25.6199 35.0515 26.0168 35.0515C26.118 35.0515 26.6213 35.1197 26.419 35.2894C25.8697 35.7504 25.0688 35.7899 24.5938 36.3947C24.3987 36.643 24.387 36.9482 24.2329 37.1985C24.1833 37.2789 23.9885 37.0814 23.9338 37.061C23.8158 37.0169 23.796 37.1269 23.7173 37.1773C23.5359 37.2935 23.841 36.753 23.9493 36.5639C24.3367 35.8869 25.0888 35.6361 25.0888 34.7871C25.0888 34.3403 25.0042 34.3622 24.6763 34.2688C24.2728 34.1539 23.9367 33.859 23.5832 33.6448C23.5153 33.6036 22.8368 33.2152 22.7892 33.2641C22.7233 33.3316 22.8706 33.4104 22.9026 33.4386C23.0788 33.5935 22.9558 34.3804 22.9439 34.5755C22.8986 35.3186 22.6101 36.002 22.3097 36.6696C21.9595 37.4479 22.5008 37.1528 22.8717 36.7807C23.0129 36.639 24.0625 35.0863 23.707 34.9404C23.1463 34.7104 22.6502 34.4163 22.0261 34.4803C21.8796 34.4954 21.8423 34.6979 21.8611 34.8188C21.9215 35.2056 22.3865 35.3521 22.7067 35.3899C23.3146 35.4617 23.9354 35.3328 24.4855 35.0673C24.8639 34.8847 23.9816 34.6856 23.8307 34.6231C23.0478 34.2991 22.1004 34.0017 21.4229 33.4703C21.3037 33.3768 20.7453 32.8622 21.098 32.8622" stroke="#F2F2F2" stroke-width="3" stroke-linecap="round"/>
</svg>
