<svg width="36" height="44" viewBox="0 0 36 44" fill="none" xmlns="http://www.w3.org/2000/svg">
<path d="M28.1067 2C27.82 2.0158 27.5424 2.09277 27.2521 2.09277C26.7278 2.09277 26.208 2.10032 25.6857 2.05669C25.0359 2.00241 24.3634 2.04638 23.7116 2.04638C23.1549 2.04638 22.1794 1.88309 21.8985 2.51022C21.7055 2.941 21.8413 3.66884 21.8413 4.13366C21.8413 5.12013 21.8881 6.10389 21.8881 7.09191C21.8881 9.82213 21.5306 12.5612 21.7244 15.2915C21.773 15.9764 21.7946 16.6665 21.7946 17.353C21.7946 17.9919 21.7206 18.6176 21.6984 19.2548C21.677 19.8728 21.7073 20.4813 21.701 21.0998C21.6946 21.7374 21.6075 22.3737 21.6075 23.0119C21.6075 23.5534 21.6995 24.0541 21.5712 24.5889C21.4598 25.0529 21.4205 25.4846 21.4205 25.9598C21.4205 26.9175 21.3886 27.8857 21.2906 28.8356C21.2496 29.2336 21.2738 29.5798 21.1633 29.9695C21.0664 30.3115 20.8998 30.6296 20.8231 30.9796C20.7187 31.4559 20.4862 32.2951 20.0646 32.5927C19.3706 33.0825 18.8261 33.7664 18.0541 34.144C17.3355 34.4954 16.479 34.8398 15.6695 34.8398C15.0846 34.8398 14.5886 34.6796 14.0226 34.5511C13.3832 34.406 12.8233 34.2406 12.2121 34.0074C11.7099 33.8158 11.1944 33.6437 10.7133 33.4019C10.1319 33.1095 9.7321 32.5323 9.40933 31.9897C8.92159 31.1699 8.28403 30.2385 8.23783 29.2531C8.18298 28.0833 8.58172 27.0359 9.05346 25.9779C9.3603 25.2897 9.69761 24.7086 10.1315 24.089C10.4286 23.6647 11.002 23.115 11.5108 22.9423C12.7625 22.5175 14.1096 22.5082 15.4097 22.6666C16.3003 22.7751 17.1936 22.9343 18.0774 23.084C18.1574 23.0976 18.4008 23.2059 18.4489 23.0969C18.5013 22.9782 18.4749 22.8136 18.4749 22.6872C18.4749 22.2527 18.4856 21.8205 18.4385 21.3884C18.3337 20.4268 18.4281 19.4076 18.4281 18.4405C18.4281 17.6382 18.5059 16.568 17.7735 16.0182C17.4239 15.7558 16.9225 15.8118 16.5111 15.825C15.8229 15.847 15.145 15.9151 14.4538 15.9151C13.1054 15.9151 11.718 15.9567 10.5263 16.6573C9.58711 17.2094 8.52898 17.5344 7.60662 18.121C6.79376 18.6379 6.13065 19.3069 5.49999 20.0253C5.16825 20.4031 4.89254 20.8757 4.63499 21.306C4.41826 21.6681 4.14169 22.0052 3.95703 22.3857C3.79593 22.7176 3.55061 23.0039 3.38297 23.3366C3.2119 23.676 3.06091 24.0175 2.9154 24.3673C2.62953 25.0545 2.4828 25.8977 2.3803 26.6298C2.24472 27.5983 1.90181 28.5582 2.02703 29.552C2.14088 30.4555 2.43769 31.3179 2.67123 32.1959C2.7758 32.589 3.0212 32.9454 3.15957 33.3323C3.29512 33.7112 3.35478 34.1183 3.46609 34.5048C3.71337 35.3634 4.39625 36.0541 4.92592 36.7518C5.28164 37.2204 5.58805 37.6758 5.99353 38.1098C6.41621 38.5622 6.9582 38.8973 7.40401 39.3287C7.84482 39.7552 8.38219 39.9628 8.93657 40.1971C9.59545 40.4755 10.2348 40.8017 10.8899 41.0913C11.428 41.3291 11.9795 41.59 12.5628 41.6814C13.2878 41.7949 14.0303 41.8791 14.7603 41.9571C15.4907 42.0351 16.2446 41.9829 16.9787 41.9829C17.5229 41.9829 18.035 41.7992 18.5632 41.6839C19.0292 41.5822 19.5034 41.4682 19.9607 41.3335C20.3381 41.2223 20.6322 40.9354 20.9971 40.8027C21.2808 40.6995 21.522 40.4843 21.7946 40.3491C22.2131 40.1415 22.6041 39.8875 22.9842 39.6147C23.5083 39.2386 24.0434 38.8766 24.5428 38.468C25.0821 38.0268 25.4507 37.4967 25.8987 36.9734C26.2662 36.5441 26.4246 36.0306 26.6832 35.5381C26.935 35.0584 27.1252 34.5965 27.3118 34.0873C27.7163 32.9837 27.9129 31.8353 28.2365 30.7116C28.3786 30.2183 28.431 29.7109 28.5067 29.2067C28.6032 28.5636 28.7597 27.9307 28.7976 27.2792C28.8728 25.9869 28.9518 24.6729 28.8314 23.3829C28.6147 21.0613 28.4382 18.7229 28.2963 16.3996C28.2542 15.7113 28.2469 15.0264 28.2469 14.3355C28.2469 14.1044 28.2002 13.8839 28.2002 13.6526C28.2002 13.504 28.4217 13.5032 28.5534 13.5032C28.8609 13.5032 29.1632 13.6648 29.4626 13.7351C29.9415 13.8476 30.4429 13.9206 30.9354 13.9206C31.8254 13.9206 32.5398 13.7547 33.3434 13.413C33.9499 13.1551 33.7174 11.866 33.7174 11.3695C33.7174 10.032 34.028 8.73334 33.998 7.39083C33.9916 7.10655 33.9044 6.82648 33.9044 6.54562C33.9044 6.33844 33.3003 6.49923 33.1745 6.49923C32.7824 6.49923 32.3898 6.50531 31.9978 6.49923C31.5287 6.49196 31.0004 6.48534 30.5432 6.38327C30.1801 6.30223 29.7823 6.15929 29.5093 5.89624C29.3482 5.74097 29.1317 5.62832 29.0444 5.41179C28.6665 4.47452 28.7023 3.44795 28.3872 2.51022" stroke="#F2F2F2" stroke-width="3" stroke-linecap="round"/>
</svg>
