<svg width="54" height="44" viewBox="0 0 54 44" fill="none" xmlns="http://www.w3.org/2000/svg">
<path d="M8.77554 2.4011C10.4275 2.4011 12.0674 2.2674 13.7222 2.2674C15.1056 2.2674 16.481 2 17.8575 2C19.0658 2 20.2741 2 21.4825 2C22.5474 2 23.6086 2.06685 24.6755 2.06685C25.9501 2.06685 27.2246 2 28.4968 2C30.5165 2 32.5361 2 34.5558 2C36.5109 2 38.4446 2.11165 40.3956 2.19684C42.0726 2.27006 43.7983 2.03938 45.4633 2.3194C45.9114 2.39474 46.3245 2.42919 46.7654 2.56823C47.2905 2.73379 47.7496 3.00126 48.2278 3.29987C49.0866 3.83606 49.652 4.67153 50.2039 5.57649C50.497 6.05713 50.7876 6.64405 50.94 7.19947C51.1657 8.02216 51.2414 8.84893 51.4111 9.68778C51.7775 11.4981 51.5782 13.3321 51.8528 15.1398C51.9736 15.9352 51.8822 16.8211 51.8822 17.6281C51.8822 18.451 51.9411 19.2734 51.9411 20.1016C51.9411 20.8842 51.8822 21.6688 51.8822 22.4562C51.8822 23.1797 52 23.8792 52 24.5991C52 26.3829 51.9411 28.1637 51.9411 29.9434C51.9411 30.8134 52.0006 31.6561 51.9444 32.5172C51.8973 33.2395 51.6942 33.9324 51.6434 34.6526C51.5676 35.7285 51.0011 37.1436 50.338 37.9135C49.9374 38.3786 49.4637 39.038 48.9639 39.3545C48.7481 39.4911 48.581 39.7426 48.3718 39.9078C48.0715 40.1449 47.7874 40.4192 47.4525 40.5875C46.0144 41.3101 44.4878 41.3342 42.954 41.6051C41.9797 41.7771 40.9014 41.6422 39.9147 41.6422C38.5789 41.6422 37.2522 41.7503 35.9233 41.9096C34.6603 42.061 33.3655 41.9765 32.0955 41.9765C30.8783 41.9765 29.6565 42.023 28.4444 41.8725C26.0761 41.5784 23.6964 41.7759 21.3189 41.7759C19.0334 41.7759 16.7608 41.6967 14.4812 41.5791C13.4022 41.5234 12.3282 41.5308 11.2489 41.5085C10.5087 41.4932 9.77885 41.1876 9.0569 41.0554C8.14312 40.8881 7.36552 40.5104 6.51159 40.1047C6.10403 39.911 5.61445 39.8415 5.24221 39.5699C4.85635 39.2883 4.45504 39.0295 4.09714 38.7045C2.90461 37.6215 2.68132 36.1027 2.38936 34.493C2.03032 32.5132 1.98537 30.542 2.00332 28.5247C2.00906 27.8793 2.12109 27.2478 2.12109 26.6009C2.12109 26.1317 2.12109 25.6625 2.12109 25.1933C2.12109 24.322 2.0622 23.4575 2.0622 22.5899C2.0622 20.8917 2.00332 19.1778 2.00332 17.4721C2.00332 16.1999 2.0622 14.9305 2.0622 13.6654C2.0622 12.972 2.21638 12.2495 2.28467 11.5596C2.35851 10.8136 2.43934 10.0687 2.52023 9.32382C2.6032 8.55983 2.62531 7.78216 2.8572 7.05091C3.02606 6.51844 3.22184 6.05222 3.44609 5.54306C3.65792 5.06213 3.9786 4.60805 4.23455 4.15406C4.37564 3.90381 4.46426 3.74143 4.67949 3.61926C4.95838 3.46096 5.23275 3.28702 5.53665 3.18845C6.1178 2.99996 6.70102 2.78103 7.30332 2.68336C8.02472 2.56637 8.70273 2.6685 9.42332 2.6685" stroke="#F2F2F2" stroke-width="3" stroke-linecap="round"/>
<path d="M23.5195 12.7018C23.5195 12.4656 23.1481 12.502 22.9837 12.502C22.6976 12.502 22.5154 12.506 22.4016 12.8498C22.2954 13.1706 22.3465 13.5033 22.2825 13.8341C22.1768 14.3813 22.2409 15.0717 22.2131 15.6324C22.1328 17.248 22.2334 18.8828 22.1039 20.4944C22.0452 21.2258 22.0312 21.9722 22.0312 22.7071C22.0312 23.5243 21.9121 24.3322 21.9121 25.1529C21.9121 26.2791 21.9504 27.4878 22.1635 28.5903C22.273 29.1572 22.3359 29.631 22.5703 30.1555C22.886 30.8619 24.0444 30.3126 24.4124 30.0038C24.8237 29.6587 25.3445 29.4776 25.7817 29.1675C26.4706 28.6791 27.1928 28.2482 27.9281 27.854C30.6072 26.4178 33.0811 24.5831 35.4854 22.6405C35.8531 22.3433 36.2572 22.0481 36.4379 21.5933C36.7281 20.8629 36.1348 20.3913 35.5449 20.2798C35.0814 20.1921 34.5895 19.816 34.1889 19.5471C33.6825 19.2072 33.1687 18.85 32.6874 18.463C31.4942 17.5035 30.2683 16.6059 29.0096 15.7656C28.5204 15.4389 28.0421 15.0209 27.6007 14.6185C27.1121 14.1731 26.488 13.8911 25.9305 13.5677C25.0778 13.073 24.1723 12.8343 23.2813 12.502" stroke="#F2F2F2" stroke-width="3" stroke-linecap="round"/>
</svg>
