<svg width="54" height="79" viewBox="0 0 54 79" fill="none" xmlns="http://www.w3.org/2000/svg">
<path d="M35.3506 1C34.0482 1.39641 33.3677 3.45813 32.7553 4.50044C30.247 8.76914 27.4184 12.9109 24.5724 16.9534C21.404 21.4535 18.0188 25.8756 15.1987 30.6144C13.0252 34.2665 15.3342 32.7142 17.0917 30.8932C26.0703 21.5902 35.4583 11.0983 47.5944 6.17322C49.7516 5.2978 46.5549 7.65264 46.3426 7.87698C42.8114 11.6078 39.5844 15.633 36.2666 19.5555C32.6355 23.8482 22.8656 37.309 24.9693 32.0703C27.0687 26.8422 31.3048 21.7778 34.2514 16.9843C36.156 13.886 42.9452 5.47816 40.2054 7.846C28.5069 17.9563 18.0908 29.639 6.95468 40.3723C3.05413 44.1317 8.52365 38.2417 9.15307 37.5843C13.9581 32.566 18.5743 27.3605 23.4121 22.3744C26.1543 19.5482 28.9531 17.3531 26.1296 22.7151C22.8909 28.8654 19.6174 35.2263 14.9849 40.4342C13.0286 42.6335 7.24042 46.2886 9.4584 49.8823C13.4569 56.3609 21.4338 61.9488 27.4119 66.3003C34.2512 71.2787 42.2525 74.8346 50.2508 77.4522C50.871 77.6552 51.4999 77.8462 52.1439 77.9478C53.4889 78.1601 53.0536 77.6914 52.1744 77.1424C48.6806 74.9611 44.4593 73.5947 40.6634 72.1241C29.9054 67.9562 18.5665 64.8777 8.17601 59.7951C7.72873 59.5763 -1.69234 54.2093 2.68003 52.9801C8.52239 51.3375 17.22 57.3157 22.1602 59.6712C28.3393 62.6174 34.6601 65.5525 40.5412 69.0883C46.7169 72.8012 28.3191 61.4439 22.2824 57.5028C15.9273 53.3538 9.61796 49.1336 3.38229 44.802C2.67642 44.3117 1.97042 43.8213 1.2755 43.3151C-0.104974 42.3096 4.07953 45.2639 5.48908 46.227C15.9426 53.3695 27.6584 59.2161 37.4879 67.2297C37.7741 67.463 38.1622 67.6737 38.2512 68.0351C38.4676 68.9132 36.5476 67.4754 35.7475 67.0748C32.1801 65.2886 28.7722 63.2011 25.4578 60.9722C18.9997 56.6293 12.3095 51.9615 6.95468 46.227C2.8078 41.7861 12.1667 50.4665 12.6339 50.8736C20.3651 57.6121 28.9622 62.8189 37.61 68.2209C39.4926 69.3969 44.3434 71.661 45.2434 73.4871" stroke="#F2F2F2" stroke-width="2" stroke-linecap="round"/>
</svg>
