<svg width="54" height="79" viewBox="0 0 54 79" fill="none" xmlns="http://www.w3.org/2000/svg">
<path d="M18.6494 78C19.9518 77.6036 20.6323 75.5419 21.2447 74.4996C23.753 70.2309 26.5816 66.0891 29.4276 62.0466C32.596 57.5465 35.9812 53.1244 38.8013 48.3856C40.9748 44.7335 38.6658 46.2858 36.9083 48.1068C27.9297 57.4098 18.5417 67.9017 6.40558 72.8268C4.24841 73.7022 7.4451 71.3474 7.65744 71.123C11.1886 67.3922 14.4156 63.367 17.7334 59.4445C21.3645 55.1518 31.1344 41.691 29.0307 46.9297C26.9313 52.1578 22.6952 57.2222 19.7486 62.0157C17.844 65.114 11.0548 73.5218 13.7946 71.154C25.4931 61.0437 35.9092 49.361 47.0453 38.6277C50.9459 34.8683 45.4763 40.7583 44.8469 41.4157C40.0419 46.434 35.4257 51.6395 30.5879 56.6256C27.8457 59.4518 25.0469 61.6469 27.8704 56.2849C31.1091 50.1346 34.3826 43.7737 39.0151 38.5658C40.9714 36.3665 46.7596 32.7114 44.5416 29.1177C40.5431 22.6391 32.5662 17.0512 26.5881 12.6997C19.7488 7.72132 11.7475 4.16544 3.74919 1.54781C3.12897 1.34482 2.50008 1.1538 1.85613 1.05217C0.511149 0.839907 0.946362 1.30864 1.8256 1.85758C5.31936 4.03886 9.54072 5.4053 13.3366 6.87592C24.0946 11.0438 35.4335 14.1223 45.824 19.2049C46.2713 19.4237 55.6923 24.7907 51.32 26.0199C45.4776 27.6625 36.78 21.6843 31.8398 19.3288C25.6607 16.3826 19.3399 13.4475 13.4588 9.9117C7.28308 6.1988 25.6809 17.5561 31.7176 21.4972C38.0727 25.6462 44.382 29.8664 50.6177 34.198C51.3236 34.6883 52.0296 35.1787 52.7245 35.6849C54.105 36.6904 49.9205 33.7361 48.5109 32.773C38.0574 25.6305 26.3416 19.7839 16.5121 11.7703C16.2259 11.537 15.8378 11.3263 15.7488 10.9649C15.5324 10.0868 17.4524 11.5246 18.2525 11.9252C21.8199 13.7114 25.2278 15.7989 28.5422 18.0278C35.0003 22.3707 41.6905 27.0385 47.0453 32.773C51.1922 37.2139 41.8333 28.5335 41.3661 28.1264C33.6349 21.3879 25.0378 16.1811 16.39 10.7791C14.5074 9.60305 9.6566 7.33901 8.75664 5.51292" stroke="#F2F2F2" stroke-width="2" stroke-linecap="round"/>
</svg>
