<svg width="365" height="22" viewBox="0 0 365 22" fill="none" xmlns="http://www.w3.org/2000/svg">
<path d="M1.99103 11.3923C11.7 11.3923 21.3998 11.8061 31.2526 11.239C45.6132 10.4125 60.1795 10.2577 74.5322 11.239C91.5904 12.4054 109.488 11.5756 126.544 10.5496C145.167 9.42946 163.8 7.94521 182.463 7.94521C200.025 7.94521 218.067 9.11443 235.547 7.409C246.886 6.30283 258.296 6.96625 269.635 5.18757C277.791 3.9082 286.085 4.76414 294.3 4.45986C301.539 4.19176 308.643 3.2361 315.825 2.58314C331.935 1.11859 347.198 2.57464 363.241 3.80876M1.99103 19.6652C27.8506 19.6652 53.6595 20.3546 79.5112 20.3546C90.1335 20.3546 100.629 20.2748 111.224 19.512C123.19 18.6504 135.198 19.5504 147.15 18.6311C160.546 17.6006 173.971 16.9075 187.404 16.9075C201.484 16.9075 215.459 15.608 229.496 15.5287C245.13 15.4404 260.791 14.6859 276.414 14.0733C286.367 13.683 296.193 11.8502 306.173 11.5455C320.272 11.115 334.14 12.9562 348.074 14.8393" stroke="white" stroke-width="3" stroke-linecap="round"/>
</svg>
