<svg width="1778" height="72" viewBox="0 0 1778 72" fill="none" xmlns="http://www.w3.org/2000/svg">
<path d="M2.03772 2.44995C87.1546 6.56851 172.003 12.4154 257.244 14.8336C484.575 21.2827 712.073 23.1825 939.468 26.3512C1144.1 29.2026 1349.25 30.5498 1553.89 26.3512C1596.37 25.4795 1641.18 19.9919 1683.61 24.9656C1686.42 25.2945 1694.1 27.0314 1685.86 28.9491C1676.46 31.1375 1652.19 32.8692 1645.16 33.2791C1586 36.7274 1526.6 37.1243 1467.37 38.3884C1353.27 40.824 1239.2 43.9056 1125.14 47.8276C893.236 55.8012 661.288 67.437 429.229 69.2175C373.856 69.6423 318.414 69.9025 263.046 68.7845C247.606 68.4728 219.082 67.6067 202.427 66.0133C198.247 65.6134 186.382 62.9621 190.476 62.0298C197.788 60.3648 234.652 58.006 236.547 57.8731C268.872 55.606 301.209 53.5148 333.537 51.2916C440.751 43.9183 547.938 36.1284 655.165 28.9491C843.136 16.3637 1031.8 3.59168 1220.31 5.3943C1261.34 5.78673 1294.25 6.77467 1334.88 8.85825C1339.7 9.1056 1382.42 10.8998 1395.15 14.0542C1421.02 20.4668 1342.13 20.5788 1315.48 20.8955C1149.61 22.8662 983.678 20.6541 817.797 21.848C683.261 22.8164 548.789 24.4602 414.247 22.8872C303.283 21.5899 192.335 18.5982 81.3621 18.0377C73.4528 17.9978 65.5434 18.0377 57.634 18.0377C50.8012 18.0377 38.6302 17.7292 49.9268 18.3841C110.207 21.8786 170.544 23.8328 230.918 24.7058C550.752 29.3308 870.658 22.3544 1190.52 26.6976C1345.53 28.8023 1501.48 27 1656.24 37.0894C1690.08 39.2955 1725.56 40.1814 1758.95 46.7884C1768.59 48.6949 1770.82 50.6235 1775.92 57.0071" stroke="#F2F2F2" stroke-width="3" stroke-linecap="round"/>
</svg>
