<svg width="1835" height="62" viewBox="0 0 1835 62" fill="none" xmlns="http://www.w3.org/2000/svg">
<path d="M2.15442 1.55469C70.9033 3.1535 139.544 8.2646 208.274 10.598C390.154 16.7729 572.162 15.3756 754.115 15.3756C878.099 15.3756 1002.12 14.5374 1126.09 16.9113C1240.61 19.1043 1354.98 23.6335 1469.56 22.7127C1571.24 21.8955 1673.09 24.6516 1774.65 19.9826C1787.67 19.3838 1800.99 18.9128 1813.89 16.9113C1818.5 16.1953 1841.63 10.7686 1824.81 10.7686C1800.15 10.7686 1775.38 13.2303 1750.84 15.4609C1704.67 19.6582 1658.59 22.5205 1612.21 22.9686C1494.64 24.1045 1377.32 17.8311 1259.69 21.8595C1053.54 28.9193 847.275 35.8582 640.988 36.7895C543.537 37.2295 445.687 37.7441 348.36 32.1825C298.603 29.3393 248.859 26.6538 199.06 24.5896C170.756 23.4164 142.628 21.3518 114.428 18.7882C72.1868 14.9481 198.887 26.8445 241.205 29.7084C483.757 46.1233 726.967 43.8814 969.79 52.9993C1059.87 56.3815 1149.91 59.9097 1240.07 59.9097C1345.51 59.9097 1450.71 53.9352 1556.07 50.6958C1642.84 48.0277 1902.33 27.8315 1815.51 27.8315C1752.85 27.8315 1690.25 28.5141 1627.56 28.0021C1516.87 27.0981 1406.16 24.7077 1295.52 29.1965C1060.73 38.7226 826.166 43.3784 591.165 40.714C454.608 39.1657 316.682 36.1408 180.803 52.5727C158.998 55.2095 137.79 56.8384 115.793 56.8384" stroke="#F2F2F2" stroke-width="3" stroke-linecap="round"/>
</svg>
