<svg width="92" height="42" viewBox="0 0 92 42" fill="none" xmlns="http://www.w3.org/2000/svg">
<path d="M13.2468 8.48964C13.6284 8.48964 14.0925 7.78969 14.3822 7.54398C14.8487 7.14836 15.3973 6.73161 15.9637 6.50585C16.8615 6.14795 17.6367 5.50944 18.498 5.11888C18.8219 4.97204 19.2752 4.72254 19.5604 4.51786C19.9685 4.22503 20.4651 4.04672 20.9148 3.83698C21.6951 3.47305 22.4971 3.06923 23.3194 2.83248C24.0534 2.62117 24.8948 2.32289 25.5821 1.96668C26.1482 1.67332 26.8686 1.59207 27.4798 1.41609C28.2995 1.18011 29.3301 1 30.1805 1C31.6709 1 33.1347 1.08291 34.5436 1.58841C35.1051 1.78986 35.7104 2.07678 36.2062 2.40378C36.7202 2.74279 37.2732 2.95885 37.5524 3.61003C37.806 4.20137 38.269 4.73897 38.4121 5.38787C38.627 6.36252 38.5013 7.49072 38.5013 8.48964C38.5013 9.15931 38.5013 9.82898 38.5013 10.4986C38.5013 11.2025 38.3519 11.8313 38.1729 12.4992C37.804 13.8756 37.2224 14.9571 36.6198 16.2062C36.2886 16.8928 35.9654 17.6105 35.6142 18.2867C35.4404 18.6211 35.2754 18.968 35.1113 19.308C34.9772 19.586 34.7527 19.8229 34.6328 20.1024C34.3717 20.7114 34.1047 21.4215 33.757 21.9727C33.2429 22.7875 32.4727 23.4593 32.0214 24.3011C31.487 25.2982 30.5221 26.0619 29.925 27.0246C29.6359 27.4908 29.2709 27.9183 28.9356 28.3527C28.4453 28.988 27.9775 29.6473 27.4798 30.2777C25.8922 32.289 23.7209 33.7479 21.7704 35.3464C20.7369 36.1934 19.5539 37.1689 18.3521 37.7295C17.4489 38.1507 16.6743 38.8592 15.7244 39.1669C14.797 39.4673 13.8022 39.7289 12.9386 40.205C12.0843 40.676 11.0998 40.657 10.1812 40.8523C8.8046 41.145 7.38345 41.0233 6.1303 40.3017C5.50429 39.9412 4.80878 39.6936 4.12308 39.4905C3.44058 39.2884 2.67695 38.538 2.18885 38.0321C1.52082 37.3397 1.3059 36.492 1.11427 35.5734C0.971104 34.8871 0.952982 33.8398 1.11427 33.1525C1.31918 32.2794 1.46416 31.4803 1.8239 30.6517C2.18558 29.8187 2.55044 28.9408 2.84576 28.0837C3.10889 27.3201 3.74905 26.694 4.05009 25.9487C4.43493 24.9958 5.26498 23.989 5.94783 23.242C7.84779 21.1633 9.48447 18.8816 11.8235 17.2654C13.075 16.4006 14.501 15.7076 15.842 15.0126C16.8105 14.5107 17.855 14.0899 18.8508 13.6677C20.1416 13.1203 21.5962 12.3479 23.0275 12.3479C23.8393 12.3479 24.6921 12.1376 25.5091 12.3311C26.1541 12.4839 26.7994 12.6565 27.4068 12.9364C28.4087 13.3978 28.7207 14.934 28.7207 15.9793C28.7207 16.2062 28.7207 16.4332 28.7207 16.6602C28.7207 17.0274 29.1715 16.461 29.2478 16.3575C29.3854 16.1711 29.5763 16.06 29.706 15.8658C29.8226 15.6914 29.9268 15.5019 30.0913 15.3741C30.3623 15.1634 30.4401 14.6705 30.6752 14.4074C31.1645 13.8596 31.2977 12.9509 31.7133 12.3479C32.0582 11.8474 32.1944 11.0296 32.3337 10.4524C32.4194 10.0969 32.5891 9.68725 32.5891 9.32182C32.5891 9.10667 32.6193 8.75493 32.6783 8.54848C32.8402 7.98227 32.9276 7.14402 32.7189 6.5815C32.6249 6.32822 32.3624 6.18312 32.2607 5.95106C32.1356 5.66576 31.992 5.39629 31.8268 5.12729C31.5484 4.67386 31.2159 4.40274 30.8009 4.06815C29.3131 2.86876 27.39 3.45571 25.7443 3.78235C24.5854 4.01236 23.3858 4.08716 22.2205 4.32873C20.8886 4.60484 19.5244 5.15124 18.2872 5.72831C16.5189 6.55307 14.6235 7.5166 13.2468 8.94356" stroke="#F2F2F2" stroke-width="2" stroke-linecap="round"/>
<path d="M23.2465 15.147C22.9468 15.147 22.7531 15.391 22.4801 15.4538C22.0328 15.5569 21.5722 15.7173 21.1298 15.8447C20.7778 15.9461 20.2842 16.0055 19.962 16.1725C19.6264 16.3465 19.2301 16.5526 18.8671 16.6601C18.3774 16.8051 17.9288 17.3264 17.4803 17.5847C17.144 17.7784 16.6727 18.136 16.4017 18.4169C15.7007 19.1435 14.913 19.7397 14.1593 20.4007C13.4357 21.0353 12.2489 21.6545 11.8763 22.6198C11.5887 23.3651 10.9578 24.0366 10.7652 24.8348C10.6082 25.4859 10.2177 26.3122 10.4165 27.0077C10.5211 27.3734 10.6047 27.766 10.8747 28.0458C11.1796 28.3618 11.583 28.4781 11.8966 28.7309C12.238 29.0061 12.5953 29.0672 13.0279 29.0672C13.6579 29.0672 14.3357 29.0444 14.9257 28.8066C15.1847 28.7022 15.5241 28.7019 15.8015 28.63C16.1358 28.5434 16.446 28.3679 16.7666 28.235C17.6577 27.8655 18.4323 27.2497 19.2483 26.7387C20.5573 25.919 21.7947 25.0492 22.8816 23.9228C23.3397 23.4479 23.805 22.9227 24.1224 22.334C24.4224 21.7775 24.9186 21.3155 25.2172 20.7453C25.6784 19.8649 26.2398 19.0588 26.454 18.0597C26.5938 17.4076 26.8566 16.6924 26.5148 16.0549C26.3719 15.7881 25.9536 15.2997 25.6957 15.147C25.3353 14.9335 25.0953 14.7688 24.6333 14.7688C24.3055 14.7688 23.9404 14.7195 23.6277 14.8276C23.394 14.9083 22.8485 15.0644 22.7356 15.2983" stroke="#F2F2F2" stroke-width="2" stroke-linecap="round"/>
<path d="M50.3842 12.7556C48.9695 12.7556 47.5548 12.7556 46.1401 12.7556C45.1087 12.7556 44.084 12.8794 43.0508 12.8794C42.7524 12.8794 42.4532 12.8727 42.1549 12.8794C41.8924 12.8853 41.6403 12.9972 41.3784 13.0032C40.8435 13.0156 40.2486 13.2127 39.7889 13.4951C39.3692 13.7529 39.058 14.0896 38.6773 14.3996C38.3128 14.6965 38.0444 15.1382 37.7183 15.4761C37.4143 15.7912 37.0702 16.14 36.8556 16.5355C36.4535 17.2763 36.0172 18.1213 35.8236 18.9464C35.7175 19.3984 35.6909 19.9035 35.6909 20.3669C35.6909 20.7969 35.5714 21.2355 35.5714 21.667C35.5714 22.7433 36.2285 23.503 36.7063 24.3944C36.8297 24.6246 37.1213 24.859 37.3035 25.0479C37.5356 25.2883 37.8077 25.5062 38.08 25.6945C38.5831 26.0421 39.0333 26.4459 39.5135 26.8226C39.8828 27.1122 40.3312 27.527 40.7678 27.703C41.1469 27.8558 41.4083 28.0035 41.7235 28.2602C42.2254 28.669 42.8583 29.0071 42.8583 29.7322C42.8583 30.369 42.5189 31.0681 42.0188 31.4244C41.4211 31.8503 40.6459 32.3186 39.9018 32.3186C38.9317 32.3186 37.9617 32.3186 36.9916 32.3186C36.087 32.3186 35.1156 32.1107 34.2275 32.3152C33.8063 32.4122 33.0628 33.2091 33.0628 33.6325C33.0628 33.8886 32.933 34.2328 32.8703 34.4854C32.7787 34.8548 32.6217 35.2479 32.4788 35.5998C32.41 35.769 32.3887 36.0662 32.3493 36.2498C32.2708 36.6161 32.6967 36.6122 32.9765 36.6522C33.9261 36.788 34.9099 36.8379 35.87 36.8379C36.392 36.8379 36.9143 36.8434 37.4363 36.8379C37.9816 36.8322 38.5042 36.658 39.049 36.6522C41.3854 36.6275 43.8351 36.2589 45.5495 34.482C45.8659 34.154 46.2125 33.9276 46.4885 33.5568C46.8284 33.1002 47.1211 32.7248 47.3978 32.2086C47.9102 31.2526 48.0149 30.0387 48.1178 28.9722C48.2119 27.9968 48.2886 26.9723 47.8756 26.0659C47.3882 24.9961 46.7258 23.7298 45.6656 23.17C44.6138 22.6146 43.6658 21.935 42.6758 21.268C42.1996 20.9472 41.733 20.6052 41.2722 20.2603C41.0014 20.0575 40.7716 19.9192 40.5886 19.6137C40.195 18.9563 40.6981 18.3161 41.1594 17.925C41.8944 17.3016 43.1293 17.5171 43.9965 17.4572C45.5479 17.35 47.092 17.3368 48.6521 17.3368C48.882 17.3368 49.1195 17.3905 49.2759 17.1821C49.3334 17.1054 49.39 16.8936 49.4285 16.8037C49.5176 16.5961 49.6667 16.4321 49.7537 16.2259C49.9823 15.6845 50.2648 15.0848 50.2648 14.489C50.2648 14.2121 50.4439 13.9742 50.4439 13.6842C50.4439 13.4699 50.5037 13.2654 50.5037 13.0652" stroke="#F2F2F2" stroke-width="2" stroke-linecap="round"/>
<path d="M54.2066 12.9412C54.2066 13.7931 53.9928 14.6797 53.7885 15.5001C53.6568 16.029 53.6135 16.564 53.4766 17.0891C53.2983 17.7727 53.0718 18.4448 52.8926 19.1321C52.6195 20.1792 52.1719 21.1527 51.9834 22.2275C51.8702 22.8724 51.8295 23.579 51.6383 24.2085C51.3862 25.0383 51.192 25.8816 51.0277 26.733C50.9416 27.1792 50.8189 27.7201 50.5897 28.1088C50.188 28.79 49.9538 29.5627 49.7568 30.334C49.6083 30.9154 49.545 31.5742 49.3354 32.1328C48.9138 33.2564 48.9027 34.4671 48.5622 35.5962C48.5181 35.7425 48.2839 36.2475 48.4428 36.2841C49.364 36.4963 50.2521 36.4864 51.1936 36.5317C51.7744 36.5597 52.3385 36.6521 52.9191 36.6521C53.2613 36.6521 53.3733 35.9566 53.4899 35.6478C54.1111 34.0023 54.6643 32.3711 55.1026 30.6608C55.5386 28.9593 55.8674 27.2436 56.1047 25.4949C56.4573 22.896 56.9447 20.3217 57.4917 17.7701C57.5935 17.2953 57.7113 16.7828 57.8501 16.3152C57.9693 15.9136 58.2593 15.5456 58.3312 15.1355C58.3779 14.8696 58.6075 14.5493 58.7128 14.2998C58.8319 14.0178 58.9833 13.7074 59.048 13.4055C59.1158 13.0891 58.966 13.0031 58.6233 13.0031C58.4437 13.0031 58.1344 12.9926 57.9696 12.9275C57.7269 12.8317 57.454 12.8998 57.1997 12.8759C56.3328 12.7942 55.4388 12.6936 54.565 12.6936" stroke="#F2F2F2" stroke-width="2" stroke-linecap="round"/>
<path d="M75.8286 12.9413C75.1176 12.9413 74.3839 12.7736 73.6784 12.9276C73.2954 13.0111 72.8181 13.0032 72.4241 13.0032C72.001 13.0032 71.5838 13.0652 71.1565 13.0652C69.1041 13.0652 67.0805 13.9495 65.3296 14.9981C64.7806 15.3268 64.1774 15.551 63.6439 15.9129C63.0966 16.2842 62.5456 16.6165 62.0312 17.041C61.2265 17.7052 60.3053 18.4094 59.8809 19.428C59.2278 20.9957 58.2841 22.4015 57.9232 24.0848C57.8453 24.4478 57.8502 24.814 57.8502 25.1854C57.8502 25.7032 57.7571 26.2488 57.6842 26.7606C57.5858 27.4522 57.5515 28.1535 57.5515 28.8518C57.5515 29.7837 57.525 30.687 58.0293 31.5001C58.2315 31.826 58.2595 32.0942 58.3413 32.4562C58.4497 32.9364 58.8461 33.4964 59.1775 33.8526C59.4523 34.148 59.6645 34.5008 59.9407 34.795C60.2703 35.1461 60.6079 35.2761 61.0291 35.4622C61.7449 35.7784 62.5555 35.8356 63.2855 36.1088C63.8129 36.3062 64.403 36.5191 64.9712 36.5284C66.0943 36.5469 67.22 36.6811 68.3359 36.7141C69.021 36.7344 69.6934 36.8999 70.38 36.8999C70.761 36.8999 70.8191 35.7798 70.9176 35.4622C71.0783 34.9437 71.3563 34.5066 71.5281 33.9902C71.6581 33.5994 71.7618 33.2174 71.8732 32.8277C72.0322 32.2715 71.7049 32.1329 71.2295 32.1329C70.5127 32.1329 69.796 32.1329 69.0792 32.1329C68.082 32.1329 67.0574 31.8799 66.0795 31.6858C65.2968 31.5304 64.4851 31.3329 63.9558 30.6471C63.4061 29.9349 62.9204 29.4554 62.7944 28.5147C62.716 27.9295 62.6882 27.386 62.6882 26.795C62.6882 26.2845 62.7965 25.784 62.8077 25.2748C62.8296 24.2767 63.1831 22.971 63.7501 22.1657C64.2958 21.3906 64.9622 20.7373 65.6149 20.0608C65.972 19.6907 66.3234 19.2914 66.7631 19.0221C67.2419 18.7289 67.8019 18.5725 68.3027 18.3274C69.2885 17.8449 70.2962 17.6298 71.3622 17.4744C72.1219 17.3637 72.9255 17.2749 73.6916 17.2749C74.0134 17.2749 74.5544 17.3121 74.7402 16.9654C75.01 16.462 75.1867 15.9373 75.3375 15.3902C75.4325 15.0457 75.5538 14.7491 75.7092 14.4271C75.7645 14.3123 75.8075 13.9119 75.8883 13.87" stroke="#F2F2F2" stroke-width="2" stroke-linecap="round"/>
<path d="M90.9999 12.9414C89.906 12.9414 88.7893 12.7403 87.685 12.8141C87.2102 12.8459 86.7243 12.8175 86.2482 12.8175C85.6952 12.8175 85.0268 12.9267 84.4861 12.7866C84.0551 12.6749 83.349 12.8068 82.9365 12.9414C82.2774 13.1564 81.5037 13.1886 80.8924 13.5467C80.4704 13.7939 80.0034 13.9508 79.605 14.2414C79.1091 14.6031 78.7523 15.1339 78.3374 15.5759C77.7143 16.2396 77.2915 16.7798 76.9039 17.612C76.6695 18.1151 76.4361 18.631 76.217 19.1356C76.0505 19.5191 75.8939 19.923 75.8321 20.3394C75.719 21.1009 75.6345 22.0976 76.0677 22.771C76.6917 23.7412 77.4672 24.7595 78.3506 25.5088C79.1953 26.225 80.268 26.6634 81.2077 27.2112C81.6532 27.471 82.0097 27.7772 82.4288 28.0779C82.7179 28.2854 83.0741 28.5365 83.2086 28.8552C83.3214 29.1225 83.499 29.2863 83.5803 29.5809C83.6534 29.8462 83.4737 30.2081 83.4143 30.4614C83.3718 30.643 83.4093 30.9133 83.3413 31.0805C83.2625 31.2746 83.1889 31.513 82.9962 31.6239C82.659 31.8181 82.2492 32.0906 81.8614 32.1329C81.6257 32.1587 81.3439 32.2923 81.0849 32.3221C80.6107 32.3767 80.127 32.4226 79.6481 32.3496C78.778 32.217 77.8981 32.2568 77.02 32.2568C76.256 32.2568 75.2914 32.1879 74.5744 32.5182C74.3861 32.6049 74.2422 32.6355 74.0833 32.8002C73.8998 32.9904 73.7822 33.1904 73.632 33.3849C73.5881 33.4418 73.6146 33.606 73.5889 33.6807C73.5182 33.886 73.4615 34.0934 73.3832 34.2963C73.2402 34.6667 73.2223 35.0419 73.1111 35.4106C73.0409 35.6433 72.9245 35.9234 72.8987 36.1639C72.8577 36.5462 72.6293 36.6993 73.0547 36.7795C73.8092 36.9217 74.6292 36.838 75.3974 36.838C76.6188 36.838 77.825 36.6834 79.0408 36.6522C79.8636 36.6312 80.6775 36.5284 81.503 36.5284C82.2867 36.5284 83.0589 36.4721 83.8324 36.3289C85.0035 36.1122 86.3552 35.4682 86.9649 34.3307C87.4954 33.3409 87.9561 32.3225 88.342 31.2559C88.5196 30.7651 88.8866 30.1752 88.9094 29.6429C88.9328 29.0969 89.0443 28.5215 88.9559 27.9713C88.8645 27.4029 88.7462 26.8063 88.5975 26.2517C88.5437 26.051 88.4485 25.8706 88.3719 25.6807C88.2581 25.3991 88.0529 25.3004 87.894 25.0616C87.5739 24.5805 87.0626 24.2856 86.6364 23.8991C86.2718 23.5684 85.9406 23.1971 85.5613 22.8777C84.6074 22.0743 83.6196 21.3439 82.608 20.6146C82.1364 20.2745 80.8526 19.3562 81.3238 18.6507C81.749 18.0142 82.7264 17.8263 83.3679 17.5845C83.7639 17.4352 84.2794 17.5226 84.6985 17.5226C85.2422 17.5226 85.7975 17.4899 86.3377 17.5535C87.273 17.6637 88.4013 17.7998 89.301 17.4607C90.0388 17.1826 90.3141 16.3802 90.5818 15.6791C90.8276 15.0355 90.8805 14.2963 90.8805 13.6224" stroke="#F2F2F2" stroke-width="2" stroke-linecap="round"/>
</svg>
