<svg width="92" height="42" viewBox="0 0 92 42" fill="none" xmlns="http://www.w3.org/2000/svg">
<path d="M41.8595 4.90401C41.8435 4.75876 41.2991 4.34116 41.1675 4.20903C41.0739 4.11503 40.9394 4.11665 40.8557 4.0074C40.7462 3.86447 40.6274 3.62989 40.4755 3.53121C39.8621 3.13258 39.3477 2.54519 38.7669 2.08119C38.2505 1.6687 37.6218 1.20501 36.9728 1.06017C36.1184 0.869493 35.5661 1.14184 34.9395 1.73799C34.4978 2.15825 34.0594 2.64106 33.7861 3.20517C33.6333 3.52065 33.5364 3.82746 33.4615 4.16613C33.4088 4.40419 33.3559 4.65296 33.3291 4.89543C33.3109 5.05964 33.2004 5.13309 33.1539 5.29011C32.9256 6.06152 32.6159 6.68844 32.1715 7.3579C32.0003 7.61579 31.9069 7.87417 31.6503 8.07004C31.496 8.18783 31.4587 8.46659 31.3257 8.53336" stroke="white" stroke-width="1.5" stroke-linecap="round"/>
<path d="M41.2442 5.4445C41.2018 5.10415 40.4882 4.90121 40.2532 4.78812C39.9654 4.64966 39.7532 4.40576 39.4587 4.28619C39.1921 4.17795 38.9014 4.09899 38.6257 4.01592C37.7287 3.74566 36.9029 3.94668 36.2122 4.54788C35.4368 5.22277 34.5667 6.05409 33.9568 6.89452C33.6619 7.30087 33.2513 7.59901 32.9572 7.99276C32.6421 8.4148 32.2182 8.57994 31.8466 8.93656C30.2924 10.4281 28.4876 11.3841 26.6309 12.4329C26.3167 12.6104 25.9474 12.6428 25.6015 12.7204C25.1076 12.831 24.6386 13.0338 24.1406 13.1236C23.4332 13.2511 22.7392 13.4239 22.0218 13.514C20.7978 13.6677 19.2294 13.6205 18.0962 13.085C17.2542 12.6871 16.4129 12.2545 15.7169 11.6221C15.066 11.0307 14.6741 10.1886 14.1279 9.50284C13.4018 8.59133 12.854 7.22056 11.535 7.22056C11.2409 7.22056 10.9121 7.17876 10.6251 7.23772C10.3438 7.29551 9.8855 7.3491 9.70245 7.57234C9.59024 7.70917 8.97331 7.84399 8.76269 7.89838C8.50726 7.96434 8.26575 8.05124 8.02796 8.16436C7.65191 8.34326 7.19545 8.66202 6.89171 8.93656C6.64696 9.15778 6.53837 9.52506 6.18262 9.61438" stroke="white" stroke-width="1.5" stroke-linecap="round"/>
<path d="M5.64453 9.6145C6.18764 9.63548 6.69428 9.92314 7.22077 10.0392C7.86444 10.1811 8.39232 10.4674 8.98495 10.7342C9.53434 10.9815 10.1245 11.1233 10.6423 11.4335C11.0885 11.7008 11.6248 11.7345 12.0605 12.0426C12.5741 12.4059 13.1818 12.5993 13.7179 12.9307C14.1899 13.2224 14.7961 13.2666 15.2557 13.5999C15.8646 14.0416 16.3772 14.7873 17.0754 15.0971C17.6234 15.3403 18.0657 15.7845 18.5321 16.0967C18.6406 16.1694 18.9183 16.3609 19.0404 16.3155C19.2651 16.2319 19.423 16.0118 19.6384 15.9037C19.9036 15.7705 20.2177 15.7209 20.5013 15.6377C21.1105 15.4588 21.6707 15.2107 22.2569 14.9899C22.7266 14.813 23.2683 14.9014 23.7477 14.6767C23.9619 14.5764 24.2247 14.6431 24.3458 14.4365C24.4048 14.3357 24.6186 14.2952 24.7131 14.2477" stroke="white" stroke-width="1.5" stroke-linecap="round"/>
<path d="M3.56836 17.7997C3.71657 17.1299 4.63624 16.814 5.0677 16.414C5.69572 15.8319 6.69514 16.2384 7.34021 16.6028C7.77303 16.8473 8.122 17.2136 8.58326 17.4136C9.09263 17.6345 9.60968 17.9238 10.104 18.1858C10.5404 18.4172 11.0316 18.7188 11.394 19.0524C11.6941 19.3287 12.0976 19.4276 12.4277 19.653C12.8472 19.9394 12.6808 20.8726 12.2142 21.043C11.7774 21.2025 11.4355 21.5978 10.9882 21.7808C10.6772 21.9081 10.4407 22.1434 10.1552 22.3128C9.68836 22.5899 9.16 22.7363 8.69432 23.0121C8.176 23.3191 7.85437 23.7309 7.41283 24.1146C7.19356 24.3052 6.89313 24.5299 6.72083 24.7667C6.33 25.3038 5.33682 25.9443 5.33682 26.68" stroke="white" stroke-width="1.5" stroke-linecap="round"/>
<path d="M5.49101 9.69165C5.11534 10.1109 5.23861 11.3133 4.56834 11.3133C4.42021 11.3133 3.81145 11.2322 3.73964 11.3476C3.55385 11.6461 3.29462 11.9456 3.14589 12.2742C3.01892 12.5548 3.03055 12.9026 3.03055 13.2095C3.03055 13.6812 3.07895 13.7735 3.415 14.0932C3.68034 14.3457 3.95323 14.2689 3.95323 14.6938C3.95323 15.0999 3.95323 15.506 3.95323 15.9122C3.95323 16.5712 3.72256 17.1288 3.72256 17.7955C3.72256 18.9809 3.72256 20.1664 3.72256 21.3519C3.72256 22.3157 3.72256 23.2795 3.72256 24.2434C3.72256 24.7577 3.96045 25.43 3.72256 25.9079" stroke="white" stroke-width="1.5" stroke-linecap="round"/>
<path d="M3.18408 25.8306C3.54891 26.197 3.78608 26.2873 4.27762 26.3883C4.96914 26.5303 5.649 26.8764 6.36218 26.9116C8.04717 26.9949 9.71418 27.5978 11.3942 27.7439C14.8968 28.0486 18.4812 27.872 21.9451 28.4518C23.5199 28.7154 25.1184 28.6306 26.708 28.692C27.4322 28.72 28.1609 28.7763 28.8822 28.8422C30.0365 28.9475 31.1683 29.2507 32.3252 29.3012C36.0914 29.4656 39.7572 30.1992 43.4314 30.9872C44.2484 31.1624 45.0743 31.4762 45.9004 31.5792C46.8856 31.702 47.8716 31.7622 48.8564 31.8709C49.454 31.9369 50.047 32.0294 50.6462 32.0854C51.0559 32.1237 51.4252 32.3017 51.838 32.3171C53.2879 32.371 54.7323 32.5776 56.178 32.686C57.7563 32.8043 59.3393 32.827 60.9195 32.9177C61.8258 32.9697 62.7189 33.1456 63.6277 33.0549C65.9302 32.8251 68.2414 32.6385 70.5392 32.36C73.2737 32.0285 76.0059 31.8146 78.7237 31.3947C80.5557 31.1116 82.3744 30.76 84.1786 30.3394C85.5063 30.0298 86.9029 29.7019 88.1896 29.2712C88.6449 29.1188 89.2009 28.6877 89.6847 28.6877" stroke="white" stroke-width="1.5" stroke-linecap="round"/>
<path d="M12.7915 27.4253C12.832 27.2899 13.0544 27.2391 13.1563 27.1613C13.4141 26.9644 13.6102 26.6828 13.8591 26.4717C14.1836 26.1964 14.5287 25.9619 14.8676 25.7066C15.2549 25.4149 15.6703 25.1091 16.1122 24.9039C16.4169 24.7623 16.7091 24.6045 17.0081 24.4513C17.2862 24.3088 17.5896 24.2451 17.861 24.0903C18.6068 23.6652 19.4836 23.684 20.2966 23.7778C21.1555 23.877 21.8569 24.2751 22.5953 24.683C23.1437 24.9859 23.692 25.3023 24.1859 25.6743C24.3318 25.7842 24.4839 25.8784 24.6231 25.9949C24.8352 26.1724 24.7204 26.1874 24.5024 26.3101C23.879 26.6607 23.267 27.0305 22.6516 27.3957C22.5023 27.4843 22.4158 27.6569 22.2547 27.7378C22.071 27.83 22.0237 28.0002 21.8684 28.1041" stroke="white" stroke-width="1.5" stroke-linecap="round"/>
<path d="M29.9312 17.4851C29.3177 17.4851 28.7217 17.8716 28.1931 18.137C27.6869 18.3912 27.1629 18.5848 26.6266 18.7674C26.1295 18.9366 25.6291 19.0159 25.1621 19.2765C24.935 19.4032 24.6376 19.5042 24.4539 19.6887C24.2739 19.8695 24.0568 20.0354 23.9202 20.249C23.7443 20.5237 23.8997 20.4798 24.1803 20.6207C24.5995 20.8312 24.985 21.0633 25.3766 21.3184C25.6413 21.4908 25.9263 21.6139 26.2028 21.7629C26.4969 21.9214 26.8393 21.987 27.1201 22.1616C27.5728 22.443 28.0546 22.7494 28.531 22.9886C28.7754 23.1113 28.9924 23.2068 29.266 23.2068C30.0773 23.2068 30.7829 22.5459 31.4413 22.1508C32.0754 21.7704 32.6553 21.3345 33.2894 20.9494C33.558 20.7863 33.8892 20.6726 33.5684 20.3891C33.065 19.9442 32.5938 19.3782 32.0073 19.0475C31.6096 18.8233 31.1819 18.4933 30.8566 18.1666C30.6549 17.9641 30.461 17.703 30.1726 17.6306" stroke="white" stroke-width="1.5" stroke-linecap="round"/>
<path d="M30.4141 10.6481C30.6389 10.7664 30.8703 10.8798 31.0873 11.0118C31.4518 11.2333 31.8665 11.3264 32.2595 11.4832C32.6473 11.6379 33.0675 11.7063 33.4612 11.8496C33.9195 12.0163 34.4968 11.8199 34.9632 11.7634C35.7773 11.6646 36.5718 11.4997 37.3827 11.3862C38.4734 11.2336 39.5687 11.1164 40.6497 10.9121C41.3724 10.7755 42.1079 10.5908 42.8331 10.4919C43.1384 10.4502 43.2587 10.4158 43.3427 10.1309C43.3905 9.96908 43.3658 9.76541 43.2301 9.66217C43.0193 9.5018 42.3858 9.62984 42.1464 9.62984C41.5639 9.62984 40.9845 9.67297 40.4029 9.67833C39.2603 9.68886 38.1226 9.84868 36.9857 9.93155C36.6288 9.95757 36.2698 9.99713 35.9128 10.0151C35.6296 10.0293 35.3577 10.1093 35.0759 10.1147C34.4993 10.1258 33.7284 10.2823 33.1876 10.0393C32.7285 9.83304 32.1849 9.76491 31.7659 9.48438" stroke="white" stroke-width="1.5" stroke-linecap="round"/>
<path d="M37.9943 23.1099C37.8725 23.2251 37.7245 23.2826 37.5893 23.3766C37.3611 23.5353 37.1758 23.7803 36.959 23.9585C36.6495 24.2127 36.5459 24.5905 36.5459 24.9768C36.5459 25.4195 37.2515 25.7761 37.592 25.8738C38.5616 26.152 39.5791 26.3601 40.5774 26.5068C40.6463 26.517 42.2914 26.9199 42.2914 26.7466C42.2914 26.5408 42.0546 26.3605 41.9427 26.2132C41.6747 25.8606 41.3919 25.5222 41.0307 25.265C40.615 24.969 40.2131 24.5831 39.8505 24.2252C39.6237 24.0013 39.3951 23.8827 39.137 23.7026C38.9348 23.5615 38.6848 23.2554 38.4289 23.2554" stroke="white" stroke-width="1.5" stroke-linecap="round"/>
<path d="M51.5027 24.7098C51.7436 24.4059 51.8244 23.9846 52.1411 23.74C52.251 23.8504 52.4154 23.8742 52.5649 23.9339C52.7471 24.0068 52.8181 24.1045 52.9404 24.2437C53.2216 24.5638 53.7394 24.7756 54.0831 25.0115C54.9016 25.5732 55.7281 26.1349 56.5079 26.7463C56.8987 27.0528 57.4882 27.3507 57.739 27.7915C57.8298 27.951 57.8318 28.1932 57.6076 28.201C57.367 28.2093 57.1537 28.1608 56.9156 28.1309C56.4725 28.0753 56.0282 28.0973 55.5878 28.007C54.3356 27.7504 52.9579 27.9491 51.6904 27.9074C51.1164 27.8885 50.5649 27.7646 49.9845 27.7646C49.6986 27.7646 49.5841 27.8023 49.6573 27.4979C49.7797 26.9886 50.2167 26.5963 50.5022 26.1806C50.8382 25.6912 51.1338 25.1751 51.5027 24.7098Z" fill="#040D08" stroke="white" stroke-width="1.5" stroke-linecap="round"/>
<path d="M58.0792 19.1822C57.405 19.1321 56.5033 18.691 55.8395 19.0367C55.4815 19.2231 55.3006 19.5079 55.1582 19.8799C55.1089 20.0085 55.0485 20.1388 55.0133 20.2732C54.949 20.5187 55.268 20.6624 55.4613 20.75C55.7422 20.8774 56.0256 20.9488 56.3035 21.0841C56.7269 21.29 57.1162 21.5518 57.4837 21.8383C57.7763 22.0665 58.1017 22.2568 58.4064 22.4687C58.5962 22.6006 58.6976 22.7974 58.8785 22.9186C58.9911 22.994 59.2862 23.4263 59.2862 23.1529C59.2862 22.6986 59.2652 22.2634 59.1655 21.8168C59.079 21.4291 58.8643 21.0913 58.7766 20.6988C58.6842 20.2856 58.6043 19.8976 58.4171 19.5216" stroke="white" stroke-width="1.5" stroke-linecap="round"/>
<path d="M61.2175 15.303C61.1449 15.777 61.0473 16.0443 61.1799 16.526C61.3291 17.0678 61.502 17.5489 61.5581 18.1127C61.6202 18.7366 61.6125 19.3928 61.7807 20.001C61.9592 20.6463 62.1013 21.3001 62.2072 21.9595C62.2715 22.3595 62.4254 22.6788 62.5452 23.0639C62.607 23.2624 62.7167 23.5233 62.9556 23.5461C63.1108 23.561 63.3839 23.7405 63.5242 23.67C63.6479 23.6079 63.6569 23.4228 63.712 23.3172C63.9348 22.8901 64.1823 22.5001 64.3343 22.0376C64.5508 21.379 64.4914 20.6717 64.5382 19.9903C64.5802 19.3783 64.6937 18.7615 64.6937 18.1477C64.6937 17.9867 64.7903 17.8849 64.7903 17.7221C64.7903 17.5012 64.7903 17.2803 64.7903 17.0594C64.7903 16.7704 64.6937 16.5286 64.6937 16.2485C64.6937 16.1339 64.7429 15.8304 64.6696 15.7421C64.6344 15.6997 64.6684 15.6141 64.6133 15.5939C64.5108 15.5565 64.3827 15.5273 64.2753 15.5077C63.2945 15.3286 62.3165 15.0605 61.314 15.0605" stroke="white" stroke-width="1.5" stroke-linecap="round"/>
<path d="M68.036 21.0412C68.3447 20.5199 68.7005 20.3887 69.188 20.3564C69.817 20.4773 70.4845 20.5109 71.0939 20.7072C71.9329 20.9774 72.8418 20.9558 73.6984 21.149C74.2984 21.2842 74.912 21.5125 75.4875 21.7308C75.8173 21.856 76.1867 21.8947 76.5121 22.0218C76.8606 22.1579 76.152 22.5821 76.099 22.6252C76.0104 22.6972 75.7703 22.8237 75.7289 22.9188C75.6791 23.0331 75.6948 23.3203 75.7825 23.4118C76.0341 23.6741 76.3525 23.8659 76.6033 24.131C76.8615 24.404 77.2569 24.6789 77.5743 24.8718C77.8928 25.0654 78.149 25.352 78.3951 25.6315C78.5537 25.8117 78.816 26.0697 78.9128 26.2834C79.0469 26.5797 78.7606 26.7995 78.5024 26.8814C78.2055 26.9756 77.9921 27.1093 77.6735 27.1589C77.1449 27.2413 76.6214 27.3671 76.0883 27.4148C75.4004 27.4763 74.7312 27.6193 74.039 27.668C73.3585 27.716 72.6791 27.8067 71.9978 27.8593C71.3524 27.9092 70.7121 27.9617 70.0692 28.0344C69.4547 28.1039 68.7971 28.1716 68.1943 28.0102C67.8058 27.9061 67.3054 27.8595 67.0007 27.5603C66.8149 27.3778 66.7522 27.1219 66.6466 26.8922C66.5434 26.6676 66.537 26.3512 66.5071 26.111C66.4594 25.7276 66.4866 25.3188 66.5393 24.9365C66.6294 24.283 66.9168 23.6739 67.0812 23.0373C67.2712 22.301 67.6576 21.6805 68.036 21.0412Z" fill="#040D08"/>
<path d="M69.6186 20.3462C68.8983 20.3462 68.429 20.3775 68.036 21.0412C67.6576 21.6805 67.2712 22.301 67.0812 23.0373C66.9168 23.6739 66.6294 24.283 66.5393 24.9365C66.4866 25.3188 66.4594 25.7276 66.5071 26.111C66.537 26.3512 66.5434 26.6676 66.6466 26.8922C66.7522 27.1219 66.8149 27.3778 67.0007 27.5603C67.3054 27.8595 67.8058 27.9061 68.1943 28.0102C68.7971 28.1716 69.4547 28.1039 70.0692 28.0344C70.7121 27.9617 71.3524 27.9092 71.9978 27.8593C72.6791 27.8067 73.3585 27.716 74.039 27.668C74.7312 27.6193 75.4004 27.4763 76.0883 27.4148C76.6214 27.3671 77.1449 27.2413 77.6735 27.1589C77.9921 27.1093 78.2055 26.9756 78.5024 26.8814C78.7606 26.7995 79.0469 26.5797 78.9128 26.2834C78.816 26.0697 78.5537 25.8117 78.3951 25.6315C78.149 25.352 77.8928 25.0654 77.5743 24.8718C77.2569 24.6789 76.8615 24.404 76.6033 24.131C76.3525 23.8659 76.0341 23.6741 75.7825 23.4118C75.6948 23.3203 75.6791 23.0331 75.7289 22.9188C75.7703 22.8237 76.0104 22.6972 76.099 22.6252C76.152 22.5821 76.8606 22.1579 76.5121 22.0218C76.1867 21.8947 75.8173 21.856 75.4875 21.7308C74.912 21.5125 74.2984 21.2842 73.6984 21.149C72.8418 20.9558 71.9329 20.9774 71.0939 20.7072C70.4676 20.5054 69.78 20.4756 69.1358 20.3462" stroke="white" stroke-width="1.5" stroke-linecap="round"/>
<path d="M71.3621 19.2414C70.7194 19.0435 69.7588 19.027 69.233 18.5523C69.5834 18.5602 69.9333 18.6487 70.2731 18.6487C70.7555 18.6487 71.207 18.8185 71.6759 18.8454C72.3389 18.8834 72.9911 18.9882 73.6608 18.9882C74.319 18.9882 75.0215 19.016 75.6726 19.1094C76.2158 19.1873 76.7857 19.1267 77.3168 19.2791C77.9486 19.4604 78.6561 19.468 79.3098 19.5215C79.9899 19.5773 80.7236 19.5755 81.3939 19.6966C81.6521 19.7433 81.8725 19.8566 82.1396 19.861C82.4192 19.8655 82.6903 19.8887 82.9684 19.9068C83.0613 19.9128 83.7918 19.9096 83.706 20.1034C83.5785 20.3916 83.3336 20.4512 83.0408 20.5021C82.5838 20.5815 82.1351 20.7561 81.6782 20.82C80.8342 20.938 79.9875 20.8272 79.1515 20.6961C78.2417 20.5533 77.3062 20.558 76.3887 20.4805C75.5152 20.4068 74.6809 20.1456 73.8298 19.9579C73.406 19.8645 73.0375 19.6602 72.6201 19.5512C72.1973 19.4408 71.7814 19.3705 71.3621 19.2414Z" fill="#040D08"/>
<path d="M69.2324 18.5518C69.7581 19.0269 70.7192 19.0434 71.3621 19.2414C71.7814 19.3705 72.1973 19.4408 72.6201 19.5512C73.0375 19.6602 73.406 19.8645 73.8298 19.9579C74.6809 20.1456 75.5152 20.4068 76.3887 20.4805C77.3062 20.558 78.2417 20.5533 79.1515 20.6961C79.9875 20.8272 80.8342 20.938 81.6782 20.82C82.1351 20.7561 82.5838 20.5815 83.0408 20.5021C83.3336 20.4512 83.5785 20.3916 83.706 20.1034C83.7918 19.9096 83.0613 19.9128 82.9684 19.9068C82.6903 19.8887 82.4192 19.8655 82.1396 19.861C81.8725 19.8566 81.6521 19.7433 81.3939 19.6966C80.7236 19.5755 79.9899 19.5773 79.3098 19.5215C78.6561 19.468 77.9486 19.4604 77.3168 19.2791C76.7857 19.1267 76.2158 19.1873 75.6726 19.1094C75.0215 19.016 74.319 18.9882 73.6608 18.9882C72.9911 18.9882 72.3389 18.8834 71.6759 18.8454C71.207 18.8185 70.7555 18.6487 70.2731 18.6487C69.9174 18.6487 69.5509 18.5518 69.1841 18.5518" stroke="white" stroke-width="1.5" stroke-linecap="round"/>
<path d="M54.6997 12.1997C54.5054 12.5088 54.1639 12.7784 53.8602 12.9701C53.5827 13.1453 53.3592 13.3802 53.0903 13.5655C52.7921 13.771 52.4335 13.9252 52.1086 14.0827C51.6126 14.3232 51.1233 14.6366 50.6494 14.9205C50.1876 15.1971 49.7212 15.4422 49.2976 15.7825C48.6929 16.2683 48.0362 16.7097 47.4334 17.1941C47.3639 17.2498 47.6759 17.5174 47.7284 17.5577C48.0638 17.8153 48.4553 17.9416 48.8577 18.0426C49.5911 18.2268 50.3159 18.5153 51.0786 18.5518C51.3372 18.5641 51.382 18.3295 51.5158 18.1369C51.8452 17.6628 52.1875 17.3169 52.5995 16.9193C53.3059 16.2377 53.9441 15.258 54.3725 14.3817C54.6714 13.7702 54.9059 13.2496 55.0377 12.5876" stroke="white" stroke-width="1.5" stroke-linecap="round"/>
<path d="M24.379 13.4121C24.6708 13.7953 25.0797 14.0387 25.3929 14.3927C25.808 14.8617 26.2403 15.1492 26.7824 15.4486C27.5109 15.8511 28.2302 16.2447 28.9202 16.7067C29.1504 16.8609 29.4552 16.9452 29.6658 17.1242C29.8179 17.2534 30.0292 17.2901 30.1433 17.4556C30.1985 17.5356 30.3125 17.5973 30.3954 17.6549C30.5771 17.7812 30.732 17.9298 30.9077 18.0671C31.5854 18.5964 32.2712 19.1563 32.8765 19.7642C32.9926 19.8808 33.14 19.9409 33.2521 20.0659C33.3293 20.1521 33.4507 20.1932 33.5042 20.2976C33.5624 20.4109 33.54 20.5221 33.5766 20.6397C33.6807 20.974 33.0581 21.3244 32.8309 21.4586C32.1763 21.8453 31.4749 22.1457 30.8112 22.528C29.5266 23.2679 28.3778 24.2141 27.0801 24.9309C26.6037 25.1941 26.1858 25.6079 25.6665 25.7957C25.1599 25.9788 24.7121 26.3902 24.2342 26.6496C23.4706 27.0641 22.6548 27.46 22.0615 28.0558" stroke="white" stroke-width="1.5" stroke-linecap="round"/>
<path d="M33.8906 12.1513C33.9 12.3113 34.0109 12.37 34.1589 12.3938C34.4989 12.4484 34.8309 12.5611 35.1674 12.6362C35.7122 12.7578 36.1763 13.0108 36.7017 13.1804C37.0865 13.3046 37.4881 13.4651 37.8792 13.5575C38.2012 13.6336 38.5532 13.8 38.8877 13.8C39.1826 13.8 39.4886 14.1002 39.781 14.1771C40.0875 14.2577 40.3482 14.398 40.6447 14.5003C40.886 14.5837 41.173 14.6518 41.3876 14.7913C41.7125 15.0024 41.9678 15.0204 42.3613 14.8667C42.7502 14.7148 43.0725 14.4925 43.4235 14.2741C43.8151 14.0303 44.2466 13.8561 44.6359 13.606C45.0132 13.3636 45.4005 13.1578 45.7705 12.9056C46.0254 12.7319 46.3345 12.5489 46.6154 12.4207C46.9299 12.2771 47.2614 12.164 47.5435 11.9574C47.7759 11.7872 48.094 11.7247 48.3482 11.5802C48.6504 11.4085 48.8784 11.0582 49.1985 10.9175C49.4118 10.8238 49.6174 10.9671 49.802 11.0576C50.2315 11.2683 50.6225 11.3721 51.0037 11.6853C51.1678 11.8202 51.3841 12.026 51.5831 12.1028C51.7566 12.1699 51.9183 12.2531 52.0444 12.3938C52.2176 12.587 52.1566 12.9473 51.9747 13.0969C51.6368 13.3745 51.4755 13.78 51.1271 14.0424" stroke="white" stroke-width="1.5" stroke-linecap="round"/>
<path d="M54.9414 14.0908C55.1779 14.1124 55.4734 14.1812 55.6844 14.2902C56.0609 14.4846 56.4245 14.5495 56.8351 14.6619C57.2056 14.7634 57.4325 14.8281 57.731 15.0391C57.9109 15.1662 57.9746 15.2272 57.8866 15.4593C57.7724 15.7602 57.7205 16.0934 57.5647 16.3779C57.3547 16.7613 57.0301 17.1136 56.7815 17.4743C56.5677 17.7844 56.3383 18.1082 56.0653 18.3686C55.9183 18.5089 55.815 18.745 55.6924 18.9128C55.5933 19.0486 55.4595 19.3584 55.3277 19.4246" stroke="white" stroke-width="1.5" stroke-linecap="round"/>
<path d="M29.2554 28.3952C30.1289 28.0053 30.9896 27.5421 31.7767 26.9998C32.3993 26.571 33.0568 26.2452 33.7026 25.8577C34.2592 25.5237 34.8106 25.1593 35.3925 24.8717C35.6082 24.7651 36.1202 24.5379 36.2079 24.2737" stroke="white" stroke-width="1.5" stroke-linecap="round"/>
<path d="M42.4365 26.8921C42.5928 26.9064 42.6941 26.9817 42.7879 27.0995C43.054 27.4336 43.5093 27.6357 43.716 28.0046C43.7606 28.0844 43.9332 28.2143 43.9332 28.2983C43.9332 28.4777 43.8064 28.6686 43.7133 28.8101C43.3338 29.3872 42.9797 30.0924 42.4365 30.5288" stroke="white" stroke-width="1.5" stroke-linecap="round"/>
<path d="M49.5337 28.0557C49.8205 28.2108 50.0214 28.6832 50.2204 28.9392C50.4344 29.2147 50.6608 29.4794 50.8641 29.7636C51.1952 30.2262 51.5573 30.6673 51.878 31.1374C52.0689 31.4171 52.2016 31.7048 52.4306 31.9348" stroke="white" stroke-width="1.5" stroke-linecap="round"/>
<path d="M57.9346 28.1042C58.0375 28.1651 58.1198 28.2679 58.176 28.3736C58.3225 28.6496 58.5458 28.8683 58.7822 29.0686C59.3525 29.5519 59.9319 29.9445 60.4237 30.5179C60.6375 30.7671 60.8399 31.0893 61.0138 31.3638C61.2069 31.6684 61.4177 31.9625 61.604 32.2743" stroke="white" stroke-width="1.5" stroke-linecap="round"/>
<path d="M59.335 23.5461C59.5681 23.6002 59.8068 23.7656 60.027 23.8586C60.4781 24.0491 60.8793 24.27 61.2769 24.5536C61.6618 24.8281 62.1481 25.0793 62.4518 25.4453C63.177 26.3193 64.0415 27.1142 64.6513 28.0799C64.9798 28.6001 65.4774 29.0086 65.8395 29.5022C66.1286 29.8962 66.3624 30.355 66.6898 30.7117C67.0664 31.122 67.0959 31.8191 67.3979 32.2742" stroke="white" stroke-width="1.5" stroke-linecap="round"/>
<path d="M6.51465 16.6606C6.53558 16.8814 6.66062 17.0468 6.74533 17.2425C6.80664 17.3841 6.74485 17.5095 6.84189 17.652C7.04171 17.9453 7.23778 18.2463 7.5527 18.4251C8.28517 18.8409 9.22779 18.2661 9.99091 18.611C10.4692 18.8271 10.6673 19.5487 10.8412 20.0145C10.9286 20.2487 11.0167 20.502 11.0504 20.7391C11.0814 20.9572 11.208 21.0367 11.2462 21.2671" stroke="white" stroke-width="1.5" stroke-linecap="round"/>
<path d="M3.81104 21.1218C4.46605 21.1218 5.77452 21.2415 6.15268 20.5696C6.21515 20.4586 6.3271 20.3944 6.4075 20.2975C6.57415 20.0967 6.64155 19.8716 6.70792 19.624C6.78432 19.339 6.99893 19.0101 7.14245 18.7458" stroke="white" stroke-width="1.5" stroke-linecap="round"/>
<path d="M5.5009 21.5096C5.69436 21.801 5.8605 22.0996 6.11515 22.3447C6.2725 22.4961 6.45229 22.6911 6.53895 22.8942C6.59989 23.037 6.96308 23.7484 6.83132 23.8263C6.64365 23.9371 6.49074 24.0462 6.32437 24.2007C6.1344 24.3772 6.0221 24.6346 5.81205 24.7853C5.36726 25.1044 5.07363 25.563 4.63184 25.8736" stroke="white" stroke-width="1.5" stroke-linecap="round"/>
<path d="M79.1191 26.6641C79.2407 26.8336 79.4042 26.942 79.5456 27.0924C79.6917 27.2477 79.7565 27.4548 79.8503 27.6431C80.1113 28.1674 80.4869 28.652 80.8218 29.1355C80.9775 29.3603 81.0973 29.6084 81.1907 29.8664C81.2675 30.0785 81.4664 30.2323 81.5563 30.4579" stroke="white" stroke-width="1.5" stroke-linecap="round"/>
<path d="M76.1943 23.1149C77.5936 23.1149 78.8689 22.7428 80.1209 22.1358C81.2371 21.5946 82.3962 21.2709 83.543 20.8202C83.8996 20.6801 84.2615 20.5544 84.6228 20.4225C84.8176 20.3513 84.9049 20.2345 85.1441 20.2389C86.1276 20.2568 86.8831 21.0357 87.7099 21.4627C88.0771 21.6524 88.5031 21.9212 88.8066 22.197C89.01 22.3818 89.2095 22.6749 89.443 22.8089C89.5962 22.8968 89.9033 23.6995 89.9033 23.856C89.9033 25.3874 89.8986 26.9841 89.4159 28.4385" stroke="white" stroke-width="1.5" stroke-linecap="round"/>
<path d="M89.9029 24.4001C89.9186 24.5571 90.0332 24.6453 90.1331 24.7537C90.2302 24.859 90.2719 25.0512 90.3294 25.182C90.471 25.5039 90.5219 25.6969 90.5867 26.0387C90.7197 26.7401 90.9997 27.4691 90.9997 28.1906C90.9997 29.1852 90.7482 30.0004 90.3024 30.866C89.8263 31.7903 88.9508 32.3818 88.3797 33.2252C88.0855 33.6598 87.6992 33.8673 87.2965 34.2043C86.9945 34.457 86.9303 34.826 86.7008 35.129C86.384 35.5471 86.0577 35.9393 85.7259 36.3392C85.6376 36.4456 85.2953 36.7769 85.12 36.6009C84.9656 36.4458 84.533 36.2578 84.4769 36.0604C84.4504 35.9673 83.9766 36.1365 83.915 36.1794C83.8452 36.2279 83.8093 36.3611 83.7491 36.4276C83.4384 36.7709 83.2701 36.8925 82.842 37.1075C82.2935 37.3828 81.8365 37.7715 81.2713 38.0185C80.9777 38.1469 80.5198 38.4602 80.2152 38.4741C79.9436 38.4865 79.6804 38.5419 79.4096 38.5353C79.1005 38.5277 79.237 38.1715 79.0847 38.0185C78.9864 37.9198 78.5755 38.1564 78.4889 38.2259C78.3739 38.3183 78.3774 38.4369 78.2351 38.5047C77.8691 38.6787 77.5212 38.8863 77.1586 39.0554C76.5744 39.3278 75.5103 39.743 74.9483 39.2084C74.703 38.975 74.4291 38.7684 74.1833 38.5353C74.0341 38.3938 73.3592 38.6776 73.1949 38.78C72.1942 39.4038 70.9997 39.6869 70.0198 40.3336C69.497 40.6786 68.7886 40.7264 68.2021 40.9149C67.9057 41.0101 67.5399 41.0982 67.4337 40.7517C67.4027 40.6505 67.4249 40.5365 67.4202 40.4322C67.4117 40.2438 67.2551 40.112 67.2374 39.9426C67.2003 39.5892 67.0977 39.7484 66.8075 39.9086C66.1422 40.2761 65.4161 40.7753 64.6784 40.8911C64.4838 40.9216 63.9636 41.0356 63.8592 40.7959C63.7184 40.4726 63.5249 40.1729 63.4124 39.8339C63.3172 39.5471 63.388 39.3977 62.9859 39.6231C62.6745 39.7977 62.355 39.7476 62.0111 39.7591C61.6747 39.7703 61.3739 39.9399 61.0565 40.0174C60.5663 40.1372 60.0751 40.1972 59.5841 40.3404C58.6102 40.6243 57.597 40.7629 56.6087 40.9217C55.9777 41.0231 55.4189 40.9721 54.8079 40.8605C54.4844 40.8014 54.187 40.6284 53.8466 40.6157C53.6475 40.6083 53.5692 40.435 53.3862 40.4322C53.0001 40.4262 52.6522 40.4934 52.2624 40.4934C51.5617 40.4934 50.8611 40.4934 50.1604 40.4934C49.5168 40.4934 48.9057 40.371 48.2581 40.371C47.841 40.371 47.4396 40.4451 47.0259 40.4288C46.501 40.4081 45.5937 40.4616 45.4384 39.8203C45.3974 39.651 45.4442 39.4548 45.2015 39.5415C45.0018 39.6128 44.8395 39.6258 44.6328 39.6367C44.4132 39.6483 44.1159 39.8097 43.9152 39.6231C43.4777 39.2163 42.9101 39.3469 42.4055 39.1166C42.2271 39.0351 41.9374 39.0335 41.7522 38.9908C41.4543 38.9221 41.1586 38.8412 40.8518 38.8412C40.2312 38.8412 39.6107 38.8412 38.9901 38.8412C38.5712 38.8412 38.1855 38.8432 37.7749 38.9092C37.1688 39.0066 36.605 39.0248 35.9809 39.0248C35.4971 39.0248 35.0118 39.2063 34.5457 39.3171C34.1065 39.4216 33.637 39.4048 33.212 39.5755C32.8929 39.7037 32.5084 39.667 32.2033 39.8543C31.906 40.0367 31.6335 40.2417 31.3232 40.405C31.0033 40.5732 31.0031 40.5805 30.6191 40.4322" stroke="white" stroke-width="1.5" stroke-linecap="round"/>
<path d="M2.83601 25.8074C2.55655 26.5651 2.12494 27.2406 2.19625 28.0714C2.24536 28.6435 2.34858 29.1565 2.34858 29.7372C2.34858 30.0783 2.34858 30.4194 2.34858 30.7604C2.34858 31.6488 1.51628 32.429 1.43126 33.2829C1.36789 33.9193 1.14001 34.5557 1.05553 35.1968C0.993269 35.6692 0.9655 36.1633 1.06907 36.6314C1.29738 37.6632 1.93294 38.5456 2.98833 38.8682C3.29391 38.9616 3.59044 39.117 3.90565 39.1708C4.26312 39.2318 4.63418 39.2082 4.9956 39.2082C5.4379 39.2082 5.88019 39.2082 6.32249 39.2082C6.75089 39.2082 7.18042 39.201 7.60877 39.2082C7.92407 39.2135 8.20511 39.5262 8.47193 39.6705C8.70398 39.796 9.00435 39.7852 9.26062 39.8473C9.50658 39.9069 9.76004 40.0065 10.0053 40.0513C10.6299 40.1653 11.2381 40.3754 11.8569 40.5204C12.2681 40.6168 12.7063 40.5153 13.1228 40.585C13.4549 40.6406 13.7674 40.6969 14.1078 40.6768C14.3488 40.6625 14.4118 40.2137 14.6968 40.2518C15.0434 40.2982 15.3404 40.597 15.692 40.6156C16.1455 40.6396 16.6251 40.5453 17.0697 40.4626C17.2888 40.4218 18.0888 40.4888 18.251 40.2688C18.3584 40.1232 18.5415 40.0222 18.6301 39.8813C18.7016 39.7676 18.8259 39.5771 18.9517 39.5209C19.0298 39.4861 19.3172 39.7267 19.3884 39.7657C19.665 39.9173 19.8906 40.1039 20.1398 40.262C21.2574 40.9709 22.4385 40.9215 23.7211 40.9215C24.2562 40.9215 24.7888 40.7851 25.3154 40.7074C25.6185 40.6626 26.2659 40.7507 26.5103 40.5544C26.7964 40.3245 26.9462 40.1261 27.3226 40.1261C27.6415 40.1261 28.103 40.4954 28.4126 40.6156C28.9721 40.8327 30.032 41.0905 30.5586 40.738" stroke="white" stroke-width="1.5" stroke-linecap="round"/>
<path d="M1.12988 36.3935C1.98189 36.3935 2.68956 36.74 3.50272 36.9442C4.27438 37.1379 4.98801 37.6482 5.78079 37.7261C6.34309 37.7813 6.89248 37.7528 7.44279 37.8961C8.51368 38.1749 9.69409 38.168 10.7939 38.168C12.0465 38.168 13.2285 38.5963 14.4733 38.5963C15.4182 38.5963 16.3615 38.7872 17.3031 38.8445C18.3078 38.9057 19.3078 38.9023 20.3157 38.9023C21.2581 38.9023 22.236 38.8218 23.1726 38.9159C23.623 38.9611 24.0795 39.0365 24.5266 39.0995C25.0617 39.1749 25.602 39.1347 26.1412 39.1777C27.0573 39.2507 27.9952 39.2694 28.9135 39.2694C29.6924 39.2694 30.4637 39.1303 31.2389 39.0893C31.6813 39.0659 32.2162 38.9935 32.6166 38.7799C32.9271 38.6142 33.3032 38.6182 33.605 38.4162C34.013 38.143 34.6523 38.0229 35.1282 37.9368C35.9221 37.7933 36.7215 37.619 37.518 37.4677C38.2681 37.3252 39.0913 37.3113 39.8536 37.3113C40.9698 37.3113 42.0768 37.2776 43.1843 37.4337C43.6559 37.5002 44.1219 37.5298 44.5925 37.6037C45.1009 37.6835 45.5641 37.8299 46.0615 37.9504C46.6438 38.0916 47.2506 38.1598 47.8149 38.3788C48.7204 38.7301 49.7866 38.5963 50.7395 38.5963C51.8332 38.5963 52.9224 38.5965 54.0128 38.6541C58.0204 38.866 62.0181 38.9635 66.0394 38.9635C68.4194 38.9635 70.7414 38.4725 73.1004 38.2156C74.1927 38.0967 75.3184 38.0094 76.3669 37.6751C78.0508 37.1382 79.7829 36.9143 81.4003 36.1759C82.5302 35.6601 83.7117 35.2619 84.8191 34.6937C85.305 34.4444 85.7289 34.1035 86.1866 33.8099C86.7277 33.4627 87.2735 33.047 87.676 32.5452C87.9706 32.178 88.3185 31.8457 88.556 31.4336C88.7439 31.1078 88.7829 30.7138 88.9893 30.3968C89.3451 29.8503 89.5377 29.2189 89.5377 28.561" stroke="white" stroke-width="1.5" stroke-linecap="round"/>
<path d="M26.4766 38.5351C26.937 38.1189 27.5357 37.8223 28.0607 37.4948C28.4183 37.2718 28.7219 37.0061 29.0965 36.8081C30.093 36.2814 30.93 35.7045 32.0279 35.4143C33.1117 35.1279 34.2197 35.156 35.3316 35.0948C36.8523 35.0109 38.3632 34.9943 39.8572 35.3259C41.074 35.5961 42.308 35.8499 43.5299 36.0874C44.8673 36.3474 46.1443 36.7821 47.4767 37.0699C48.0495 37.1936 48.6201 37.4083 49.1996 37.4914C49.5166 37.5369 49.8178 37.5943 50.117 37.7124C50.4366 37.8385 50.6828 38.0805 51.0309 38.1679" stroke="white" stroke-width="1.5" stroke-linecap="round"/>
<path d="M5.8828 37.2501C5.90787 36.5704 6.23802 35.9301 6.32285 35.258C6.38668 34.7522 6.37023 34.2449 6.37023 33.735C6.37023 33.3055 6.33174 32.9297 5.95727 32.688C5.68299 32.5109 5.39363 32.4206 5.15166 32.1984C4.87308 31.9427 3.64503 31.5676 3.31025 31.8789C3.00048 32.167 2.60113 32.336 2.34893 32.6948C2.1497 32.9782 1.91929 33.1535 1.67871 33.3951" stroke="white" stroke-width="1.5" stroke-linecap="round"/>
<path d="M2.65332 28.4998C2.76465 28.8632 3.19463 29.1349 3.51986 29.2681C4.04437 29.4828 4.64061 29.7289 5.18525 29.88C5.64089 30.0064 6.30388 30.1119 6.7694 30.016C7.35295 29.8958 7.96168 29.3248 8.41787 28.9553C8.62675 28.7862 8.74498 28.6476 8.89853 28.442C8.97589 28.3384 9.11715 28.3055 9.17271 28.1938" stroke="white" stroke-width="1.5" stroke-linecap="round"/>
<path d="M8.98979 28.4998C8.98979 28.905 8.93539 29.3033 8.92886 29.7032C8.92789 29.7631 8.88284 30.0956 8.9424 30.1383C9.12184 30.267 9.77196 30.1906 9.9782 30.1995C11.1991 30.2522 12.4256 30.2046 13.6475 30.2131C14.8893 30.2217 16.1268 30.3967 17.3675 30.3967C18.2041 30.3967 19.033 30.5191 19.8656 30.5191C20.2619 30.5191 20.7375 30.5041 21.0808 30.2743C21.2554 30.1574 21.4361 29.8933 21.5479 29.7168C21.681 29.5068 21.8408 29.3239 21.9676 29.1117" stroke="white" stroke-width="1.5" stroke-linecap="round"/>
<path d="M21.9067 29.6624C21.9067 30.0933 21.9382 30.3962 22.296 30.689C22.7366 31.0495 23.6567 31.0284 24.195 31.1037C25.0446 31.2226 25.9089 31.2608 26.7641 31.3145C27.6959 31.373 28.6227 31.5122 29.5567 31.5729C30.3155 31.6222 31.0446 31.8343 31.8144 31.8686C32.2915 31.8899 32.7399 32.0059 33.1921 31.804C33.7735 31.5445 34.4341 30.8972 34.6409 30.2743" stroke="white" stroke-width="1.5" stroke-linecap="round"/>
<path d="M34.8848 31.7429C34.9014 31.9098 35.0772 32.1315 35.1691 32.2732C35.3786 32.5964 35.8221 32.6348 36.1643 32.722C37.8126 33.1417 39.4791 33.0092 41.1537 33.2115C42.0725 33.3225 42.9974 33.3725 43.9158 33.4835C44.8039 33.5907 45.7302 33.8817 46.6305 33.8234C46.7983 33.8125 47.0826 33.0991 47.1924 32.9531C47.2742 32.8443 47.3184 32.6587 47.4361 32.5996" stroke="white" stroke-width="1.5" stroke-linecap="round"/>
<path d="M48.2891 32.5383C48.2891 33.7635 49.6321 34.1383 50.6314 34.2857C51.0718 34.3506 51.535 34.3129 51.9786 34.3129C52.7442 34.3129 53.5055 34.349 54.2702 34.3707C55.0398 34.3924 55.8102 34.4698 56.5754 34.5576C57.3126 34.6422 58.0941 34.68 58.8365 34.68C59.2044 34.68 59.5722 34.68 59.94 34.68C60.1188 34.68 60.3653 34.726 60.5358 34.6664C61.1115 34.4653 61.3888 34.1859 61.3888 33.5786" stroke="white" stroke-width="1.5" stroke-linecap="round"/>
<path d="M61.5713 33.5786C61.6367 33.9235 61.9961 34.235 62.2449 34.4693C62.6197 34.8221 62.934 34.8024 63.4398 34.8024C65.2009 34.8024 66.9353 34.4363 68.7 34.3741C68.9714 34.3645 69.2412 34.3189 69.5124 34.2993C69.9271 34.2693 70.3842 34.3107 70.7682 34.1327C70.9559 34.0457 71.1409 33.9651 71.3334 33.8981C71.5794 33.8126 71.8023 33.5153 71.5907 33.242C71.4776 33.096 71.3199 33.0267 71.3199 32.8443" stroke="white" stroke-width="1.5" stroke-linecap="round"/>
<path d="M72.2344 32.6608C72.3341 32.683 72.3656 32.8066 72.4307 32.8749C72.5732 33.0245 72.7919 33.1048 72.9791 33.1843C73.3408 33.338 73.6199 33.4611 74.0149 33.4562C75.2058 33.4417 76.3883 33.169 77.569 33.0415C78.2834 32.9644 78.9854 32.7297 79.6982 32.5996C80.4801 32.4568 81.2397 32.2695 82.0168 32.11C82.7982 31.9497 83.4336 31.5128 83.9327 30.8862" stroke="white" stroke-width="1.5" stroke-linecap="round"/>
<path d="M68.6533 18.261C68.3803 18.2305 67.9445 17.7274 67.8326 17.4744C67.6768 17.1224 67.4771 16.7904 67.1915 16.5289C66.7291 16.1054 66.2668 15.7349 65.6974 15.4702C65.3337 15.3011 64.961 15.1534 64.5709 15.0607C64.2131 14.9757 63.9011 14.7895 63.5355 14.7213C62.2715 14.4854 61.0523 13.9698 59.8313 13.5764C59.0938 13.3388 58.3623 13.05 57.6398 12.771C56.9783 12.5154 56.2937 12.297 55.6388 12.0275C55.1051 11.8078 54.5767 11.5917 54.0455 11.3729C53.7973 11.2706 53.5618 11.1621 53.3482 10.9984C53.0713 10.7864 52.7298 10.7105 52.4308 10.5405C51.8298 10.1987 51.2271 9.91545 50.6444 9.54375C50.0905 9.19042 49.5949 8.73226 49.035 8.40425C48.4183 8.04297 47.881 7.58043 47.2486 7.24052C46.7559 6.97568 46.2123 6.70879 45.6821 6.52665C45.3057 6.39731 44.9791 6.17751 44.6146 6.02021C43.9862 5.749 43.348 5.51908 42.7236 5.24169C42.3488 5.07524 42.0427 5.02158 41.6641 4.92651" stroke="white" stroke-width="1.5" stroke-linecap="round"/>
<path d="M33.1245 22.5575C32.9887 22.6668 32.8518 22.7749 32.7145 22.8824C33.062 22.7978 33.4098 22.7049 33.7541 22.5779C34.4505 22.3208 35.0187 22.0557 35.5515 21.5206C35.9237 21.1468 35.9122 21.3959 36.0984 20.8815C36.4852 19.8133 35.5004 19.2276 34.8359 18.648C34.444 18.3063 34.0154 18.006 33.6816 17.601C33.4001 17.2594 33.2095 17.2067 32.8658 17.4548C32.6933 17.5793 32.9032 17.2833 33.094 16.9075C33.4252 16.2551 34.5016 14.3507 34.0723 14.9426C33.8154 15.2967 33.5898 15.6747 33.3343 16.0304C33.1114 16.3408 33.2736 15.9661 33.3106 15.8333C33.3575 15.6652 33.6863 14.7459 33.507 14.5958C33.3062 14.4278 33.093 14.9214 32.9214 15.1194C32.7187 15.3532 32.5866 15.529 32.4136 15.7789C32.3636 15.8511 32.2915 16.0802 32.2647 15.9964C32.1402 15.6074 32.3459 14.9556 32.3459 14.5482C32.3459 13.8345 31.6103 14.9708 31.4049 15.1228C31.4034 15.1239 31.4453 13.9149 31.2831 13.8072C31.0558 13.6561 30.136 14.8665 30.122 14.6706C30.0962 14.3074 30.2462 13.9252 30.1288 13.5658C30.0084 13.1972 29.6131 13.5102 29.4146 13.6134C29.1865 13.7318 28.8917 13.8724 28.7782 13.576C28.6363 13.2054 28.7221 12.8565 28.6225 12.4813C28.5186 12.09 28.0471 12.4784 27.783 12.5289C27.5849 12.5669 27.4192 12.6881 27.2347 12.7669C26.9289 12.8974 26.5558 12.8971 26.27 13.0491C26.1175 13.1301 25.2362 13.3683 25.8469 13.5216C26.2061 13.6118 26.6398 13.7876 26.9571 13.9771C28.4972 14.8968 30.0014 15.8869 31.5166 16.8497C32.185 17.2744 32.7123 17.7348 33.2599 18.3013C33.5554 18.607 33.8498 18.9073 34.1467 19.2056C34.3207 19.3802 34.408 19.6281 34.58 19.8107C35.0903 20.3524 34.5445 21.1793 34.1095 21.5648C33.7488 21.8844 33.5058 22.2502 33.1245 22.5575Z" fill="#040D08"/>
<path d="M29.5229 11.7335C29.5599 11.9442 29.8537 12.0097 29.9968 12.1142C30.0838 12.1777 30.1784 12.1618 30.2845 12.1618C30.4448 12.1618 30.5622 12.2813 30.7246 12.3182C31.2271 12.4321 31.7382 12.5181 32.2275 12.6819C32.8476 12.8895 33.4311 13.1679 34.079 13.3244C34.6636 13.4656 35.4649 13.645 35.9814 13.9635C36.6698 14.3881 37.4621 14.4848 38.2019 14.7896C38.4793 14.9039 38.7847 14.9364 39.0549 15.065C39.389 15.2239 39.7047 15.3896 40.0602 15.4967C40.5996 15.6592 41.0711 15.9423 41.6004 16.1256C42.0145 16.269 42.51 16.295 42.934 16.2004C43.2917 16.1206 43.8386 15.6983 44.0544 15.3981C44.3248 15.0221 44.7768 14.8854 45.1207 14.5754C45.2867 14.4258 45.5157 14.4124 45.6995 14.2933C46.0022 14.0972 46.258 13.874 46.583 13.7052C47.2274 13.3704 47.8482 13.0275 48.5158 12.7227C48.9981 12.5025 49.5591 11.9051 50.0898 12.2706C50.2345 12.3702 50.365 12.4653 50.4824 12.5901C50.659 12.7779 50.8791 12.8105 50.6415 13.0491C50.4525 13.2389 50.2332 13.3911 50.0255 13.5998C49.8623 13.7636 49.6439 13.851 49.5076 14.0383C49.1772 14.4924 48.6243 14.6756 48.1671 15.0072C47.8696 15.223 47.6395 15.4926 47.3446 15.7109C47.2196 15.8034 47.1651 15.9254 47.0569 16.0304C46.8622 16.2194 46.6514 16.2951 46.5221 16.5403C46.3923 16.7865 46.2174 16.859 46.2174 17.1659C46.2174 17.3993 46.2666 17.7116 46.4374 17.8831C46.8018 18.2491 47.2643 18.4123 47.7169 18.648C47.94 18.7642 48.1839 18.7742 48.4244 18.8316C48.8861 18.9417 49.308 19.1277 49.7851 19.1852C50.2367 19.2396 50.7064 19.2404 51.1527 19.3347C51.5346 19.4155 51.7822 19.4052 51.9786 19.039C52.2239 18.5815 52.9889 18.3001 53.2843 17.8831C53.6755 17.3311 53.8963 16.8551 54.3176 16.3262C54.6883 15.8608 54.7076 14.9345 55.4651 15.1126C55.8211 15.1962 56.063 15.6096 56.4061 15.7245C56.6646 15.811 56.9208 15.8466 56.599 16.1698C56.2114 16.5591 55.777 16.4668 55.4651 16.9225C55.1516 17.3804 54.7636 18.3171 54.5587 18.8316C54.4508 19.1026 53.5079 20.7657 53.9317 21.0277C54.0437 21.0969 54.1751 21.0906 54.2871 21.1705C54.5697 21.3721 54.8693 21.5629 55.1706 21.7348C55.4481 21.8932 55.6648 22.1195 55.9525 22.2583C56.3266 22.4388 56.6933 22.6537 57.056 22.8566C58.0458 23.4103 59.0167 24.2293 59.8046 25.0425C60.1522 25.4013 60.6763 25.6746 61.0908 25.9637C61.6249 26.3362 62.0381 26.7752 62.499 27.2284C62.734 27.4595 62.9526 27.7162 63.2166 27.9151C63.4395 28.083 63.4819 28.2971 63.6702 28.4862C64.0355 28.8531 64.2431 29.3418 64.5401 29.7644C64.7221 30.0233 64.9527 30.2724 65.102 30.5497C65.2961 30.9103 65.5424 31.3597 65.867 31.6205C66.027 31.749 66.0337 31.9018 66.2495 31.9741C66.6456 32.1067 65.4211 32.1225 65.0038 32.1066C64.3981 32.0837 63.7998 32.0488 63.1929 32.0488C63.0134 32.0488 62.6485 32.1152 62.4854 32.0216C62.1731 31.8424 61.9101 31.1826 61.7204 30.8862C61.5922 30.6859 61.515 30.4509 61.4124 30.2369C61.2362 29.8693 60.9785 29.5346 60.7828 29.1763C60.2037 28.1156 59.4236 27.2305 58.5183 26.4533C57.2673 25.3793 55.7087 24.7322 54.2634 23.9682C53.5281 23.5796 52.735 22.5364 51.8364 22.8566C51.6527 22.9221 51.4199 22.9352 51.2508 23.0266C51.0988 23.1088 50.9364 23.3096 50.7939 23.4209C50.5024 23.6486 50.2677 24.1856 50.1033 24.5224C49.9057 24.9273 49.6589 25.3224 49.5076 25.7462C49.31 26.2998 48.8097 26.7798 48.7155 27.3711C48.6642 27.6929 48.3836 28.0436 48.4786 28.3774C48.61 28.8393 49.1053 29.077 49.3248 29.4516C49.4794 29.7156 49.8731 30.0323 50.1169 30.2267C50.366 30.4254 50.5421 30.6946 50.76 30.9134C50.9417 31.0959 50.3897 31.1159 50.2387 31.1276C49.8045 31.1611 49.4734 31.0587 49.0878 30.8522C48.3364 30.4497 47.3116 30.4092 46.4713 30.3389C45.6641 30.2713 44.7671 30.3727 43.9969 30.1383C43.4005 29.9568 44.4793 29.1558 44.728 28.9893C45.0239 28.7912 45.0121 28.6803 45.0632 28.3468C45.0849 28.2048 45.16 28.0631 45.1952 27.9219C45.2721 27.6128 45.0159 27.4993 44.7822 27.3371C44.5149 27.1517 44.2802 26.9204 44.0375 26.7048C43.8466 26.5352 43.7742 26.2827 43.5839 26.1133C43.0967 25.6796 42.6474 25.1903 42.1589 24.7637C41.6176 24.291 41.1677 23.7268 40.6153 23.2645C40.2019 22.9185 39.8417 22.4687 39.346 22.2447C39.1694 22.1649 39.0532 22.0007 38.889 21.9251C38.6826 21.8301 38.4384 21.7715 38.2222 21.694C37.8249 21.5515 37.502 21.649 37.1085 21.7076C36.4806 21.801 36.2957 22.4935 35.8527 22.843C35.46 23.1529 35.2213 23.4405 34.7492 23.6657C34.1735 23.9403 33.6186 24.1521 33.094 24.5224C32.5878 24.8796 31.9867 25.3686 31.476 25.7156C31.2017 25.9019 30.9113 26.0559 30.6332 26.2357C30.2494 26.4838 29.7441 26.6443 29.4044 26.9428C29.2106 27.1132 29.0366 27.1743 28.8053 27.276C28.6234 27.3559 28.4383 27.6322 28.2434 27.6431C27.4653 27.6865 26.7977 27.3371 26.0229 27.3371C25.3922 27.3371 24.793 27.4595 24.1645 27.4595C23.9652 27.4595 23.8109 27.5819 23.6399 27.5819C23.5586 27.5819 23.3387 27.6396 23.3962 27.5819C23.5037 27.4739 23.7597 27.3452 23.9039 27.3031C24.5175 27.1242 25.1839 27.1185 25.7724 26.8476C26.0334 26.7275 26.3121 26.6706 26.578 26.5655C26.9982 26.3992 27.3576 26.2671 27.783 26.1133C28.444 25.8744 29.0613 25.2777 29.6922 24.9609C30.3588 24.6261 30.9893 24.2947 31.5674 23.8017C32.0713 23.3719 32.6066 22.9747 33.1245 22.5575C33.5058 22.2502 33.7488 21.8844 34.1095 21.5648C34.5445 21.1793 35.0903 20.3524 34.58 19.8107C34.408 19.6281 34.3207 19.3802 34.1467 19.2056C33.8498 18.9073 33.5554 18.607 33.2599 18.3013C32.7123 17.7348 32.185 17.2744 31.5166 16.8497C30.0014 15.8869 28.4972 14.8968 26.9571 13.9771C26.6398 13.7876 26.2061 13.6118 25.8469 13.5216C25.2362 13.3683 26.1175 13.1301 26.27 13.0491C26.5558 12.8971 26.9289 12.8974 27.2347 12.7669C27.4192 12.6881 27.5849 12.5669 27.783 12.5289C28.0471 12.4784 28.5186 12.09 28.6225 12.4813C28.7221 12.8565 28.6363 13.2054 28.7782 13.576C28.8917 13.8724 29.1865 13.7318 29.4146 13.6134C29.6131 13.5102 30.0084 13.1972 30.1288 13.5658C30.2462 13.9252 30.0962 14.3074 30.122 14.6706C30.136 14.8665 31.0558 13.6561 31.2831 13.8072C31.4453 13.9149 31.4034 15.1239 31.4049 15.1228C31.6103 14.9708 32.3459 13.8345 32.3459 14.5482C32.3459 14.9556 32.1402 15.6074 32.2647 15.9964C32.2915 16.0802 32.3636 15.8511 32.4136 15.7789C32.5866 15.529 32.7187 15.3532 32.9214 15.1194C33.093 14.9214 33.3062 14.4278 33.507 14.5958C33.6863 14.7459 33.3575 15.6652 33.3106 15.8333C33.2736 15.9661 33.1114 16.3408 33.3343 16.0304C33.5898 15.6747 33.8154 15.2967 34.0723 14.9426C34.5016 14.3507 33.4252 16.2551 33.094 16.9075C32.9032 17.2833 32.6933 17.5793 32.8658 17.4548C33.2095 17.2067 33.4001 17.2594 33.6816 17.601C34.0154 18.006 34.444 18.3063 34.8359 18.648C35.5004 19.2276 36.4852 19.8133 36.0984 20.8815C35.9122 21.3959 35.9237 21.1468 35.5515 21.5206C35.0187 22.0557 34.4505 22.3208 33.7541 22.5779C32.7047 22.9651 31.6226 23.0352 30.6162 23.5195C30.0826 23.7763 29.5162 24.162 29.0964 24.5836" stroke="white" stroke-width="1.5" stroke-linecap="round"/>
<path d="M47.2523 20.2047C47.2566 20.2089 47.2581 20.2156 47.2565 20.2254C47.2991 20.4436 47.8313 20.6333 48.1177 20.6945C48.3493 20.744 48.1617 21.0994 48.3972 21.0957C48.6724 21.0913 49.1551 20.9915 49.3856 21.1568C49.8391 21.4822 49.7024 21.981 49.5684 22.4691C49.3986 23.087 49.2595 23.6336 49.02 24.2164C48.8875 24.5389 48.5227 24.7119 48.3498 25.0119C48.1546 25.3504 47.8226 25.3195 47.5103 25.5048C47.3651 25.591 47.0197 25.7332 47.0094 25.9297C46.9958 26.1877 47.0063 26.4544 47.0229 26.7116C47.0488 27.1133 47.0533 27.5729 47.1718 27.9626C47.2655 28.2706 48.1447 28.9287 48.1177 29.2612C48.081 29.713 47.0216 29.406 46.6099 29.4176C46.4527 29.4221 46.0006 29.6042 46.0006 29.4176C46.0006 28.9584 46.5173 28.3636 46.3087 27.898C46.2032 27.6627 45.8926 27.4654 45.7366 27.2555C45.1991 26.5321 44.6055 25.8862 43.9765 25.243C43.8062 25.069 42.8373 24.4451 43.5708 24.8645C42.781 24.1846 42.8997 23.7177 42.0978 23.0776C41.8337 22.8667 41.5814 22.6252 41.3255 22.3853C40.9843 22.3748 40.7028 22.3032 40.3546 21.9659C40.199 21.8152 39.9931 21.5711 39.8389 21.3018C39.7209 21.2527 39.5985 21.2118 39.4711 21.1806C38.9792 21.0605 38.4782 20.873 38.0054 20.6945C37.7476 20.5972 37.6449 20.53 37.958 20.5585C38.3699 20.5961 38.3995 20.2111 38.3778 19.8548C38.3557 19.4923 38.1741 19.4267 37.8697 19.3166L37.8633 19.3143C38.3371 19.3143 38.6707 18.8652 39.0277 18.5256C39.2058 18.3562 39.4934 17.9084 39.7284 17.8559C40.2666 17.7358 40.5918 17.5775 41.1164 17.6789C41.3174 17.7177 41.825 17.6045 41.7416 17.8559C41.6571 18.1105 40.9729 18.4699 40.7946 18.6788C40.3599 19.1881 39.8785 19.7166 39.6505 20.4226C39.5651 20.6871 39.6715 21.0093 39.8389 21.3018C40.4035 21.5368 40.8702 21.9585 41.3255 22.3853C41.4943 22.3905 41.6778 22.3807 41.8913 22.3807C42.3398 22.3807 42.7784 22.2271 43.2284 22.2005C43.5018 22.1843 43.7136 21.8394 43.9765 21.7484C44.5637 21.545 45.2253 21.4136 45.7468 21.0957C45.8838 21.0121 47.2259 20.4094 47.2565 20.2254C47.2551 20.2185 47.2537 20.2116 47.2523 20.2047C47.1414 19.6747 46.7757 19.294 46.4542 18.8724C46.2155 18.5593 46.0274 18.2566 45.6825 18.0497C45.627 18.0164 45.5789 17.9887 45.539 17.9663C45.3489 17.8742 45.371 17.8722 45.539 17.9663C45.5789 17.9887 45.627 18.0164 45.6825 18.0497C46.0274 18.2566 46.2155 18.5593 46.4542 18.8724C46.7757 19.294 47.1414 19.6747 47.2523 20.2047Z" fill="#040D08"/>
<path d="M34.458 14.9766C35.0396 15.0073 35.626 15.2307 36.1843 15.3709C36.7904 15.5231 37.4446 15.4935 37.9919 15.8468C38.8393 16.3939 39.8562 16.8088 40.7946 17.1794C41.1827 17.3327 41.5955 17.3705 41.9895 17.4922C42.4062 17.621 42.7195 17.6533 43.1302 17.4242C43.8239 17.0372 44.4446 16.6185 44.9987 16.0406C45.531 15.4855 46.0388 15.0845 46.6709 14.6502C46.7031 14.628 46.6146 14.7047 46.5862 14.7318C46.3869 14.9222 46.1952 15.1212 46.0006 15.3165C45.5896 15.7293 45.2014 16.1516 44.8193 16.5913C44.5096 16.9478 44.5106 17.0644 44.291 17.4862C44.2064 17.6488 44.8089 17.4922 44.4027 17.8559C44.1817 18.1171 44.6826 18.1927 44.8193 18.33C45.0987 18.6106 45.0628 18.7875 45.3945 19.0024C45.6487 19.1671 45.8013 19.4659 46.0478 19.6483C46.2988 19.8341 46.2069 20.3264 46.3865 20.5789C46.4763 20.7052 47.2829 20.0661 47.2565 20.2254M47.2565 20.2254C47.2259 20.4094 45.8838 21.0121 45.7468 21.0957C45.2253 21.4136 44.5637 21.545 43.9765 21.7484C43.7136 21.8394 43.5018 22.1843 43.2284 22.2005C42.7784 22.2271 42.3398 22.3807 41.8913 22.3807C41.2464 22.3807 40.8752 22.4701 40.3546 21.9659C40.03 21.6516 39.4864 20.9307 39.6505 20.4226C39.8785 19.7166 40.3599 19.1881 40.7946 18.6788C40.9729 18.4699 41.6571 18.1105 41.7416 17.8559C41.825 17.6045 41.3174 17.7177 41.1164 17.6789C40.5918 17.5775 40.2666 17.7358 39.7284 17.8559C39.4934 17.9084 39.2058 18.3562 39.0277 18.5256C38.6707 18.8652 38.3371 19.3143 37.8633 19.3143C38.1716 19.4258 38.3555 19.4898 38.3778 19.8548C38.3995 20.2111 38.3699 20.5961 37.958 20.5585C37.6449 20.53 37.7476 20.5972 38.0054 20.6945C38.4782 20.873 38.9792 21.0605 39.4711 21.1806C40.5505 21.4443 41.2655 22.4132 42.0978 23.0776C42.8997 23.7177 42.781 24.1846 43.5708 24.8645M47.2565 20.2254C47.2991 20.4436 47.8313 20.6333 48.1177 20.6945C48.3493 20.744 48.1617 21.0994 48.3972 21.0957C48.6724 21.0913 49.1551 20.9915 49.3856 21.1568C49.8391 21.4822 49.7024 21.981 49.5684 22.4691C49.3986 23.087 49.2595 23.6336 49.02 24.2164C48.8875 24.5389 48.5227 24.7119 48.3498 25.0119C48.1546 25.3504 47.8226 25.3195 47.5103 25.5048C47.3651 25.591 47.0197 25.7332 47.0094 25.9297C46.9958 26.1877 47.0063 26.4544 47.0229 26.7116C47.0488 27.1133 47.0533 27.5729 47.1718 27.9626C47.2655 28.2706 48.1447 28.9287 48.1177 29.2612C48.081 29.713 47.0216 29.406 46.6099 29.4176C46.4527 29.4221 46.0006 29.6042 46.0006 29.4176C46.0006 28.9584 46.5173 28.3636 46.3087 27.898C46.2032 27.6627 45.8926 27.4654 45.7366 27.2555C45.1991 26.5321 44.6055 25.8862 43.9765 25.243C43.8062 25.069 42.8373 24.4451 43.5708 24.8645M47.2565 20.2254C47.1509 19.6845 46.7799 19.2995 46.4542 18.8724C46.2155 18.5593 46.0274 18.2566 45.6825 18.0497C45.3289 17.8376 45.2736 17.849 45.7468 18.0633C46.8303 18.5541 47.9799 18.887 49.02 19.4741C49.478 19.7326 50.0635 20.3477 50.6042 20.4226C50.8463 20.4561 51.1205 20.5078 51.3624 20.4566C51.7411 20.3763 52.1727 20.0112 52.493 19.8004C52.8882 19.5404 53.2384 19.205 53.5897 18.8894C53.9812 18.5376 52.9777 19.7558 52.5945 20.1166C52.0414 20.6373 51.3383 20.9658 50.7937 21.4832C50.6766 21.5945 50.5159 21.8977 50.6922 22.0203C51.2722 22.4236 52.3378 22.2583 53.0007 22.2583C53.4416 22.2583 53.8284 22.2916 54.2193 22.5166C54.6295 22.7528 54.9726 23.0958 55.3905 23.3325C55.9023 23.6225 56.4156 23.8841 56.9035 24.2164C57.8933 24.8903 58.6259 26.0011 59.6826 26.5552C60.3755 26.9187 61.2055 27.2074 61.6898 27.8641C62.416 28.8486 63.222 29.9294 63.5211 31.131M43.5708 24.8645C44.0001 25.234 45.42 25.5766 45.6825 26.0793C45.7438 26.1968 46.2301 26.3206 46.1293 26.4669C45.9844 26.6771 45.5248 26.1527 45.4489 26.0793C44.9147 25.5627 44.2181 25.2345 43.5708 24.8645Z" stroke="white" stroke-width="1.5" stroke-linecap="round"/>
<path d="M40.2829 21.6228C41.0007 21.7263 41.6135 21.6085 42.3206 21.4227C42.9922 21.2462 43.7418 21.2786 44.4318 21.2002C44.7637 21.1625 45.1294 21.0411 45.4619 20.9724C45.6017 20.9435 45.8337 20.9152 45.9439 20.8114C46.2519 20.5212 45.6707 19.9729 45.5237 19.7537C45.3697 19.5242 42.9836 17.0601 42.6937 17.3045C42.205 17.7165 41.6761 18.138 41.2224 18.5881C40.8424 18.965 40.5706 19.4119 40.2067 19.7963C39.8676 20.1546 39.8613 20.689 39.4573 20.9112" stroke="white" stroke-width="1.5" stroke-linecap="round"/>
<path d="M47.8952 20.6527C47.13 20.7254 46.5277 20.9998 45.8453 21.3679C45.1971 21.7175 44.4167 21.8714 43.7252 22.1245C43.3926 22.2463 43.0458 22.4627 42.7203 22.6165C42.5835 22.6812 42.3514 22.7684 42.2636 22.9028C42.0182 23.2787 42.7528 23.6985 42.9585 23.8876C43.174 24.0856 46.2427 26.0282 46.4808 25.7041C46.8823 25.1575 47.3229 24.5911 47.6788 24.014C47.9769 23.5308 48.1463 23.0025 48.426 22.5155C48.6867 22.0616 48.5608 21.5095 48.922 21.1796" stroke="white" stroke-width="1.5" stroke-linecap="round"/>
<path d="M33.1282 16.1048C33.4416 16.8532 33.9053 17.374 34.4879 17.9462C35.0413 18.4896 35.203 18.4766 35.8863 19.0166C36.1625 19.2348 36.438 19.595 36.6942 19.8747C36.8019 19.9924 36.9621 20.1989 37.124 20.2451C37.5769 20.3742 37.7654 19.5017 37.8896 19.2348C38.0197 18.9552 39.0206 16.0794 38.6217 15.9414C37.9491 15.7086 37.2444 15.4427 36.5557 15.2654C35.979 15.1169 35.3977 15.1124 34.823 14.9836C34.2873 14.8637 33.7751 15.1643 33.3318 14.9039" stroke="white" stroke-width="1.5" stroke-linecap="round"/>
<path d="M56.3848 26.1529C56.4999 26.1914 56.6324 26.301 56.7331 26.3727C56.9366 26.5178 57.1188 26.6876 57.3431 26.8043C57.5609 26.9177 57.8057 26.996 58.0157 27.1207C58.2509 27.2602 58.4216 27.5174 58.5469 27.752C58.6049 27.8605 58.7031 27.985 58.7979 28.0643C58.9239 28.1698 58.9912 28.3435 59.0995 28.4678C59.2265 28.6135 59.3534 28.7747 59.5079 28.8927C59.6475 28.9994 59.8087 29.0665 59.9644 29.1447" stroke="white" stroke-width="1.5" stroke-linecap="round"/>
<path d="M52.9003 20.9656C52.8741 21.0712 52.8571 21.1659 52.8523 21.2739C52.8441 21.4598 52.523 21.6473 52.3965 21.7618" stroke="white" stroke-width="1.5" stroke-linecap="round"/>
<path d="M48.3116 26.1047C48.2345 26.2404 48.0481 26.2745 47.9357 26.3701C47.8321 26.4583 47.7997 26.6885 47.7598 26.8044" stroke="white" stroke-width="1.5" stroke-linecap="round"/>
<path d="M51.3398 31.3162C51.352 31.4631 51.4649 31.6011 51.5798 31.6781" stroke="white" stroke-width="1.5" stroke-linecap="round"/>
<path d="M38.9674 22.8714C38.8239 22.7657 38.6447 22.7502 38.4762 22.7159C38.2516 22.6702 38.0545 22.6301 37.8249 22.6301C37.5764 22.6301 37.4392 22.6628 37.275 22.858C37.1551 23.0006 37.0415 23.1025 36.9013 23.2213C36.776 23.3274 36.6309 23.3972 36.5049 23.5014C36.378 23.6064 36.2956 23.7602 36.1673 23.8579C36.0357 23.9582 35.8745 24.0683 35.7201 24.1247C35.498 24.2058 35.3219 24.3152 35.1235 24.4397" stroke="white" stroke-width="1.5" stroke-linecap="round"/>
<path d="M51.3637 12.376C51.433 12.3915 51.4564 12.4666 51.4945 12.5195C51.562 12.6131 51.7305 12.7462 51.7481 12.864C51.7589 12.9359 51.6214 13.0185 51.58 13.053C51.4422 13.1672 51.3203 13.3054 51.2063 13.443C51.0505 13.6309 50.9211 13.8237 50.8352 14.0489C50.789 14.17 50.6515 14.3868 50.5082 14.3961C50.4153 14.4021 50.3199 14.3536 50.2239 14.3545C50.0776 14.3558 49.9428 14.4034 49.8022 14.4376C49.6485 14.4749 49.4905 14.509 49.3324 14.518C49.1564 14.5281 49.1433 14.5742 48.9809 14.518C48.7452 14.4365 48.3481 14.2564 48.0965 14.258C47.7955 14.2599 47.5067 14.3017 47.2129 14.3652C46.8329 14.4474 46.4509 14.4621 46.0651 14.5006C45.7186 14.5352 45.3752 14.5813 45.0374 14.6682C44.6615 14.7648 44.2993 14.8982 43.9149 14.9617C43.6198 15.0105 43.2888 14.9872 43.002 15.0703C42.1467 15.3181 41.8118 16.0694 41.3457 16.7485C41.0922 17.1176 40.8245 17.4804 40.5275 17.8155C40.3671 17.9964 40.2054 18.1809 40.0884 18.3945C39.9882 18.5775 39.9374 18.7831 39.8335 18.9642C39.7489 19.1116 39.5784 19.2039 39.4344 19.2832C39.1025 19.4661 38.7343 19.5656 38.372 19.6679C38.0771 19.7512 37.7903 19.8046 37.4831 19.8046C36.9403 19.8046 36.424 19.6242 35.8815 19.6143C35.7723 19.6123 35.6591 19.6237 35.5505 19.6089C35.3529 19.582 35.2296 19.4705 35.062 19.3623C34.5753 19.0479 34.0385 19.0343 33.4871 18.92C33.2777 18.8766 33.0738 18.8278 32.8811 18.7323C32.6279 18.6067 32.4088 18.4221 32.1551 18.298C31.938 18.1918 31.7164 18.1579 31.5198 18.0098C31.3271 17.8647 31.1294 17.7241 30.9432 17.5715C30.5967 17.2876 30.1623 17.1299 29.8087 16.8477C29.4592 16.5687 29.2017 16.1969 28.8865 15.8826C28.6469 15.6437 28.3703 15.4302 28.0843 15.2499C27.7868 15.0623 27.477 14.9557 27.1327 14.896C26.9037 14.8564 26.7415 14.7592 26.5374 14.6682C26.4841 14.6443 26.5624 14.5241 26.5761 14.5073C26.6378 14.4314 26.7351 14.3546 26.8057 14.2928C27.0511 14.0781 27.279 13.8513 27.5077 13.6186C28.023 13.0944 28.5746 12.6065 29.0853 12.0785C29.2394 11.9192 29.343 11.7117 29.5017 11.5611C29.7155 11.3583 29.8678 11.0249 30.1958 11.0249C30.3644 11.0249 30.5736 11.1926 30.6936 11.301C30.8164 11.412 30.9 11.5847 31.0153 11.7005" stroke="white" stroke-width="1.5" stroke-linecap="round"/>
<path d="M35.9238 8.15035C35.8808 7.99895 35.9813 7.79422 35.9813 7.63363C36.0688 7.45758 36.5976 7.7895 36.3125 8.14355C36.2454 8.22703 35.97 8.31294 35.9238 8.15035Z" fill="#040D08" stroke="white" stroke-width="1.5" stroke-linecap="round"/>
<path d="M42.8393 5.92028C42.7148 5.95801 42.5872 5.96127 42.4684 5.97631C42.3822 6.00456 42.2885 6.03616 42.1902 6.06982C41.3083 6.37174 40.0582 6.84002 40.5917 6.55938C40.939 6.37666 41.3312 6.26003 41.6918 6.10045C42.0659 5.93488 42.4865 5.77717 42.8934 5.71631C42.9639 5.70577 43.1786 5.74078 43.2973 5.76748C43.356 5.78068 43.3912 5.79185 43.3741 5.79449C43.1846 5.82377 43.0266 5.86347 42.8393 5.92028Z" fill="#040D08"/>
<path d="M42.5008 5.36956C42.333 5.3602 42.1844 5.2914 42.0134 5.33556C41.7813 5.3955 41.5828 5.56874 41.3702 5.67551C41.024 5.84938 40.6587 5.95956 40.348 6.19903C39.9521 6.50412 40.0053 6.74767 40.5037 6.88573C41.1525 7.06549 41.7143 6.79551 42.0743 6.19903C42.2482 5.91087 42.5521 6.00735 42.8393 5.92028C43.0266 5.86347 43.1846 5.82377 43.3741 5.79449C43.4259 5.78649 42.9987 5.70056 42.8934 5.71631C42.4865 5.77717 42.0659 5.93488 41.6918 6.10045C41.3312 6.26003 40.939 6.37666 40.5917 6.55938C39.9294 6.9078 42.0162 6.10187 42.7344 5.89308C43.0002 5.8158 43.2768 5.78656 43.5332 5.70611C43.5933 5.68723 43.8858 5.69689 43.8988 5.63812C43.944 5.43365 43.841 5.39373 43.6923 5.30837C43.2851 5.0747 42.5313 5.24702 42.318 5.67551" stroke="white" stroke-width="1.5" stroke-linecap="round"/>
<path d="M44.6943 8.18439C45.1098 8.18439 45.6026 7.91189 45.9671 7.72886C46.1966 7.61361 46.4987 7.50262 46.6914 7.34131C47.0632 7.03023 47.6528 7.50447 47.5445 7.93962C47.3634 8.66704 46.1029 8.44161 45.5947 8.57873C45.4098 8.62862 45.2396 8.72831 45.043 8.72831C44.7538 8.72831 45.4693 8.35343 45.4932 8.34416C45.8993 8.18686 46.4706 8.17812 46.8268 7.93962" stroke="white" stroke-width="1.5" stroke-linecap="round"/>
<path d="M49.873 10.5708C50.0753 10.1194 50.3243 9.58457 50.6042 9.17698C50.7714 8.93347 51.0519 9.24966 51.227 9.29936C51.5727 9.39747 51.9178 9.51229 51.7957 9.94527C51.7477 10.1156 51.2773 11.045 51.0307 10.8495C50.8947 10.7417 50.7526 10.5385 50.6719 10.394C50.6508 10.3563 50.8058 10.3093 50.7633 10.3022C50.5698 10.2698 50.4577 10.5235 50.3605 10.632" stroke="white" stroke-width="1.5" stroke-linecap="round"/>
<path d="M55.4229 13.6833C55.4527 13.4016 55.5047 13.1158 55.5509 12.8375C55.588 12.6137 55.7483 12.415 55.982 12.3774C56.0553 12.3657 56.1158 12.385 56.1774 12.4248C56.3766 12.5536 56.5267 12.7221 56.7602 12.7936C56.9899 12.8639 57.0654 12.9396 56.9488 13.1962C56.906 13.2903 56.3136 14.328 56.1808 13.9066C56.0926 13.627 56.2048 13.3207 56.3425 13.0811C56.4112 12.9615 56.4138 12.8265 56.484 12.709" stroke="white" stroke-width="1.5" stroke-linecap="round"/>
<path d="M58.9092 15.4797C58.8677 15.5058 58.8521 15.1197 58.8536 15.0755C58.8598 14.8916 58.9608 14.7214 59.0338 14.5579C59.1232 14.3577 59.2079 14.1555 59.3151 13.9641C59.4023 13.8085 59.4754 13.6516 59.5155 13.477C59.5464 13.3425 59.5293 13.2338 59.6537 13.1488C59.7378 13.0913 59.818 13.0932 59.8979 13.1556C60.0615 13.2834 60.2522 13.3569 60.4183 13.482C60.4818 13.5298 60.5479 13.6251 60.6238 13.6529C60.7707 13.7065 60.6987 13.8204 60.6524 13.9523C60.5473 14.2524 60.4179 14.5365 60.3105 14.837C60.2596 14.9793 60.1638 15.1167 60.0916 15.2497C60.0088 15.402 59.8847 15.6828 59.7244 15.7589C59.6083 15.8139 59.4195 15.7899 59.2932 15.7842C59.0943 15.7753 59.3329 15.2668 59.3572 15.2023C59.46 14.9303 59.6434 14.6974 59.7278 14.4208C59.7612 14.3111 59.8136 14.2325 59.8794 14.14" stroke="white" stroke-width="1.5" stroke-linecap="round"/>
</svg>
