<svg width="82" height="36" viewBox="0 0 82 36" fill="none" xmlns="http://www.w3.org/2000/svg">
<path d="M11.3192 2.81701C11.082 3.20298 11.1436 3.47156 10.7937 3.80274C10.2198 4.34586 9.65844 5.03482 9.11445 5.63013C8.38397 6.42952 7.85759 7.08279 7.28783 8.04895C6.95442 8.61432 6.67858 9.20433 6.35849 9.77777C4.92997 12.337 3.85134 15.1528 2.62191 17.838C2.22111 18.7134 1.91338 19.9254 1.76949 20.9089C1.5349 22.5124 1.16702 24.0751 1.16702 25.739C1.16702 26.6092 0.861117 27.6541 1.07729 28.5066C1.25944 29.2249 1.59784 29.5476 1.96177 30.1217C2.61536 31.1527 3.01341 32.1672 3.92299 33.0106C4.52268 33.5667 5.21978 33.6991 5.92266 33.966C6.67765 34.2527 7.42863 34.6448 8.21075 34.8153C10.3873 35.2896 12.7605 34.7644 14.8699 34.2087C18.5998 33.226 22.2888 32.4147 25.8617 30.7889C28.478 29.5985 31.0707 28.34 33.6874 27.1493C39.0102 24.7273 43.8285 20.8855 49.0695 18.2095C50.6956 17.3793 52.2325 16.3466 53.8508 15.5102C55.9376 14.4315 58.0919 13.4109 60.2216 12.4544C62.0039 11.6539 63.8318 11.0203 65.6566 10.3768C68.501 9.37371 71.2965 7.62755 73.9245 6.032C75.5166 5.06532 76.916 3.7176 78.5263 2.81701C79.3605 2.35048 80.2109 1.87598 81.0002 1.31567" stroke="#F2F2F2" stroke-width="2" stroke-linecap="round"/>
<path d="M11.55 4.72774C11.4627 5.70914 10.9258 6.74229 10.6142 7.64701C10.1144 9.09854 9.49967 10.734 9.3324 12.2951C9.24837 13.0794 9.24268 13.8402 9.24268 14.6305C9.24268 15.618 9.61314 16.1439 10.1207 16.8749C10.7534 17.7861 12.0863 18.4609 12.96 18.9526C14.6355 19.8953 16.3784 20.3225 18.1964 20.6965C20.5739 21.1857 23.4125 21.2853 25.7913 20.7269C27.5781 20.3074 29.2665 19.986 31.0148 19.3241C33.5303 18.3718 36.0011 17.3616 38.4815 16.2987C41.9569 14.8094 45.3946 13.2325 48.9991 12.2344C50.6398 11.7802 52.3137 11.5602 53.9534 11.0819C56.0533 10.4694 58.1214 9.67244 60.2344 9.12561C61.9153 8.69061 63.5411 7.96566 65.2464 7.66976C66.7047 7.41673 68.2802 6.91102 69.656 6.27458C71.1462 5.58517 72.6469 5.10664 74.1937 4.62159C76.2851 3.96577 78.2979 3.07329 80.3081 2.13452" stroke="#F2F2F2" stroke-width="2" stroke-linecap="round"/>
</svg>
