<svg width="77" height="42" viewBox="0 0 77 42" fill="none" xmlns="http://www.w3.org/2000/svg">
<path d="M49.6913 1.25892C48.5826 1.35676 47.2973 1.42733 46.3278 1.95917C44.8389 2.77594 43.5041 3.80987 41.9968 4.58848C40.4933 5.36515 38.8864 6.06257 37.5071 6.99642C36.7673 7.49733 35.9481 7.86424 35.2034 8.33366C34.9 8.52492 34.661 8.83307 34.3433 9.04746C33.3417 9.72336 34.2513 10.6606 34.5737 11.4193C34.8244 12.0093 35.0437 12.538 35.5976 12.9779C36.6031 13.7765 36.7763 15.2349 37.4764 16.2351C37.8115 16.7139 38.0401 17.2832 38.3569 17.7802C38.6375 18.2203 38.732 18.7257 39.0224 19.1671C39.3142 19.6105 39.6787 20.0388 39.8723 20.527C40.1787 21.2996 40.9505 22.0344 41.5105 22.6819C42.239 23.5244 42.8817 24.4344 43.5889 25.2932C43.9332 25.7112 44.3306 26.288 44.5104 26.793C44.6494 27.1833 44.9473 27.6008 45.1964 27.9496C45.3571 28.1745 45.565 28.3871 45.7698 28.5821C46.2398 29.0295 46.5515 29.6023 46.8961 30.1271C47.5685 31.1515 48.1006 32.165 48.8824 33.1359C49.8249 34.3065 50.6615 35.5494 51.6213 36.7139C51.7745 36.8999 51.8145 37.116 52.0462 37.2425C52.2986 37.3804 52.4186 37.5291 52.5428 37.7666C52.7748 38.2102 53.0831 38.5766 53.3261 39.018C53.5774 39.4747 53.7816 40.039 54.4011 40.1384C55.8933 40.3778 57.4441 40.3727 58.9625 40.4591C62.9981 40.6889 67.0396 40.6986 71.0904 40.6986C71.7286 40.6986 72.3668 40.6986 73.005 40.6986C73.4082 40.6986 74.391 40.609 74.5716 40.2107C74.664 40.0067 74.9818 39.9818 75.1193 39.8402C75.3153 39.6384 75.4604 39.4088 75.534 39.149C75.7767 38.2925 75.153 37.7236 74.7354 37.0392C74.1066 36.0088 73.4306 35.0148 72.7491 34.0124C71.1678 31.6867 69.5861 29.3174 67.8242 27.0912C66.7839 25.7768 65.7048 24.3896 65.1263 22.8581C64.7967 21.9857 64.1492 21.2467 63.6877 20.4321C62.9272 19.0898 61.571 18.0341 60.8925 16.6734C60.2212 15.327 59.0383 14.168 58.3175 12.8469C57.7553 11.8165 56.95 10.9021 56.3465 9.88776C55.8524 9.0572 55.2447 8.30198 54.6878 7.5024C54.4545 7.16745 54.2759 6.77426 54.0018 6.46333C53.6314 6.0431 53.3233 5.57652 53.1008 5.08091C52.8512 4.52507 52.5026 3.98938 52.251 3.41839C51.9179 2.66247 51.4183 1.91734 50.7971 1.34024C50.6166 1.17264 50.66 1.01496 50.3363 1.01496C50.0391 1.01496 49.6663 0.94833 49.4148 1.09628" stroke="white" stroke-width="2" stroke-linecap="round"/>
<path d="M47.2444 6.68914C47.438 6.59888 47.6372 6.42696 47.8516 6.34467C47.8929 6.0988 48.3382 5.97534 48.5857 5.97534C48.9659 5.97534 48.9652 6.26314 49.1488 6.54909C49.4214 6.97355 49.7075 7.43336 50.0191 7.83664C50.5537 8.52862 51.213 9.27978 51.6215 10.0458C51.9982 10.7522 52.4721 11.4229 52.886 12.1194C53.2512 12.734 53.5598 13.3788 53.9815 13.9627C55.3061 15.7962 56.5887 17.6367 57.9388 19.4698C59.4273 21.4905 61.227 23.4426 62.4285 25.6364C62.807 26.3275 63.4104 26.9875 63.9029 27.6242C64.2508 28.0741 64.4663 28.625 64.6964 29.1286C65.0987 30.009 65.5725 30.8484 66.1299 31.6586C66.6277 32.3822 66.9786 33.2167 67.6196 33.8632C68.0483 34.2955 69.4111 36.6235 69.2271 36.6326C68.3137 36.6773 67.3767 36.6435 66.4626 36.6326C65.5679 36.6219 64.6607 36.541 63.7647 36.5106C62.7232 36.4752 61.6847 36.5111 60.6572 36.3525C59.9409 36.2418 59.0646 36.2311 58.3535 36.3705C58.0306 36.4338 57.6278 36.3994 57.2989 36.3841C56.7922 36.3606 56.4711 36.3676 56.188 36.0678C54.0317 33.7844 52.4676 31.1112 50.7102 28.591C49.6867 27.1233 48.6977 25.6447 47.7051 24.1456C47.2531 23.4628 46.7564 22.8244 46.3946 22.0946C46.1669 21.6353 45.9845 21.1414 45.7188 20.6986C45.2819 19.9704 44.6343 19.2795 44.1369 18.5753C43.4879 17.6562 42.7767 16.7032 42.2274 15.7336C41.7371 14.8683 41.2624 13.9627 40.6711 13.1495C40.1879 12.4849 39.4169 12.0337 38.9817 11.3424C38.6282 10.7808 39.1301 10.7482 39.6882 10.4885C40.8661 9.94045 41.9103 9.25349 43.0567 8.64079C43.9972 8.13813 44.9473 7.65415 45.9133 7.19513C46.3385 6.99312 46.8117 6.89088 47.2444 6.68914Z" fill="#040D08"/>
<path d="M48.0328 6.30062C47.7477 6.32577 47.4914 6.57396 47.2444 6.68914C46.8117 6.89088 46.3385 6.99312 45.9133 7.19513C44.9473 7.65415 43.9972 8.13813 43.0567 8.64079C41.9103 9.25349 40.8661 9.94045 39.6882 10.4885C39.1301 10.7482 38.6282 10.7808 38.9817 11.3424C39.4169 12.0337 40.1879 12.4849 40.6711 13.1495C41.2624 13.9627 41.7371 14.8683 42.2274 15.7336C42.7767 16.7032 43.4879 17.6562 44.1369 18.5753C44.6343 19.2795 45.2819 19.9704 45.7188 20.6986C45.9845 21.1414 46.1669 21.6353 46.3946 22.0946C46.7564 22.8244 47.2531 23.4628 47.7051 24.1456C48.6977 25.6447 49.6867 27.1233 50.7102 28.591C52.4676 31.1112 54.0317 33.7844 56.188 36.0678C56.4711 36.3676 56.7922 36.3606 57.2989 36.3841C57.6278 36.3994 58.0306 36.4339 58.3535 36.3705C59.0646 36.2311 59.9409 36.2418 60.6572 36.3525C61.6847 36.5111 62.7232 36.4752 63.7647 36.5106C64.6607 36.541 65.5679 36.6219 66.4626 36.6326C67.3767 36.6435 68.3137 36.6773 69.2271 36.6326C69.4111 36.6235 68.0483 34.2955 67.6196 33.8632C66.9786 33.2167 66.6277 32.3822 66.1299 31.6586C65.5725 30.8484 65.0987 30.009 64.6964 29.1286C64.4663 28.625 64.2508 28.0741 63.9029 27.6242C63.4104 26.9875 62.807 26.3275 62.4285 25.6364C61.227 23.4426 59.4273 21.4905 57.9388 19.4698C56.5887 17.6367 55.3061 15.7962 53.9815 13.9627C53.5598 13.3788 53.2512 12.734 52.886 12.1194C52.4721 11.4229 51.9982 10.7522 51.6215 10.0458C51.213 9.27978 50.5537 8.52862 50.0191 7.83664C49.7075 7.43336 49.4214 6.97355 49.1488 6.54909C48.9652 6.26314 48.9659 5.97534 48.5857 5.97534C48.326 5.97534 47.8485 6.11127 47.8485 6.38194" stroke="white" stroke-width="2" stroke-linecap="round"/>
<path d="M33.2887 13.9446C32.3196 13.9446 31.6032 14.1679 30.729 14.5952C29.7416 15.0777 28.8529 15.7118 27.8724 16.2035C27.2151 16.533 26.3869 16.8589 25.8246 17.3148C24.8759 18.0842 23.5286 18.4288 22.5789 19.2123C22.0789 19.6247 21.5431 20.0419 20.8997 20.2423C20.46 20.3793 20.0637 20.6295 19.6864 20.8657C19.3894 21.0518 18.8612 21.199 18.637 21.444C18.2721 21.8426 17.8121 21.8699 17.5312 22.3656C17.14 23.0561 17.8995 23.8014 18.1046 24.4347C18.285 24.9921 18.7849 25.4361 19.1182 25.9165C19.8428 26.961 20.4982 28.1168 21.4014 29.0518C22.9704 30.6761 23.9687 32.6246 25.3434 34.3737C25.757 34.9 25.977 35.3847 26.4901 35.8374C26.8951 36.1948 27.2088 36.7137 27.3758 37.1928C27.4787 37.4879 27.4826 37.8454 27.6676 38.1144C27.9573 38.5355 28.1029 39.0038 28.4048 39.4245C29.2552 40.6094 31.1069 40.4546 32.4594 40.4546C33.5498 40.4546 34.6546 40.6172 35.7511 40.6172C38.3492 40.6172 40.9722 40.8403 43.5633 40.6172C44.8295 40.5082 46.1779 40.4842 47.408 40.1925C47.9915 40.0542 49.7818 39.9526 49.9728 39.1941C50.0166 39.0202 50.0584 38.9059 50.2032 38.8101C50.4341 38.6573 50.1268 37.6847 50.0957 37.5677C49.9594 37.0551 49.8076 36.5619 49.3739 36.1898C49.0717 35.9306 48.7563 35.7081 48.4933 35.4128C47.1036 33.8519 46.5373 31.9124 45.3705 30.2536C44.6877 29.2828 44.2838 28.1753 43.5173 27.2357C43.1389 26.772 42.7653 26.3146 42.4524 25.8126C41.45 24.2042 40.6193 22.4869 39.4166 20.9787C38.6477 20.0144 38.0695 18.9303 37.2306 18.0105C37.0001 17.7578 36.7924 17.4431 36.5344 17.2154C36.3703 17.0706 36.1431 16.9957 36.0071 16.8224C35.1598 15.7423 34.8542 14.258 33.2887 13.8633" stroke="white" stroke-width="2" stroke-linecap="round"/>
<path d="M30.1762 19.6189C30.8081 19.2719 31.406 18.7045 32.183 18.5798C32.9119 20.027 33.7936 21.4468 34.5789 22.8762C35.3448 24.2703 36.5422 25.4648 37.4355 26.793C38.5961 28.5187 39.875 30.1921 41.06 31.9071C41.843 33.0402 42.5343 34.3013 43.6095 35.2502C44.0974 35.6808 44.4053 35.9323 44.2597 36.5106C44.1852 36.8065 42.616 36.5821 42.3911 36.5694C41.0264 36.4919 39.6858 36.3073 38.316 36.3073H35.7819C34.5021 36.3073 33.2271 36.4184 31.9475 36.3887C31.5771 36.3801 31.4425 35.9362 31.3076 35.6929C31.0829 35.2877 30.78 34.95 30.5448 34.5635C28.9942 32.0155 27.2411 29.5266 25.4971 27.0641C24.8869 26.2026 24.1594 25.4651 23.3879 24.7194C23.1419 24.4817 22.6409 23.8244 22.9271 23.4996C23.4125 22.9489 24.047 22.7977 24.7189 22.5012C25.3496 22.2229 26.0276 21.9286 26.6131 21.5841C27.7759 20.9 28.9912 20.2696 30.1762 19.6189Z" fill="#040D08" stroke="white" stroke-width="2" stroke-linecap="round"/>
<path d="M17.4391 26.5491C16.3861 26.4458 15.2613 26.3866 14.2651 26.7885C14.0304 26.8832 13.8774 26.9752 13.6866 27.1273C13.1301 27.5709 12.4002 27.865 11.7668 28.2116C10.9597 28.6533 10.136 29.0868 9.35045 29.5579C8.89269 29.8324 8.48076 30.1666 8.07572 30.4976C7.42091 31.0326 6.63296 31.4445 5.92046 31.9161C5.17382 32.4103 4.41816 32.977 3.57065 33.3347C3.17901 33.5 2.91809 33.7285 2.55701 33.9129C1.96428 34.2158 1.70418 34.3942 1.58944 34.9701C1.50363 35.4008 1.32345 36.1981 1.70207 36.5694C2.00683 36.8682 2.38506 37.2286 2.60308 37.5813C2.8618 37.9999 3.05642 38.4506 3.30956 38.8734C3.55453 39.2825 3.93871 39.6765 4.15426 40.0887C4.37223 40.5054 4.72113 40.4915 5.27541 40.5359C6.04982 40.598 6.80974 40.7493 7.58426 40.8205C10.8996 41.1253 14.2138 40.9899 17.5313 40.7979C19.0304 40.7112 20.5196 40.6832 22.0107 40.4953C22.6437 40.4155 24.2906 40.6934 24.7189 40.1474C25.0518 39.7231 25.5194 39.0536 25.4561 38.5029C25.3263 37.3741 24.4096 36.1938 23.7001 35.2547C23.3897 34.8438 23.0077 34.4805 22.6916 34.062C21.961 33.095 21.4135 32.0242 20.6695 31.0623C20.1546 30.3966 19.6147 29.6394 19.2821 28.8892C19.0909 28.4581 18.8105 28.0822 18.6166 27.6514C18.3342 27.0242 18.0185 26.7234 17.4391 26.3051" stroke="white" stroke-width="2" stroke-linecap="round"/>
<path d="M15.8723 31.3472C15.4025 31.3886 14.8607 31.6497 14.4696 31.8712C13.4609 32.4427 12.3703 32.9004 11.2956 33.3711C10.3507 33.785 9.3137 34.0856 8.42874 34.5999C7.92135 34.8948 7.46705 35.3281 6.93387 35.5758C6.72187 35.6742 5.79001 35.8313 6.21716 36.2082C6.46269 36.4249 7.20775 36.3438 7.52772 36.3709C8.43564 36.4476 9.3418 36.4482 10.2512 36.4883C12.4545 36.5855 14.6385 36.6329 16.845 36.6329C17.1577 36.6329 19.2318 36.8518 19.3535 36.4341C19.6211 35.5159 18.3953 34.617 17.8484 33.9945C17.1328 33.18 16.6644 32.1707 15.9645 31.3472" stroke="white" stroke-width="2" stroke-linecap="round"/>
</svg>
