<svg width="92" height="42" viewBox="0 0 92 42" fill="none" xmlns="http://www.w3.org/2000/svg">
<path d="M43.3351 5.947C43.3172 5.79098 43.0783 5.72892 42.9714 5.62505C42.7709 5.43025 42.6076 5.174 42.4137 4.96545C42.0391 4.56275 41.6527 4.17111 41.262 3.79152C40.7728 3.31631 40.0854 2.96701 39.5202 2.57048C38.838 2.09178 38.0461 1.81158 37.3299 1.38084C36.7294 1.01966 36.317 1 35.6246 1C34.9701 1 34.5697 1.57327 33.992 1.77739C33.6641 1.89322 33.2755 2.17794 32.9574 2.35453C32.6722 2.5129 32.4769 2.75589 32.1694 2.87279C31.9649 2.95054 31.7484 3.02705 31.5511 3.12014C30.8439 3.45388 30.1611 3.82481 29.5912 4.28622C29.3811 4.45631 28.9911 4.5319 28.8759 4.80055C28.8014 4.97428 28.6091 5.11675 28.5001 5.27562C28.2745 5.60439 28.0596 6.18215 28.0596 6.58304C28.0596 6.79505 28.0596 7.00707 28.0596 7.21908C28.0596 7.59878 28.0891 7.3659 28.3182 7.18375C28.8737 6.74215 29.6456 6.57405 30.1852 6.10404C30.4595 5.86511 30.9295 5.76232 31.2601 5.60935C31.6648 5.42215 32.071 5.2284 32.4967 5.06753C32.9358 4.90163 33.4547 4.87468 33.9152 4.8084C34.4579 4.73029 34.9885 4.49248 35.5518 4.4629C36.0163 4.4385 36.4441 4.32156 36.9177 4.32156C37.4211 4.32156 37.8944 4.34774 38.3928 4.39615C38.8165 4.43732 39.3429 4.5871 39.6657 4.84374C39.9286 5.05269 40.4843 5.04912 40.8053 5.16961C41.3433 5.37156 42.1758 5.73498 42.7531 5.73498" stroke="white" stroke-width="1.5" stroke-linecap="round"/>
<path d="M36.4245 4.60439C35.7398 4.30869 34.9845 4.79233 34.3151 4.90278C33.5521 5.02864 32.8736 5.37482 32.149 5.60949C31.7683 5.73278 31.2884 5.83064 30.9852 6.10419C30.7771 6.29189 30.5027 6.3724 30.282 6.54785C30.0843 6.70502 29.7474 6.89512 29.5102 6.9758C29.2181 7.07513 28.9801 7.24578 28.6979 7.36057C28.4812 7.44869 28.4148 7.5849 28.2412 7.67859C27.9087 7.85809 27.5789 8.11013 27.2997 8.38138C26.7544 8.9111 26.0228 9.23806 25.368 9.60635C25.147 9.73064 25.0605 9.9062 24.7942 10.0068C24.5973 10.0812 24.4493 10.2356 24.2607 10.3131C23.6881 10.5484 23.1351 10.9173 22.4745 10.9648C22.2267 10.9826 22.048 11.0792 21.8401 11.169C21.6681 11.2432 21.356 11.1939 21.1652 11.2318C20.6479 11.3346 20.1352 11.3215 19.6215 11.3928C18.7017 11.5204 17.9723 11.3751 17.0998 11.0669C16.7435 10.941 16.1415 10.8437 15.7663 10.8235C15.244 10.7953 15.0531 10.4197 14.6347 10.1874C14.3624 10.0362 14.1792 9.41618 14.0245 9.16269C13.8559 8.88614 13.7673 8.57933 13.5679 8.31856C13.4372 8.1476 13.2049 7.95871 13.1112 7.77675C12.8659 7.29997 12.4964 6.89112 12.2747 6.40651C12.1205 6.06939 11.8772 5.53383 11.5635 5.3111C10.9502 4.8757 10.1184 4.60439 9.38127 4.60439C8.67799 4.60439 7.82152 5.05751 7.22331 5.38962C7.11064 5.45217 7.04692 5.64413 6.89194 5.71942C6.72492 5.80056 6.56857 5.8028 6.41912 5.91573C6.2513 6.04255 6.09179 6.48927 6.09179 6.68919C6.09179 6.86437 5.88362 6.97278 5.87357 7.14856C5.86672 7.26828 5.90375 7.4063 5.8372 7.50976C5.79791 7.57083 5.65969 7.92075 5.65535 7.99661C5.64671 8.14772 5.5463 8.32232 5.4937 8.47561C5.38823 8.78301 5.09181 9.17707 5.07342 9.48071C5.05323 9.81429 4.97898 10.0798 4.93199 10.3994C4.84244 11.0084 4.92794 11.6908 4.92794 12.3076" stroke="white" stroke-width="1.5" stroke-linecap="round"/>
<path d="M34.0244 29.1979C33.3775 29.1193 32.8663 28.5008 32.3473 28.1731C31.9501 27.9223 31.4966 27.7202 31.1309 27.4311C30.701 27.0911 30.1894 26.9308 29.7489 26.6144C28.9986 26.0756 27.9621 25.6972 27.11 25.3384C26.6526 25.1459 26.1347 24.8421 25.7239 24.565C24.9994 24.0762 24.0729 23.7992 23.2709 23.4421C22.3542 23.0338 21.5662 22.3913 20.6806 21.9187C19.5812 21.332 18.6084 20.5713 17.4557 20.0655C16.9959 19.8638 16.5987 19.604 16.1585 19.3745C15.3538 18.955 14.3919 18.6728 13.649 18.1731C12.9494 17.7026 12.127 17.3726 11.4021 16.9325C10.8248 16.5819 10.2425 16.251 9.66039 15.9116C9.28189 15.691 8.95251 15.4042 8.56525 15.1892C8.30732 15.046 7.9419 14.8165 7.7651 14.5846C7.38627 14.0877 6.76263 13.7945 6.34666 13.3282C5.94498 12.8779 5.54847 12.5486 5.05754 12.2367C4.52933 11.9012 4.37903 12.3149 4.03918 12.6451C3.45164 13.2159 3.76438 14.1456 3.76438 14.8869C3.76438 15.1644 3.41767 15.4024 3.40068 15.6996C3.37378 16.17 2.96423 16.4976 2.96423 16.9717C2.96423 17.3207 2.89149 17.7015 2.89149 18.071C2.89149 18.4362 3.02188 19.0542 2.87533 19.3745C2.70478 19.7474 2.45505 19.855 2.45505 20.2933C2.45505 20.5741 2.30957 20.7465 2.30957 21C2.30957 21.1793 2.30957 21.3586 2.30957 21.5379C2.30957 21.7915 2.45505 21.9769 2.45505 22.2564C2.45505 22.6088 2.52712 22.9531 2.58437 23.3007C2.63601 23.6143 2.53464 23.9534 2.65711 24.2509C2.78126 24.5524 2.74601 25.0563 2.74601 25.3816C2.74601 25.7178 2.75366 26.2292 3.00465 26.4731C3.44328 26.8992 4.15722 27.0319 4.74637 27.0816C5.64906 27.1579 6.49613 27.5127 7.4014 27.6274C8.04369 27.7088 8.69902 27.8154 9.32902 27.965C9.98108 28.1199 10.6599 28.0983 11.2971 28.2477C13.5946 28.7865 16.0956 28.5618 18.4418 28.5618C20.0664 28.5618 21.7016 28.4912 23.3316 28.4912C24.0014 28.4912 24.6686 28.521 25.336 28.5657C25.9194 28.6048 26.4703 28.7884 27.0413 28.8367C29.2627 29.0243 31.5025 29.1272 33.7334 29.1272" stroke="white" stroke-width="1.5" stroke-linecap="round"/>
<path d="M4.20028 14.5688C3.97737 14.5688 3.95983 15.3904 3.91336 15.5936C3.88581 15.714 3.74982 15.9248 3.79617 15.998C3.9276 16.2055 4.12703 16.3569 4.28919 16.5319C4.44611 16.7013 4.44632 16.8137 4.6731 16.9324C4.91113 17.0569 5.16111 17.1684 5.4005 17.2936C5.64799 17.4231 5.8164 17.5363 6.07537 17.6234C6.2323 17.6762 6.43484 17.8904 6.60072 17.8904C7.08579 17.8904 7.33772 17.3583 7.80093 17.2583C8.03044 17.2087 7.72319 17.043 7.61908 16.9874C7.31736 16.8261 7.08761 16.565 6.78661 16.4063C6.45969 16.2339 6.239 15.9775 5.91776 15.8095C5.75553 15.7246 5.61384 15.6595 5.47324 15.5229C5.03452 15.0966 4.68962 14.6427 4.20028 14.2861" stroke="white" stroke-width="1.5" stroke-linecap="round"/>
<path d="M3.18229 17.6785C3.18229 18.0303 3.16325 18.3872 3.18229 18.7385C3.21023 19.2543 3.88033 18.9155 4.05517 18.7032C4.21033 18.5148 4.95142 18.4965 4.45929 18.2792C4.28175 18.2008 3.53312 17.8655 3.47325 17.7491" stroke="white" stroke-width="1.5" stroke-linecap="round"/>
<path d="M8.49219 19.2331C8.82842 19.5598 9.19524 19.8455 9.52672 20.1676C9.91453 20.5443 10.4564 20.6092 10.8886 20.8978C11.2047 21.109 11.4278 21.4239 11.8423 21.4239C12.2301 21.4239 12.8616 21.4656 13.188 21.2119C13.3498 21.0862 13.4385 21.1891 13.4385 20.9449C13.4385 20.708 13.2112 20.6527 13.0425 20.5052C12.4834 20.0163 11.7513 19.6025 11.0704 19.3038C10.7474 19.1621 10.3705 18.9504 10.0117 18.9504C9.72199 18.9504 8.78589 19.0158 8.63767 19.3038" stroke="white" stroke-width="1.5" stroke-linecap="round"/>
<path d="M5.50977 20.5761C5.74976 20.6227 6.02608 20.9194 6.22101 21.0551C6.46012 21.2216 6.72602 21.3793 6.92012 21.5969C7.0572 21.7506 7.13761 21.9082 7.32828 22.0052C7.42637 22.0552 7.80796 22.2041 7.83342 22.3154C8.01062 23.0901 9.27072 21.9444 9.59939 21.9189C10.0135 21.8867 9.17556 21.1447 9.10638 21.0747C8.77256 20.7374 8.27068 20.418 7.86171 20.1796C7.46184 19.9465 7.04762 19.9671 6.6332 20.1521C6.35816 20.2749 5.8719 20.2965 5.72799 20.5761" stroke="white" stroke-width="1.5" stroke-linecap="round"/>
<path d="M11.0381 23.6856C11.3719 23.7047 11.6878 24.1268 11.9797 24.2864C12.1954 24.4043 12.1931 24.6776 12.4525 24.7496C13.2034 24.9581 14.0657 24.8871 14.861 24.8871C15.2856 24.8871 14.5713 24.4847 14.465 24.4002C14.2734 24.248 14.0676 24.1843 13.8386 24.1057C13.605 24.0257 13.481 23.8532 13.289 23.7249C13.0095 23.5382 12.7703 23.4736 12.4363 23.4736C12.2228 23.4736 11.5744 23.4917 11.4745 23.6856" stroke="white" stroke-width="1.5" stroke-linecap="round"/>
<path d="M14.9663 22.8375C14.9663 23.0641 15.0815 23.1199 15.2613 23.2654C15.5729 23.5177 15.9111 23.8579 16.2756 24.035C16.7252 24.2534 17.1293 24.5001 17.5122 24.8163C17.9423 25.1714 18.8797 25.099 19.4035 25.099C19.6906 25.099 19.9629 25.1047 20.244 25.044C20.4552 24.9984 20.7857 25.1141 20.9714 25.0126C21.0524 24.9683 20.5411 24.6564 20.4865 24.6317C20.091 24.4534 19.5755 24.1342 19.2499 23.8544C18.9082 23.5607 18.4908 23.499 18.1103 23.2772C17.7168 23.0478 17.3274 22.8857 16.8737 22.7825C16.5065 22.699 16.2739 22.3428 15.9079 22.3428C15.5417 22.3428 15.3148 22.6329 15.039 22.7668" stroke="white" stroke-width="1.5" stroke-linecap="round"/>
<path d="M23.1858 11.0355C23.032 11.0355 22.9922 11.1619 22.8463 11.1808C22.449 11.2323 22.0703 11.3084 21.6663 11.3182C21.1552 11.3306 20.6043 11.4539 20.1145 11.5852C19.105 11.8557 18.0238 11.9542 16.9745 11.9542C16.0019 11.9542 15.1708 11.162 14.2953 10.8785C13.8238 10.7258 13.4131 10.42 12.9617 10.2738C12.6612 10.1765 12.5973 9.76225 12.4565 9.51608C12.2934 9.23084 12.0982 8.8028 12.0524 8.49135C12.0023 8.15047 11.612 7.73547 11.4382 7.4352C11.2837 7.16847 11.0934 6.89835 10.9654 6.61856C10.8622 6.39304 10.7789 6.088 10.6178 5.93147C10.1891 5.51498 9.92805 5.09912 9.25597 5.09912C8.97957 5.09912 8.78899 5.22607 8.59726 5.38573C8.32948 5.60873 8.01903 5.80225 7.76479 6.04926C7.23935 6.55975 7.22891 7.06876 7.2556 7.76893C7.26364 7.9796 7.68638 8.46856 7.83753 8.63269C7.99007 8.79833 8.003 9.06734 8.09616 9.26481C8.21664 9.52019 8.37454 9.74267 8.52856 9.97545C8.65627 10.1684 8.83709 10.2247 9.01754 10.3602C9.21443 10.508 9.45915 10.8187 9.69241 10.8903C9.93373 10.9643 10.2084 11.2039 10.44 11.3339C10.6442 11.4485 10.881 11.6016 11.0543 11.7579C11.8523 12.4779 12.9871 12.8593 13.875 13.4344C14.6345 13.9264 15.7886 13.7397 16.6553 13.721C17.9245 13.6936 19.1294 13.1162 20.3893 13.0182C23.138 12.8046 25.8584 12.4151 28.5928 12.0642C29.7224 11.9192 30.8451 11.6009 31.9793 11.6009C33.2555 11.6009 34.5215 11.5302 35.8022 11.5302C36.7779 11.5302 38.1821 11.5736 39.0068 11.0394C39.6575 10.618 38.3568 10.0694 38.0814 9.90478C37.5325 9.57662 36.2412 9.40156 35.6809 9.73202C35.3819 9.90841 34.8923 9.95476 34.5494 10.0618C34.1658 10.1816 33.697 10.3288 33.2926 10.3288C32.5957 10.3288 31.4173 10.3713 31.1306 9.53571C30.9602 9.03909 30.5496 8.21618 30.9326 7.67863C31.5313 6.83847 32.433 6.68794 33.2967 6.19845C34.1627 5.70765 35.2472 5.66449 36.2225 5.66449C36.4448 5.66449 36.8509 5.58296 37.0226 5.71946C37.1503 5.82095 37.3437 5.768 37.4792 5.84117C37.5896 5.90075 37.7099 6.003 37.8187 6.04926C38.1263 6.18 38.3256 6.44117 38.6512 6.58715C38.8803 6.68989 38.9539 6.84108 39.1159 7.00725C39.2871 7.18282 39.5098 7.23307 39.714 7.36061C40.2949 7.72344 40.6226 8.2923 41.2981 8.52668C41.5835 8.62571 41.9432 8.63269 42.2478 8.63269C42.4146 8.63269 42.8518 8.46196 42.9712 8.50705C43.4413 8.68469 43.6258 9.61147 43.6258 10.0854C43.6258 10.279 43.4775 11.8469 43.6986 11.9542" stroke="white" stroke-width="1.5" stroke-linecap="round"/>
<path d="M51.6274 19.8694C51.8488 19.8933 52.1177 20.3209 52.2659 20.4583C52.5373 20.71 53.1316 20.9919 53.4702 21.1415C53.8969 21.3299 54.2122 21.6346 54.5775 21.9032C55.0446 22.2466 55.5499 22.5506 56.0202 22.9043C56.7953 23.4874 57.623 23.9669 58.3196 24.6436C58.6589 24.9733 59.0437 25.2607 59.3945 25.5781C59.7571 25.9061 60.1385 26.2811 60.5745 26.5164C60.8972 26.6906 61.3635 27.1163 61.5969 27.3998C61.9907 27.8781 62.5268 28.2051 62.9669 28.6326C63.6761 29.3217 64.586 29.8656 65.432 30.3837C65.9563 30.7049 66.5404 31.1197 66.8868 31.6244C66.981 31.7618 67.143 31.7712 67.2626 31.8874C67.433 32.053 67.5309 32.2893 67.7112 32.445C68.1799 32.8498 68.682 33.3838 69.2306 33.6503" stroke="white" stroke-width="1.5" stroke-linecap="round"/>
<path d="M27.9136 25.5232C28.0994 25.3628 28.5291 25.4525 28.7541 25.4525C29.2983 25.4525 29.8425 25.4525 30.3867 25.4525C31.6528 25.4525 32.8817 25.6008 34.1329 25.7745C35.4512 25.9574 36.7887 26.2642 38.0972 26.5126C39.3417 26.7489 40.5078 27.1339 41.6938 27.5687C42.7753 27.9652 44.0079 28.1213 44.9874 28.7466C45.3692 28.9904 45.8047 29.1366 46.1876 29.3787C46.3982 29.5119 46.5527 29.6885 46.7816 29.7949C47.1429 29.9628 47.4692 30.2573 47.8283 30.4545C48.4958 30.8211 49.2139 31.2602 49.8044 31.7384C50.1178 31.9921 50.7637 32.3356 50.8995 32.7317" stroke="white" stroke-width="1.5" stroke-linecap="round"/>
<path d="M42.9713 13.4382C42.8743 13.5429 42.7878 13.6727 42.7167 13.7955C42.5753 14.0398 42.4262 14.0963 42.2075 14.2588C41.5803 14.7247 41.1035 15.3713 40.5062 15.8724C40.0907 16.2211 39.7091 16.5755 39.3383 16.9718C39.1514 17.1715 39.099 17.4454 38.9261 17.6392C38.7507 17.8359 38.5497 17.9892 38.3927 18.2085C38.0331 18.7108 37.6367 19.0844 37.2086 19.5002C36.9673 19.7347 38.0727 19.8961 38.2108 19.94C38.6495 20.0793 38.9964 20.3115 39.407 20.5053C39.8518 20.7152 40.1104 20.3305 40.49 20.0538C40.9913 19.6885 41.2749 19.3892 41.4801 18.8131C41.6006 18.4749 42.0002 18.1135 42.2439 17.863C42.5834 17.5141 42.9246 17.2132 43.2905 16.8972C43.6569 16.5808 43.9715 16.0248 44.3978 15.8018C44.7547 15.6151 44.8846 15.3563 45.1535 15.095C45.3224 14.9309 45.8704 14.7004 45.59 14.4668C45.4332 14.3363 45.2164 14.2367 45.0242 14.1606C44.8084 14.0752 44.6449 13.8712 44.4584 13.7366C44.2402 13.5791 43.6379 13.2557 43.4077 13.3675" stroke="white" stroke-width="1.5" stroke-linecap="round"/>
<path d="M43.7715 19.1625C43.7715 18.6546 43.9006 18.1993 43.9156 17.7C44.0293 17.5699 44.1595 17.444 44.2483 17.329C44.4664 17.0465 44.8035 16.7792 45.0525 16.5162C45.4193 16.1289 45.7536 15.7281 46.1072 15.3227C46.2983 15.1037 46.1719 15.2833 46.1719 15.5033C46.1719 16.7084 46.2953 17.893 46.1719 19.0918C46.128 19.5187 45.6471 20.002 45.4041 20.3325C45.06 20.8005 44.4958 21.0941 44.1352 21.5496C44.0132 21.7036 44.0644 21.1406 44.0624 21.0549C44.0475 20.418 43.7715 19.8111 43.7715 19.1625Z" fill="#040D08"/>
<path d="M43.917 17.6077C43.917 18.1437 43.7715 18.6235 43.7715 19.1625C43.7715 19.8111 44.0475 20.418 44.0624 21.0549C44.0644 21.1406 44.0132 21.7036 44.1352 21.5496C44.4958 21.0941 45.06 20.8005 45.4041 20.3325C45.6471 20.002 46.128 19.5187 46.1719 19.0918C46.2953 17.893 46.1719 16.7084 46.1719 15.5033C46.1719 15.2833 46.2983 15.1037 46.1072 15.3227C45.7536 15.7281 45.4193 16.1289 45.0525 16.5162C44.8035 16.7792 44.4664 17.0465 44.2483 17.329C44.0852 17.5402 43.7823 17.7882 43.6987 18.0318" stroke="white" stroke-width="1.5" stroke-linecap="round"/>
<path d="M49.809 15.9116C49.5273 16.1853 49.2124 16.4641 48.9684 16.7675C48.7548 17.0332 48.5582 17.3089 48.3703 17.592C48.2401 17.7884 48.0161 17.8584 47.8814 18.0396C47.3045 18.8156 46.5878 19.4684 46.0224 20.2579C45.5834 20.8711 45.1564 21.5063 44.6848 22.0954C44.6556 22.1319 44.5108 22.2458 44.5313 22.2563C44.7628 22.3754 45.0532 22.4866 45.2991 22.5861C45.7074 22.7514 46.3005 22.9788 46.7539 22.9788C46.927 22.9788 47.0175 23.0588 47.1903 23.0494C47.3831 23.039 47.5847 22.8333 47.7116 22.7196C48.1096 22.3635 48.4035 22.0465 48.6856 21.5967C49.5235 20.2603 50.5191 19.0125 51.7891 18.0475C52.0752 17.8301 52.5541 17.4694 52.7024 17.1287C52.8541 16.7805 52.6768 16.7573 52.3549 16.6183C51.8634 16.4061 51.2407 16.249 50.7142 16.1393C50.4143 16.0769 50.1909 15.9823 49.8817 15.9823" stroke="white" stroke-width="1.5" stroke-linecap="round"/>
<path d="M5.50977 8.49121C5.59118 8.82738 5.61211 9.17274 5.67141 9.51202C5.77805 10.1221 6.1142 10.7273 6.38669 11.2788C6.88886 12.2952 7.87817 13.1746 8.64164 14.0036C9.25127 14.6655 10.0522 14.8439 10.8441 15.1736C11.2267 15.3329 10.3252 15.5583 10.1652 15.5583" stroke="white" stroke-width="1.5" stroke-linecap="round"/>
<path d="M57.374 14.5688C57.374 15.0049 57.6637 15.3802 57.9559 15.6957C58.3792 16.1526 58.6994 16.6858 59.144 17.1366C59.8944 17.8973 60.4791 18.8171 61.1727 19.6258C61.933 20.5122 62.7458 21.3243 63.5731 22.1464C63.9554 22.5263 64.3336 22.9272 64.6925 23.3321C65.1285 23.8241 65.6218 24.4148 66.1433 24.8201C66.5295 25.1203 66.7485 25.5459 67.0647 25.9077C67.4369 26.3337 67.9061 26.6708 68.3255 27.0502C68.7448 27.4295 69.1179 27.8413 69.4893 28.2634C69.9414 28.7772 70.4804 29.2057 71.0048 29.6493C72.3107 30.7544 73.1543 32.3572 74.5408 33.3674" stroke="white" stroke-width="1.5" stroke-linecap="round"/>
<path d="M80.5052 28.3497C80.2323 28.1141 79.466 28.3646 79.1635 28.4557C78.8697 28.5443 78.564 28.5587 78.2785 28.6717C78.0278 28.7709 77.7859 28.9339 77.5188 28.9858C77.0634 29.0743 75.5384 29.3469 75.3972 29.8652C75.1468 30.7843 76.0941 30.9994 76.6823 31.4946C76.8909 31.6703 77.0709 32.0035 77.1753 32.2524C77.3123 32.5791 77.5788 32.8074 77.6683 33.1554" stroke="white" stroke-width="1.5" stroke-linecap="round"/>
<path d="M65.3026 19.7279C65.1841 19.656 64.3569 18.7236 64.3569 19.0919C64.3569 19.5144 64.4921 19.7179 64.7934 20.0106C65.2305 20.4353 65.6983 20.9308 66.0623 21.424C66.3198 21.773 66.6366 22.1082 66.9109 22.4488C67.1554 22.7523 67.4926 23.1517 67.7919 23.4028C68.4563 23.9603 69.0016 24.6807 69.6347 25.2796C70.2964 25.9056 71.225 26.2279 71.8654 26.85C72.1512 27.1277 72.4997 27.2191 72.8837 27.2191C73.2299 27.2191 73.5761 27.2191 73.9223 27.2191C74.4269 27.2191 74.8128 27.0975 75.2963 26.9757C76.0217 26.793 76.6832 26.5293 77.4138 26.3357C77.7856 26.2372 78.3903 26.285 78.4726 25.8449C78.5399 25.4852 78.4858 25.2391 78.0645 25.0636C76.9598 24.6036 75.8762 24.1247 74.7831 23.6345C73.9311 23.2525 73.1202 22.8952 72.2089 22.6608C71.3911 22.4505 70.4668 22.2993 69.7114 21.9187C68.1266 21.1204 66.6118 20.1943 65.0843 19.3039" stroke="white" stroke-width="1.5" stroke-linecap="round"/>
<path d="M2.52755 26.3004C1.62254 27.0917 1.24177 28.0551 1.43644 29.2371C1.5323 29.8192 1.87161 30.2459 2.03453 30.7841C2.08402 30.9475 2.18226 31.2123 2.32549 31.318C2.51131 31.4552 2.33004 31.4825 2.19618 31.6007C1.86438 31.8938 1.7274 32.1288 1.7274 32.5901C1.7274 32.7301 1.80014 32.8469 1.80014 32.9592C1.80014 33.1608 1.59094 33.1186 1.50918 33.2576C1.3453 33.5362 1.45654 33.9252 1.30713 34.2156C1.2121 34.4002 1.15628 34.7293 1.22226 34.9537C1.3171 35.2762 1 35.1785 1 35.523C1 35.8709 1.13319 36.1703 1.14548 36.4927C1.15583 36.7643 1.065 37.1853 1.18185 37.435C1.44851 38.005 1.95878 38.0121 2.51138 38.1731C3.81315 38.5526 5.10572 39.0679 6.37471 39.5473C6.86718 39.7334 7.46441 39.6796 7.96692 39.8143C8.45637 39.9455 9.01848 39.879 9.4783 40.0067C9.75481 40.0834 9.9396 39.9079 10.1087 39.7436C10.1984 39.6565 10.6564 39.3663 10.6745 39.5159C10.7082 39.794 11.13 40.1202 11.2968 40.3286C11.6765 40.8029 12.4778 40.6061 13.0183 40.7016C13.2518 40.7428 13.494 40.7046 13.7296 40.7173C13.9739 40.7305 14.1635 40.8587 14.4206 40.8587C15.0335 40.8587 15.6464 40.8587 16.2593 40.8587C16.6684 40.8587 17.1916 40.9475 17.5848 40.8273C17.8539 40.745 18.1102 40.6228 18.3809 40.5406C18.6553 40.4573 19.1145 40.6225 19.3306 40.4346C19.5508 40.2432 20.0095 39.7279 20.3126 39.7279C20.6111 39.7279 20.6667 40.0473 20.8662 40.1873C21.1547 40.3897 21.4819 40.5575 21.7876 40.733C22.4209 41.0966 23.346 40.9293 24.0628 40.9293C24.4898 40.9293 24.9168 40.9293 25.3438 40.9293C25.8418 40.9293 26.5056 41.0454 26.9683 40.8273C27.4241 40.6124 27.8603 40.5565 28.3262 40.3797C28.6739 40.2477 28.9853 40.0716 29.3243 39.9713C30.0626 39.753 30.8223 39.586 31.6076 39.5002C32.4484 39.4083 33.2351 39.1634 34.0888 39.088C35.742 38.9419 37.3674 38.7385 39.0352 38.7385C39.8789 38.7385 40.8897 38.9411 41.282 39.7986C41.3451 39.9365 41.2447 40.1 41.3709 40.2226C41.5172 40.3647 41.8561 40.5053 42.07 40.5053C42.5698 40.5053 43.0696 40.5053 43.5693 40.5053C43.9182 40.5053 44.2671 40.5053 44.616 40.5053C45.2006 40.5053 45.7852 40.5053 46.3698 40.5053C47.131 40.5053 47.8773 40.6206 48.6288 40.6466C49.0136 40.66 49.2048 40.6681 49.4815 40.3993C49.7649 40.1239 49.831 39.9399 50.2453 39.9399C50.5309 39.9399 50.81 40.2039 50.8272 40.5053C50.8541 40.9766 51.5299 41 51.886 41C54.1997 41 56.5224 40.9293 58.8286 40.9293C59.2164 40.9293 59.3841 40.8451 59.6449 40.5917C59.6879 40.5499 59.7706 40.4238 59.7743 40.364C59.7835 40.2108 59.9257 40.1926 60.0289 40.0813C60.1467 39.954 60.4067 40.0106 60.5663 40.0106C60.8283 40.0106 60.8025 40.1551 60.9219 40.364C61.1197 40.7098 61.3957 40.9293 61.8554 40.9293C64.0675 40.9293 66.2564 40.5489 68.4304 40.2383C68.9656 40.1618 69.0795 39.9835 69.2386 39.5198C69.3747 39.1232 70.2029 39.8098 70.3944 39.8536C71.0698 40.008 71.9453 39.8659 72.621 39.7986C73.1472 39.7462 73.6389 39.7037 74.1445 39.5512C74.5558 39.4272 74.9219 39.2119 75.3407 39.1076C76.3999 38.8437 77.4788 38.6188 78.5494 38.4166C79.871 38.1669 81.1418 37.7845 82.4531 37.4978C83.3887 37.2933 84.3404 36.9239 85.2253 36.5477C85.746 36.3264 86.1839 35.9342 86.6316 35.6133C86.835 35.4675 87.0431 35.3435 87.1893 35.1382C87.2704 35.0244 87.3206 34.9207 87.4479 34.8516C87.8054 34.6575 88.1356 34.2778 88.4219 33.9996C88.9925 33.4452 89.3763 32.7549 89.8565 32.1268C90.2926 31.5564 90.691 30.6952 90.7576 29.9831C90.8088 29.4361 90.7477 28.9443 90.891 28.4048C91.0166 27.9318 91.1085 27.2812 90.7253 26.9089C90.5216 26.711 90.4465 26.5438 90.1797 26.371" stroke="white" stroke-width="1.5" stroke-linecap="round"/>
<path d="M33.1514 29.0566C33.5858 29.0566 34.0256 29.0859 34.4567 29.1351C35.1661 29.2162 35.8068 29.7165 36.5298 29.8183C37.0456 29.8909 37.5983 29.937 38.0977 30.0853C38.6771 30.2573 39.1976 30.5459 39.795 30.6821C42.3888 31.2732 44.9207 32.1418 47.5782 32.4646C48.0915 32.5269 48.5958 32.6671 49.1098 32.7315C49.5406 32.7855 50.05 32.841 50.4636 32.975C51.2875 33.2418 52.157 33.2883 53.0257 33.3833C54.393 33.5327 55.7464 33.6208 57.1234 33.6503C59.6845 33.7051 62.245 33.9792 64.8096 34.0036C66.402 34.0188 68.0204 34.0698 69.6105 33.9879C71.8688 33.8717 74.1242 33.6214 76.3753 33.4225C77.2089 33.3489 78.0453 33.2767 78.8768 33.187C79.796 33.0877 80.6901 32.8672 81.6126 32.7865C83.1011 32.6563 84.5251 32.493 85.9771 32.1662C86.5674 32.0333 87.1764 31.8714 87.7794 31.8128C88.1051 31.7812 88.5659 31.6214 88.814 31.4045C89.1897 31.0759 89.4436 30.7222 89.7272 30.2973C89.8635 30.0933 89.8689 29.687 89.8929 29.4414C89.9289 29.0746 90.0344 28.7399 90.0344 28.3656C90.0344 27.75 90.1071 27.1336 90.1071 26.5125" stroke="white" stroke-width="1.5" stroke-linecap="round"/>
<path d="M41.0801 39.2333C42.8757 39.2333 44.6477 39.2109 46.4265 39.4414C49.0054 39.7754 51.5805 39.2333 54.1531 39.2333C56.8499 39.2333 59.5467 39.2333 62.2435 39.2333C63.5271 39.2333 64.8202 39.0845 66.1028 39.0056C66.9468 38.9536 67.7899 38.9386 68.6325 38.8642C69.1714 38.8166 69.8426 38.8393 70.3541 38.6679C71.1696 38.3947 72.0641 38.3877 72.904 38.2085C74.1541 37.9419 75.3963 37.653 76.6501 37.3958C77.8874 37.1421 79.0962 36.8168 80.275 36.3789C81.1107 36.0685 81.9889 35.8645 82.8169 35.5427C83.7417 35.1833 84.7221 34.9452 85.6578 34.6043C86.4495 34.3159 87.2183 33.8909 87.9653 33.5089C88.955 33.0028 89.1386 31.9279 89.5979 31.0354" stroke="white" stroke-width="1.5" stroke-linecap="round"/>
<path d="M48.79 32.9436C48.9476 33.3109 49.5314 33.4598 49.8448 33.6857C50.2737 33.9948 50.8333 34.1784 51.3198 34.3884C53.1605 35.1832 55.2347 35.1032 57.2118 35.2601C60.1041 35.4895 62.9754 35.6998 65.88 35.6998C67.1659 35.6998 68.5309 35.5557 69.8039 35.3818C70.1844 35.3298 70.5619 35.2982 70.9435 35.2601C71.3407 35.2204 71.7048 35.0551 72.0993 35.0088C72.7611 34.9311 73.4441 34.8881 74.0956 34.7457C75.2611 34.4909 76.3883 34.1281 77.5508 33.8623C78.0859 33.74 78.5291 33.3676 79.1228 33.3676" stroke="white" stroke-width="1.5" stroke-linecap="round"/>
<path d="M68.285 34.1448C68.285 34.3206 68.1903 34.9821 68.3576 35.0635" stroke="white" stroke-width="1.5" stroke-linecap="round"/>
<path d="M71.2675 34.2861C71.2675 34.4278 71.2032 34.7142 71.3402 34.7808" stroke="white" stroke-width="1.5" stroke-linecap="round"/>
<path d="M74.7588 34.0034V34.1455" stroke="white" stroke-width="1.5" stroke-linecap="round"/>
<path d="M61.811 34.1448C62.0828 34.4256 62.0917 34.8432 62.1744 35.2048" stroke="white" stroke-width="1.5" stroke-linecap="round"/>
<path d="M58.9741 34.0034C58.9741 34.4002 59.2343 34.7215 59.4101 35.0635" stroke="white" stroke-width="1.5" stroke-linecap="round"/>
<path d="M55.5552 34.0034C55.5864 34.3371 55.8277 34.6925 56.0638 34.9221" stroke="white" stroke-width="1.5" stroke-linecap="round"/>
<path d="M51.918 33.6501C52.0093 33.8278 52.2952 34.5689 52.4993 34.5689" stroke="white" stroke-width="1.5" stroke-linecap="round"/>
<path d="M88.3611 23.5442C88.3611 24.2047 87.6351 24.5263 87.1083 24.8163C86.9356 24.9114 86.7228 24.8768 86.5426 24.9576C86.3173 25.0586 86.1032 25.1888 85.8798 25.2953C85.5255 25.4641 85.1014 25.5791 84.7241 25.6957C84.0036 25.9184 83.3446 26.2278 82.5984 26.4417C82.0134 26.6094 81.3976 26.8558 80.9456 27.2584C79.9458 28.1488 82.4764 29.1836 82.946 29.3864C83.9835 29.8344 85.0762 30.2491 85.9606 30.9294C86.2755 31.1715 86.4948 31.5323 86.6153 31.8834" stroke="white" stroke-width="1.5" stroke-linecap="round"/>
<path d="M88.3608 23.4736C88.5146 23.6417 88.5151 23.8363 88.6154 24.0312C88.7057 24.2066 88.9215 24.2714 89.0115 24.4316C89.1298 24.6425 89.2838 24.8116 89.3954 25.0284C89.5154 25.2616 89.6462 25.4944 89.7833 25.7037C89.8766 25.8461 89.9041 26.2374 90.0339 26.3005" stroke="white" stroke-width="1.5" stroke-linecap="round"/>
<path d="M87.9971 23.6149C87.981 23.4895 86.8149 23.3087 86.6151 23.2066C86.491 23.1431 86.453 23.0039 86.3201 22.9474C86.1722 22.8846 86.0316 22.8602 85.8877 22.7825C85.6215 22.6388 85.3434 22.4751 85.0875 22.3153C84.46 21.9234 83.6066 22.011 82.9457 21.7028C82.3387 21.4198 81.5561 21.3117 80.8847 21.2827C80.3186 21.2583 79.6662 21.1422 79.139 20.9608C78.4792 20.7338 77.5934 20.8958 76.9002 20.843C76.4169 20.8062 75.9306 20.7993 75.4535 20.7331C74.8171 20.6447 74.0732 20.7776 73.4571 20.6114C72.6996 20.4069 71.9509 20.2636 71.2184 20.0263C70.7266 19.8671 70.2684 19.7544 69.7878 19.5631C69.1999 19.329 68.5071 19.2458 67.9612 18.9427C67.2159 18.529 66.4454 18.0615 65.6699 17.6471C64.4623 17.0018 63.3081 16.225 62.0692 15.6133C61.1156 15.1425 60.1175 14.7949 59.1596 14.3569C58.5181 14.0636 57.8073 13.792 57.1512 13.5795C56.9919 13.528 56.6702 13.4714 56.5692 13.3243C56.4097 13.0918 56.0411 12.9871 55.7974 12.8571C55.3735 12.6311 54.9506 12.4255 54.5083 12.2368C53.1357 11.6514 51.734 11.0944 50.4469 10.3601C48.8754 9.46337 47.2261 8.79744 45.7552 7.7256C45.3597 7.43745 44.9577 7.17066 44.6075 6.83043C44.3139 6.54517 43.8385 6.43329 43.6255 6.08838" stroke="white" stroke-width="1.5" stroke-linecap="round"/>
<path d="M2.09131 32.0247C2.54631 32.0247 3.02809 32.1112 3.44913 32.2838C4.31114 32.6371 5.15033 32.8231 6.08799 32.8766C6.63092 32.9077 7.26704 33.0454 7.78123 33.2261C8.01937 33.3098 8.55517 33.4362 8.74302 33.6187C9.13475 33.9993 9.60494 34.3281 10.02 34.7102C10.4061 35.0655 11.0109 35.3462 11.5476 35.3462" stroke="white" stroke-width="1.5" stroke-linecap="round"/>
<path d="M1.50928 33.9329C1.71865 33.9329 1.87528 33.9924 2.06695 34.0742C2.67958 34.3355 3.27699 34.5415 3.93396 34.6788C4.62386 34.823 5.39722 34.8923 6.05555 35.1343C6.57466 35.3251 7.14052 35.4695 7.68009 35.5936C7.90703 35.6459 8.11196 35.6811 8.34284 35.7036C8.53246 35.722 8.63944 35.8785 8.81565 35.9274C9.1152 36.0105 9.94895 36.3284 10.1977 36.0177C10.4289 35.7289 10.9489 35.7703 11.3292 35.7703" stroke="white" stroke-width="1.5" stroke-linecap="round"/>
<path d="M11.9111 35.0634C13.0189 34.8482 13.9388 34.6394 15.0673 34.6394C15.5425 34.6394 16.0622 34.7017 16.5301 34.7807C16.88 34.8399 17.7357 34.8651 17.985 35.1341C18.173 35.3372 18.6339 35.4474 18.8942 35.5738C19.2146 35.7295 19.4703 35.9295 19.7509 36.1392C20.2479 36.5106 20.989 36.4062 21.5856 36.4062" stroke="white" stroke-width="1.5" stroke-linecap="round"/>
<path d="M11.0381 35.9824C11.0381 36.9528 12.1065 36.4985 12.7677 36.4771C14.0557 36.4354 15.3292 36.8777 16.6068 37.0582C16.9082 37.1008 17.2127 37.085 17.512 37.1289C17.7714 37.1669 17.9972 37.3044 18.2515 37.3291C18.6526 37.3681 19.0569 37.4665 19.4598 37.4665C19.7506 37.4665 19.9431 37.4593 20.167 37.2584C20.404 37.0459 21.1291 37.1132 21.44 37.1132" stroke="white" stroke-width="1.5" stroke-linecap="round"/>
<path d="M21.2217 37.4665C21.6683 37.4872 22.0956 37.6041 22.5472 37.6079C23.2907 37.6141 24.0361 37.5841 24.7779 37.6471C25.6234 37.719 26.437 37.8021 27.2834 37.6942C27.8534 37.6216 28.4147 37.591 28.9685 37.4272C29.2054 37.3572 29.7323 37.3429 29.7323 37.0425" stroke="white" stroke-width="1.5" stroke-linecap="round"/>
<path d="M22.2402 36.2648C22.3299 35.8727 23.3967 35.9115 23.695 35.9115C24.4532 35.9115 25.1897 36.0377 25.9379 36.1588C26.6304 36.2709 27.3321 36.199 28.0231 36.3787C28.2394 36.4349 29.587 36.7927 29.587 37.0422" stroke="white" stroke-width="1.5" stroke-linecap="round"/>
<path d="M1.21777 36.6184C1.31215 36.8935 2.20148 36.8364 2.47053 36.8854C2.8688 36.9579 3.26485 36.9834 3.65054 37.1131C4.38033 37.3585 5.0401 37.6841 5.8085 37.8198C6.05124 37.8627 6.23038 37.9628 6.45104 38.0593C6.63216 38.1385 6.8452 38.105 7.02084 38.2046C7.25925 38.3397 7.65332 38.3607 7.92606 38.4402C8.48872 38.6042 9.32124 38.9584 9.90217 38.664C10.3642 38.4297 10.807 38.3398 11.256 38.7071C11.6533 39.0322 12.6236 39.0648 13.1189 39.0958C14.1495 39.1604 15.1134 39.4453 16.1457 39.4453C17.2039 39.4453 18.1992 39.3388 19.2453 39.2372C19.5134 39.2111 19.7689 39.2715 20.0212 39.1626C20.1811 39.0935 20.2917 38.8799 20.4697 38.8799C21.1797 38.8799 21.8691 39.3155 22.5792 39.4688C24.3381 39.8486 26.0192 39.2332 27.768 39.2332C29.6047 39.2332 31.3395 39.0693 33.1508 38.8249C34.0451 38.7043 34.933 38.5265 35.8382 38.5265C36.523 38.5265 37.2881 38.436 37.9517 38.5972" stroke="white" stroke-width="1.5" stroke-linecap="round"/>
<path d="M24.8589 33.2263C25.1155 33.351 25.3701 33.4484 25.6509 33.509C25.9039 33.5636 26.0465 33.7936 26.2571 33.9173C26.7778 34.2232 27.3643 34.5034 27.914 34.7654C28.8895 35.2303 29.9219 35.5484 30.8883 36.0178C31.379 36.2562 31.9874 36.7273 31.9874 37.2899C31.9874 37.624 31.9554 37.9357 31.7369 38.2087C31.619 38.3559 31.3973 38.7427 31.26 38.8094" stroke="white" stroke-width="1.5" stroke-linecap="round"/>
<path d="M25.0044 33.2262C25.2844 33.196 25.5441 32.9614 25.8207 32.9435C26.3183 32.9113 26.8293 32.9435 27.328 32.9435C28.3147 32.9435 29.3178 32.8941 30.2579 33.2262C31.1726 33.5494 32.1724 33.6447 33.0665 34.0429C34.1832 34.5402 35.3681 35.1681 36.6065 35.3464C37.0908 35.4161 37.5912 35.6265 38.0249 35.8371C38.564 36.099 39.1716 36.1115 39.7141 36.3358C40.1159 36.5019 40.4574 36.744 40.878 36.8854C41.1897 36.9903 41.2856 37.2497 41.5488 37.3958C42.3478 37.8394 41.4527 38.0319 40.9911 38.0319C40.608 38.0319 39.9736 38.2178 39.8434 38.5972" stroke="white" stroke-width="1.5" stroke-linecap="round"/>
<path d="M29.7324 36.9717C30.1964 36.9885 30.8328 37.1803 31.26 36.9717" stroke="white" stroke-width="1.5" stroke-linecap="round"/>
<path d="M68.3579 19.304C69.2458 19.4367 70.0549 20.1308 70.8634 20.4661C71.5813 20.7638 72.2417 21.1496 72.9486 21.4712C73.8191 21.8672 74.7014 22.0813 75.5754 22.4528C75.8974 22.5896 76.29 22.7458 76.6342 22.8218C77.1671 22.9395 77.6313 23.2576 78.1617 23.395C78.9369 23.5959 79.7052 23.8766 80.4894 24.0036C81.2359 24.1245 82.1824 24.0961 82.906 23.9683C83.5567 23.8533 84.1356 23.4733 84.7892 23.3322C85.0855 23.2682 85.3421 23.0322 85.5974 22.9082" stroke="white" stroke-width="1.5" stroke-linecap="round"/>
<path d="M37.0064 7.78443C37.0064 7.65205 36.9549 7.41835 37.059 7.31721C37.1766 7.20289 37.3279 7.12428 37.4429 7.00705C37.5224 6.92589 37.5112 6.80763 37.5883 6.72436C38.0773 6.19651 38.7372 5.78402 39.2775 5.29523C39.5739 5.02714 40.0357 4.83819 40.3727 4.61992C40.5682 4.4933 40.8287 4.39751 41.0637 4.3922C41.6095 4.37987 42.1367 4.32153 42.6802 4.32153" stroke="white" stroke-width="1.5" stroke-linecap="round"/>
<path d="M41.2256 10.1874C41.2931 9.59668 42.2726 9.19946 42.6966 8.9703C43.3536 8.61518 44.0844 8.58745 44.7414 8.27929C45.6725 7.84255 46.7611 7.85526 47.7722 7.85526" stroke="white" stroke-width="1.5" stroke-linecap="round"/>
<path d="M41.5889 10.3287C41.6557 10.1664 41.9527 10.0624 42.0981 9.97531C42.7317 9.59565 43.4732 9.41156 44.1186 9.0448C44.3453 8.91598 44.5761 8.75224 44.8299 8.67574C45.0761 8.60148 45.3137 8.63924 45.5168 8.49121" stroke="white" stroke-width="1.5" stroke-linecap="round"/>
<path d="M37.0796 7.78458C37.0909 7.41259 37.3049 7.23246 37.4433 6.90512C37.6404 6.43895 37.9751 5.96877 38.3081 5.58592C38.5705 5.28425 38.8566 4.92267 39.1891 4.69075C39.8525 4.22797 41.3371 3.59836 42.0987 3.96833" stroke="white" stroke-width="1.5" stroke-linecap="round"/>
<path d="M48.7661 9.88093C48.8074 9.89858 48.845 9.91616 48.879 9.93397C48.8293 9.9465 48.7829 9.96062 48.7418 9.97515C48.362 10.1093 48.1074 10.5247 47.9376 10.8782C47.7944 11.1763 47.8046 11.3886 47.4082 11.3886C47.1032 11.3886 47.0371 11.1707 47.2304 10.9292C47.37 10.7549 47.3652 10.5613 47.4204 10.356C47.5103 10.021 48.4234 9.73443 48.7661 9.88093Z" fill="#040D08"/>
<path d="M47.9174 9.33911C47.4346 9.58748 46.9289 10.0455 46.5919 10.4699C46.3754 10.7425 46.2565 11.0213 46.2444 11.3729C46.2353 11.6391 46.4666 11.5992 46.6808 11.6713C47.032 11.7894 47.3063 11.9942 47.683 12.0796C47.7882 12.1034 48.1988 11.5481 48.3215 11.4593C48.559 11.2873 49.0105 10.7856 49.0974 10.5091C49.2022 10.1761 49.1177 10.0312 48.7661 9.88093C48.4234 9.73443 47.5103 10.021 47.4204 10.356C47.3652 10.5613 47.37 10.7549 47.2304 10.9292C47.0371 11.1707 47.1032 11.3886 47.4082 11.3886C47.8046 11.3886 47.7944 11.1763 47.9376 10.8782C48.1074 10.5247 48.362 10.1093 48.7418 9.97515C48.9703 9.89442 49.3605 9.82619 49.5905 9.97515" stroke="white" stroke-width="1.5" stroke-linecap="round"/>
<path d="M53.3731 12.0249C53.1471 12.1127 53.1346 12.1926 53.0498 12.394C52.9381 12.6591 52.7312 12.8369 52.5447 13.0496C52.2742 13.358 52.1377 13.768 52.6214 13.9291C52.9541 14.0399 53.304 13.975 53.6438 14.043C53.7832 14.0708 53.8848 14.2429 54.0035 14.1686C54.4194 13.9082 55.2578 13.2127 54.941 12.6295C54.7739 12.3218 54.3781 12.2369 54.0601 12.2369C53.5389 12.2369 53.7485 12.6021 53.3367 12.8337C52.875 13.0934 53.7069 13.9334 53.8823 13.352C53.9882 13.0008 54.0248 12.873 53.664 12.873" stroke="white" stroke-width="1.5" stroke-linecap="round"/>
<path d="M49.3721 10.6114C49.8115 10.2718 50.065 10.0581 50.6248 10.046C50.8429 10.0413 51.0385 9.97534 51.2633 9.97534C51.4365 9.97534 51.8279 10.3203 51.6998 10.258" stroke="white" stroke-width="1.5" stroke-linecap="round"/>
<path d="M52.6448 12.7314C52.3073 12.4853 52.4564 11.6068 52.4228 11.2473C52.3881 10.8764 52.2835 10.6139 52.0635 10.3286" stroke="white" stroke-width="1.5" stroke-linecap="round"/>
<path d="M53.0095 11.742C52.9726 11.2761 52.234 10.2768 51.7729 10.1873" stroke="white" stroke-width="1.5" stroke-linecap="round"/>
<path d="M60.2833 15.2757C59.6403 15.3538 60.7475 16.3952 60.7885 16.0374C60.8507 15.4934 60.7255 14.993 61.4472 14.993C61.5804 14.993 61.7237 14.9773 61.8553 14.997C61.9398 15.0096 62.4239 15.1686 62.4534 15.2404C62.4937 15.3382 62.2357 15.2289 62.1301 15.205C61.9291 15.1596 61.6917 15.0923 61.4876 15.1658C61.1639 15.2822 61.1048 15.6541 60.8652 15.7704" stroke="white" stroke-width="1.5" stroke-linecap="round"/>
<path d="M55.5552 13.6508C56.1737 13.3823 57.0969 13.6508 57.7374 13.6508" stroke="white" stroke-width="1.5" stroke-linecap="round"/>
<path d="M65.812 18.3852C66.2655 18.3362 66.1378 17.5387 66.4667 17.3644C66.7694 17.2039 66.9165 17.4418 66.8142 17.7648C66.6847 18.1738 66.2411 18.3188 65.8848 18.5265" stroke="white" stroke-width="1.5" stroke-linecap="round"/>
<path d="M62.4658 14.9932C63.0706 14.9932 63.1901 15.7675 63.5569 16.1239" stroke="white" stroke-width="1.5" stroke-linecap="round"/>
<path d="M64.1387 16.5476C64.6611 16.5476 65.1379 16.793 65.3753 17.2543" stroke="white" stroke-width="1.5" stroke-linecap="round"/>
<path d="M45.4443 7.43097C45.7362 7.43097 46.087 7.20546 46.3576 7.32496C46.6556 7.45653 46.9721 7.53313 47.2628 7.65869C47.5825 7.79671 47.9223 7.80118 48.063 8.17695C48.2236 8.60596 48.4411 9.01372 48.6449 9.40977" stroke="white" stroke-width="1.5" stroke-linecap="round"/>
<path d="M48.7178 8.70312V9.12715" stroke="white" stroke-width="1.5" stroke-linecap="round"/>
<path d="M47.4087 8.42041H47.6994" stroke="white" stroke-width="1.5" stroke-linecap="round"/>
<path d="M44.026 5.06778C44.0648 5.15069 44.1443 5.46123 44.1403 5.67533C44.1006 5.56395 44.0704 5.44914 44.0624 5.32691C44.0512 5.1573 43.7234 4.58152 43.8442 4.74583C43.9176 4.8457 43.9738 4.95624 44.026 5.06778Z" fill="#040D08"/>
<path d="M43.4077 4.60449C43.4469 5.02315 43.5323 5.62562 43.9371 5.85695C44.2869 6.05683 44.094 5.21302 44.026 5.06778C43.9738 4.95624 43.9176 4.8457 43.8442 4.74583C43.7234 4.58152 44.0512 5.1573 44.0624 5.32691C44.0921 5.78003 44.4261 6.13124 44.4261 6.58329" stroke="white" stroke-width="1.5" stroke-linecap="round"/>
<path d="M43.553 4.95766C43.3134 4.7016 42.6631 3.98813 42.2113 4.11353C41.9778 4.17835 42.9868 4.76649 43.0276 4.85558C43.2013 5.23525 43.1612 5.13958 42.971 4.81632" stroke="white" stroke-width="1.5" stroke-linecap="round"/>
<path d="M64.7447 32.3288C63.9485 31.9248 63.102 31.6086 62.3493 31.1287C62.4502 31.2828 62.5586 31.4356 62.676 31.5884C62.7585 31.6956 63.7007 32.717 63.1628 32.5155C62.4959 32.2657 62.0507 31.7429 61.568 31.2399C60.928 30.5729 60.3639 29.8356 59.858 29.0683C59.6675 28.7793 59.3555 27.971 59.4481 28.7727C59.55 29.6541 59.724 30.5829 60.2359 31.3364C60.2388 31.3406 60.2417 31.3448 60.2446 31.3491C60.2521 31.3572 60.2596 31.3653 60.2671 31.3734C60.6294 31.5992 60.9822 31.8379 61.299 32.1235C61.4126 32.2258 61.708 32.4752 61.5552 32.4999C60.6898 32.6401 59.7647 31.6975 59.3008 31.1248C59.1382 30.924 58.9656 30.6992 58.8085 30.4589C58.7396 30.4005 58.6748 30.3386 58.6155 30.2723C58.1655 29.7689 57.9076 29.0826 57.5396 28.5207C57.4506 28.3849 57.3445 28.0229 57.2322 28.1412C57.1872 28.1885 57.2092 28.2665 57.1489 28.3154C56.7588 28.6312 56.9937 29.1709 57.1265 29.5785C57.3261 30.1913 57.6166 30.6955 58.0152 31.1564C58.2862 31.3945 58.5623 31.6227 58.8205 31.8497C58.9627 31.9748 59.3856 32.338 59.2112 32.2604C59.125 32.222 59.044 32.1461 58.9774 32.0861C58.8005 31.9268 58.6233 31.766 58.449 31.6039C58.2921 31.4579 58.1477 31.3095 58.0152 31.1564C57.6166 30.6955 57.3261 30.1913 57.1265 29.5785C56.9937 29.1709 56.7588 28.6312 57.1489 28.3154C57.2092 28.2665 57.1872 28.1885 57.2322 28.1412C57.3445 28.0229 57.4506 28.3849 57.5396 28.5207C57.9076 29.0826 58.1655 29.7689 58.6155 30.2723C58.6748 30.3386 58.7396 30.4005 58.8085 30.4589C58.5033 29.9919 58.2569 29.4662 58.2569 28.9438C58.2569 28.8069 58.4186 29.1682 58.5003 29.2799C58.8212 29.7185 59.0665 30.029 59.4289 30.4559C59.687 30.7599 59.969 31.052 60.2446 31.3491C60.2417 31.3448 60.2388 31.3406 60.2359 31.3364C59.724 30.5829 59.55 29.6541 59.4481 28.7727C59.3555 27.971 59.6675 28.7793 59.858 29.0683C60.3639 29.8356 60.928 30.5729 61.568 31.2399C62.0507 31.7429 62.4959 32.2657 63.1628 32.5155C63.7007 32.717 62.7585 31.6956 62.676 31.5884C62.5586 31.4356 62.4502 31.2828 62.3493 31.1287C62.0026 30.5991 61.7445 30.054 61.5104 29.4416C61.3722 29.0802 60.5847 28.2324 60.9212 28.4367C61.386 28.719 61.7245 29.1362 62.1284 29.4883C63.2329 30.4509 64.3476 31.3868 65.2187 32.5715C65.3922 32.8076 65.318 32.724 65.2058 32.6213C65.073 32.4996 64.9054 32.4103 64.7447 32.3288Z" fill="#040D08"/>
<path d="M6.89867 6.21966C6.87596 6.49552 6.49475 6.73819 6.40552 7.02235C6.31306 7.31681 6.34084 7.74603 6.32546 8.05215C6.30051 8.54925 6.32226 9.05399 6.32226 9.55175C6.32226 10.294 6.61689 10.7676 7.08441 11.3282C7.6417 11.9966 8.36781 12.5097 8.92892 13.1639C9.12301 13.3901 9.33126 13.6659 9.55657 13.8608C9.91492 14.1707 10.3575 14.3804 10.703 14.7008C10.9947 14.9713 11.4718 15.0219 11.7982 15.2484C12.1461 15.4898 12.5591 15.6126 12.919 15.8457C13.067 15.9416 13.277 15.9895 13.4441 16.0479C13.9763 16.2341 14.4489 16.5008 14.9588 16.7386C15.8324 17.146 16.6303 17.6286 17.4278 18.1604C18.1437 18.6379 18.8216 19.0959 19.4772 19.6445C20.2222 20.2677 20.9325 20.936 21.6804 21.5516C22.1162 21.9103 22.7308 22.1693 23.2175 22.4539C23.795 22.7915 24.3557 23.1436 24.9403 23.4681C25.687 23.8827 26.5261 24.1231 27.278 24.5322C27.7652 24.7972 28.247 24.7955 28.7895 24.6877C29.4622 24.554 30.2056 24.6667 30.8838 24.7033C32.5874 24.7952 34.2528 25.3381 35.9306 25.5962C36.4528 25.6765 36.9713 25.7886 37.4933 25.8638C37.9759 25.9332 38.4328 26.1618 38.9119 26.2713C39.9447 26.5074 41.034 26.6966 42.0469 27.0087C43.1469 27.3475 44.3256 27.5102 45.3709 28.0043C46.1055 28.3514 46.8953 28.6769 47.5677 29.1274C48.1703 29.5312 48.8336 29.8379 49.4378 30.2443C49.6121 30.3616 49.7142 30.5105 49.8989 30.6052C50.2363 30.7782 50.614 31.1199 50.866 31.3892C51.1338 31.6754 51.4839 32.1817 51.8555 32.3382C52.2628 32.5096 52.6646 32.6284 53.1076 32.6835C53.8545 32.7764 54.6123 32.7453 55.362 32.8453C56.393 32.9828 57.4515 32.9124 58.4874 33.0008C59.6321 33.0986 60.7993 33.0807 61.9331 33.2435C63.0509 33.4041 64.2457 33.4364 65.3724 33.4364C66.0982 33.4364 66.8144 33.4619 67.5371 33.4924C67.8672 33.5064 67.9401 33.4779 67.7036 33.1844C67.256 32.6287 66.4602 32.3474 65.9296 31.8715C65.3988 31.3955 64.9717 30.844 64.4053 30.3937C62.9943 29.2721 61.5457 28.2047 60.095 27.1393C59.4172 26.6416 58.7407 26.1474 58.0712 25.6398C57.7132 25.3683 57.294 25.1744 56.944 24.8993C56.2887 24.3844 55.7094 23.8429 55.1218 23.2721C54.7673 22.9276 54.466 22.548 54.0875 22.2205C53.784 21.958 53.458 21.7486 53.1396 21.5081C52.8871 21.3172 52.5786 21.1823 52.2974 21.0352C52.1843 20.976 52.1481 20.7727 52.0316 20.9263C51.9315 21.0583 51.8193 21.1585 51.7178 21.2841C51.5429 21.5003 51.29 21.6527 51.1222 21.8565C51.0073 21.9961 52.077 22.47 52.1854 22.5254C52.8473 22.8639 53.4397 23.219 54.0107 23.6984C55.0873 24.6023 56.0512 25.6086 57.0176 26.6291C57.3362 26.9655 57.6215 27.2986 57.8278 27.6994C57.8476 27.738 58.0189 28.0015 58.0263 27.8674C58.0476 27.4841 57.9773 27.0842 58.0295 26.7038C58.0549 26.519 59.3194 27.7993 59.3841 27.8736C59.8757 28.4381 60.2891 29.0507 60.7643 29.6252C61.2003 30.1524 61.6479 30.6592 62.2245 31.047C63.0075 31.5737 63.9042 31.9024 64.7447 32.3288C64.9054 32.4103 65.073 32.4996 65.2058 32.6213C65.318 32.724 65.3922 32.8076 65.2186 32.5715C64.3476 31.3868 63.2329 30.4509 62.1284 29.4883C61.7245 29.1362 61.386 28.719 60.9212 28.4367C60.5847 28.2324 61.3722 29.0802 61.5104 29.4416C61.8126 30.2322 62.1548 30.9106 62.676 31.5884C62.7585 31.6956 63.7007 32.717 63.1628 32.5155C62.4959 32.2657 62.0507 31.7429 61.568 31.2399C60.928 30.5729 60.3639 29.8356 59.858 29.0683C59.6675 28.7793 59.3555 27.971 59.4481 28.7727C59.55 29.6541 59.724 30.5829 60.2359 31.3364C60.4022 31.5812 60.5795 31.7862 60.729 32.0426C60.7918 32.1502 61.3004 32.6696 61.0621 32.3288C60.5919 31.6563 59.96 31.0814 59.4289 30.4559C59.0665 30.029 58.8212 29.7185 58.5003 29.2798C58.4186 29.1682 58.2569 28.8069 58.2569 28.9438C58.2569 29.735 58.8221 30.5337 59.3008 31.1248C59.7647 31.6975 60.6898 32.6401 61.5552 32.4999C61.708 32.4752 61.4126 32.2258 61.2991 32.1235C60.8627 31.7303 60.3582 31.4259 59.8548 31.1217C59.4389 30.8703 58.9422 30.6378 58.6155 30.2723C58.1655 29.7689 57.9076 29.0826 57.5396 28.5207C57.4506 28.3849 57.3445 28.0229 57.2322 28.1412C57.1872 28.1885 57.2092 28.2665 57.1489 28.3154C56.7588 28.6312 56.9937 29.1709 57.1265 29.5785C57.3924 30.3949 57.8198 31.0186 58.449 31.6039C58.6233 31.766 58.8005 31.9268 58.9774 32.0861C59.044 32.1461 59.125 32.222 59.2112 32.2604C59.3856 32.338 58.9627 31.9748 58.8205 31.8497C58.0245 31.1497 57.0575 30.4383 56.5981 29.4603C56.4956 29.2421 56.3634 29.0563 56.2523 28.8443C55.9349 28.239 55.5634 28.4082 54.9906 28.3123C53.065 27.9897 51.1056 27.8635 49.1752 27.5594C47.3351 27.2695 45.5178 26.8449 43.7313 26.318C43.3424 26.2033 42.9391 26.1463 42.5465 26.0442C42.2179 25.9588 41.9147 25.825 41.5794 25.7518C40.9351 25.611 40.3647 25.3381 39.7413 25.1606C39.2093 25.0092 38.6912 24.8772 38.169 24.6939C36.7895 24.21 35.4224 23.7157 34.022 23.297C33.3161 23.086 32.6144 22.8277 31.9341 22.5503C31.3326 22.3051 30.7103 22.1662 30.1152 21.9125C29.6537 21.7158 29.1567 21.577 28.687 21.3961C28.2144 21.214 27.7682 20.9992 27.3036 20.8112C26.8772 20.6386 26.744 20.4481 26.4198 20.1205C26.2203 19.9189 26.9566 19.6666 27.0731 19.66C27.6771 19.626 28.2818 19.4711 28.8599 19.2991C29.2474 19.1839 29.5939 19.1649 29.9967 19.128C30.8194 19.0526 31.5862 19.0119 32.4017 18.8449C33.4081 18.6387 34.4125 18.4744 35.4182 18.2631C35.8909 18.1638 36.2124 17.7951 36.6575 17.6259C36.9503 17.5146 37.4484 17.5462 37.6502 17.3049C37.7697 17.1619 37.8016 16.9822 37.9224 16.8475C38.1014 16.6478 38.1613 16.305 38.3707 16.1444C38.4874 16.0549 38.2715 16.0122 38.1882 15.9919C37.6675 15.8655 37.1843 16.4785 36.6575 16.5115C36.2019 16.5401 35.7462 16.6124 35.2901 16.6235C33.7893 16.66 32.3071 17.0373 30.8069 17.14C29.2178 17.2487 27.6676 17.6249 26.0803 17.7466C25.5138 17.7901 25.0431 18.0392 24.4984 18.1293C23.842 18.2379 23.2158 18.4143 22.577 18.6022C22.0914 18.7451 21.2762 18.3879 20.819 18.1138C20.3555 17.8359 19.8832 17.5197 19.5029 17.14C19.254 16.8915 18.5864 16.1789 18.7855 15.7275C18.9228 15.4163 19.6954 15.2872 19.9864 15.2048C20.5626 15.0415 21.1705 15.0077 21.7605 14.9061C22.2765 14.8173 22.768 14.6311 23.2944 14.6199C25.3309 14.5764 27.3682 14.5639 29.4075 14.5639C30.6333 14.5639 31.912 14.4452 33.1126 14.2154C34.3587 13.977 35.6338 13.9945 36.8977 13.8639C37.8445 13.766 38.9188 13.8682 39.8309 13.615C40.2093 13.5099 40.5587 13.4454 40.8941 13.2199C41.2069 13.0094 41.3578 12.6004 41.6018 12.3238C41.8009 12.0981 41.961 11.952 42.207 11.7763C42.385 11.6491 42.5382 11.2106 42.6105 11.0233C42.6837 10.8338 42.8105 10.2189 42.5721 10.0838C42.2646 9.9095 41.9508 9.64286 41.6114 9.56731C41.1206 9.45804 40.8202 9.27255 40.4426 8.96685C40.166 8.7429 39.8175 8.61082 39.5652 8.35394C39.4109 8.19697 39.3264 7.98495 39.1489 7.84993C38.693 7.50335 38.0614 7.21886 37.5189 7.01613C37.3786 6.9637 37.2399 6.79316 37.1026 6.71123C36.8503 6.56068 36.5681 6.44821 36.2956 6.33477C35.7633 6.11311 35.1835 6.2449 34.624 6.27566C34.4062 6.28764 34.2349 6.4178 34.022 6.45611C33.6088 6.53045 33.1903 6.67318 32.8115 6.84812C32.5921 6.9495 32.3654 7.06067 32.1583 7.18413C31.9653 7.29918 31.8995 7.52271 31.742 7.6757C31.4637 7.94608 31.3698 8.2311 31.3961 8.61528C31.4263 9.05536 32.1935 9.38687 32.581 9.52375C33.0229 9.67989 33.6076 9.68576 34.0732 9.60775C34.8322 9.48062 35.4585 9.05395 36.1932 8.85173C36.7821 8.68961 37.2436 8.76126 37.8231 8.93262C38.3439 9.08663 38.914 9.36162 39.325 9.72287C39.4695 9.8499 39.6313 9.92227 39.7989 10.0153C40.0123 10.1338 40.0191 10.1856 40.0999 10.426C40.2145 10.7666 40.1425 11.0332 39.9526 11.3407C39.7089 11.7354 38.9911 11.9842 38.5628 12.0998C37.7934 12.3075 37.0389 12.3238 36.2476 12.3238C35.4086 12.3238 34.5696 12.3238 33.7306 12.3238C32.768 12.3238 31.7561 12.2507 30.8069 12.4483C28.4684 12.9351 26.0344 12.9985 23.685 13.4439C22.7396 13.6231 21.7386 13.8128 20.7774 13.8359C19.7466 13.8606 18.7248 14.1405 17.7032 14.2559C16.8737 14.3496 16.0219 14.3035 15.199 14.4083C14.5686 14.4887 13.9412 14.478 13.3385 14.2528C12.5922 13.9739 11.8521 13.5711 11.1929 13.1265C10.6167 12.7379 10.1888 12.257 9.75511 11.7389C9.3894 11.302 9.00921 10.8782 8.64712 10.4384C8.33625 10.0609 7.88537 9.76833 7.62559 9.35263C7.39297 8.98039 7.13569 8.32285 6.72575 8.12371" stroke="white" stroke-width="1.5" stroke-linecap="round"/>
<path d="M12.4608 13.3879C12.5318 13.4952 12.6344 13.5869 12.728 13.6845C12.9495 13.795 13.1775 13.896 13.4119 14.0039C13.6727 14.1239 15.2873 14.977 14.6223 15.1924C14.4342 15.2533 14.5372 15.4024 14.6672 15.46C15.0354 15.6229 15.5065 15.9474 15.9161 15.964C16.3066 15.9798 16.5866 15.7438 16.928 15.6093C17.2314 15.4897 17.5755 15.4978 17.8887 15.3946C17.9233 15.3832 18.3141 15.2746 18.2858 15.1737C18.2586 15.0769 17.803 15.1582 17.7798 15.1613C17.0824 15.2522 16.434 15.3992 15.7239 15.404L15.7225 15.404C15.6301 15.4046 15.3646 15.4063 15.4517 15.3822C15.9714 15.2379 16.5182 15.1469 17.0497 15.0617C18.3585 14.8519 19.6327 14.6622 20.9244 14.371C21.5597 14.2279 22.195 14.0549 22.8394 13.9541C23.573 13.8394 24.3258 13.9075 25.065 13.8452C26.172 13.752 27.2643 13.4688 28.3761 13.447C29.0801 13.4332 29.7777 13.3413 30.48 13.3319C33.1326 13.2963 35.8857 13.3301 38.5114 12.8745C39.7793 12.6546 41.0494 12.1182 41.0796 10.7123C41.0812 10.6367 41.0803 10.5609 41.0798 10.4852C40.9135 10.345 40.7504 10.2119 40.6185 10.0838C40.3685 9.84097 40.132 9.58633 39.8819 9.34334C39.6035 9.07278 39.272 8.90188 38.9885 8.65265C38.2431 7.99745 37.4023 7.71663 36.3979 7.63218C36.1617 7.61233 35.9234 7.61523 35.6856 7.61806C35.7181 7.70021 35.6922 7.79168 35.5653 7.90597C35.0557 8.36477 34.2818 8.67626 33.5863 8.68377C33.0859 8.68917 32.6277 8.65274 32.1708 8.42554C32.1094 8.39498 31.5198 8.10015 31.7257 7.93086C31.8864 7.79875 32.2385 7.7974 32.4366 7.75974C32.8653 7.67826 33.3021 7.61095 33.7368 7.56996C34.2878 7.51798 34.8121 7.61514 35.3603 7.61974C35.4685 7.62064 35.577 7.61936 35.6856 7.61806C35.9234 7.61523 36.1617 7.61233 36.3979 7.63218C37.4023 7.71663 38.2431 7.99745 38.9885 8.65265C39.272 8.90188 39.6035 9.07278 39.8819 9.34334C40.132 9.58633 40.3685 9.84097 40.6185 10.0838C40.7504 10.2119 40.9135 10.345 41.0798 10.4852C41.0797 10.4634 41.0796 10.4416 41.0796 10.4198C41.0796 10.3917 41.0851 10.1271 41.086 10.1274C41.1975 10.1545 41.3389 10.5966 41.3582 10.6967C41.3607 10.7094 41.3628 10.722 41.3646 10.7343C41.5995 10.9519 41.807 11.1872 41.8994 11.4465C41.9774 11.6656 41.5492 11.3236 41.5215 11.2972C41.3304 11.1146 41.3974 10.959 41.3646 10.7343C41.2721 10.6487 41.1755 10.5658 41.0798 10.4852C41.0803 10.5609 41.0812 10.6367 41.0796 10.7123C41.0494 12.1182 39.7793 12.6546 38.5114 12.8745C35.8857 13.3301 33.1326 13.2963 30.48 13.3319C29.7777 13.3413 29.0801 13.4332 28.3761 13.447C27.2643 13.4688 26.172 13.752 25.065 13.8452C24.3258 13.9075 23.573 13.8394 22.8394 13.9541C22.195 14.0549 21.5597 14.2279 20.9244 14.371C19.6327 14.6622 18.3585 14.8519 17.0497 15.0617C16.5182 15.1469 15.9714 15.2379 15.4517 15.3822C15.3646 15.4063 15.6301 15.4046 15.7225 15.404L15.7239 15.404C16.434 15.3992 17.0824 15.2522 17.7798 15.1613C17.803 15.1582 18.2586 15.0769 18.2858 15.1737C18.3141 15.2746 17.9233 15.3832 17.8887 15.3946C17.5755 15.4978 17.2314 15.4897 16.928 15.6093C16.5866 15.7438 16.3066 15.9798 15.9161 15.964C15.5065 15.9474 15.0354 15.6229 14.6672 15.46C14.5372 15.4024 14.4342 15.2533 14.6223 15.1924C15.2873 14.977 13.6727 14.1239 13.4119 14.0039C13.1775 13.896 12.9495 13.795 12.728 13.6845C12.4366 13.539 12.1564 13.3769 11.8876 13.1608C11.4924 12.843 11.1538 12.4636 10.6963 12.2212C10.0718 11.8902 12.0761 12.8065 12.4608 13.3879Z" fill="#040D08"/>
<path d="M6.89844 9.9718C7.01562 10.4557 7.51082 10.9118 7.8335 11.2785C8.00426 11.4726 8.21123 11.6393 8.39711 11.8199C8.96341 12.3701 9.54458 12.8725 10.1488 13.3848C10.6849 13.8394 11.2579 14.1712 11.83 14.5733C12.2287 14.8535 12.594 15.1638 13.0724 15.3168C13.6448 15.4998 13.3914 14.9549 13.239 14.6884C13.0963 14.4388 13.0187 14.2749 12.9379 14.0039C12.8621 13.7493 12.6005 13.599 12.4608 13.3879C12.0761 12.8065 10.0718 11.8902 10.6963 12.2212C11.1538 12.4636 11.4924 12.843 11.8876 13.1608C12.3607 13.5412 12.869 13.7541 13.4119 14.0039C13.6727 14.1239 15.2873 14.977 14.6223 15.1924C14.4342 15.2533 14.5372 15.4024 14.6672 15.46C15.0354 15.6229 15.5065 15.9474 15.9161 15.964C16.3066 15.9798 16.5866 15.7438 16.928 15.6093C17.2314 15.4897 17.5755 15.4978 17.8887 15.3946C17.9233 15.3832 18.3141 15.2746 18.2858 15.1737C18.2586 15.0769 17.803 15.1582 17.7798 15.1613C17.0824 15.2522 16.434 15.3992 15.7239 15.404C15.6329 15.4046 15.3642 15.4065 15.4517 15.3822C15.9714 15.2379 16.5182 15.1469 17.0497 15.0617C18.3585 14.8519 19.6327 14.6622 20.9244 14.371C21.5597 14.2279 22.195 14.0549 22.8394 13.9541C23.573 13.8394 24.3258 13.9075 25.065 13.8452C26.172 13.752 27.2643 13.4688 28.3761 13.447C29.0801 13.4332 29.7777 13.3413 30.48 13.3319C33.1326 13.2963 35.8857 13.3301 38.5114 12.8745C39.7793 12.6546 41.0495 12.1182 41.0796 10.7123C41.0817 10.6149 41.0796 10.5172 41.0796 10.4198C41.0796 10.3917 41.0851 10.1271 41.086 10.1274C41.1975 10.1545 41.3389 10.5966 41.3582 10.6967C41.4056 10.9421 41.3199 11.1046 41.5215 11.2972C41.5492 11.3236 41.9774 11.6656 41.8994 11.4465C41.7074 10.9078 41.0189 10.4729 40.6185 10.0838C40.3685 9.84097 40.132 9.58633 39.8819 9.34334C39.6035 9.07278 39.272 8.90188 38.9885 8.65265C38.2431 7.99745 37.4023 7.71663 36.3979 7.63218C36.0539 7.60326 35.7052 7.62263 35.3603 7.61974C34.8121 7.61515 34.2878 7.51798 33.7368 7.56996C33.3021 7.61095 32.8653 7.67826 32.4366 7.75974C32.2385 7.7974 31.8864 7.79875 31.7257 7.93086C31.5198 8.10015 32.1094 8.39498 32.1708 8.42554C32.6277 8.65274 33.0859 8.68917 33.5863 8.68377C34.2818 8.67626 35.0558 8.36477 35.5653 7.90597C35.8655 7.63563 35.6005 7.49298 35.3347 7.29928C35.2231 7.21795 35.2527 7.16672 35.2002 7.11572" stroke="white" stroke-width="1.5" stroke-linecap="round"/>
<path d="M16.3516 16.1877C16.6206 16.2185 16.9005 16.5268 17.1329 16.6575C17.5031 16.8658 17.9181 17.0632 18.2537 17.3078" stroke="white" stroke-width="1.5" stroke-linecap="round"/>
<path d="M20.492 18.2196C20.393 18.1714 20.297 18.1164 20.2035 18.0565C20.4554 18.2934 20.7948 18.479 21.046 18.6334C21.3562 18.8239 21.6808 19.0194 22.0171 19.1782C22.3568 18.9137 22.8464 18.6982 23.1659 18.5525C23.8791 18.2272 24.7621 18.1217 25.5196 17.9333C26.2198 17.7592 26.9257 17.5955 27.6395 17.4822C28.3501 17.3695 29.0664 17.3626 29.7819 17.2987C30.5801 17.2273 31.3758 17.1269 32.174 17.0529C33.7968 16.9023 38.6655 16.504 37.0542 16.7449C36.6852 16.8 36.2937 16.8326 35.9206 16.86C35.5506 16.8871 35.212 16.9814 34.8543 17.0715C34.0984 17.2621 33.3248 17.4011 32.555 17.5258C31.5371 17.6906 30.5136 17.7647 29.5065 17.9925C28.6462 18.187 27.7713 18.259 26.9126 18.4467C26.2046 18.6015 25.5111 18.8118 24.8567 19.1187C24.5473 19.2639 24.2563 19.441 23.9153 19.5107C23.3833 19.6195 22.8393 19.5073 22.343 19.3178C22.2332 19.2759 22.1245 19.2289 22.0171 19.1782C21.8838 19.2819 21.7735 19.3932 21.7057 19.5107C21.369 20.094 21.5741 20.3878 22.1156 20.6681C22.6767 20.9585 23.2027 21.2665 23.864 21.2717C24.1213 21.2737 24.3505 21.1449 24.557 20.9883C24.2285 20.7897 23.9268 20.4897 23.6322 20.2433C23.3266 20.3479 23.0107 20.4882 22.692 20.5187C22.5438 20.533 22.9728 19.8015 23.2556 19.9681C23.3809 20.0418 23.5059 20.1376 23.6322 20.2433C23.6755 20.2285 23.7187 20.2144 23.7616 20.2014C24.1676 20.0786 24.584 19.9994 24.9848 19.8592C25.0748 19.8277 26.182 19.4309 26.0224 19.6414C25.7239 20.0349 25.3056 20.365 24.9272 20.6805C24.8122 20.7765 24.6892 20.8881 24.557 20.9883C24.7877 21.1278 25.0315 21.2173 25.2955 21.2032C25.3284 21.2015 25.3611 21.1973 25.3932 21.1911C25.5262 21.115 25.656 21.0291 25.7822 20.9294C25.8483 20.8772 26.0305 20.7076 25.984 20.777C25.8518 20.9739 25.6366 21.1438 25.3932 21.1911C24.9694 21.4334 24.5126 21.5748 24.0338 21.7352C23.963 21.7589 23.6366 21.8588 23.7199 22.0028C23.813 22.1635 24.3196 21.9504 24.434 21.925C25.1059 21.7761 25.6476 21.6778 26.2401 21.3214C26.5134 21.1571 26.3198 21.4514 26.2529 21.5392C26.0823 21.7632 25.8657 21.9664 25.6445 22.1428C25.5481 22.2197 24.9347 22.5609 25.4332 22.4104C25.8586 22.2818 26.2668 22.1021 26.6885 21.9623C26.9857 21.8638 27.1065 21.829 26.9799 22.1397C26.9286 22.2655 26.8757 22.3821 26.8187 22.4934C26.8927 22.4127 26.9675 22.3342 27.0407 22.2579C27.2239 22.0672 27.3707 21.9233 27.3577 22.2517C27.3473 22.5154 27.3097 22.7778 27.3097 23.0419C27.3097 23.1576 27.4507 24.0497 27.521 23.7762C27.6525 23.2654 27.734 22.7435 27.8669 22.233C27.9485 21.9193 28.0045 22.0012 28.1231 22.2424C28.2152 22.4298 28.3041 22.6194 28.3875 22.8113C28.457 22.9172 28.5232 23.029 28.5618 23.0979C28.5787 23.1282 28.599 23.1645 28.6212 23.2049C28.8547 23.3126 29.1231 23.3412 29.3143 23.2379C29.3985 23.1925 29.4436 23.1172 29.4625 23.0314C29.3752 22.8829 29.2853 22.6832 29.2695 22.541C29.264 22.4911 29.3827 22.57 29.404 22.6157C29.4556 22.7266 29.4933 22.8926 29.4625 23.0314C29.4878 23.0743 29.5128 23.113 29.5358 23.1447C29.5064 23.067 29.5726 23.0172 29.8075 23.0575C30.142 23.1148 30.5163 23.2809 30.7618 23.5117C30.8709 23.6144 30.9033 23.709 30.8474 23.7521C31.3927 23.8942 31.9552 23.984 32.5038 24.0966C32.9776 24.1939 33.4355 24.338 33.9128 24.4202C34.3102 24.4886 34.7075 24.5169 35.1037 24.5575C35.4045 24.5883 35.7047 24.6262 36.0039 24.694C36.1768 24.7332 36.7034 24.7966 36.5259 24.7966C36.0589 24.7966 35.5755 24.6879 35.1037 24.5575C34.7075 24.5169 34.3102 24.4886 33.9128 24.4202C33.4355 24.338 32.9776 24.1939 32.5038 24.0966C31.9552 23.984 31.3927 23.8942 30.8474 23.7521C30.815 23.777 30.753 23.7848 30.6593 23.7668C30.2772 23.6938 29.915 23.556 29.6499 23.2804C29.5927 23.2335 29.5512 23.1853 29.5358 23.1447C29.5128 23.113 29.4878 23.0743 29.4625 23.0314C29.4436 23.1172 29.3985 23.1925 29.3143 23.2379C29.1231 23.3412 28.8547 23.3126 28.6212 23.2049C28.7916 23.5151 29.0754 24.0661 28.8276 23.9566C28.7146 23.9067 28.6255 23.4105 28.5906 23.3157C28.5712 23.2631 28.5513 23.2106 28.5308 23.1582C28.3004 23.026 28.1231 22.8163 28.1231 22.5877C28.1231 22.4445 28.2607 22.618 28.3875 22.8113C28.3041 22.6194 28.2152 22.4298 28.1231 22.2424C28.0045 22.0012 27.9485 21.9193 27.8669 22.233C27.734 22.7435 27.6525 23.2654 27.521 23.7762C27.4507 24.0497 27.3097 23.1576 27.3097 23.0419C27.3097 22.7778 27.3473 22.5154 27.3577 22.2517C27.3707 21.9233 27.2239 22.0672 27.0407 22.2579C26.9675 22.3342 26.8927 22.4127 26.8187 22.4934C26.6998 22.7251 26.5628 22.9338 26.3842 23.1539C26.3479 23.1987 26.2159 23.307 26.2433 23.2566C26.3915 22.9848 26.602 22.7297 26.8187 22.4934C26.8757 22.3821 26.9286 22.2655 26.9799 22.1397C27.1065 21.829 26.9857 21.8638 26.6885 21.9623C26.2668 22.1021 25.8586 22.2818 25.4332 22.4104C24.9347 22.5609 25.5481 22.2197 25.6445 22.1428C25.8657 21.9664 26.0823 21.7632 26.2529 21.5392C26.3198 21.4514 26.5134 21.1571 26.2401 21.3214C25.6476 21.6778 25.1059 21.7761 24.434 21.925C24.3196 21.9504 23.813 22.1635 23.7199 22.0028C23.6366 21.8588 23.963 21.7589 24.0338 21.7352C24.5126 21.5748 24.9694 21.4334 25.3932 21.1911C25.3611 21.1973 25.3284 21.2015 25.2955 21.2032C25.0315 21.2173 24.7877 21.1278 24.557 20.9883C24.3505 21.1449 24.1213 21.2737 23.864 21.2717C23.2027 21.2665 22.6767 20.9585 22.1156 20.6681C21.5741 20.3878 21.369 20.094 21.7057 19.5107C21.7735 19.3932 21.8838 19.2819 22.0171 19.1782C21.6808 19.0194 21.3562 18.8239 21.046 18.6334C20.7948 18.479 20.4554 18.2934 20.2035 18.0565C20.0649 17.9263 19.9529 17.7805 19.8964 17.616C19.7414 17.1642 20.4343 17.8022 20.4888 17.8711C20.5509 17.9495 20.8498 18.3934 20.492 18.2196Z" fill="#040D08"/>
<path d="M10.645 15.796C10.8645 15.796 10.978 15.8301 11.1638 15.9204C11.6109 16.1376 12.0886 16.3408 12.56 16.524C12.9143 16.6617 13.2307 16.8444 13.5655 17.028C13.9004 17.2117 14.2781 17.3266 14.5838 17.5444C15.0319 17.8636 15.5253 18.1548 16.0345 18.372C16.3347 18.5001 16.5714 18.7133 16.8671 18.8449C17.5143 19.1331 18.2155 19.4397 18.798 19.8281C19.6053 20.3663 20.4005 20.8035 21.2958 21.197C21.4088 21.2466 22.3781 21.778 22.2245 21.4646C22.0828 21.1755 21.859 20.9344 21.6481 20.693C20.9935 19.9438 20.4041 19.1293 19.653 18.4654C19.1581 18.0278 18.639 17.6175 18.1448 17.1773C17.8797 16.9413 17.5834 16.7717 17.3826 16.4742C17.3478 16.4226 16.9453 15.8369 17.0304 15.7897C17.1378 15.7301 17.6114 16.149 17.69 16.2066C18.1539 16.5466 18.6367 16.8602 19.099 17.2022C19.5519 17.5372 19.9797 17.9707 20.492 18.2196C20.8498 18.3934 20.5509 17.9495 20.4888 17.8711C20.4343 17.8022 19.7414 17.1642 19.8964 17.616C20.0555 18.0797 20.6566 18.3941 21.046 18.6334C21.4553 18.8848 21.8897 19.1448 22.343 19.3178C22.8393 19.5073 23.3833 19.6195 23.9153 19.5107C24.2563 19.441 24.5473 19.2639 24.8567 19.1187C25.5111 18.8118 26.2046 18.6015 26.9126 18.4467C27.7713 18.259 28.6462 18.187 29.5065 17.9925C30.5136 17.7647 31.5371 17.6906 32.555 17.5258C33.3248 17.4011 34.0984 17.2621 34.8543 17.0715C35.212 16.9814 35.5506 16.8871 35.9206 16.86C36.2937 16.8326 36.6852 16.8 37.0542 16.7449C38.6655 16.504 33.7968 16.9023 32.174 17.0529C31.3758 17.1269 30.5801 17.2273 29.7819 17.2987C29.0664 17.3626 28.3501 17.3695 27.6395 17.4822C26.9257 17.5955 26.2198 17.7592 25.5196 17.9333C24.7621 18.1217 23.8791 18.2272 23.1659 18.5525C22.7211 18.7553 21.9465 19.0936 21.7057 19.5107C21.369 20.094 21.5741 20.3878 22.1156 20.6681C22.6767 20.9585 23.2027 21.2665 23.864 21.2717C24.286 21.2749 24.6325 20.9263 24.9272 20.6805C25.3056 20.365 25.7239 20.0349 26.0224 19.6414C26.182 19.4309 25.0748 19.8277 24.9848 19.8592C24.584 19.9994 24.1676 20.0786 23.7616 20.2014C23.4161 20.3059 23.0559 20.4838 22.692 20.5187C22.5438 20.533 22.9728 19.8015 23.2556 19.9681C23.8781 20.3346 24.4945 21.246 25.2955 21.2032C25.5784 21.1881 25.8343 20.9999 25.984 20.777C26.0305 20.7076 25.8483 20.8772 25.7822 20.9294C25.2539 21.3464 24.663 21.5244 24.0338 21.7352C23.963 21.7589 23.6366 21.8588 23.7199 22.0028C23.813 22.1635 24.3196 21.9504 24.434 21.925C25.1059 21.7761 25.6476 21.6778 26.2401 21.3214C26.5134 21.1571 26.3198 21.4514 26.2529 21.5392C26.0823 21.7632 25.8657 21.9664 25.6445 22.1428C25.5481 22.2197 24.9347 22.5609 25.4332 22.4104C25.8586 22.2818 26.2668 22.1021 26.6885 21.9623C26.9857 21.8638 27.1065 21.829 26.9799 22.1397C26.8219 22.5274 26.6485 22.828 26.3842 23.1539C26.3479 23.1987 26.2159 23.307 26.2433 23.2566C26.4421 22.8919 26.7531 22.5573 27.0407 22.2579C27.2239 22.0672 27.3707 21.9233 27.3577 22.2517C27.3473 22.5154 27.3097 22.7778 27.3097 23.0419C27.3097 23.1576 27.4507 24.0497 27.521 23.7762C27.6525 23.2654 27.734 22.7435 27.8669 22.233C27.9485 21.9193 28.0045 22.0012 28.1231 22.2424C28.2952 22.5925 28.456 22.9503 28.5906 23.3157C28.6255 23.4105 28.7146 23.9067 28.8276 23.9566C29.1076 24.0803 28.7088 23.3605 28.5618 23.0979C28.4528 22.9032 28.1231 22.3661 28.1231 22.5877C28.1231 23.0661 28.8998 23.4617 29.3143 23.2379C29.5346 23.1191 29.4874 22.7951 29.404 22.6157C29.3827 22.57 29.264 22.4911 29.2695 22.541C29.2904 22.7298 29.4421 23.0201 29.5449 23.157C29.8145 23.5164 30.224 23.6836 30.6593 23.7668C30.915 23.8157 30.9341 23.6738 30.7618 23.5117C30.5163 23.2809 30.142 23.1148 29.8075 23.0575C29.3303 22.9757 29.5491 23.2656 29.8523 23.4059C30.684 23.7908 31.6122 23.9135 32.5038 24.0966C32.9776 24.1939 33.4355 24.338 33.9128 24.4202C34.6119 24.5405 35.3107 24.5368 36.0039 24.694C36.1768 24.7332 36.7034 24.7966 36.5259 24.7966C35.738 24.7966 34.9032 24.4869 34.1562 24.2864C32.9876 23.9727 31.8365 23.7175 30.7041 23.3002C30.5582 23.2464 29.812 22.9169 30.3006 23.1882" stroke="white" stroke-width="1.5" stroke-linecap="round"/>
<path d="M55.5493 29.6976C55.5787 29.7062 55.5201 29.7161 55.2915 29.7278C54.0626 29.7906 52.8375 29.7233 51.6138 29.6299C51.3557 29.6268 51.0978 29.6224 50.8403 29.6158C50.1757 29.5989 48.1901 29.4377 48.8549 29.4291C49.5273 29.4204 50.2195 29.5178 50.8884 29.5723C51.1301 29.5919 51.372 29.6114 51.6138 29.6299C52.9247 29.6457 54.2421 29.6288 55.5493 29.6976C55.6513 29.703 55.7533 29.7089 55.8551 29.7154L55.8628 29.7159C56.037 29.7269 56.8448 29.7782 56.201 29.7963C55.3749 29.8195 54.5908 30.0276 53.7736 30.1074C53.3101 30.1526 52.8543 30.1541 52.3967 30.2505C52.0674 30.3199 51.7428 30.4003 51.4103 30.4558C51.1774 30.4948 50.7073 30.478 50.4945 30.6021C50.398 30.6583 50.7182 30.6311 50.8307 30.6332C51.3397 30.6423 51.8492 30.6363 52.3582 30.6363H54.9297C55.4727 30.6363 56.0259 30.6066 56.566 30.6736C56.6111 30.6792 57.3312 30.7789 57.325 30.8074C57.3008 30.9167 55.9374 30.9893 55.9192 30.991C54.8523 31.0897 53.7847 31.0902 52.7169 31.1434C52.5933 31.1496 52.5461 31.1498 52.7457 31.2087C53.5676 31.4514 54.4246 31.6132 55.2659 31.775C55.5105 31.822 55.7632 31.8755 56.0193 31.9271C56.5309 32.0301 57.0564 32.1258 57.5587 32.1483H57.6548C57.6868 32.1483 57.5907 32.1498 57.5587 32.1483H57.2865C55.946 32.1483 54.6134 31.999 53.2869 31.8216C52.5045 31.717 51.7078 31.5325 50.9236 31.4639L50.9096 31.4626C50.5416 31.4304 50.4259 31.4203 50.962 31.4203C52.1684 31.4203 53.3083 31.5412 54.4941 31.747C55.0036 31.8354 55.5128 31.9025 56.0193 31.9271C55.7632 31.8755 55.5105 31.822 55.2659 31.775C54.4246 31.6132 53.5676 31.4514 52.7457 31.2087C52.5461 31.1498 52.5933 31.1496 52.7169 31.1434C53.7847 31.0902 54.8523 31.0897 55.9192 30.991C55.9374 30.9893 57.3008 30.9167 57.325 30.8074C57.3312 30.7789 56.6111 30.6792 56.566 30.6736C56.0259 30.6066 55.4727 30.6363 54.9297 30.6363H52.3582C51.8492 30.6363 51.3397 30.6423 50.8307 30.6332C50.7182 30.6311 50.398 30.6583 50.4945 30.6021C50.7073 30.478 51.1774 30.4948 51.4103 30.4558C51.7428 30.4003 52.0674 30.3199 52.3967 30.2505C52.8543 30.1541 53.3101 30.1526 53.7736 30.1074C54.5908 30.0276 55.3749 29.8195 56.201 29.7963C56.8448 29.7782 56.037 29.7269 55.8628 29.7159L55.8551 29.7154C55.7533 29.7089 55.6513 29.703 55.5493 29.6976Z" fill="#040D08"/>
<path d="M46.498 28.1162C46.7485 28.1466 46.9939 28.2273 47.2378 28.2873C47.9991 28.4746 48.7777 28.5258 49.553 28.6327C50.8932 28.8175 52.183 29.2585 53.5142 29.4789C54.0004 29.5594 54.4993 29.62 54.9905 29.6594C55.1851 29.675 55.9556 29.6939 55.2915 29.7278C53.8197 29.8031 52.3532 29.6916 50.8884 29.5723C50.2195 29.5178 49.5273 29.4204 48.8549 29.4291C48.1901 29.4377 50.1757 29.5989 50.8403 29.6158C52.5075 29.6583 54.1907 29.6096 55.8551 29.7154C56.0116 29.7253 56.8548 29.7779 56.201 29.7963C55.3749 29.8195 54.5908 30.0276 53.7736 30.1074C53.3101 30.1526 52.8543 30.1541 52.3967 30.2505C52.0674 30.3199 51.7428 30.4003 51.4103 30.4558C51.1774 30.4948 50.7073 30.478 50.4945 30.6021C50.398 30.6583 50.7182 30.6311 50.8307 30.6332C51.3397 30.6423 51.8492 30.6363 52.3582 30.6363C53.2154 30.6363 54.0725 30.6363 54.9297 30.6363C55.4727 30.6363 56.0259 30.6066 56.566 30.6736C56.6111 30.6792 57.3312 30.7789 57.325 30.8074C57.3008 30.9167 55.9374 30.9893 55.9192 30.991C54.8523 31.0897 53.7847 31.0902 52.7169 31.1434C52.5933 31.1496 52.5461 31.1498 52.7457 31.2087C53.5676 31.4514 54.4246 31.6132 55.2659 31.775C55.9989 31.9159 56.8049 32.1145 57.5587 32.1483C57.5907 32.1498 57.6868 32.1483 57.6548 32.1483C57.532 32.1483 57.4093 32.1483 57.2865 32.1483C55.946 32.1483 54.6134 31.999 53.2869 31.8216C52.5045 31.717 51.7078 31.5325 50.9236 31.4639C50.5446 31.4307 50.4191 31.4203 50.962 31.4203C52.1684 31.4203 53.3083 31.5412 54.4941 31.747C55.862 31.9843 57.2282 32.0681 58.545 31.5883" stroke="white" stroke-width="1.5" stroke-linecap="round"/>
<path d="M70.7082 27.226C70.9908 27.4208 71.2882 27.614 71.5913 27.746C71.9302 27.8936 72.2824 27.9961 72.6421 28.0648C73.2719 27.9222 73.8741 27.7341 74.5245 27.7242C74.9738 27.7174 75.4321 27.5786 75.8695 27.4878C76.615 27.333 77.2466 27.0729 77.8741 26.6664C78.1638 26.4788 78.4831 26.3715 78.7772 26.1811C79.0283 26.0184 79.001 25.991 79.0077 25.6957C79.0192 25.1944 79.4818 25.3753 79.8948 25.4064C79.9405 25.4098 81.542 25.5405 81.0476 25.8513C80.838 25.9831 80.5982 25.9918 80.3719 26.0784C80.1559 26.1611 79.9573 26.2887 79.7379 26.374C79.0881 26.6265 78.5008 27.0048 77.8293 27.2078C77.3152 27.3632 76.8088 27.5226 76.2922 27.6713C75.7781 27.8193 75.2506 28.1422 74.7103 28.1691C74.0203 28.2035 73.318 28.1939 72.6421 28.0648C72.6163 28.0706 72.5906 28.0764 72.5648 28.082C72.1767 28.167 71.6752 28.1944 71.2684 28.3386C71.3194 28.3832 71.3756 28.4296 71.4376 28.4834C71.6701 28.6853 71.8707 28.9164 72.0746 29.1448C72.2991 29.1818 72.5207 29.2091 72.7249 29.2363C73.0041 29.2735 73.272 29.3703 73.5511 29.3981C73.6592 29.4088 73.8853 29.3806 73.6407 29.4167C73.2952 29.4677 72.9704 29.5992 72.6461 29.722C72.8922 29.9329 73.1477 30.1314 73.4037 30.3289C73.643 30.3535 73.8714 30.3444 73.992 30.2489C73.907 29.9769 73.8496 29.7007 73.8297 29.4292C73.817 29.257 73.7648 28.8144 73.9161 29.2114C74.0231 29.4921 74.1704 29.8423 74.0666 30.1447C74.052 30.1873 74.0264 30.2216 73.992 30.2489C74.081 30.5337 74.2003 30.8138 74.3385 31.0788C74.4817 31.2039 74.6212 31.3336 74.7551 31.4701C74.8907 31.6084 75.2588 31.8483 75.0882 31.943C75.0237 31.9788 74.9421 31.9089 74.8768 31.8746C74.5485 31.7022 74.2438 31.4442 73.9994 31.1714C73.9096 31.0712 74.4253 31.3636 74.5309 31.4186C74.4637 31.3088 74.3993 31.1953 74.3385 31.0788C74.0375 30.8158 73.7202 30.5731 73.4037 30.3289C73.0884 30.2964 72.7542 30.2053 72.6224 30.1759C72.0943 30.0579 72.081 29.9313 72.5391 29.7621C72.5748 29.7489 72.6105 29.7355 72.6461 29.722C72.6339 29.7115 72.6217 29.701 72.6096 29.6905C72.4155 29.5225 72.2439 29.3346 72.0746 29.1448C71.6091 29.068 71.1315 28.9492 70.7715 28.7011C70.6514 28.6184 70.916 28.5146 70.97 28.4803C71.0603 28.4228 71.1611 28.3766 71.2684 28.3386C71.1205 28.2094 71.0159 28.0957 70.9412 27.8642C70.8702 27.6443 70.7954 27.4376 70.7082 27.226C70.7005 27.2075 70.6928 27.189 70.685 27.1704C70.4408 26.5904 70.0914 26.2943 69.5226 25.9322C69.282 25.779 69.0142 25.6202 68.8053 25.4282C68.456 25.1072 68.2626 24.6704 67.9375 24.3424C67.2685 23.6674 66.6724 22.9292 65.9937 22.2485L65.9867 22.2416C65.3722 21.6253 64.6833 20.9344 64.2869 20.164C64.1841 19.9644 64.0606 19.685 64.0211 19.464C63.9615 19.1311 63.7329 18.8728 63.7329 18.5151C63.7329 18.263 64.782 18.6065 64.9113 18.6395C65.8635 18.883 66.8826 19.2484 67.7421 19.716C67.744 19.7171 67.746 19.7181 67.7479 19.7191C67.8663 19.7565 67.9748 19.8018 68.0047 19.8156C68.0889 19.8543 68.1711 19.8968 68.252 19.9413C68.5444 20.0515 68.845 20.1484 69.1223 20.2916C69.4766 20.4744 69.0956 20.4087 68.9206 20.3196C68.6943 20.2044 68.4778 20.0653 68.252 19.9413C68.0789 19.876 67.9087 19.8061 67.7479 19.7191C67.746 19.7181 67.744 19.7171 67.7421 19.716C66.8826 19.2484 65.8635 18.883 64.9113 18.6395C64.782 18.6065 63.7329 18.263 63.7329 18.5151C63.7329 18.8728 63.9615 19.1311 64.0211 19.464C64.0606 19.685 64.1841 19.9644 64.2869 20.164C64.6833 20.9344 65.3722 21.6253 65.9867 22.2416L65.9937 22.2485C66.6724 22.9292 67.2685 23.6674 67.9375 24.3424C68.2626 24.6704 68.456 25.1072 68.8053 25.4282C69.0142 25.6202 69.282 25.779 69.5226 25.9322C70.0914 26.2943 70.4408 26.5904 70.685 27.1704C70.6928 27.189 70.7005 27.2075 70.7082 27.226Z" fill="#040D08"/>
<path d="M57.9688 14.6199C58.202 14.7015 58.2624 14.8618 58.4171 15.043C58.6657 15.3343 59.0141 15.6537 59.3393 15.8644C59.56 16.0073 59.6587 16.3517 59.8069 16.5613C60.0891 16.9605 60.5247 17.3202 60.7355 17.7591C61.0849 18.4864 61.6692 19.1489 62.1765 19.7845C62.5153 20.2089 62.7018 20.6608 63.118 21.0414C63.5361 21.4237 63.9892 21.7571 64.3957 22.1521C65.1315 22.8669 65.9413 23.524 66.5605 24.3361C66.9474 24.8436 67.4407 25.2645 67.8894 25.7175C68.3054 26.1375 68.5846 26.6696 68.991 27.0958C69.738 27.8791 70.4919 28.7052 71.1878 29.535C71.9491 30.4427 72.9651 31.0556 73.8585 31.8186C74.1448 32.0631 74.7849 33.0029 75.2547 33.0444C75.4862 33.0648 76.4902 33.1717 76.606 32.9262C76.8685 32.3698 76.1716 31.9904 75.8503 31.6443C75.531 31.3004 75.1764 30.9095 74.9408 30.5056C74.7735 30.2186 74.8468 29.7819 74.8896 29.4727C74.9341 29.1519 75.0701 28.9794 75.3796 28.8692C75.9483 28.6665 76.4962 28.411 77.0992 28.3091C77.4504 28.2498 77.8047 28.1829 78.1559 28.1287C78.5679 28.0652 78.9592 27.9015 79.3696 27.8425C79.5187 27.821 79.6395 27.7748 79.7827 27.7242C80.0411 27.6329 80.0521 27.3302 80.2182 27.1642C80.8816 26.5013 81.9611 26.1331 82.8409 25.8482C83.1518 25.7475 83.3998 25.5746 83.7247 25.5091C84.1888 25.4155 84.6555 25.3273 85.1177 25.2291C85.7976 25.0846 86.5221 24.8726 87.0199 24.389C87.0927 24.3182 87.3267 24.2112 87.3081 24.0841C87.2641 23.7849 86.8936 23.7721 86.6708 23.745C86.3721 23.7087 86.1636 23.5241 85.8798 23.5241C85.5558 23.5241 85.3523 23.9702 85.0601 24.1121C84.517 24.3759 83.905 24.3558 83.3436 24.5757C82.6037 24.8656 81.8519 25.0081 81.0764 24.8433C80.357 24.6904 79.6084 24.6105 78.8829 24.4824C78.4643 24.4084 78.0494 24.2252 77.65 24.0841C76.9806 23.8476 76.4404 23.3175 75.7606 23.101C74.958 22.8453 74.1182 22.6469 73.3237 22.373C72.7486 22.1747 72.1984 21.9492 71.6617 21.6636C71.4251 21.5377 71.1964 21.3653 70.9508 21.2716C70.6513 21.1573 70.3915 20.8841 70.099 20.7365C69.8094 20.5904 69.5594 20.4266 69.2536 20.3009C68.5248 20.0014 67.8525 19.5362 67.1529 19.1747C66.1094 18.6354 65.0535 18.1389 64.0083 17.5973C63.0859 17.1194 62.0851 16.7103 61.2543 16.0884C60.9602 15.8682 60.6092 15.6954 60.2872 15.5159C59.9872 15.3486 59.0085 15.0022 59.3297 15.127C59.4404 15.17 59.5346 15.2996 59.6211 15.3728C59.8388 15.5568 60.0835 15.6812 60.316 15.8426C60.7707 16.1581 61.1753 16.5673 61.5425 16.975C61.7338 17.1875 61.8834 17.4367 62.1157 17.6097C62.2817 17.7334 62.4486 17.8616 62.6185 17.98C62.7501 18.0717 63.0422 18.1559 63.1436 18.2724C63.2784 18.4272 63.3418 18.8187 63.3742 19.0191C63.4418 19.4375 62.7116 18.6014 62.5864 18.4933C62.4652 18.3886 62.5316 18.4535 62.5928 18.5213C62.8362 18.7908 62.9771 19.1634 63.1629 19.4702C63.4593 19.9599 63.7443 20.4067 64.1043 20.8485C64.6245 21.4869 65.2167 22.0743 65.7375 22.7152C66.2337 23.3259 66.856 23.7645 67.4155 24.3081C67.6916 24.5764 67.9426 24.9329 68.1968 25.2259C68.4807 25.553 68.8251 25.8151 69.1383 26.1126C69.5048 26.4607 69.9693 26.7124 70.3872 27.0024C70.7615 27.2622 71.1709 27.5629 71.5913 27.746C72.5674 28.1711 73.6531 28.2218 74.7103 28.1691C75.2506 28.1422 75.7781 27.8193 76.2922 27.6713C76.8088 27.5226 77.3152 27.3632 77.8293 27.2078C78.5008 27.0048 79.0881 26.6265 79.7379 26.374C79.9573 26.2887 80.1559 26.1611 80.3719 26.0784C80.5982 25.9918 80.838 25.9831 81.0476 25.8513C81.542 25.5405 79.9405 25.4098 79.8948 25.4064C79.4818 25.3753 79.0192 25.1944 79.0077 25.6957C79.001 25.991 79.0283 26.0184 78.7772 26.1811C78.4831 26.3715 78.1638 26.4788 77.8741 26.6664C77.2466 27.0729 76.615 27.333 75.8695 27.4878C75.4321 27.5786 74.9738 27.7174 74.5246 27.7242C73.8476 27.7345 73.2228 27.9379 72.5648 28.082C72.0743 28.1895 71.4027 28.2049 70.97 28.4803C70.916 28.5146 70.6514 28.6184 70.7715 28.7011C71.3051 29.0688 72.0972 29.1526 72.7249 29.2363C73.0041 29.2735 73.272 29.3703 73.5511 29.3981C73.6592 29.4088 73.8853 29.3806 73.6407 29.4167C73.2572 29.4733 72.8992 29.629 72.5391 29.7621C72.081 29.9313 72.0943 30.0579 72.6224 30.1759C72.8828 30.234 73.9335 30.5329 74.0666 30.1447C74.1704 29.8423 74.0231 29.4921 73.9161 29.2114C73.7648 28.8144 73.817 29.257 73.8297 29.4292C73.8865 30.203 74.2473 31.0149 74.6847 31.6568C74.7451 31.7455 74.9446 31.9364 74.9601 31.831C74.9886 31.637 74.6673 31.489 74.5342 31.4203C74.4366 31.37 73.9086 31.0701 73.9994 31.1714C74.2438 31.4442 74.5485 31.7022 74.8768 31.8746C74.9421 31.9089 75.0237 31.9788 75.0882 31.943C75.2588 31.8483 74.8907 31.6084 74.7551 31.4701C74.1004 30.8027 73.314 30.3003 72.6096 29.6905C72.1819 29.3203 71.8633 28.8531 71.4376 28.4834C71.1962 28.2738 71.0417 28.1755 70.9412 27.8642C70.864 27.6252 70.7824 27.4016 70.685 27.1704C70.4408 26.5904 70.0914 26.2943 69.5226 25.9322C69.282 25.779 69.0142 25.6202 68.8053 25.4282C68.456 25.1072 68.2626 24.6704 67.9375 24.3424C67.2685 23.6674 66.6724 22.9292 65.9937 22.2485C65.3774 21.6305 64.6848 20.9373 64.2869 20.164C64.1841 19.9644 64.0606 19.685 64.0211 19.464C63.9615 19.1311 63.7329 18.8728 63.7329 18.5151C63.7329 18.263 64.782 18.6065 64.9113 18.6395C65.8635 18.883 66.8826 19.2484 67.7421 19.716C68.1758 19.952 68.6788 20.0627 69.1223 20.2916C69.4766 20.4744 69.0956 20.4087 68.9206 20.3196C68.6131 20.1631 68.3239 19.9625 68.0047 19.8156C67.922 19.7775 67.24 19.4994 67.4059 19.8093C67.6667 20.2967 68.3375 20.3454 68.7284 20.6805C68.9441 20.8654 69.2244 20.9527 69.4746 21.0818C69.5834 21.138 69.6658 21.2352 69.7852 21.2716C70.0094 21.3401 70.1919 21.4725 70.4288 21.5392C70.719 21.6208 70.971 21.6749 71.2294 21.813C71.3484 21.8766 71.6319 21.9044 71.6873 22.0121" stroke="white" stroke-width="1.5" stroke-linecap="round"/>
<path d="M10.3105 5.21631C10.4928 5.22563 10.676 5.33925 10.8265 5.42907C10.9972 5.53088 11.1319 5.57214 11.2555 5.74092C11.3601 5.88371 11.4602 6.0121 11.5405 6.17226C11.651 6.3929 11.7326 6.62727 11.8465 6.84843C11.9338 7.01823 12.0414 7.17782 12.1179 7.35263C12.3768 7.94366 12.6744 8.50811 12.9849 9.07364C13.0646 9.21893 13.1936 9.32727 13.3029 9.45107C13.394 9.55437 13.456 9.66874 13.5369 9.77749C13.5918 9.85147 13.6892 9.91403 13.7663 9.96402" stroke="white" stroke-width="1.5" stroke-linecap="round"/>
<path d="M16.3023 11.1527C16.4288 11.1697 16.5573 11.2106 16.6808 11.2519C16.8332 11.2876 16.9857 11.3218 17.1386 11.3547C17.5581 11.4285 17.9789 11.4936 18.3944 11.5905C18.4271 11.5981 18.4823 11.6168 18.5342 11.634C18.5741 11.6371 18.625 11.6368 18.6494 11.6546C18.6928 11.6862 18.6179 11.6619 18.5342 11.634C18.5223 11.6331 18.5114 11.6319 18.5024 11.6298C18.1772 11.5546 17.846 11.498 17.5185 11.4331C17.3915 11.4079 17.2649 11.3818 17.1386 11.3547C17.0268 11.335 16.915 11.3146 16.8035 11.2929C16.7698 11.2863 16.7362 11.2797 16.7025 11.2728C16.595 11.251 16.4905 11.2181 16.387 11.1825C16.2954 11.165 16.1171 11.1446 16.1866 11.1446C16.2248 11.1446 16.2635 11.1475 16.3023 11.1527Z" fill="#040D08"/>
<path d="M14.1167 10.3577C14.199 10.5242 14.4908 10.585 14.6507 10.6666C14.9364 10.8125 15.2161 10.9589 15.4966 11.1081C15.8205 11.2805 16.0738 11.5593 16.4386 11.643C16.8991 11.7486 17.4006 11.6226 17.868 11.6823C17.9224 11.6893 18.1065 11.7266 18.1035 11.7246C17.7591 11.4891 17.2651 11.4339 16.869 11.3136C16.6562 11.249 16.4146 11.1446 16.1866 11.1446C16.1091 11.1446 16.3394 11.17 16.4146 11.1883C16.7813 11.2778 17.1479 11.3596 17.5185 11.4331C17.846 11.498 18.1772 11.5546 18.5024 11.6298C18.5415 11.6389 18.6177 11.6315 18.6494 11.6546C18.7197 11.7058 18.4798 11.6104 18.3944 11.5905C17.8346 11.46 17.2653 11.3872 16.7025 11.2728C16.4069 11.2127 16.1342 11.0697 15.8446 11.0134" stroke="white" stroke-width="1.5" stroke-linecap="round"/>
<path d="M7.12451 5.92454C7.25198 5.77507 7.47263 5.65778 7.65548 5.57771C8.08846 5.38812 8.56012 5.21279 8.9574 4.95547C9.18155 4.81029 9.54875 4.75455 9.79735 4.87532" stroke="white" stroke-width="1.5" stroke-linecap="round"/>
<path d="M50.6272 21.9099C50.4294 21.4593 50.4645 21.2165 50.6272 21.0207C50.7662 20.8535 50.9449 20.6991 51.0734 20.5258C51.1387 20.4377 51.1402 20.3566 51.2389 20.2973C51.4501 20.1702 51.5461 19.9059 51.7191 19.7472C51.8046 19.6687 51.8758 19.6644 51.9235 19.5486" stroke="white" stroke-width="1.5" stroke-linecap="round"/>
<path d="M36.8262 25.0308C37.0633 25.0538 37.3023 25.2037 37.5367 25.2593C37.9616 25.36 38.3776 25.4627 38.8054 25.5477C39.0153 25.5895 39.2137 25.6783 39.4121 25.7542C39.6103 25.8301 39.8183 25.8743 40.0091 25.967" stroke="white" stroke-width="1.5" stroke-linecap="round"/>
<path d="M58.8146 28.1231C58.6788 28.1258 58.5962 28.1145 58.5747 28.2587C58.5301 28.5574 58.5773 28.1619 58.5812 28.0664" stroke="white" stroke-width="1.5" stroke-linecap="round"/>
<path d="M57.1216 25.7683C57.2004 25.9808 57.3449 26.1022 57.53 26.2222" stroke="white" stroke-width="1.5" stroke-linecap="round"/>
<path d="M51.9238 21.5979C52.1163 21.9096 52.6201 22.0149 52.9426 22.159C53.1471 22.2504 53.2764 22.3278 53.4423 22.4774" stroke="white" stroke-width="1.5" stroke-linecap="round"/>
<path d="M35.5725 17.6028C35.3737 17.6028 35.1677 17.5836 34.9735 17.6303C34.6184 17.7157 34.2683 17.7947 33.9065 17.8501C33.506 17.9114 33.1372 18.0265 32.7495 18.1324C32.6032 18.1723 32.4524 18.1809 32.3047 18.2123C32.0582 18.2647 31.8108 18.3208 31.5603 18.3534C31.2038 18.4 30.8565 18.484 30.501 18.5358C30.3063 18.5642 30.1094 18.5736 29.9135 18.592C29.516 18.6294 29.1225 18.6928 28.7257 18.7356C28.2251 18.7897 27.7383 18.8816 27.2434 18.9617C27.0075 18.9999 26.7846 19.0481 26.5557 19.1191C26.3925 19.1696 26.2348 19.244 26.062 19.244" stroke="white" stroke-width="1.5" stroke-linecap="round"/>
</svg>
