<svg width="82" height="42" viewBox="0 0 82 42" fill="none" xmlns="http://www.w3.org/2000/svg">
<path d="M38.0821 1.46566C37.67 1.41939 37.2358 1.44281 36.816 1.44281C36.654 1.44281 36.4906 1.44915 36.3287 1.44154C36.1832 1.4347 35.9925 1.44852 35.8552 1.39712C35.7458 1.35617 35.5997 1.36053 35.4834 1.3527C35.3371 1.34284 35.1892 1.32859 35.0425 1.32859C34.7821 1.32859 34.4967 1.29641 34.2387 1.33366C33.9372 1.37718 33.604 1.3233 33.3118 1.39712C33.0598 1.46078 32.7461 1.4301 32.4853 1.41997C32.4339 1.41797 32.399 1.38479 32.3497 1.37681C32.2998 1.36875 32.249 1.37819 32.1989 1.3692C32.0844 1.34862 31.969 1.34588 31.8535 1.32859C31.3915 1.25942 30.9311 1.26005 30.4631 1.26005C30.0912 1.26005 29.7263 1.23721 29.3553 1.23721C28.8975 1.23721 28.4399 1.19152 27.9813 1.19152C27.7912 1.19152 27.6011 1.19152 27.411 1.19152C27.187 1.19152 26.9782 1.14942 26.7504 1.14583C26.5339 1.14241 26.3214 1.10013 26.1048 1.10013C25.9595 1.10013 25.8142 1.10013 25.669 1.10013C25.3395 1.10013 25.0152 1.05444 24.688 1.05444C24.4021 1.05444 24.1161 1.0316 23.8276 1.0316C23.7334 1.0316 23.6392 1.0316 23.545 1.0316C23.4825 1.0316 23.2465 0.968869 23.2059 1.02018C23.1549 1.08468 23.1346 1.1676 23.1167 1.24863C23.0919 1.36154 23.0122 1.49399 23.0024 1.60273C22.9949 1.68707 22.9465 1.76919 22.9359 1.85529C22.9178 2.00119 22.8273 2.09998 22.7588 2.21955C22.734 2.26276 22.7262 2.31305 22.7035 2.35662C22.6801 2.40155 22.621 2.43883 22.6181 2.49369C22.6117 2.61685 22.4987 2.69943 22.4498 2.81225C22.3947 2.9395 22.3091 3.02639 22.2614 3.16127C22.237 3.23034 22.2088 3.29798 22.1835 3.36688C22.1678 3.40988 22.152 3.50475 22.1207 3.53314C22.0654 3.58344 22.0942 3.65475 22.063 3.71336C22.0325 3.77055 21.9974 3.81363 21.9738 3.87582C21.9417 3.95996 21.9228 4.03339 21.8821 4.11569C21.832 4.21692 21.7364 4.31333 21.7364 4.43552C21.7364 4.5721 21.6972 4.65305 21.6347 4.76677C21.5307 4.95595 21.9489 4.90079 22.0429 4.92669C22.2622 4.98713 22.5311 5.00665 22.7588 5.00665C23.3222 5.00665 23.902 5.04073 24.4619 4.97873C25.0855 4.90967 25.7241 4.9838 26.3485 4.9838C27.0485 4.9838 27.7407 5.07518 28.4385 5.07518C29.2147 5.07518 29.9909 5.07518 30.7671 5.07518C31.7561 5.07518 32.7518 5.04079 33.7401 5.07645C35.0927 5.12527 36.4405 5.07493 37.7869 5.21098C37.9693 5.22942 38.146 5.2351 38.3308 5.2351C38.4449 5.2351 38.5342 5.27465 38.5342 5.14372C38.5342 4.92657 38.4212 4.72435 38.4212 4.50406C38.4212 4.39124 38.3832 4.28389 38.3584 4.17407C38.3306 4.05128 38.3308 3.91195 38.3308 3.7857C38.3308 3.52967 38.3082 3.26954 38.3082 3.01912C38.3082 2.88213 38.2769 2.72323 38.2617 2.58507C38.244 2.42408 38.2223 2.25571 38.2177 2.09517C38.212 1.8919 38.0821 1.72038 38.0821 1.51135" stroke="white" stroke-width="2" stroke-linecap="round"/>
<path d="M18.4354 9.14164C18.2824 9.47033 18.2008 9.83178 17.9946 10.1329C17.7874 10.4352 17.6289 10.7743 17.462 11.0974C17.1562 11.6897 17.0207 12.372 16.6632 12.9339C16.618 13.005 16.6054 13.0956 16.5539 13.1624C16.4698 13.2716 16.4036 13.3319 16.3505 13.4594C16.3143 13.5462 16.2802 13.7213 16.2085 13.7792C16.1753 13.8061 16.1294 13.8737 16.1294 13.9163C16.1294 14.0395 16.1805 14.0058 16.2927 14.0076C16.5227 14.0113 16.757 14.0424 16.9872 14.0546C17.2317 14.0676 17.481 14.0843 17.7245 14.1104C17.9606 14.1358 18.2032 14.1646 18.4404 14.1676C18.7102 14.1709 19.0004 14.1342 19.2669 14.1777C19.5563 14.225 19.8506 14.2153 20.1436 14.2361C20.4657 14.2589 20.7929 14.2818 21.1157 14.2818C22.3964 14.2818 23.6756 14.2589 24.9566 14.2589C25.5798 14.2589 26.2018 14.3046 26.8243 14.3046C27.0923 14.3046 27.359 14.3474 27.6269 14.3503C27.9443 14.3538 28.2716 14.3636 28.5865 14.4062C29.3035 14.5032 30.0226 14.5331 30.7456 14.5331C31.3858 14.5331 32.026 14.5788 32.666 14.5788C34.4731 14.5788 36.2661 14.7594 38.0719 14.7844C38.6621 14.7925 39.2484 14.8529 39.8403 14.8529C39.906 14.8529 39.9718 14.8529 40.0375 14.8529C40.117 14.8529 40.094 14.795 40.094 14.7273C40.094 14.6092 40.094 14.4912 40.094 14.3732C40.094 13.6921 39.8906 13.055 39.8906 12.3806C39.8906 12.2173 39.8453 12.055 39.8453 11.8881C39.8453 11.7354 39.8338 11.5501 39.7888 11.4046C39.7661 11.3313 39.7373 11.2075 39.7323 11.1342C39.7264 11.0479 39.6913 10.9625 39.6871 10.8779C39.6793 10.7199 39.6419 10.5704 39.6419 10.4095C39.6419 10.1293 39.6347 9.81154 39.5753 9.54143C39.5255 9.31491 39.461 9.07676 39.461 8.83323C39.461 8.7764 39.4641 8.71859 39.461 8.66189C39.4578 8.60315 39.3463 8.66088 39.3203 8.66189C39.2642 8.66407 39.2162 8.68473 39.1671 8.68473C39.1033 8.68473 39.0518 8.72793 38.9862 8.73042C38.9303 8.73256 38.87 8.72113 38.8167 8.74185C38.6732 8.79759 38.4411 8.75327 38.2854 8.75327C38.0497 8.75327 37.8067 8.77097 37.572 8.752C36.9892 8.70489 36.3957 8.73042 35.8098 8.73042C35.5347 8.73042 35.2591 8.77088 34.9846 8.77611C34.6325 8.78283 34.2828 8.77325 33.932 8.79769C33.3303 8.83962 32.7313 8.80433 32.1309 8.87257C31.9154 8.89708 31.6986 8.91318 31.4816 8.91318C31.3659 8.91318 31.261 8.95594 31.1462 8.95888C31.0513 8.9613 30.956 8.95888 30.8611 8.95888C30.7167 8.95888 30.5722 8.95888 30.4278 8.95888C30.2575 8.95888 30.0932 8.89346 29.9204 8.89034C29.5631 8.88389 29.2051 8.89034 28.8477 8.89034C28.559 8.89034 28.2436 8.8831 27.9635 8.94872C27.5577 9.04382 27.1126 9.00457 26.6987 9.00457C26.5047 9.00457 26.3142 9.02741 26.1222 9.02741C25.8111 9.02741 25.4834 9.0634 25.1739 9.09468C24.8467 9.12774 24.5015 9.09595 24.1729 9.09595C23.5117 9.09595 22.8505 9.02741 22.1884 9.02741C21.4146 9.02741 20.639 9.08316 19.8673 9.09595C19.3611 9.10433 18.8744 9.14164 18.3676 9.14164" stroke="white" stroke-width="2" stroke-linecap="round"/>
<path d="M26.2569 27.2027C25.9355 27.2027 25.6143 27.1977 25.2934 27.2168C25.0631 27.2305 24.8305 27.2389 24.5997 27.2389C24.411 27.2389 24.2251 27.2751 24.0364 27.2751C23.391 27.2751 22.7457 27.2933 22.0995 27.2933C21.7703 27.2933 21.4465 27.3295 21.1172 27.3295C20.8373 27.3295 20.5582 27.3476 20.2772 27.3476C19.9162 27.3476 19.5615 27.3838 19.1993 27.3838C18.8953 27.3838 18.5917 27.4019 18.2886 27.4019C17.7427 27.4019 17.2 27.4743 16.6553 27.4743C16.1459 27.4743 15.6336 27.4924 15.1226 27.4924C14.8329 27.4924 14.5423 27.5105 14.2517 27.5105C13.9417 27.5105 13.6303 27.5805 13.3221 27.6151C13.0683 27.6436 12.8006 27.6734 12.5448 27.6734C12.4132 27.6734 12.2706 27.6812 12.1397 27.6955C12.0659 27.7036 11.9948 27.7073 11.9207 27.7096C11.8567 27.7116 11.8006 27.7435 11.7376 27.7458C10.8472 27.7792 9.95763 27.7458 9.06724 27.7458C8.99034 27.7458 8.92805 27.7349 8.85325 27.7177C8.80409 27.7063 8.65246 27.6781 8.60244 27.6925C8.52082 27.7161 8.46093 27.9036 8.41334 27.9631C8.35498 28.0359 8.33389 28.1323 8.27101 28.2064C8.23789 28.2455 8.24883 28.3045 8.21627 28.3432C8.16239 28.4073 8.11387 28.486 8.06897 28.5564C7.85996 28.8842 7.6819 29.2217 7.44393 29.529C7.41216 29.57 7.37035 29.6014 7.33843 29.6426C7.29554 29.698 7.28942 29.7608 7.26278 29.8236C7.22123 29.9216 7.15602 30.0153 7.10553 30.1093C7.01876 30.2708 6.86629 30.3914 6.76514 30.5447C6.70105 30.6419 6.61497 30.7214 6.55414 30.8193C6.51468 30.8828 6.43933 30.919 6.42475 30.9963C6.41236 31.0621 6.37277 31.1729 6.32721 31.2216C6.29072 31.2606 6.24966 31.2828 6.22768 31.3342C6.2108 31.3737 6.19903 31.4174 6.17394 31.4529C6.12805 31.5178 6.06555 31.567 6.02265 31.638C5.98905 31.6935 5.93503 31.7419 5.91417 31.8009C5.87743 31.9048 5.79448 31.9833 5.74397 32.0825C5.72629 32.1172 5.71713 32.1575 5.69919 32.1901C5.66569 32.251 5.72276 32.2181 5.75194 32.2173C5.9299 32.2121 6.10707 32.2166 6.28243 32.2344C6.50838 32.2572 6.7359 32.2082 6.95823 32.2635C7.08579 32.2952 7.24356 32.2716 7.37426 32.2716C7.5627 32.2716 7.75114 32.2716 7.93958 32.2716C8.81515 32.2716 9.68404 32.2354 10.5592 32.2354C11.0522 32.2354 11.5453 32.1992 12.0382 32.1992C12.5033 32.1992 12.9684 32.1992 13.4336 32.1992C13.8155 32.1992 14.197 32.2173 14.5781 32.2173C14.9911 32.2173 15.3999 32.274 15.8123 32.2907C16.7103 32.327 17.604 32.3078 18.5026 32.3078C19.2845 32.3078 20.0641 32.2716 20.8465 32.2716C21.4913 32.2716 22.1363 32.3532 22.7813 32.3621C23.0545 32.3659 23.3236 32.3802 23.5965 32.3802C23.6418 32.3802 23.6437 32.3652 23.6631 32.3259C23.6765 32.2989 23.6721 32.2696 23.685 32.2434C23.698 32.2173 23.7274 32.2123 23.7308 32.1811C23.7397 32.1001 23.7924 32.0059 23.8303 31.9346C23.8942 31.8148 23.9613 31.6884 24.0364 31.5746C24.067 31.5282 24.0938 31.482 24.125 31.4348C24.1706 31.3657 24.2304 31.2924 24.2683 31.2216C24.3571 31.0556 24.461 30.9181 24.528 30.7419C24.5499 30.6844 24.5928 30.6422 24.6126 30.584C24.6403 30.503 24.6591 30.424 24.7022 30.3486C24.8549 30.0816 24.8946 29.7767 25.0297 29.5038C25.1016 29.3585 25.1682 29.2138 25.2496 29.0714C25.325 28.9395 25.3764 28.7919 25.4606 28.6681C25.5615 28.5198 25.6604 28.3522 25.7363 28.1924C25.7973 28.0641 25.8814 27.9479 25.9304 27.8142C25.9602 27.733 25.9999 27.6876 26.0488 27.6191C26.0903 27.5611 26.097 27.4867 26.1414 27.429C26.1828 27.3753 26.255 27.2989 26.2748 27.2389" stroke="white" stroke-width="2" stroke-linecap="round"/>
<path d="M20.5609 36.7239C20.7404 36.7057 20.9169 36.6558 21.0972 36.6526C20.9864 36.7648 21.0162 36.9712 20.95 37.105C20.9138 37.1782 20.8922 37.262 20.8644 37.3404C20.8254 37.4504 20.7502 37.5461 20.7111 37.6562C20.6703 37.7713 20.5912 37.8725 20.5599 37.9921C20.5365 38.0813 20.5234 38.1796 20.4842 38.2636C20.3892 38.4671 20.2396 38.6431 20.1797 38.861C20.134 39.0273 19.9381 39.1441 19.893 39.3035C19.8433 39.4792 19.6671 39.6409 19.5467 39.7662C19.4915 39.8235 19.4735 39.9134 19.4093 39.9653C19.3753 39.9928 19.3264 40.0807 19.3098 40.1242C19.2699 40.229 19.2473 40.338 19.1993 40.443C19.1587 40.5318 19.1452 40.6351 19.0371 40.6351C18.7849 40.6351 18.5346 40.6532 18.2826 40.6532C17.7866 40.6532 17.292 40.6705 16.7967 40.6884C16.5267 40.6982 16.2576 40.7105 15.9885 40.7337C15.6637 40.7617 15.3391 40.7376 15.0141 40.7719C14.734 40.8014 14.4533 40.798 14.1721 40.798C13.9194 40.798 13.6682 40.8161 13.4157 40.8161H11.4052C10.2199 40.8161 9.0358 40.8524 7.85003 40.8524C7.56863 40.8524 7.2885 40.8541 7.00802 40.8805C6.87035 40.8935 6.73443 40.9195 6.59597 40.9238C6.46909 40.9277 6.34425 40.9197 6.21876 40.9439C5.96819 40.9921 5.70433 40.9877 5.4494 40.9962C5.20835 41.0042 4.96601 40.9972 4.72483 40.9972C4.29405 40.9972 3.86528 40.961 3.43394 40.961C3.10466 40.961 2.77563 40.9791 2.44562 40.9791C2.32122 40.9791 2.19461 40.9855 2.0704 40.9781C1.93663 40.9701 1.78051 40.9763 1.65138 40.9429C1.44827 40.8902 1.21465 40.8886 1.00544 40.8886C0.978711 40.8886 1.05777 40.7373 1.08506 40.7166C1.15855 40.6609 1.19131 40.5721 1.2254 40.4903C1.24444 40.4446 1.24279 40.3891 1.26919 40.3455C1.29484 40.3031 1.34113 40.2843 1.35877 40.2328C1.39185 40.1363 1.45136 40.0241 1.51602 39.9472C1.71466 39.7111 1.84247 39.4206 2.01765 39.1678C2.12192 39.0173 2.18276 38.8209 2.31225 38.6901C2.36543 38.6363 2.41224 38.561 2.45657 38.499C2.51243 38.4208 2.58897 38.3467 2.63472 38.2626C2.67485 38.1889 2.69716 38.1437 2.76013 38.0917C2.80788 38.0522 2.82354 37.9708 2.85966 37.9187C2.91181 37.8434 2.94934 37.755 2.99502 37.6753C3.02798 37.6177 3.0921 37.5827 3.13237 37.5315C3.19706 37.4491 3.33243 37.3186 3.34337 37.2137C3.34993 37.1507 3.42273 37.0372 3.47276 37.0004C3.54546 36.947 3.70961 36.9783 3.79523 36.9783H4.09979H4.40037C4.65859 36.9783 4.90893 36.9294 5.16674 36.924C5.56674 36.9156 5.96727 36.9059 6.36904 36.9059C7.11788 36.9059 7.8746 36.9154 8.6184 36.8295C9.0727 36.777 9.55077 36.8154 10.0078 36.8154H11.1922C11.6933 36.8154 12.1943 36.7973 12.6941 36.7973C12.7461 36.7973 12.7873 36.7715 12.8374 36.7631C12.8929 36.7538 12.9516 36.764 13.0076 36.7601C13.149 36.7502 13.2872 36.743 13.4296 36.743C13.6739 36.743 13.9196 36.7249 14.1651 36.7249H16.5867C17.0116 36.7249 17.4312 36.6887 17.8547 36.6887C18.036 36.6887 18.227 36.672 18.4061 36.7028C18.5994 36.736 18.8354 36.7129 19.0192 36.7792C19.1079 36.8112 19.2116 36.7973 19.3048 36.7973C19.3813 36.7973 19.4387 36.7611 19.5118 36.7611C19.6832 36.7611 19.8528 36.743 20.0224 36.743C20.1993 36.743 20.3848 36.7417 20.5609 36.7239Z" fill="#040D08"/>
<path d="M21.1152 36.6525C20.9287 36.6525 20.7464 36.7051 20.5609 36.7239C20.3848 36.7417 20.1993 36.743 20.0224 36.743C19.8528 36.743 19.6832 36.7611 19.5118 36.7611C19.4387 36.7611 19.3813 36.7973 19.3048 36.7973C19.2116 36.7973 19.1079 36.8112 19.0192 36.7792C18.8354 36.7129 18.5994 36.736 18.4061 36.7028C18.227 36.672 18.036 36.6887 17.8547 36.6887C17.4312 36.6887 17.0116 36.7249 16.5867 36.7249C15.7795 36.7249 14.9723 36.7249 14.1651 36.7249C13.9196 36.7249 13.6739 36.743 13.4296 36.743C13.2872 36.743 13.149 36.7502 13.0076 36.7601C12.9516 36.764 12.8929 36.7538 12.8374 36.7631C12.7873 36.7715 12.7461 36.7973 12.6941 36.7973C12.1943 36.7973 11.6933 36.8154 11.1922 36.8154C10.7974 36.8154 10.4026 36.8154 10.0078 36.8154C9.55077 36.8154 9.0727 36.777 8.6184 36.8295C7.8746 36.9154 7.11788 36.9059 6.36904 36.9059C5.96727 36.9059 5.56674 36.9156 5.16674 36.924C4.90893 36.9294 4.65859 36.9783 4.40037 36.9783C4.30017 36.9783 4.19998 36.9783 4.09979 36.9783C3.99827 36.9783 3.89675 36.9783 3.79523 36.9783C3.70961 36.9783 3.54546 36.947 3.47276 37.0004C3.42273 37.0372 3.34993 37.1507 3.34337 37.2137C3.33243 37.3186 3.19706 37.4491 3.13237 37.5315C3.0921 37.5827 3.02798 37.6177 2.99502 37.6753C2.94934 37.755 2.91181 37.8434 2.85966 37.9187C2.82354 37.9708 2.80788 38.0522 2.76013 38.0917C2.69716 38.1437 2.67485 38.1889 2.63472 38.2626C2.58897 38.3467 2.51243 38.4208 2.45657 38.499C2.41224 38.561 2.36543 38.6363 2.31225 38.6901C2.18276 38.8209 2.12192 39.0173 2.01765 39.1678C1.84247 39.4206 1.71466 39.7111 1.51602 39.9472C1.45136 40.0241 1.39185 40.1363 1.35876 40.2328C1.34113 40.2843 1.29484 40.3031 1.26919 40.3455C1.24279 40.3891 1.24444 40.4446 1.2254 40.4903C1.19131 40.5721 1.15855 40.6609 1.08506 40.7166C1.05777 40.7373 0.978711 40.8886 1.00544 40.8886C1.21465 40.8886 1.44827 40.8902 1.65138 40.9429C1.78051 40.9763 1.93663 40.9701 2.0704 40.9781C2.19461 40.9855 2.32122 40.9791 2.44562 40.9791C2.77563 40.9791 3.10466 40.961 3.43394 40.961C3.86528 40.961 4.29405 40.9972 4.72483 40.9972C4.96601 40.9972 5.20835 41.0042 5.4494 40.9962C5.70433 40.9877 5.96819 40.9921 6.21876 40.9439C6.34425 40.9197 6.46909 40.9277 6.59597 40.9238C6.73443 40.9195 6.87035 40.8935 7.00802 40.8805C7.2885 40.8541 7.56863 40.8524 7.85003 40.8524C9.0358 40.8524 10.2199 40.8161 11.4052 40.8161C12.0754 40.8161 12.7455 40.8161 13.4157 40.8161C13.6682 40.8161 13.9194 40.798 14.1721 40.798C14.4533 40.798 14.734 40.8014 15.0141 40.7719C15.3391 40.7376 15.6637 40.7617 15.9885 40.7337C16.2576 40.7105 16.5267 40.6982 16.7967 40.6884C17.292 40.6705 17.7866 40.6532 18.2826 40.6532C18.5346 40.6532 18.7849 40.6351 19.0371 40.6351C19.1452 40.6351 19.1587 40.5318 19.1993 40.443C19.2473 40.338 19.2699 40.229 19.3098 40.1242C19.3264 40.0807 19.3753 39.9928 19.4093 39.9653C19.4735 39.9134 19.4915 39.8235 19.5467 39.7662C19.6671 39.6409 19.8433 39.4792 19.893 39.3035C19.9381 39.1441 20.134 39.0273 20.1797 38.861C20.2396 38.6431 20.3892 38.4671 20.4842 38.2636C20.5234 38.1796 20.5365 38.0813 20.5599 37.9921C20.5912 37.8725 20.6703 37.7713 20.7111 37.6562C20.7502 37.5461 20.8254 37.4504 20.8644 37.3404C20.8922 37.262 20.9138 37.1782 20.95 37.105C21.0163 36.9711 20.9864 36.7646 21.0973 36.6525" stroke="white" stroke-width="2" stroke-linecap="round"/>
<path d="M53.1615 17.019C53.15 17.1115 52.6275 17.0887 52.5414 17.0918C52.2917 17.1008 52.0245 17.1646 51.7733 17.1646C51.4979 17.1646 51.2367 17.2373 50.9572 17.2373C50.5938 17.2373 50.2305 17.2373 49.8671 17.2373C49.1738 17.2373 48.4615 17.201 47.7589 17.201C47.6116 17.201 47.4652 17.2373 47.3128 17.2373C47.0466 17.2373 46.7304 17.2204 46.4727 17.2899C46.0731 17.3976 45.664 17.2855 45.2586 17.3485C44.8769 17.4078 44.4778 17.3829 44.0884 17.3829C43.5505 17.3829 43.0114 17.4556 42.4703 17.4556C41.9682 17.4556 41.4619 17.492 40.9561 17.492C40.5907 17.492 40.2253 17.492 39.86 17.492C39.6535 17.492 39.3535 17.4389 39.1559 17.5102C38.9866 17.5713 38.739 17.5977 38.5598 17.6011C38.3994 17.6043 38.1456 17.5986 37.9957 17.6537C37.5962 17.8005 37.0994 17.7467 36.6756 17.7467C35.8348 17.7467 34.9941 17.7467 34.1533 17.7467C33.2894 17.7467 32.4285 17.7103 31.567 17.7103C31.0823 17.7103 30.6004 17.7831 30.1188 17.7831C29.4717 17.7831 28.8007 17.812 28.1586 17.8841C27.5423 17.9533 26.9091 18.0013 26.2884 18.0013C26.0441 18.0013 25.7985 17.9931 25.5543 18.0013C25.4142 18.0061 25.2958 18.0741 25.1503 18.0741C25.0449 18.0741 24.9396 18.0741 24.8342 18.0741C24.2764 18.0741 23.7202 18.1469 23.166 18.1469C22.9612 18.1469 22.6899 18.1529 22.494 18.2115C22.3316 18.2602 22.1235 18.2175 21.9539 18.2479C21.6696 18.299 21.3321 18.256 21.0418 18.256C20.7911 18.256 20.5404 18.256 20.2897 18.256C20.2019 18.256 20.0478 18.2848 19.9657 18.2479C19.8557 18.1985 19.7178 18.2196 19.5976 18.2196C19.2646 18.2196 18.9312 18.256 18.6015 18.256C18.3068 18.256 18.0121 18.256 17.7174 18.256C16.4458 18.256 15.1718 18.3652 13.917 18.3652" stroke="white" stroke-width="2" stroke-linecap="round"/>
<path d="M13.8669 18.451C13.8669 18.5253 13.7996 18.5707 13.7528 18.624C13.7007 18.6831 13.6717 18.7939 13.6386 18.869C13.5734 19.0173 13.4693 19.1424 13.3977 19.287C13.3327 19.4185 13.2522 19.5633 13.1536 19.6746C13.0986 19.7368 13.0714 19.8344 13.0268 19.9053C12.9834 19.9743 12.913 20.0207 12.8747 20.0943C12.7457 20.342 12.5776 20.5634 12.4531 20.815C12.4358 20.8499 12.3459 20.9317 12.312 20.9592C12.2789 20.9859 12.2197 21.1406 12.1899 21.1898C12.1078 21.3256 11.9813 21.4347 11.8983 21.571C11.821 21.6978 11.6952 21.8355 11.6685 21.9842C11.6564 22.0513 11.6174 22.1638 11.5908 22.2277C11.5684 22.2813 11.5821 22.3328 11.5528 22.3846C11.4857 22.5031 11.4237 22.6266 11.3784 22.769C11.3468 22.8683 11.3112 22.9483 11.2849 23.0493C11.2745 23.0891 11.2706 23.1239 11.2706 23.1646C11.2706 23.1909 11.2205 23.2181 11.2389 23.2367C11.2774 23.2755 11.5607 23.2367 11.6066 23.2367C11.9491 23.2367 12.2702 23.3227 12.6084 23.3504C13.2419 23.4023 13.8755 23.4117 14.5104 23.4369C15.1659 23.4629 15.8251 23.4028 16.479 23.4609C17.1435 23.5199 17.8215 23.5484 18.4888 23.5538C19.3436 23.5607 20.199 23.5826 21.055 23.5826C22.0463 23.5826 23.0219 23.705 24.0111 23.7556C24.8615 23.7991 25.7113 23.8421 26.5629 23.8421C27.283 23.8421 28.0309 23.8424 28.7471 23.762C29.328 23.6968 29.9441 23.7556 30.5287 23.7556C31.0803 23.7556 31.6318 23.7556 32.1834 23.7556C33.8101 23.7556 35.4402 23.7268 37.0685 23.7268C37.9705 23.7268 38.873 23.7117 39.7725 23.7844C40.3585 23.8318 40.9311 23.9104 41.5145 23.9718C42.091 24.0325 42.6957 24.0379 43.2754 24.0439C43.6047 24.0473 43.9712 24.0763 44.293 24.1464C44.667 24.2279 45.0447 24.2457 45.4279 24.2457C45.9436 24.2457 46.4592 24.2457 46.9749 24.2457C47.3543 24.2457 47.7711 24.1951 48.1446 24.2601C48.5709 24.3344 49.0205 24.2596 49.4507 24.3386C49.6668 24.3783 49.8882 24.3362 50.1006 24.3899" stroke="white" stroke-width="2" stroke-linecap="round"/>
<path d="M49.9579 24.361C49.7815 24.361 49.6275 24.374 49.4633 24.4251C49.3883 24.4484 49.3345 24.4898 49.2589 24.5068C49.1464 24.532 49.0295 24.5472 48.9165 24.5772C48.6397 24.6509 48.3405 24.6491 48.0622 24.7134C47.7509 24.7853 47.4268 24.8171 47.1064 24.8495C46.2983 24.9312 45.5092 25.1245 44.6956 25.1394C44.1734 25.149 43.6774 25.33 43.166 25.3989C42.673 25.4653 42.1846 25.4995 41.6904 25.5494C40.5787 25.6618 39.466 25.8382 38.346 25.8874C37.1149 25.9415 35.9244 26.2457 34.7036 26.3791C34.0068 26.4552 33.3009 26.566 32.6114 26.6962C31.7728 26.8545 30.9458 26.8351 30.0991 26.8708C29.4371 26.8987 28.7778 26.933 28.1194 27.0069C27.8774 27.0341 27.657 27.0488 27.4204 27.0966C27.299 27.1212 27.1533 27.0962 27.0352 27.1303C26.9079 27.167 26.7651 27.1743 26.6326 27.2087C26.5463 27.2312 26.6924 27.352 26.704 27.4282C26.7364 27.6414 26.7901 27.8493 26.918 28.0288C27.0958 28.2783 27.1182 28.5926 27.2904 28.844C27.4266 29.0427 27.4961 29.3309 27.59 29.5503C27.6655 29.7268 27.6824 29.8917 27.804 30.0532C27.9311 30.2223 27.939 30.4445 28.0528 30.617C28.2901 30.9766 28.386 31.4185 28.5743 31.799C28.6367 31.9251 28.7241 32.0585 28.7312 32.2026C28.7344 32.2667 28.7638 32.3226 28.7819 32.382C28.8005 32.443 28.7753 32.5103 28.7946 32.571C28.8267 32.6719 28.9024 32.7286 28.9024 32.8369C28.9024 32.9118 29.1514 32.9721 29.2178 32.981C30.1765 33.1102 31.1525 33.0675 32.12 33.0675C32.5445 33.0675 32.9485 33.1268 33.369 33.1684C33.7847 33.2096 34.2091 33.2184 34.6259 33.2389C35.4189 33.278 36.2203 33.319 37.0146 33.327C37.422 33.3311 37.8415 33.4024 38.2445 33.4583C38.71 33.5229 39.1757 33.5633 39.6441 33.6009C40.1341 33.6402 40.624 33.6302 41.1134 33.6665C41.5859 33.7016 42.0573 33.744 42.5304 33.7819C43.3721 33.8492 44.2215 33.9324 45.0665 33.9324C45.293 33.9324 45.5174 33.9397 45.7417 33.91C45.886 33.8909 46.0263 33.9209 46.1633 33.8748" stroke="white" stroke-width="2" stroke-linecap="round"/>
<path d="M58.6312 7.55341C58.5287 7.61165 58.463 7.76495 58.3807 7.84811C58.2793 7.95058 58.1289 7.92819 57.9908 7.92819C57.815 7.92819 57.6431 7.98585 57.4614 7.98585C57.25 7.98585 57.0469 8.01468 56.8338 8.01468C56.7154 8.01468 56.6292 8.07234 56.5136 8.07234C56.419 8.07234 56.3031 8.09539 56.2124 8.12359C56.0275 8.18109 55.7703 8.18765 55.5784 8.18765C55.2347 8.18765 54.8965 8.21648 54.5529 8.21648C54.1689 8.21648 53.7788 8.30297 53.3942 8.30297C52.9999 8.30297 52.6169 8.38946 52.2182 8.38946C51.9371 8.38946 51.652 8.45646 51.3702 8.47755C50.9206 8.5112 50.4775 8.61442 50.0308 8.65053C49.7231 8.6754 49.3793 8.72401 49.0735 8.65533C48.84 8.60292 48.5473 8.64893 48.3095 8.64893C48.0786 8.64893 47.801 8.67824 47.5725 8.721C47.2824 8.77527 46.9826 8.76705 46.6928 8.8203C46.6064 8.83617 46.5666 8.82991 46.4899 8.86515C46.4462 8.88523 46.4027 8.87599 46.3567 8.87956C46.2937 8.88446 46.2608 8.93722 46.1919 8.93722" stroke="white" stroke-width="2" stroke-linecap="round"/>
<path d="M46.2207 8.96613C46.2207 9.25998 46.0736 9.42113 45.9211 9.64362C45.8791 9.70503 45.8598 9.76588 45.8276 9.83101C45.8052 9.87641 45.7542 9.87862 45.7293 9.9175C45.6464 10.0471 45.4985 10.1867 45.452 10.3355C45.3726 10.5895 45.1576 10.7847 45.0446 11.013C44.9706 11.1625 44.9181 11.3013 44.837 11.4471C44.7788 11.5516 44.7298 11.697 44.7023 11.8138C44.6829 11.8959 44.6109 11.9559 44.5802 12.0365C44.5527 12.1087 44.5229 12.1581 44.4867 12.2239C44.409 12.3651 44.3052 12.4982 44.2378 12.6419C44.0829 12.9724 43.7481 13.219 43.6244 13.5628C43.5767 13.6954 43.4653 13.7904 43.4184 13.9184C43.3623 14.0713 43.2228 14.2239 43.1252 14.3444C43.0765 14.4045 43.0523 14.4741 42.9968 14.5302C42.9558 14.5716 42.8868 14.6051 42.8605 14.6583C42.8015 14.7775 42.7904 14.9172 42.7257 15.0347C42.6554 15.1627 42.7635 15.1645 42.8557 15.1645C43.0899 15.1645 43.3293 15.169 43.561 15.1997C43.82 15.234 44.065 15.3209 44.3234 15.3663C44.5424 15.4048 44.7611 15.4416 44.9812 15.4752C45.5575 15.5631 46.146 15.6721 46.7168 15.8003C47.0066 15.8654 47.2886 15.914 47.5902 15.914C47.8437 15.914 48.0927 15.9818 48.3446 16.0021C48.5906 16.022 48.841 16.1388 49.0896 16.1735C49.3322 16.2073 49.5741 16.2522 49.8155 16.2952C50.0325 16.3339 50.2317 16.4187 50.4448 16.4618C50.7172 16.5168 51.0322 16.547 51.2928 16.6348C51.6776 16.7644 52.1582 16.683 52.5259 16.859C52.6295 16.9086 52.7504 16.9164 52.8556 16.9551C52.9481 16.9891 53.026 17.0672 53.1251 17.0672" stroke="white" stroke-width="2" stroke-linecap="round"/>
<path d="M54.0432 23.8899C54.0432 23.9393 53.9913 23.9534 53.9635 23.9894C53.9371 24.0238 53.9314 24.0752 53.8998 24.1071C53.8076 24.2003 53.7832 24.3038 53.7297 24.4229C53.6807 24.5318 53.6075 24.6286 53.5515 24.7337C53.4883 24.8522 53.4374 24.9847 53.3803 25.1108C53.3179 25.2487 53.2373 25.3761 53.1733 25.5151C53.1453 25.5758 53.1008 25.638 53.0668 25.6992C53.0354 25.7556 53.018 25.8223 52.9762 25.8721C52.9274 25.9304 52.9094 25.9837 52.8926 26.0582C52.877 26.1274 52.8255 26.1812 52.807 26.2513C52.7897 26.317 52.743 26.3586 52.7174 26.4203C52.6856 26.497 52.655 26.5929 52.606 26.6596C52.4539 26.8665 52.3366 27.1086 52.2158 27.3375C52.0714 27.6112 51.9138 27.8703 51.7719 28.1441C51.7016 28.2797 51.635 28.4401 51.549 28.5665C51.4447 28.7196 51.3618 28.8801 51.2584 29.0321C51.218 29.0914 51.2106 29.1639 51.1688 29.2262C51.1377 29.2726 51.1088 29.3201 51.0792 29.367C51.0388 29.4311 51.0336 29.5379 50.9697 29.5782C50.9306 29.6029 50.8754 29.7244 50.8582 29.7693C50.8272 29.8509 50.7748 29.9147 50.7199 29.9825C50.7 30.0071 50.6997 30.0363 50.6851 30.063C50.66 30.1085 50.6077 30.1265 50.5855 30.1756C50.5516 30.2511 50.5178 30.3276 50.488 30.4049C50.4636 30.4683 50.419 30.4953 50.4024 30.5658C50.3854 30.6379 50.3195 30.7282 50.277 30.7871C50.2046 30.8874 50.1766 31.0428 50.0939 31.1311C50.017 31.2131 49.983 31.3006 49.9217 31.3935C49.871 31.4703 49.8306 31.5424 49.8072 31.6369C49.7925 31.6964 50.0616 31.7332 50.0978 31.7466C50.1671 31.772 50.2439 31.7736 50.3158 31.7918C50.3996 31.813 50.4792 31.8503 50.5636 31.8693C50.6439 31.8873 50.7207 31.9155 50.8005 31.9356C50.9076 31.9627 51.0252 31.9996 51.132 32.0171C51.6017 32.0941 52.0726 32.1482 52.5423 32.2213C52.7811 32.2584 53.0159 32.2896 53.2589 32.2896C53.3957 32.2896 53.5306 32.3077 53.6669 32.3077C53.8149 32.3077 53.967 32.2973 54.1138 32.3168C54.6047 32.3821 55.1143 32.2984 55.5938 32.1981C56.0258 32.1078 56.4515 32.0061 56.8598 31.833C57.0793 31.74 57.2963 31.6446 57.5147 31.5514C57.6091 31.5112 57.69 31.4433 57.7874 31.4116C57.8789 31.382 57.9923 31.3525 58.0741 31.302C58.28 31.1749 58.5064 31.0828 58.6922 30.9229C58.8257 30.808 58.9869 30.7155 59.1092 30.592C59.3942 30.304 59.7842 30.0652 59.983 29.6999C60.135 29.4207 60.3334 29.1793 60.425 28.8682C60.4481 28.7895 60.4911 28.7131 60.5185 28.6339C60.5436 28.5613 60.5561 28.4841 60.5822 28.4116C60.6391 28.2534 60.716 28.0739 60.7434 27.9077C60.7955 27.592 60.8868 27.2946 60.8868 26.9714C60.8868 26.679 60.7895 26.4029 60.6987 26.1276C60.6705 26.0424 60.5725 25.8592 60.5006 25.7997C60.4588 25.7652 60.4148 25.7323 60.3712 25.7002C60.3437 25.6798 60.3399 25.6531 60.3274 25.6237C60.3107 25.5844 60.2703 25.5661 60.2418 25.5372C60.1494 25.4439 60.0663 25.3418 59.9731 25.2476C59.8845 25.1581 59.8127 25.0642 59.7133 24.9861C59.6404 24.9288 59.5877 24.8723 59.4983 24.8222C59.3929 24.763 59.3017 24.6964 59.1888 24.6502C59.0673 24.6005 58.9464 24.5431 58.8225 24.5013C58.746 24.4756 58.682 24.4125 58.6135 24.3716C58.5352 24.3249 58.4451 24.2952 58.3607 24.262C58.2126 24.2038 58.0636 24.1732 57.9049 24.1604C57.7215 24.1456 57.5533 24.083 57.3694 24.0568C57.2153 24.0349 57.065 23.9659 56.9056 23.9623C56.6685 23.957 56.4189 23.9491 56.184 23.917C55.9543 23.8857 55.7307 23.8324 55.5023 23.8165C55.2659 23.8 55.0332 23.7813 54.7956 23.7813C54.4914 23.7813 54.154 23.7516 53.8998 23.9442" stroke="white" stroke-width="2" stroke-linecap="round"/>
<path d="M62.2844 9.42557C62.3114 9.27108 62.4212 9.15462 62.5167 9.04602C63.0174 9.05076 63.5222 9.08162 64.0231 9.08162C64.3044 9.08162 64.574 9.1645 64.8462 9.22242C65.0063 9.25647 65.184 9.25527 65.3479 9.28075C65.5227 9.30793 65.6992 9.34573 65.8634 9.40747C66.1237 9.50532 66.381 9.54993 66.6189 9.70617C66.7305 9.77953 66.8946 9.81442 66.9782 9.92843C67.0455 10.0202 67.1409 10.0969 67.22 10.1768C67.2941 10.2517 67.3374 10.3307 67.4002 10.4122C67.4538 10.4819 67.5272 10.5344 67.5873 10.6023C67.7006 10.7303 67.7141 10.9376 67.8301 11.0548C67.8939 11.1193 67.8925 11.2155 67.9316 11.2902C67.9699 11.3632 68.0023 11.429 68.0182 11.5175C68.0634 11.7685 67.9814 12.0162 67.9814 12.2677C67.9814 12.4 67.9417 12.5332 67.9287 12.665C67.9106 12.8479 67.8522 13.0206 67.7704 13.1829C67.691 13.3405 67.6531 13.4958 67.5514 13.6426C67.5213 13.6861 67.5106 13.732 67.4867 13.7783C67.4641 13.8224 67.418 13.8438 67.3942 13.8869C67.3348 13.9945 67.2616 14.0882 67.1931 14.1907C67.1113 14.3131 66.9982 14.4043 66.9145 14.5266L66.9074 14.5368C66.8289 14.6516 66.7301 14.7959 66.6189 14.8746C66.5502 14.9231 66.5074 14.9931 66.4367 15.0375C66.3764 15.0753 66.3044 15.0989 66.2396 15.128C66.0866 15.1967 65.9636 15.3329 65.8137 15.4086C65.6889 15.4716 65.5591 15.543 65.4414 15.6168C65.3694 15.6619 65.2987 15.7174 65.2215 15.7526C65.1466 15.7866 65.0606 15.8027 64.9896 15.8451C64.7333 15.9981 64.4253 16.0226 64.1476 16.1317C64.0255 16.1797 63.8776 16.1784 63.7534 16.2232C63.6517 16.2599 63.5225 16.2992 63.413 16.3047C63.1118 16.3199 62.8349 16.4801 62.5252 16.4857C62.3628 16.4887 62.2 16.4857 62.0375 16.4857C61.8411 16.4857 61.6463 16.4495 61.4503 16.4495C61.277 16.4495 61.1002 16.368 60.9228 16.359C60.8277 16.3542 60.7395 16.3133 60.6461 16.3057C60.5724 16.2997 60.4934 16.2891 60.4222 16.2675C60.1401 16.182 59.8534 16.1611 59.5652 16.1015C59.4594 16.0797 59.364 16.045 59.2637 16.006C59.1602 15.9658 59.1179 15.9734 59.1811 15.8521C59.2252 15.7674 59.2657 15.6857 59.3065 15.5987C59.3388 15.5297 59.3485 15.4601 59.4 15.4006C59.4314 15.3643 59.4277 15.3012 59.4627 15.2728C59.4946 15.2471 59.5124 15.1307 59.5254 15.0918C59.5552 15.0033 59.6002 14.92 59.6369 14.8343C59.7126 14.6579 59.7957 14.4919 59.8579 14.3124C59.9564 14.0278 60.1301 13.7792 60.242 13.5028C60.2746 13.4223 60.3267 13.3545 60.3585 13.2725C60.389 13.1936 60.4215 13.1315 60.4739 13.0653C60.5246 13.0013 60.5501 12.9125 60.5864 12.839C60.6324 12.7461 60.7118 12.6777 60.7437 12.5795C60.795 12.4212 60.9142 12.263 60.9985 12.1189C61.073 11.9913 61.1837 11.8516 61.2363 11.7156C61.2918 11.5723 61.3829 11.4245 61.4603 11.2942C61.5221 11.19 61.5855 11.0807 61.6295 10.9663C61.7034 10.7742 61.8034 10.6041 61.8683 10.4072C61.9304 10.2191 62.0399 10.0364 62.1271 9.86004C62.1631 9.78736 62.1963 9.69481 62.2137 9.61565C62.2221 9.57764 62.2464 9.53749 62.2485 9.49798C62.2509 9.45508 62.2793 9.4548 62.2844 9.42557Z" fill="#040D08"/>
<path d="M62.5173 9.04541C62.4216 9.15419 62.3114 9.27079 62.2844 9.42557C62.2793 9.4548 62.2509 9.45508 62.2485 9.49798C62.2464 9.53749 62.2221 9.57764 62.2137 9.61565C62.1963 9.69481 62.1631 9.78736 62.1271 9.86004C62.0399 10.0364 61.9304 10.2191 61.8683 10.4072C61.8034 10.6041 61.7034 10.7742 61.6295 10.9663C61.5855 11.0807 61.5221 11.19 61.4603 11.2942C61.3829 11.4245 61.2918 11.5723 61.2363 11.7156C61.1837 11.8516 61.073 11.9913 60.9985 12.1189C60.9142 12.263 60.795 12.4212 60.7437 12.5795C60.7118 12.6777 60.6324 12.7461 60.5864 12.839C60.5501 12.9125 60.5246 13.0013 60.4739 13.0653C60.4215 13.1315 60.389 13.1936 60.3585 13.2725C60.3267 13.3545 60.2746 13.4223 60.242 13.5028C60.1301 13.7792 59.9564 14.0278 59.8579 14.3124C59.7957 14.4919 59.7126 14.6579 59.6369 14.8343C59.6002 14.92 59.5552 15.0033 59.5254 15.0918C59.5124 15.1307 59.4946 15.2471 59.4627 15.2728C59.4277 15.3012 59.4314 15.3643 59.4 15.4006C59.3485 15.4601 59.3388 15.5297 59.3065 15.5987C59.2657 15.6857 59.2252 15.7674 59.1811 15.8521C59.1179 15.9734 59.1602 15.9658 59.2637 16.006C59.364 16.045 59.4594 16.0797 59.5652 16.1015C59.8534 16.1611 60.1401 16.182 60.4222 16.2675C60.4934 16.2891 60.5724 16.2997 60.6461 16.3057C60.7395 16.3133 60.8277 16.3542 60.9228 16.359C61.1002 16.368 61.277 16.4495 61.4503 16.4495C61.6463 16.4495 61.8411 16.4857 62.0375 16.4857C62.2 16.4857 62.3628 16.4887 62.5252 16.4857C62.8349 16.4801 63.1118 16.3199 63.413 16.3047C63.5225 16.2992 63.6517 16.2599 63.7534 16.2232C63.8776 16.1784 64.0255 16.1797 64.1476 16.1317C64.4253 16.0226 64.7333 15.9981 64.9896 15.8451C65.0606 15.8027 65.1466 15.7866 65.2215 15.7526C65.2987 15.7174 65.3694 15.6619 65.4414 15.6168C65.5591 15.543 65.6889 15.4716 65.8137 15.4086C65.9636 15.3329 66.0866 15.1967 66.2396 15.128C66.3044 15.0989 66.3764 15.0753 66.4367 15.0375C66.5074 14.9931 66.5502 14.9231 66.6189 14.8746C66.7334 14.7935 66.8348 14.6428 66.9145 14.5266C66.9982 14.4043 67.1113 14.3131 67.1931 14.1907C67.2616 14.0882 67.3348 13.9945 67.3942 13.8869C67.418 13.8438 67.4641 13.8224 67.4867 13.7783C67.5106 13.732 67.5213 13.6861 67.5514 13.6426C67.6531 13.4958 67.691 13.3405 67.7704 13.1829C67.8522 13.0206 67.9106 12.8479 67.9287 12.665C67.9417 12.5332 67.9814 12.4 67.9814 12.2677C67.9814 12.0162 68.0634 11.7685 68.0182 11.5175C68.0023 11.429 67.9699 11.3632 67.9316 11.2902C67.8925 11.2155 67.8939 11.1193 67.8301 11.0548C67.7141 10.9376 67.7006 10.7303 67.5873 10.6023C67.5272 10.5344 67.4538 10.4819 67.4002 10.4122C67.3374 10.3307 67.2941 10.2517 67.22 10.1768C67.1409 10.0969 67.0455 10.0202 66.9782 9.92843C66.8946 9.81442 66.7305 9.77953 66.6189 9.70617C66.381 9.54993 66.1237 9.50532 65.8634 9.40747C65.6992 9.34573 65.5227 9.30793 65.3479 9.28075C65.184 9.25527 65.0063 9.25647 64.8462 9.22242C64.574 9.1645 64.3044 9.08162 64.0231 9.08162C63.4805 9.08162 62.9334 9.04541 62.3919 9.04541" stroke="white" stroke-width="2" stroke-linecap="round"/>
<path d="M46.1352 33.9324C45.3501 33.9324 44.5649 33.9324 43.7798 33.9324C43.4562 33.9324 43.0733 33.9482 42.7622 34.0413C42.4681 34.1294 42.1501 34.1289 41.8493 34.1855C41.5147 34.2484 41.1568 34.167 40.8222 34.2271C40.5967 34.2676 40.3445 34.2784 40.1152 34.2784C39.8694 34.2784 39.6261 34.3593 39.3798 34.3649C38.6749 34.3807 37.9801 34.5379 37.2733 34.5379C36.76 34.5379 36.2318 34.5791 35.7216 34.6259C35.4955 34.6467 35.2255 34.6123 35.0067 34.6676C34.9095 34.6921 34.8122 34.6649 34.7214 34.7108C34.6293 34.7573 34.497 34.7605 34.3949 34.7829C33.9723 34.8757 33.5349 34.8451 33.111 34.911C32.855 34.9508 32.5821 34.9271 32.3296 34.9735C32.2097 34.9955 32.1292 35.028 31.9983 35.028C31.8294 35.028 31.6668 35.0825 31.499 35.0856C31.0132 35.0947 30.5297 35.1721 30.044 35.1721C29.9222 35.1721 29.1039 35.23 29.1025 35.265C29.0968 35.4091 29.1026 35.5507 29.1374 35.691C29.172 35.831 29.2983 35.9711 29.3022 36.1075C29.3074 36.2927 29.3258 36.5032 29.3656 36.684C29.4166 36.9159 29.4701 37.0764 29.5717 37.2911C29.7401 37.647 29.8239 38.0242 29.9426 38.401C29.9843 38.5335 29.9893 38.7932 30.0995 38.8767C30.2054 38.9569 30.2096 39.2717 30.258 39.3988C30.376 39.7088 30.5336 40.0463 30.5861 40.3774C30.6109 40.5341 30.7061 40.6165 30.7303 40.7634C30.7599 40.9429 31.2227 40.8515 31.3564 40.8515C31.8456 40.8515 32.3349 40.8515 32.8241 40.8515C33.0646 40.8515 33.3017 40.8227 33.539 40.8227C33.7689 40.8227 34.0636 40.8358 34.2808 40.765C34.5687 40.6712 34.9647 40.7362 35.2667 40.7362C35.4743 40.7362 35.6819 40.7362 35.8896 40.7362C36.1386 40.7362 36.3813 40.7939 36.6329 40.7939C37.5188 40.7939 38.4007 40.9018 39.2879 40.8291C39.6425 40.8 39.9938 40.7362 40.3498 40.7362C40.5568 40.7362 40.7594 40.7393 40.9648 40.7138C41.4231 40.6568 41.9172 40.7074 42.3787 40.7074C43.4903 40.7074 44.6019 40.7074 45.7135 40.7074C46.7786 40.7074 47.844 40.7166 48.909 40.7074C50.228 40.696 51.548 40.5741 52.8668 40.536C53.0479 40.5308 53.2295 40.5409 53.4104 40.528C53.584 40.5156 53.7509 40.4632 53.924 40.4511C54.2193 40.4305 54.5141 40.4451 54.81 40.4191C55.3496 40.3717 55.9058 40.3614 56.4473 40.3614C57.173 40.3614 57.9066 40.3312 58.6315 40.363C59.1464 40.3856 59.6433 40.4638 60.1436 40.536C60.2923 40.5575 60.4344 40.5632 60.5874 40.5632C60.7219 40.5632 60.8403 40.5056 60.971 40.5056" stroke="white" stroke-width="2" stroke-linecap="round"/>
<path d="M70.2727 20.8439C70.325 20.9337 70.4652 21.0095 70.5437 21.0889C70.635 21.1811 70.7595 21.2371 70.8592 21.3196C71.0354 21.4653 71.2736 21.566 71.4313 21.7376C71.4887 21.8 71.5719 21.8395 71.6358 21.9042C71.6899 21.9588 71.7836 21.9681 71.8276 22.0275C71.9074 22.135 72.044 22.2059 72.1129 22.3142C72.2607 22.5465 72.5116 22.6779 72.6708 22.8924C72.8147 23.0862 73.0619 23.2458 73.1559 23.4674C73.2034 23.5795 73.3145 23.6777 73.3683 23.7973C73.3979 23.8631 73.4481 23.9001 73.4903 23.9575C73.5398 24.0247 73.5514 24.1061 73.5949 24.1753C73.6612 24.2806 73.6805 24.4339 73.7265 24.5501C73.7911 24.7134 73.8626 24.8956 73.9404 25.053C74.0844 25.3439 74.2345 25.7204 74.2685 26.0476C74.286 26.2148 74.3811 26.3483 74.3811 26.5233C74.3811 26.7094 74.4096 26.8967 74.4096 27.0855C74.4096 27.3882 74.4096 27.6909 74.4096 27.9936C74.4096 28.2586 74.3853 28.5728 74.2987 28.8136C74.2776 28.872 74.3115 28.9434 74.2891 29.0026C74.2706 29.0519 74.2384 29.1077 74.2384 29.1612C74.2384 29.2739 74.1814 29.3716 74.1814 29.4799C74.1814 29.5813 74.1243 29.6712 74.1243 29.7682C74.1243 29.8787 74.1007 30.0458 74.0387 30.1398C73.907 30.3395 73.8985 30.6229 73.7518 30.8205C73.6793 30.9182 73.618 31.0907 73.5822 31.2081C73.5311 31.3759 73.4236 31.5053 73.3413 31.6565C73.1687 31.9737 73.0587 32.3552 72.8119 32.6223C72.764 32.6742 72.7219 32.7477 72.6835 32.8081C72.6439 32.8704 72.5755 32.8886 72.5488 32.9587C72.5021 33.0814 72.3381 33.2033 72.2635 33.3206C72.1572 33.4877 72.0253 33.6375 71.8926 33.7819C71.7745 33.9104 71.6358 34.0905 71.4932 34.1919C71.3688 34.2804 71.3274 34.4314 71.2079 34.509C71.0716 34.5975 70.9596 34.7148 70.8433 34.8262C70.5832 35.0752 70.315 35.2946 70.0286 35.5117C69.8721 35.6303 69.705 35.7584 69.5816 35.9089C69.5042 36.0033 69.3921 36.061 69.3185 36.1651C69.2627 36.2441 69.1946 36.2394 69.1315 36.2965C68.8685 36.5342 68.5352 36.7037 68.247 36.9083C68.0823 37.0253 67.9147 37.1829 67.7176 37.2414C67.6549 37.2601 67.6663 37.3357 67.6051 37.3632C67.5575 37.3845 67.4991 37.4213 67.4545 37.4497C67.2277 37.5939 67.064 37.8392 66.8205 37.9622C66.5842 38.0816 66.3818 38.2531 66.158 38.401C66.0567 38.4679 65.9593 38.5543 65.8505 38.6092C65.786 38.6418 65.7215 38.6577 65.665 38.7021C65.6122 38.7437 65.575 38.8072 65.5081 38.8271C65.2616 38.9003 65.0302 39.0892 64.7949 39.2018C64.5041 39.341 64.2235 39.4482 63.9167 39.5478C63.5396 39.6703 63.1219 39.7796 62.7692 39.9578C62.4293 40.1296 61.9804 40.0813 61.628 40.2237C61.3671 40.3291 61.0361 40.2781 60.7721 40.3967C60.6054 40.4715 60.4163 40.5632 60.23 40.5632" stroke="white" stroke-width="2" stroke-linecap="round"/>
<path d="M76.1784 1.90283C76.2287 1.90919 76.3278 1.98766 76.3781 2.01174C76.4709 2.05614 76.5649 2.06256 76.6634 2.09022C76.7874 2.12503 76.8679 2.17552 77.0042 2.19273C77.131 2.20875 77.26 2.26147 77.383 2.30004C77.659 2.3866 77.9986 2.39449 78.2453 2.5531C78.4486 2.68382 78.6749 2.76742 78.8317 2.97593C78.8921 3.05623 79.0135 3.09974 79.0885 3.17133C79.171 3.25009 79.2419 3.31932 79.3041 3.41798C79.3682 3.51982 79.4982 3.59832 79.545 3.70467C79.5856 3.79704 79.6379 3.88596 79.6813 3.97855C79.7104 4.04069 79.7717 4.07478 79.8018 4.13552C79.8331 4.1989 79.8435 4.27895 79.8652 4.34693C79.9013 4.4604 79.9168 4.57804 79.9587 4.68808C80.0597 4.95339 80.1098 5.24837 80.2234 5.50652C80.2714 5.61566 80.2547 5.69829 80.3312 5.79481C80.3766 5.85218 80.3855 6.02278 80.4152 6.10073C80.5081 6.34484 80.5779 6.6001 80.6513 6.83908C80.7386 7.12307 80.7467 7.42116 80.7987 7.71037C80.8327 7.89913 80.8574 8.13988 80.8574 8.33181C80.8574 8.57627 80.943 8.79913 80.943 9.05254C80.943 9.28426 81 9.51428 81 9.74445C81 9.93184 81 10.1192 81 10.3066C81 10.5838 80.8289 10.8387 80.8289 11.1155C80.8289 11.316 80.7679 11.5717 80.7005 11.7625C80.6741 11.8371 80.6563 11.9857 80.6006 12.0364C80.5337 12.0973 80.4612 12.3061 80.458 12.3904C80.4547 12.4766 80.401 12.5791 80.366 12.6626C80.3339 12.7395 80.2676 12.8081 80.2297 12.8869C80.1911 12.9671 80.174 13.0473 80.1441 13.1303C80.0969 13.2616 80.0247 13.3465 79.9587 13.4651C79.8795 13.6074 79.8334 13.7427 79.7289 13.8671C79.6467 13.9648 79.5693 14.1723 79.5165 14.2931C79.4539 14.4362 79.3165 14.5617 79.2327 14.6887C79.0656 14.9421 78.8343 15.155 78.6193 15.3662C78.327 15.6534 78.0834 16.0127 77.7603 16.2615C77.4723 16.4832 77.1954 16.7133 76.9075 16.9294C76.3249 17.3668 75.7164 17.7833 75.1957 18.294C75.1072 18.3808 74.9581 18.4494 74.8501 18.5086C74.7916 18.5407 74.7534 18.5975 74.6948 18.6303C74.6343 18.6643 74.561 18.6808 74.5078 18.7248C74.3872 18.8246 74.1943 18.9256 74.0513 18.9875C73.9744 19.0208 73.8979 19.0833 73.8389 19.1429C73.7804 19.2019 73.7019 19.2133 73.6328 19.2582C73.49 19.351 73.3415 19.4223 73.1986 19.5176C73.0761 19.5993 72.8905 19.6248 72.7833 19.7211C72.4365 20.0325 71.9489 20.1418 71.5406 20.3537C71.4187 20.417 71.2924 20.4513 71.1634 20.4914C71.0628 20.5227 70.919 20.5168 70.8321 20.5843C70.7216 20.6702 70.451 20.6562 70.3867 20.7861" stroke="white" stroke-width="2" stroke-linecap="round"/>
<path d="M47.4189 6.22723C47.5213 6.31917 47.7912 6.33221 47.9166 6.34095C48.0727 6.35182 48.2325 6.34255 48.389 6.34255C48.729 6.34255 49.133 6.34975 49.4509 6.47389C49.6286 6.54326 49.8635 6.55735 50.0517 6.57319C50.3652 6.59959 50.7108 6.61399 51.0201 6.66608C51.5522 6.7557 52.088 6.7864 52.6242 6.85508C53.2793 6.93899 53.9366 6.98631 54.5864 7.0697C55.1504 7.14207 55.7458 7.17526 56.2919 7.33877C56.5084 7.4036 56.7649 7.4018 56.9893 7.43807C57.2009 7.47227 57.4242 7.52456 57.6392 7.52456C57.9265 7.52456 58.2115 7.58222 58.4888 7.58222" stroke="white" stroke-width="2" stroke-linecap="round"/>
<path d="M49.302 1.72986C49.302 1.76964 49.2891 1.89748 49.2672 1.92526C49.2411 1.95818 49.1912 2.0413 49.1816 2.08222C49.1332 2.28765 49.0415 2.48352 48.9945 2.68764C48.9665 2.80922 48.8888 2.86536 48.8455 2.97593C48.791 3.11541 48.772 3.26599 48.7029 3.40197C48.598 3.60841 48.5504 3.82613 48.4588 4.03782C48.398 4.17831 48.2965 4.31613 48.2749 4.46866C48.2589 4.5818 48.1955 4.74125 48.145 4.84344C48.0911 4.95219 48.0071 5.05396 47.9468 5.16217C47.8953 5.25475 47.8871 5.37932 47.8295 5.46328C47.7392 5.5951 47.7123 5.73761 47.6615 5.8813C47.6418 5.93711 47.639 6.02176 47.6029 6.0687C47.5578 6.12731 47.4761 6.24179 47.4761 6.31375" stroke="white" stroke-width="2" stroke-linecap="round"/>
<path d="M49.1875 1.72984C49.5832 1.72984 49.9767 1.72528 50.3699 1.75707C50.7588 1.78851 51.1396 1.85112 51.527 1.87559C52.0014 1.90555 52.4755 1.90282 52.9519 1.90282C53.5207 1.90282 54.0795 1.81633 54.6463 1.81633C55.9459 1.81633 57.245 1.7875 58.5455 1.7875C59.1818 1.7875 59.8165 1.75867 60.4539 1.75867C61.0488 1.75867 61.6458 1.67218 62.2418 1.67218C63.3883 1.67218 64.5323 1.70101 65.6781 1.70101C66.491 1.70101 67.2974 1.79581 68.1095 1.81633C68.5672 1.82789 69.035 1.93552 69.4948 1.86117C69.8413 1.80516 70.1868 1.81538 70.5346 1.78109C71.1177 1.72361 71.718 1.75867 72.3035 1.75867C72.8686 1.75867 73.428 1.70101 73.9931 1.70101C74.4847 1.70101 75.0316 1.63466 75.5148 1.72343C75.6293 1.74447 75.7641 1.74655 75.873 1.7875C75.9624 1.8211 76.0224 1.87399 76.1202 1.87399" stroke="white" stroke-width="2" stroke-linecap="round"/>
</svg>
