<svg width="87" height="42" viewBox="0 0 87 42" fill="none" xmlns="http://www.w3.org/2000/svg">
<path d="M44.0513 7.54264C43.9352 7.42122 43.8482 7.28008 43.7501 7.14502C43.5644 6.88938 43.3449 6.67308 43.1183 6.45254C42.7818 6.12501 42.4552 5.79796 42.0693 5.52419C41.5855 5.18103 41.1224 4.8143 40.6429 4.4661C40.0401 4.02844 39.5586 3.45892 39.0365 2.93625C38.7755 2.67495 38.5036 2.42658 38.2004 2.21177C37.9558 2.03848 37.7008 1.90156 37.4751 1.70294C37.1234 1.39353 36.8074 1.09054 36.3274 1.00878C35.9552 0.94538 35.5714 1.24112 35.2472 1.38787C34.8343 1.5748 34.4538 1.79429 34.0597 2.01801C33.7624 2.1868 33.5257 2.4347 33.2323 2.60602C33.0691 2.7013 32.9402 2.84295 32.7857 2.95142C32.5858 3.09165 32.395 3.25216 32.211 3.41138C31.904 3.67695 31.568 3.97974 31.4008 4.35153C31.2726 4.63677 31.1589 4.92903 31.0339 5.21755C30.935 5.44568 30.8435 5.76177 30.84 6.00943C30.8364 6.25764 30.9023 6.49279 30.9023 6.74065C30.9023 6.89153 30.8711 7.03687 30.8711 7.18545C30.8711 7.30242 30.8665 7.41883 30.8902 7.53422C30.909 7.62595 31.0236 7.84592 30.9023 7.84592" stroke="#F2F2F2" stroke-width="1.5" stroke-linecap="round"/>
<path d="M41.8078 7.45157C40.9368 6.60381 39.7611 6.35683 38.6296 5.99585C38.2176 5.8644 37.834 5.72907 37.404 5.66225C37.0524 5.60761 36.7105 5.6016 36.355 5.6016C35.4148 5.6016 34.3284 5.50746 33.4884 6.01607C32.8339 6.4123 32.3382 7.01887 31.7712 7.51559C31.5145 7.74044 31.2316 7.93725 30.9663 8.15247C30.6794 8.38517 30.4549 8.69993 30.2202 8.97973C29.7454 9.54583 29.3678 10.1987 28.87 10.7438C28.3997 11.2587 27.8647 11.6561 27.3259 12.0984C26.6856 12.624 25.9467 12.8856 25.2105 13.2491C24.6779 13.5122 24.2386 13.8937 23.6699 14.0949C23.401 14.1901 23.1223 14.2868 22.8477 14.3645C22.5077 14.4608 22.1604 14.4533 21.8108 14.4808C21.5067 14.5047 21.1835 14.5005 20.8795 14.4808C20.4337 14.4519 19.9798 14.4445 19.5362 14.3965C19.1815 14.3582 18.8355 14.2883 18.4872 14.2146C18.3151 14.1782 18.1707 14.1098 18.0146 14.0326C17.7752 13.9142 17.5193 13.8341 17.2737 13.7293C16.9206 13.5787 16.591 13.4154 16.2888 13.1801C16.0148 12.9668 15.8414 12.6772 15.6517 12.3966C15.4944 12.1638 15.4463 11.8873 15.3367 11.6334C15.1699 11.2469 15.1067 10.8197 15.0251 10.4102C14.8319 9.44035 14.6808 8.45621 14.2652 7.54592C13.9483 6.85192 13.154 6.36371 12.3627 6.57376C12.1135 6.63992 11.8878 6.70685 11.6478 6.79616C11.4738 6.86094 11.2662 6.94639 11.0818 6.96633C10.8391 6.99257 10.5954 7.06421 10.353 7.10449C10.0651 7.15233 9.77801 7.1945 9.48922 7.23927C8.93426 7.32532 8.40335 7.68508 7.98321 8.03453C7.83255 8.15983 7.70695 8.3377 7.65777 8.5265C7.6305 8.63121 7.63585 8.74096 7.60757 8.84494C7.57891 8.95032 7.51703 9.04391 7.4864 9.1499C7.38284 9.50829 7.41689 9.84978 7.37561 10.2114C7.35071 10.4295 7.22181 10.6147 7.18347 10.8246C7.11499 11.1995 7.20082 11.2861 7.48467 11.5222C7.64842 11.6584 7.76464 11.8195 7.90704 11.9703C8.01165 12.0811 8.03483 12.2161 8.1165 12.3376C8.18189 12.435 8.31316 12.6391 8.41943 12.6982C8.52641 12.7577 8.76162 12.7881 8.8695 12.7235C9.06177 12.6083 9.21744 12.3593 9.30919 12.1658C9.43308 11.9045 9.63124 11.699 9.79388 11.4615C9.86407 11.359 9.91192 11.2356 9.99641 11.1431C10.0621 11.0712 10.1739 11.0408 10.2578 10.9931C10.4669 10.8744 10.7019 10.8355 10.9364 10.7876C11.4668 10.6792 12.1195 10.6874 12.6588 10.7303C12.8023 10.7417 12.9366 10.7955 13.0794 10.8112C13.179 10.8221 13.279 10.8117 13.3771 10.8348C13.5177 10.8678 13.6562 10.8883 13.7961 10.9224C14.0285 10.9789 14.2809 11.046 14.5127 11.1212" stroke="#F2F2F2" stroke-width="1.5" stroke-linecap="round"/>
<path d="M14.3257 7.42114C14.603 7.44568 14.8056 7.77551 14.9644 7.96367C15.0815 8.10236 15.2129 8.19666 15.2916 8.36803C15.3951 8.59339 15.486 8.79833 15.5651 9.03523C15.7267 9.51917 15.9498 9.98507 16.1623 10.4505C16.3771 10.9209 16.5281 11.3883 16.853 11.8051C16.9996 11.9932 17.2142 12.1432 17.3862 12.3106C17.6261 12.5441 17.8765 12.7568 18.134 12.971C18.5554 13.3217 18.9966 13.6635 19.5448 13.8051C19.8501 13.8839 20.1575 13.9999 20.464 14.0628C20.8115 14.1343 21.1736 14.1502 21.5234 14.2145C21.9785 14.2982 22.4655 14.3661 22.9255 14.3661" stroke="#F2F2F2" stroke-width="1.5" stroke-linecap="round"/>
<path d="M6.56117 11.0725C6.56117 11.5538 6.32609 11.9432 6.09153 12.349C5.91824 12.6489 5.87998 12.991 5.7332 13.3005C5.45395 13.8894 5.36772 14.6375 5.02351 15.1696C4.86478 15.415 4.93306 15.7971 4.93306 16.0737C4.93306 16.5077 5.05435 16.7733 5.24616 17.1674C5.34271 17.3658 5.40213 17.5776 5.49664 17.7769C5.61334 18.023 5.79744 18.2323 5.90019 18.4778C6.01434 18.7505 6.16253 18.9833 6.31069 19.2397C6.49235 19.554 6.6529 19.9951 6.88819 20.2622C7.22792 20.648 7.41978 21.1519 7.75443 21.5591C8.05768 21.9281 8.32068 22.3303 8.62762 22.7002C8.9285 23.0628 9.43634 23.3499 9.82436 23.6246C10.059 23.7907 10.4012 23.8729 10.6628 23.9971C11.0967 24.2031 11.5053 24.3812 11.9813 24.4813C13.2528 24.7485 14.5049 25.0907 15.815 25.0907C16.9108 25.0907 18.026 25.1251 19.1095 24.9688C20.283 24.7996 21.4558 24.6473 22.6266 24.4508C23.3656 24.3268 24.2851 24.3674 25.0375 24.4237C25.293 24.4428 25.5695 24.5625 25.8133 24.637C26.1072 24.7269 26.5059 24.8413 26.7734 24.9824C27.3821 25.3033 28.0867 25.5666 28.6381 25.9745C28.8144 26.1049 29.0608 26.2497 29.2643 26.3368C29.5908 26.4766 29.8498 26.7008 30.1688 26.8583C30.927 27.2325 31.6623 27.646 32.4231 28.0163C32.7545 28.1775 33.0871 28.3429 33.4216 28.4971C33.8021 28.6726 34.2328 28.7529 34.6009 28.9576C35.1849 29.2824 35.7454 29.6405 36.3682 29.9057C37.189 30.2552 37.9115 30.8902 38.6538 31.3719C39.0316 31.617 39.3721 31.6602 39.8436 31.7308C40.5382 31.8348 41.2118 32.021 41.8926 32.1473C43.3691 32.421 44.8486 32.9236 46.1995 33.5152C46.5987 33.6901 50.4429 34.2475 50.4576 33.9893C50.4769 33.6508 49.9361 33.3043 49.6714 33.1394C49.158 32.8196 48.6165 32.55 48.1059 32.2218C47.6349 31.919 47.1174 31.6189 46.7004 31.25C46.1374 30.7518 45.431 30.5064 44.8079 30.1021C44.4638 29.8788 44.0467 29.7307 43.6808 29.54C43.098 29.2363 42.4907 28.9294 41.8787 28.6867C41.0735 28.3674 40.3977 27.8014 39.6105 27.4542C39.2351 27.2887 39.0059 27.0358 38.6851 26.7973C38.3457 26.5449 37.9834 26.3221 37.6519 26.0592C37.3549 25.8236 37.1301 25.5095 36.8204 25.2871C36.5276 25.0769 36.2007 24.9211 35.8985 24.7251C34.3793 23.7393 32.6349 23.1365 30.9829 22.4056C30.2548 22.0835 29.5317 21.7903 28.819 21.4338C28.2146 21.1315 27.5254 20.8131 26.9752 20.4282C26.0359 19.7711 24.6308 19.6545 23.4963 19.7306C23.191 19.7511 22.9173 19.8621 22.6197 19.9067C22.1525 19.9767 21.6971 20.004 21.2281 20.0455C20.1018 20.1452 18.9833 20.3883 17.864 20.5128C16.9288 20.6168 15.9048 20.5332 14.9661 20.5196C14.2925 20.5098 13.5414 20.3875 12.9206 20.1166C11.5841 19.5335 10.4436 18.146 9.8174 16.8931C9.2726 15.8031 8.84983 14.7067 8.62762 13.5172C8.43218 12.471 7.53987 11.8359 6.74903 11.1944" stroke="#F2F2F2" stroke-width="1.5" stroke-linecap="round"/>
<path d="M54.4655 19.91C53.9894 19.7865 53.5283 19.7024 53.0357 19.7306C52.6961 19.75 52.3576 19.9607 52.0581 20.1064C51.7076 20.277 51.4281 20.5571 51.1536 20.8243C50.9242 21.0476 50.6709 21.3695 50.6144 21.6775C50.5047 22.2752 50.4359 22.853 50.2839 23.4451C50.1178 24.0915 49.9689 24.5622 50.3952 25.155C50.9301 25.8988 51.4589 26.6147 51.9885 27.3593C52.3681 27.893 52.8676 28.3308 53.5053 28.5377C53.7776 28.626 54.039 28.7308 54.3055 28.8323C54.4513 28.8878 54.6539 28.8536 54.7786 28.9575C54.9885 29.1327 55.2465 29.125 55.5126 29.1776C55.9602 29.2662 56.4046 29.33 56.859 29.3706C58.6076 29.5269 60.3938 29.5454 62.1503 29.4756C62.9028 29.4457 63.6713 29.3926 64.4081 29.2352C65.0283 29.1027 65.6897 29.1079 66.2728 28.839C66.4517 28.7566 66.6499 28.7254 66.8329 28.6528C67.0947 28.549 67.2954 28.3368 67.5391 28.1991C67.8814 28.0056 68.1555 27.7955 68.4784 27.5896C68.8607 27.3458 69.3064 26.8739 69.3064 26.4011C69.3064 25.8332 69.037 25.5084 68.4854 25.2735C67.9395 25.0411 67.3069 24.9923 66.7772 24.725C66.4758 24.5729 66.1716 24.4632 65.8484 24.3593C65.4847 24.2424 65.2051 24.0242 64.8604 23.8751C64.1468 23.5664 63.4929 23.1613 62.773 22.8491C62.2235 22.6108 61.6233 22.3049 61.0475 22.1516C60.3035 21.9535 59.5897 21.6657 58.8558 21.4371C58.1679 21.2229 57.4625 21.0641 56.7755 20.8513C56.181 20.6672 55.5944 20.4336 54.9943 20.2757C54.571 20.1644 54.1558 19.971 53.7141 19.971" stroke="#F2F2F2" stroke-width="1.5" stroke-linecap="round"/>
<path d="M66.6141 20.6414C66.3231 20.5155 64.5065 20.4559 65.0799 21.1256C65.827 21.9982 67.0781 22.3075 68.0057 22.9575C68.3397 23.1916 68.7856 23.2659 69.1537 23.4451C69.6424 23.6829 70.1482 23.8553 70.6427 24.0783C71.1262 24.2964 71.7082 24.254 72.2221 24.3593C72.7142 24.4601 73.2539 24.498 73.7563 24.5388C74.4651 24.5963 75.3307 24.6417 76.0314 24.4812C76.7778 24.3103 77.5187 24.345 78.2544 24.1189C78.5421 24.0305 80.2112 23.567 79.7782 23.1877C79.6645 23.0881 79.485 23.1658 79.3399 23.1268C79.0465 23.048 78.7408 23.1207 78.4458 23.0489C77.7765 22.8861 77.071 22.7629 76.3863 22.6257C75.6372 22.4756 74.8406 22.3122 74.0868 22.2126C73.1173 22.0844 72.0148 21.9429 71.088 21.6302C70.2769 21.3565 69.4347 21.1454 68.618 20.8852C67.9872 20.6843 67.2784 20.5805 66.6141 20.5805" stroke="#F2F2F2" stroke-width="1.5" stroke-linecap="round"/>
<path d="M64.4221 20.9462C63.7589 20.9462 63.1219 21.0898 62.4774 21.2204C61.7534 21.3673 60.9962 21.3119 60.2614 21.3119C59.6497 21.3119 59.0964 21.208 58.5289 21.0071C57.8058 20.7512 57.0525 20.5838 56.3163 20.3672C55.8923 20.2424 55.4693 20.1475 55.0431 20.0319C54.6003 19.9118 54.1802 19.7273 53.7281 19.6527C53.4195 19.6018 53.1259 19.4383 52.8201 19.3683C52.6589 19.3314 52.5415 19.1786 52.3713 19.1786C51.947 19.1786 51.4173 18.9706 51.0076 19.1922C50.7018 19.3575 50.2936 19.5065 50.0961 19.8017C49.9442 20.0288 49.7477 20.2981 49.5534 20.4924C48.568 21.4782 48.2136 23.3397 48.6419 24.664C49.1749 26.3118 49.9459 27.9441 50.8858 29.4079C51.6802 30.645 52.7145 31.8346 53.8115 32.8312C53.926 32.9352 54.0792 32.98 54.2012 33.075C54.3548 33.1946 54.4492 33.3453 54.6256 33.4407C54.8311 33.5518 54.9722 33.6445 55.2031 33.698C55.3805 33.7391 55.5105 33.912 55.6832 33.9892C55.9402 34.1042 56.195 34.1111 56.4694 34.1111" stroke="#F2F2F2" stroke-width="1.5" stroke-linecap="round"/>
<path d="M50.395 25.6392C50.6054 26.0742 50.7237 26.5262 51.0351 26.9191C51.3696 27.3411 51.7722 27.779 52.211 28.0907C53.3404 28.8928 54.4511 29.5272 55.7768 30.0004C56.2471 30.1682 56.6345 30.4011 57.144 30.4677C57.5563 30.5215 57.9527 30.63 58.3686 30.6674C59.4287 30.763 60.5672 30.5889 61.6109 30.8198C62.1717 30.9439 62.7845 30.8988 63.3573 30.9722C63.7146 31.0179 64.0617 31.0636 64.4218 31.0636" stroke="#F2F2F2" stroke-width="1.5" stroke-linecap="round"/>
<path d="M80.5152 23.0186C80.5152 23.5977 79.8265 23.882 79.3254 23.9362C79.128 23.9575 78.8892 23.9599 78.6992 24.0073C78.5394 24.0472 78.4649 24.1623 78.2922 24.18C77.7381 24.2367 77.1002 24.3971 76.5563 24.5423C76.0618 24.6742 75.6199 24.8359 75.1438 25.0299C74.656 25.2286 74.0771 25.3752 73.6305 25.636C72.6385 26.2153 71.375 26.3835 70.4369 27.0683C69.9446 27.4276 69.3684 27.7391 68.8401 28.0434C68.2531 28.3816 67.8252 28.9776 67.1981 29.2489C66.184 29.6875 65.708 30.4825 64.9542 31.2162C64.7289 31.4355 64.346 31.8275 64.2341 32.127C64.1764 32.2814 63.9785 32.404 63.8723 32.5266C63.7949 32.616 63.7099 32.8167 63.6079 32.8787C63.3783 33.0184 62.8564 33.7261 62.8564 33.9893" stroke="#F2F2F2" stroke-width="1.5" stroke-linecap="round"/>
<path d="M22.1538 19.5445C22.8759 19.193 23.6563 19.0946 24.4081 18.8266C24.8608 18.6653 25.2608 18.4505 25.6883 18.2341C25.9612 18.096 26.1669 17.8708 26.4467 17.7296C27.1397 17.3798 27.8595 17.0698 28.548 16.7137C29.4387 16.2532 30.408 15.9524 31.2685 15.4406C31.9256 15.0497 32.6567 14.7774 33.321 14.3977C33.5856 14.2464 33.8887 14.1038 34.142 13.9338C34.4228 13.7453 34.6781 13.4918 35.0187 13.4022C35.2376 13.3446 35.4638 13.297 35.6797 13.2295C35.8607 13.1729 36.0302 13.0229 36.2293 13.0229C36.4322 13.0229 36.1462 13.4721 36.0554 13.5241C34.4023 14.4705 32.6504 15.3016 31.0389 16.3142C30.7123 16.5193 30.4418 16.6853 30.1378 16.9169C29.8843 17.11 29.6394 17.3151 29.3829 17.5061C28.8683 17.8891 28.3185 18.258 27.8383 18.6776C27.6615 18.8322 27.4417 18.9321 27.2573 19.084C27.0975 19.2156 26.9649 19.4295 26.7877 19.5309C26.6133 19.6308 26.6768 19.8823 26.5998 20.0321" stroke="#F2F2F2" stroke-width="1.5" stroke-linecap="round"/>
<path d="M33.3002 21.7994C33.3258 21.5995 33.6961 21.0221 33.829 20.8852C34.248 20.4533 34.5215 19.9003 34.9352 19.4427C35.4488 18.8747 36.0291 18.3324 36.4938 17.7294C36.9125 17.1859 37.4685 16.7665 37.8784 16.2125C38.2929 15.6521 38.9353 15.3127 39.3117 14.7429C39.4089 14.5956 39.7161 14.1199 39.9065 14.1199C40.32 14.1199 40.8118 14.1506 41.1903 14.3298C41.5541 14.5021 41.9417 14.5979 42.3139 14.7564C42.4857 14.8296 42.7198 14.8355 42.8462 14.9698C42.9774 15.1091 43.3717 15.2666 43.5698 15.2779C43.7837 15.2901 43.695 15.778 43.695 15.9179C43.695 16.3689 43.6324 16.8417 43.6324 17.3028C43.6324 17.7222 43.695 18.1186 43.695 18.5421C43.695 18.7692 43.6145 19.0388 43.9177 18.8739C44.1627 18.7406 44.4439 18.3464 44.6343 18.1425C44.8739 17.886 44.8994 17.4391 45.1388 17.1673C45.3297 16.9505 45.6049 16.4783 45.9494 16.4969C46.1857 16.5097 46.5275 16.692 46.7286 16.8016C47.0051 16.9523 47.34 17.0021 47.6401 17.1064C48.1618 17.2877 48.7274 17.3582 49.2612 17.5025C49.3642 17.5304 49.8092 17.5408 49.7552 17.7159C49.6894 17.9294 49.4793 18.1285 49.3447 18.2983C49.0164 18.7125 48.6857 19.0861 48.4228 19.5409C48.2532 19.8345 47.9935 20.0838 47.8279 20.3976C47.693 20.6533 47.4982 20.8033 47.3618 21.0613C47.008 21.7303 46.358 22.2258 45.9772 22.866C45.8515 23.0773 45.4641 23.4137 45.2744 23.5737C44.9733 23.8277 44.6983 24.1049 44.3978 24.3593C44.1675 24.5542 43.9082 24.8283 43.7229 25.0602C43.643 25.1601 43.512 25.4034 43.4167 25.4564C43.0859 25.6404 42.5616 25.596 42.1922 25.5038C41.8413 25.4162 41.5556 25.1746 41.2146 25.0568C40.8796 24.9411 40.6092 24.8546 40.3449 24.6369C40.1013 24.4363 39.7358 24.4785 39.4786 24.2983C39.3112 24.181 39.3743 23.7228 39.3743 23.5534C39.3743 22.8358 39.4369 22.1244 39.4369 21.4066C39.4369 21.2165 39.414 21.0134 39.4369 20.8242C39.4422 20.7803 39.5651 20.7202 39.4369 20.7904C39.2683 20.8827 39.1465 21.0569 38.9986 21.1764C38.7087 21.4106 38.4403 21.6516 38.1567 21.8909C37.8853 22.1198 37.6815 22.3883 37.4122 22.6155C37.1772 22.8137 36.9636 23.3311 36.6538 23.3231C35.893 23.3037 35.085 22.9557 34.403 22.6493C34.1635 22.5418 34.0001 22.2747 33.7524 22.1651C33.5955 22.0957 33.1803 21.9928 33.1123 21.8604" stroke="#F2F2F2" stroke-width="1.5" stroke-linecap="round"/>
<path d="M34.5522 21.5555C34.7798 21.5309 35.0228 21.1142 35.1506 20.9596C35.3103 20.7664 35.4099 20.5394 35.5542 20.3365C35.9829 19.7337 36.586 19.2505 37.057 18.6774C37.5217 18.1121 38.1207 17.6942 38.6225 17.1672C39.0697 16.6976 39.4479 16.1893 39.8749 15.7044C39.9848 15.5797 39.8908 15.4488 40.0767 15.3861C40.237 15.3322 40.3879 15.327 40.5568 15.3523C40.8857 15.4015 41.0376 15.4518 41.2943 15.6435C41.4783 15.7809 41.8218 15.9322 42.0527 15.9482C42.7999 16.0002 42.5858 17.007 42.5189 17.499C42.4419 18.0648 42.4423 18.6075 42.4423 19.1785C42.4423 19.5763 42.4218 20.1228 42.5954 20.4923C42.725 20.7683 42.6462 21.2935 42.8668 21.5081C42.9704 21.609 43.6849 20.6565 43.8339 20.5058C44.0373 20.3002 44.1619 20.0809 44.2583 19.8151C44.3385 19.5938 44.5443 19.4832 44.6827 19.3004C45.0161 18.8601 45.2964 18.4729 45.6986 18.0814C45.8405 17.9433 45.9768 17.7157 46.1995 17.7157C46.632 17.7157 47.0308 17.7935 47.438 17.946C47.6238 18.0156 47.8063 18.1282 48.0016 18.2033C48.1467 18.2592 48.3919 18.2281 48.2173 18.3523C48.0422 18.4768 47.9654 18.6638 47.8276 18.8128C47.6689 18.9845 47.5096 19.0896 47.3893 19.3004C47.2605 19.526 46.9757 19.6837 46.8118 19.8964C46.6254 20.1383 46.4249 20.4067 46.2134 20.6277C45.7831 21.0776 45.5207 21.6524 45.1559 22.1447C44.6854 22.7794 44.0599 23.2761 43.5834 23.9054C43.3506 24.213 43.3529 24.4197 42.9294 24.4946C42.3053 24.605 41.6566 24.4369 41.1412 24.0815C40.7929 23.8413 40.3759 24.0123 40.3759 23.5397C40.3759 22.1978 40.4385 20.8525 40.4385 19.5171C40.4385 19.2866 40.5932 18.4281 40.2089 18.5216C39.8318 18.6134 39.4314 18.9843 39.1861 19.2598C39.0132 19.4539 38.7386 19.5929 38.5877 19.8016C38.3367 20.1487 38.1575 20.5229 37.8572 20.8377C37.4981 21.2141 37.1299 21.6205 36.8066 22.0296C36.7246 22.1332 36.6391 22.222 36.5561 22.3343C36.4148 22.5253 35.7034 22.4034 35.5194 22.3208C35.3964 22.2655 35.2794 22.0269 35.1506 21.9348C35.0091 21.8335 34.8774 21.7055 34.7401 21.6165" stroke="#F2F2F2" stroke-width="1.5" stroke-linecap="round"/>
<path d="M4.72869 16.9441C4.68745 17.3856 4.46934 17.8012 4.33748 18.2212C4.20695 18.637 4.09854 19.0351 4.02762 19.4646C3.97816 19.7642 3.94642 20.0663 3.85625 20.3559C3.79205 20.5621 3.83881 20.7571 4.02762 20.885C4.16363 20.9771 4.30092 21.058 4.46211 21.0989C4.71535 21.1632 4.93903 21.2928 5.18915 21.3651C5.67378 21.5053 6.15298 21.6546 6.6363 21.7965C7.0097 21.9061 7.43211 22.1301 7.81341 22.1301" stroke="#F2F2F2" stroke-width="1.5" stroke-linecap="round"/>
<path d="M3.69845 20.8684C2.90651 20.8684 3.10864 22.019 3.10864 22.5162C3.10864 23.0533 3.17416 23.6291 3.08898 24.1598C2.99751 24.7295 2.91407 25.3028 2.81373 25.8692C2.78393 26.0375 2.79407 26.2113 2.79407 26.3817C2.79407 26.5504 2.73564 26.8366 2.80281 26.9919C2.85535 27.1133 2.80892 27.2439 2.89456 27.3576C3.03611 27.5455 3.16688 27.7283 3.38388 27.8339C3.77719 28.0253 4.2404 28.16 4.67274 28.2251C5.17143 28.3002 5.64656 28.5127 6.15601 28.561C6.65138 28.6081 7.11283 28.8034 7.60433 28.8672C8.81194 29.0239 10.0206 29.1308 11.2328 29.2308C12.4596 29.332 13.6903 29.2499 14.9202 29.2499C16.3408 29.2499 17.7594 29.1734 19.18 29.1734C20.5607 29.1734 21.9399 29.1742 23.3196 29.2095C24.7547 29.2463 26.2001 29.1369 27.6318 29.2414C28.392 29.2969 29.1551 29.3385 29.908 29.4625C30.6411 29.5833 31.383 29.6504 32.1144 29.7772C33.3552 29.9923 34.5885 30.2982 35.8149 30.5809C36.3707 30.709 36.9179 30.8454 37.4795 30.9509C37.703 30.9929 38.0326 31.0787 38.2222 31.2018" stroke="#F2F2F2" stroke-width="1.5" stroke-linecap="round"/>
<path d="M50.2144 34.1489C50.7205 34.2685 51.1434 34.3167 51.6736 34.2931C52.0317 34.2773 52.3904 34.2325 52.7484 34.2253C53.6622 34.2068 54.5681 34.1489 55.4834 34.1489" stroke="#F2F2F2" stroke-width="1.5" stroke-linecap="round"/>
<path d="M56.3882 34.2637C57.4699 34.2637 58.5615 34.4237 59.6431 34.3317C60.7635 34.2364 61.885 34.1206 63.0028 34.0255C63.6211 33.973 64.245 33.9231 64.8618 33.8618C65.4438 33.804 65.9968 33.7113 66.5723 33.6131C66.8517 33.5653 67.1343 33.5341 67.4155 33.4982C67.8402 33.4441 68.2437 33.317 68.6651 33.2516C69.3853 33.1397 70.1486 33.1755 70.8583 33.022C71.7253 32.8345 72.6252 32.8393 73.4928 32.635C74.2471 32.4574 75.0062 32.3259 75.7647 32.1672C76.3111 32.053 76.8794 31.9748 77.4358 31.927C78.1052 31.8695 78.7525 31.6756 79.4215 31.6144C80.4269 31.5224 81.4146 31.336 82.3924 31.0871C82.7805 30.9883 83.1716 30.9498 83.5655 30.8745C83.8137 30.827 84.0566 30.7427 84.3061 30.7427" stroke="#F2F2F2" stroke-width="1.5" stroke-linecap="round"/>
<path d="M80.5312 22.9353C80.7347 22.9353 80.8912 23.0136 81.0883 23.0501C81.309 23.091 81.5286 23.1405 81.7415 23.2117C81.9436 23.2793 82.1147 23.4133 82.3182 23.4711C82.817 23.6127 83.2252 23.8839 83.6289 24.1983C83.9645 24.4596 84.2123 24.8207 84.4633 25.1466C84.6658 25.4093 84.8863 25.6826 85.0051 25.997C85.1447 26.3666 85.2104 26.8094 85.2104 27.2005C85.2104 27.7782 85.0375 28.2943 84.9439 28.8589C84.8669 29.324 84.6501 29.7533 84.5507 30.2154C84.5049 30.4287 84.475 30.7562 84.2667 30.8576" stroke="#F2F2F2" stroke-width="1.5" stroke-linecap="round"/>
<path d="M29.0601 10.803C30.0219 11.8562 31.6291 12.2571 32.9747 12.6485C34.003 12.9476 35.0251 13.1376 36.0985 13.1376" stroke="#F2F2F2" stroke-width="1.5" stroke-linecap="round"/>
<path d="M39.4407 8.43037C39.3246 8.35211 39.1488 8.33929 39.0148 8.31556C38.5943 8.24115 38.1674 8.23901 37.7412 8.23901C37.2407 8.23901 36.7468 8.30765 36.247 8.31556C35.9578 8.32013 35.6373 8.32327 35.3514 8.36233C35.1544 8.38924 34.9262 8.36379 34.7441 8.44738C34.4133 8.59915 34.0242 8.70407 33.8353 9.04272C33.7301 9.23133 33.6692 9.58266 33.8419 9.75075C34.3396 10.2352 35.3027 10.2098 35.9412 10.227C36.7841 10.2498 37.6141 10.2227 38.4533 10.3248C38.8577 10.374 39.2803 10.4205 39.6876 10.4205C39.9109 10.4205 40.1211 10.3574 40.3451 10.3418C40.5558 10.3272 40.8563 10.28 40.8563 10.0378" stroke="#F2F2F2" stroke-width="1.5" stroke-linecap="round"/>
<path d="M65.2745 20.4474C64.9793 20.2953 64.6691 20.2056 64.3527 20.103C64.1676 20.0429 64.0797 19.9474 63.918 19.8585C63.7674 19.7756 63.5882 19.7223 63.4483 19.6225C63.2439 19.4766 63.0179 19.3971 62.7755 19.3184C62.5852 19.2567 62.4725 19.1442 62.2861 19.1079" stroke="#F2F2F2" stroke-width="1.5" stroke-linecap="round"/>
<path d="M58.3545 17.3477C58.4261 17.5044 58.8561 17.6207 59.0011 17.7282C59.1207 17.817 59.2657 17.8702 59.3965 17.9409C59.5656 18.0323 59.8062 18.1514 60.006 18.1514" stroke="#F2F2F2" stroke-width="1.5" stroke-linecap="round"/>
<path d="M54.3433 15.855C54.5891 15.8749 54.7886 16.0951 55.0161 16.1782C55.2293 16.256 55.4572 16.2969 55.6714 16.361C55.7976 16.3988 56.0598 16.5175 56.1127 16.6204" stroke="#F2F2F2" stroke-width="1.5" stroke-linecap="round"/>
<path d="M50.6865 14.0945C50.937 14.3518 51.1545 14.4049 51.4795 14.5537C51.5832 14.6012 51.5983 14.6686 51.7482 14.6686" stroke="#F2F2F2" stroke-width="1.5" stroke-linecap="round"/>
<path d="M46.3223 11.7219C46.4269 11.7404 46.5056 11.8297 46.5844 11.892C46.741 12.0158 46.9167 12.0803 47.0912 12.1727C47.2858 12.2757 47.5017 12.4826 47.6679 12.6319C47.7993 12.75 47.9608 12.8575 48.0917 12.9849" stroke="#F2F2F2" stroke-width="1.5" stroke-linecap="round"/>
<path d="M43.1372 9.15747C43.3785 9.21488 43.7655 9.37639 43.9236 9.58696C44.0001 9.68877 44.0488 9.77447 44.1596 9.84636" stroke="#F2F2F2" stroke-width="1.5" stroke-linecap="round"/>
<path d="M57.917 17.4294C57.9669 17.4107 58.1974 17.3178 58.1974 17.2659C58.1974 17.2646 58.1659 17.2806 58.1524 17.2845C58.0938 17.3013 58.0382 17.3241 57.9793 17.3384" stroke="#F2F2F2" stroke-width="1.5" stroke-linecap="round"/>
<path d="M61.5426 18.9128C61.5532 18.9509 61.5515 18.9825 61.5406 19.0087C61.5344 19.0081 61.5282 19.0074 61.5219 19.0067C61.4505 18.9984 61.3874 18.9632 61.3187 18.9446C61.2198 18.918 61.1175 18.9087 61.0206 18.8742C60.8353 18.8083 60.7719 18.6743 60.8208 18.4869C60.8431 18.4015 60.8837 18.3946 60.9517 18.4467C61.058 18.528 61.1722 18.5938 61.2825 18.6697C61.3667 18.7276 61.5132 18.8074 61.5426 18.9128Z" fill="#040D08"/>
<path d="M60.4642 17.9839C60.3479 17.9895 60.2537 18.2038 60.2187 18.2991C60.1388 18.5168 60.2374 18.7296 60.3074 18.9371C60.3897 19.181 60.5623 19.4623 60.8337 19.5416C60.945 19.574 61.0768 19.5349 61.1851 19.508C61.3246 19.4735 61.4616 19.4372 61.5934 19.3798C61.7441 19.3142 61.9012 19.1921 61.9974 19.062C62.0415 19.0024 62.1076 18.8966 62.1076 18.8214C62.1076 18.7244 61.8664 18.6414 61.7898 18.5951C61.6105 18.4866 61.4416 18.365 61.2627 18.2555C61.124 18.1707 60.9621 18.0487 60.7898 18.0442C60.6735 18.0413 60.5411 18.1231 60.5142 18.2438C60.4653 18.4627 60.5635 18.6138 60.6503 18.8038C60.6882 18.8868 60.7255 18.9872 60.7863 19.057C60.8442 19.1233 60.9829 19.1042 61.062 19.1157C61.1959 19.1352 61.6089 19.1504 61.5426 18.9128C61.5132 18.8074 61.3667 18.7276 61.2825 18.6697C61.1722 18.5938 61.058 18.528 60.9517 18.4467C60.8837 18.3946 60.8431 18.4015 60.8208 18.4869C60.7719 18.6743 60.8353 18.8083 61.0206 18.8742C61.1175 18.9087 61.2198 18.918 61.3187 18.9446C61.3874 18.9632 61.4505 18.9984 61.5219 19.0067C61.6165 19.0176 61.7112 19.0155 61.7666 18.9346" stroke="#F2F2F2" stroke-width="1.5" stroke-linecap="round"/>
<path d="M59.1947 17.4898C58.9575 17.3743 58.7397 17.2333 58.5075 17.109C58.2821 16.9883 58.0835 16.9046 57.893 16.7383C57.8285 16.682 57.6807 16.6387 57.6004 16.5951C57.4423 16.5091 57.2247 16.4954 57.0482 16.5344C56.7366 16.6034 56.4467 16.8299 56.1758 16.991C56.0033 17.0936 56.042 17.472 56.0477 17.638C56.0597 17.9891 56.7188 18.1037 56.9651 18.0019C57.2191 17.8971 57.4735 17.7536 57.706 17.6111C57.8882 17.4994 57.9172 17.3904 57.9172 17.1932C57.9172 17.0027 57.6868 16.9748 57.5295 16.9135C57.3104 16.8283 57.0573 16.745 56.8301 16.8461C56.721 16.8948 56.6465 16.9978 56.5306 17.0517C56.4182 17.1041 56.297 17.2235 56.297 17.3516C56.297 17.4783 56.3023 17.7113 56.4718 17.7307C56.8399 17.7728 57.1708 17.7257 57.4256 17.4662C57.4405 17.451 57.6136 17.2681 57.5243 17.2488C57.3953 17.2209 57.3365 17.1258 57.1867 17.1258C57.0499 17.1258 56.6085 17.2509 56.6085 17.4291C56.6085 17.5161 56.9758 17.442 57.0136 17.3684" stroke="#F2F2F2" stroke-width="1.5" stroke-linecap="round"/>
<path d="M54.106 15.6573C54.2105 15.6193 54.267 15.6049 54.398 15.6113C54.6116 15.6217 54.7775 15.7643 54.9779 15.8219C55.1258 15.8643 55.2647 15.9312 55.4106 15.9718C55.4178 15.9738 55.4986 15.9989 55.466 16.0207C55.4331 16.0427 55.2718 15.958 55.2635 15.955C55.0863 15.89 54.9076 15.8542 54.7217 15.8219C54.5051 15.7842 54.302 15.7278 54.106 15.6573C53.9735 15.6096 53.8443 15.5554 53.7164 15.4963C53.7124 15.5003 53.7082 15.5043 53.7038 15.5085C53.5338 15.6705 53.318 15.779 53.1049 15.8792C52.9463 15.9537 52.7658 15.8813 52.6133 15.8219C52.475 15.768 52.142 15.6599 52.1095 15.5017C52.0749 15.3334 52.2129 15.2854 52.3444 15.2397L52.3467 15.2389C52.5965 15.1521 52.8819 15.1244 53.1354 15.2114C53.288 15.1742 53.4466 15.1933 53.6156 15.2456C53.7973 15.3019 53.8586 15.3548 53.7164 15.4963C53.8443 15.5554 53.9735 15.6096 54.106 15.6573Z" fill="#040D08"/>
<path d="M55.8296 16.0342C55.7654 15.9161 55.6597 15.8497 55.5318 15.805C55.3337 15.7359 55.1596 15.6365 54.9554 15.5776C54.7545 15.5196 54.6335 15.4239 54.4586 15.3366C54.2878 15.2514 54.1141 15.1916 53.9479 15.0957C53.4283 14.796 52.4867 14.739 52.0749 15.2288C51.9602 15.3653 51.8141 15.6426 51.952 15.8084C52.109 15.9971 52.2385 16.0934 52.4817 16.1723C52.7745 16.2673 53.1341 16.36 53.4165 16.1841C53.5119 16.1246 53.7297 16.0041 53.78 15.9061C53.8242 15.82 53.9787 15.7044 54.0708 15.6702C54.1994 15.6226 54.253 15.6042 54.398 15.6113C54.6116 15.6217 54.7775 15.7643 54.9779 15.8219C55.1258 15.8643 55.2647 15.9312 55.4106 15.9718C55.4178 15.9738 55.4986 15.9989 55.466 16.0207C55.4331 16.0427 55.2718 15.958 55.2635 15.955C55.0863 15.89 54.9076 15.8542 54.7217 15.8219C54.1864 15.7288 53.7335 15.5212 53.2676 15.2692C52.9849 15.1164 52.6411 15.1366 52.3467 15.2389C52.2145 15.2849 52.0747 15.3324 52.1095 15.5017C52.142 15.6599 52.475 15.768 52.6133 15.8219C52.7658 15.8813 52.9463 15.9537 53.1049 15.8792C53.318 15.779 53.5338 15.6705 53.7038 15.5085C53.8619 15.3578 53.8024 15.3035 53.6156 15.2456C53.3491 15.1631 53.1081 15.1632 52.8764 15.3366C52.8015 15.3927 52.7438 15.4207 52.6531 15.4428C52.6352 15.4471 52.5302 15.4519 52.5302 15.4748C52.5302 15.5755 52.881 15.5793 52.9629 15.5793" stroke="#F2F2F2" stroke-width="1.5" stroke-linecap="round"/>
<path d="M51.9838 14.4526C51.8361 14.4218 51.6728 14.3324 51.5367 14.2673C51.4022 14.203 51.229 14.1137 51.1155 14.015C51.0219 13.9334 50.9213 13.8469 50.8201 13.7752C50.6749 13.6724 50.4679 13.6355 50.3042 13.569C50.1668 13.5132 50.0301 13.4501 49.8847 13.4172C49.7776 13.393 49.6723 13.3585 49.5634 13.3426C49.4736 13.3295 49.3826 13.3428 49.2929 13.3292C49.1122 13.3018 48.9363 13.2454 48.752 13.2454C48.5753 13.2454 48.4878 13.3221 48.3437 13.4114C48.1133 13.5541 47.9553 13.7622 47.9251 14.0267C47.9136 14.1273 47.9217 14.2316 47.9217 14.3327C47.9217 14.4958 48.127 14.5825 48.2662 14.6186C48.5107 14.682 48.7858 14.7262 49.0388 14.7217C49.1771 14.7193 49.2958 14.6895 49.4221 14.637C49.539 14.5885 49.6326 14.5068 49.7477 14.456C49.9356 14.373 50.0923 14.2302 50.2757 14.1357C50.3325 14.1064 50.4382 14.0245 50.3619 13.9764C50.0934 13.8073 49.7207 13.7948 49.417 13.7056C49.1636 13.6312 48.8939 13.5623 48.6288 13.5623C48.4953 13.5623 48.373 13.6094 48.2972 13.7249C48.2416 13.8097 48.1685 13.9073 48.1482 14.0058C48.0771 14.3519 48.5646 14.4434 48.8261 14.4518C49.0218 14.458 49.2694 14.4547 49.4445 14.3654C49.5584 14.3074 49.7144 14.2667 49.8003 14.1684C49.8691 14.0896 49.6046 14.0241 49.5617 14.015C49.3581 13.9718 49.1506 13.9798 48.9518 13.9177C48.8614 13.8895 48.6877 13.8314 48.5918 13.8708C48.5464 13.8894 48.441 13.9846 48.4497 14.0393C48.4696 14.1655 48.7839 14.1428 48.8692 14.1474C48.9435 14.1515 49.0055 14.1565 49.0776 14.1743C49.127 14.1865 49.1377 14.1874 49.0845 14.1961" stroke="#F2F2F2" stroke-width="1.5" stroke-linecap="round"/>
<path d="M48.6036 12.4305C48.5563 12.2644 48.4272 12.1219 48.3272 11.9828C48.2824 11.9206 48.2172 11.8733 48.1592 11.8235C48.0468 11.7269 47.9551 11.6206 47.8577 11.5099C47.7129 11.3454 47.541 11.1845 47.3668 11.0488C47.2122 10.9285 47.0366 10.8256 46.8947 10.6917C46.6583 10.4685 46.3675 10.2203 46.0532 10.109C45.8904 10.0514 45.7192 10.0432 45.5493 10.0277C45.3922 10.0134 45.2867 9.95568 45.1342 10.0344C45.005 10.1011 44.8881 10.2003 44.7801 10.2952C44.6156 10.4397 44.4181 10.5422 44.2478 10.6791C44.1437 10.7628 44.0136 10.8136 43.9455 10.9315C43.8768 11.0503 43.8261 11.1687 43.7973 11.302C43.7382 11.5764 44.0284 11.7729 44.2427 11.904C44.652 12.1544 45.2438 11.8783 45.6553 11.7757C45.8385 11.73 46.0118 11.6589 46.1988 11.6273C46.3013 11.61 46.409 11.5971 46.5089 11.634C46.5988 11.6672 46.676 11.7345 46.7586 11.7816C46.907 11.8661 47.047 11.9714 47.2014 12.0448C47.3341 12.1079 47.4662 12.1582 47.5881 12.2418C47.6653 12.2948 47.773 12.3327 47.8319 12.407C47.8869 12.4764 47.9666 12.4992 48.0524 12.521C48.1091 12.5354 48.1644 12.5564 48.2238 12.5503C48.2966 12.5429 48.2894 12.438 48.3013 12.3869C48.346 12.1955 48.0698 12.0303 47.937 11.9325C47.637 11.7116 47.4203 11.4175 47.1264 11.1897C46.8446 10.9712 46.5199 10.8162 46.2436 10.5894C46.024 10.4092 45.6797 10.2689 45.3891 10.2725C44.9944 10.2774 44.7869 10.5275 44.5036 10.7537C44.3393 10.885 44.1304 10.9933 44.0954 11.2165C44.0817 11.3039 44.0666 11.399 44.0773 11.4873C44.0927 11.6149 44.2218 11.6507 44.3297 11.6826C44.4851 11.7286 44.6363 11.7363 44.7965 11.7363C44.8751 11.7363 44.9545 11.7398 45.0308 11.7179C45.123 11.6914 45.2034 11.6372 45.2944 11.6072C45.4293 11.5626 45.5882 11.5442 45.7293 11.5334C45.8287 11.5258 45.9315 11.5335 46.03 11.5183C46.0967 11.508 46.1585 11.4854 46.2263 11.4798C46.3892 11.4663 46.5723 11.4381 46.7276 11.5016C46.9165 11.5786 47.0697 11.7067 47.2169 11.8403C47.2867 11.9037 47.362 12.0011 47.4477 12.0448C47.482 12.0623 47.6182 12.1941 47.5623 12.0658C47.5058 11.9359 47.3862 11.8324 47.2961 11.7246C47.2075 11.6185 47.1236 11.5138 47.0145 11.4269C46.8646 11.3076 46.7112 11.1991 46.5407 11.1092C46.2266 10.9436 45.9399 10.7689 45.6044 10.6464C45.4802 10.6011 45.3558 10.5464 45.2186 10.5659C45.0102 10.5956 44.8348 10.7569 44.6501 10.8468C44.4381 10.9499 44.3786 11.1589 44.3314 11.3641C44.3086 11.4631 44.6433 11.4434 44.6957 11.4404C44.8807 11.4296 45.0697 11.4445 45.253 11.4261C45.3695 11.4144 45.4981 11.4013 45.6113 11.3708C45.7117 11.3437 45.811 11.3212 45.9145 11.3079C45.9576 11.3023 46.0187 11.3074 46.0575 11.2836C46.1615 11.2199 45.8812 11.0645 45.8473 11.0472C45.7139 10.9788 45.5491 10.9634 45.4003 10.9516C45.1834 10.9344 44.8382 10.8381 44.7 11.0723C44.5806 11.2747 45.227 11.2232 45.3323 11.2232" stroke="#F2F2F2" stroke-width="1.5" stroke-linecap="round"/>
<path d="M39.4437 8.76187C39.4908 8.71915 39.564 8.63628 39.6351 8.60735C39.7618 8.4531 39.889 8.31651 40.0811 8.22197C40.454 8.03834 40.804 7.84346 41.2094 7.72901C41.3967 7.67615 41.5879 7.66485 41.7779 7.62841C41.9808 7.58948 42.1803 7.53418 42.3843 7.4993C43.0636 7.38311 43.7542 7.63764 44.411 7.7726C44.7735 7.84708 45.1187 7.92001 45.4412 8.10963C45.6755 8.24738 45.8972 8.42541 46.0975 8.60594C46.3564 8.83924 46.6153 9.16144 46.6841 9.51304C46.7215 9.70417 46.8005 9.89044 46.8047 10.0882C46.8055 10.1235 46.824 10.2271 46.8013 10.2542C46.7945 10.2622 46.6926 10.2129 46.6824 10.2089C46.5177 10.1434 46.3973 9.99566 46.2362 9.92216C46.1482 9.88201 46.0724 9.83943 45.9795 9.81318C45.9255 9.79791 45.86 9.78224 45.8099 9.75784C45.5651 9.63872 45.3096 9.60211 45.1061 9.40406C44.9282 9.23084 44.7852 9.06743 44.5445 8.97481C44.1931 8.83959 43.7622 8.83153 43.3938 8.90272C43.2544 8.92965 43.112 8.97064 42.9752 9.00835C42.7819 9.06163 42.6114 9.19332 42.436 9.28501C42.3022 9.35492 42.1675 9.41235 42.038 9.49125C41.8554 9.60252 41.6601 9.65619 41.4627 9.73437C41.3093 9.79511 41.1418 9.83143 40.9837 9.88024C40.8044 9.93563 40.6199 9.97079 40.4316 9.97079C40.0739 9.97079 39.7093 9.86785 39.3903 9.71257C39.3028 9.67002 39.1491 9.63404 39.1224 9.52981C39.1048 9.46121 39.0991 9.39303 39.0991 9.32273C39.0991 9.27507 39.1248 9.23047 39.1542 9.19363C39.2021 9.13371 39.2308 9.06907 39.2697 9.00416C39.3262 8.90986 39.3563 8.84101 39.4437 8.76187Z" fill="#040D08"/>
<path d="M39.6728 8.59755C39.5908 8.60553 39.4992 8.71155 39.4437 8.76187C39.3563 8.84101 39.3262 8.90986 39.2697 9.00416C39.2308 9.06907 39.2021 9.13371 39.1542 9.19363C39.1248 9.23047 39.0991 9.27507 39.0991 9.32273C39.0991 9.39303 39.1048 9.46121 39.1224 9.52981C39.1491 9.63404 39.3028 9.67002 39.3903 9.71257C39.7093 9.86785 40.0739 9.97079 40.4316 9.97079C40.6199 9.97079 40.8044 9.93563 40.9837 9.88024C41.1418 9.83143 41.3093 9.79511 41.4627 9.73437C41.6601 9.65619 41.8554 9.60252 42.038 9.49125C42.1675 9.41235 42.3022 9.35492 42.436 9.28501C42.6114 9.19332 42.7819 9.06163 42.9752 9.00835C43.112 8.97064 43.2544 8.92965 43.3938 8.90272C43.7622 8.83153 44.1931 8.83959 44.5445 8.97481C44.7852 9.06743 44.9282 9.23084 45.1061 9.40406C45.3096 9.60211 45.5651 9.63872 45.8099 9.75784C45.86 9.78224 45.9255 9.79791 45.9795 9.81318C46.0724 9.83943 46.1482 9.88201 46.2362 9.92216C46.3973 9.99566 46.5177 10.1434 46.6824 10.2089C46.6926 10.2129 46.7945 10.2622 46.8013 10.2542C46.824 10.2271 46.8055 10.1235 46.8047 10.0882C46.8005 9.89044 46.7215 9.70417 46.6841 9.51304C46.6153 9.16144 46.3564 8.83924 46.0975 8.60594C45.8972 8.42541 45.6755 8.24738 45.4412 8.10963C45.1187 7.92001 44.7735 7.84708 44.411 7.7726C43.7542 7.63764 43.0636 7.38311 42.3843 7.4993C42.1803 7.53418 41.9808 7.58948 41.7779 7.62841C41.5879 7.66485 41.3967 7.67615 41.2094 7.72901C40.804 7.84346 40.454 8.03834 40.0811 8.22197C39.8397 8.34077 39.7007 8.52597 39.5367 8.72917C39.4325 8.85818 39.4842 9.05766 39.4325 9.20872C39.3755 9.37516 39.413 9.46368 39.6013 9.52478C39.731 9.56686 39.8594 9.56199 39.9941 9.57927C40.168 9.6016 40.3413 9.61448 40.5169 9.60778C40.7043 9.60063 40.8759 9.51558 41.0561 9.4728C41.367 9.39899 41.7008 9.31141 41.9743 9.14584C42.2384 8.98592 42.4956 8.82919 42.8012 8.76019C43.1438 8.68282 43.4717 8.673 43.821 8.673C44.1311 8.673 44.4399 8.67364 44.7271 8.80295C44.9575 8.90666 45.1679 9.05654 45.3766 9.19363C45.5877 9.33232 45.7799 9.49689 46.0261 9.57676C46.1066 9.60288 46.304 9.69374 46.269 9.54742C46.2637 9.52544 46.2161 9.43364 46.2655 9.48286C46.3264 9.54358 46.3817 9.62616 46.4223 9.70084C46.434 9.72251 46.4759 9.78729 46.4378 9.72096C46.3758 9.6132 46.3265 9.49996 46.2655 9.39232C46.17 9.22385 46.0376 9.07232 45.9141 8.92284C45.8299 8.82095 45.7405 8.72641 45.6488 8.63109C45.5383 8.51624 45.3793 8.44791 45.2371 8.3779C44.8567 8.19065 44.4513 8.07007 44.0303 8.00399C43.6561 7.94525 43.2892 7.87665 42.9183 7.79859C42.465 7.7032 42.0253 7.81351 41.5893 7.93944C41.4258 7.98666 41.2555 8.0459 41.088 8.07609C40.9179 8.10674 40.8038 8.1296 40.6642 8.22616C40.5796 8.28467 40.4865 8.33668 40.3998 8.39299C40.2388 8.49741 40.0645 8.56094 39.8967 8.65121C39.7783 8.71494 39.7236 8.75004 39.6762 8.87756C39.6392 8.97725 39.6244 9.07571 39.6073 9.17937C39.5661 9.42926 39.9901 9.473 40.1689 9.45436C40.3166 9.43895 40.4368 9.35582 40.5669 9.29507C40.7319 9.21797 40.8804 9.14828 41.0561 9.09386C41.2586 9.03116 41.4602 8.9718 41.6565 8.89266C41.7347 8.86111 41.8076 8.82511 41.883 8.78786C41.9902 8.73488 42.1084 8.72667 42.2258 8.70989C42.6549 8.64855 43.0761 8.5501 43.5092 8.51623C43.6901 8.50208 43.8722 8.50701 44.0536 8.50701C44.3159 8.50701 44.553 8.58839 44.8004 8.66462C45.0672 8.74685 45.3219 8.86571 45.5713 8.98991C45.61 9.00921 45.9331 9.24401 45.9175 9.25483C45.9058 9.26297 45.8902 9.24541 45.8779 9.23806C45.7724 9.17483 45.7765 9.17371 45.6419 9.10225C45.3275 8.93536 45.0039 8.78598 44.6737 8.65121C44.4721 8.5689 44.2728 8.4787 44.0691 8.40138C43.973 8.3649 43.6903 8.25113 43.7745 8.30916C43.9773 8.44894 44.2927 8.47075 44.5273 8.50869C44.5821 8.51755 44.7585 8.55948 44.6134 8.48018C44.4134 8.37085 44.1993 8.2852 43.9829 8.21191C43.6392 8.09546 43.3027 8.02411 42.939 8.02411C42.8697 8.02411 42.8029 8.01348 42.734 8.00986C42.5341 7.99934 42.3437 8.05973 42.15 8.09705C41.9584 8.13397 41.7644 8.18102 41.572 8.21107C41.3196 8.25051 41.0961 8.33997 40.8537 8.41479C40.5876 8.4969 40.2237 8.56949 40.0371 8.78618C40.01 8.81771 39.7709 9.07675 39.901 9.10979C40.1044 9.16144 40.3262 9.01707 40.5031 8.9329C40.7748 8.80361 41.0661 8.7347 41.3541 8.65121C41.6338 8.57013 41.9103 8.48854 42.1965 8.43156C42.4235 8.38636 42.6545 8.38104 42.8856 8.37455C43.0935 8.3687 43.3124 8.3561 43.5178 8.3561" stroke="#F2F2F2" stroke-width="1.5" stroke-linecap="round"/>
<path d="M2.87959 27.8342C2.65379 27.9563 2.34911 28.3796 2.27311 28.6284C2.13407 29.0836 2.03603 29.4484 2.03603 29.9352C2.03603 30.5215 2.22276 31.1167 2.44403 31.6282C2.49426 31.7444 2.61194 31.9168 2.57084 32.0468C2.50051 32.2693 2.28838 32.4451 2.16284 32.6371C2.07586 32.7701 2.08565 33.064 2.08565 33.2194C2.08565 33.3449 1.99125 33.4436 1.98641 33.5709C1.98236 33.6772 1.9843 33.7581 1.94781 33.8606C1.79744 34.2835 1.29171 34.6228 1.29171 35.103C1.29171 35.5415 1.17937 35.9583 1.19247 36.4043C1.20069 36.6844 1.31162 36.9595 1.44057 37.2039C1.6503 37.6014 1.72652 38.046 2.08841 38.363C2.43745 38.6688 3.04385 38.7564 3.48056 38.8621C3.95063 38.9758 4.43827 39.0451 4.91406 39.1358C5.5636 39.2596 6.20868 39.3677 6.85205 39.5195C7.39591 39.6478 7.96837 39.8197 8.52814 39.8549C8.72186 39.867 8.94003 39.8295 9.13187 39.871C9.34013 39.916 9.56006 39.9796 9.77143 40.0024C10.043 40.0318 10.1375 39.8353 10.3007 39.667C10.464 39.4988 10.5171 39.405 10.7418 39.5812C11.0125 39.7935 11.0971 40.1507 11.3896 40.3405C11.6641 40.5186 12.1257 40.4145 12.4289 40.3942C12.9954 40.3562 13.5753 40.3915 14.1436 40.3915C15.3984 40.3915 16.6269 40.5387 17.8817 40.4908C18.171 40.4797 18.6613 40.53 18.8852 40.2922C19.1153 40.0479 19.4265 39.7779 19.7398 39.667C20.2339 39.4922 20.445 39.789 20.7708 40.0427C20.9343 40.17 21.0067 40.3084 21.2146 40.37C21.4995 40.4544 21.7565 40.4398 22.0582 40.4398C22.9201 40.4398 23.7821 40.4398 24.644 40.4398C25.0392 40.4398 25.4283 40.4458 25.8211 40.4022C26.2756 40.3518 26.731 40.2105 27.183 40.1285C28.0831 39.9654 28.9832 39.625 29.8708 39.3987C30.2702 39.2969 30.6477 39.1332 31.0534 39.0499C31.4203 38.9746 31.7825 38.8227 32.1451 38.7601C32.8272 38.6423 33.5247 38.6008 34.2016 38.4596C34.5972 38.3771 35.0058 38.2719 35.4146 38.3201C35.8419 38.3705 36.2716 38.4741 36.702 38.5321C37.159 38.5937 37.5567 38.6598 37.9618 38.8836C38.193 39.0112 38.5786 39.0974 38.775 39.2592C39.1155 39.5396 39.6382 39.8554 40.0735 39.9676C40.4509 40.0648 40.8083 40.2569 41.1872 40.3539C41.7274 40.4923 42.3247 40.5091 42.8798 40.5391C43.6017 40.5781 44.3108 40.633 45.0356 40.633C45.5992 40.633 46.0832 40.5653 46.6345 40.4774C46.9784 40.4225 47.2854 40.2202 47.6049 40.1017C47.9878 39.9597 48.1343 40.3448 48.476 40.4398C48.6676 40.4931 48.6423 40.9393 48.8068 40.9684C49.2009 41.0381 49.664 40.9711 50.0694 40.9711C51.694 40.9711 53.3187 40.9711 54.9433 40.9711C55.3693 40.9711 56.0288 41.1022 56.2114 40.6223C56.2565 40.5038 56.291 40.1742 56.4237 40.1527C56.6021 40.1237 56.9197 40.0209 57.0936 40.1285C57.2521 40.2268 57.255 40.4002 57.3747 40.5257C57.5078 40.6652 57.6314 40.7982 57.8103 40.8852C58.0773 41.0151 58.5433 40.9155 58.8138 40.8637C59.0433 40.8198 59.2716 40.6764 59.5029 40.6088C59.7551 40.5352 60.035 40.5086 60.2969 40.4854C61.0942 40.4149 61.8722 40.1909 62.6787 40.1473C63.1858 40.1199 63.693 39.994 64.2004 39.9461C64.2853 39.9381 64.6426 39.9556 64.6966 39.8388C64.8876 39.4257 64.3785 38.6045 65.1294 38.6045C65.3676 38.6045 65.181 38.9264 65.3114 39.066C65.5963 39.371 66.1914 39.2851 66.5602 39.2807C67.3821 39.2707 68.1837 38.9128 68.9751 38.7494C69.4197 38.6576 69.8536 38.5331 70.2956 38.4301C70.8141 38.3092 71.286 38.0658 71.8063 37.9498C72.3136 37.8366 72.8144 37.7019 73.3252 37.601C73.6654 37.5338 73.9517 37.3463 74.2873 37.279C75.0453 37.1271 75.7718 36.9334 76.5175 36.7424C76.9178 36.6398 77.2881 36.4659 77.6864 36.3587C78.1366 36.2375 78.5887 36.0951 78.9986 35.8757C79.2749 35.7278 79.6351 35.6651 79.8918 35.5027C80.0598 35.3965 80.2424 35.2712 80.4376 35.2237" stroke="#F2F2F2" stroke-width="1.5" stroke-linecap="round"/>
<path d="M80.1895 35.2237C80.6134 35.1824 81.0701 34.9323 81.4741 34.7998C81.7302 34.7157 81.9547 34.5964 82.1853 34.4617C82.5456 34.2513 82.8895 34.0203 83.266 33.8338C83.5468 33.6946 83.7824 33.5109 84.0489 33.3508C84.188 33.2673 84.3422 33.2369 84.4073 33.0772C84.5686 32.6808 84.81 32.3267 84.9807 31.9341C85.1476 31.5502 85.3412 31.1873 85.4769 30.7911C85.5696 30.5203 85.5639 30.2165 85.6947 29.962C85.7873 29.7816 85.8235 29.5257 85.8463 29.3261C85.9509 28.4097 85.8609 27.3698 85.102 26.7234" stroke="#F2F2F2" stroke-width="1.5" stroke-linecap="round"/>
<path d="M1.17627 36.488C2.27022 36.9338 3.37511 37.2033 4.50903 37.5377C4.82491 37.6309 5.14895 37.6609 5.46572 37.7409C5.81096 37.828 6.1089 37.9681 6.46416 38.0388C7.17902 38.1812 7.87391 38.3427 8.60019 38.4249C8.99161 38.4692 9.28807 38.5603 9.69255 38.5603C10.077 38.5603 10.5254 38.6334 10.8962 38.7296C11.4526 38.874 12.1784 38.9749 12.747 38.9869C13.5188 39.0033 14.2883 39.0479 15.0639 39.0479C17.0154 39.0479 18.9821 38.9814 20.9154 38.7567C21.7134 38.6639 22.566 38.7431 23.3715 38.7431C24.2296 38.7431 25.0877 38.7431 25.9459 38.7431C27.9136 38.7431 29.9078 38.6822 31.8599 38.6822" stroke="#F2F2F2" stroke-width="1.5" stroke-linecap="round"/>
<path d="M38.9985 39.1697C39.7534 39.3478 40.6693 39.1448 41.4546 39.1731C42.2372 39.2013 43.0216 39.2246 43.7994 39.3052C44.3337 39.3605 44.8537 39.4806 45.3892 39.5354C45.8869 39.5864 46.3364 39.7935 46.826 39.8368C47.4867 39.8952 48.4403 40.0758 49.0803 39.8266C49.2319 39.7676 49.3713 39.7856 49.5326 39.7792C49.923 39.7637 50.3149 39.6779 50.7084 39.6539C51.7154 39.5927 52.7297 39.5851 53.7385 39.532C54.5637 39.4886 55.4349 39.3939 56.2538 39.5388C56.4719 39.5774 56.6047 39.7792 56.8452 39.7792C56.9648 39.7792 57.141 39.813 57.2557 39.7724C57.4556 39.7017 57.6289 39.4995 57.8471 39.4745C57.9497 39.4627 58.0614 39.3856 58.1741 39.3661C58.348 39.336 58.5265 39.3751 58.6994 39.3492C59.1509 39.2816 59.836 39.3315 60.2231 39.1054C60.6483 38.8571 61.4094 38.8729 61.9034 38.865C62.5362 38.8549 63.1715 38.6923 63.8099 38.6821C64.3936 38.6728 64.9507 38.4759 65.518 38.435C66.0511 38.3965 66.6439 38.2679 67.1635 38.1336C67.7226 37.9891 68.2403 37.9007 68.7847 37.7036C69.7278 37.362 70.6563 37.0866 71.6304 36.8435C72.3984 36.6518 73.1654 36.2701 73.9473 36.1358C74.095 36.1105 74.0864 36.2664 74.243 36.2374C74.5478 36.1809 74.7579 36.0741 74.9701 35.8785C75.1989 35.6675 75.7419 35.4201 76.0312 35.3367C76.3893 35.2334 76.745 35.1193 77.1061 35.0252C77.3797 34.954 77.5781 34.7731 77.8471 34.6934C78.5815 34.4758 79.3383 34.2844 80.0458 34.0196C80.2879 33.9289 80.3023 34.2246 80.578 34.0974C80.8665 33.9644 81.2536 33.7651 81.5034 33.5624C81.8125 33.3118 82.0512 33.0401 82.3975 32.8378C82.5723 32.7357 82.8134 32.6094 83.0063 32.5399C83.2046 32.4684 83.3186 32.2973 83.5107 32.1945C84.054 31.9036 84.1577 31.2499 84.4605 30.7588" stroke="#F2F2F2" stroke-width="1.5" stroke-linecap="round"/>
<path d="M2.24313 33.0007C2.3055 33.1019 2.54475 33.1419 2.64727 33.173C3.06956 33.3007 3.51041 33.3308 3.94704 33.3834C4.50251 33.4504 5.08089 33.4399 5.6291 33.545C6.0832 33.6321 6.52881 33.7571 6.97912 33.8597C7.45011 33.967 7.94963 34.0993 8.39468 34.285C8.52405 34.3389 8.61812 34.4396 8.74857 34.4933C8.97252 34.5857 9.19467 34.656 9.40828 34.774C9.66154 34.9138 9.93317 35.0263 10.1772 35.1822C10.5161 35.3987 10.628 35.5715 10.7408 35.9285C10.7663 36.0091 10.8544 36.0865 10.8544 36.1773C10.8544 36.3047 10.4328 36.326 10.3607 36.3282C9.04776 36.3695 7.81185 35.8145 6.58591 35.4289C6.09581 35.2747 5.57799 35.1078 5.07643 34.9951C4.68366 34.9069 4.3173 34.7745 3.93394 34.6719C3.22861 34.4831 2.39036 34.302 1.65332 34.302" stroke="#F2F2F2" stroke-width="1.5" stroke-linecap="round"/>
<path d="M12.0738 35.0292C11.764 35.1046 11.1492 35.5724 11.0602 35.9095C11.0462 35.9623 10.9971 36.0855 11.0121 36.1391C11.1198 36.5235 12.2025 36.497 12.5063 36.5133C14.3367 36.6112 16.1541 36.9011 17.9675 37.1554C18.4999 37.2301 19.018 37.3357 19.5447 37.4382C19.752 37.4785 19.8652 37.5187 19.9947 37.3468C20.0596 37.2607 20.0952 37.178 20.0952 37.0725C20.0952 36.8226 19.6387 36.7078 19.453 36.6026C19.1154 36.4114 18.6939 36.2784 18.328 36.1433C16.9028 35.6172 15.5354 35.0887 14.0442 34.7634C13.5957 34.6656 13.18 34.6465 12.7247 34.6465C12.3925 34.6465 12.1495 34.7367 11.8378 34.8378" stroke="#F2F2F2" stroke-width="1.5" stroke-linecap="round"/>
<path d="M21.1956 36.1389C20.8039 36.1643 20.6276 36.4133 20.4092 36.6875C20.3466 36.7661 19.9644 37.1746 20.1842 37.2913C20.593 37.5084 21.2072 37.4515 21.6587 37.4699C22.1498 37.49 22.6424 37.4792 23.1333 37.4593C24.5559 37.4016 25.985 37.4838 27.3996 37.2871C27.5228 37.2699 28.4416 37.275 28.4307 37.1255C28.4151 36.9138 28.1672 36.8608 27.9981 36.8257C27.4922 36.7206 26.9629 36.662 26.4493 36.6003C24.5526 36.3724 22.6629 36.1708 20.7631 35.9858" stroke="#F2F2F2" stroke-width="1.5" stroke-linecap="round"/>
<path d="M46.2437 34.0344C47.3543 34.6135 48.4922 34.8842 49.7279 35.1336C51.0137 35.3932 52.3343 35.4748 53.6141 35.7481C54.9253 36.0281 56.3128 36.0868 57.6511 36.1351C58.3597 36.1606 59.0419 36.0845 59.746 36.0288C60.6069 35.9606 61.4765 35.9081 62.339 35.8629C63.8312 35.7848 65.2732 35.4365 66.7473 35.2442C67.4745 35.1493 68.1563 34.9933 68.8707 34.8275C69.4375 34.6959 69.9974 34.5261 70.5658 34.4086C71.5691 34.2013 72.5453 33.8603 73.5368 33.6113C74.039 33.4851 74.5503 33.3605 75.0397 33.1924C75.2494 33.1204 75.3824 32.962 75.5771 32.8862" stroke="#F2F2F2" stroke-width="1.5" stroke-linecap="round"/>
<path d="M74.0429 32.6946C73.8525 32.8799 73.7343 33.0934 73.5317 33.2687" stroke="#F2F2F2" stroke-width="1.5" stroke-linecap="round"/>
<path d="M70.7008 33.3069C70.4167 33.4912 70.2094 33.6432 70.0323 33.932C69.9472 34.0708 69.8775 34.2398 69.7178 34.302" stroke="#F2F2F2" stroke-width="1.5" stroke-linecap="round"/>
<path d="M67.2797 33.8809C66.8678 34.1584 66.971 34.6349 66.7686 35.029" stroke="#F2F2F2" stroke-width="1.5" stroke-linecap="round"/>
<path d="M64.0558 34.2253C64.0558 34.5108 63.994 34.7765 63.94 35.0567C63.9021 35.2535 63.9696 35.4513 63.7412 35.4883" stroke="#F2F2F2" stroke-width="1.5" stroke-linecap="round"/>
<path d="M57.9214 34.6846C58.0495 34.8647 58.1966 34.9875 58.1966 35.2204" stroke="#F2F2F2" stroke-width="1.5" stroke-linecap="round"/>
<path d="M55.0908 34.5315C55.2493 34.8913 55.5995 35.1319 55.6806 35.5266" stroke="#F2F2F2" stroke-width="1.5" stroke-linecap="round"/>
<path d="M51.9448 34.7229C51.9968 34.7292 52.096 34.8845 52.1414 34.9228C52.2474 35.012 52.3395 35.1078 52.4167 35.2204" stroke="#F2F2F2" stroke-width="1.5" stroke-linecap="round"/>
<path d="M48.3276 34.1489C48.4281 34.1815 48.585 34.4388 48.6422 34.5316" stroke="#F2F2F2" stroke-width="1.5" stroke-linecap="round"/>
<path d="M23.5947 33.6132C23.6394 33.4174 24.1816 33.3326 24.3506 33.3155C24.9039 33.2594 25.4757 33.2255 26.0326 33.2305C27.1091 33.24 28.1803 33.3881 29.1958 33.745C30.4321 34.1796 31.7418 34.4675 33.0186 34.7698C34.211 35.0521 35.3311 35.5901 36.5029 35.9435C37.3997 36.2139 38.1638 36.7385 38.9299 37.2469C39.0681 37.3386 39.5197 37.4874 39.5197 37.687C39.5197 37.728 39.5411 37.8417 39.4957 37.8613C39.3172 37.9385 39.1608 38.05 38.9736 38.108C38.7616 38.1736 38.54 38.1564 38.3226 38.1866C38.1892 38.2052 38.0595 38.2264 37.9272 38.2462C37.7833 38.2677 37.7749 38.4234 37.6716 38.4737" stroke="#F2F2F2" stroke-width="1.5" stroke-linecap="round"/>
<path d="M23.5947 33.6514C23.8261 33.8663 24.1132 33.9922 24.4008 34.1234C24.9384 34.3685 25.4958 34.58 26.002 34.8846C26.6405 35.2687 27.3819 35.5381 28.0642 35.8456C28.484 36.0348 28.8944 36.2097 29.3268 36.3687C29.652 36.4881 29.8227 36.6771 30.0739 36.8875C30.3344 37.1056 30.3053 37.6284 30.2094 37.9293C30.1809 38.0187 30.1297 38.1948 30.0346 38.2355C29.9728 38.2619 29.9153 38.3018 29.8861 38.3588" stroke="#F2F2F2" stroke-width="1.5" stroke-linecap="round"/>
<path d="M19.8763 14.2511C20.1174 14.3802 19.541 14.199 19.1552 14.0147C18.818 13.9258 18.4727 13.8507 18.1301 13.7892C17.9037 13.7485 17.7985 13.6676 17.6102 13.5328C17.3868 13.3729 17.101 13.3114 16.8572 13.1884C16.6374 13.0775 16.4124 12.881 16.2385 12.7117C15.9168 12.3986 15.68 11.9975 15.5129 11.5889C15.4522 11.4404 15.3508 11.3139 15.2907 11.1643C15.1861 10.9043 15.113 10.6417 15.0822 10.3633C15.0658 10.2154 15.0626 10.0634 15.0685 9.91468C15.0735 9.78587 15.2202 10.1103 15.2381 10.15L15.2386 10.151C15.41 10.5303 15.5755 10.9088 15.8037 11.2631C15.9904 11.5529 16.1832 11.8329 16.351 12.1323C16.4796 12.3618 16.6086 12.6142 16.7776 12.8172C16.7782 12.8179 16.7787 12.8186 16.7793 12.8192C16.8561 12.888 16.9325 12.9573 17.0067 13.0295C17.0077 13.0305 17.0087 13.0315 17.0096 13.0324C17.0682 13.0925 17.0651 13.1821 17.0053 13.0869C16.9892 13.0613 16.9712 13.0368 16.9519 13.013C16.9333 13.0062 16.9153 12.9989 16.8983 12.9908C16.5828 12.84 16.3569 12.4851 16.137 12.2298C16.0548 12.1342 15.7765 11.8822 15.886 11.9467C16.0604 12.0495 16.2059 12.2561 16.3387 12.4007C16.4765 12.5507 16.6285 12.6841 16.7793 12.8192C16.7787 12.8186 16.7782 12.8179 16.7776 12.8172C16.6086 12.6142 16.4796 12.3618 16.351 12.1323C16.1832 11.8329 15.9904 11.5529 15.8037 11.2631C15.5755 10.9088 15.41 10.5303 15.2386 10.151L15.2381 10.15C15.2202 10.1103 15.0735 9.78587 15.0685 9.91468C15.0626 10.0634 15.0658 10.2154 15.0822 10.3633C15.113 10.6417 15.1861 10.9043 15.2907 11.1643C15.3508 11.3139 15.4522 11.4404 15.5129 11.5889C15.68 11.9975 15.9168 12.3986 16.2385 12.7117C16.4124 12.881 16.6374 13.0775 16.8572 13.1884C17.101 13.3114 17.3868 13.3729 17.6102 13.5328C17.7985 13.6676 17.9037 13.7485 18.1301 13.7892C18.4727 13.8507 18.818 13.9258 19.1552 14.0147C19.1968 14.0256 19.2383 14.0368 19.2796 14.0482C19.476 14.1023 19.6953 14.1542 19.8763 14.2511Z" fill="#040D08"/>
<path d="M14.624 8.06421C14.624 8.1691 14.7249 8.2014 14.8023 8.25647C14.8754 8.30842 14.9289 8.43674 14.982 8.51147C15.0869 8.65891 15.1919 8.90663 15.1919 9.08424C15.1919 9.17676 15.2589 9.27129 15.266 9.36728C15.2735 9.47003 15.2973 9.6168 15.3401 9.7104C15.4067 9.85644 15.4946 9.99844 15.576 10.1457C15.6375 10.2568 15.7404 10.342 15.7955 10.4567C15.8571 10.5854 15.9161 10.7208 15.9628 10.8573C15.9978 10.9594 16.0341 11.0612 16.0698 11.163C16.1096 11.2767 16.1951 11.3657 16.2399 11.4768C16.3097 11.6498 16.4766 11.7701 16.5499 11.9467C16.5828 12.0259 16.6723 12.0959 16.7255 12.1643C16.8291 12.2976 16.9621 12.3892 17.0917 12.4968C17.2407 12.6204 17.3326 12.7838 17.4635 12.9187C17.8644 13.3319 18.4568 13.5303 18.9093 13.8746C19.1828 14.0828 20.1805 14.414 19.8763 14.2511C19.6953 14.1542 19.476 14.1023 19.2796 14.0482C18.9032 13.9446 18.515 13.8583 18.1301 13.7892C17.9037 13.7485 17.7985 13.6676 17.6102 13.5328C17.3868 13.3729 17.101 13.3114 16.8572 13.1884C16.6374 13.0775 16.4124 12.881 16.2385 12.7117C15.9168 12.3986 15.68 11.9975 15.5129 11.5889C15.4522 11.4404 15.3508 11.3139 15.2907 11.1643C15.1861 10.9043 15.113 10.6417 15.0822 10.3633C15.0658 10.2154 15.0626 10.0634 15.0685 9.91468C15.0736 9.7847 15.2229 10.1163 15.2386 10.151C15.41 10.5303 15.5755 10.9088 15.8037 11.2631C15.9904 11.5529 16.1832 11.8329 16.351 12.1323C16.4796 12.3618 16.6086 12.6142 16.7776 12.8172C16.8518 12.9063 16.9435 12.9884 17.0053 13.0869C17.0661 13.1836 17.0683 13.0895 17.0067 13.0295C16.7868 12.8155 16.5467 12.627 16.3387 12.4007C16.2059 12.2561 16.0604 12.0495 15.886 11.9467C15.7765 11.8822 16.0548 12.1342 16.137 12.2298C16.3569 12.4851 16.5828 12.84 16.8983 12.9908C17.0383 13.0577 17.2464 13.0703 17.34 13.2071" stroke="#F2F2F2" stroke-width="1.5" stroke-linecap="round"/>
</svg>
