<svg width="92" height="42" viewBox="0 0 92 42" fill="none" xmlns="http://www.w3.org/2000/svg">
<path d="M39.8009 6.42573C39.2733 6.17072 38.7578 5.73928 38.3433 5.31347C37.7992 4.75459 37.2689 4.2082 36.7649 3.61086C35.9157 2.60436 35.2811 1.49063 33.9288 1.15533C33.4452 1.03541 32.719 0.941013 32.2172 1.0441C31.6099 1.16886 31.6343 1.65535 31.2885 2.07508C30.4261 3.12204 29.976 4.46354 29.4228 5.68137C29.1329 6.31952 28.8213 6.9385 28.5399 7.58077C28.4065 7.88526 28.1068 8.4315 28.1068 8.73581C28.1068 8.98352 27.8549 9.56871 28.2401 9.58284C28.9392 9.60849 29.4633 8.95413 29.9975 8.5647C31.5823 7.4094 33.4045 7.15258 35.2532 6.76797C36.0472 6.60277 36.8852 6.65674 37.6936 6.65674C38.2433 6.65674 38.8453 6.81075 39.3511 6.81075" stroke="white" stroke-width="1.5" stroke-linecap="round"/>
<path d="M27.9566 9.81408C27.8028 9.84921 27.6385 10.1138 27.5319 10.2162C27.1827 10.5514 26.7154 10.5685 26.3533 10.8579C25.8342 11.2726 25.1357 11.6863 24.4917 11.8333C23.8698 11.9752 23.3412 12.3694 22.7551 12.5819C22.3641 12.7237 21.9702 12.8826 21.5932 13.0653C20.5114 13.5895 19.1644 13.6642 17.9867 13.6642C16.4424 13.6642 15.2731 13.2833 13.8555 12.6974C13.2808 12.4599 12.7076 12.2512 12.1397 12.0044C11.6777 11.8036 11.2999 11.4425 10.8237 11.2942C10.2593 11.1186 9.66674 10.6876 9.11203 10.4344C8.89523 10.3354 8.66154 10.2305 8.43321 10.1649C8.09719 10.0682 7.81548 9.85192 7.49202 9.75419C6.83982 9.55715 6.15887 9.31033 5.46805 9.35207C5.2311 9.36639 5.48354 9.85921 5.58466 9.92531C5.84968 10.0986 6.12888 10.2586 6.38425 10.4301C6.85463 10.746 7.37128 10.9223 7.90431 11.0889C8.41042 11.2471 8.86064 11.5699 9.34941 11.7819C9.69586 11.9322 10.0163 12.1345 10.3322 12.3509C10.7123 12.6112 11.1812 12.7399 11.5233 13.0653C11.9875 13.5068 12.7214 13.5581 13.2641 13.8567C13.8426 14.1751 14.6911 14.3075 15.3297 14.4342C16.0914 14.5854 16.8913 14.633 17.6577 14.738C18.5579 14.8613 19.4024 14.9733 20.3105 14.9733C20.7221 14.9733 21.0973 14.9099 21.4932 14.785C22.115 14.5889 22.7705 14.4338 23.3798 14.2032C24.1362 13.917 24.8564 13.5617 25.6162 13.2621C26.5606 12.8896 27.4904 12.3764 28.4564 12.0814C29.1333 11.8747 29.7153 11.575 30.3554 11.2857C30.6239 11.1644 30.9092 11.0861 31.1758 10.9606C31.4688 10.8226 31.6981 10.5887 31.9879 10.4472C32.2963 10.2966 32.545 10.1051 32.8292 9.9082C33.228 9.63189 33.6977 9.49243 34.1077 9.23229C34.8511 8.76063 35.7668 8.36919 36.6022 8.12003C37.389 7.88539 38.1337 7.68976 38.9011 7.427" stroke="white" stroke-width="1.5" stroke-linecap="round"/>
<path d="M11.3907 13.3557C11.125 13.3557 11.1495 13.4913 10.9492 13.6038C10.5406 13.8335 10.1615 14.0754 9.74152 14.2797C9.09287 14.5953 8.42444 14.9596 7.75086 15.2038C7.37859 15.3387 7.03311 15.5435 6.65142 15.6658C6.22879 15.8012 5.67207 15.8158 5.3021 16.085C4.94083 16.3479 4.51587 16.4826 4.11937 16.6839C3.99996 16.7445 3.14907 17.2373 3.14486 17.0946C3.12949 16.5733 3.11062 15.9803 3.23648 15.4775C3.36785 14.9528 3.66204 14.4583 3.80286 13.9375C4.00436 13.1923 4.22248 12.4439 4.49418 11.7215C4.66278 11.2733 4.88631 10.3437 5.31876 10.1216" stroke="white" stroke-width="1.5" stroke-linecap="round"/>
<path d="M2.99492 17.3601C2.99492 17.8198 3.12888 18.2699 3.14485 18.729C3.16744 19.3788 3.17174 19.989 3.07405 20.6413C3.01164 21.058 2.84717 21.4482 2.7742 21.8605C2.74116 22.0472 2.64899 22.0674 2.61595 22.2541C2.5356 22.708 2.52215 23.1443 2.41189 23.5973C2.28557 24.1163 2.25709 24.7757 2.2453 25.3085C2.2295 26.0226 2.2453 26.7325 2.2453 27.4475C2.2453 28.2646 2.47019 29.1064 2.47019 29.9115" stroke="white" stroke-width="1.5" stroke-linecap="round"/>
<path d="M2.39502 23.3665C3.65882 23.3665 4.93056 23.408 6.19309 23.3494C6.98733 23.3125 7.89123 23.3355 8.65018 23.0756C8.96969 22.9662 9.30729 22.9921 9.62468 22.8703C10.0667 22.7006 10.4921 22.602 10.9407 22.4724C12.4195 22.0452 13.9503 21.2104 15.5134 21.2104" stroke="white" stroke-width="1.5" stroke-linecap="round"/>
<path d="M19.8608 19.4392C20.4971 19.4392 21.1903 18.9483 21.7515 18.6863C22.1652 18.4932 22.5845 18.3132 23.0092 18.1473C23.4548 17.9732 23.8266 17.6806 24.2544 17.4671C25.0758 17.0573 25.7616 16.3294 26.6074 15.957C27.6114 15.515 28.5516 14.7806 29.4934 14.2073C30.3191 13.7047 31.1304 13.1273 31.8881 12.5047C32.1593 12.2818 32.4194 12.0575 32.696 11.8373C33.0645 11.544 33.6768 11.2246 33.9537 10.8406C34.3427 10.3011 35.0145 9.9562 35.4821 9.47592C35.7096 9.24221 36.0444 8.84132 36.3525 8.73584" stroke="white" stroke-width="1.5" stroke-linecap="round"/>
<path d="M25.4082 32.1447C25.4082 31.3511 25.8776 30.9201 26.3536 30.3651C26.8969 29.7315 27.5278 29.1487 28.0319 28.4871C28.1788 28.2942 28.3846 28.1391 28.5191 27.9395C28.6425 27.7564 28.6905 27.4909 28.8898 27.3706C29.3001 27.1226 29.5105 26.6076 29.9809 26.4465" stroke="white" stroke-width="1.5" stroke-linecap="round"/>
<path d="M32.98 23.2123C33.9777 22.1335 34.9208 21.127 36.0534 20.1921C37.3755 19.1008 38.5824 17.9112 39.7599 16.6671C40.7992 15.5689 41.9102 14.5315 42.9499 13.433C43.1645 13.2062 43.6072 12.77 43.6995 12.4619C43.8099 12.0935 44.1563 11.8225 44.2992 11.4309" stroke="white" stroke-width="1.5" stroke-linecap="round"/>
<path d="M42.0498 14.3569C42.4843 14.4016 42.692 14.8124 43.1159 14.8788C43.7031 14.9708 44.2777 15.13 44.865 15.2211C45.4808 15.3165 46.0506 15.5824 46.6558 15.7259C47.4551 15.9153 48.3641 16.0682 49.1754 16.1237C49.8644 16.1709 50.5543 16.3844 51.2618 16.4403C51.7339 16.4776 52.2414 16.4669 52.7111 16.5301C53.6396 16.6552 54.5391 16.7286 55.3639 17.2531C55.9011 17.5947 56.433 17.9059 56.9672 18.2413C57.42 18.5255 57.8006 18.8369 58.2707 19.0926C58.5228 19.2297 58.7018 19.4578 58.9579 19.5931C59.1556 19.6975 59.4243 19.7935 59.5951 19.9396C60.2238 20.4778 61.0343 20.5663 61.7815 20.885C62.841 21.3372 64.0172 21.3679 65.1256 21.5995C65.7964 21.7396 66.4946 21.804 67.1704 21.9032C67.5019 21.9518 68.0795 21.9411 68.3615 22.1342" stroke="white" stroke-width="1.5" stroke-linecap="round"/>
<path d="M52.0195 33.2997C52.0475 32.9642 52.3621 32.2892 52.69 32.1275C53.395 31.7799 53.9894 31.2916 54.689 30.9425C55.3535 30.611 56.0494 30.1576 56.5589 29.5993C56.9987 29.1174 57.5287 28.537 57.8291 27.9437C58.2115 27.1882 58.8871 26.607 59.2159 25.8133C59.4919 25.1469 59.8496 24.5501 59.9822 23.8283C60.0817 23.2864 60.2491 22.5985 60.4569 22.0915C60.582 21.7862 60.4902 21.3094 60.4902 20.9792" stroke="white" stroke-width="1.5" stroke-linecap="round"/>
<path d="M68.5112 22.134C68.5112 23.548 67.7819 24.9585 68.0781 26.4034C68.2266 27.1281 68.1329 27.7986 68.7944 28.2001C69.308 28.5119 70.1858 28.7645 70.7934 28.568C71.7359 28.2632 72.6214 27.8743 73.5336 27.5071C74.2859 27.2043 74.8929 26.7009 75.6659 26.4462C77.5 25.8419 79.3536 26.2331 81.2381 26.0227C82.0593 25.931 82.9039 25.8627 83.7285 25.8259C84.4815 25.7922 85.2005 25.5925 85.9398 25.5264C86.5035 25.4761 86.9943 24.9219 87.564 25.1414C87.901 25.2712 88.159 25.6519 88.3386 25.9799C88.5329 26.3346 88.8015 26.6554 89.0091 27.0237C89.2476 27.4468 89.7063 27.8207 89.7962 28.3285C89.8628 28.7045 89.9503 29.0667 89.9503 29.4493" stroke="white" stroke-width="1.5" stroke-linecap="round"/>
<path d="M2.24463 29.8347C2.89215 30.1477 3.77087 30.1411 4.4685 30.2197C5.31221 30.3147 6.15482 30.4414 7.00055 30.5106C8.15059 30.6047 9.30673 30.6365 10.4571 30.7416C11.5328 30.8398 12.6244 30.9832 13.7055 30.9897C15.5562 31.0008 17.4841 30.9906 19.3193 31.2378C20.8636 31.4459 22.4484 31.5959 24.0003 31.6998C26.0116 31.8346 28.0236 31.9425 30.0222 32.2218C32.5108 32.5694 34.9565 32.7404 37.4767 32.7608C42.022 32.7975 46.5742 32.9148 51.1198 32.9148C54.2432 32.9148 57.3666 32.9148 60.4901 32.9148C62.7056 32.9148 64.9211 32.9148 67.1367 32.9148C67.8724 32.9148 68.6082 32.9148 69.3439 32.9148C70.3811 32.9148 71.406 32.7608 72.4382 32.7608C75.9706 32.7608 79.4116 31.9115 82.8954 31.4218C84.4031 31.2098 85.939 30.9117 87.4014 30.4892C87.8939 30.3469 88.4001 30.292 88.8632 30.0614C89.1515 29.9178 89.4114 29.7451 89.7252 29.6807" stroke="white" stroke-width="1.5" stroke-linecap="round"/>
<path d="M2.17009 29.9886C2.02936 30.0248 2.0141 30.4065 1.94104 30.5191C1.78035 30.7667 1.72776 30.9842 1.72032 31.2977C1.70321 32.0181 1.87235 32.907 1.68284 33.6078C1.50658 34.2596 1.41653 34.9284 1.32885 35.5927C1.24903 36.1974 1.04566 36.7306 1.04566 37.3467C1.04566 37.6515 0.935042 38.2408 1.05816 38.5359C1.22596 38.9381 2.00123 39.0628 2.33667 39.2461C3.10701 39.667 4.28829 39.6171 5.16857 39.6867C6.13905 39.7634 7.10988 39.7773 8.07543 39.9049C9.50743 40.094 10.9679 40.384 12.4149 40.384C13.1002 40.384 13.7574 40.4888 14.4347 40.5337C14.9903 40.5705 15.5447 40.5226 16.1005 40.5765C17.5722 40.7191 19.0979 40.615 20.5774 40.615C22.1946 40.615 23.8119 40.615 25.4291 40.615C26.6203 40.615 27.7955 40.6535 28.9815 40.6963C30.1611 40.7388 31.3011 41 32.488 41C35.0033 41 37.5141 40.923 40.0259 40.923C40.7296 40.923 41.3987 40.769 42.0915 40.769C42.8272 40.769 43.563 40.769 44.2987 40.769C45.6791 40.769 47.073 40.8224 48.4508 40.7305C51.4836 40.5282 54.5159 40.3562 57.5461 40.1487C58.2951 40.0974 59.0323 39.918 59.7825 39.8621C60.7557 39.7895 61.7316 39.7268 62.706 39.6567C64.1612 39.5521 65.6098 39.3942 67.0705 39.383C68.4185 39.3726 69.7435 39.537 71.0934 39.537C72.4824 39.537 73.7812 39.2465 75.1497 39.0921C77.5922 38.8164 80.0049 38.0235 82.4044 37.5007C83.5638 37.248 84.7099 36.9835 85.8609 36.6879C86.8132 36.4433 87.7183 36.2984 88.5887 35.8066C89.2404 35.4385 89.7369 34.8245 90.3753 34.442C90.4957 34.3698 90.8273 34.2411 90.8501 34.0698C90.907 33.6408 91 33.2303 91 32.795C91 32.0972 90.9085 31.371 90.7751 30.6859C90.7104 30.3536 90.2883 30.0471 90.1005 29.7576" stroke="white" stroke-width="1.5" stroke-linecap="round"/>
<path d="M86.9517 24.8292C86.6505 24.7948 86.22 24.2162 85.973 24.0591C85.5322 23.7788 85.1281 23.453 84.6278 23.3062C83.6609 23.0224 82.7429 22.7191 81.746 22.5362C80.2843 22.2681 78.8139 21.9991 77.3399 21.7662C76.6575 21.6583 75.997 21.4303 75.3284 21.2485C74.6984 21.0772 74.0589 21.0369 73.4585 20.7651C72.9866 20.5515 72.4117 20.5234 71.9176 20.3673C71.3565 20.1899 70.8397 19.9688 70.2934 19.747C69.7058 19.5083 69.1399 19.146 68.5693 18.8657C68.1074 18.6388 68.2775 18.9225 68.2861 19.3106C68.2959 19.7531 68.436 20.2368 68.436 20.671C68.436 21.078 68.5055 21.7191 68.2861 22.0571" stroke="white" stroke-width="1.5" stroke-linecap="round"/>
<path d="M67.6871 18.8232C67.2104 18.7824 66.8552 18.5561 66.446 18.3312C65.5669 17.8482 64.608 17.4942 63.7141 17.035C62.3069 16.3123 60.8587 15.633 59.3788 15.0629C58.1917 14.6056 56.9998 14.1532 55.8097 13.7111C54.6264 13.2714 53.5569 12.638 52.4365 12.047C52.0182 11.8263 51.6644 11.5122 51.2371 11.3155C51.0176 11.2144 50.8429 11.0607 50.6457 10.9219C50.3205 10.693 49.9447 10.5599 49.6212 10.3358C48.8649 9.81186 48.1879 9.24535 47.3682 8.80431C46.1333 8.13985 44.8013 7.74689 43.4827 7.27281C42.4341 6.89583 41.3614 6.53985 40.251 6.42578" stroke="white" stroke-width="1.5" stroke-linecap="round"/>
<path d="M39.3516 8.88976C39.61 8.74044 39.5957 8.30772 39.8388 8.19674C40.0092 8.11895 40.2531 7.87074 40.3094 7.69195C40.4013 7.4001 40.6424 7.10173 40.8508 6.8877" stroke="white" stroke-width="1.5" stroke-linecap="round"/>
<path d="M41.7499 10.7379C41.7499 10.0202 41.9361 9.24601 41.7874 8.54329C41.6947 8.10538 41.3018 7.34488 41.9623 7.27703C42.8721 7.18357 42.5745 9.41143 42.5745 9.96784" stroke="white" stroke-width="1.5" stroke-linecap="round"/>
<path d="M44.2992 7.65796C44.1024 7.70849 44.2809 8.52724 44.2992 8.62477C44.4078 9.20345 44.3852 9.7898 44.4824 10.3744C44.5611 10.8478 44.6954 11.2791 44.7656 11.7391C44.8071 12.011 44.8206 12.2833 45.0113 12.4792C45.591 13.0747 45.5751 11.463 45.6318 11.106C45.8125 9.96956 45.6601 8.90784 45.0488 7.96597" stroke="white" stroke-width="1.5" stroke-linecap="round"/>
<path d="M46.8474 10.3529C46.8596 10.2776 47.0413 9.79897 47.1056 9.91229C47.1871 10.0558 47.1002 10.2275 47.2222 10.3529C47.4046 10.5403 47.5221 11.0408 47.5221 10.524C47.5221 10.2616 47.633 9.7516 47.2972 9.67701C46.7909 9.56455 46.7725 9.90713 46.7725 10.2759" stroke="white" stroke-width="1.5" stroke-linecap="round"/>
<path d="M48.3472 9.73672C48.4243 10.133 48.8113 10.6716 49.0052 11.0115C49.3092 11.5447 49.3072 11.8959 49.4799 12.466C49.6179 12.9216 49.9435 13.1934 50.1463 13.5869C50.2213 13.7325 50.3327 13.9129 50.4877 13.9804C50.6417 14.0475 50.596 13.5897 50.596 13.5099C50.596 12.6179 50.2795 11.8858 50.0546 11.0458C49.9537 10.6689 49.8171 10.1076 49.5132 9.85223C49.3163 9.68674 49.165 9.57811 48.9469 9.42871" stroke="white" stroke-width="1.5" stroke-linecap="round"/>
<path d="M52.0947 11.2769C52.6162 11.4067 53.2083 11.7935 53.444 12.2779" stroke="white" stroke-width="1.5" stroke-linecap="round"/>
<path d="M55.9928 16.128C55.9695 16.0323 55.8213 15.9951 55.7679 15.897C55.6475 15.6756 55.618 15.4685 55.618 15.2168C55.618 15.0818 55.5925 14.4799 55.7346 14.4382C56.548 14.1995 55.9928 15.3129 55.9928 15.743" stroke="white" stroke-width="1.5" stroke-linecap="round"/>
<path d="M57.3418 14.8188C57.7241 14.8188 58.0333 15.0807 58.3913 15.203" stroke="white" stroke-width="1.5" stroke-linecap="round"/>
<path d="M59.5161 15.5891C59.5607 16.1389 59.7394 16.6396 60.0408 17.0949C60.1961 17.3295 60.3697 17.3396 60.5906 17.4757C60.8265 17.6211 60.9006 17.8477 61.1986 17.9334C61.7787 18.1003 61.5036 17.3239 61.3568 16.9794C61.2616 16.7558 61.0807 16.694 60.9154 16.5303C60.7578 16.3741 60.6347 16.1468 60.4906 15.9741" stroke="white" stroke-width="1.5" stroke-linecap="round"/>
<path d="M65.2881 18.2839C65.2965 18.5789 66.1515 20.0597 66.5125 19.4219C66.6838 19.1192 66.3647 18.5919 66.0377 18.5919" stroke="white" stroke-width="1.5" stroke-linecap="round"/>
<path d="M7.64252 15.3579C7.86891 15.5768 8.18555 15.6387 8.4671 15.76C9.13998 16.0499 9.84138 16.4445 10.566 16.5728C11.7982 16.7911 12.9428 17.2136 14.1226 17.6252C15.5372 18.1187 16.9473 18.6042 18.3621 19.0968C18.8189 19.2559 19.2635 19.4724 19.7281 19.6529C20.2804 19.8677 20.8377 19.9751 21.3772 20.2091C22.9432 20.8883 24.6372 21.1278 26.2248 21.7149C26.9542 21.9847 27.7161 22.133 28.432 22.4422C29.2431 22.7925 30.1772 23.0732 31.0473 23.2293C32.2447 23.444 33.4544 23.5481 34.6455 23.7683C36.1968 24.0551 37.8009 24.2908 39.3806 24.3629C40.9731 24.4356 42.5383 24.6949 43.8241 23.5501C44.8531 22.6341 45.3484 21.179 45.3484 19.807C45.3484 19.4118 45.3597 19.0365 45.2901 18.6519C45.2808 18.6009 45.2118 17.8568 45.2151 17.8562C45.7689 17.7528 46.1641 18.6061 46.6061 18.8059C46.8646 18.9228 47.1542 19.3144 47.3723 19.5161C47.5476 19.6781 47.7959 19.7116 47.9887 19.8583C48.2517 20.0584 48.4281 20.4095 48.7217 20.577C48.8635 20.6579 48.8854 20.7537 48.9632 20.9021C49.0711 21.1079 49.3313 21.271 49.3963 21.4882C49.49 21.8008 49.6887 22.0739 49.8169 22.378C49.9293 22.6443 50.071 22.8373 50.071 23.1352C50.071 23.2937 50.0426 23.4827 50.1085 23.6314C50.2146 23.8713 50.188 24.1924 50.2584 24.4528C50.3881 24.9325 50.4458 25.4765 50.4458 25.9714C50.4458 26.7506 50.1622 26.9698 49.6212 27.4858C49.0926 27.9901 48.4109 28.6326 47.693 28.7992C46.6204 29.0479 45.5533 29.3724 44.453 29.3724C42.8243 29.3724 41.3395 28.9855 39.7679 28.5981C39.4936 28.5305 39.282 28.3788 38.9891 28.3329C38.5314 28.2611 38.0782 28.1922 37.6231 28.1061C36.9715 27.9828 36.3469 27.7625 35.6949 27.6398C34.0002 27.3211 32.5037 26.5971 30.8807 26.0613C29.6794 25.6646 28.3878 25.5983 27.1909 25.1372C26.6347 24.923 26.0271 24.9172 25.4668 24.7351C24.6054 24.4551 23.7372 24.1856 22.8848 23.8795C21.5588 23.4034 20.1801 23.2066 18.8868 22.5962C18.3268 22.3318 17.7931 22.0323 17.246 21.7235C16.6663 21.3962 16.1408 21.1086 15.5385 20.8208C14.2628 20.2113 12.8364 19.9029 11.5197 19.4005C10.6651 19.0745 9.76473 18.7757 8.94186 18.4038C8.41131 18.164 7.81565 18.1059 7.27604 17.8947C6.7984 17.7078 6.33506 17.4864 5.84343 17.3258C5.57746 17.2388 5.37471 17.1865 5.16878 16.975C5.01471 16.8167 4.74153 16.7902 4.64404 16.59" stroke="white" stroke-width="1.5" stroke-linecap="round"/>
</svg>
