<svg width="92" height="43" viewBox="0 0 92 43" fill="none" xmlns="http://www.w3.org/2000/svg">
<path d="M7.35934 5.29565C6.43193 5.29565 6.10172 6.99933 5.7694 7.61093C5.5161 8.07709 5.44081 8.62946 5.19124 9.08876C4.91714 9.59321 4.88351 10.1674 4.61309 10.6651C4.1286 11.5567 3.74074 12.5365 3.33364 13.473C3.24248 13.6827 3.14055 14.0619 3.00174 14.2393C2.84874 14.4348 2.90848 14.7772 2.75548 14.9727C2.48943 15.3128 2.73735 16.3285 2.34863 16.5272" stroke="white" stroke-width="2" stroke-linecap="round"/>
<path d="M2.05996 16.8226C2.05996 18.3603 1 19.7261 1 21.3054C1 22.0618 1.28908 22.648 1.28908 23.4236C1.28908 23.8646 1.36295 24.2905 1.38544 24.7044C1.40663 25.0944 1.5577 25.4115 1.57816 25.7881C1.61427 26.4528 2.0737 27.2124 2.39722 27.8078C2.53208 28.056 2.85109 28.3483 2.92184 28.6015C3.02778 28.9806 3.44346 28.8594 3.7409 28.9463C5.19285 29.3705 6.83467 29.4768 8.34475 29.532C9.24774 29.5649 10.2045 29.724 11.0696 29.9206C11.508 30.0202 11.9818 29.9308 12.4186 30.0301C12.8726 30.1332 13.2332 30.2216 13.7195 30.2216C15.8583 30.2216 17.9748 30.7142 20.1006 30.7142C21.3258 30.7142 22.5495 30.8128 23.7891 30.8128C24.4642 30.8128 25.303 30.8733 25.9572 31.0591C26.5737 31.2342 27.2129 31.0974 27.8308 31.2123C29.9253 31.6017 32.1361 31.423 34.1959 31.891C34.6082 31.9847 35.0682 31.8936 35.4754 32.0169C36.0569 32.1931 36.8167 32.2733 37.424 32.2906C38.0958 32.3097 38.7907 32.218 39.4475 32.3672C39.825 32.453 40.2046 32.3513 40.5824 32.4657C40.8005 32.5318 41.1713 32.578 41.3961 32.5862C42.1301 32.613 42.8473 32.7832 43.591 32.7832C43.9702 32.7832 44.4775 32.827 44.8437 32.931C45.2083 33.0345 45.5996 32.9076 45.9572 33.0295C46.4525 33.1983 47.313 33.2758 47.8362 33.2758C48.4899 33.2758 49.1632 33.3662 49.8062 33.4674C50.4688 33.5716 51.2076 33.5518 51.8779 33.5714C52.4225 33.5873 52.9758 33.6699 53.5375 33.6699C54.4074 33.6699 55.2619 33.8669 56.1178 33.8669C57.0731 33.8669 58.0367 33.9655 59.0086 33.9655C60.1029 33.9655 61.1887 33.8669 62.2634 33.8669C63.0623 33.8669 63.8286 33.5714 64.6456 33.5714C65.5551 33.5714 66.5568 33.6681 67.44 33.4674C69.0937 33.0917 70.8368 32.8776 72.4989 32.7832C73.2009 32.7433 74.1631 32.8375 74.8597 32.6792C75.3005 32.5791 75.7415 32.4876 76.2034 32.4876C76.4054 32.4876 77.198 32.3934 77.3169 32.2413C77.4383 32.0863 78.2098 32.1494 78.4197 32.0881C78.6142 32.0313 79.2077 32.0169 79.3405 31.8472C79.3821 31.7941 79.7064 31.7263 79.7794 31.7049C80.0472 31.6267 80.1076 31.6275 80.2559 31.3546C80.4619 30.9755 80.1711 30.7417 80.015 30.4625C79.8666 30.1969 79.8223 29.6384 79.8223 29.3349C79.8223 28.937 79.7471 28.6407 79.7259 28.2512C79.7066 27.8963 79.3783 27.5666 79.2227 27.266C79.0649 26.9612 78.8748 26.5642 78.6445 26.3026C78.3932 26.0171 78.293 25.9375 77.9433 25.7389C77.5843 25.535 77.1646 25.6944 76.7923 25.5856C76.3792 25.4649 75.8845 25.4025 75.4379 25.301C75.0162 25.2052 74.4246 25.0985 73.9979 25.0985C73.1427 25.0985 72.0281 24.5452 71.2463 24.1899C70.332 23.7744 69.3633 23.6404 68.4304 23.347C67.5384 23.0663 66.6166 22.7494 65.7056 22.5424C64.7566 22.3268 63.8766 21.875 62.9111 21.6557C61.0777 21.2391 59.3752 20.2857 57.5632 19.7564C56.6505 19.4898 55.6901 19.1471 54.8223 18.7438C54.4367 18.5646 53.9528 18.3242 53.5642 18.2019C53.222 18.0942 52.4851 17.8449 52.2634 17.5615C52.0347 17.2693 51.25 17.1162 50.9358 16.9211C50.434 16.6097 49.8823 16.4154 49.3726 16.1549C48.4488 15.6826 47.5708 15.2966 46.5996 14.9288C44.637 14.1856 42.7204 13.2096 40.7002 12.6628C39.7867 12.4156 38.9234 12.1241 38.0021 11.9896C37.4937 11.9153 36.9099 11.818 36.4176 11.6502C36.0559 11.527 35.5495 11.3054 35.1595 11.3054C34.9404 11.3054 34.46 11.1298 34.2441 11.0317C33.7208 10.7939 33.7521 11.0968 33.4946 11.4258C33.1646 11.8476 32.5669 12.5389 32.1242 12.8051C31.6243 13.1057 31.0458 13.6442 30.6788 14.1133C30.2981 14.5998 29.3194 15.3964 28.7034 15.5364C26.8732 15.9522 25.0518 16.8226 23.1146 16.8226C19.2791 16.8226 15.5372 15.6354 12.515 13.232C11.7051 12.588 10.9652 11.9375 10.2505 11.2069C9.66166 10.6048 9.4337 9.78871 8.88009 9.15978C8.67689 8.92894 8.52345 8.44059 8.39829 8.15266C8.29099 7.90583 8.25167 7.37141 8.10921 7.18934C7.91744 6.94425 7.84154 6.49392 7.84154 6.18222C7.84154 5.83758 7.59254 5.67304 7.4561 5.39404" stroke="white" stroke-width="2" stroke-linecap="round"/>
<path d="M2.34893 28.9409C2.34893 29.6572 2.1826 30.4895 2.71296 31.0318C2.93164 31.2554 3.35147 31.2431 3.64979 31.3109C4.07716 31.408 4.48131 31.5984 4.90247 31.6941C6.58616 32.0766 8.40361 32.3892 10.1594 32.3892C11.1833 32.3892 12.2162 32.7283 13.2376 32.7833C14.1963 32.8349 15.1158 32.8818 16.0855 32.8818C17.7721 32.8818 19.4098 33.1774 21.0909 33.1774C23.1592 33.1774 25.1699 33.2074 27.2044 33.4675C28.3208 33.6101 29.4638 33.9054 30.5823 33.9655C30.9802 33.987 31.3076 34.0641 31.6905 34.0641C32.0099 34.0641 32.6607 34.0514 32.9431 34.2119C33.2123 34.3647 33.7456 34.2611 34.0513 34.2611C34.4454 34.2611 34.8018 34.3596 35.2076 34.3596C35.952 34.3596 36.6703 34.4582 37.3757 34.4582C38.1836 34.4582 38.956 34.6552 39.7365 34.6552C40.5277 34.6552 41.3207 35.0493 42.0973 35.0493C42.8952 35.0493 43.7417 35.3449 44.5545 35.3449C45.4428 35.3449 46.2914 35.7389 47.1776 35.7389C48.0019 35.7389 48.7812 36.0345 49.6134 36.0345C50.3064 36.0345 51.0443 36.133 51.7815 36.133C53.4533 36.133 55.2024 36.3379 56.8885 36.4286C58.4809 36.5143 59.9494 36.133 61.5138 36.133C63.1218 36.133 64.797 35.6404 66.4282 35.6404C67.2171 35.6404 68.0157 35.3449 68.7943 35.3449C69.2446 35.3449 69.6849 35.26 70.1112 35.1259C70.4913 35.0064 70.9942 35.0871 71.3425 34.9289C71.715 34.7596 72.3325 34.6552 72.7397 34.6552C73.1696 34.6552 73.5831 34.4582 73.9924 34.4582C74.3825 34.4582 74.7206 34.3596 75.1005 34.3596C75.4055 34.3596 76.0677 34.3142 76.3532 34.1845C76.6247 34.0611 77.2085 34.1135 77.5095 34.0695C77.8881 34.0142 78.3423 34.1656 78.7087 34.0586C79.3585 33.8688 80.065 33.8907 80.6894 33.5715" stroke="white" stroke-width="2" stroke-linecap="round"/>
<path d="M2.5415 31.6011C2.5415 32.229 2.34878 32.8869 2.34878 33.5715C2.34878 34.035 2.15055 35.2147 2.42373 35.5639C2.55159 35.7273 2.44514 36.3646 2.44514 36.5765C2.44514 36.7987 2.79764 37.107 2.90553 37.3154C3.15435 37.7959 3.81507 38.113 4.27598 38.3225C4.95146 38.6294 5.73391 38.8338 6.47084 38.8917C7.19096 38.9484 7.8877 39.2422 8.61217 39.2858C9.2456 39.3239 9.97981 39.6799 10.6357 39.6799C11.4492 39.6799 12.2594 39.7784 13.0875 39.7784C14.6045 39.7784 15.9786 39.7999 17.4237 40.0685C18.7778 40.3202 20.1797 40.271 21.5726 40.271C22.9203 40.271 24.3371 40.1725 25.716 40.1725C26.5989 40.1725 27.5203 40.3696 28.4194 40.3696C29.3581 40.3696 30.2967 40.3696 31.2353 40.3696C34.4202 40.3696 37.6152 40.7636 40.7963 40.7636C42.1804 40.7636 43.5843 40.8622 44.9398 40.8622C46.3883 40.8622 47.8008 41.0592 49.2278 41.0592C52.1712 41.0592 55.0551 41.1577 57.9965 41.1577C58.7665 41.1577 59.5175 40.9607 60.3145 40.9607C60.9943 40.9607 61.724 40.7636 62.4291 40.7636C63.1535 40.7636 63.8926 40.5666 64.5972 40.5666C65.323 40.5666 65.9986 40.5089 66.7171 40.4681C67.5192 40.4225 68.3018 40.1725 69.1261 40.1725C69.9919 40.1725 70.8591 39.8252 71.7278 39.7784C72.0709 39.76 72.4795 39.5536 72.8306 39.4883C73.1888 39.4217 73.6864 39.3843 74.0404 39.3843C74.2559 39.3843 74.8626 39.3442 75.0522 39.2366C75.343 39.0714 75.7692 39.2008 76.064 39.0669C76.7449 38.7575 77.6008 38.9268 78.2803 38.618C78.5697 38.4865 79.2041 38.3474 79.5276 38.3061C79.7823 38.2735 80.335 38.1953 80.5179 38.0269C80.7851 37.7811 81.3817 37.8416 81.701 37.6602C81.95 37.5188 82.523 37.3316 82.8092 37.3154C83.1775 37.2944 83.5563 37.0963 83.9173 37.0143C84.1262 36.9669 84.3226 36.8454 84.5436 36.8228C84.7968 36.7969 85.227 36.7804 85.4537 36.675C86.6986 36.0964 88.1005 35.9519 89.3081 35.2464C90.5553 34.5177 90.9997 33.2302 90.9997 31.8474C90.9997 31.5898 90.7602 31.0249 90.5929 30.8348C90.4059 30.6223 90.5104 30.2276 90.3734 29.9755C90.2384 29.7271 90.2444 29.2262 90.2289 28.941C90.2106 28.6041 89.9969 28.1647 89.9344 27.8135C89.8266 27.2068 89.2979 26.8004 89.1743 26.2316C89.0464 25.6433 88.7784 24.8458 88.4194 24.3871C88.092 23.9685 87.8567 23.6115 87.413 23.2486C86.9327 22.8557 86.3035 22.735 85.7963 22.4604C85.3654 22.2272 84.5572 21.9757 84.0618 21.9459C83.8079 21.9306 83.4991 21.6503 83.2428 21.6503C82.9917 21.6503 82.4986 21.5342 82.306 21.3767C82.136 21.2377 81.5457 21.3164 81.3209 21.2508C81.0239 21.164 80.5896 21.1672 80.3038 21.0373C79.7153 20.7699 78.835 20.8622 78.1839 20.8622C77.4527 20.8622 76.6518 20.4979 75.8927 20.4681C75.5097 20.453 75.1216 20.3696 74.7578 20.3696C74.5419 20.3696 73.739 20.206 73.7513 20.2218C73.8893 20.3981 74.229 20.5076 74.4045 20.687C74.6035 20.8905 74.7454 21.0981 74.9077 21.3055C75.083 21.5296 75.2747 21.7738 75.4644 21.9678C75.662 22.1698 76.0239 22.4351 76.1603 22.6794C76.2765 22.8873 76.5307 23.1335 76.6636 23.3033C76.7983 23.4755 77.1021 23.9208 77.2631 24.0149C77.4985 24.1524 77.6877 24.6031 77.8948 24.8031C78.171 25.0698 78.5051 25.3696 78.6657 25.739C78.9367 26.3625 79.3563 26.8844 79.6293 27.5124C79.929 28.2018 79.9994 29.031 80.352 29.6799C80.5039 29.9594 80.4789 30.4887 80.4965 30.8129C80.5147 31.1478 80.5929 31.4875 80.5929 31.8474C80.5929 32.4662 80.882 33.1289 80.882 33.7686" stroke="white" stroke-width="2" stroke-linecap="round"/>
<path d="M80.9785 34.2615C80.9785 34.7789 81.0084 34.9813 81.5567 34.7322C82.0209 34.5212 82.4759 34.474 82.9539 34.3655C83.3642 34.2722 83.8334 34.1869 84.2547 34.1629C84.6849 34.1385 85.1014 33.7688 85.5074 33.7688C85.9426 33.7688 86.3787 33.3748 86.8083 33.3748C87.2326 33.3748 87.6069 33.0295 88.0128 32.9807C88.281 32.9484 88.8649 32.5842 89.1209 32.4388C89.4844 32.2323 89.7952 32.0285 90.1327 31.7984" stroke="white" stroke-width="2" stroke-linecap="round"/>
<path d="M32.7988 11.6011C32.7873 11.5072 32.3991 11.2151 32.2956 11.1303C32.0621 10.9394 31.9518 10.8698 31.787 10.5666C31.5369 10.1063 31.194 9.67593 31.059 9.19274C30.923 8.70606 30.6892 7.9893 30.9465 7.46313C31.1639 7.01869 31.6858 6.37472 31.7388 5.88678C31.8345 5.00647 33.029 3.96694 33.5697 3.27594C33.9456 2.79549 34.98 1.15771 35.6414 1.15771C36.2921 1.15771 36.472 1.21327 36.9208 1.67222C37.3123 2.07244 37.7175 2.35523 38.1949 2.61365C39.2548 3.18732 40.4132 3.6876 41.423 4.26116C42.3568 4.7916 43.2115 5.27673 44.1692 5.76636C44.41 5.88942 44.868 6.01623 45.0365 6.23161C45.0732 6.2785 45.6381 6.56767 45.711 6.57643C46.1419 6.62827 47.0504 7.24518 47.3705 7.53976C47.6953 7.83859 48.3331 8.23615 48.741 8.35531C49.2132 8.49327 49.6214 8.93728 50.0954 9.04496C50.6473 9.17036 51.2711 9.58856 51.7817 9.84956C52.2559 10.092 52.8396 10.3163 53.2485 10.6925C53.6487 11.0607 54.325 11.5745 54.817 11.7981C55.3597 12.0447 56.0631 12.4621 56.4979 12.8326C57.1309 13.3719 57.9583 13.6278 58.6714 14.0203C59.3059 14.3696 60.0294 14.7999 60.7003 15.0493C61.8495 15.4766 62.8843 16.1318 64.0193 16.6476C64.5187 16.8745 65.0471 17.0015 65.5129 17.2661C65.9879 17.5359 66.5462 17.9479 67.06 18.0981C67.4511 18.2123 68.1701 18.5233 68.4733 18.7713C68.5918 18.8682 69.1183 19.0371 69.2763 19.0833C69.5241 19.1557 69.7544 19.199 69.9936 19.3077C70.2658 19.4313 70.6175 19.5096 70.9091 19.5759C71.1933 19.6405 71.5446 19.861 71.8245 19.8769C72.4122 19.9103 72.9486 20.271 73.559 20.271" stroke="white" stroke-width="2" stroke-linecap="round"/>
<path d="M34.1475 10.5171C34.2247 9.88572 35.1658 9.35319 35.5929 8.94078C36.1468 8.40584 37.055 8.13406 37.7128 7.83514C39.4986 7.02364 41.1609 7.75946 42.8627 8.25659C43.6174 8.47706 44.3092 8.95623 45.0843 9.13235C45.8333 9.30253 46.6234 9.59063 47.3006 9.97526C48.099 10.4288 49.0674 10.6303 49.9023 11.0097C50.7409 11.3908 51.6338 11.9222 52.4558 12.3672C53.2474 12.7956 54.0554 13.2726 54.8434 13.7684C55.6177 14.2556 56.6938 14.358 57.3916 14.9287C58.2305 15.615 59.6483 15.5979 60.4537 16.3299C60.7755 16.6224 61.4484 16.7417 61.8509 16.9703C62.2499 17.197 62.7262 17.3384 63.1517 17.556C64.2249 18.1046 65.4214 18.4384 66.5725 18.6999C67.4943 18.9094 68.1986 19.3841 69.1742 19.3841C70.0432 19.3841 70.7489 19.8767 71.5832 19.8767C71.7821 19.8767 72.5246 20.0753 72.6699 20.1942C72.9096 20.3902 73.532 20.5035 73.8477 20.6649" stroke="white" stroke-width="2" stroke-linecap="round"/>
<path d="M7.64893 5.29548C7.72354 4.68517 10.1404 5.6207 10.4219 5.90851C10.763 6.25726 10.9825 6.61038 11.2142 7.02509C11.4812 7.50284 11.8064 8.30204 12.226 8.64524C12.4511 8.82933 12.5078 9.19818 12.756 9.35678C12.9539 9.48326 13.2233 9.67842 13.4091 9.84939C13.7935 10.2031 14.3119 10.4392 14.7795 10.6923C15.823 11.2571 16.9561 11.6302 18.104 11.891C18.6612 12.0176 19.3199 12.2584 19.8866 12.2906C20.0787 12.3015 20.5392 12.4423 20.7057 12.5369C20.9042 12.6497 21.3803 12.5493 21.5247 12.7339C21.5863 12.8126 22.1817 12.8817 22.2956 12.8817C22.5796 12.8817 22.8591 12.9802 23.1628 12.9802C23.7731 12.9802 24.3834 12.9802 24.9937 12.9802C25.609 12.9802 26.1626 13.0787 26.7763 13.0787C27.3524 13.0787 27.9756 12.9802 28.5108 12.9802C29.0863 12.9802 29.7761 12.8431 30.2935 12.608C30.6653 12.439 31.7465 12.275 31.9316 11.8965" stroke="white" stroke-width="2" stroke-linecap="round"/>
<path d="M32.771 31.5183C32.8813 31.5042 33.2286 30.8681 33.3973 30.7301C33.6427 30.5294 33.997 30.221 34.1414 29.9419C34.487 29.2745 35.2456 28.7227 35.7046 28.1193C36.2109 27.4537 36.6649 26.7191 37.2035 26.0996C37.6791 25.5525 37.8424 24.5918 38.408 24.1291C38.7226 23.8718 38.9181 23.2814 39.2271 22.9469C39.5406 22.6075 39.7193 22.1481 40.0462 21.8139C40.3371 21.5164 40.5452 21.1613 40.8438 20.856C41.1301 20.5633 41.453 20.2481 41.6575 19.8927C41.8241 19.603 42.144 19.1873 42.3641 18.9622C42.5621 18.7598 42.9947 18.1588 43.0761 17.8675C43.1689 17.5355 43.6152 16.9967 43.8524 16.74C44.2509 16.3085 44.5027 15.7795 44.9123 15.3607" stroke="white" stroke-width="2" stroke-linecap="round"/>
<path d="M35.3115 31.2805C35.3115 30.5792 36.1374 29.8887 36.5856 29.4305C37.1318 28.872 37.8854 28.2177 38.2773 27.5366C39.0216 26.2429 39.9651 25.1199 40.6863 23.7928C40.8937 23.411 41.1848 22.9286 41.4785 22.6105C41.7624 22.3032 41.8645 21.8392 42.1531 21.5268C42.6756 20.9611 42.9228 20.1513 43.4272 19.5782C43.9103 19.0293 44.4292 18.323 44.7762 17.6844C45.1278 17.0374 45.9754 16.502 46.2002 15.8125" stroke="white" stroke-width="2" stroke-linecap="round"/>
<path d="M42.5996 32.4965C42.6323 32.1961 43.0141 31.7454 43.1778 31.4894C43.377 31.1779 43.5944 30.844 43.7773 30.5261C44.1332 29.9075 44.9125 29.4665 45.2013 28.802C45.8293 27.3573 47.1799 26.2946 47.803 24.8611C47.965 24.4884 48.4004 24.1792 48.6221 23.8266C48.8272 23.5004 49.1969 23.1324 49.3448 22.7921C49.6244 22.1489 50.0917 21.585 50.4262 20.9694C50.7407 20.3906 51.2467 19.9117 51.5611 19.3493C51.7184 19.0679 52.2653 18.2449 52.5247 18.1123" stroke="white" stroke-width="2" stroke-linecap="round"/>
<path d="M45.0488 32.3191C45.0946 31.8506 45.6677 31.4129 45.8411 30.9617C46.0096 30.523 46.5102 30.2471 46.6655 29.8341C46.9363 29.1143 47.7343 28.5787 48.1109 27.8856C48.4079 27.339 48.9141 26.9591 49.2137 26.4077C49.5509 25.7872 50.2174 25.2744 50.4664 24.6124C50.9395 23.3548 52.0123 22.341 52.6398 21.1861C52.8851 20.7347 53.1916 20.3533 53.4107 19.9053C53.5512 19.618 53.9271 18.9626 54.203 18.8215" stroke="white" stroke-width="2" stroke-linecap="round"/>
<path d="M52.3916 33.5212C52.4182 33.2768 52.5843 33.0043 52.5843 32.7823C52.5843 32.4228 53.001 32.3154 53.1411 32.0434C53.3195 31.6967 53.5485 31.5007 53.7888 31.2004C53.9231 31.0326 54.2964 30.5742 54.3188 30.3685C54.3696 29.9012 55.0296 29.2541 55.3038 28.8906C55.7836 28.2547 56.2557 27.6475 56.6743 26.9749C57.7768 25.2035 59.3731 23.7768 60.2931 21.8956" stroke="white" stroke-width="2" stroke-linecap="round"/>
<path d="M55.145 33.4453C55.145 32.8327 55.4494 32.184 55.7714 31.6719C56.0432 31.2395 56.2518 30.658 56.5904 30.2926C57.0282 29.8201 57.3061 29.1354 57.7039 28.6177C58.1437 28.0453 58.4239 27.5525 58.7103 26.8936C58.866 26.5355 59.2222 25.9415 59.4812 25.662C59.8708 25.2416 60.006 24.6329 60.3966 24.2335C60.7313 23.8912 60.9577 23.5216 61.1407 23.1005C61.3086 22.7144 61.6252 22.4601 61.7938 22.1152" stroke="white" stroke-width="2" stroke-linecap="round"/>
<path d="M1.86719 18.8916C2.17709 18.8564 2.32266 18.2399 2.63807 18.202C2.98368 18.1604 3.38448 17.7492 3.69802 17.5889C4.43561 17.2119 5.14239 16.7241 6.01066 16.7241C6.44383 16.7241 6.81114 17.0197 7.26333 17.0197C7.54772 17.0197 7.97928 17.3016 8.22693 17.4357C8.64051 17.6595 9.06653 17.8938 9.47961 18.0815C9.70009 18.1817 9.93091 18.263 10.1541 18.3771C10.386 18.4957 10.5539 18.7619 10.8286 18.7931C11.1379 18.8282 11.78 19.1772 12.0064 19.3623C12.2194 19.5366 12.9669 19.762 13.2376 19.7783C13.618 19.8012 13.9806 20.0739 14.394 20.0739C14.8296 20.0739 15.2783 20.1988 15.743 20.1724C16.0537 20.1547 16.8382 19.8718 17.0706 19.6579C17.2078 19.5317 17.4068 19.5112 17.5524 19.3623C17.6737 19.2383 17.8168 19.0045 17.9593 18.9135C18.3667 18.6531 19.2119 17.6039 19.2119 17.1182" stroke="white" stroke-width="2" stroke-linecap="round"/>
<path d="M39.1582 9.82763C39.1582 8.60905 40.7962 7.83755 41.6154 7.16753C41.9838 6.86615 44.8246 5.35564 45.1325 5.98527" stroke="white" stroke-width="2" stroke-linecap="round"/>
<path d="M44.7471 11.0098C44.7471 10.6485 44.7471 10.2873 44.7471 9.92605C44.7471 9.63827 44.9208 9.37064 44.9399 9.03935C44.9759 8.41362 45.2291 7.72719 45.2291 7.06891" stroke="white" stroke-width="2" stroke-linecap="round"/>
<path d="M47.0596 9.8278C47.1437 9.81704 47.4483 9.4303 47.5414 9.33519C47.6838 9.18951 47.8789 8.99028 48.066 8.93562C48.448 8.82402 48.7476 8.44849 49.1795 8.44849" stroke="white" stroke-width="2" stroke-linecap="round"/>
<path d="M50.2402 13.6698C50.1957 13.2609 49.8545 12.8697 49.8545 12.4383C49.8545 12.0862 49.8545 11.734 49.8545 11.3819C49.8545 10.9747 50.3832 9.7035 49.8545 9.43335" stroke="white" stroke-width="2" stroke-linecap="round"/>
<path d="M52.3594 11.9952C52.7489 11.9952 52.9204 11.6011 53.323 11.6011" stroke="white" stroke-width="2" stroke-linecap="round"/>
<path d="M55.347 15.739C55.347 15.4538 55.3371 14.9522 55.2025 14.7045C55.1015 14.5187 54.9616 14.0759 54.9616 13.8671C54.9616 13.4144 54.7725 12.8893 54.5762 12.4878" stroke="white" stroke-width="2" stroke-linecap="round"/>
<path d="M56.9854 14.4584C56.9854 14.1519 57.1021 14.0265 57.3708 13.8892C57.5543 13.7954 57.9718 13.8205 58.0453 13.6702" stroke="white" stroke-width="2" stroke-linecap="round"/>
<path d="M60.4538 17.9061C60.3802 17.0778 59.92 16.3578 59.8757 15.5416C59.8476 15.025 59.4733 14.481 59.2012 14.0637" stroke="white" stroke-width="2" stroke-linecap="round"/>
<path d="M62.1885 16.5274C62.2133 16.3245 62.5217 16.3304 62.6706 16.3304" stroke="white" stroke-width="2" stroke-linecap="round"/>
<path d="M65.2716 19.8768C65.2331 19.17 64.728 18.5785 64.6934 17.9064C64.6721 17.4931 64.478 16.9096 64.1152 16.7241" stroke="white" stroke-width="2" stroke-linecap="round"/>
<path d="M67.7773 18.7931C67.8098 18.5278 68.3013 18.6432 68.4522 18.6946" stroke="white" stroke-width="2" stroke-linecap="round"/>
<path d="M71.0536 21.3547C71.0253 21.0365 70.9408 20.7198 70.8609 20.4132C70.7883 20.1348 70.5364 19.8861 70.4808 19.6305C70.4138 19.3224 70.2665 18.8806 69.9937 18.6946" stroke="white" stroke-width="2" stroke-linecap="round"/>
</svg>
