<svg width="467" height="29" viewBox="0 0 467 29" fill="none" xmlns="http://www.w3.org/2000/svg">
<path d="M56.0145 7.35009C72.7564 8.23125 89.3825 10.4326 106.178 11.0913C172.87 13.7066 239.539 9.94519 306.147 6.92855C357.96 4.58193 409.77 2.60775 461.643 2.60775C472.754 2.60775 461.57 2.60775 458.955 2.60775C439.965 2.60775 420.983 2.37028 401.995 2.13351C336.151 1.31252 270.737 4.38944 205.029 8.29856C170.072 10.3782 135.104 12.6461 100.066 12.4086C73.7995 12.2305 47.5792 10.7346 21.3427 9.66857C15.3039 9.4232 -2.82732 9.24703 3.2164 9.24703C9.54607 9.24703 15.8607 9.37208 22.1858 9.66857C71.6714 11.9882 121.015 14.9562 170.568 15.8863C228.098 16.9661 285.71 17.4851 343.242 16.2552C377.085 15.5317 411.386 14.7816 444.992 10.3009C464.417 7.71086 406.053 14.9048 386.503 16.2552C322.737 20.6594 259.018 14.3232 195.281 12.2505C153.636 10.8962 111.981 12.0661 70.3469 10.9332C68.2818 10.877 63.4726 10.6735 60.9676 10.4063C60.577 10.3646 61.7341 10.1955 62.1268 10.1955C73.9037 10.1955 85.6973 10.8124 97.4309 11.7763C124.773 14.0222 151.978 17.6742 179.315 19.9963C214.328 22.9705 249.48 24.7064 284.595 25.8979C335.793 27.6352 387.032 26.3195 438.247 26.3195" stroke="#F2F2F2" stroke-width="3" stroke-linecap="round"/>
</svg>
