<svg width="46" height="45" viewBox="0 0 46 45" fill="none" xmlns="http://www.w3.org/2000/svg">
<path d="M8.80237 9.82838C6.59849 10.3181 7.2835 15.6145 7.00494 16.9516C6.46063 19.5642 5.60693 22.4316 5.60693 25.0955C5.60693 30.2222 7.38022 33.2428 11.3987 36.3683C14.2443 38.5815 16.8695 39.7856 20.5856 39.7856C23.9465 39.7856 26.5221 38.9961 29.6615 38.0992C31.5587 37.5571 33.1197 37.049 34.7653 35.9911C36.7049 34.7442 37.5392 31.9771 38.7596 30.1106C41.1706 26.4233 40.7568 20.2929 40.7568 16.0195C40.7568 14.2647 38.7988 11.1346 37.5613 9.82838C36.1438 8.33206 34.6175 7.15819 32.7682 6.23351C29.6586 4.67873 25.957 5.03522 22.5827 5.03522C14.073 5.03522 11.9978 14.8818 11.9978 21.8113C11.9978 24.1834 12.2499 28.0788 13.8396 30.0218C15.6918 32.2856 17.9862 32.4248 20.2971 33.7942C22.1082 34.8675 23.8438 33.8583 25.3787 32.7956C27.1811 31.5479 30.5174 30.2405 30.7932 27.7584C31.484 21.5418 32.9429 17.1984 27.5756 13.0238C26.4377 12.1388 23.4785 11.2062 21.9836 11.9143C18.7986 13.423 17.9893 18.355 17.9893 21.5006C17.9893 23.6706 18.311 28.1689 21.1847 28.5794C24.6526 29.0748 26.6165 25.1398 27.9972 22.8099C29.4267 20.3976 31.0925 18.8888 31.8806 16.1305C32.2714 14.7625 32.7682 12.7929 32.7682 11.4261" stroke="#F2F2F2" stroke-width="10" stroke-linecap="square"/>
</svg>
