<svg width="293" height="14" viewBox="0 0 293 14" fill="none" xmlns="http://www.w3.org/2000/svg">
<path d="M5 7.5778C26.8184 7.5778 48.6465 8.76914 70.3817 6.59228C76.47 5.98252 82.7626 6.39518 88.881 6.39518C92.8962 6.39518 96.6726 5.25629 100.645 5.21256C104.607 5.16896 108.671 4.99424 112.628 5.23446C115.801 5.42704 119.055 5.90036 122.206 6.30758C125.358 6.71498 128.558 7.5778 131.74 7.5778C139.488 7.5778 147.191 7.18359 154.941 7.18359C162.998 7.18359 171.19 7.36463 179.235 7.88441C186.361 8.34487 193.736 6.11351 200.926 6.00098C204.839 5.93975 208.927 5.69786 212.8 6.21998C216.945 6.77879 220.909 7.97201 225.111 7.97201C232.012 7.97201 238.721 8.35304 245.578 8.84802C250.84 9.22778 255.761 8.80447 260.929 7.88441C265.387 7.09068 269.736 7.18359 274.224 7.18359C277.357 7.18359 280.542 7.3679 283.67 7.18359C284.231 7.15056 284.932 6.56909 285.463 6.41708C286.196 6.20754 287.238 6.39518 288 6.39518" stroke="#F2F2F2" stroke-width="10" stroke-linecap="square"/>
</svg>
