<svg width="138" height="107" viewBox="0 0 138 107" fill="none" xmlns="http://www.w3.org/2000/svg">
<path d="M2.45337 6.21606C5.86404 11.8193 10.6161 16.7512 15.0753 21.5116C28.7765 36.1385 44.0721 49.7016 59.7807 62.1133C75.2746 74.3554 91.6397 85.8141 109.149 95.005C110.498 95.7128 135.958 106.782 135.512 104.332C133.969 95.8413 119.642 87.0292 113.626 82.3208C98.7519 70.6802 83.3861 59.7511 68.7342 47.8125C60.7245 41.2862 48.8174 34.4548 42.8685 25.8018C37.7541 18.3628 57.1041 36.9107 64.0709 42.6518C73.5423 50.457 82.711 58.7042 93.1076 65.2843C97.7822 68.2429 111.03 77.7784 107.533 73.4917C100.808 65.2482 90.6845 58.6347 82.6618 51.7919C65.4998 37.1536 48.1449 22.8246 28.7543 11.1902C28.5414 11.0625 10.2195 1.02536 10.1633 2.48543C10.0911 4.36441 15.1881 8.25432 15.9458 8.95185C21.3962 13.9697 26.9348 18.8975 32.4227 23.8744C53.1465 42.668 75.1462 59.805 96.4652 77.8441" stroke="#F2F2F2" stroke-width="3" stroke-linecap="round"/>
</svg>
