<svg width="112" height="100" viewBox="0 0 112 100" fill="none" xmlns="http://www.w3.org/2000/svg">
<path d="M58.2934 8.84242C56.9794 25.0488 37.6444 40.9955 27.5158 52.0555C18.8147 61.5567 10.1167 71.8322 3.32888 82.8332C-1.93724 91.3679 7.44262 82.684 9.29788 80.657C29.0758 59.0478 49.4354 38.0239 69.361 16.5524C70.1015 15.7544 78.7346 5.40661 73.8377 11.7026C65.545 22.3647 57.2224 32.9579 48.2207 43.0398C40.8446 51.3011 33.7086 59.6524 26.7696 68.2837C19.2156 77.6802 28.9445 69.6395 32.4278 66.6671C57.0324 45.6712 80.7215 23.4267 106.419 3.7439C110.227 0.826972 111.06 0.678003 108.781 5.23615C101.933 18.9327 93.8275 31.9499 84.4078 44.0347C67.186 66.129 44.5188 80.4459 23.5986 98.3775" stroke="#F2F2F2" stroke-width="3" stroke-linecap="round"/>
</svg>
