<svg width="139" height="132" viewBox="0 0 139 132" fill="none" xmlns="http://www.w3.org/2000/svg">
<path d="M110.323 1.53906C102.263 6.52876 95.4206 14.4386 88.6062 20.9084C71.9974 36.6774 54.7845 51.6013 37.8351 66.9839C24.1698 79.386 12.1869 93.1895 4.52567 110.125C4.17623 110.897 -0.412983 121.253 4.52567 117.902C17.171 109.321 27.3843 95.3722 36.6612 83.5653C52.4246 63.5027 66.4697 41.9843 84.0573 23.4029C85.3817 22.0037 100.163 5.9251 103.427 7.40856C106.404 8.76169 92.703 38.409 91.9812 39.8375C75.7465 71.9663 51.7651 97.0751 26.683 122.157C18.3091 130.531 44.7177 106.797 53.9762 99.4129C73.9399 83.4905 92.9849 66.6076 112.084 49.6689C120.013 42.637 143.096 20.7934 135.709 28.392C123.915 40.5229 112.142 52.8062 99.905 64.4894C72.5508 90.6049 39.8914 107.188 9.95496 129.641" stroke="#F2F2F2" stroke-width="3" stroke-linecap="round"/>
</svg>
