<svg width="154" height="116" viewBox="0 0 154 116" fill="none" xmlns="http://www.w3.org/2000/svg">
<path d="M1.90137 2.12891C8.94414 4.94602 15.3468 12.4957 21.124 17.0961C37.5384 30.1669 54.7329 42.369 72.0418 54.2207C90.4361 66.8155 109.261 78.7935 128.022 90.8317C132.59 93.7627 145.249 105.102 151.574 104.552C152.587 104.463 150.579 102.727 149.813 102.057C142.714 95.846 134.8 90.4132 127.288 84.7421C107.929 70.1265 88.7714 55.2246 70.1343 39.6937C60.3717 31.5582 48.7563 22.9096 41.6672 12.107C41.3429 11.6129 40.5643 10.9544 40.9335 10.4929C42.1919 8.92 44.5837 12.2474 46.2161 13.4277C53.4661 18.67 60.3633 24.4405 67.4196 29.9356C81.0949 40.5854 94.8861 51.0591 109.313 60.6771C114.28 63.9885 130.488 71.2733 132.718 77.4052C133.354 79.1556 129.04 76.7193 127.288 76.0846C117.841 72.6598 108.745 68.4042 99.6285 64.1988C82.9518 56.5062 66.4869 48.8563 48.7106 44.0224C46.0495 43.2988 29.4379 36.8806 26.5533 39.9872C23.4617 43.3165 36.6115 56.344 37.9988 57.9625C56.6658 79.7407 79.2865 95.9698 100.949 114.383" stroke="#F2F2F2" stroke-width="3" stroke-linecap="round"/>
</svg>
