<svg width="467" height="29" viewBox="0 0 467 29" fill="none" xmlns="http://www.w3.org/2000/svg">
<path d="M55.7806 7.56347C72.5226 8.44463 89.1486 10.646 105.944 11.3046C172.636 13.92 239.305 10.1586 305.913 7.14193C357.726 4.79531 409.537 2.82113 461.409 2.82113C472.521 2.82113 461.336 2.82113 458.721 2.82113C439.732 2.82113 420.749 2.58365 401.761 2.34689C335.917 1.5259 270.503 4.60282 204.795 8.51194C169.838 10.5916 134.87 12.8595 99.8316 12.622C73.5656 12.4439 47.3453 10.948 21.1088 9.88195C15.0701 9.63658 -3.06121 9.4604 2.98252 9.4604C9.31218 9.4604 15.6268 9.58546 21.9519 9.88195C71.4375 12.2016 120.781 15.1696 170.334 16.0997C227.864 17.1795 285.476 17.6984 343.008 16.4685C376.852 15.745 411.152 14.995 444.758 10.5143C464.183 7.92424 405.82 15.1182 386.269 16.4685C322.503 20.8728 258.784 14.5366 195.047 12.4639C153.402 11.1096 111.747 12.2795 70.113 11.1466C68.0479 11.0904 63.2387 10.8868 60.7337 10.6196C60.3432 10.578 61.5002 10.4089 61.8929 10.4089C73.6698 10.4089 85.4634 11.0258 97.197 11.9897C124.539 14.2356 151.744 17.8875 179.081 20.2097C214.094 23.1839 249.247 24.9198 284.361 26.1113C335.559 27.8486 386.798 26.5328 438.013 26.5328" stroke="#F2F2F2" stroke-width="3" stroke-linecap="round"/>
</svg>
