<svg width="74" height="64" viewBox="0 0 74 64" fill="none" xmlns="http://www.w3.org/2000/svg">
<path d="M5.82239 2.32966C5.76355 2.21458 5.43191 2.17908 5.04132 2.17798M5.04132 2.17798C4.49382 2.17645 3.8305 2.24252 3.64031 2.25182C3.24591 2.2711 2.53026 2.43093 2.32918 2.82415C2.14579 3.18279 2.19807 3.66992 2.19807 4.06036C2.19807 5.0701 1.79438 5.95348 2.89109 6.5969C3.89115 7.18361 5.1179 7.4961 6.24851 7.69118C7.47894 7.9035 8.55183 7.68661 9.78385 7.68661H9.78627C10.2072 7.6866 10.5587 7.6866 10.7953 8.06663C11.0203 8.4281 10.924 8.84907 11.0903 9.2067C11.551 10.1978 11.5752 11.3419 11.6475 12.4026C11.6958 13.1103 12.0394 13.7361 12.1626 14.4263C12.2931 15.157 12.5354 15.8596 12.6683 16.5874C12.9384 18.0665 13.0474 19.4989 13.7453 20.8638C14.4833 22.307 14.5314 24.077 14.8598 25.6438C15.0394 26.5011 15.0626 27.3479 15.1969 28.2078C15.2524 28.563 15.4421 28.878 15.5341 29.2243C15.6481 29.6537 15.7061 30.0975 15.8244 30.5246C16.2372 32.0149 16.6256 33.5172 17.0653 34.9979C17.2662 35.6747 17.0985 36.4131 17.2854 37.0903C17.4096 37.5405 17.7009 37.9689 17.8754 38.4089C18.0644 38.8856 18.0669 39.3567 18.2219 39.8329C18.3827 40.3272 18.7608 40.8326 18.7978 41.3575C18.8391 41.9424 18.9566 42.3749 19.2708 42.8776C19.5409 43.3099 19.791 43.7698 20.0715 44.1917C20.3793 44.6548 20.8001 44.732 21.2468 45.0204C21.8997 45.442 22.6204 45.6568 23.3352 45.9453C24.0348 46.2276 24.6815 46.2697 25.4143 46.426C25.967 46.5439 26.5098 46.6904 27.0579 46.8244C27.6468 46.9683 28.2677 46.9514 28.8654 47.0533L28.9142 47.0616C30.1902 47.2793 31.3877 47.4835 32.691 47.4928C34.373 47.5049 36.0694 47.2612 37.7482 47.1449C41.3161 46.8976 44.8776 47.1632 48.4526 47.1632C51.3837 47.1632 54.3107 47.0808 57.2418 47.0808C58.3446 47.0808 59.4468 47.0022 60.543 46.8976C61.4048 46.8154 62.2581 46.8213 63.0529 46.4398C63.7718 46.0947 64.4407 45.8206 64.7714 45.0662C64.9073 44.7562 64.7715 44.5226 64.7714 44.1925C64.7714 43.786 64.5051 43.9209 64.2489 43.6248C63.9413 43.2694 63.2093 43.2909 62.7838 43.1229C61.7731 42.7238 60.6622 42.6227 59.5902 42.4819C58.4148 42.3275 57.2561 42.0296 56.0642 42.0744C55.5025 42.0955 54.9961 42.2736 54.4534 42.3949C53.4998 42.608 52.5205 42.809 51.5549 42.9581C49.144 43.3303 46.6697 42.6511 44.2688 42.5002C41.7043 42.339 39.1359 42.4644 36.5707 42.3354C34.5469 42.2336 32.5574 41.905 30.5254 41.905C29.1897 41.905 27.8516 41.9958 26.5499 41.6578C25.7004 41.4371 24.7276 41.0938 24.0822 40.4627C23.818 40.2044 23.4476 39.8605 23.3236 39.5104C23.2202 39.2183 23.1334 38.1348 23.0964 37.8458C23.068 37.6233 22.6525 35.7941 22.8014 35.79C24.7 35.7369 26.615 35.6195 28.5189 35.7488C31.4165 35.9455 34.377 35.7277 37.28 35.7076C39.9422 35.6891 42.6033 35.5427 45.2685 35.5427H53.2569C55.2421 35.5427 57.194 35.6524 59.1804 35.5382C59.7839 35.5034 60.4201 35.2664 61.0019 35.1123C61.2712 35.0411 61.7628 35.0058 61.9572 34.7827C62.1364 34.577 62.339 34.3999 62.5659 34.2424C63.6022 33.5233 64.6912 32.8134 65.4317 31.7791C66.0425 30.9259 66.667 29.9641 67.0565 28.9908C67.5296 27.8086 68.2185 26.697 68.4285 25.4241C68.6597 24.0228 69.0688 22.6664 69.4119 21.285C69.7763 19.8175 69.9674 18.3315 70.428 16.8804C70.6319 16.2378 70.929 15.6193 71.1444 14.9757C71.3312 14.4177 71.4133 13.8418 71.5658 13.2725C71.8016 12.3922 72.0025 11.5302 72.0669 10.6169C72.1052 10.074 72.2108 9.22277 71.9873 8.72137C71.7907 8.28034 71.7776 7.89795 71.4628 7.52178C71.1526 7.15104 70.5663 6.89118 70.133 6.67932C68.8182 6.03653 67.4742 6.03297 66.0357 5.9559C63.6893 5.83018 61.3387 5.87349 58.9884 5.87349C56.7468 5.87349 54.5229 6.30069 52.2783 6.36339C50.401 6.41584 48.4849 6.28908 46.6124 6.16194C44.5982 6.02517 42.5818 6.20314 40.5671 6.20314H36.2404C34.1537 6.20314 32.0248 6.4391 29.9471 6.5969C28.0959 6.73748 26.1909 6.61442 24.3467 6.4687C22.3551 6.31134 20.3642 6.1549 18.367 6.03831C17.7534 6.0025 17.1374 5.89645 16.5268 5.87349C16.3289 5.86604 15.8975 5.85727 15.7495 5.72697C14.8631 4.94693 14.2726 3.92678 13.2396 3.27743C12.5682 2.85537 11.9688 2.50001 11.1886 2.28387C10.2078 2.01215 9.11582 2 8.10281 2H6.11271C5.89217 2 5.26161 2.01308 5.04132 2.17798ZM5.04132 2.17798C5.01377 2.19861 4.99264 2.2216 4.97953 2.24724M16.6112 8.51074C16.6884 8.52753 16.7481 8.59055 16.7948 8.67626M16.7948 8.67626C16.905 8.8786 16.9426 9.20743 16.967 9.3532C17.0539 9.87116 17.1871 10.3888 17.3697 10.8825C17.5884 11.4736 17.6087 12.1277 17.7912 12.7322C17.9632 13.3024 18.1639 13.8557 18.2782 14.4446C18.3707 14.9215 18.5982 15.3299 18.7183 15.7999C18.8451 16.2959 18.9613 16.785 19.1397 17.265C19.4614 18.1299 19.6174 19.0692 19.9171 19.9481C20.0978 20.4781 20.3624 20.9461 20.6382 21.4315C20.901 21.8941 20.9365 22.4915 21.0783 22.9974C21.4159 24.2011 21.6494 25.415 22.0055 26.6145C22.1156 26.9853 22.279 27.2715 22.4082 27.6126C22.51 27.8814 22.7527 28.1854 22.7641 28.4734C22.7805 28.891 22.9338 29.3636 23.1434 29.7325C23.3241 30.0506 23.3666 30.356 23.7334 30.5154C24.9188 31.0306 26.1713 30.9876 27.4326 31.216C28.6695 31.4399 29.9579 31.422 31.2114 31.422C33.0629 31.422 34.9054 31.5868 36.7556 31.5868C40.6594 31.5868 44.5644 31.422 48.4714 31.422C50.5261 31.422 52.5686 31.5868 54.6244 31.5868C55.3098 31.5868 55.9733 31.4705 56.6426 31.3396C57.3781 31.1957 58.0605 30.6806 58.7544 30.4147C61.6806 29.2934 63.4551 26.8497 64.7013 24.142C65.8469 21.6528 66.8619 19.0125 67.4359 16.331C67.6456 15.3514 67.9416 14.3619 67.9416 13.3549C67.9416 12.278 68.1296 11.3072 67.3984 10.388C66.8655 9.71797 65.8373 9.28922 64.9729 9.25248C64.2373 9.22121 63.5247 9.01243 62.7814 9.00523C61.8469 8.99618 60.9223 8.92282 59.9859 8.92282C58.1715 8.92282 56.3887 9.24415 54.5822 9.33031C52.5545 9.42703 50.527 9.4173 48.4949 9.4173C44.3393 9.4173 40.2057 9.58213 36.0486 9.58213C31.6912 9.58213 27.3295 10.1525 22.9842 9.54551C21.6836 9.36383 20.3673 9.23957 19.0836 8.96402C18.3598 8.80869 17.5411 8.68641 16.7948 8.67626ZM16.7948 8.67626C16.7616 8.6758 16.7284 8.67557 16.6954 8.67557M22.1299 50.8511C22.1073 50.8511 22.0848 50.8516 22.0622 50.8527M22.0622 50.8527C21.5645 50.876 21.0593 51.1487 20.6372 51.3829C20.3842 51.5233 20.1432 51.6729 19.8957 51.8229C19.6218 51.9889 19.405 52.1742 19.1543 52.3661C18.689 52.7222 18.1014 53.2896 17.9042 53.8467C17.6949 54.4379 17.4825 55.0153 17.3838 55.6372C17.3085 56.1113 17.2709 56.6075 17.3407 57.0853C17.4408 57.77 17.7806 58.4439 18.1507 59.0269C18.3528 59.3454 18.5656 59.6583 18.8374 59.9241C19.1201 60.2006 19.4061 60.5306 19.7275 60.76L19.7384 60.7678C20.4064 61.2447 21.1 61.7399 21.946 61.8274C23.0585 61.9425 24.3183 62.1652 25.4068 61.7968C25.9103 61.6264 26.491 61.4245 26.9191 61.112C27.3517 60.7962 27.6304 60.464 27.9168 60.0197C28.13 59.6891 28.3117 59.3267 28.4861 58.9753C28.7023 58.5397 28.936 58.1207 29.0946 57.6611C29.325 56.9932 29.4338 56.1992 29.2785 55.5071C29.074 54.5962 28.5866 53.8718 28.0479 53.1256C27.7905 52.769 27.4193 52.4979 27.1304 52.1672C26.8704 51.8696 26.3665 51.648 26.0133 51.4938C25.6435 51.3324 25.2316 51.1549 24.8356 51.073C24.4265 50.9884 24.0154 50.9108 23.6089 50.8167C23.1374 50.7075 22.5161 50.6657 22.0622 50.8527ZM22.0622 50.8527C22.0373 50.863 22.0129 50.8739 21.9891 50.8855M57.6441 51.0568C57.5468 51.0654 57.4535 51.0821 57.363 51.1051M57.363 51.1051C56.942 51.2117 56.5839 51.4532 56.195 51.6469C55.625 51.9308 55.1828 52.2669 54.7791 52.7493C54.4026 53.1993 54.0315 53.6714 53.8126 54.2148C53.6084 54.7216 53.4531 55.2325 53.3997 55.7775C53.3515 56.2701 53.3656 56.7585 53.3765 57.2495C53.3818 57.4864 53.4346 57.7053 53.5108 57.9287C53.5786 58.1275 53.6706 58.4085 53.8109 58.5707C53.9794 58.7654 54.0663 59.0244 54.2353 59.2273C54.4559 59.4919 54.6983 59.7577 54.9449 59.9989C55.189 60.2376 55.4653 60.4241 55.7341 60.6344C56.0222 60.8597 56.3876 60.9763 56.699 61.1694C57.5287 61.6838 58.6339 61.6853 59.5772 61.7303C60.0869 61.7546 60.5155 61.5333 60.9881 61.3996C61.5052 61.2532 62.0137 60.9838 62.4919 60.7446C62.6913 60.6449 62.8614 60.4694 63.0324 60.3296C63.2191 60.1771 63.4154 59.9909 63.5762 59.8109C63.824 59.5334 64.0512 59.2138 64.2543 58.903C64.7585 58.1314 64.7765 57.1335 64.7765 56.2476C64.7765 55.8107 64.7246 55.4127 64.624 54.9864C64.5253 54.5684 64.4424 54.1024 64.2692 53.7057C63.9309 52.9307 63.5032 52.1217 62.792 51.6129C62.3061 51.2652 61.6919 51.0919 61.1291 50.9044L61.1259 50.9033C60.4312 50.6719 59.6694 50.4181 58.9273 50.4181C58.7327 50.4181 58.5756 50.5237 58.3968 50.5834C58.2255 50.6406 58.0831 50.7073 57.9193 50.7812C57.7255 50.8687 57.5393 50.9827 57.363 51.1051ZM57.363 51.1051C57.3167 51.1371 57.2711 51.1698 57.2263 51.2027M8.55239 3.13572C7.76646 2.8511 7.2537 2.71745 6.38975 2.71745C5.5879 2.71745 4.89274 3.03707 4.12253 3.20079C3.51005 3.33098 3.05125 3.56591 3.07686 4.24183C3.0897 4.5809 3.44755 4.94509 3.63297 5.2271C3.90129 5.63523 4.22818 5.83668 4.70241 5.98C5.60349 6.25233 6.53993 6.02706 7.44017 6.21238C8.3048 6.39036 9.16848 6.33254 10.0258 6.64924C10.695 6.89642 11.6855 7.1059 11.889 7.85759C12.0373 8.40526 12.2774 8.94347 12.4024 9.49352C12.5181 10.0025 12.6186 10.6045 12.8302 11.083C13.0764 11.6399 13.0967 12.2498 13.2199 12.8351C13.3462 13.4347 13.5599 14.0041 13.719 14.5918C14.3967 17.0951 15.0424 19.5934 15.2352 22.1859L15.2354 22.189M15.2354 22.189C15.2417 22.2722 15.2509 22.3546 15.2625 22.4363M15.2354 22.189C15.2434 21.2713 15.4578 20.2433 15.6535 19.3555C15.7548 18.896 15.9539 18.7032 16.414 18.9466C16.887 19.1967 17.1676 19.8847 17.664 20.0341C17.7312 20.0543 17.8172 20.0691 17.9123 20.083M15.2354 22.189C15.2353 22.2066 15.2352 22.2241 15.2352 22.2416C15.2352 22.2975 15.2448 22.3638 15.2625 22.4363M15.2625 22.4363C15.3494 23.0499 15.5723 23.6231 15.72 24.2168C15.8672 24.8086 15.9582 25.4602 16.0813 26.0619C16.3278 27.2672 16.5973 28.4677 16.867 29.669L16.894 29.7892C17.1781 31.0547 17.2005 32.3978 17.7496 33.5909C18.1367 34.432 18.3316 35.3441 18.616 36.2218M15.2625 22.4363C15.3599 22.8362 15.7033 23.4253 16.0432 23.4918C16.2835 23.5388 16.346 22.4696 16.3807 22.3067C16.4053 22.191 16.433 21.839 16.4377 21.8559C16.6451 22.5992 16.9664 23.304 17.2505 24.0216C17.8768 25.6036 18.3908 27.1924 18.7715 28.8504C19.1443 30.4744 19.5919 32.0733 19.9474 33.6983M18.616 36.2218C18.6265 36.2542 18.6371 36.2866 18.6479 36.3189C18.7983 36.7707 18.9387 37.2314 19.0809 37.6935M18.616 36.2218C18.6032 35.8026 18.7145 35.3744 19.0138 34.9273M18.616 36.2218C18.6313 36.7197 18.8218 37.2047 19.0809 37.6935M19.0809 37.6935C19.4727 38.9667 19.8788 40.2502 20.5491 41.3847C21.1932 42.4746 21.3341 44.1062 22.7641 44.48C23.8775 44.771 25.0226 44.8797 26.172 44.8797C26.7679 44.8797 27.3143 45.1 27.8879 45.2329C28.985 45.4869 30.0928 45.5757 31.196 45.7999C32.7252 46.1106 34.3778 46.0298 35.9301 46.0508C37.2969 46.0694 38.6525 46.065 40.0177 46.0508C43.0241 46.0196 46.041 45.8608 49.0485 45.9718C50.3132 46.0185 51.565 46.2181 52.832 46.2181C53.8312 46.2181 54.7638 46.1094 55.7456 45.9672C56.6662 45.8338 57.6294 45.7999 58.5594 45.7999C59.708 45.7999 60.8743 45.6614 62.0244 45.6326C62.4769 45.6212 63.0969 45.4505 63.1366 44.9447C63.1814 44.3764 63.1921 44.2395 62.5568 44.0245C62.0064 43.8382 61.4893 43.7085 60.8932 43.7085C60.1618 43.7085 59.5048 43.4445 58.8161 43.2949C58.3599 43.1957 57.7813 43.2253 57.3617 42.9974C57.1549 42.8851 56.9267 42.8967 56.72 42.8069C56.454 42.6913 56.3081 43.0101 56.1639 43.1229C56.0562 43.2071 56.2136 43.5412 56.0356 43.5412C55.6473 43.5412 55.3017 43.1851 54.9661 43.0392C54.5768 42.8701 54.0758 43.3595 53.987 43.7503C53.9163 44.0614 53.2639 44.0125 52.9984 43.9548C52.6766 43.8849 52.5248 43.4127 52.0572 43.6667C51.5467 43.944 50.9656 43.8758 50.3984 43.8758C49.5391 43.8758 48.5733 43.9977 47.7367 43.8107C47.1146 43.6717 46.3819 43.6248 45.7499 43.6248C44.9201 43.6248 44.0989 43.4802 43.2878 43.4575C42.1225 43.425 40.9453 43.2902 39.7848 43.2902C38.7352 43.2902 37.693 43.3739 36.6525 43.3739H36.2481M19.0809 37.6935C19.2011 37.9203 19.336 38.1478 19.4749 38.3778C20.1839 39.5509 21.0615 40.6055 21.7944 41.7658C22.2702 42.519 22.804 43.5504 23.6339 43.9873C23.7665 44.0572 23.4647 43.4528 23.4628 43.4482C22.8965 42.1153 22.3308 40.8782 21.4998 39.6744C20.8177 38.6866 20.1123 37.7092 19.5415 36.6536C19.2598 36.1326 18.9482 35.5333 19.0138 34.9273M36.2481 43.3739H35.4548C35.0714 43.3739 34.7213 43.2536 34.3668 43.1573M36.2481 43.3739C36.7527 43.4196 37.1891 43.474 37.6697 43.6713C37.8086 43.7283 38.1481 43.7967 38.2401 43.9316C38.541 44.3729 38.0524 44.3777 37.7648 44.3777C36.6471 44.3777 35.5856 44.1797 34.4756 44.1268C33.7934 44.0942 33.1141 43.8038 32.4318 43.7085C32.2649 43.6852 31.8967 43.5562 32.0991 43.3088C32.2486 43.1261 32.4136 43.0388 32.5896 43.0023M36.2481 43.3739C36.2309 43.3723 36.2136 43.3708 36.1962 43.3692C35.7846 43.3326 35.3565 43.2766 34.9414 43.2251C34.749 43.2013 34.5576 43.1786 34.3668 43.1573M34.3668 43.1573C34.13 43.0929 33.8911 43.0392 33.6391 43.0392C33.271 43.0392 32.9119 42.9355 32.5896 43.0023M34.3668 43.1573C33.7714 43.0908 33.1821 43.0374 32.5896 43.0023M32.5896 43.0023C32.082 42.9722 31.5719 42.9556 31.0534 42.9556C30.3666 42.9556 29.6275 43.0262 28.9431 42.937C28.4858 42.8774 28.0048 42.7046 27.5457 42.7046C27.2139 42.7046 26.8111 42.6532 26.5 42.5373C26.3159 42.4687 26.1341 42.47 25.9486 42.4165C25.5955 42.3146 25.2729 42.0802 24.903 42.04C24.5286 41.9994 24.2001 41.9407 23.8763 41.7472C23.4559 41.496 22.8067 41.3142 22.669 40.7759L22.6607 40.7434C22.4884 40.0693 22.3216 39.4168 22.0273 38.7775C21.6888 38.0419 21.4735 37.4222 21.3809 36.6071C21.3244 36.1098 21.2058 35.6689 21.4522 35.2593C21.7178 34.8178 22.5126 33.9526 23.0968 33.9208C23.8007 33.8826 24.391 33.7923 25.0646 34.0696C25.4092 34.2115 25.8758 33.2223 26.1768 33.0332C26.2138 33.0099 26.3978 32.774 26.4287 32.8798C26.4855 33.0741 26.5395 33.2707 26.6046 33.4654C26.6508 33.6038 26.6325 34.2913 26.8232 34.3252C27.4204 34.4313 27.468 32.3464 28.1778 33.4143C28.5584 33.9867 28.7025 34.7232 29.252 33.8837C29.4088 33.6441 29.5837 33.3037 29.7891 33.1029C30.036 32.8614 30.3842 33.5167 30.4973 33.6699C30.575 33.775 30.927 34.3318 31.0534 34.3391C31.4934 34.3644 31.8531 33.9263 32.1134 33.6327C32.182 33.5552 32.4304 33.0232 32.5934 33.1029C32.7556 33.1822 33.002 33.5674 33.1543 33.7163C34.0225 34.5653 35.2876 33.6399 36.1867 33.2981C36.5029 33.1779 36.972 33.2434 37.299 33.2516C38.047 33.2703 38.795 33.3352 39.5519 33.3352C42.2201 33.3352 44.8927 33.5026 47.5656 33.5026C50.1625 33.5026 52.828 33.7712 55.4177 33.5211C57.0002 33.3683 58.7367 33.1608 60.1771 32.424M60.1771 32.424C60.2583 32.3824 60.3386 32.3392 60.4179 32.2942C61.8973 31.4543 63.3834 30.0729 64.2489 28.632C64.9963 27.3875 65.3648 25.9106 65.8364 24.5515C66.2468 23.3687 66.7974 22.1674 67.0912 20.9543C67.4103 19.6369 67.8971 18.3511 68.4221 17.0875C68.6731 16.4835 68.7163 15.8347 68.9116 15.2192C69.1671 14.4144 69.3753 13.6124 69.5913 12.7979C69.966 11.3846 70.2842 8.42539 68.27 7.98772C66.6989 7.64634 65.0471 7.77154 63.4408 7.61128C61.6779 7.43538 59.8668 7.31848 58.0936 7.31848C56.5444 7.31848 55.0045 7.23566 53.4784 7.52762C52.1608 7.77969 50.9097 7.89579 49.5761 7.99237C48.1441 8.09609 46.6263 8.17008 45.1891 8.02955C43.7092 7.88486 42.1926 8.04094 40.7212 7.839C39.3406 7.64954 37.9095 7.98772 36.529 7.98772H32.2512C29.1074 7.98772 25.9307 8.52527 22.7973 8.07138C21.5118 7.88516 20.2355 7.56833 18.9426 7.48115C18.1052 7.42468 17.1263 7.29247 16.3332 7.02104C15.3056 6.6694 14.4037 6.23048 13.5194 5.60355C12.7809 5.08008 12.3122 4.36064 11.4613 3.99087C11.204 3.87908 10.7934 3.99481 10.5154 3.96763C9.84729 3.9023 9.17544 3.89444 8.50486 3.82355C7.88643 3.75818 7.19645 3.76288 6.57512 3.80961C6.27998 3.83181 5.99971 3.91313 5.72432 4.0141C5.61921 4.05264 5.05248 4.13959 5.39635 4.13959C6.33649 4.13959 7.275 4.05468 8.16739 4.3952C8.77412 4.62671 9.31486 4.98391 9.92128 5.20851C10.0371 5.25143 10.5357 5.33533 10.1304 5.29217C8.74458 5.14459 7.31393 5.12692 5.94296 4.88319C5.52287 4.8085 4.27147 4.54561 4.68339 4.65546C6.09942 5.03307 7.59006 5.13845 9.04671 5.25499C10.0327 5.33387 11.0363 5.35531 11.9223 5.81734C12.5141 6.12594 12.9543 6.68426 13.4956 7.06752C13.8719 7.33396 14.2796 7.7481 14.546 8.1225C14.907 8.62991 15.026 9.19675 15.2067 9.79096C15.3499 10.2619 15.518 10.6764 15.6155 11.1666C15.707 11.627 15.7633 12.0946 15.9101 12.5423C16.1668 13.3245 16.4707 14.0333 16.6326 14.8474C16.8065 15.7219 17.0219 16.5098 17.3218 17.3571C17.6328 18.2356 17.7593 19.1639 17.9123 20.083M60.1771 32.424C58.2972 32.677 56.3411 32.415 54.4528 32.415C52.2391 32.415 50.0304 32.3314 47.8223 32.3314C45.7518 32.3314 43.6749 32.666 41.6195 32.666H38.8199C37.8191 32.666 36.8138 32.4244 35.797 32.415C34.8578 32.4064 33.9427 32.4715 33.0069 32.5452C30.8732 32.713 28.7715 32.5282 26.6426 32.6009C26.2465 32.6145 25.8527 32.6444 25.4605 32.6859M60.1771 32.424C60.3659 32.3986 60.554 32.368 60.7411 32.3314M17.9123 20.083C18.0216 20.74 18.1445 21.3924 18.358 22.0186C18.6632 22.9138 18.967 23.8281 19.3324 24.7002C19.79 25.7927 19.8593 26.9821 20.1879 28.1068C20.56 29.3801 20.8985 30.9941 21.8182 32.0432C22.0822 32.3444 23.0731 32.2732 23.458 32.3128C23.5194 32.3191 23.5945 32.3294 23.6739 32.3395M17.9123 20.083C18.2598 20.1339 18.7281 20.1722 18.838 20.4152C19.2062 21.2284 19.1743 22.1483 19.3751 22.9992C19.6596 24.2045 19.8766 25.477 20.2735 26.6521C20.6637 27.8077 21.1282 29.2653 21.9465 30.1935C22.5847 30.9173 23.4029 31.4196 24.1044 32.0618C24.1724 32.1241 24.2158 32.1746 24.2392 32.2153M23.6739 32.3395C23.9822 32.3788 24.3548 32.4164 24.2392 32.2153M23.6739 32.3395C23.6211 32.3521 23.5682 32.3649 23.5151 32.3779C22.9732 32.5103 22.5133 32.8838 22.0594 33.228M23.6739 32.3395C23.8636 32.2942 24.0513 32.252 24.2392 32.2153M24.2392 32.2153C24.6393 32.1371 25.0403 32.084 25.4638 32.0804C25.6536 32.0788 26.0294 31.9634 25.9011 32.192C25.7856 32.3977 25.6351 32.5586 25.4605 32.6859M19.9474 33.6983C19.952 33.719 19.9565 33.7397 19.961 33.7604M19.9474 33.6983C19.5118 33.9042 19.1635 34.231 19.0424 34.7574C19.0294 34.814 19.02 34.8707 19.0138 34.9273M19.9474 33.6983C20.0162 33.6659 20.0871 33.6364 20.1596 33.6096M19.961 33.7604C19.9948 33.9159 20.0277 34.0716 20.0596 34.2276C20.101 34.4303 20.074 34.6463 20.1451 34.841C20.2466 35.119 20.3259 34.6247 20.4351 34.4692C20.7495 34.0216 21.1226 33.8549 21.5663 33.5769C21.671 33.5113 21.7745 33.4392 21.8779 33.3636M19.961 33.7604C20.025 33.7059 20.0912 33.6553 20.1596 33.6096M19.961 33.7604C19.5826 34.0822 19.2789 34.5383 19.0282 34.9061C19.0233 34.9132 19.0186 34.9202 19.0138 34.9273M21.8779 33.3636C21.9384 33.3194 21.9989 33.2739 22.0594 33.228M21.8779 33.3636C22.3917 33.3403 22.9049 33.2985 23.4152 33.2376C24.1068 33.1552 24.9054 33.0906 25.4605 32.6859M21.8779 33.3636C21.6917 33.3721 21.5054 33.3781 21.3191 33.3817C21.2703 33.3827 21.2201 33.3819 21.1692 33.3807M22.0594 33.228C21.763 33.2808 21.4663 33.3325 21.1692 33.3807M22.0594 33.228C23.1904 33.0264 24.3185 32.8068 25.4605 32.6859M21.1692 33.3807C20.9431 33.3753 20.7018 33.3599 20.4921 33.4375C20.3757 33.4806 20.265 33.5392 20.1596 33.6096M21.1692 33.3807C21.0893 33.3937 21.0094 33.4064 20.9294 33.4189C20.6684 33.4596 20.4047 33.5192 20.1596 33.6096M29.6846 34.5064C35.0024 34.5064 40.2713 35.2875 45.5931 35.0874C47.035 35.0331 48.4867 34.8182 49.9327 34.7388C50.9361 34.6837 51.9391 34.6101 52.9404 34.5366L53.0982 34.525C55.2195 34.3695 57.4974 34.6659 59.5386 33.9673C60.496 33.6397 61.2292 33.197 62.0293 32.6102C62.5351 32.2393 63.0999 31.5954 63.4789 31.0952C63.783 30.6938 64.1325 30.3311 64.401 29.8868C64.9898 28.9126 65.5915 27.8985 66.0456 26.852C66.4728 25.8673 66.765 24.82 67.1578 23.8172C68.0952 21.4239 67.6211 18.6751 68.655 16.3161C69.066 15.3786 69.8489 14.411 69.8956 13.3603C69.9377 12.4137 70.4089 11.496 70.4089 10.5439C70.4089 9.77657 70.5217 9.03391 70.0715 8.37348C69.8574 8.05954 69.2557 7.7606 68.8689 7.92267C68.4556 8.09587 67.0217 8.75328 67.7139 9.27974C68.0853 9.56216 68.3516 10.0693 68.5267 10.4974M58.1745 32.5824C58.8012 32.2079 59.3772 31.593 59.9046 31.0952C60.2932 30.7283 60.8982 30.4264 61.3828 30.1982C61.9443 29.9339 62.4395 29.4936 62.9181 29.1107C63.1716 28.9078 63.3949 28.6506 63.7356 28.6506M63.65 32.3314C64.5909 31.6969 65.2604 30.7029 65.6178 29.6544M44.7422 7.06753C45.4836 7.06753 46.2517 6.90154 46.9857 7.00246C47.5815 7.08438 48.2044 7.1176 48.7919 7.23484C49.2258 7.32142 49.588 7.50077 50.0086 7.61593C51.2154 7.94632 52.4494 7.88318 53.678 8.11322C54.6002 8.28588 55.519 8.57332 56.4633 8.57332" stroke="#040D08" stroke-width="3" stroke-linecap="round"/>
</svg>
