<svg width="71" height="46" viewBox="0 0 71 46" fill="none" xmlns="http://www.w3.org/2000/svg">
<path d="M2.78033 37.719C4.49229 37.719 6.20425 37.719 7.9162 37.719C11.3778 37.719 14.7661 38.123 18.2371 38.123C25.7002 38.123 33.0776 37.517 40.5499 37.517C49.2482 37.517 58.0688 37.719 66.6961 37.719" stroke="#040D08" stroke-width="5" stroke-linecap="round"/>
<path d="M11.4057 33.0728C9.97926 33.0728 8.75173 35.3354 8.75173 36.5181C8.75173 37.6718 7.92982 38.878 8.41999 40.042C9.03291 41.4976 9.41853 41.7162 10.9142 42.208C11.9575 42.5511 13.116 42.5671 14.2316 42.5671C17.2179 42.5671 20.031 39.1449 20.031 36.5069C20.031 33.994 17.7338 32.7922 15.1654 32.6688C12.2579 32.529 10.9693 33.3007 10.3122 36.0019C9.93773 37.5409 10.6947 39.941 12.7326 39.941C13.4343 39.941 14.6582 40.1535 15.276 39.84C16.1274 39.408 16.9347 37.8937 16.9347 37.0119C16.9347 35.1292 14.6303 35.0342 13.175 35.6989" stroke="#040D08" stroke-width="5" stroke-linecap="round"/>
<path d="M67.7804 7.92819C66.0684 7.92819 64.3565 7.92819 62.6445 7.92819C59.183 7.92819 55.7946 7.52417 52.3236 7.52417C44.8605 7.52417 37.4831 8.13019 30.0109 8.13019C21.3125 8.13019 12.4919 7.92819 3.86463 7.92819" stroke="#040D08" stroke-width="5" stroke-linecap="round"/>
<path d="M30.3023 2.98683C28.8759 2.98683 27.6483 5.24947 27.6483 6.43219C27.6483 7.58588 26.8264 8.79204 27.3166 9.9561C27.9295 11.4117 28.3151 11.6303 29.8108 12.1221C30.8541 12.4651 32.0126 12.4812 33.1282 12.4812C36.1145 12.4812 38.9276 9.05896 38.9276 6.42096C38.9276 3.90808 36.6304 2.70629 34.062 2.58281C31.1545 2.44304 29.8659 3.21476 29.2088 5.91594C28.8343 7.45491 29.5913 9.8551 31.6293 9.8551C32.3309 9.8551 33.5548 10.0676 34.1726 9.75409C35.024 9.32207 35.8313 7.80773 35.8313 6.92598C35.8313 5.04329 33.527 4.94827 32.0716 5.61293" stroke="#040D08" stroke-width="5" stroke-linecap="round"/>
<path d="M3.86462 22.7224C5.57658 22.7224 7.28854 22.7224 9.00049 22.7224C12.4621 22.7224 15.8504 23.1265 19.3214 23.1265C26.7845 23.1265 34.1619 22.5204 41.6341 22.5204C50.3325 22.5204 59.1531 22.7224 67.7804 22.7224" stroke="#040D08" stroke-width="5" stroke-linecap="round"/>
<path d="M50.9027 18.2861C49.4763 18.2861 48.2488 20.5488 48.2488 21.7315C48.2488 22.8852 47.4269 24.0914 47.9171 25.2554C48.53 26.711 48.9156 26.9296 50.4113 27.4214C51.4546 27.7645 52.6131 27.7805 53.7287 27.7805C56.715 27.7805 59.5281 24.3583 59.5281 21.7203C59.5281 19.2074 57.2309 18.0056 54.6625 17.8821C51.755 17.7424 50.4664 18.5141 49.8092 21.2153C49.4348 22.7542 50.1918 25.1544 52.2297 25.1544C52.9313 25.1544 54.1553 25.3669 54.7731 25.0534C55.6244 24.6214 56.4318 23.107 56.4318 22.2253C56.4318 20.3426 54.1274 20.2476 52.672 20.9122" stroke="#040D08" stroke-width="5" stroke-linecap="round"/>
</svg>
