<svg width="101" height="65" viewBox="0 0 101 65" fill="none" xmlns="http://www.w3.org/2000/svg">
<path d="M9.76776 42.4378C9.76776 43.1693 10.0515 43.7362 10.0515 44.4863C10.0515 44.9128 10.124 45.3246 10.1461 45.7249C10.1669 46.1021 10.3152 46.4088 10.3353 46.773C10.3707 47.4157 10.8217 48.1504 11.1392 48.7262C11.2716 48.9662 11.5847 49.2488 11.6542 49.4937C11.7581 49.8603 12.1662 49.7431 12.4581 49.8272C13.8833 50.2373 15.4948 50.3402 16.977 50.3935C17.8634 50.4254 18.8025 50.5793 19.6516 50.7694C20.082 50.8657 20.547 50.7792 20.9758 50.8752C21.4213 50.975 21.7754 51.0605 22.2526 51.0605C24.352 51.0605 26.4295 51.5369 28.5161 51.5369C29.7186 51.5369 30.9198 51.6322 32.1365 51.6322C32.7991 51.6322 33.6225 51.6907 34.2646 51.8703C34.8698 52.0397 35.4972 51.9075 36.1037 52.0186C38.1596 52.3951 40.3296 52.2223 42.3514 52.6749C42.756 52.7655 43.2076 52.6774 43.6072 52.7967C44.1781 52.967 44.9238 53.0446 45.5199 53.0613C46.1793 53.0798 46.8614 52.9911 47.5061 53.1354C47.8767 53.2184 48.2492 53.12 48.6201 53.2307C48.8342 53.2946 49.1982 53.3392 49.4188 53.3472C50.1392 53.3731 50.8432 53.5377 51.5732 53.5377C51.9454 53.5377 52.4433 53.5801 52.8028 53.6806C53.1606 53.7808 53.5447 53.6581 53.8957 53.7759C54.3819 53.9392 55.2265 54.0141 55.7401 54.0141C56.3818 54.0141 57.0426 54.1016 57.6738 54.1994C58.3241 54.3002 59.0493 54.281 59.7073 54.2999C60.2418 54.3153 60.7849 54.3952 61.3362 54.3952C62.1901 54.3952 63.0288 54.5858 63.8689 54.5858C64.8066 54.5858 65.7524 54.6811 66.7064 54.6811C67.7805 54.6811 68.8463 54.5858 69.9012 54.5858C70.6853 54.5858 71.4375 54.2999 72.2394 54.2999C73.1322 54.2999 74.1154 54.3934 74.9823 54.1994C76.6055 53.836 78.3164 53.629 79.9479 53.5377C80.6369 53.4992 81.5814 53.5902 82.2652 53.4371C82.6978 53.3403 83.1307 53.2519 83.5841 53.2519C83.7823 53.2519 84.5603 53.1607 84.677 53.0137C84.7961 52.8637 85.5535 52.9248 85.7595 52.8655C85.9504 52.8105 86.533 52.7966 86.6633 52.6326C86.7041 52.5812 87.0224 52.5156 87.0941 52.495C87.3569 52.4193 87.4163 52.4201 87.5618 52.1562C87.764 51.7895 87.4786 51.5635 87.3253 51.2934C87.1797 51.0366 87.1362 50.4964 87.1362 50.203C87.1362 49.8182 87.0624 49.5316 87.0416 49.1549C87.0227 48.8117 86.7004 48.4928 86.5477 48.2021C86.3928 47.9074 86.2061 47.5234 85.9802 47.2705C85.7334 46.9944 85.6351 46.9174 85.2918 46.7253C84.9395 46.5281 84.5275 46.6823 84.1621 46.5771C83.7566 46.4604 83.271 46.4 82.8327 46.3019C82.4188 46.2092 81.8381 46.106 81.4192 46.106C80.5798 46.106 79.4858 45.5709 78.7183 45.2273C77.821 44.8256 76.8701 44.696 75.9544 44.4122C75.0788 44.1408 74.1741 43.8342 73.2798 43.6341C72.3484 43.4255 71.4846 42.9887 70.537 42.7765C68.7373 42.3737 67.0663 41.4517 65.2876 40.9398C64.3918 40.682 63.4491 40.3506 62.5973 39.9605C62.2188 39.7872 61.7439 39.5547 61.3625 39.4365C61.0265 39.3324 60.3032 39.0912 60.0856 38.8172C59.8612 38.5346 59.0909 38.3865 58.7825 38.1979C58.29 37.8967 57.7485 37.7088 57.2481 37.4568C56.3414 37.0001 54.7139 36.5236 53.7606 36.168" stroke="#040D08" stroke-width="5" stroke-linecap="round"/>
<path d="M11.048 48.9585C11.048 49.6512 10.8847 50.4561 11.4053 50.9805C11.62 51.1967 12.032 51.1849 12.3249 51.2505C12.7444 51.3444 13.141 51.5285 13.5544 51.621C15.2071 51.991 16.991 52.2932 18.7144 52.2932C19.7195 52.2932 20.7333 52.6212 21.7358 52.6744C22.6768 52.7242 23.5794 52.7696 24.5312 52.7696C26.1867 52.7696 27.7942 53.0555 29.4443 53.0555C31.4744 53.0555 33.4481 53.0846 35.445 53.336C36.5408 53.474 37.6627 53.7595 38.7606 53.8177C39.1512 53.8384 39.4726 53.913 39.8483 53.913C40.1619 53.913 40.8007 53.9008 41.0779 54.0559C41.3421 54.2038 41.8656 54.1035 42.1656 54.1035C42.5524 54.1035 42.9023 54.1988 43.3006 54.1988C44.0312 54.1988 44.7364 54.2941 45.4287 54.2941C46.2217 54.2941 46.9799 54.4846 47.746 54.4846C48.5225 54.4846 49.3009 54.8658 50.0632 54.8658C50.8464 54.8658 51.6773 55.1516 52.4751 55.1516C53.3471 55.1516 54.18 55.5327 55.0498 55.5327C55.8589 55.5327 56.6238 55.8185 57.4407 55.8185C58.1209 55.8185 58.8452 55.9138 59.5688 55.9138C61.2098 55.9138 62.9266 56.1119 64.5816 56.1997C66.1446 56.2825 67.586 55.9138 69.1216 55.9138C70.6999 55.9138 72.3442 55.4374 73.9453 55.4374C74.7198 55.4374 75.5036 55.1516 76.2678 55.1516C76.7098 55.1516 77.142 55.0696 77.5605 54.9399C77.9335 54.8242 78.4272 54.9024 78.769 54.7493C79.1346 54.5856 79.7408 54.4846 80.1405 54.4846C80.5624 54.4846 80.9683 54.2941 81.37 54.2941C81.7529 54.2941 82.0848 54.1988 82.4577 54.1988C82.7571 54.1988 83.4071 54.1549 83.6873 54.0294C83.9538 53.9101 84.5268 53.9608 84.8223 53.9183C85.1939 53.8648 85.6397 54.0112 85.9993 53.9077C86.6372 53.7241 87.3306 53.7453 87.9435 53.4366" stroke="#040D08" stroke-width="5" stroke-linecap="round"/>
<path d="M11.2811 52.3946C11.2811 53.0018 11.0919 53.6381 11.0919 54.3002C11.0919 54.7484 10.8974 55.8893 11.1655 56.2269C11.291 56.385 11.1865 57.0013 11.1865 57.2062C11.1865 57.4211 11.5325 57.7193 11.6384 57.9208C11.8827 58.3855 12.5312 58.6922 12.9836 58.8947C13.6466 59.1916 14.4146 59.3892 15.138 59.4452C15.8448 59.5 16.5287 59.7842 17.2398 59.8263C17.8616 59.8632 18.5822 60.2074 19.226 60.2074C20.0245 60.2074 20.8198 60.3027 21.6326 60.3027C23.1216 60.3027 24.4703 60.3235 25.8888 60.5833C27.2179 60.8267 28.594 60.7791 29.9611 60.7791C31.284 60.7791 32.6747 60.6838 34.0282 60.6838C34.8948 60.6838 35.7992 60.8744 36.6818 60.8744C37.6031 60.8744 38.5244 60.8744 39.4457 60.8744C42.5718 60.8744 45.7079 61.2555 48.8303 61.2555C50.1889 61.2555 51.5669 61.3508 52.8974 61.3508C54.3192 61.3508 55.7056 61.5413 57.1063 61.5413C59.9955 61.5413 62.8261 61.6366 65.7133 61.6366C66.469 61.6366 67.2062 61.4461 67.9885 61.4461C68.6557 61.4461 69.372 61.2555 70.0641 61.2555C70.7752 61.2555 71.5006 61.065 72.1922 61.065C72.9047 61.065 73.5678 61.0091 74.273 60.9697C75.0603 60.9256 75.8285 60.6838 76.6376 60.6838C77.4874 60.6838 78.3386 60.3479 79.1913 60.3027C79.528 60.2849 79.9291 60.0853 80.2737 60.0222C80.6253 59.9578 81.1138 59.9216 81.4613 59.9216C81.6728 59.9216 82.2683 59.8828 82.4544 59.7787C82.7398 59.619 83.1581 59.7442 83.4475 59.6146C84.1159 59.3154 84.956 59.4791 85.6229 59.1806C85.907 59.0533 86.5297 58.9188 86.8472 58.8788C87.0972 58.8474 87.6397 58.7717 87.8193 58.6089C88.0815 58.3711 88.6671 58.4296 88.9806 58.2542C89.2249 58.1175 89.7873 57.9365 90.0683 57.9208C90.4298 57.9005 90.8016 57.709 91.156 57.6296C91.361 57.5837 91.5538 57.4662 91.7708 57.4444C92.0193 57.4193 92.4415 57.4034 92.664 57.3015C93.886 56.7419 95.262 56.6022 96.4473 55.9199C97.6715 55.2152 98.1078 53.9701 98.1078 52.6328C98.1078 52.3837 97.8727 51.8374 97.7084 51.6536C97.5248 51.4481 97.6275 51.0664 97.493 50.8225C97.3605 50.5823 97.3663 50.0979 97.3511 49.8221C97.3332 49.4963 97.1234 49.0713 97.0621 48.7317C96.9562 48.145 96.4373 47.752 96.316 47.2019C96.1905 46.633 95.9274 45.8618 95.5751 45.4181C95.2536 45.0134 95.0227 44.6681 94.5872 44.3171C94.1157 43.9371 93.4982 43.8204 93.0003 43.5549C92.5774 43.3293 91.7841 43.0861 91.2978 43.0573C91.0486 43.0425 90.7455 42.7715 90.4939 42.7715C90.2474 42.7715 89.7634 42.6592 89.5743 42.5068C89.4075 42.3724 88.8281 42.4486 88.6075 42.3851C88.316 42.3012 87.8897 42.3043 87.6091 42.1786C87.0315 41.92 86.1674 42.0093 85.5283 42.0093C84.8107 42.0093 84.0244 41.657 83.2794 41.6281C82.9034 41.6136 82.5225 41.5329 82.1654 41.5329C81.9535 41.5329 81.1654 41.3747 81.1775 41.3899C81.3129 41.5604 81.6463 41.6664 81.8186 41.8399C82.014 42.0367 82.1533 42.2375 82.3125 42.438C82.4846 42.6547 82.6728 42.8909 82.859 43.0785C83.0529 43.2738 83.4081 43.5305 83.5421 43.7666C83.6562 43.9677 83.9056 44.2058 84.036 44.37C84.1683 44.5366 84.4665 44.9672 84.6245 45.0582C84.8556 45.1912 85.0413 45.627 85.2446 45.8204C85.5157 46.0783 85.8436 46.3683 86.0012 46.7255C86.2672 47.3285 86.6791 47.8332 86.9471 48.4406C87.2412 49.1073 87.3103 49.9091 87.6564 50.5367C87.8055 50.807 87.781 51.3188 87.7983 51.6324C87.8162 51.9563 87.8929 52.2848 87.8929 52.6328C87.8929 53.2312 88.1766 53.8721 88.1766 54.4907" stroke="#040D08" stroke-width="5" stroke-linecap="round"/>
<path d="M88.2712 54.9669C88.2712 55.4673 88.3006 55.6631 88.8387 55.4221C89.2943 55.2182 89.741 55.1725 90.2102 55.0675C90.6129 54.9773 91.0735 54.8948 91.4871 54.8716C91.9093 54.848 92.3181 54.4905 92.7167 54.4905C93.1438 54.4905 93.5719 54.1094 93.9936 54.1094C94.4101 54.1094 94.7775 53.7755 95.1759 53.7283C95.4391 53.6971 96.0123 53.3449 96.2636 53.2043C96.6204 53.0046 96.9254 52.8075 97.2568 52.585" stroke="#040D08" stroke-width="5" stroke-linecap="round"/>
<path d="M66.3753 35.3926C66.9981 35.7304 67.7083 36.1465 68.3668 36.3877C69.4949 36.8009 70.5107 37.4345 71.6248 37.9333C72.115 38.1528 72.6336 38.2756 73.0909 38.5315C73.5571 38.7924 74.1051 39.1909 74.6095 39.336C74.9933 39.4465 75.6991 39.7473 75.9967 39.9871C76.1131 40.0809 76.6298 40.2442 76.7849 40.2888C77.0281 40.3588 77.2542 40.4007 77.4891 40.5059C77.7562 40.6254 78.1015 40.7012 78.3876 40.7652C78.6666 40.8277 79.0115 41.041 79.2862 41.0564C79.8631 41.0886 80.3896 41.4375 80.9887 41.4375" stroke="#040D08" stroke-width="5" stroke-linecap="round"/>
<path d="M46.3392 50.9436C46.8358 50.4434 47.5209 49.8574 47.8771 49.2474C48.5538 48.0886 49.4116 47.0828 50.0672 45.8941C50.2558 45.5521 50.5204 45.12 50.7875 44.8352C51.0455 44.5599 51.1383 44.1443 51.4007 43.8645C51.8757 43.3579 52.1004 42.6325 52.559 42.1192C52.9982 41.6276 53.47 40.9949 53.7854 40.423C54.105 39.8434 54.8756 39.3639 55.0799 38.7463" stroke="#040D08" stroke-width="6" stroke-linecap="round"/>
<path d="M53.3469 52.029C53.5143 51.771 53.6971 51.4946 53.8508 51.2313C54.1499 50.7191 54.8048 50.3539 55.0476 49.8037C55.5754 48.6074 56.7105 47.7274 57.2342 46.5404C57.3704 46.2319 57.7363 45.9758 57.9226 45.6838C58.095 45.4137 58.4057 45.109 58.53 44.8272C58.765 44.2946 59.1578 43.8277 59.4389 43.318C59.7032 42.8387 60.1286 42.4421 60.3927 41.9764C60.5249 41.7434 60.9846 41.062 61.2026 40.9521" stroke="#040D08" stroke-width="6" stroke-linecap="round"/>
<path d="M61.2585 52.9618C61.2585 52.6403 61.6368 52.5443 61.7639 52.3009C61.926 51.9909 62.1338 51.8156 62.352 51.547C62.4739 51.3969 62.8128 50.987 62.8331 50.803C62.8792 50.3851 63.4783 49.8063 63.7272 49.4812C64.1628 48.9125 64.5913 48.3694 64.9713 47.7679C65.9722 46.1836 67.4213 44.9076 68.2564 43.2251" stroke="#040D08" stroke-width="6" stroke-linecap="round"/>
<path d="M19.137 39.8215C19.4405 39.8555 20.349 40.3798 20.5712 40.5589C20.7803 40.7274 21.514 40.9454 21.7798 40.9612C22.1532 40.9833 22.5091 41.247 22.9148 41.247C23.3424 41.247 23.7829 41.3678 24.239 41.3423C24.544 41.3252 25.314 41.0516 25.5422 40.8447C25.6768 40.7227 25.8722 40.7028 26.0151 40.5589C26.1341 40.439 26.2746 40.2129 26.4145 40.1249C26.8144 39.873 27.6441 38.8584 27.6441 38.3887" stroke="#040D08" stroke-width="7" stroke-linecap="round"/>
<path d="M78.5292 42.4856C78.5014 42.1779 78.4185 41.8716 78.34 41.5752C78.2688 41.3059 78.0215 41.0654 77.967 40.8182C77.9012 40.5202 77.7566 40.0929 77.4888 39.9131" stroke="#040D08" stroke-linecap="round"/>
<path d="M75.5968 45.1882C75.5968 44.4259 77.1748 43.6106 77.7052 43.1734C78.4889 42.5275 79.5301 42.5932 80.4177 42.2952" stroke="#040D08" stroke-width="3" stroke-linecap="round"/>
<path d="M78.674 42.0885C78.0729 41.5503 77.2161 41.5719 76.4687 41.5719C75.7702 41.5719 75.394 41.7778 74.7763 41.9852" stroke="#040D08" stroke-width="3" stroke-linecap="round"/>
<path d="M70.9812 43.225C71.0663 42.4539 72.0493 41.6325 72.5768 41.1011C73.0341 40.6405 73.6897 40.022 74.3661 40.022" stroke="#040D08" stroke-width="3" stroke-linecap="round"/>
<path d="M70.6735 40.2286C70.8413 40.2098 70.947 40.051 71.0895 39.9703C71.4614 39.7596 71.8661 39.6428 72.2406 39.4192C72.5638 39.2263 72.9872 39.2106 73.3404 39.092" stroke="#040D08" stroke-width="3" stroke-linecap="round"/>
<path d="M66.6733 40.952C67.1067 40.855 67.3718 39.9917 67.8016 39.7753C68.204 39.5726 68.4493 39.3697 68.7761 39.0405C69.4234 38.3884 70.0972 38.3689 70.9814 38.3689" stroke="#040D08" stroke-width="3" stroke-linecap="round"/>
<path d="M65.1279 38.5236C65.9152 38.2698 66.6134 37.7818 67.3788 37.4445C67.9674 37.1851 68.4925 37.1804 69.1282 37.1804" stroke="#040D08" stroke-width="3" stroke-linecap="round"/>
<path d="M62.1603 39.0922C62.2774 38.0306 63.3808 37.6075 63.9497 36.8707C64.5882 36.0437 65.6156 36.393 66.3658 35.8892" stroke="#040D08" stroke-width="3" stroke-linecap="round"/>
<path d="M61.6475 36.3024C62.2335 36.3024 62.794 35.5221 63.2658 35.2347C63.8362 34.8873 64.4669 34.8307 65.0323 34.5459" stroke="#040D08" stroke-width="3" stroke-linecap="round"/>
<path d="M8.22439 33.8056C8.18951 33.3329 7.90451 32.7921 7.76877 32.3387C7.67229 32.0164 7.74151 31.6363 7.60277 31.321C7.42756 30.9228 7.42167 30.4079 7.35466 29.9824C7.25989 29.3807 7.11545 28.7982 6.91021 28.2269C6.65812 27.5252 6.58132 26.7429 6.3939 26.0255C6.21465 25.3393 6.12577 24.621 5.94781 23.9398C5.75736 23.2107 5.46033 22.481 5.40591 21.7435C5.36884 21.2412 5.49599 20.2357 4.80178 20.2877C4.36546 20.3204 3.40835 20.0141 3.36913 19.4826C3.34665 19.1781 3.15036 18.8937 3.12735 18.5818C3.10095 18.224 3.07455 17.8663 3.04815 17.5085C3.01412 17.0475 3.58661 16.6064 3.92903 16.3798C4.37983 16.0814 5.18085 15.9978 5.696 16.1722C6.32917 16.3867 7.2113 16.8815 7.32362 17.6397C7.3685 17.9427 7.44395 18.2391 7.44989 18.559C7.45488 18.8275 7.37201 19.0873 7.39318 19.3742C7.43615 19.9565 7.76968 20.2563 8.03376 20.7521C8.31266 21.2757 8.70341 21.7526 9.06396 22.2185C9.29981 22.5232 9.52454 22.8243 9.7305 23.1562C9.91815 23.4586 10.1701 23.7175 10.3217 24.0406C10.4871 24.3933 10.8145 24.7112 11.0267 25.0605C11.2126 25.3664 11.4727 25.5946 11.6598 25.896C11.783 26.0946 12.092 26.3985 12.1357 26.6256C12.1557 26.7298 12.4383 27.0913 12.5232 27.1264" stroke="#040D08" stroke-width="5" stroke-linecap="round"/>
<path d="M7.7831 34.957C8.09162 34.9024 8.48781 34.232 8.69235 33.9929C9.16949 33.435 9.74892 33.2389 10.43 32.9929C12.229 32.3429 14.0243 31.6144 15.9128 31.2742C17.0832 31.0634 18.2603 30.8356 19.4275 30.599C20.2498 30.4323 21.0786 30.092 21.9099 30.0141C22.9609 29.9157 24.0406 29.6174 25.0793 29.4105C25.8984 29.2474 26.7422 29.1524 27.551 28.9442C28.4169 28.7214 29.3343 28.6708 30.2143 28.5224C31.0485 28.3817 31.8835 28.2897 32.7196 28.1582C33.6822 28.0069 34.6742 27.9399 35.6458 27.8672C36.6193 27.7943 37.5898 27.6627 38.56 27.5901C39.8313 27.4949 41.1017 27.3409 42.3782 27.2453C43.7574 27.142 45.1459 27.0162 46.5301 26.9344C48.0942 26.842 49.6764 26.8663 51.2404 26.8891C52.1803 26.9028 53.1179 26.798 54.0578 26.7958C55.0143 26.7936 55.9667 26.7552 56.9247 26.7577C58.0668 26.7607 59.209 26.6827 60.3513 26.7366C61.3224 26.7824 62.3262 26.904 63.2948 26.8563C64.3911 26.8022 65.5263 26.9943 66.6255 27.032C67.8775 27.075 69.1331 27.1949 70.3836 27.2804C71.1244 27.331 71.8305 27.6339 72.5665 27.7382C73.2295 27.8323 73.7922 27.8817 74.3703 28.2507C75.0365 28.6759 75.8628 28.9122 76.5506 29.2908C76.892 29.4787 76.8027 30.3313 76.8277 30.6697C76.8809 31.3905 76.2301 31.4263 75.6774 31.2268C75.5034 31.164 75.3623 30.9381 75.2288 30.8222C74.9868 30.6122 74.5334 30.5442 74.2383 30.4222C73.7534 30.2217 73.0952 30.1107 72.5777 30.0462C71.9839 29.9721 71.3954 29.8307 70.8008 29.7672C70.1131 29.6937 69.4381 29.547 68.7595 29.423C68.0222 29.2882 67.1637 29.3298 66.4123 29.3338C65.5366 29.3386 64.6701 29.1918 63.7937 29.1735C62.8657 29.1541 61.9691 29.1335 61.043 29.2029C59.3734 29.3279 57.6802 29.259 56.0086 29.1678C54.5524 29.0883 53.0905 29.3154 51.6305 29.3158C50.032 29.3162 48.4292 29.441 46.831 29.5607C45.5757 29.6547 44.3216 29.6309 43.0708 29.7246C40.7239 29.9003 38.3533 29.9865 36.0263 30.3404C34.3421 30.5965 32.6771 30.9149 30.9781 31.0421C28.906 31.1973 26.7895 31.245 24.7537 31.6848C23.2288 32.0143 21.7935 32.7895 20.2243 32.907C18.7214 33.0195 17.2835 33.1376 15.814 33.4988C15.0852 33.678 14.3774 33.9113 13.6597 34.1311C13.2338 34.2615 12.7212 34.3237 12.3211 34.5125C11.9467 34.6893 11.5106 34.855 11.1115 34.9694C10.7871 35.0624 10.4385 35.1344 10.1465 35.3098C9.76772 35.5374 9.39677 35.7492 8.97037 35.8688C8.6987 35.945 8.47781 36.2 8.19776 36.221C8.01744 36.2345 7.77429 35.7853 7.71954 35.6354C7.61946 35.3613 7.79151 35.2265 7.84554 35.0112" stroke="#040D08" stroke-width="5" stroke-linecap="round"/>
<path d="M12.5264 27.185C12.3849 25.2675 12.3013 23.3418 12.159 21.4145C12.1175 20.8517 11.5671 20.5205 11.5237 19.9316C11.5014 19.6299 11.3507 19.3844 11.474 19.0818C11.5568 18.8785 11.8004 18.6961 11.9818 18.5728C12.4326 18.2666 13.1415 17.9661 13.6305 18.3905C13.8744 18.6022 14.1259 18.7159 14.341 18.9554C14.504 19.137 14.4728 19.5735 14.566 19.8051C14.6635 20.0473 14.6505 20.2887 14.6026 20.5218C14.5852 20.6066 14.5002 20.6727 14.5072 20.7677C14.5174 20.9068 14.7745 21.1056 14.8873 21.1677C14.9513 21.2029 15.0132 21.374 15.0251 21.4516C15.043 21.5679 15.1896 21.7258 15.2576 21.8299C15.3441 21.9627 15.4826 22.2493 15.6139 22.3036" stroke="#040D08" stroke-width="5" stroke-linecap="round"/>
<path d="M12.0867 26.747C12.1238 26.96 12.4632 27.2236 12.5776 27.4166C12.732 27.6774 12.9233 27.9429 13.0115 28.2377C13.2173 28.9253 13.757 29.4218 14.0266 30.0714C14.1383 30.3407 14.3051 30.543 14.4585 30.7782C14.6393 31.0554 14.6047 30.7789 14.5882 30.5559C14.5567 30.1294 14.6797 29.5467 14.7451 29.1183C14.8399 28.497 15.0085 27.886 15.1014 27.2603C15.3398 25.6545 15.5941 24.0597 15.8901 22.4627C16.0817 21.4291 16.0863 20.3444 16.1855 19.2947C16.2968 18.1164 16.4608 16.9518 16.6242 15.7823C16.6947 15.2785 16.7953 14.7784 16.8602 14.2734C16.8867 14.0678 16.9952 13.5812 16.9422 13.4039C16.8617 13.1351 16.4766 12.9186 16.3093 12.7025C16.0996 12.4314 16.0087 12.1265 15.8363 11.8353C15.6336 11.493 15.5516 11.1451 15.5218 10.7404C15.5027 10.4817 15.3895 10.0241 15.5098 9.78643C15.6637 9.4824 15.8739 9.35877 16.0434 9.09897C16.15 8.93559 16.5048 8.55509 16.7009 8.50688C17.2033 8.38339 17.7693 8.25028 18.3022 8.21038C19.6536 8.10918 20.4889 9.16004 20.5833 10.4399C20.6317 11.0955 20.5149 11.6906 20.2985 12.2991C20.0347 13.0407 20.9721 13.5085 21.247 14.0659C21.5035 14.5862 21.9187 15.0637 22.2182 15.5694C22.5616 16.1494 22.9079 16.7492 23.2225 17.3452C23.4136 17.7073 23.6711 18.0388 23.9054 18.3732C24.1297 18.6933 24.2775 19.0539 24.5112 19.3678C24.9291 19.9291 25.2822 20.5458 25.6976 21.1037C26.5734 22.2801 27.2082 23.5898 28.0134 24.8153C28.3546 25.3347 28.6444 25.8934 29.0622 26.3588C29.3266 26.6533 29.5339 27.0314 29.6682 27.3991C29.6988 27.483 29.884 27.1055 29.9032 27.0643C30.0038 26.848 30.1485 26.6467 30.2695 26.4417C30.5215 26.0149 30.6925 25.4611 30.8339 24.9835C31.0456 24.2682 31.3099 23.5746 31.5544 22.8693C31.7366 22.3436 31.9529 21.8125 32.2572 21.3516C33.4272 19.5793 34.1077 17.4785 35.1112 15.5949C35.7664 14.365 36.4167 13.1315 37.1399 11.9405C37.624 11.1433 38.4257 10.1495 38.4282 9.16249C38.4289 8.89293 38.4967 8.61459 38.413 8.33954C38.3411 8.10362 38.1347 7.9417 38.0426 7.71978C37.9847 7.58013 37.954 7.44473 37.8823 7.30665C37.7015 6.95895 37.5849 6.328 37.5471 5.9321C37.5042 5.48304 37.3909 5.12464 37.5716 4.68104C37.7174 4.32334 37.9946 4.18037 38.2892 3.93403C38.6334 3.64616 39.0073 3.42242 39.463 3.3883C40.1863 3.33414 40.776 3.02359 41.5022 3.30754C42.2456 3.59818 42.9068 4.33252 43.1409 5.10118C43.2641 5.50588 43.3874 6.08966 43.3027 6.5018C43.232 6.84588 42.9982 7.08003 42.8688 7.39762C42.7438 7.70446 42.6593 7.90121 42.684 8.23556C42.7092 8.57796 42.9716 9.01709 43.1976 9.25665C43.8182 9.91455 44.1805 10.7448 44.6525 11.5088C44.9971 12.0665 45.3294 12.761 45.7946 13.2153C46.3458 13.7537 46.7675 14.4905 47.1672 15.1434C47.5439 15.7588 47.8818 16.3725 48.292 16.9689C48.7802 17.6787 49.0358 18.5279 49.4872 19.2634C49.9218 19.9715 50.3036 20.7288 50.7848 21.4064C51.2534 22.0662 51.7218 22.7525 52.1333 23.4474C52.4984 24.0639 52.9043 24.6573 53.2621 25.2825C53.4841 25.6705 53.7017 26.151 54.0462 26.4501C54.1626 26.5511 54.2968 25.7505 54.3405 25.6432C54.6318 24.9283 55.0328 24.2726 55.3869 23.5896C56.144 22.1293 56.7989 20.6177 57.5125 19.1367C58.2582 17.5889 58.8228 15.9644 59.5594 14.4084C60.1172 13.23 60.6284 12.0468 61.1069 10.8326C61.3899 10.1148 61.7724 9.36234 61.511 8.5655C61.3655 8.12187 61.0041 7.85569 60.9673 7.35699C60.9335 6.89871 60.7967 6.20911 61.027 5.78936C61.1189 5.62179 61.2957 5.52136 61.4188 5.38067C61.5468 5.23447 61.6774 4.98774 61.8363 4.8785C62.1533 4.66049 62.5644 4.35063 62.9702 4.40771C63.7534 4.51788 65.3313 4.78679 65.6266 5.73925C65.8971 6.61209 66.0487 7.64667 65.5337 8.44086C65.2873 8.82096 64.8766 9.10223 64.657 9.49411C64.5008 9.773 64.828 10.4552 64.9111 10.7374C65.2797 11.9895 65.7413 13.2045 66.082 14.4628C66.2964 15.2547 66.4406 16.0866 66.8082 16.8251C67.05 17.3108 67.0885 17.888 67.2494 18.4043C67.3812 18.8276 67.5308 19.2631 67.6938 19.6758C68.3362 21.3021 68.5354 23.0116 68.9701 24.6981C69.0971 25.1908 69.2396 25.6873 69.3745 26.1754C69.4666 26.5084 69.4795 26.5217 69.5802 26.2352C69.7152 25.8511 69.9973 25.5707 70.2313 25.2479C71.2409 23.8557 71.6537 22.2718 72.4422 20.7624C72.8475 19.9865 73.2554 19.208 73.6462 18.4256C73.9502 17.8171 74.0972 17.1254 74.4421 16.5412C74.8773 15.804 75.3122 14.9858 75.3704 14.1204C75.3978 13.7141 75.172 13.3838 75.1121 12.9952C75.0332 12.4834 74.9797 12.1909 75.1707 11.722C75.3213 11.3523 75.4501 11.071 75.7763 10.8656C76.0342 10.7032 76.4042 10.6289 76.7051 10.6064C77.6309 10.5371 78.585 10.6286 79.0545 11.5619C79.2559 11.9623 79.5351 12.6261 79.4201 13.0847C79.3319 13.4362 78.8852 13.7994 78.6548 14.0642C78.3838 14.3755 77.9017 14.6836 77.7965 15.103C77.6953 15.5065 77.6627 15.9792 77.5996 16.3931C77.522 16.9008 77.5634 17.5204 77.5904 18.0289C77.6242 18.6662 77.5664 19.328 77.5125 19.9641C77.4185 21.0735 77.2581 22.2011 77.057 23.2946C76.9538 23.856 76.8256 24.4134 76.654 24.9599C76.5023 25.4432 76.6278 26.0208 76.4614 26.4852C76.1426 27.3746 76.1955 28.4246 76.2644 29.3581" stroke="#040D08" stroke-width="5" stroke-linecap="round"/>
<path d="M26.8006 22.643C26.7449 21.8891 27.0411 21.1514 26.9851 20.3923C26.9634 20.0989 26.5769 19.9722 26.3865 19.7602C26.1914 19.5428 26.3073 19.2133 26.3804 18.9726C26.5531 18.4036 26.7199 18.0867 27.2805 17.8848C27.6095 17.7664 28.0085 17.7845 28.3555 17.7586C28.7093 17.7321 28.8718 18.0369 29.0229 18.3561C29.2325 18.7987 29.3574 19.2808 29.3935 19.7705C29.4261 20.2122 29.5629 20.4206 29.7501 20.8197C30.0145 21.3835 30.2067 21.9836 30.5324 22.5336C30.7409 22.8858 30.9934 23.2153 31.1917 23.5503" stroke="#040D08" stroke-width="5" stroke-linecap="round"/>
<path d="M51.2191 21.7563C50.8557 21.2868 51.6545 20.3634 51.902 19.9687C52.1329 19.6004 52.2335 19.2148 52.4355 18.8398C52.5924 18.5485 52.6239 18.4432 52.473 18.16C52.3442 17.9181 52.1001 17.8584 52.0768 17.5422C52.0374 17.0077 52.2764 16.3499 52.6789 16.0222C53.1739 15.6192 53.982 15.4941 54.5722 15.7235C55.0297 15.9013 55.4491 16.5201 55.4864 17.0252C55.5071 17.3067 55.4579 17.493 55.2708 17.7118C55.1699 17.8297 54.9064 17.8774 54.9227 18.0976C54.9612 18.6198 55.2545 19.0058 55.447 19.4841C55.6417 19.9678 55.9237 20.5759 55.9628 21.1068" stroke="#040D08" stroke-width="5" stroke-linecap="round"/>
<path d="M67.4298 18.129C67.4755 17.4508 68.5527 16.9601 68.0011 16.3236C67.6781 15.9509 67.8439 15.1271 68.0563 14.74C68.2471 14.3921 68.8798 14.1355 69.2691 14.1063C69.6892 14.0748 69.8967 14.2454 70.2561 14.415C70.6081 14.5812 70.8935 14.7236 70.9504 15.1577C71.024 15.7191 71.5128 16.3457 70.9186 16.7494C70.7521 16.8625 70.5323 16.9394 70.5196 17.1946C70.5 17.5888 70.5149 17.9663 70.5444 18.3667C70.6073 19.2184 70.5 20.1351 70.7074 20.9707C70.8834 21.6801 71.0777 22.4253 71.1311 23.1496" stroke="#040D08" stroke-width="5" stroke-linecap="round"/>
<path d="M11.4948 36.1505C10.7752 35.5967 9.84802 35.7748 9.53192 36.6507C9.28503 37.3349 9.73947 38.4091 10.501 38.5207C11.1543 38.6164 11.8237 38.2602 11.9803 37.5825C12.0268 37.3813 12.0086 36.9957 11.9481 36.7935C11.8868 36.5889 11.5742 36.4385 11.4453 36.272" stroke="#040D08" stroke-width="3" stroke-linecap="round"/>
<path d="M18.7889 34.4271C18.6246 33.8327 17.2354 33.5766 16.7439 33.6384C16.387 33.6833 15.9759 34.1194 15.7592 34.3727C15.5163 34.6567 15.4994 34.9867 15.5258 35.3451C15.5696 35.9388 16.0789 36.219 16.5799 36.3879C17.1086 36.5661 17.6296 36.652 18.1844 36.5293C18.4779 36.4644 18.8395 36.0446 18.8829 35.7445C18.9527 35.2613 19.2007 34.9852 18.6405 34.7914" stroke="#040D08" stroke-width="3" stroke-linecap="round"/>
<path d="M24.9563 32.4939C24.67 32.5688 24.3755 33.0234 24.3012 33.2951C24.2085 33.634 24.3434 33.965 24.5461 34.2382C25.0526 34.9208 26.7984 35.4009 27.4593 34.782C28.003 34.2728 27.5686 33.3776 27.1131 32.9504C26.7746 32.633 26.4189 32.5804 26.0045 32.4448C25.7867 32.3735 25.2428 32.2606 25.0639 32.3681" stroke="#040D08" stroke-width="3" stroke-linecap="round"/>
<path d="M35.7976 31.3288C34.9149 31.3949 35.2491 32.3248 35.5544 32.8284C36.0797 33.6954 37.5413 33.5213 38.0909 32.7988C38.2688 32.5648 38.5742 32.0776 38.3311 31.7866C38.1231 31.5377 37.7131 31.3829 37.4291 31.2655C36.6969 30.9628 36.0828 30.7863 35.3821 31.2422" stroke="#040D08" stroke-width="3" stroke-linecap="round"/>
<path d="M46.8177 30.209C46.59 30.2782 46.5478 31.1666 46.5501 31.3344C46.5558 31.7514 46.9357 32.0003 47.2974 32.1352C47.6999 32.2855 48.2209 32.3499 48.6531 32.3804C49.1674 32.4167 49.3218 32.4116 49.5754 31.945C49.7474 31.6286 49.7523 31.1745 49.7258 30.8154C49.6931 30.3728 49.184 30.1977 48.8074 30.0731C48.1779 29.8649 47.062 29.7604 46.5271 30.2308" stroke="#040D08" stroke-width="3" stroke-linecap="round"/>
<path d="M57.3253 30.0698C57.1061 30.326 56.8186 30.6359 56.8126 30.9977C56.8048 31.4772 57.2025 31.8262 57.5346 32.1144C58.1748 32.6701 59.2816 32.6759 59.7069 31.8569C60.0655 31.1663 59.7542 30.5107 59.1936 30.0477C58.946 29.8431 58.4052 29.9445 58.1142 29.9388C57.8703 29.9341 57.3504 29.8263 57.2091 30.0785" stroke="#040D08" stroke-width="3" stroke-linecap="round"/>
<path d="M66.9808 30.23C66.2466 30.2849 65.7943 31.2815 66.0661 31.9364C66.443 32.8446 67.5505 32.8125 68.2898 32.4577C68.8594 32.1845 69.2223 31.5231 68.9331 30.8634C68.5982 30.0992 67.7922 30.1102 67.0929 30.1626" stroke="#040D08" stroke-width="3" stroke-linecap="round"/>
<path d="M74.3765 31.5009C74.0982 31.5217 73.6538 31.5458 73.4249 31.716C73.2099 31.876 73.1108 32.1656 73.0078 32.398C72.672 33.1561 73.9185 33.5255 74.4557 33.5421C74.7758 33.552 75.1258 33.4902 75.4231 33.365C75.7893 33.2108 75.5326 32.6459 75.4378 32.3763C75.2356 31.8014 74.7476 31.7085 74.2194 31.7481" stroke="#040D08" stroke-width="3" stroke-linecap="round"/>
<path d="M76.4649 32.8748C76.4468 32.8762 76.748 32.9561 76.8266 33.0243C76.9572 33.1377 76.9796 33.5145 76.9913 33.6726C77.0066 33.8805 77.0475 34.0032 76.8496 34.1279C76.6719 34.2398 76.5779 34.2428 76.5234 34.4597" stroke="#040D08" stroke-width="5" stroke-linecap="round"/>
<path d="M8.42456 38.0877C8.21309 38.1035 7.9763 38.3646 7.99308 38.5921C8.02778 39.0623 8.22881 39.2017 8.63637 39.3702" stroke="#040D08" stroke-width="5" stroke-linecap="round"/>
<path d="M8.58458 36.3095C8.2122 36.3374 8.29921 37.1935 8.32134 37.4934C8.33603 37.6925 8.3306 37.8908 8.40973 38.0755C8.45287 38.1761 8.5561 38.2992 8.56359 38.4008C8.61017 39.032 8.71346 39.6399 8.7597 40.2665C8.79103 40.691 8.82759 41.2571 8.6559 41.6314C8.57737 41.8026 8.50291 42.1847 8.5065 42.3784C8.51111 42.6264 8.45781 42.9468 8.82083 42.6786C9.13724 42.4448 9.37655 42.113 9.70955 41.8762C10.3819 41.3982 11.4056 41.1382 12.1985 40.9835C13.2693 40.7746 14.2793 40.2458 15.3418 39.9829C16.858 39.6077 18.4016 39.3592 19.9371 39.0828C21.2893 38.8395 22.6387 38.6425 23.9862 38.348C25.699 37.9736 27.4574 37.8312 29.1876 37.566C30.0568 37.4328 30.9377 37.3709 31.8099 37.2487C32.6883 37.1256 33.5853 36.9762 34.4691 36.9024C36.2823 36.7509 38.0791 36.5143 39.894 36.3784C43.6013 36.1008 47.3087 35.8232 51.0161 35.5456C54.1774 35.3089 57.3355 35.4862 60.5025 35.3781C63.9407 35.2608 67.423 35.2799 70.8449 35.637C72.2565 35.7843 73.7263 36.0373 75.0905 36.4211C75.4754 36.5294 75.8809 36.6588 76.2548 36.8016C76.4114 36.8614 76.6686 36.9733 76.8384 36.9672C77.1197 36.9571 77.3582 37.0373 77.1256 36.6808C76.9939 36.4788 77.0071 36.2621 76.9888 36.0141C76.9621 35.6524 76.8612 35.6038 76.5635 35.3985C76.3508 35.2517 76.3834 34.9363 76.3664 34.7068C76.3244 34.1377 76.2652 33.3879 76.3906 32.8345C76.451 32.5675 76.39 32.1088 76.2433 31.8939C76.1337 31.7333 75.9576 31.3861 75.7672 31.3376" stroke="#040D08" stroke-width="5" stroke-linecap="round"/>
<path d="M5.05969 20.2093C5.04785 19.5715 6.61779 19.094 7.09565 19.2916" stroke="#040D08" stroke-width="5" stroke-linecap="round"/>
<path d="M17.0547 13.3089C17.0094 12.6959 18.0667 12.4489 18.5041 12.3715C18.9766 12.288 19.6402 12.0634 20.0837 12.3155" stroke="#040D08" stroke-width="5" stroke-linecap="round"/>
<path d="M38.5965 8.27987C39.4295 8.21749 40.2625 8.15512 41.0954 8.09274C41.396 8.07023 41.6816 7.9985 41.9724 7.92243C42.1526 7.8753 42.3163 7.90935 42.4772 7.81268" stroke="#040D08" stroke-width="5" stroke-linecap="round"/>
<path d="M61.6608 8.84866C61.8754 8.8326 62.0917 8.64853 62.3323 8.62179C62.543 8.59836 62.7598 8.58185 62.9715 8.57392C63.5928 8.55064 64.1454 8.88133 64.5021 9.34226" stroke="#040D08" stroke-width="5" stroke-linecap="round"/>
<path d="M75.7084 13.9182C76.4601 13.8619 77.4064 14.1811 77.6595 14.9524" stroke="#040D08" stroke-width="5" stroke-linecap="round"/>
<path d="M68.2562 16.6545C68.6685 16.6697 69.0691 16.7703 69.4896 16.7388C69.7608 16.7185 70.032 16.6982 70.3032 16.6779" stroke="#040D08" stroke-width="5" stroke-linecap="round"/>
<path d="M52.8109 17.9875C53.1046 18.0623 54.5146 18.381 54.684 17.9653" stroke="#040D08" stroke-width="5" stroke-linecap="round"/>
<path d="M26.9676 20.1587C27.6938 20.1774 28.3195 20.3182 28.9357 19.8343" stroke="#040D08" stroke-width="5" stroke-linecap="round"/>
<path d="M12.0612 20.8625C12.3847 20.8678 12.6886 21.0864 13.0203 21.013C13.1798 20.9778 13.6456 20.9508 13.7379 20.7958C13.9075 20.5111 14.0832 20.5131 14.3017 20.3415" stroke="#040D08" stroke-width="5" stroke-linecap="round"/>
</svg>
