<svg width="71" height="70" viewBox="0 0 71 70" fill="none" xmlns="http://www.w3.org/2000/svg">
<rect x="0.798096" width="70" height="70" rx="35" fill="#040D08"/>
<path d="M38.3994 21.7769C37.8408 21.1662 36.244 21.5588 35.4943 21.5393C35.0555 21.5278 32.6332 21.5096 32.2078 21.6173C31.7169 21.7416 32.9889 21.8866 32.4847 21.9219C31.2263 22.0102 30.1038 22.2928 28.8777 22.631C28.3173 22.7855 27.6051 23.0782 27.0105 23.1199C26.5556 23.1518 25.5443 23.3944 25.1854 23.655C24.9148 23.8514 24.2359 23.8055 23.9002 23.8824C23.3376 24.0113 22.8415 24.2514 22.3067 24.4257C21.7561 24.6052 21.0644 24.9864 20.638 25.3765C20.1452 25.8272 19.5145 26.0993 19.0228 26.5491C18.7092 26.8358 18.5838 27.0288 18.5146 27.2402C18.3163 27.8463 17.6627 28.3246 17.1218 28.6623V28.6623C15.9162 29.415 16.1619 32.4082 15.8589 33.7968V33.7968C15.8236 33.9587 15.8142 33.9921 15.8029 34.1575C15.6872 35.8509 16.2722 36.2156 16.3645 37.2437C16.3905 37.5331 16.4335 37.9746 16.4983 38.4568C16.6998 39.955 18.3976 42.5173 19.4179 43.6329V43.6329C19.752 43.9982 20.3194 44.2777 20.7286 44.5671C21.1812 44.8871 21.6366 45.1863 22.0727 45.5469C22.8922 46.2244 24.032 46.724 25.0239 47.1137C26.1813 47.5684 27.243 48.0932 28.4231 48.4992C28.9138 48.6681 27.6251 48.585 28.0992 48.7962C28.7059 49.0666 30.2759 49.1972 30.9395 49.2686C31.4437 49.3228 31.518 49.4041 32.0289 49.3395C32.4644 49.2844 33.4423 49.2328 33.8669 49.3674C34.2757 49.497 34.92 49.3758 35.3448 49.3869C35.9373 49.4024 36.5986 49.3808 37.1569 49.4816C39.5937 49.9217 41.1589 48.4465 43.5787 48.5789C44.6475 48.6373 45.7844 48.2531 46.7537 47.8418C47.3254 47.5992 47.9725 47.455 48.4532 47.0153C49.0351 46.4831 49.7611 45.966 50.4204 45.5292C51.534 44.7914 52.8573 44.0336 53.5999 42.8835C54.1633 42.011 54.9206 40.7231 55.0622 39.6754C55.2392 38.3658 55.7042 37.1682 55.7498 35.847C55.7964 34.4931 55.9428 33.0156 55.5792 31.6608C54.8358 28.8913 53.3473 27.5953 51.4146 25.4823C49.5224 23.4135 46.9586 21.9646 44.2989 21.1308C42.8551 20.6782 41.2905 19.3454 39.7872 19.0739C39.2587 18.9784 38.8591 19.2834 38.3183 19.2538C37.9088 19.2314 37.2254 19.1611 36.8308 19.0061" stroke="#F2F2F2" stroke-width="4" stroke-linecap="round"/>
<path d="M36.2702 50.3137C36.2702 51.194 36.2274 52.0732 36.2274 52.9558C36.2274 53.4809 36.3838 54.9887 36.3838 55.4997" stroke="#F2F2F2" stroke-width="4" stroke-linecap="round"/>
<path d="M25.8588 54.7033C26.2485 54.9085 26.5975 55.0409 27.0326 55.1362C27.9924 55.3466 28.9513 55.512 29.918 55.6839C31.4418 55.9548 32.9895 56.1853 34.535 56.2819C35.2564 56.327 35.9709 56.3705 36.6935 56.3705C37.2594 56.3705 37.8174 56.298 38.3809 56.298C39.4123 56.298 40.4422 56.0115 41.4475 55.8067C42.4913 55.5941 43.5647 55.5406 44.6047 55.3114C45.4116 55.1336 46.2416 54.9644 47.0249 54.7033C47.3356 54.5997 47.6704 54.562 47.9673 54.4214C48.1293 54.3447 48.2515 54.235 48.4022 54.1597" stroke="#F2F2F2" stroke-width="4" stroke-linecap="round"/>
<path d="M25.2064 55.1746C24.6163 55.8237 24.1513 56.5867 23.4869 57.1659C22.3411 58.1648 21.1833 59.1422 20.0055 60.1037C18.9324 60.9796 17.8852 61.8917 16.798 62.7494C16.003 63.3765 15.0486 63.9085 14.0797 64.1992" stroke="#F2F2F2" stroke-width="4" stroke-linecap="round"/>
<path d="M48.366 54.4497C49.1141 55.1979 50.0071 55.6175 50.903 56.1531C51.3581 56.4252 51.8368 56.7383 52.2521 57.0673C52.821 57.518 53.4787 57.8296 54.0904 58.217C54.6732 58.5861 55.2991 58.886 55.9207 59.1815C56.5103 59.4618 57.0666 59.8093 57.6624 60.0835C59.0602 60.727 60.5142 61.0865 61.9935 61.4809" stroke="#F2F2F2" stroke-width="4" stroke-linecap="round"/>
<path d="M26.3044 30.5256C26.3044 31.1241 27.7063 31.2035 28.1165 31.2932C29.15 31.5193 30.2249 31.7148 31.2875 31.7148" stroke="#F2F2F2" stroke-width="4" stroke-linecap="round"/>
<path d="M40.9706 32.5076C41.8998 32.4587 42.6646 31.8902 43.4684 31.4883C43.9395 31.2528 44.418 31.1311 44.903 30.9472C45.199 30.8349 45.4841 30.6822 45.7838 30.5823" stroke="#F2F2F2" stroke-width="4" stroke-linecap="round"/>
<path d="M31.3441 40.945C33.114 40.945 34.953 41.1774 36.711 40.9576C37.031 40.9176 37.3586 40.9601 37.68 40.9324C38.3372 40.8759 39.0088 40.7751 39.6682 40.7751" stroke="#F2F2F2" stroke-width="4" stroke-linecap="round"/>
</svg>
