<svg width="39" height="34" viewBox="0 0 39 34" fill="none" xmlns="http://www.w3.org/2000/svg">
<path d="M28.5328 3.16471C28.4049 2.62378 26.4721 2.25959 26.1204 2.22416C24.4182 2.05269 22.4372 1.71875 20.8181 2.46801C19.3229 3.15993 18.2928 4.61772 17.8953 6.29985C17.3837 8.4644 17.2695 10.4975 17.2695 12.7356C17.2695 14.8542 19.1997 17.23 20.6782 18.5095C21.912 19.5773 23.3125 20.693 24.7537 21.4269C26.5421 22.3378 28.364 22.7802 30.3771 22.5329C32.0183 22.3314 34.5857 21.9784 35.4982 20.2513C36.6645 18.0438 36.9802 15.4672 36.9802 12.9011C36.9802 11.8173 37.0708 10.6908 36.865 9.62659C36.6288 8.40545 36.0477 7.49655 35.4982 6.45661C34.8226 5.17782 33.5571 4.05082 32.3202 3.44339C31.2003 2.89342 29.5072 2.38092 28.2364 2.38092" stroke="#040D08" stroke-width="4" stroke-linecap="round"/>
<path d="M19.9104 19.9696C19.7605 20.7627 18.9607 21.7068 18.4724 22.2897C17.6267 23.2992 16.5772 24.1553 15.5091 24.8863C13.8745 26.005 12.0458 26.8562 10.3379 27.8517C9.30025 28.4564 8.3061 29.1364 7.29469 29.7876C5.67368 30.8313 3.85348 31.608 2 32.0001" stroke="#040D08" stroke-width="4" stroke-linecap="round"/>
</svg>
