<svg width="55" height="79" viewBox="0 0 55 79" fill="none" xmlns="http://www.w3.org/2000/svg">
<path d="M35.4344 1C34.132 1.39641 33.4516 3.45813 32.8391 4.50044C30.3308 8.76914 27.5023 12.9109 24.6562 16.9534C21.4879 21.4535 18.1026 25.8756 15.2825 30.6144C13.1091 34.2665 15.418 32.7142 17.1755 30.8932C26.1541 21.5902 35.5422 11.0983 47.6782 6.17322C49.8354 5.2978 46.6387 7.65264 46.4264 7.87698C42.8952 11.6078 39.6683 15.633 36.3504 19.5555C32.7194 23.8482 22.9494 37.309 25.0531 32.0703C27.1525 26.8422 31.3886 21.7778 34.3352 16.9843C36.2398 13.886 43.029 5.47816 40.2892 7.846C28.5908 17.9563 18.1746 29.639 7.03851 40.3723C3.13796 44.1317 8.60748 38.2417 9.2369 37.5843C14.0419 32.566 18.6581 27.3605 23.4959 22.3744C26.2381 19.5482 29.037 17.3531 26.2134 22.7151C22.9747 28.8654 19.7012 35.2263 15.0688 40.4342C13.1125 42.6335 7.32425 46.2886 9.54224 49.8823C13.5407 56.3609 21.5176 61.9488 27.4958 66.3003C34.335 71.2787 42.3363 74.8346 50.3346 77.4522C50.9549 77.6552 51.5838 77.8462 52.2277 77.9478C53.5727 78.1601 53.1375 77.6914 52.2582 77.1424C48.7645 74.9611 44.5431 73.5947 40.7472 72.1241C29.9893 67.9562 18.6503 64.8777 8.25984 59.7951C7.81256 59.5763 -1.6085 54.2093 2.76386 52.9801C8.60622 51.3375 17.3039 57.3157 22.2441 59.6712C28.4231 62.6174 34.7439 65.5525 40.6251 69.0883C46.8008 72.8012 28.4029 61.4439 22.3662 57.5028C16.0111 53.3538 9.70179 49.1336 3.46612 44.802C2.76025 44.3117 2.05425 43.8213 1.35933 43.3151C-0.0211422 42.3096 4.16336 45.2639 5.57291 46.227C16.0264 53.3695 27.7423 59.2161 37.5717 67.2297C37.8579 67.463 38.246 67.6737 38.3351 68.0351C38.5515 68.9132 36.6315 67.4754 35.8314 67.0748C32.2639 65.2886 28.8561 63.2011 25.5417 60.9722C19.0835 56.6293 12.3933 51.9615 7.03851 46.227C2.89164 41.7861 12.2506 50.4665 12.7177 50.8736C20.449 57.6121 29.0461 62.8189 37.6939 68.2209C39.5765 69.3969 44.4272 71.661 45.3272 73.4871" stroke="#95B3BF" stroke-width="2" stroke-linecap="round"/>
</svg>
