<svg width="55" height="79" viewBox="0 0 55 79" fill="none" xmlns="http://www.w3.org/2000/svg">
<path d="M18.7456 78C20.048 77.6036 20.7285 75.5419 21.3409 74.4996C23.8492 70.2309 26.6778 66.0891 29.5238 62.0466C32.6922 57.5465 36.0774 53.1244 38.8975 48.3856C41.071 44.7335 38.762 46.2858 37.0045 48.1068C28.0259 57.4098 18.6378 67.9017 6.50178 72.8268C4.3446 73.7022 7.5413 71.3474 7.75364 71.123C11.2848 67.3922 14.5118 63.367 17.8296 59.4445C21.4607 55.1518 31.2306 41.691 29.1269 46.9297C27.0275 52.1578 22.7914 57.2222 19.8448 62.0157C17.9402 65.114 11.151 73.5218 13.8908 71.154C25.5892 61.0437 36.0054 49.361 47.1415 38.6277C51.0421 34.8683 45.5725 40.7583 44.9431 41.4157C40.1381 46.434 35.5219 51.6395 30.6841 56.6256C27.9419 59.4518 25.143 61.6469 27.9666 56.2849C31.2053 50.1346 34.4788 43.7737 39.1113 38.5658C41.0676 36.3665 46.8558 32.7114 44.6378 29.1177C40.6393 22.6391 32.6624 17.0512 26.6842 12.6997C19.845 7.72132 11.8437 4.16544 3.84538 1.54781C3.22516 1.34482 2.59627 1.1538 1.95232 1.05217C0.60734 0.839907 1.04255 1.30864 1.92179 1.85758C5.41555 4.03886 9.63692 5.4053 13.4328 6.87592C24.1908 11.0438 35.5297 14.1223 45.9202 19.2049C46.3675 19.4237 55.7885 24.7907 51.4162 26.0199C45.5738 27.6625 36.8762 21.6843 31.936 19.3288C25.7569 16.3826 19.4361 13.4475 13.555 9.9117C7.37927 6.1988 25.7771 17.5561 31.8138 21.4972C38.1689 25.6462 44.4782 29.8664 50.7139 34.198C51.4198 34.6883 52.1258 35.1787 52.8207 35.6849C54.2012 36.6904 50.0167 33.7361 48.6071 32.773C38.1536 25.6305 26.4378 19.7839 16.6083 11.7703C16.3221 11.537 15.934 11.3263 15.8449 10.9649C15.6286 10.0868 17.5486 11.5246 18.3487 11.9252C21.9161 13.7114 25.324 15.7989 28.6384 18.0278C35.0965 22.3707 41.7867 27.0385 47.1415 32.773C51.2884 37.2139 41.9295 28.5335 41.4623 28.1264C33.7311 21.3879 25.1339 16.1811 16.4861 10.7791C14.6035 9.60305 9.75279 7.33901 8.85283 5.51292" stroke="#F2F2F2" stroke-width="2" stroke-linecap="round"/>
</svg>
