<svg width="196" height="153" viewBox="0 0 196 153" fill="none" xmlns="http://www.w3.org/2000/svg">
<path d="M24.8753 1C33.5596 5.76235 43.5215 8.75664 52.8872 11.7545C77.7055 19.6987 103.005 26.2992 128.044 33.5137C142.011 37.5381 156.143 41.1826 169.999 45.5813C173.27 46.6196 172.722 46.6604 169.374 45.894C156.956 43.0513 144.768 39.26 132.421 36.1399C107.41 29.8195 82.3949 25.6811 56.6388 24.0097C52.3787 23.7333 2.40591 18.3991 1.05276 26.0106C-0.367199 33.9978 27.342 48.4308 31.6907 51.1462C55.9458 66.2914 81.3714 79.6289 106.41 93.4141C118.241 99.9281 129.891 107.035 141.925 113.172C143.569 114.011 144.223 114.095 142.55 112.422C135.639 105.511 127.643 99.3008 120.041 93.2265C103.071 79.6689 85.3837 67.209 67.2057 55.3355C62.4237 52.212 57.5979 49.1558 52.8246 46.019C44.2487 40.3834 69.7409 57.6416 78.1479 63.5264C106.544 83.4036 134.746 104.657 165.31 121.176C166.344 121.735 178.085 128.167 170.437 120.551C154.105 104.286 134.703 90.286 116.727 75.9692C92.6887 56.8252 68.5941 37.0431 42.8829 20.1331C41.7305 19.3751 34.331 14.6692 31.8783 14.0055C27.7937 12.9002 36.0961 21.4381 39.0063 24.5099C80.2451 68.0398 128.798 103.467 176.69 139.183C179.068 140.957 188.622 148.139 192.071 150.438C195.419 152.67 193.769 150.932 192.071 149.438C166.327 126.783 139.72 104.963 113.663 82.6595C85.2026 58.2994 -2.07454 -12.5208 26.8762 11.2543C44.4183 25.6604 62.592 39.42 81.6493 51.7715C108.22 68.9922 138.942 87.2807 170.875 91.9134C193.032 95.128 181.558 80.0644 171.375 71.8424C156.497 59.8306 140.984 50.639 123.792 42.0799C104.224 32.3376 71.4682 14.9956 48.0101 23.7596C39.3024 27.0128 35.8748 37.4194 37.7558 45.6439C40.2553 56.5732 51.3178 68.6518 58.8897 75.6566" stroke="#F2F2F2" stroke-width="2" stroke-linecap="round"/>
</svg>
