<svg width="165" height="95" viewBox="0 0 165 95" fill="none" xmlns="http://www.w3.org/2000/svg">
<path d="M37.0574 21.0983C39.9358 26.2794 45.764 30.6923 50.0629 34.479C62.2761 45.237 75.2285 55.2947 88.8293 64.2415C101.761 72.7483 115.461 80.4449 129.722 86.501C130.273 86.7351 153.42 94.7358 153.232 92.7536C152.865 88.9087 147.084 88.0373 143.727 86.1258C135.921 81.6794 122.97 74.9778 115.34 71.2445C90.7549 59.2142 65.572 48.1266 39.8086 38.8558C28.2159 34.6843 14.1444 32.4544 3.29313 26.3505C-6.5803 20.7967 25.9787 28.0868 36.9949 30.7274C66.5439 37.8103 95.9148 45.799 125.345 53.3619C126.882 53.7571 182.362 69.7833 141.727 56.4257C111.435 46.4683 80.9975 37.1761 50.2505 28.7265C44.0336 27.0181 37.7004 25.674 31.6176 23.5368C25.4797 21.3803 44.3032 26.4547 50.5631 28.2263C71.426 34.1309 92.2188 40.5696 112.464 48.3598C125.706 53.4552 142.375 58.985 152.481 69.6188C159.637 77.149 148.69 79.5162 143.102 80.4984C127.965 83.1593 109.909 84.2578 96.2074 76.059C78.8081 65.648 71.6485 40.2167 76.8242 21.1608C81.6568 3.36823 97.5236 14.9591 103.898 24.4747C111.933 36.4695 125.583 64.206 115.028 78.1849C103.235 93.8025 77.1323 33.2612 75.0735 28.1013C74.6132 26.9477 60.2342 -5.87018 70.6966 2.84059C91.737 20.3584 110.19 41.1881 130.972 59.1144C140.861 67.6449 172.818 90.0329 161.235 83.9999C138.258 72.0329 116.9 56.6718 94.2066 44.108C77.1583 34.6696 59.7003 25.6869 41.3717 18.9724C36.466 17.1752 31.8436 15.8025 38.1203 21.2234C59.5343 39.7172 85.3762 54.0481 110.213 67.2428" stroke="#F2F2F2" stroke-width="2" stroke-linecap="round"/>
</svg>
