<svg width="112" height="160" viewBox="0 0 112 160" fill="none" xmlns="http://www.w3.org/2000/svg">
<path d="M90.8109 1.47607C84.8393 28.988 74.2741 53.8765 60.4018 78.2918C59.2119 80.3861 38.2912 113.157 47.1561 113.878C52.4908 114.312 59.3314 111.479 64.0397 109.634C76.3224 104.821 87.6545 97.8155 97.7136 89.2988C98.8141 88.3671 114.258 75.6121 110.12 72.3686C108.151 70.8253 101.391 72.8708 100.745 73.0215C94.1858 74.5533 86.1311 77.0182 79.8505 78.9914C67.5098 82.8686 55.251 87.0569 43.4249 92.3304C38.3392 94.5982 30.4584 98.5703 25.5152 101.472C23.613 102.588 18.287 106.015 20.4781 105.763C31.5823 104.481 45.5396 97.0316 55.2247 92.5636C72.9905 84.3678 96.6454 73.6246 107.601 56.2778C112.955 47.8011 104.38 45.7429 97.4338 46.7167C77.1958 49.5538 59.2053 64.9616 45.7569 79.2713C43.0455 82.1563 30.5531 94.617 36.5222 100.446C40.3447 104.178 48.3252 101.35 52.3797 99.9793C56.3896 98.6239 60.3179 96.1424 64.4594 95.2221C68.484 94.3277 59.8922 102.257 56.6706 104.83C48.02 111.738 38.8229 117.936 29.9926 124.605C20.6792 131.639 8.41316 139.521 2.94153 150.35C1.40066 153.4 0.759114 157.842 5.22688 158.512C13.8007 159.798 24.0732 152.307 30.5989 147.878C56.6022 130.233 81.169 104.164 95.8946 76.3329C97.3062 73.665 108.587 52.2523 103.497 48.6755C96.4409 43.7173 80.5225 79.8274 78.4514 83.5155C74.317 90.8775 70.0712 98.1932 64.6926 104.737C62.7253 107.13 58.2843 113.494 57.4168 110.52C56.132 106.115 57.7714 99.3837 57.8832 94.9422C58.1748 83.3624 57.5756 71.8126 57.2303 60.2422" stroke="#95B3BF" stroke-width="2" stroke-linecap="round"/>
</svg>
