<svg width="220" height="150" viewBox="0 0 220 150" fill="none" xmlns="http://www.w3.org/2000/svg">
<path d="M69.2544 42.4719C94.8426 58.4645 118.132 78.783 142.106 97.0404C164.607 114.177 187.039 131.539 212.065 144.893C214.047 145.95 220.091 148.929 218.082 147.924C210.705 144.236 203.558 140.084 196.488 135.845C157.702 112.589 120.351 86.8129 82.7333 61.7341C73.5853 55.6354 63.251 49.6068 55.1692 42.0055C50.8402 37.9339 53.2717 36.5329 58.1541 36.0822C89.2061 33.2159 122.296 47.952 150.035 59.9151C169.088 68.1327 186.45 78.4735 204.323 88.8318C221.69 98.8966 172.035 64.9731 155.678 53.3389C143.531 44.6996 131.311 36.1288 119.532 26.9875C114.961 23.4397 102.911 11.1364 106.146 15.9338C122.596 40.3248 142.219 63.823 148.029 93.5891C149.722 102.263 150.748 116.593 144.531 124.278C137.034 133.546 121.734 124.127 114.915 120.407C98.3339 111.363 82.7124 99.9611 68.135 87.9923C62.5358 83.395 48.7814 73.967 55.1692 70.549C60.5222 67.6847 70.9251 68.6834 76.3437 68.6834C90.1952 68.6834 104.026 69.4494 117.853 70.1759C130.524 70.8417 143.214 71.7388 155.911 71.6217C159.43 71.5893 178.025 72.6075 169.53 64.1127C161.511 56.0936 149.582 50.7099 139.587 45.9232C120.751 36.9022 101.203 29.3024 81.5673 22.2302C63.4899 15.7191 45.1797 9.57463 26.5323 4.88019C22.518 3.86958 13.6194 1.85695 8.71594 1.6154C-9.01358 0.742028 12.8178 1.85145 5.45116 3.0146" stroke="#95B3BF" stroke-width="2" stroke-linecap="round"/>
</svg>
