<svg width="120" height="99" viewBox="0 0 120 99" fill="none" xmlns="http://www.w3.org/2000/svg">
<path d="M97.1761 6.07663C85.9272 16.8755 74.3352 27.2823 62.5694 37.5119C42.1837 55.2357 24.4121 75.2632 4.87594 93.8061C-5.72586 103.869 12.4383 90.2824 14.7636 88.5824C24.4488 81.5016 33.9869 74.3036 43.3538 66.8016C49.8088 61.6318 61.572 52.1374 67.7464 47.073C71.821 43.7309 89.5075 32.4681 90.8331 25.4788C91.4824 22.055 63.5788 33.2068 63.3156 33.3143C55.7035 36.4219 47.3923 39.9031 39.5293 42.3624C36.6809 43.2533 26.6922 46.1751 22.6457 45.6272C14.8192 44.5673 32.4563 29.8238 33.093 29.3032C43.6789 20.6488 55.9225 14.0118 68.7258 9.29478C72.7414 7.81535 80.0546 4.22088 84.5834 4.72408C88.9579 5.21014 76.8315 8.96991 72.6902 10.4608C59.4548 15.2255 45.7954 18.689 32.5333 23.38C25.6049 25.8307 20.2654 27.8678 13.7841 31.1688C10.712 32.7336 2.70449 36.3879 1.47124 40.5901C-0.319955 46.6934 49.8759 45.5243 53.8011 45.5339C62.5707 45.5553 74.0055 44.0215 82.4379 47.3062C91.6793 50.906 85.7636 61.0627 81.2253 65.7756C67.2294 80.3097 44.8891 89.4993 25.6773 94.7389C25.5841 94.7643 17.467 97.1928 21.1532 94.2258C30.8437 86.4262 43.3125 81.3886 54.3608 75.943C67.6667 69.3847 80.537 62.4376 93.0718 54.4887C100.828 49.5703 109.373 44.7656 116.205 38.5379C118.44 36.501 120.31 33.8568 116.672 32.1016C114.397 31.0041 109.901 30.0184 107.717 29.5831C95.6491 27.1776 83.4307 25.5196 71.3377 23.2401C67.8969 22.5915 37.3859 19.9092 53.1015 11.3469C58.87 8.20407 65.4029 5.91966 71.6641 4.07112C73.815 3.4361 83.694 0.315422 87.2418 1.64585C94.497 4.36654 66.8846 25.5592 65.7409 26.4582C50.7693 38.2266 36.5337 50.3459 22.4591 63.1637" stroke="#95B3BF" stroke-width="2" stroke-linecap="round"/>
</svg>
