<svg width="167" height="101" viewBox="0 0 167 101" fill="none" xmlns="http://www.w3.org/2000/svg">
<path d="M59.8172 1.18018C70.5495 9.94127 83.0047 16.8445 94.797 24.0337C103.742 29.4869 112.95 34.6227 121.662 40.4509C125.829 43.2388 132.032 46.8931 134.068 51.8776C139.389 64.9061 109.312 64.5722 104.358 64.4237C73.8297 63.509 44.396 53.9897 14.2035 50.3385C13.9915 50.3129 4.72345 49.0522 2.4036 49.8255C-1.62652 51.1689 9.79922 54.1285 13.8303 55.4689C45.1779 65.892 77.539 73.9973 109.442 82.52C122.595 86.0339 135.842 89.2215 148.946 92.9207C150.348 93.3165 163.974 95.9876 165.13 99.0305C165.32 99.5316 164.262 99.7536 163.731 99.8233C160.163 100.291 154.952 99.0731 151.884 98.3309C139.336 95.2949 127.231 90.3897 115.319 85.5049C91.4762 75.7281 67.2385 65.6095 44.7992 52.8571C43.9471 52.3728 31.6596 46.4543 32.8594 42.6896C34.2778 38.2387 47.9298 40.1064 49.5098 40.311C66.5789 42.5208 82.4767 50.0851 97.6887 57.7076C116.115 66.941 136.304 76.7962 152.63 89.6092C153.815 90.5386 156.743 92.4199 155.429 93.1539C153.516 94.222 151.087 92.392 149.039 91.6147C145 90.0818 141.036 88.3126 137.239 86.2512C117.578 75.5768 100.009 61.5483 82.7173 47.4935C77.8059 43.5013 60.8207 29.574 54.8267 23.6606C53.6027 22.4529 50.6157 20.8893 51.7019 19.5563C52.8419 18.1571 55.2167 20.4388 56.8789 21.142C60.0806 22.4966 63.1839 24.0807 66.2535 25.7127C77.9869 31.951 89.2389 39.1702 100.301 46.5141C109.529 52.6408 119.53 58.8558 127.072 67.1288C133.916 74.6362 134.808 83.9336 122.408 82.7065C113.65 81.8399 106.789 76.8915 100.114 71.6995" stroke="#95B3BF" stroke-width="2" stroke-linecap="round"/>
</svg>
