<svg width="1745" height="41" viewBox="0 0 1745 41" fill="none" xmlns="http://www.w3.org/2000/svg">
<path d="M65.9034 18.9941C84.8439 16.3768 111.503 17.676 131.279 17.676C197.265 17.676 263.246 17.9094 329.189 17.017C394.066 16.139 459.326 16.562 523.976 14.3808C582.072 12.4207 640.331 12.4086 698.459 10.573C873.799 5.036 1052.73 0.591644 1228.82 5.15417C1277.07 6.40419 1325.43 8.58714 1373.63 9.62103C1384.39 9.85179 1395.21 9.76749 1405.98 9.76749C1413.74 9.76749 1416.47 9.64357 1406.65 10.1336C1325.68 14.1776 1244.6 18.0205 1164.12 22.9118C1119.15 25.645 1072.8 27.5439 1027.45 29.5022C960.565 32.3907 892.663 34.5412 825.304 35.7632C754.939 37.0397 684.42 36.8212 614.006 37.7403C533.728 38.7882 453.334 38.8594 373.033 39.7174C331.401 40.1623 289.692 40.2232 248.195 38.8387C190.822 36.9244 133.927 33.4402 76.7249 31.04C52.8424 30.0379 30.044 28.8267 6.77562 26.8294C4.98939 26.6761 -0.314091 26.2436 1.53221 26.2436C11.6833 26.2436 21.8379 26.2202 31.9886 26.2436C78.393 26.3509 124.624 27.6432 170.995 28.0743C246.825 28.7793 322.794 27.5124 398.581 26.7562C592.944 24.8169 787.146 22.1318 981.38 19.1406C1088.16 17.4962 1196.55 14.5552 1303.35 17.8225C1345.57 19.1144 1218.57 19.3163 1176.17 18.9941C988.658 17.5692 801.397 19.3448 613.895 18.8477C442.957 18.3944 272.159 15.9827 101.38 13.7218C94.3262 13.6284 67.8236 13.2849 59.2097 13.0627C56.8136 13.0009 53.6664 13.3227 52.0697 12.7332C50.8632 12.2877 55.6113 12.4361 57.4247 12.4037C65.1875 12.2649 72.9668 12.2297 80.7411 12.2206C198.424 12.0822 316.228 14.9548 433.834 16.065C804.126 19.5607 1174.26 17.5292 1543.76 28.0743C1594.8 29.5309 1645.66 31.691 1696.71 33.0537C1708.21 33.3607 1742.83 33.4931 1731.3 33.4931C1642.15 33.4931 1552.78 31.8861 1463.66 31.1498C1286.3 29.6846 1108.45 27.3056 931.288 24.1933C868.862 23.0966 806.523 21.3934 744.199 19.7996C744.08 19.7966 721.924 19.299 718.094 18.8477C708.82 17.7551 737.289 17.2785 747.1 16.9804C949.989 10.815 1154.86 9.22122 1358.35 6.21596C1444.93 4.93718 1531.6 4.23333 1618.17 2.88413C1657.13 2.27696 1697.7 0.323562 1736.76 1.30974C1759.43 1.88199 1728.65 5.59707 1723.71 6.10612C1673.38 11.2979 1619.26 13.406 1567.3 15.9552C1298.55 29.1409 1026.12 35.5456 754.686 38.7655" stroke="#F2F2F2" stroke-width="2" stroke-linecap="round"/>
</svg>
