<svg width="155" height="13" viewBox="0 0 155 13" fill="none" xmlns="http://www.w3.org/2000/svg">
<path d="M6.86011 3.46212C4.81817 3.46655 2.77619 3.46212 0.73427 3.46212H6.86011Z" fill="#95B3BF"/>
<path d="M143.418 2.39658C127.185 2.39658 110.978 1.45426 94.7525 1.09426C66.852 0.475231 39.2343 3.09507 11.3778 3.43252C7.83018 3.47549 4.28213 3.46212 0.73427 3.46212C-2.914 3.46212 8.03081 3.46212 11.6791 3.46212C40.7764 3.46212 69.6869 4.89111 98.702 6.77711C116.11 7.90866 133.798 7.8908 151.15 9.35215C165.335 10.5468 122.69 10.8568 108.442 10.9505C83.5067 11.1144 58.5749 12.4109 33.6356 11.868C30.7022 11.8041 22.0051 11.7623 24.8664 11.1872C26.4061 10.8778 27.9841 10.9209 29.5523 10.9209" stroke="#95B3BF" stroke-width="2" stroke-linecap="round"/>
</svg>
